<svg width="438" height="228" viewBox="0 0 438 228" fill="none" xmlns="http://www.w3.org/2000/svg">
<g filter="url(#filter0_d_645_22303)">
<rect x="29" y="25" width="380" height="169.358" rx="8" fill="white"/>
<rect x="28.5" y="24.5" width="381" height="170.358" rx="8.5" stroke="#E9E8E6"/>
<rect x="45" y="41" width="348" height="33.2778" rx="7.63889" fill="#F8F8F7"/>
<g clip-path="url(#clip0_645_22303)">
<path d="M52.6357 43.3872L157.033 43.3872C159.934 43.3872 162.285 45.7387 162.285 48.6392V66.6392C162.285 69.5395 159.934 71.8901 157.033 71.8901H52.6357C49.7354 71.8901 47.384 69.5395 47.3838 66.6392V48.6392C47.3838 45.7387 49.7353 43.3872 52.6357 43.3872Z" fill="white"/>
<path d="M52.6357 43.3872L157.033 43.3872C159.934 43.3872 162.285 45.7387 162.285 48.6392V66.6392C162.285 69.5395 159.934 71.8901 157.033 71.8901H52.6357C49.7354 71.8901 47.384 69.5395 47.3838 66.6392V48.6392C47.3838 45.7387 49.7353 43.3872 52.6357 43.3872Z" stroke="#E9E8E6" stroke-width="0.954861"/>
<path d="M72.4246 53.1793V51.9166H79.9489V53.1793H76.9154V61.6388H75.4533V53.1793H72.4246ZM80.7405 61.6388V54.3471H82.1124V55.5054H82.1883C82.3213 55.113 82.5555 54.8044 82.8909 54.5797C83.2296 54.3519 83.6125 54.2379 84.0397 54.2379C84.1284 54.2379 84.2328 54.2411 84.3531 54.2474C84.4765 54.2538 84.573 54.2617 84.6426 54.2712V55.6289C84.5857 55.613 84.4844 55.5956 84.3388 55.5766C84.1932 55.5545 84.0477 55.5434 83.9021 55.5434C83.5666 55.5434 83.2675 55.6146 83.0049 55.757C82.7453 55.8963 82.5396 56.0909 82.3877 56.3409C82.2358 56.5878 82.1599 56.8695 82.1599 57.1859V61.6388H80.7405ZM87.9277 61.8002C87.4656 61.8002 87.0479 61.7147 86.6744 61.5438C86.301 61.3698 86.0051 61.1182 85.7867 60.789C85.5715 60.4599 85.4639 60.0564 85.4639 59.5785C85.4639 59.1671 85.543 58.8285 85.7013 58.5626C85.8595 58.2968 86.0731 58.0863 86.3421 57.9312C86.6111 57.7762 86.9118 57.6591 87.2441 57.58C87.5764 57.5008 87.915 57.4407 88.26 57.3996C88.6967 57.3489 89.0512 57.3078 89.3234 57.2761C89.5955 57.2413 89.7933 57.1859 89.9168 57.11C90.0402 57.034 90.1019 56.9106 90.1019 56.7397V56.7065C90.1019 56.2919 89.9848 55.9707 89.7506 55.7428C89.5196 55.5149 89.1746 55.401 88.7157 55.401C88.2378 55.401 87.8612 55.507 87.5859 55.7191C87.3137 55.9279 87.1254 56.1605 87.021 56.4169L85.687 56.1131C85.8453 55.67 86.0763 55.3124 86.3801 55.0402C86.6871 54.7649 87.04 54.5655 87.4387 54.4421C87.8375 54.3155 88.2568 54.2522 88.6967 54.2522C88.9879 54.2522 89.2965 54.287 89.6224 54.3566C89.9516 54.4231 90.2586 54.5465 90.5434 54.7269C90.8314 54.9073 91.0672 55.1652 91.2507 55.5007C91.4343 55.833 91.526 56.265 91.526 56.7967V61.6388H90.1399V60.6419H90.0829C89.9911 60.8254 89.8535 61.0058 89.6699 61.1831C89.4863 61.3603 89.2506 61.5075 88.9626 61.6246C88.6746 61.7416 88.3296 61.8002 87.9277 61.8002ZM88.2363 60.6609C88.6287 60.6609 88.9642 60.5833 89.2427 60.4283C89.5243 60.2732 89.7379 60.0706 89.8835 59.8206C90.0323 59.5674 90.1066 59.2969 90.1066 59.0089V58.0689C90.056 58.1196 89.9579 58.167 89.8123 58.2113C89.6699 58.2525 89.5069 58.2889 89.3234 58.3205C89.1398 58.349 88.961 58.3759 88.7869 58.4012C88.6129 58.4234 88.4673 58.4424 88.3502 58.4582C88.0748 58.493 87.8232 58.5515 87.5954 58.6338C87.3707 58.7161 87.1903 58.8348 87.0542 58.9899C86.9213 59.1418 86.8548 59.3443 86.8548 59.5975C86.8548 59.9488 86.9846 60.2146 87.2441 60.395C87.5036 60.5723 87.8343 60.6609 88.2363 60.6609ZM94.836 57.3094V61.6388H93.4166V54.3471H94.7791V55.5339H94.8692C95.037 55.1478 95.2997 54.8377 95.6573 54.6035C96.0181 54.3693 96.4722 54.2522 97.0197 54.2522C97.5166 54.2522 97.9517 54.3566 98.3252 54.5655C98.6986 54.7712 98.9882 55.0782 99.1939 55.4864C99.3996 55.8947 99.5025 56.3995 99.5025 57.0008V61.6388H98.0831V57.1717C98.0831 56.6432 97.9454 56.2302 97.6701 55.9327C97.3947 55.632 97.0166 55.4817 96.5355 55.4817C96.2064 55.4817 95.9136 55.5529 95.6573 55.6953C95.4041 55.8377 95.2031 56.0466 95.0544 56.322C94.9088 56.5941 94.836 56.9233 94.836 57.3094ZM106.87 56.1273L105.584 56.3552C105.53 56.1906 105.444 56.034 105.327 55.8852C105.213 55.7365 105.058 55.6146 104.862 55.5197C104.666 55.4247 104.421 55.3773 104.126 55.3773C103.724 55.3773 103.389 55.4675 103.12 55.6479C102.851 55.8251 102.716 56.0545 102.716 56.3362C102.716 56.5799 102.807 56.7761 102.987 56.9248C103.167 57.0736 103.458 57.1954 103.86 57.2904L105.019 57.5562C105.69 57.7113 106.19 57.9502 106.519 58.273C106.848 58.5959 107.013 59.0152 107.013 59.531C107.013 59.9678 106.886 60.3571 106.633 60.6989C106.383 61.0375 106.033 61.3033 105.584 61.4964C105.137 61.6894 104.62 61.786 104.031 61.786C103.215 61.786 102.549 61.6119 102.033 61.2638C101.517 60.9125 101.2 60.414 101.083 59.7684L102.455 59.5595C102.541 59.9171 102.716 60.1877 102.982 60.3713C103.248 60.5517 103.595 60.6419 104.022 60.6419C104.487 60.6419 104.859 60.5454 105.137 60.3523C105.416 60.1561 105.555 59.9171 105.555 59.6355C105.555 59.4076 105.47 59.2161 105.299 59.0611C105.131 58.906 104.873 58.7889 104.525 58.7098L103.291 58.4392C102.61 58.2841 102.107 58.0373 101.781 57.6986C101.458 57.36 101.297 56.9312 101.297 56.4121C101.297 55.9817 101.417 55.6051 101.658 55.2823C101.898 54.9595 102.231 54.7079 102.655 54.5275C103.079 54.344 103.564 54.2522 104.112 54.2522C104.9 54.2522 105.52 54.4231 105.973 54.7649C106.425 55.1035 106.725 55.5577 106.87 56.1273ZM111.645 61.786C110.939 61.786 110.331 61.6261 109.822 61.3065C109.315 60.9837 108.926 60.539 108.654 59.9725C108.382 59.406 108.246 58.7573 108.246 58.0262C108.246 57.2856 108.385 56.6321 108.663 56.0656C108.942 55.4959 109.334 55.0513 109.841 54.7316C110.347 54.412 110.944 54.2522 111.63 54.2522C112.184 54.2522 112.678 54.355 113.111 54.5608C113.545 54.7633 113.895 55.0481 114.161 55.4152C114.43 55.7824 114.589 56.2112 114.64 56.7017H113.259C113.183 56.3599 113.009 56.0656 112.736 55.8188C112.467 55.5719 112.107 55.4485 111.654 55.4485C111.258 55.4485 110.912 55.5529 110.614 55.7618C110.32 55.9675 110.091 56.2618 109.926 56.6448C109.762 57.0245 109.679 57.4739 109.679 57.993C109.679 58.5246 109.76 58.9835 109.921 59.3696C110.083 59.7557 110.311 60.0548 110.605 60.2669C110.902 60.4789 111.252 60.5849 111.654 60.5849C111.923 60.5849 112.167 60.5359 112.385 60.4378C112.607 60.3365 112.792 60.1925 112.941 60.0058C113.092 59.819 113.198 59.5943 113.259 59.3317H114.64C114.589 59.8032 114.436 60.2241 114.18 60.5944C113.923 60.9647 113.58 61.2559 113.149 61.4679C112.722 61.6799 112.221 61.786 111.645 61.786ZM116.158 61.6388V54.3471H117.53V55.5054H117.606C117.739 55.113 117.973 54.8044 118.308 54.5797C118.647 54.3519 119.03 54.2379 119.457 54.2379C119.546 54.2379 119.65 54.2411 119.771 54.2474C119.894 54.2538 119.991 54.2617 120.06 54.2712V55.6289C120.003 55.613 119.902 55.5956 119.756 55.5766C119.611 55.5545 119.465 55.5434 119.32 55.5434C118.984 55.5434 118.685 55.6146 118.422 55.757C118.163 55.8963 117.957 56.0909 117.805 56.3409C117.653 56.5878 117.577 56.8695 117.577 57.1859V61.6388H116.158ZM121.288 61.6388V54.3471H122.708V61.6388H121.288ZM122.005 53.222C121.758 53.222 121.546 53.1398 121.369 52.9752C121.195 52.8075 121.108 52.6081 121.108 52.377C121.108 52.1429 121.195 51.9435 121.369 51.7789C121.546 51.6112 121.758 51.5273 122.005 51.5273C122.252 51.5273 122.463 51.6112 122.637 51.7789C122.814 51.9435 122.903 52.1429 122.903 52.377C122.903 52.6081 122.814 52.8075 122.637 52.9752C122.463 53.1398 122.252 53.222 122.005 53.222ZM124.617 64.3732V54.3471H126.004V55.5292H126.122C126.205 55.3773 126.323 55.2016 126.478 55.0022C126.633 54.8029 126.849 54.6288 127.124 54.48C127.399 54.3281 127.763 54.2522 128.216 54.2522C128.804 54.2522 129.33 54.4009 129.792 54.6984C130.254 54.9959 130.616 55.4247 130.879 55.9849C131.145 56.5451 131.278 57.2192 131.278 58.0072C131.278 58.7952 131.146 59.4709 130.884 60.0342C130.621 60.5944 130.26 61.0264 129.801 61.3302C129.342 61.6309 128.819 61.7812 128.23 61.7812C127.787 61.7812 127.425 61.7068 127.143 61.5581C126.864 61.4093 126.646 61.2353 126.488 61.0359C126.33 60.8365 126.208 60.6593 126.122 60.5042H126.037V64.3732H124.617ZM126.008 57.993C126.008 58.5057 126.083 58.9551 126.231 59.3412C126.38 59.7273 126.595 60.0295 126.877 60.2479C127.159 60.4631 127.504 60.5707 127.912 60.5707C128.336 60.5707 128.691 60.4583 128.975 60.2336C129.26 60.0058 129.475 59.6972 129.621 59.3079C129.77 58.9187 129.844 58.4803 129.844 57.993C129.844 57.5119 129.771 57.0799 129.626 56.697C129.483 56.314 129.268 56.0118 128.98 55.7903C128.695 55.5687 128.339 55.458 127.912 55.458C127.501 55.458 127.152 55.564 126.868 55.776C126.586 55.9881 126.372 56.284 126.227 56.6638C126.081 57.0435 126.008 57.4866 126.008 57.993ZM136.272 54.3471V55.4864L132.289 55.4864V54.3471L136.272 54.3471ZM133.357 52.6002H134.776V59.4978C134.776 59.7732 134.818 59.9804 134.9 60.1197C134.982 60.2558 135.088 60.3491 135.218 60.3998C135.351 60.4473 135.495 60.471 135.65 60.471C135.764 60.471 135.864 60.4631 135.949 60.4473C136.034 60.4314 136.101 60.4188 136.148 60.4093L136.405 61.5818C136.322 61.6135 136.205 61.6451 136.053 61.6768C135.901 61.7116 135.712 61.7306 135.484 61.7337C135.11 61.7401 134.762 61.6736 134.439 61.5344C134.117 61.3951 133.855 61.1799 133.656 60.8887C133.457 60.5976 133.357 60.232 133.357 59.7921V52.6002Z" fill="#21201D"/>
<path d="M198.763 61.6388V51.9166H202.229C202.985 51.9166 203.612 52.0542 204.109 52.3296C204.606 52.6049 204.977 52.9815 205.224 53.4594C205.471 53.9341 205.595 54.469 205.595 55.064C205.595 55.6621 205.47 56.2001 205.22 56.678C204.973 57.1527 204.599 57.5293 204.099 57.8078C203.602 58.0832 202.977 58.2208 202.224 58.2208H199.841V56.9771H202.091C202.569 56.9771 202.957 56.8948 203.254 56.7302C203.552 56.5625 203.77 56.3346 203.909 56.0466C204.049 55.7586 204.118 55.4311 204.118 55.064C204.118 54.6968 204.049 54.3709 203.909 54.086C203.77 53.8012 203.55 53.5781 203.25 53.4167C202.952 53.2553 202.56 53.1746 202.072 53.1746H200.23V61.6388H198.763ZM209.257 61.8002C208.795 61.8002 208.377 61.7147 208.004 61.5438C207.63 61.3698 207.334 61.1182 207.116 60.789C206.901 60.4599 206.793 60.0564 206.793 59.5785C206.793 59.1671 206.872 58.8285 207.031 58.5626C207.189 58.2968 207.403 58.0863 207.672 57.9312C207.941 57.7762 208.241 57.6591 208.573 57.58C208.906 57.5008 209.244 57.4407 209.589 57.3996C210.026 57.3489 210.381 57.3078 210.653 57.2761C210.925 57.2413 211.123 57.1859 211.246 57.11C211.37 57.034 211.431 56.9106 211.431 56.7397V56.7065C211.431 56.2919 211.314 55.9707 211.08 55.7428C210.849 55.5149 210.504 55.401 210.045 55.401C209.567 55.401 209.191 55.507 208.915 55.7191C208.643 55.9279 208.455 56.1605 208.35 56.4169L207.016 56.1131C207.175 55.67 207.406 55.3124 207.709 55.0402C208.016 54.7649 208.369 54.5655 208.768 54.4421C209.167 54.3155 209.586 54.2522 210.026 54.2522C210.317 54.2522 210.626 54.287 210.952 54.3566C211.281 54.4231 211.588 54.5465 211.873 54.7269C212.161 54.9073 212.397 55.1652 212.58 55.5007C212.764 55.833 212.855 56.265 212.855 56.7967V61.6388H211.469V60.6419H211.412C211.321 60.8254 211.183 61.0058 210.999 61.1831C210.816 61.3603 210.58 61.5075 210.292 61.6246C210.004 61.7416 209.659 61.8002 209.257 61.8002ZM209.566 60.6609C209.958 60.6609 210.294 60.5833 210.572 60.4283C210.854 60.2732 211.067 60.0706 211.213 59.8206C211.362 59.5674 211.436 59.2969 211.436 59.0089V58.0689C211.385 58.1196 211.287 58.167 211.142 58.2113C210.999 58.2525 210.836 58.2889 210.653 58.3205C210.469 58.349 210.29 58.3759 210.116 58.4012C209.942 58.4234 209.797 58.4424 209.68 58.4582C209.404 58.493 209.153 58.5515 208.925 58.6338C208.7 58.7161 208.52 58.8348 208.384 58.9899C208.251 59.1418 208.184 59.3443 208.184 59.5975C208.184 59.9488 208.314 60.2146 208.573 60.395C208.833 60.5723 209.164 60.6609 209.566 60.6609ZM218.15 54.3471V55.4864H214.167V54.3471H218.15ZM215.235 52.6002H216.654V59.4978C216.654 59.7732 216.695 59.9804 216.778 60.1197C216.86 60.2558 216.966 60.3491 217.096 60.3998C217.229 60.4473 217.373 60.471 217.528 60.471C217.642 60.471 217.741 60.4631 217.827 60.4473C217.912 60.4314 217.979 60.4188 218.026 60.4093L218.283 61.5818C218.2 61.6135 218.083 61.6451 217.931 61.6768C217.779 61.7116 217.59 61.7306 217.362 61.7337C216.988 61.7401 216.64 61.6736 216.317 61.5344C215.994 61.3951 215.733 61.1799 215.534 60.8887C215.335 60.5976 215.235 60.232 215.235 59.7921V52.6002ZM219.72 61.6388V54.3471H221.139V61.6388H219.72ZM220.437 53.222C220.19 53.222 219.978 53.1398 219.801 52.9752C219.626 52.8075 219.539 52.6081 219.539 52.377C219.539 52.1429 219.626 51.9435 219.801 51.7789C219.978 51.6112 220.19 51.5273 220.437 51.5273C220.684 51.5273 220.894 51.6112 221.068 51.7789C221.245 51.9435 221.334 52.1429 221.334 52.377C221.334 52.6081 221.245 52.8075 221.068 52.9752C220.894 53.1398 220.684 53.222 220.437 53.222ZM226.191 61.786C225.473 61.786 224.854 61.6325 224.335 61.3255C223.819 61.0153 223.421 60.5802 223.139 60.02C222.861 59.4567 222.721 58.7968 222.721 58.0404C222.721 57.2935 222.861 56.6353 223.139 56.0656C223.421 55.4959 223.813 55.0513 224.316 54.7316C224.823 54.412 225.414 54.2522 226.092 54.2522C226.503 54.2522 226.902 54.3202 227.288 54.4563C227.674 54.5924 228.021 54.806 228.328 55.0972C228.635 55.3883 228.877 55.7665 229.054 56.2318C229.231 56.6938 229.32 57.2556 229.32 57.917V58.4202H223.524V57.3568H227.929C227.929 56.9834 227.853 56.6527 227.701 56.3647C227.549 56.0735 227.336 55.8441 227.06 55.6763C226.788 55.5086 226.468 55.4247 226.101 55.4247C225.702 55.4247 225.354 55.5228 225.057 55.7191C224.763 55.9121 224.535 56.1653 224.373 56.4786C224.215 56.7888 224.136 57.1258 224.136 57.4898V58.3205C224.136 58.8079 224.221 59.2225 224.392 59.5643C224.566 59.9061 224.808 60.1672 225.119 60.3476C225.429 60.5248 225.791 60.6134 226.206 60.6134C226.475 60.6134 226.72 60.5754 226.941 60.4995C227.163 60.4204 227.354 60.3033 227.516 60.1482C227.677 59.9931 227.801 59.8016 227.886 59.5738L229.23 59.8159C229.122 60.2115 228.929 60.558 228.65 60.8555C228.375 61.1498 228.029 61.3793 227.611 61.5438C227.196 61.7053 226.723 61.786 226.191 61.786ZM232.314 57.3094V61.6388H230.895V54.3471H232.257V55.5339H232.347C232.515 55.1478 232.778 54.8377 233.135 54.6035C233.496 54.3693 233.95 54.2522 234.498 54.2522C234.995 54.2522 235.43 54.3566 235.803 54.5655C236.177 54.7712 236.466 55.0782 236.672 55.4864C236.878 55.8947 236.981 56.3995 236.981 57.0008V61.6388H235.561V57.1717C235.561 56.6432 235.424 56.2302 235.148 55.9327C234.873 55.632 234.495 55.4817 234.014 55.4817C233.684 55.4817 233.392 55.5529 233.135 55.6953C232.882 55.8377 232.681 56.0466 232.532 56.322C232.387 56.5941 232.314 56.9233 232.314 57.3094ZM242.288 54.3471V55.4864H238.305V54.3471H242.288ZM239.373 52.6002H240.793V59.4978C240.793 59.7732 240.834 59.9804 240.916 60.1197C240.998 60.2558 241.104 60.3491 241.234 60.3998C241.367 60.4473 241.511 60.471 241.666 60.471C241.78 60.471 241.88 60.4631 241.965 60.4473C242.051 60.4314 242.117 60.4188 242.165 60.4093L242.421 61.5818C242.339 61.6135 242.221 61.6451 242.07 61.6768C241.918 61.7116 241.728 61.7306 241.5 61.7337C241.126 61.7401 240.778 61.6736 240.456 61.5344C240.133 61.3951 239.872 61.1799 239.672 60.8887C239.473 60.5976 239.373 60.232 239.373 59.7921V52.6002Z" fill="#82807C"/>
<path d="M314.115 61.6388V51.9166H315.582V56.1416H320.429V51.9166H321.9V61.6388H320.429V57.3996H315.582V61.6388H314.115ZM323.923 61.6388V54.3471H325.342V61.6388H323.923ZM324.639 53.222C324.393 53.222 324.181 53.1398 324.003 52.9752C323.829 52.8075 323.742 52.6081 323.742 52.377C323.742 52.1429 323.829 51.9435 324.003 51.7789C324.181 51.6112 324.393 51.5273 324.639 51.5273C324.886 51.5273 325.097 51.6112 325.271 51.7789C325.448 51.9435 325.537 52.1429 325.537 52.377C325.537 52.6081 325.448 52.8075 325.271 52.9752C325.097 53.1398 324.886 53.222 324.639 53.222ZM332.716 56.1273L331.429 56.3552C331.375 56.1906 331.29 56.034 331.173 55.8852C331.059 55.7365 330.904 55.6146 330.708 55.5197C330.511 55.4247 330.266 55.3773 329.972 55.3773C329.57 55.3773 329.234 55.4675 328.965 55.6479C328.696 55.8251 328.562 56.0545 328.562 56.3362C328.562 56.5799 328.652 56.7761 328.832 56.9248C329.013 57.0736 329.304 57.1954 329.706 57.2904L330.864 57.5562C331.535 57.7113 332.035 57.9502 332.364 58.273C332.693 58.5959 332.858 59.0152 332.858 59.531C332.858 59.9678 332.731 60.3571 332.478 60.6989C332.228 61.0375 331.879 61.3033 331.429 61.4964C330.983 61.6894 330.465 61.786 329.877 61.786C329.06 61.786 328.394 61.6119 327.878 61.2638C327.362 60.9125 327.046 60.414 326.929 59.7684L328.301 59.5595C328.386 59.9171 328.562 60.1877 328.828 60.3713C329.094 60.5517 329.44 60.6419 329.867 60.6419C330.333 60.6419 330.704 60.5454 330.983 60.3523C331.261 60.1561 331.401 59.9171 331.401 59.6355C331.401 59.4076 331.315 59.2161 331.144 59.0611C330.977 58.906 330.719 58.7889 330.371 58.7098L329.136 58.4392C328.456 58.2841 327.953 58.0373 327.627 57.6986C327.304 57.36 327.142 56.9312 327.142 56.4121C327.142 55.9817 327.263 55.6051 327.503 55.2823C327.744 54.9595 328.076 54.7079 328.5 54.5275C328.924 54.344 329.41 54.2522 329.958 54.2522C330.746 54.2522 331.366 54.4231 331.818 54.7649C332.271 55.1035 332.57 55.5577 332.716 56.1273ZM337.822 54.3471V55.4864H333.84V54.3471H337.822ZM334.908 52.6002H336.327V59.4978C336.327 59.7732 336.368 59.9804 336.45 60.1197C336.533 60.2558 336.639 60.3491 336.769 60.3998C336.901 60.4473 337.045 60.471 337.201 60.471C337.314 60.471 337.414 60.4631 337.5 60.4473C337.585 60.4314 337.652 60.4188 337.699 60.4093L337.955 61.5818C337.873 61.6135 337.756 61.6451 337.604 61.6768C337.452 61.7116 337.262 61.7306 337.034 61.7337C336.661 61.7401 336.313 61.6736 335.99 61.5344C335.667 61.3951 335.406 61.1799 335.207 60.8887C335.007 60.5976 334.908 60.232 334.908 59.7921V52.6002ZM342.386 61.786C341.702 61.786 341.105 61.6293 340.596 61.316C340.086 61.0027 339.691 60.5643 339.409 60.001C339.127 59.4377 338.987 58.7794 338.987 58.0262C338.987 57.2698 339.127 56.6084 339.409 56.0419C339.691 55.4754 340.086 55.0355 340.596 54.7222C341.105 54.4088 341.702 54.2522 342.386 54.2522C343.069 54.2522 343.666 54.4088 344.175 54.7222C344.685 55.0355 345.08 55.4754 345.362 56.0419C345.644 56.6084 345.785 57.2698 345.785 58.0262C345.785 58.7794 345.644 59.4377 345.362 60.001C345.08 60.5643 344.685 61.0027 344.175 61.316C343.666 61.6293 343.069 61.786 342.386 61.786ZM342.39 60.5944C342.833 60.5944 343.201 60.4773 343.492 60.2431C343.783 60.0089 343.998 59.6972 344.137 59.3079C344.28 58.9187 344.351 58.4898 344.351 58.0214C344.351 57.5562 344.28 57.129 344.137 56.7397C343.998 56.3473 343.783 56.0324 343.492 55.795C343.201 55.5577 342.833 55.439 342.39 55.439C341.944 55.439 341.574 55.5577 341.28 55.795C340.988 56.0324 340.772 56.3473 340.629 56.7397C340.49 57.129 340.42 57.5562 340.42 58.0214C340.42 58.4898 340.49 58.9187 340.629 59.3079C340.772 59.6972 340.988 60.0089 341.28 60.2431C341.574 60.4773 341.944 60.5944 342.39 60.5944ZM347.369 61.6388V54.3471H348.741V55.5054H348.817C348.95 55.113 349.184 54.8044 349.519 54.5797C349.858 54.3519 350.241 54.2379 350.668 54.2379C350.757 54.2379 350.861 54.2411 350.982 54.2474C351.105 54.2538 351.202 54.2617 351.271 54.2712V55.6289C351.214 55.613 351.113 55.5956 350.967 55.5766C350.822 55.5545 350.676 55.5434 350.531 55.5434C350.195 55.5434 349.896 55.6146 349.633 55.757C349.374 55.8963 349.168 56.0909 349.016 56.3409C348.864 56.5878 348.788 56.8695 348.788 57.1859V61.6388H347.369ZM353.619 64.3732C353.407 64.3732 353.214 64.3558 353.039 64.3209C352.865 64.2893 352.736 64.2545 352.65 64.2165L352.992 63.0535C353.252 63.1231 353.483 63.1531 353.685 63.1436C353.888 63.1342 354.066 63.0582 354.222 62.9158C354.38 62.7734 354.519 62.5408 354.639 62.2179L354.815 61.7337L352.147 54.3471H353.666L355.513 60.0058H355.589L357.435 54.3471H358.959L355.954 62.612C355.815 62.9917 355.638 63.313 355.423 63.5756C355.207 63.8415 354.951 64.0409 354.654 64.1738C354.356 64.3067 354.011 64.3732 353.619 64.3732Z" fill="#82807C"/>
</g>
<g clip-path="url(#clip1_645_22303)">
<rect x="45" y="111.995" width="1.90972" height="1.90972" rx="0.954861" fill="#DAD9D6"/>
<rect x="48.8203" y="111.995" width="1.90972" height="1.90972" rx="0.954861" fill="#DAD9D6"/>
<rect x="52.6406" y="111.995" width="1.90972" height="1.90972" rx="0.954861" fill="#DAD9D6"/>
<rect x="56.4609" y="111.995" width="1.90972" height="1.90972" rx="0.954861" fill="#DAD9D6"/>
<rect x="60.2812" y="111.995" width="1.90972" height="1.90972" rx="0.954861" fill="#DAD9D6"/>
<rect x="64.0938" y="107.698" width="1.90972" height="10.5035" rx="0.954861" fill="#DAD9D6"/>
<rect x="67.9141" y="111.995" width="1.90972" height="1.90972" rx="0.954861" fill="#DAD9D6"/>
<rect x="71.7344" y="111.995" width="1.90972" height="1.90972" rx="0.954861" fill="#DAD9D6"/>
<rect x="75.5547" y="109.608" width="1.90972" height="6.68403" rx="0.954861" fill="#DAD9D6"/>
<rect x="79.375" y="111.995" width="1.90972" height="1.90972" rx="0.954861" fill="#DAD9D6"/>
<rect x="83.1953" y="109.608" width="1.90972" height="6.68403" rx="0.954861" fill="#DAD9D6"/>
<rect x="87.0156" y="108.653" width="1.90972" height="8.59375" rx="0.954861" fill="#DAD9D6"/>
<rect x="90.8359" y="111.995" width="1.90972" height="1.90972" rx="0.954861" fill="#DAD9D6"/>
<rect x="94.6562" y="111.995" width="1.90972" height="1.90972" rx="0.954861" fill="#DAD9D6"/>
<rect x="98.4688" y="111.995" width="1.90972" height="1.90972" rx="0.954861" fill="#DAD9D6"/>
<rect x="102.289" y="110.562" width="1.90972" height="4.77431" rx="0.954861" fill="#DAD9D6"/>
<rect x="106.109" y="111.995" width="1.90972" height="1.90972" rx="0.954861" fill="#DAD9D6"/>
<rect x="109.93" y="111.995" width="1.90972" height="1.90972" rx="0.954861" fill="#DAD9D6"/>
<rect x="113.75" y="109.608" width="1.90972" height="6.68403" rx="0.954861" fill="#DAD9D6"/>
<rect x="117.57" y="111.995" width="1.90972" height="1.90972" rx="0.954861" fill="#DAD9D6"/>
<rect x="121.391" y="107.698" width="1.90972" height="10.5035" rx="0.954861" fill="#DAD9D6"/>
<rect x="125.211" y="111.995" width="1.90972" height="1.90972" rx="0.954861" fill="#DAD9D6"/>
<rect x="129.031" y="111.995" width="1.90972" height="1.90972" rx="0.954861" fill="#DAD9D6"/>
<rect x="132.844" y="111.995" width="1.90972" height="1.90972" rx="0.954861" fill="#DAD9D6"/>
<rect x="136.664" y="105.788" width="1.90972" height="14.3229" rx="0.954861" fill="#DAD9D6"/>
<rect x="140.484" y="92.4202" width="1.90972" height="41.059" rx="0.954861" fill="#DAD9D6"/>
<rect x="144.305" y="97.1945" width="1.90972" height="31.5104" rx="0.954861" fill="#DAD9D6"/>
<rect x="148.125" y="99.1042" width="1.90972" height="27.691" rx="0.954861" fill="#DAD9D6"/>
<rect x="151.945" y="97.1945" width="1.90972" height="31.5104" rx="0.954861" fill="#DAD9D6"/>
<rect x="155.766" y="101.969" width="1.90972" height="21.9618" rx="0.954861" fill="#DAD9D6"/>
<rect x="159.586" y="100.059" width="1.90972" height="25.7812" rx="0.954861" fill="#DAD9D6"/>
<rect x="163.406" y="105.788" width="1.90972" height="14.3229" rx="0.954861" fill="#DAD9D6"/>
<rect x="167.219" y="103.879" width="1.90972" height="18.1424" rx="0.954861" fill="#DAD9D6"/>
<rect x="171.039" y="104.833" width="1.90972" height="16.2326" rx="0.954861" fill="#DAD9D6"/>
<rect x="174.859" y="111.04" width="1.90972" height="3.81944" rx="0.954861" fill="#DAD9D6"/>
<rect x="178.68" y="107.698" width="1.90972" height="10.5035" rx="0.954861" fill="#DAD9D6"/>
<rect x="182.5" y="111.518" width="1.90972" height="2.86458" rx="0.954861" fill="#DAD9D6"/>
<rect x="186.32" y="111.995" width="1.90972" height="1.90972" rx="0.954861" fill="#DAD9D6"/>
<rect x="190.141" y="109.608" width="1.90972" height="6.68403" rx="0.954861" fill="#DAD9D6"/>
<rect x="193.961" y="111.517" width="1.90972" height="2.86458" rx="0.954861" fill="#DAD9D6"/>
<rect x="197.781" y="107.698" width="1.90972" height="10.5035" rx="0.954861" fill="#DAD9D6"/>
<rect x="201.594" y="111.04" width="1.90972" height="3.81944" rx="0.954861" fill="#DAD9D6"/>
<rect x="205.414" y="111.04" width="1.90972" height="3.81944" rx="0.954861" fill="#DAD9D6"/>
<rect x="209.234" y="111.04" width="1.90972" height="3.81944" rx="0.954861" fill="#DAD9D6"/>
<rect x="213.055" y="111.04" width="1.90972" height="3.81944" rx="0.954861" fill="#DAD9D6"/>
<rect x="216.875" y="107.698" width="1.90972" height="10.5035" rx="0.954861" fill="#DAD9D6"/>
<rect x="220.695" y="111.517" width="1.90972" height="2.86458" rx="0.954861" fill="#DAD9D6"/>
<rect x="224.516" y="111.995" width="1.90972" height="1.90972" rx="0.954861" fill="#DAD9D6"/>
<rect x="228.336" y="109.608" width="1.90972" height="6.68403" rx="0.954861" fill="#DAD9D6"/>
<rect x="232.156" y="111.517" width="1.90972" height="2.86458" rx="0.954861" fill="#DAD9D6"/>
<rect x="235.969" y="107.698" width="1.90972" height="10.5035" rx="0.954861" fill="#DAD9D6"/>
<rect x="239.789" y="102.924" width="1.90972" height="20.0521" rx="0.954861" fill="#DAD9D6"/>
<rect x="243.609" y="95.2848" width="1.90972" height="35.3299" rx="0.954861" fill="#DAD9D6"/>
<rect x="247.43" y="102.924" width="1.90972" height="20.0521" rx="0.954861" fill="#DAD9D6"/>
<rect x="251.25" y="101.969" width="1.90972" height="21.9618" rx="0.954861" fill="#DAD9D6"/>
<rect x="255.07" y="103.879" width="1.90972" height="18.1424" rx="0.954861" fill="#DAD9D6"/>
<rect x="258.891" y="105.788" width="1.90972" height="14.3229" rx="0.954861" fill="#DAD9D6"/>
<rect x="262.711" y="104.833" width="1.90972" height="16.2326" rx="0.954861" fill="#DAD9D6"/>
<rect x="266.531" y="101.014" width="1.90972" height="23.8715" rx="0.954861" fill="#DAD9D6"/>
<rect x="270.344" y="105.788" width="1.90972" height="14.3229" rx="0.954861" fill="#DAD9D6"/>
<rect x="274.164" y="103.879" width="1.90972" height="18.1424" rx="0.954861" fill="#DAD9D6"/>
<rect x="277.984" y="105.788" width="1.90972" height="14.3229" rx="0.954861" fill="#DAD9D6"/>
<rect x="281.805" y="104.833" width="1.90972" height="16.2326" rx="0.954861" fill="#DAD9D6"/>
<rect x="285.625" y="107.698" width="1.90972" height="10.5035" rx="0.954861" fill="#DAD9D6"/>
<rect x="289.445" y="102.924" width="1.90972" height="20.0521" rx="0.954861" fill="#DAD9D6"/>
<rect x="293.266" y="106.743" width="1.90972" height="12.4132" rx="0.954861" fill="#DAD9D6"/>
<rect x="297.086" y="100.059" width="1.90972" height="25.7812" rx="0.954861" fill="#DAD9D6"/>
<rect x="300.906" y="111.04" width="1.90972" height="3.81944" rx="0.954861" fill="#DAD9D6"/>
<rect x="304.719" y="111.04" width="1.90972" height="3.81944" rx="0.954861" fill="#DAD9D6"/>
<rect x="308.539" y="111.04" width="1.90972" height="3.81944" rx="0.954861" fill="#DAD9D6"/>
<rect x="312.359" y="111.04" width="1.90972" height="3.81944" rx="0.954861" fill="#DAD9D6"/>
<rect x="316.18" y="107.698" width="1.90972" height="10.5035" rx="0.954861" fill="#DAD9D6"/>
<rect x="320" y="111.517" width="1.90972" height="2.86458" rx="0.954861" fill="#DAD9D6"/>
<rect x="323.82" y="111.995" width="1.90972" height="1.90972" rx="0.954861" fill="#DAD9D6"/>
<rect x="327.641" y="109.608" width="1.90972" height="6.68403" rx="0.954861" fill="#DAD9D6"/>
<rect x="331.461" y="111.517" width="1.90972" height="2.86458" rx="0.954861" fill="#DAD9D6"/>
<rect x="335.281" y="111.995" width="1.90972" height="1.90972" rx="0.954861" fill="#DAD9D6"/>
<rect x="339.094" y="111.995" width="1.90972" height="1.90972" rx="0.954861" fill="#DAD9D6"/>
<rect x="342.914" y="111.995" width="1.90972" height="1.90972" rx="0.954861" fill="#DAD9D6"/>
<rect x="346.734" y="111.995" width="1.90972" height="1.90972" rx="0.954861" fill="#DAD9D6"/>
<rect x="350.555" y="107.698" width="1.90972" height="10.5035" rx="0.954861" fill="#DAD9D6"/>
<rect x="354.375" y="110.562" width="1.90972" height="4.77431" rx="0.954861" fill="#DAD9D6"/>
<rect x="358.195" y="111.995" width="1.90972" height="1.90972" rx="0.954861" fill="#DAD9D6"/>
<rect x="362.016" y="111.995" width="1.90972" height="1.90972" rx="0.954861" fill="#DAD9D6"/>
<rect x="365.836" y="109.608" width="1.90972" height="6.68403" rx="0.954861" fill="#DAD9D6"/>
<rect x="369.656" y="111.995" width="1.90972" height="1.90972" rx="0.954861" fill="#DAD9D6"/>
<rect x="373.469" y="111.995" width="1.90972" height="1.90972" rx="0.954861" fill="#DAD9D6"/>
<rect x="377.289" y="108.653" width="1.90972" height="8.59375" rx="0.954861" fill="#DAD9D6"/>
<rect x="381.109" y="106.743" width="1.90972" height="12.4132" rx="0.954861" fill="#DAD9D6"/>
<rect x="384.93" y="101.969" width="1.90972" height="21.9618" rx="0.954861" fill="#DAD9D6"/>
<rect x="388.75" y="107.698" width="1.90972" height="10.5035" rx="0.954861" fill="#DAD9D6"/>
<rect x="392.57" y="110.563" width="1.90972" height="4.77431" rx="0.954861" fill="#DAD9D6"/>
</g>
<path d="M50.7295 152.099H66.0068C68.9073 152.099 71.2588 154.451 71.2588 157.351V172.629C71.2588 175.529 68.9073 177.88 66.0068 177.88H50.7295C47.829 177.88 45.4775 175.529 45.4775 172.629V157.351C45.4775 154.451 47.829 152.099 50.7295 152.099Z" fill="white"/>
<path d="M50.7295 152.099H66.0068C68.9073 152.099 71.2588 154.451 71.2588 157.351V172.629C71.2588 175.529 68.9073 177.88 66.0068 177.88H50.7295C47.829 177.88 45.4775 175.529 45.4775 172.629V157.351C45.4775 154.451 47.829 152.099 50.7295 152.099Z" stroke="#E9E8E6" stroke-width="0.954861"/>
<path d="M54.4756 159.298C54.6232 159.3 54.7676 159.343 54.8936 159.422L62.71 164.277H62.7109C62.8314 164.351 62.9309 164.456 63 164.581C63.0691 164.706 63.1058 164.847 63.1055 164.99C63.1058 165.133 63.0691 165.274 63 165.399C62.9309 165.524 62.8313 165.628 62.7109 165.702H62.71L54.8936 170.557C54.7675 170.636 54.6232 170.679 54.4756 170.681C54.3648 170.683 54.2546 170.663 54.1523 170.622L54.0527 170.573C53.9252 170.501 53.8183 170.395 53.7441 170.267C53.67 170.139 53.6311 169.993 53.6309 169.844V160.135C53.6311 159.987 53.6702 159.841 53.7441 159.713C53.7997 159.617 53.8738 159.533 53.9609 159.467L54.0527 159.406C54.1816 159.332 54.3278 159.295 54.4756 159.298Z" fill="#21201D" stroke="#21201D" stroke-width="0.0745985"/>
<path d="M87.8191 159.268V168.99H86.3474V160.739H86.2905L83.9644 162.258V160.853L86.3902 159.268H87.8191ZM90.8418 169.08C90.5823 169.08 90.3592 168.988 90.1725 168.805C89.9858 168.618 89.8924 168.393 89.8924 168.131C89.8924 167.871 89.9858 167.649 90.1725 167.466C90.3592 167.279 90.5823 167.186 90.8418 167.186C91.1013 167.186 91.3245 167.279 91.5112 167.466C91.6979 167.649 91.7913 167.871 91.7913 168.131C91.7913 168.305 91.747 168.464 91.6583 168.61C91.5729 168.752 91.459 168.866 91.3165 168.952C91.1741 169.037 91.0159 169.08 90.8418 169.08ZM96.7058 169.151C95.9557 169.148 95.3149 168.95 94.7832 168.558C94.2515 168.165 93.8448 167.594 93.5632 166.844C93.2815 166.094 93.1407 165.19 93.1407 164.133C93.1407 163.08 93.2815 162.179 93.5632 161.432C93.848 160.685 94.2562 160.116 94.7879 159.723C95.3228 159.331 95.9621 159.135 96.7058 159.135C97.4495 159.135 98.0872 159.332 98.6189 159.728C99.1506 160.12 99.5573 160.69 99.8389 161.437C100.124 162.181 100.266 163.08 100.266 164.133C100.266 165.194 100.125 166.099 99.8437 166.849C99.562 167.596 99.1553 168.167 98.6236 168.562C98.092 168.955 97.4527 169.151 96.7058 169.151ZM96.7058 167.884C97.3641 167.884 97.8783 167.562 98.2486 166.92C98.6221 166.278 98.8088 165.349 98.8088 164.133C98.8088 163.326 98.7233 162.644 98.5524 162.087C98.3847 161.527 98.1426 161.103 97.8261 160.815C97.5128 160.524 97.1394 160.378 96.7058 160.378C96.0507 160.378 95.5364 160.701 95.1629 161.347C94.7895 161.992 94.6012 162.921 94.598 164.133C94.598 164.944 94.6819 165.629 94.8496 166.189C95.0205 166.746 95.2626 167.168 95.576 167.456C95.8893 167.741 96.2659 167.884 96.7058 167.884ZM103.09 161.698L104.699 164.537L106.322 161.698H107.875L105.601 165.344L107.894 168.99H106.341L104.699 166.265L103.061 168.99H101.504L103.773 165.344L101.532 161.698H103.09Z" fill="#21201D"/>
<path d="M308.32 169.151C307.57 169.148 306.929 168.95 306.397 168.558C305.866 168.165 305.459 167.594 305.177 166.844C304.896 166.094 304.755 165.19 304.755 164.133C304.755 163.08 304.896 162.179 305.177 161.432C305.462 160.685 305.87 160.116 306.402 159.723C306.937 159.331 307.576 159.135 308.32 159.135C309.064 159.135 309.701 159.332 310.233 159.728C310.765 160.12 311.171 160.69 311.453 161.437C311.738 162.181 311.88 163.08 311.88 164.133C311.88 165.194 311.739 166.099 311.458 166.849C311.176 167.596 310.769 168.167 310.238 168.562C309.706 168.955 309.067 169.151 308.32 169.151ZM308.32 167.884C308.978 167.884 309.492 167.562 309.863 166.92C310.236 166.278 310.423 165.349 310.423 164.133C310.423 163.326 310.337 162.644 310.167 162.087C309.999 161.527 309.757 161.103 309.44 160.815C309.127 160.524 308.754 160.378 308.32 160.378C307.665 160.378 307.151 160.701 306.777 161.347C306.404 161.992 306.215 162.921 306.212 164.133C306.212 164.944 306.296 165.629 306.464 166.189C306.635 166.746 306.877 167.168 307.19 167.456C307.503 167.741 307.88 167.884 308.32 167.884ZM316.949 169.151C316.199 169.148 315.558 168.95 315.027 168.558C314.495 168.165 314.088 167.594 313.806 166.844C313.525 166.094 313.384 165.19 313.384 164.133C313.384 163.08 313.525 162.179 313.806 161.432C314.091 160.685 314.5 160.116 315.031 159.723C315.566 159.331 316.205 159.135 316.949 159.135C317.693 159.135 318.331 159.332 318.862 159.728C319.394 160.12 319.801 160.69 320.082 161.437C320.367 162.181 320.509 163.08 320.509 164.133C320.509 165.194 320.369 166.099 320.087 166.849C319.805 167.596 319.399 168.167 318.867 168.562C318.335 168.955 317.696 169.151 316.949 169.151ZM316.949 167.884C317.607 167.884 318.122 167.562 318.492 166.92C318.865 166.278 319.052 165.349 319.052 164.133C319.052 163.326 318.967 162.644 318.796 162.087C318.628 161.527 318.386 161.103 318.069 160.815C317.756 160.524 317.383 160.378 316.949 160.378C316.294 160.378 315.78 160.701 315.406 161.347C315.033 161.992 314.845 162.921 314.841 164.133C314.841 164.944 314.925 165.629 315.093 166.189C315.264 166.746 315.506 167.168 315.819 167.456C316.133 167.741 316.509 167.884 316.949 167.884ZM323.148 167.784C322.888 167.784 322.665 167.692 322.478 167.509C322.292 167.322 322.198 167.097 322.198 166.835C322.198 166.575 322.292 166.353 322.478 166.17C322.665 165.983 322.888 165.89 323.148 165.89C323.407 165.89 323.63 165.983 323.817 166.17C324.004 166.353 324.097 166.575 324.097 166.835C324.097 167.009 324.053 167.168 323.964 167.314C323.879 167.456 323.765 167.57 323.622 167.656C323.48 167.741 323.322 167.784 323.148 167.784ZM323.148 162.913C322.888 162.913 322.665 162.822 322.478 162.638C322.292 162.451 322.198 162.227 322.198 161.964C322.198 161.704 322.292 161.483 322.478 161.299C322.665 161.113 322.888 161.019 323.148 161.019C323.407 161.019 323.63 161.113 323.817 161.299C324.004 161.483 324.097 161.704 324.097 161.964C324.097 162.138 324.053 162.298 323.964 162.443C323.879 162.586 323.765 162.7 323.622 162.785C323.48 162.871 323.322 162.913 323.148 162.913ZM329.364 169.151C328.614 169.148 327.973 168.95 327.442 168.558C326.91 168.165 326.503 167.594 326.222 166.844C325.94 166.094 325.799 165.19 325.799 164.133C325.799 163.08 325.94 162.179 326.222 161.432C326.506 160.685 326.915 160.116 327.446 159.723C327.981 159.331 328.62 159.135 329.364 159.135C330.108 159.135 330.746 159.332 331.277 159.728C331.809 160.12 332.216 160.69 332.497 161.437C332.782 162.181 332.925 163.08 332.925 164.133C332.925 165.194 332.784 166.099 332.502 166.849C332.22 167.596 331.814 168.167 331.282 168.562C330.75 168.955 330.111 169.151 329.364 169.151ZM329.364 167.884C330.022 167.884 330.537 167.562 330.907 166.92C331.28 166.278 331.467 165.349 331.467 164.133C331.467 163.326 331.382 162.644 331.211 162.087C331.043 161.527 330.801 161.103 330.485 160.815C330.171 160.524 329.798 160.378 329.364 160.378C328.709 160.378 328.195 160.701 327.821 161.347C327.448 161.992 327.26 162.921 327.256 164.133C327.256 164.944 327.34 165.629 327.508 166.189C327.679 166.746 327.921 167.168 328.234 167.456C328.548 167.741 328.924 167.884 329.364 167.884ZM337.993 169.151C337.243 169.148 336.602 168.95 336.071 168.558C335.539 168.165 335.132 167.594 334.851 166.844C334.569 166.094 334.428 165.19 334.428 164.133C334.428 163.08 334.569 162.179 334.851 161.432C335.136 160.685 335.544 160.116 336.075 159.723C336.61 159.331 337.25 159.135 337.993 159.135C338.737 159.135 339.375 159.332 339.906 159.728C340.438 160.12 340.845 160.69 341.126 161.437C341.411 162.181 341.554 163.08 341.554 164.133C341.554 165.194 341.413 166.099 341.131 166.849C340.85 167.596 340.443 168.167 339.911 168.562C339.38 168.955 338.74 169.151 337.993 169.151ZM337.993 167.884C338.652 167.884 339.166 167.562 339.536 166.92C339.91 166.278 340.096 165.349 340.096 164.133C340.096 163.326 340.011 162.644 339.84 162.087C339.672 161.527 339.43 161.103 339.114 160.815C338.8 160.524 338.427 160.378 337.993 160.378C337.338 160.378 336.824 160.701 336.451 161.347C336.077 161.992 335.889 162.921 335.886 164.133C335.886 164.944 335.969 165.629 336.137 166.189C336.308 166.746 336.55 167.168 336.864 167.456C337.177 167.741 337.553 167.884 337.993 167.884ZM350.497 158.812L347.364 170.452H346.097L349.23 158.812H350.497ZM358.607 169.151C357.857 169.148 357.216 168.95 356.684 168.558C356.152 168.165 355.746 167.594 355.464 166.844C355.182 166.094 355.042 165.19 355.042 164.133C355.042 163.08 355.182 162.179 355.464 161.432C355.749 160.685 356.157 160.116 356.689 159.723C357.224 159.331 357.863 159.135 358.607 159.135C359.351 159.135 359.988 159.332 360.52 159.728C361.052 160.12 361.458 160.69 361.74 161.437C362.025 162.181 362.167 163.08 362.167 164.133C362.167 165.194 362.026 166.099 361.745 166.849C361.463 167.596 361.056 168.167 360.525 168.562C359.993 168.955 359.354 169.151 358.607 169.151ZM358.607 167.884C359.265 167.884 359.779 167.562 360.15 166.92C360.523 166.278 360.71 165.349 360.71 164.133C360.71 163.326 360.624 162.644 360.453 162.087C360.286 161.527 360.044 161.103 359.727 160.815C359.414 160.524 359.04 160.378 358.607 160.378C357.952 160.378 357.437 160.701 357.064 161.347C356.691 161.992 356.502 162.921 356.499 164.133C356.499 164.944 356.583 165.629 356.751 166.189C356.922 166.746 357.164 167.168 357.477 167.456C357.79 167.741 358.167 167.884 358.607 167.884ZM367.236 169.151C366.486 169.148 365.845 168.95 365.313 168.558C364.782 168.165 364.375 167.594 364.093 166.844C363.812 166.094 363.671 165.19 363.671 164.133C363.671 163.08 363.812 162.179 364.093 161.432C364.378 160.685 364.786 160.116 365.318 159.723C365.853 159.331 366.492 159.135 367.236 159.135C367.98 159.135 368.617 159.332 369.149 159.728C369.681 160.12 370.087 160.69 370.369 161.437C370.654 162.181 370.796 163.08 370.796 164.133C370.796 165.194 370.656 166.099 370.374 166.849C370.092 167.596 369.686 168.167 369.154 168.562C368.622 168.955 367.983 169.151 367.236 169.151ZM367.236 167.884C367.894 167.884 368.409 167.562 368.779 166.92C369.152 166.278 369.339 165.349 369.339 164.133C369.339 163.326 369.254 162.644 369.083 162.087C368.915 161.527 368.673 161.103 368.356 160.815C368.043 160.524 367.67 160.378 367.236 160.378C366.581 160.378 366.067 160.701 365.693 161.347C365.32 161.992 365.131 162.921 365.128 164.133C365.128 164.944 365.212 165.629 365.38 166.189C365.551 166.746 365.793 167.168 366.106 167.456C366.419 167.741 366.796 167.884 367.236 167.884ZM373.435 167.784C373.175 167.784 372.952 167.692 372.765 167.509C372.579 167.322 372.485 167.097 372.485 166.835C372.485 166.575 372.579 166.353 372.765 166.17C372.952 165.983 373.175 165.89 373.435 165.89C373.694 165.89 373.917 165.983 374.104 166.17C374.291 166.353 374.384 166.575 374.384 166.835C374.384 167.009 374.34 167.168 374.251 167.314C374.166 167.456 374.052 167.57 373.909 167.656C373.767 167.741 373.609 167.784 373.435 167.784ZM373.435 162.913C373.175 162.913 372.952 162.822 372.765 162.638C372.579 162.451 372.485 162.227 372.485 161.964C372.485 161.704 372.579 161.483 372.765 161.299C372.952 161.113 373.175 161.019 373.435 161.019C373.694 161.019 373.917 161.113 374.104 161.299C374.291 161.483 374.384 161.704 374.384 161.964C374.384 162.138 374.34 162.298 374.251 162.443C374.166 162.586 374.052 162.7 373.909 162.785C373.767 162.871 373.609 162.913 373.435 162.913ZM376.062 167.091V165.904L380.263 159.268H381.199V161.014H380.605L377.6 165.771V165.847H383.359V167.091H376.062ZM380.672 168.99V166.73L380.681 166.189V159.268H382.072V168.99H380.672ZM385.013 168.99V167.926L388.303 164.518C388.654 164.148 388.944 163.823 389.171 163.545C389.403 163.263 389.575 162.996 389.689 162.742C389.803 162.489 389.86 162.22 389.86 161.935C389.86 161.613 389.784 161.334 389.632 161.1C389.48 160.863 389.273 160.681 389.01 160.554C388.747 160.424 388.452 160.359 388.122 160.359C387.774 160.359 387.47 160.431 387.211 160.573C386.951 160.715 386.752 160.916 386.613 161.176C386.474 161.435 386.404 161.739 386.404 162.087H385.003C385.003 161.496 385.14 160.978 385.412 160.535C385.684 160.092 386.057 159.749 386.532 159.505C387.007 159.258 387.546 159.135 388.151 159.135C388.762 159.135 389.3 159.256 389.765 159.5C390.233 159.741 390.599 160.07 390.861 160.488C391.124 160.902 391.256 161.371 391.256 161.893C391.256 162.253 391.187 162.606 391.051 162.951C390.918 163.296 390.686 163.681 390.354 164.105C390.021 164.526 389.559 165.037 388.967 165.638L387.035 167.661V167.732H391.412V168.99H385.013Z" fill="#21201D"/>
</g>
<defs>
<filter id="filter0_d_645_22303" x="0" y="0" width="438" height="227.358" filterUnits="userSpaceOnUse" color-interpolation-filters="sRGB">
<feFlood flood-opacity="0" result="BackgroundImageFix"/>
<feColorMatrix in="SourceAlpha" type="matrix" values="0 0 0 0 0 0 0 0 0 0 0 0 0 0 0 0 0 0 127 0" result="hardAlpha"/>
<feOffset dy="4"/>
<feGaussianBlur stdDeviation="14"/>
<feComposite in2="hardAlpha" operator="out"/>
<feColorMatrix type="matrix" values="0 0 0 0 0 0 0 0 0 0 0 0 0 0 0 0 0 0 0.04 0"/>
<feBlend mode="normal" in2="BackgroundImageFix" result="effect1_dropShadow_645_22303"/>
<feBlend mode="normal" in="SourceGraphic" in2="effect1_dropShadow_645_22303" result="shape"/>
</filter>
<clipPath id="clip0_645_22303">
<rect x="46.9062" y="42.9097" width="344.181" height="29.4583" rx="5.72917" fill="white"/>
</clipPath>
<clipPath id="clip1_645_22303">
<rect width="348" height="46.7882" fill="white" transform="translate(45 89.5555)"/>
</clipPath>
</defs>
</svg>
