<svg width="362" height="172" viewBox="0 0 362 172" fill="none" xmlns="http://www.w3.org/2000/svg">
<path d="M353 0.5C357.694 0.5 361.5 4.30558 361.5 9V162.357C361.5 167.052 357.694 170.857 353 170.857H0.5V9C0.500007 4.30559 4.30558 0.5 9 0.5H353Z" fill="white"/>
<path d="M353 0.5C357.694 0.5 361.5 4.30558 361.5 9V162.357C361.5 167.052 357.694 170.857 353 170.857H0.5V9C0.500007 4.30559 4.30558 0.5 9 0.5H353Z" stroke="#E9E8E6"/>
<rect x="17" y="17" width="328" height="33.2778" rx="4" fill="#F8F8F7"/>
<g clip-path="url(#clip0_891_18851)">
<rect x="19.3876" y="19.3871" width="107.105" height="28.5035" rx="3.52257" fill="white"/>
<rect x="19.3876" y="19.3871" width="107.105" height="28.5035" rx="3.52257" stroke="#E9E8E6" stroke-width="0.954861"/>
<path d="M40.5281 29.1792V27.9164L48.0524 27.9164V29.1792H45.0189V37.6387H43.5568V29.1792H40.5281ZM48.844 37.6387V30.347H50.2159V31.5053H50.2919C50.4248 31.1129 50.659 30.8043 50.9944 30.5796C51.3331 30.3518 51.716 30.2378 52.1433 30.2378C52.2319 30.2378 52.3363 30.241 52.4566 30.2473C52.58 30.2536 52.6765 30.2616 52.7462 30.271V31.6287C52.6892 31.6129 52.5879 31.5955 52.4423 31.5765C52.2968 31.5544 52.1512 31.5433 52.0056 31.5433C51.6701 31.5433 51.3711 31.6145 51.1084 31.7569C50.8489 31.8962 50.6432 32.0908 50.4912 32.3408C50.3393 32.5877 50.2634 32.8693 50.2634 33.1858V37.6387H48.844ZM56.0312 37.8001C55.5691 37.8001 55.1514 37.7146 54.7779 37.5437C54.4045 37.3697 54.1086 37.1181 53.8902 36.7889C53.675 36.4598 53.5674 36.0563 53.5674 35.5784C53.5674 35.167 53.6465 34.8283 53.8048 34.5625C53.963 34.2967 54.1766 34.0862 54.4456 33.9311C54.7147 33.7761 55.0153 33.659 55.3476 33.5798C55.6799 33.5007 56.0185 33.4406 56.3635 33.3994C56.8002 33.3488 57.1547 33.3077 57.4269 33.276C57.699 33.2412 57.8968 33.1858 58.0203 33.1099C58.1437 33.0339 58.2054 32.9105 58.2054 32.7396V32.7064C58.2054 32.2918 58.0883 31.9705 57.8541 31.7427C57.6231 31.5148 57.2781 31.4009 56.8192 31.4009C56.3414 31.4009 55.9647 31.5069 55.6894 31.7189C55.4172 31.9278 55.2289 32.1604 55.1245 32.4168L53.7905 32.113C53.9488 31.6699 54.1798 31.3123 54.4836 31.0401C54.7906 30.7648 55.1435 30.5654 55.5422 30.4419C55.941 30.3154 56.3603 30.2521 56.8002 30.2521C57.0914 30.2521 57.4 30.2869 57.7259 30.3565C58.0551 30.423 58.3621 30.5464 58.6469 30.7268C58.9349 30.9072 59.1707 31.1651 59.3542 31.5006C59.5378 31.8329 59.6296 32.2649 59.6296 32.7965V37.6387H58.2434V36.6418H58.1864C58.0946 36.8253 57.957 37.0057 57.7734 37.1829C57.5899 37.3602 57.3541 37.5073 57.0661 37.6244C56.7781 37.7415 56.4331 37.8001 56.0312 37.8001ZM56.3398 36.6608C56.7322 36.6608 57.0677 36.5832 57.3462 36.4281C57.6278 36.2731 57.8415 36.0705 57.987 35.8205C58.1358 35.5673 58.2102 35.2967 58.2102 35.0087V34.0688C58.1595 34.1194 58.0614 34.1669 57.9158 34.2112C57.7734 34.2524 57.6104 34.2887 57.4269 34.3204C57.2433 34.3489 57.0645 34.3758 56.8904 34.4011C56.7164 34.4232 56.5708 34.4422 56.4537 34.4581C56.1784 34.4929 55.9268 34.5514 55.6989 34.6337C55.4742 34.716 55.2938 34.8347 55.1577 34.9897C55.0248 35.1417 54.9583 35.3442 54.9583 35.5974C54.9583 35.9487 55.0881 36.2145 55.3476 36.3949C55.6071 36.5721 55.9378 36.6608 56.3398 36.6608ZM62.9395 33.3092V37.6387H61.5201V30.347H62.8826V31.5338H62.9728C63.1405 31.1477 63.4032 30.8375 63.7608 30.6034C64.1216 30.3692 64.5757 30.2521 65.1232 30.2521C65.6201 30.2521 66.0553 30.3565 66.4287 30.5654C66.8022 30.7711 67.0917 31.0781 67.2974 31.4863C67.5032 31.8946 67.606 32.3994 67.606 33.0007V37.6387H66.1866V33.1716C66.1866 32.6431 66.0489 32.2301 65.7736 31.9326C65.4983 31.6319 65.1201 31.4816 64.639 31.4816C64.3099 31.4816 64.0171 31.5528 63.7608 31.6952C63.5076 31.8376 63.3066 32.0465 63.1579 32.3218C63.0123 32.594 62.9395 32.9231 62.9395 33.3092ZM74.9736 32.1272L73.6871 32.3551C73.6333 32.1905 73.5479 32.0338 73.4308 31.8851C73.3169 31.7363 73.1618 31.6145 72.9656 31.5196C72.7694 31.4246 72.5241 31.3771 72.2298 31.3771C71.8278 31.3771 71.4924 31.4673 71.2234 31.6477C70.9544 31.825 70.8198 32.0544 70.8198 32.3361C70.8198 32.5798 70.91 32.776 71.0904 32.9247C71.2708 33.0735 71.562 33.1953 71.9639 33.2903L73.1222 33.5561C73.7932 33.7112 74.2932 33.9501 74.6223 34.2729C74.9515 34.5957 75.116 35.0151 75.116 35.5309C75.116 35.9677 74.9895 36.3569 74.7363 36.6987C74.4863 37.0374 74.1365 37.3032 73.6871 37.4963C73.2409 37.6893 72.7235 37.7858 72.1348 37.7858C71.3183 37.7858 70.6521 37.6118 70.1363 37.2636C69.6204 36.9124 69.3039 36.4139 69.1868 35.7683L70.5588 35.5594C70.6442 35.917 70.8198 36.1876 71.0857 36.3712C71.3515 36.5516 71.6981 36.6418 72.1253 36.6418C72.5905 36.6418 72.9624 36.5452 73.2409 36.3522C73.5194 36.156 73.6587 35.917 73.6587 35.6354C73.6587 35.4075 73.5732 35.216 73.4023 35.061C73.2346 34.9059 72.9767 34.7888 72.6285 34.7097L71.3943 34.4391C70.7138 34.284 70.2106 34.0371 69.8847 33.6985C69.5618 33.3599 69.4004 32.9311 69.4004 32.412C69.4004 31.9816 69.5207 31.605 69.7612 31.2822C70.0018 30.9594 70.3341 30.7078 70.7581 30.5274C71.1822 30.3438 71.668 30.2521 72.2155 30.2521C73.0036 30.2521 73.6238 30.423 74.0764 30.7648C74.529 31.1034 74.8281 31.5575 74.9736 32.1272ZM79.7481 37.7858C79.0424 37.7858 78.4347 37.626 77.9252 37.3064C77.4188 36.9836 77.0296 36.5389 76.7574 35.9724C76.4852 35.4059 76.3491 34.7571 76.3491 34.0261C76.3491 33.2855 76.4884 32.632 76.7669 32.0655C77.0454 31.4958 77.4378 31.0512 77.9442 30.7315C78.4505 30.4119 79.0471 30.2521 79.7339 30.2521C80.2877 30.2521 80.7814 30.3549 81.215 30.5606C81.6486 30.7632 81.9983 31.048 82.2641 31.4151C82.5331 31.7822 82.6929 32.2111 82.7436 32.7016H81.3621C81.2862 32.3598 81.1121 32.0655 80.84 31.8186C80.5709 31.5718 80.2102 31.4484 79.7576 31.4484C79.362 31.4484 79.0155 31.5528 78.718 31.7617C78.4236 31.9674 78.1942 32.2617 78.0296 32.6446C77.8651 33.0244 77.7828 33.4738 77.7828 33.9928C77.7828 34.5245 77.8635 34.9834 78.0249 35.3695C78.1863 35.7556 78.4141 36.0547 78.7085 36.2667C79.006 36.4788 79.3557 36.5848 79.7576 36.5848C80.0266 36.5848 80.2703 36.5357 80.4887 36.4376C80.7102 36.3364 80.8953 36.1924 81.0441 36.0056C81.196 35.8189 81.302 35.5942 81.3621 35.3315H82.7436C82.6929 35.8031 82.5394 36.224 82.2831 36.5943C82.0268 36.9646 81.6834 37.2557 81.253 37.4678C80.8257 37.6798 80.3241 37.7858 79.7481 37.7858ZM84.2615 37.6387V30.347H85.6334V31.5053H85.7094C85.8423 31.1129 86.0765 30.8043 86.412 30.5796C86.7506 30.3518 87.1335 30.2378 87.5608 30.2378C87.6494 30.2378 87.7538 30.241 87.8741 30.2473C87.9975 30.2536 88.094 30.2616 88.1637 30.271V31.6287C88.1067 31.6129 88.0054 31.5955 87.8598 31.5765C87.7143 31.5544 87.5687 31.5433 87.4231 31.5433C87.0876 31.5433 86.7886 31.6145 86.5259 31.7569C86.2664 31.8962 86.0607 32.0908 85.9088 32.3408C85.7568 32.5877 85.6809 32.8693 85.6809 33.1858V37.6387H84.2615ZM89.392 37.6387V30.347H90.8114V37.6387H89.392ZM90.1088 29.2219C89.862 29.2219 89.6499 29.1396 89.4727 28.9751C89.2986 28.8073 89.2116 28.608 89.2116 28.3769C89.2116 28.1427 89.2986 27.9434 89.4727 27.7788C89.6499 27.611 89.862 27.5272 90.1088 27.5272C90.3557 27.5272 90.5661 27.611 90.7402 27.7788C90.9174 27.9434 91.006 28.1427 91.006 28.3769C91.006 28.608 90.9174 28.8073 90.7402 28.9751C90.5661 29.1396 90.3557 29.2219 90.1088 29.2219ZM92.721 40.373V30.347H94.1071V31.5291H94.2258C94.3081 31.3771 94.4268 31.2015 94.5819 31.0021C94.7369 30.8027 94.9521 30.6287 95.2275 30.4799C95.5028 30.328 95.8668 30.2521 96.3193 30.2521C96.908 30.2521 97.4333 30.4008 97.8954 30.6983C98.3574 30.9958 98.7198 31.4246 98.9825 31.9848C99.2483 32.5449 99.3812 33.219 99.3812 34.0071C99.3812 34.7951 99.2499 35.4708 98.9872 36.0341C98.7246 36.5943 98.3638 37.0263 97.9049 37.3301C97.446 37.6308 96.9222 37.7811 96.3336 37.7811C95.8905 37.7811 95.5281 37.7067 95.2465 37.558C94.968 37.4092 94.7496 37.2352 94.5913 37.0358C94.4331 36.8364 94.3113 36.6592 94.2258 36.5041H94.1404V40.373H92.721ZM94.1119 33.9928C94.1119 34.5055 94.1863 34.9549 94.335 35.341C94.4837 35.7271 94.6989 36.0294 94.9806 36.2477C95.2623 36.463 95.6072 36.5706 96.0155 36.5706C96.4396 36.5706 96.794 36.4582 97.0789 36.2335C97.3637 36.0056 97.5789 35.6971 97.7245 35.3078C97.8732 34.9185 97.9476 34.4802 97.9476 33.9928C97.9476 33.5118 97.8748 33.0798 97.7292 32.6969C97.5868 32.3139 97.3716 32.0117 97.0836 31.7901C96.7988 31.5686 96.4427 31.4578 96.0155 31.4578C95.6041 31.4578 95.256 31.5639 94.9711 31.7759C94.6895 31.9879 94.4758 32.2839 94.3303 32.6636C94.1847 33.0434 94.1119 33.4865 94.1119 33.9928ZM104.375 30.347V31.4863H100.392V30.347H104.375ZM101.461 28.6H102.88V35.4977C102.88 35.773 102.921 35.9803 103.003 36.1196C103.086 36.2557 103.192 36.349 103.321 36.3997C103.454 36.4471 103.598 36.4709 103.753 36.4709C103.867 36.4709 103.967 36.463 104.052 36.4471C104.138 36.4313 104.204 36.4186 104.252 36.4092L104.508 37.5817C104.426 37.6134 104.309 37.645 104.157 37.6766C104.005 37.7115 103.815 37.7304 103.587 37.7336C103.214 37.7399 102.866 37.6735 102.543 37.5342C102.22 37.395 101.959 37.1798 101.76 36.8886C101.56 36.5975 101.461 36.2319 101.461 35.792V28.6Z" fill="#21201D"/>
<path d="M159.068 37.6387V27.9164H162.534C163.29 27.9164 163.917 28.0541 164.413 28.3295C164.91 28.6048 165.282 28.9814 165.529 29.4593C165.776 29.934 165.899 30.4688 165.899 31.0638C165.899 31.662 165.774 32.2 165.524 32.6779C165.277 33.1526 164.904 33.5292 164.404 33.8077C163.907 34.083 163.282 34.2207 162.529 34.2207H160.146V32.9769H162.396C162.874 32.9769 163.261 32.8947 163.559 32.7301C163.856 32.5624 164.075 32.3345 164.214 32.0465C164.353 31.7585 164.423 31.4309 164.423 31.0638C164.423 30.6967 164.353 30.3707 164.214 30.0859C164.075 29.8011 163.855 29.578 163.554 29.4166C163.257 29.2552 162.864 29.1745 162.377 29.1745H160.535V37.6387H159.068ZM169.562 37.8001C169.1 37.8001 168.682 37.7146 168.308 37.5437C167.935 37.3697 167.639 37.1181 167.421 36.7889C167.206 36.4598 167.098 36.0563 167.098 35.5784C167.098 35.167 167.177 34.8283 167.335 34.5625C167.494 34.2967 167.707 34.0862 167.976 33.9311C168.245 33.7761 168.546 33.659 168.878 33.5798C169.21 33.5007 169.549 33.4406 169.894 33.3994C170.331 33.3488 170.685 33.3077 170.957 33.276C171.23 33.2412 171.427 33.1858 171.551 33.1099C171.674 33.0339 171.736 32.9105 171.736 32.7396V32.7064C171.736 32.2918 171.619 31.9705 171.385 31.7427C171.154 31.5148 170.809 31.4009 170.35 31.4009C169.872 31.4009 169.495 31.5069 169.22 31.7189C168.948 31.9278 168.759 32.1604 168.655 32.4168L167.321 32.113C167.479 31.6699 167.71 31.3123 168.014 31.0401C168.321 30.7648 168.674 30.5654 169.073 30.4419C169.472 30.3154 169.891 30.2521 170.331 30.2521C170.622 30.2521 170.931 30.2869 171.256 30.3565C171.586 30.423 171.893 30.5464 172.177 30.7268C172.465 30.9072 172.701 31.1651 172.885 31.5006C173.068 31.8329 173.16 32.2649 173.16 32.7965V37.6387H171.774V36.6418H171.717C171.625 36.8253 171.488 37.0057 171.304 37.1829C171.12 37.3602 170.885 37.5073 170.597 37.6244C170.309 37.7415 169.964 37.8001 169.562 37.8001ZM169.87 36.6608C170.263 36.6608 170.598 36.5832 170.877 36.4281C171.158 36.2731 171.372 36.0705 171.518 35.8205C171.666 35.5673 171.741 35.2967 171.741 35.0087V34.0688C171.69 34.1194 171.592 34.1669 171.446 34.2112C171.304 34.2524 171.141 34.2887 170.957 34.3204C170.774 34.3489 170.595 34.3758 170.421 34.4011C170.247 34.4232 170.101 34.4422 169.984 34.4581C169.709 34.4929 169.457 34.5514 169.229 34.6337C169.005 34.716 168.824 34.8347 168.688 34.9897C168.555 35.1417 168.489 35.3442 168.489 35.5974C168.489 35.9487 168.619 36.2145 168.878 36.3949C169.138 36.5721 169.468 36.6608 169.87 36.6608ZM178.454 30.347V31.4863H174.472V30.347H178.454ZM175.54 28.6H176.959V35.4977C176.959 35.773 177 35.9803 177.082 36.1196C177.165 36.2557 177.271 36.349 177.401 36.3997C177.533 36.4471 177.677 36.4709 177.833 36.4709C177.946 36.4709 178.046 36.463 178.132 36.4471C178.217 36.4313 178.284 36.4186 178.331 36.4092L178.587 37.5817C178.505 37.6134 178.388 37.645 178.236 37.6766C178.084 37.7115 177.894 37.7304 177.666 37.7336C177.293 37.7399 176.945 37.6735 176.622 37.5342C176.299 37.395 176.038 37.1798 175.839 36.8886C175.639 36.5975 175.54 36.2319 175.54 35.792V28.6ZM180.025 37.6387V30.347H181.444V37.6387H180.025ZM180.741 29.2219C180.495 29.2219 180.282 29.1396 180.105 28.9751C179.931 28.8073 179.844 28.608 179.844 28.3769C179.844 28.1427 179.931 27.9434 180.105 27.7788C180.282 27.611 180.495 27.5272 180.741 27.5272C180.988 27.5272 181.199 27.611 181.373 27.7788C181.55 27.9434 181.639 28.1427 181.639 28.3769C181.639 28.608 181.55 28.8073 181.373 28.9751C181.199 29.1396 180.988 29.2219 180.741 29.2219ZM186.496 37.7858C185.778 37.7858 185.159 37.6323 184.64 37.3254C184.124 37.0152 183.725 36.5801 183.444 36.0199C183.165 35.4566 183.026 34.7967 183.026 34.0403C183.026 33.2934 183.165 32.6351 183.444 32.0655C183.725 31.4958 184.118 31.0512 184.621 30.7315C185.127 30.4119 185.719 30.2521 186.396 30.2521C186.808 30.2521 187.207 30.3201 187.593 30.4562C187.979 30.5923 188.325 30.8059 188.632 31.0971C188.939 31.3882 189.181 31.7664 189.359 32.2316C189.536 32.6937 189.625 33.2554 189.625 33.9169V34.4201H183.828V33.3567H188.234C188.234 32.9833 188.158 32.6526 188.006 32.3646C187.854 32.0734 187.64 31.8439 187.365 31.6762C187.093 31.5085 186.773 31.4246 186.406 31.4246C186.007 31.4246 185.659 31.5227 185.362 31.7189C185.067 31.912 184.839 32.1652 184.678 32.4785C184.52 32.7886 184.441 33.1257 184.441 33.4896V34.3204C184.441 34.8078 184.526 35.2224 184.697 35.5642C184.871 35.906 185.113 36.167 185.423 36.3474C185.733 36.5247 186.096 36.6133 186.51 36.6133C186.779 36.6133 187.025 36.5753 187.246 36.4993C187.468 36.4202 187.659 36.3031 187.821 36.1481C187.982 35.993 188.105 35.8015 188.191 35.5736L189.534 35.8158C189.427 36.2114 189.234 36.5579 188.955 36.8554C188.68 37.1497 188.333 37.3792 187.916 37.5437C187.501 37.7051 187.028 37.7858 186.496 37.7858ZM192.619 33.3092V37.6387H191.199V30.347H192.562V31.5338H192.652C192.82 31.1477 193.082 30.8375 193.44 30.6034C193.801 30.3692 194.255 30.2521 194.803 30.2521C195.299 30.2521 195.735 30.3565 196.108 30.5654C196.481 30.7711 196.771 31.0781 196.977 31.4863C197.182 31.8946 197.285 32.3994 197.285 33.0007V37.6387H195.866V33.1716C195.866 32.6431 195.728 32.2301 195.453 31.9326C195.178 31.6319 194.799 31.4816 194.318 31.4816C193.989 31.4816 193.696 31.5528 193.44 31.6952C193.187 31.8376 192.986 32.0465 192.837 32.3218C192.692 32.594 192.619 32.9231 192.619 33.3092ZM202.593 30.347V31.4863H198.61V30.347H202.593ZM199.678 28.6H201.097V35.4977C201.097 35.773 201.138 35.9803 201.221 36.1196C201.303 36.2557 201.409 36.349 201.539 36.3997C201.672 36.4471 201.816 36.4709 201.971 36.4709C202.085 36.4709 202.184 36.463 202.27 36.4471C202.355 36.4313 202.422 36.4186 202.469 36.4092L202.726 37.5817C202.643 37.6134 202.526 37.645 202.374 37.6766C202.222 37.7115 202.032 37.7304 201.805 37.7336C201.431 37.7399 201.083 37.6735 200.76 37.5342C200.437 37.395 200.176 37.1798 199.977 36.8886C199.778 36.5975 199.678 36.2319 199.678 35.792V28.6Z" fill="#82807C"/>
<path d="M266.629 37.6387V27.9164H268.096V32.1414H272.942V27.9164H274.414V37.6387H272.942V33.3994H268.096V37.6387H266.629ZM276.436 37.6387V30.347H277.856V37.6387H276.436ZM277.153 29.2219C276.906 29.2219 276.694 29.1396 276.517 28.9751C276.343 28.8073 276.256 28.608 276.256 28.3769C276.256 28.1427 276.343 27.9434 276.517 27.7788C276.694 27.611 276.906 27.5272 277.153 27.5272C277.4 27.5272 277.61 27.611 277.785 27.7788C277.962 27.9434 278.05 28.1427 278.05 28.3769C278.05 28.608 277.962 28.8073 277.785 28.9751C277.61 29.1396 277.4 29.2219 277.153 29.2219ZM285.229 32.1272L283.943 32.3551C283.889 32.1905 283.804 32.0338 283.686 31.8851C283.573 31.7363 283.417 31.6145 283.221 31.5196C283.025 31.4246 282.78 31.3771 282.485 31.3771C282.083 31.3771 281.748 31.4673 281.479 31.6477C281.21 31.825 281.076 32.0544 281.076 32.3361C281.076 32.5798 281.166 32.776 281.346 32.9247C281.526 33.0735 281.818 33.1953 282.22 33.2903L283.378 33.5561C284.049 33.7112 284.549 33.9501 284.878 34.2729C285.207 34.5957 285.372 35.0151 285.372 35.5309C285.372 35.9677 285.245 36.3569 284.992 36.6987C284.742 37.0374 284.392 37.3032 283.943 37.4963C283.497 37.6893 282.979 37.7858 282.39 37.7858C281.574 37.7858 280.908 37.6118 280.392 37.2636C279.876 36.9124 279.56 36.4139 279.442 35.7683L280.814 35.5594C280.9 35.917 281.076 36.1876 281.341 36.3712C281.607 36.5516 281.954 36.6418 282.381 36.6418C282.846 36.6418 283.218 36.5452 283.497 36.3522C283.775 36.156 283.914 35.917 283.914 35.6354C283.914 35.4075 283.829 35.216 283.658 35.061C283.49 34.9059 283.232 34.7888 282.884 34.7097L281.65 34.4391C280.969 34.284 280.466 34.0371 280.14 33.6985C279.818 33.3599 279.656 32.9311 279.656 32.412C279.656 31.9816 279.776 31.605 280.017 31.2822C280.257 30.9594 280.59 30.7078 281.014 30.5274C281.438 30.3438 281.924 30.2521 282.471 30.2521C283.259 30.2521 283.88 30.423 284.332 30.7648C284.785 31.1034 285.084 31.5575 285.229 32.1272ZM290.336 30.347V31.4863H286.353V30.347H290.336ZM287.421 28.6H288.841V35.4977C288.841 35.773 288.882 35.9803 288.964 36.1196C289.046 36.2557 289.152 36.349 289.282 36.3997C289.415 36.4471 289.559 36.4709 289.714 36.4709C289.828 36.4709 289.928 36.463 290.013 36.4471C290.099 36.4313 290.165 36.4186 290.213 36.4092L290.469 37.5817C290.387 37.6134 290.27 37.645 290.118 37.6766C289.966 37.7115 289.776 37.7304 289.548 37.7336C289.175 37.7399 288.826 37.6735 288.504 37.5342C288.181 37.395 287.92 37.1798 287.72 36.8886C287.521 36.5975 287.421 36.2319 287.421 35.792V28.6ZM294.899 37.7858C294.216 37.7858 293.619 37.6292 293.11 37.3159C292.6 37.0025 292.204 36.5642 291.923 36.0009C291.641 35.4376 291.5 34.7793 291.5 34.0261C291.5 33.2697 291.641 32.6082 291.923 32.0417C292.204 31.4753 292.6 31.0353 293.11 30.722C293.619 30.4087 294.216 30.2521 294.899 30.2521C295.583 30.2521 296.179 30.4087 296.689 30.722C297.199 31.0353 297.594 31.4753 297.876 32.0417C298.157 32.6082 298.298 33.2697 298.298 34.0261C298.298 34.7793 298.157 35.4376 297.876 36.0009C297.594 36.5642 297.199 37.0025 296.689 37.3159C296.179 37.6292 295.583 37.7858 294.899 37.7858ZM294.904 36.5943C295.347 36.5943 295.714 36.4772 296.005 36.243C296.297 36.0088 296.512 35.6971 296.651 35.3078C296.793 34.9185 296.865 34.4897 296.865 34.0213C296.865 33.5561 296.793 33.1289 296.651 32.7396C296.512 32.3471 296.297 32.0323 296.005 31.7949C295.714 31.5575 295.347 31.4389 294.904 31.4389C294.458 31.4389 294.088 31.5575 293.793 31.7949C293.502 32.0323 293.285 32.3471 293.143 32.7396C293.004 33.1289 292.934 33.5561 292.934 34.0213C292.934 34.4897 293.004 34.9185 293.143 35.3078C293.285 35.6971 293.502 36.0088 293.793 36.243C294.088 36.4772 294.458 36.5943 294.904 36.5943ZM299.883 37.6387V30.347H301.255V31.5053H301.331C301.463 31.1129 301.698 30.8043 302.033 30.5796C302.372 30.3518 302.755 30.2378 303.182 30.2378C303.271 30.2378 303.375 30.241 303.495 30.2473C303.619 30.2536 303.715 30.2616 303.785 30.271V31.6287C303.728 31.6129 303.627 31.5955 303.481 31.5765C303.335 31.5544 303.19 31.5433 303.044 31.5433C302.709 31.5433 302.41 31.6145 302.147 31.7569C301.888 31.8962 301.682 32.0908 301.53 32.3408C301.378 32.5877 301.302 32.8693 301.302 33.1858V37.6387H299.883ZM306.132 40.373C305.92 40.373 305.727 40.3556 305.553 40.3208C305.379 40.2892 305.249 40.2544 305.164 40.2164L305.506 39.0533C305.765 39.123 305.996 39.153 306.199 39.1435C306.401 39.134 306.58 39.0581 306.735 38.9157C306.893 38.7732 307.033 38.5406 307.153 38.2178L307.329 37.7336L304.661 30.347H306.18L308.026 36.0056H308.102L309.949 30.347H311.473L308.468 38.6118C308.329 38.9916 308.151 39.3128 307.936 39.5755C307.721 39.8414 307.465 40.0407 307.167 40.1737C306.87 40.3066 306.525 40.373 306.132 40.373Z" fill="#82807C"/>
</g>
<g clip-path="url(#clip1_891_18851)">
<rect x="17" y="87.9951" width="1.90972" height="1.90972" rx="0.954861" fill="#DAD9D6"/>
<rect x="20.8184" y="87.9951" width="1.90972" height="1.90972" rx="0.954861" fill="#DAD9D6"/>
<rect x="24.6387" y="87.9951" width="1.90972" height="1.90972" rx="0.954861" fill="#DAD9D6"/>
<rect x="28.459" y="87.9951" width="1.90972" height="1.90972" rx="0.954861" fill="#DAD9D6"/>
<rect x="32.2773" y="87.9951" width="1.90972" height="1.90972" rx="0.954861" fill="#DAD9D6"/>
<rect x="36.0977" y="83.6982" width="1.90972" height="10.5035" rx="0.954861" fill="#DAD9D6"/>
<rect x="39.916" y="87.9951" width="1.90972" height="1.90972" rx="0.954861" fill="#DAD9D6"/>
<rect x="43.7363" y="87.9951" width="1.90972" height="1.90972" rx="0.954861" fill="#DAD9D6"/>
<rect x="47.5547" y="85.6079" width="1.90972" height="6.68403" rx="0.954861" fill="#DAD9D6"/>
<rect x="51.375" y="87.9951" width="1.90972" height="1.90972" rx="0.954861" fill="#DAD9D6"/>
<rect x="55.1934" y="85.6079" width="1.90972" height="6.68403" rx="0.954861" fill="#DAD9D6"/>
<rect x="59.0137" y="84.6528" width="1.90972" height="8.59375" rx="0.954861" fill="#DAD9D6"/>
<rect x="62.834" y="87.9951" width="1.90972" height="1.90972" rx="0.954861" fill="#DAD9D6"/>
<rect x="66.6523" y="87.9951" width="1.90972" height="1.90972" rx="0.954861" fill="#DAD9D6"/>
<rect x="70.4727" y="87.9951" width="1.90972" height="1.90972" rx="0.954861" fill="#DAD9D6"/>
<rect x="74.291" y="86.5625" width="1.90972" height="4.77431" rx="0.954861" fill="#DAD9D6"/>
<rect x="78.1113" y="87.9951" width="1.90972" height="1.90972" rx="0.954861" fill="#DAD9D6"/>
<rect x="81.9297" y="87.9951" width="1.90972" height="1.90972" rx="0.954861" fill="#DAD9D6"/>
<rect x="85.75" y="85.6079" width="1.90972" height="6.68403" rx="0.954861" fill="#DAD9D6"/>
<rect x="89.5684" y="87.9951" width="1.90972" height="1.90972" rx="0.954861" fill="#DAD9D6"/>
<rect x="93.3887" y="83.6982" width="1.90972" height="10.5035" rx="0.954861" fill="#DAD9D6"/>
<rect x="97.209" y="87.9946" width="1.90972" height="1.90972" rx="0.954861" fill="#DAD9D6"/>
<rect x="101.027" y="87.9951" width="1.90972" height="1.90972" rx="0.954861" fill="#DAD9D6"/>
<rect x="104.848" y="87.9951" width="1.90972" height="1.90972" rx="0.954861" fill="#DAD9D6"/>
<rect x="108.666" y="81.7886" width="1.90972" height="14.3229" rx="0.954861" fill="#DAD9D6"/>
<rect x="112.486" y="68.4204" width="1.90972" height="41.059" rx="0.954861" fill="#DAD9D6"/>
<rect x="116.305" y="73.1943" width="1.90972" height="31.5104" rx="0.954861" fill="#DAD9D6"/>
<rect x="120.125" y="75.1045" width="1.90972" height="27.691" rx="0.954861" fill="#DAD9D6"/>
<rect x="123.943" y="73.1948" width="1.90972" height="31.5104" rx="0.954861" fill="#DAD9D6"/>
<rect x="127.764" y="77.9688" width="1.90972" height="21.9618" rx="0.954861" fill="#DAD9D6"/>
<rect x="131.584" y="76.0591" width="1.90972" height="25.7812" rx="0.954861" fill="#DAD9D6"/>
<rect x="135.402" y="81.7886" width="1.90972" height="14.3229" rx="0.954861" fill="#DAD9D6"/>
<rect x="139.223" y="79.8789" width="1.90972" height="18.1424" rx="0.954861" fill="#DAD9D6"/>
<rect x="143.041" y="80.8335" width="1.90972" height="16.2326" rx="0.954861" fill="#DAD9D6"/>
<rect x="146.861" y="87.04" width="1.90972" height="3.81944" rx="0.954861" fill="#DAD9D6"/>
<rect x="150.68" y="83.6982" width="1.90972" height="10.5035" rx="0.954861" fill="#DAD9D6"/>
<rect x="154.5" y="87.5176" width="1.90972" height="2.86458" rx="0.954861" fill="#DAD9D6"/>
<rect x="158.318" y="87.9951" width="1.90972" height="1.90972" rx="0.954861" fill="#DAD9D6"/>
<rect x="162.139" y="85.6079" width="1.90972" height="6.68403" rx="0.954861" fill="#DAD9D6"/>
<rect x="165.959" y="87.5176" width="1.90972" height="2.86458" rx="0.954861" fill="#DAD9D6"/>
<rect x="169.777" y="83.6982" width="1.90972" height="10.5035" rx="0.954861" fill="#DAD9D6"/>
<rect x="173.598" y="87.04" width="1.90972" height="3.81944" rx="0.954861" fill="#DAD9D6"/>
<rect x="177.416" y="87.04" width="1.90972" height="3.81944" rx="0.954861" fill="#DAD9D6"/>
<rect x="181.236" y="87.04" width="1.90972" height="3.81944" rx="0.954861" fill="#DAD9D6"/>
<rect x="185.055" y="87.04" width="1.90972" height="3.81944" rx="0.954861" fill="#DAD9D6"/>
<rect x="188.875" y="83.6982" width="1.90972" height="10.5035" rx="0.954861" fill="#DAD9D6"/>
<rect x="192.695" y="87.5176" width="1.90972" height="2.86458" rx="0.954861" fill="#DAD9D6"/>
<rect x="196.514" y="87.9951" width="1.90972" height="1.90972" rx="0.954861" fill="#DAD9D6"/>
<rect x="200.334" y="85.6079" width="1.90972" height="6.68403" rx="0.954861" fill="#DAD9D6"/>
<rect x="204.152" y="87.5176" width="1.90972" height="2.86458" rx="0.954861" fill="#DAD9D6"/>
<rect x="207.973" y="83.6982" width="1.90972" height="10.5035" rx="0.954861" fill="#DAD9D6"/>
<rect x="211.791" y="78.9238" width="1.90972" height="20.0521" rx="0.954861" fill="#DAD9D6"/>
<rect x="215.611" y="71.2852" width="1.90972" height="35.3299" rx="0.954861" fill="#DAD9D6"/>
<rect x="219.43" y="78.9238" width="1.90972" height="20.0521" rx="0.954861" fill="#DAD9D6"/>
<rect x="223.25" y="77.9688" width="1.90972" height="21.9618" rx="0.954861" fill="#DAD9D6"/>
<rect x="227.07" y="79.8789" width="1.90972" height="18.1424" rx="0.954861" fill="#DAD9D6"/>
<rect x="230.889" y="81.7886" width="1.90972" height="14.3229" rx="0.954861" fill="#DAD9D6"/>
<rect x="234.709" y="80.8335" width="1.90972" height="16.2326" rx="0.954861" fill="#DAD9D6"/>
<rect x="238.527" y="77.0142" width="1.90972" height="23.8715" rx="0.954861" fill="#DAD9D6"/>
<rect x="242.348" y="81.7881" width="1.90972" height="14.3229" rx="0.954861" fill="#DAD9D6"/>
<rect x="246.166" y="79.8789" width="1.90972" height="18.1424" rx="0.954861" fill="#DAD9D6"/>
<rect x="249.986" y="81.7886" width="1.90972" height="14.3229" rx="0.954861" fill="#DAD9D6"/>
<rect x="253.805" y="80.8335" width="1.90972" height="16.2326" rx="0.954861" fill="#DAD9D6"/>
<rect x="257.625" y="83.6982" width="1.90972" height="10.5035" rx="0.954861" fill="#DAD9D6"/>
<rect x="261.445" y="78.9238" width="1.90972" height="20.0521" rx="0.954861" fill="#DAD9D6"/>
<rect x="265.264" y="82.7432" width="1.90972" height="12.4132" rx="0.954861" fill="#DAD9D6"/>
<rect x="269.084" y="76.0591" width="1.90972" height="25.7812" rx="0.954861" fill="#DAD9D6"/>
<rect x="272.902" y="87.04" width="1.90972" height="3.81944" rx="0.954861" fill="#DAD9D6"/>
<rect x="276.723" y="87.04" width="1.90972" height="3.81944" rx="0.954861" fill="#DAD9D6"/>
<rect x="280.541" y="87.04" width="1.90972" height="3.81944" rx="0.954861" fill="#DAD9D6"/>
<rect x="284.361" y="87.04" width="1.90972" height="3.81944" rx="0.954861" fill="#DAD9D6"/>
<rect x="288.18" y="83.6982" width="1.90972" height="10.5035" rx="0.954861" fill="#DAD9D6"/>
<rect x="292" y="87.5176" width="1.90972" height="2.86458" rx="0.954861" fill="#DAD9D6"/>
<rect x="295.82" y="87.9951" width="1.90972" height="1.90972" rx="0.954861" fill="#DAD9D6"/>
<rect x="299.639" y="85.6079" width="1.90972" height="6.68403" rx="0.954861" fill="#DAD9D6"/>
<rect x="303.459" y="87.5176" width="1.90972" height="2.86458" rx="0.954861" fill="#DAD9D6"/>
<rect x="307.277" y="87.9951" width="1.90972" height="1.90972" rx="0.954861" fill="#DAD9D6"/>
<rect x="311.098" y="87.9951" width="1.90972" height="1.90972" rx="0.954861" fill="#DAD9D6"/>
<rect x="314.916" y="87.9951" width="1.90972" height="1.90972" rx="0.954861" fill="#DAD9D6"/>
<rect x="318.736" y="87.9951" width="1.90972" height="1.90972" rx="0.954861" fill="#DAD9D6"/>
<rect x="322.557" y="83.6982" width="1.90972" height="10.5035" rx="0.954861" fill="#DAD9D6"/>
<rect x="326.375" y="86.5625" width="1.90972" height="4.77431" rx="0.954861" fill="#DAD9D6"/>
<rect x="330.195" y="87.9951" width="1.90972" height="1.90972" rx="0.954861" fill="#DAD9D6"/>
<rect x="334.014" y="87.9951" width="1.90972" height="1.90972" rx="0.954861" fill="#DAD9D6"/>
<rect x="337.834" y="85.6079" width="1.90972" height="6.68403" rx="0.954861" fill="#DAD9D6"/>
<rect x="341.652" y="87.9951" width="1.90972" height="1.90972" rx="0.954861" fill="#DAD9D6"/>
</g>
<rect x="17.4774" y="128.099" width="25.7812" height="25.7812" rx="3.52257" fill="white"/>
<rect x="17.4774" y="128.099" width="25.7812" height="25.7812" rx="3.52257" stroke="#E9E8E6" stroke-width="0.954861"/>
<path d="M26.4756 135.297C26.6232 135.3 26.7676 135.343 26.8936 135.421L34.71 140.277H34.7109C34.8314 140.351 34.9309 140.456 35 140.581C35.0691 140.705 35.1058 140.847 35.1055 140.99C35.1058 141.133 35.0691 141.274 35 141.399C34.9309 141.523 34.8313 141.628 34.7109 141.702H34.71L26.8936 146.557C26.7675 146.635 26.6232 146.678 26.4756 146.681C26.3648 146.683 26.2546 146.663 26.1523 146.622L26.0527 146.573C25.9252 146.5 25.8183 146.395 25.7441 146.267C25.67 146.139 25.6311 145.993 25.6309 145.844V136.135C25.6311 135.987 25.6702 135.84 25.7441 135.712C25.7997 135.616 25.8738 135.533 25.9609 135.466L26.0527 135.406C26.1816 135.332 26.3278 135.295 26.4756 135.297Z" fill="#21201D" stroke="#21201D" stroke-width="0.0745985"/>
<path d="M59.8171 135.268V144.99H58.3455V136.739H58.2885L55.9624 138.258V136.853L58.3882 135.268H59.8171ZM62.8399 145.08C62.5804 145.08 62.3572 144.988 62.1705 144.805C61.9838 144.618 61.8904 144.393 61.8904 144.131C61.8904 143.871 61.9838 143.649 62.1705 143.466C62.3572 143.279 62.5804 143.186 62.8399 143.186C63.0994 143.186 63.3225 143.279 63.5092 143.466C63.696 143.649 63.7893 143.871 63.7893 144.131C63.7893 144.305 63.745 144.464 63.6564 144.61C63.5709 144.752 63.457 144.866 63.3146 144.952C63.1722 145.037 63.0139 145.08 62.8399 145.08ZM68.7038 145.151C67.9538 145.148 67.3129 144.95 66.7812 144.558C66.2495 144.165 65.8429 143.594 65.5612 142.844C65.2795 142.094 65.1387 141.19 65.1387 140.133C65.1387 139.08 65.2795 138.179 65.5612 137.432C65.846 136.685 66.2543 136.116 66.786 135.723C67.3208 135.331 67.9601 135.135 68.7038 135.135C69.4476 135.135 70.0853 135.332 70.6169 135.728C71.1486 136.12 71.5553 136.69 71.837 137.437C72.1218 138.181 72.2642 139.08 72.2642 140.133C72.2642 141.194 72.1234 142.099 71.8417 142.849C71.56 143.596 71.1534 144.167 70.6217 144.562C70.09 144.955 69.4507 145.151 68.7038 145.151ZM68.7038 143.884C69.3621 143.884 69.8764 143.562 70.2467 142.92C70.6201 142.278 70.8068 141.349 70.8068 140.133C70.8068 139.326 70.7214 138.644 70.5505 138.087C70.3827 137.527 70.1406 137.103 69.8242 136.815C69.5109 136.524 69.1374 136.378 68.7038 136.378C68.0487 136.378 67.5344 136.701 67.161 137.347C66.7876 137.992 66.5992 138.921 66.5961 140.133C66.5961 140.944 66.6799 141.629 66.8477 142.189C67.0186 142.746 67.2607 143.168 67.574 143.456C67.8873 143.741 68.2639 143.884 68.7038 143.884ZM75.0876 137.698L76.6969 140.537L78.3204 137.698H79.8728L77.5989 141.344L79.8917 144.99H78.3394L76.6969 142.265L75.0591 144.99H73.502L75.7712 141.344L73.5305 137.698H75.0876Z" fill="#21201D"/>
<path d="M260.32 145.151C259.57 145.148 258.929 144.95 258.397 144.558C257.866 144.165 257.459 143.594 257.177 142.844C256.896 142.094 256.755 141.19 256.755 140.133C256.755 139.08 256.896 138.179 257.177 137.432C257.462 136.685 257.87 136.116 258.402 135.723C258.937 135.331 259.576 135.135 260.32 135.135C261.064 135.135 261.701 135.332 262.233 135.728C262.765 136.12 263.171 136.69 263.453 137.437C263.738 138.181 263.88 139.08 263.88 140.133C263.88 141.194 263.739 142.099 263.458 142.849C263.176 143.596 262.769 144.167 262.238 144.562C261.706 144.955 261.067 145.151 260.32 145.151ZM260.32 143.884C260.978 143.884 261.492 143.562 261.863 142.92C262.236 142.278 262.423 141.349 262.423 140.133C262.423 139.326 262.337 138.644 262.167 138.087C261.999 137.527 261.757 137.103 261.44 136.815C261.127 136.524 260.754 136.378 260.32 136.378C259.665 136.378 259.151 136.701 258.777 137.347C258.404 137.992 258.215 138.921 258.212 140.133C258.212 140.944 258.296 141.629 258.464 142.189C258.635 142.746 258.877 143.168 259.19 143.456C259.503 143.741 259.88 143.884 260.32 143.884ZM268.949 145.151C268.199 145.148 267.558 144.95 267.027 144.558C266.495 144.165 266.088 143.594 265.806 142.844C265.525 142.094 265.384 141.19 265.384 140.133C265.384 139.08 265.525 138.179 265.806 137.432C266.091 136.685 266.5 136.116 267.031 135.723C267.566 135.331 268.205 135.135 268.949 135.135C269.693 135.135 270.331 135.332 270.862 135.728C271.394 136.12 271.801 136.69 272.082 137.437C272.367 138.181 272.509 139.08 272.509 140.133C272.509 141.194 272.369 142.099 272.087 142.849C271.805 143.596 271.399 144.167 270.867 144.562C270.335 144.955 269.696 145.151 268.949 145.151ZM268.949 143.884C269.607 143.884 270.122 143.562 270.492 142.92C270.865 142.278 271.052 141.349 271.052 140.133C271.052 139.326 270.967 138.644 270.796 138.087C270.628 137.527 270.386 137.103 270.069 136.815C269.756 136.524 269.383 136.378 268.949 136.378C268.294 136.378 267.78 136.701 267.406 137.347C267.033 137.992 266.845 138.921 266.841 140.133C266.841 140.944 266.925 141.629 267.093 142.189C267.264 142.746 267.506 143.168 267.819 143.456C268.133 143.741 268.509 143.884 268.949 143.884ZM275.148 143.784C274.888 143.784 274.665 143.692 274.478 143.509C274.292 143.322 274.198 143.097 274.198 142.835C274.198 142.575 274.292 142.353 274.478 142.17C274.665 141.983 274.888 141.89 275.148 141.89C275.407 141.89 275.63 141.983 275.817 142.17C276.004 142.353 276.097 142.575 276.097 142.835C276.097 143.009 276.053 143.168 275.964 143.314C275.879 143.456 275.765 143.57 275.622 143.656C275.48 143.741 275.322 143.784 275.148 143.784ZM275.148 138.913C274.888 138.913 274.665 138.822 274.478 138.638C274.292 138.451 274.198 138.227 274.198 137.964C274.198 137.704 274.292 137.483 274.478 137.299C274.665 137.113 274.888 137.019 275.148 137.019C275.407 137.019 275.63 137.113 275.817 137.299C276.004 137.483 276.097 137.704 276.097 137.964C276.097 138.138 276.053 138.298 275.964 138.443C275.879 138.586 275.765 138.7 275.622 138.785C275.48 138.871 275.322 138.913 275.148 138.913ZM281.364 145.151C280.614 145.148 279.973 144.95 279.442 144.558C278.91 144.165 278.503 143.594 278.222 142.844C277.94 142.094 277.799 141.19 277.799 140.133C277.799 139.08 277.94 138.179 278.222 137.432C278.506 136.685 278.915 136.116 279.446 135.723C279.981 135.331 280.62 135.135 281.364 135.135C282.108 135.135 282.746 135.332 283.277 135.728C283.809 136.12 284.216 136.69 284.497 137.437C284.782 138.181 284.925 139.08 284.925 140.133C284.925 141.194 284.784 142.099 284.502 142.849C284.22 143.596 283.814 144.167 283.282 144.562C282.75 144.955 282.111 145.151 281.364 145.151ZM281.364 143.884C282.022 143.884 282.537 143.562 282.907 142.92C283.28 142.278 283.467 141.349 283.467 140.133C283.467 139.326 283.382 138.644 283.211 138.087C283.043 137.527 282.801 137.103 282.485 136.815C282.171 136.524 281.798 136.378 281.364 136.378C280.709 136.378 280.195 136.701 279.821 137.347C279.448 137.992 279.26 138.921 279.256 140.133C279.256 140.944 279.34 141.629 279.508 142.189C279.679 142.746 279.921 143.168 280.234 143.456C280.548 143.741 280.924 143.884 281.364 143.884ZM289.993 145.151C289.243 145.148 288.602 144.95 288.071 144.558C287.539 144.165 287.132 143.594 286.851 142.844C286.569 142.094 286.428 141.19 286.428 140.133C286.428 139.08 286.569 138.179 286.851 137.432C287.136 136.685 287.544 136.116 288.075 135.723C288.61 135.331 289.25 135.135 289.993 135.135C290.737 135.135 291.375 135.332 291.906 135.728C292.438 136.12 292.845 136.69 293.126 137.437C293.411 138.181 293.554 139.08 293.554 140.133C293.554 141.194 293.413 142.099 293.131 142.849C292.85 143.596 292.443 144.167 291.911 144.562C291.38 144.955 290.74 145.151 289.993 145.151ZM289.993 143.884C290.652 143.884 291.166 143.562 291.536 142.92C291.91 142.278 292.096 141.349 292.096 140.133C292.096 139.326 292.011 138.644 291.84 138.087C291.672 137.527 291.43 137.103 291.114 136.815C290.8 136.524 290.427 136.378 289.993 136.378C289.338 136.378 288.824 136.701 288.451 137.347C288.077 137.992 287.889 138.921 287.886 140.133C287.886 140.944 287.969 141.629 288.137 142.189C288.308 142.746 288.55 143.168 288.864 143.456C289.177 143.741 289.553 143.884 289.993 143.884ZM302.497 134.812L299.364 146.452H298.097L301.23 134.812H302.497ZM310.607 145.151C309.857 145.148 309.216 144.95 308.684 144.558C308.152 144.165 307.746 143.594 307.464 142.844C307.182 142.094 307.042 141.19 307.042 140.133C307.042 139.08 307.182 138.179 307.464 137.432C307.749 136.685 308.157 136.116 308.689 135.723C309.224 135.331 309.863 135.135 310.607 135.135C311.351 135.135 311.988 135.332 312.52 135.728C313.052 136.12 313.458 136.69 313.74 137.437C314.025 138.181 314.167 139.08 314.167 140.133C314.167 141.194 314.026 142.099 313.745 142.849C313.463 143.596 313.056 144.167 312.525 144.562C311.993 144.955 311.354 145.151 310.607 145.151ZM310.607 143.884C311.265 143.884 311.779 143.562 312.15 142.92C312.523 142.278 312.71 141.349 312.71 140.133C312.71 139.326 312.624 138.644 312.453 138.087C312.286 137.527 312.044 137.103 311.727 136.815C311.414 136.524 311.04 136.378 310.607 136.378C309.952 136.378 309.437 136.701 309.064 137.347C308.691 137.992 308.502 138.921 308.499 140.133C308.499 140.944 308.583 141.629 308.751 142.189C308.922 142.746 309.164 143.168 309.477 143.456C309.79 143.741 310.167 143.884 310.607 143.884ZM319.236 145.151C318.486 145.148 317.845 144.95 317.313 144.558C316.782 144.165 316.375 143.594 316.093 142.844C315.812 142.094 315.671 141.19 315.671 140.133C315.671 139.08 315.812 138.179 316.093 137.432C316.378 136.685 316.786 136.116 317.318 135.723C317.853 135.331 318.492 135.135 319.236 135.135C319.98 135.135 320.617 135.332 321.149 135.728C321.681 136.12 322.087 136.69 322.369 137.437C322.654 138.181 322.796 139.08 322.796 140.133C322.796 141.194 322.656 142.099 322.374 142.849C322.092 143.596 321.686 144.167 321.154 144.562C320.622 144.955 319.983 145.151 319.236 145.151ZM319.236 143.884C319.894 143.884 320.409 143.562 320.779 142.92C321.152 142.278 321.339 141.349 321.339 140.133C321.339 139.326 321.254 138.644 321.083 138.087C320.915 137.527 320.673 137.103 320.356 136.815C320.043 136.524 319.67 136.378 319.236 136.378C318.581 136.378 318.067 136.701 317.693 137.347C317.32 137.992 317.131 138.921 317.128 140.133C317.128 140.944 317.212 141.629 317.38 142.189C317.551 142.746 317.793 143.168 318.106 143.456C318.419 143.741 318.796 143.884 319.236 143.884ZM325.435 143.784C325.175 143.784 324.952 143.692 324.765 143.509C324.579 143.322 324.485 143.097 324.485 142.835C324.485 142.575 324.579 142.353 324.765 142.17C324.952 141.983 325.175 141.89 325.435 141.89C325.694 141.89 325.917 141.983 326.104 142.17C326.291 142.353 326.384 142.575 326.384 142.835C326.384 143.009 326.34 143.168 326.251 143.314C326.166 143.456 326.052 143.57 325.909 143.656C325.767 143.741 325.609 143.784 325.435 143.784ZM325.435 138.913C325.175 138.913 324.952 138.822 324.765 138.638C324.579 138.451 324.485 138.227 324.485 137.964C324.485 137.704 324.579 137.483 324.765 137.299C324.952 137.113 325.175 137.019 325.435 137.019C325.694 137.019 325.917 137.113 326.104 137.299C326.291 137.483 326.384 137.704 326.384 137.964C326.384 138.138 326.34 138.298 326.251 138.443C326.166 138.586 326.052 138.7 325.909 138.785C325.767 138.871 325.609 138.913 325.435 138.913ZM328.062 143.091V141.904L332.263 135.268H333.199V137.014H332.605L329.6 141.771V141.847H335.359V143.091H328.062ZM332.672 144.99V142.73L332.681 142.189V135.268H334.072V144.99H332.672ZM337.013 144.99V143.926L340.303 140.518C340.654 140.148 340.944 139.823 341.171 139.545C341.403 139.263 341.575 138.996 341.689 138.742C341.803 138.489 341.86 138.22 341.86 137.935C341.86 137.613 341.784 137.334 341.632 137.1C341.48 136.863 341.273 136.681 341.01 136.554C340.747 136.424 340.452 136.359 340.122 136.359C339.774 136.359 339.47 136.431 339.211 136.573C338.951 136.715 338.752 136.916 338.613 137.176C338.474 137.435 338.404 137.739 338.404 138.087H337.003C337.003 137.496 337.14 136.978 337.412 136.535C337.684 136.092 338.057 135.749 338.532 135.505C339.007 135.258 339.546 135.135 340.151 135.135C340.762 135.135 341.3 135.256 341.765 135.5C342.233 135.741 342.599 136.07 342.861 136.488C343.124 136.902 343.256 137.371 343.256 137.893C343.256 138.253 343.187 138.606 343.051 138.951C342.918 139.296 342.686 139.681 342.354 140.105C342.021 140.526 341.559 141.037 340.967 141.638L339.035 143.661V143.732H343.412V144.99H337.013Z" fill="#21201D"/>
<defs>
<clipPath id="clip0_891_18851">
<rect x="18.9102" y="18.9097" width="324.181" height="29.4583" rx="4" fill="white"/>
</clipPath>
<clipPath id="clip1_891_18851">
<rect width="328" height="46.7882" fill="white" transform="translate(17 65.5557)"/>
</clipPath>
</defs>
</svg>
