<svg width="436" height="231" viewBox="0 0 436 231" fill="none" xmlns="http://www.w3.org/2000/svg">
<g filter="url(#filter0_d_711_23129)">
<rect x="28" y="24" width="380" height="175" rx="9" fill="white" shape-rendering="crispEdges"/>
<rect x="28.5" y="24.5" width="379" height="174" rx="8.5" stroke="#E9E8E6" shape-rendering="crispEdges"/>
<rect x="44" y="40" width="348" height="65" rx="6" fill="#F8F8F7"/>
<path d="M62.6719 58.4929C62.6188 58.0223 62.4001 57.6577 62.0156 57.3991C61.6312 57.1373 61.1473 57.0064 60.5639 57.0064C60.1463 57.0064 59.785 57.0727 59.4801 57.2053C59.1752 57.3345 58.9382 57.5135 58.7692 57.7422C58.6035 57.9676 58.5206 58.2244 58.5206 58.5128C58.5206 58.7547 58.5769 58.9635 58.6896 59.1392C58.8056 59.3149 58.9564 59.4624 59.142 59.5817C59.331 59.6977 59.5331 59.7955 59.7486 59.875C59.964 59.9512 60.1712 60.0142 60.37 60.0639L61.3643 60.3224C61.6892 60.402 62.0223 60.5097 62.3636 60.6456C62.705 60.7815 63.0215 60.9605 63.3132 61.1825C63.6049 61.4046 63.8402 61.6797 64.0192 62.0078C64.2015 62.3359 64.2926 62.7287 64.2926 63.1861C64.2926 63.7628 64.1435 64.2749 63.8452 64.7223C63.5502 65.1697 63.121 65.5227 62.5575 65.7812C61.9974 66.0398 61.3196 66.169 60.5241 66.169C59.7618 66.169 59.1023 66.0481 58.5455 65.8061C57.9886 65.5642 57.5528 65.2211 57.2379 64.777C56.9231 64.3295 56.7491 63.7992 56.7159 63.1861H58.2571C58.2869 63.554 58.4063 63.8606 58.6151 64.1058C58.8272 64.3478 59.0973 64.5284 59.4254 64.6477C59.7569 64.7637 60.1198 64.8217 60.5142 64.8217C60.9484 64.8217 61.3345 64.7538 61.6726 64.6179C62.014 64.4787 62.2824 64.2865 62.478 64.0412C62.6735 63.7926 62.7713 63.5026 62.7713 63.1712C62.7713 62.8696 62.6851 62.6226 62.5128 62.4304C62.3438 62.2382 62.1134 62.0791 61.8217 61.9531C61.5334 61.8272 61.2069 61.7161 60.8423 61.62L59.6392 61.2919C58.8239 61.0698 58.1776 60.7434 57.7003 60.3125C57.2263 59.8816 56.9893 59.3116 56.9893 58.6023C56.9893 58.0156 57.1484 57.5036 57.4666 57.0661C57.7848 56.6286 58.2157 56.2888 58.7592 56.0469C59.3028 55.8016 59.916 55.679 60.5987 55.679C61.2881 55.679 61.8963 55.8 62.4233 56.0419C62.9536 56.2839 63.3712 56.617 63.6761 57.0412C63.9811 57.4621 64.1402 57.946 64.1534 58.4929H62.6719ZM66.0091 68.8636V58.3636H67.4608V59.6016H67.585C67.6712 59.4425 67.7955 59.2585 67.9579 59.0497C68.1203 58.8409 68.3457 58.6586 68.6341 58.5028C68.9224 58.3438 69.3036 58.2642 69.7775 58.2642C70.394 58.2642 70.9442 58.42 71.4281 58.7315C71.912 59.0431 72.2915 59.4922 72.5666 60.0788C72.845 60.6655 72.9842 61.3714 72.9842 62.1967C72.9842 63.022 72.8467 63.7296 72.5716 64.3196C72.2965 64.9062 71.9186 65.3587 71.438 65.6768C70.9574 65.9917 70.4089 66.1491 69.7924 66.1491C69.3284 66.1491 68.9489 66.0713 68.6539 65.9155C68.3623 65.7597 68.1336 65.5774 67.9679 65.3686C67.8021 65.1598 67.6745 64.9742 67.585 64.8118H67.4956V68.8636H66.0091ZM67.4657 62.1818C67.4657 62.7187 67.5436 63.1894 67.6994 63.5938C67.8552 63.9981 68.0806 64.3146 68.3755 64.5433C68.6705 64.7687 69.0318 64.8814 69.4593 64.8814C69.9035 64.8814 70.2747 64.7637 70.573 64.5284C70.8713 64.2898 71.0967 63.9666 71.2491 63.5589C71.4049 63.1513 71.4828 62.6922 71.4828 62.1818C71.4828 61.678 71.4065 61.2256 71.2541 60.8246C71.1049 60.4235 70.8796 60.107 70.5779 59.875C70.2797 59.643 69.9068 59.527 69.4593 59.527C69.0285 59.527 68.6639 59.638 68.3656 59.8601C68.0706 60.0821 67.8469 60.392 67.6944 60.7898C67.542 61.1875 67.4657 61.6515 67.4657 62.1818ZM74.6497 66V58.3636H76.0865V59.5767H76.166C76.3052 59.1657 76.5505 58.8426 76.9018 58.6072C77.2565 58.3686 77.6575 58.2493 78.1049 58.2493C78.1977 58.2493 78.3071 58.2526 78.4331 58.2592C78.5623 58.2659 78.6634 58.2741 78.7363 58.2841V59.706C78.6767 59.6894 78.5706 59.6712 78.4181 59.6513C78.2657 59.6281 78.1132 59.6165 77.9608 59.6165C77.6094 59.6165 77.2962 59.6911 77.0211 59.8402C76.7493 59.986 76.5339 60.1899 76.3748 60.4517C76.2157 60.7102 76.1362 61.0052 76.1362 61.3366V66H74.6497ZM80.0227 66V58.3636H81.5092V66H80.0227ZM80.7734 57.1854C80.5149 57.1854 80.2929 57.0992 80.1072 56.9268C79.925 56.7512 79.8338 56.5424 79.8338 56.3004C79.8338 56.0552 79.925 55.8464 80.1072 55.674C80.2929 55.4983 80.5149 55.4105 80.7734 55.4105C81.032 55.4105 81.2524 55.4983 81.4347 55.674C81.6203 55.8464 81.7131 56.0552 81.7131 56.3004C81.7131 56.5424 81.6203 56.7512 81.4347 56.9268C81.2524 57.0992 81.032 57.1854 80.7734 57.1854ZM84.9956 61.4659V66H83.5091V58.3636H84.9359V59.6065H85.0304C85.206 59.2022 85.4811 58.8774 85.8556 58.6321C86.2335 58.3868 86.7091 58.2642 87.2825 58.2642C87.8029 58.2642 88.2586 58.3736 88.6497 58.5923C89.0408 58.8078 89.344 59.1293 89.5595 59.5568C89.7749 59.9844 89.8826 60.513 89.8826 61.1428V66H88.3961V61.3217C88.3961 60.7682 88.252 60.3357 87.9636 60.0241C87.6752 59.7093 87.2792 59.5518 86.7754 59.5518C86.4307 59.5518 86.1241 59.6264 85.8556 59.7756C85.5905 59.9247 85.38 60.1435 85.2243 60.4318C85.0718 60.7169 84.9956 61.0616 84.9956 61.4659ZM95.0779 69.0227C94.4714 69.0227 93.9494 68.9432 93.5119 68.7841C93.0777 68.625 92.7231 68.4145 92.448 68.1527C92.1729 67.8909 91.9674 67.6042 91.8315 67.2926L93.1092 66.7656C93.1987 66.9115 93.318 67.0656 93.4672 67.228C93.6196 67.3937 93.8251 67.5346 94.0836 67.6506C94.3455 67.7666 94.6819 67.8246 95.0929 67.8246C95.6563 67.8246 96.122 67.687 96.4899 67.4119C96.8578 67.1402 97.0417 66.706 97.0417 66.1094V64.608H96.9473C96.8578 64.7704 96.7285 64.951 96.5595 65.1499C96.3938 65.3487 96.1651 65.5211 95.8734 65.6669C95.5817 65.8127 95.2022 65.8857 94.7349 65.8857C94.1317 65.8857 93.5881 65.7448 93.1042 65.4631C92.6236 65.178 92.2425 64.7588 91.9608 64.2053C91.6824 63.6484 91.5431 62.964 91.5431 62.152C91.5431 61.34 91.6807 60.6439 91.9558 60.0639C92.2342 59.4839 92.6154 59.0398 93.0993 58.7315C93.5832 58.42 94.1317 58.2642 94.7449 58.2642C95.2188 58.2642 95.6016 58.3438 95.8933 58.5028C96.185 58.6586 96.412 58.8409 96.5744 59.0497C96.7401 59.2585 96.8677 59.4425 96.9572 59.6016H97.0666V58.3636H98.5233V66.169C98.5233 66.8253 98.3708 67.3639 98.0659 67.7848C97.7609 68.2057 97.3483 68.5173 96.8279 68.7195C96.3109 68.9216 95.7276 69.0227 95.0779 69.0227ZM95.063 64.6527C95.4906 64.6527 95.8519 64.5533 96.1468 64.3544C96.4451 64.1522 96.6705 63.8639 96.823 63.4893C96.9788 63.1115 97.0566 62.6591 97.0566 62.1321C97.0566 61.6184 96.9804 61.166 96.8279 60.7749C96.6755 60.3838 96.4518 60.0788 96.1568 59.8601C95.8618 59.638 95.4972 59.527 95.063 59.527C94.6156 59.527 94.2427 59.643 93.9444 59.875C93.6461 60.1037 93.4208 60.4152 93.2683 60.8097C93.1191 61.2041 93.0446 61.6449 93.0446 62.1321C93.0446 62.6326 93.1208 63.0717 93.2733 63.4496C93.4257 63.8274 93.6511 64.1224 93.9494 64.3345C94.251 64.5466 94.6222 64.6527 95.063 64.6527ZM104.341 55.8182H106.206L109.447 63.733H109.566L112.808 55.8182H114.672V66H113.211V58.6321H113.116L110.113 65.9851H108.9L105.897 58.6271H105.803V66H104.341V55.8182ZM120.078 66.1541C119.325 66.1541 118.677 65.9934 118.134 65.6719C117.593 65.3471 117.176 64.8913 116.881 64.3047C116.589 63.7147 116.443 63.0237 116.443 62.2315C116.443 61.4493 116.589 60.7599 116.881 60.1634C117.176 59.5668 117.587 59.1011 118.114 58.7663C118.644 58.4316 119.264 58.2642 119.973 58.2642C120.404 58.2642 120.822 58.3355 121.226 58.478C121.63 58.6205 121.993 58.8442 122.315 59.1491C122.636 59.4541 122.89 59.8501 123.075 60.3374C123.261 60.8213 123.354 61.4096 123.354 62.1023V62.6293H117.284V61.5156H121.897C121.897 61.1245 121.818 60.7782 121.659 60.4766C121.499 60.1716 121.276 59.9313 120.987 59.7557C120.702 59.58 120.368 59.4922 119.983 59.4922C119.566 59.4922 119.201 59.5949 118.889 59.8004C118.581 60.0026 118.343 60.2678 118.173 60.5959C118.008 60.9207 117.925 61.2737 117.925 61.6548V62.5249C117.925 63.0353 118.014 63.4695 118.193 63.8274C118.376 64.1854 118.629 64.4588 118.954 64.6477C119.279 64.8333 119.658 64.9261 120.093 64.9261C120.374 64.9261 120.631 64.8864 120.863 64.8068C121.095 64.724 121.296 64.6013 121.465 64.4389C121.634 64.2765 121.763 64.076 121.852 63.8374L123.259 64.0909C123.147 64.5052 122.945 64.8681 122.653 65.1797C122.365 65.4879 122.002 65.7282 121.564 65.9006C121.13 66.0696 120.634 66.1541 120.078 66.1541ZM127.862 66.1491C127.245 66.1491 126.695 65.9917 126.211 65.6768C125.731 65.3587 125.353 64.9062 125.078 64.3196C124.806 63.7296 124.67 63.022 124.67 62.1967C124.67 61.3714 124.808 60.6655 125.083 60.0788C125.361 59.4922 125.742 59.0431 126.226 58.7315C126.71 58.42 127.259 58.2642 127.872 58.2642C128.346 58.2642 128.727 58.3438 129.015 58.5028C129.307 58.6586 129.532 58.8409 129.691 59.0497C129.854 59.2585 129.98 59.4425 130.069 59.6016H130.159V55.8182H131.645V66H130.194V64.8118H130.069C129.98 64.9742 129.85 65.1598 129.681 65.3686C129.516 65.5774 129.287 65.7597 128.995 65.9155C128.704 66.0713 128.326 66.1491 127.862 66.1491ZM128.19 64.8814C128.618 64.8814 128.979 64.7687 129.274 64.5433C129.572 64.3146 129.797 63.9981 129.95 63.5938C130.106 63.1894 130.184 62.7187 130.184 62.1818C130.184 61.6515 130.107 61.1875 129.955 60.7898C129.802 60.392 129.579 60.0821 129.284 59.8601C128.989 59.638 128.624 59.527 128.19 59.527C127.743 59.527 127.37 59.643 127.071 59.875C126.773 60.107 126.548 60.4235 126.395 60.8246C126.246 61.2256 126.172 61.678 126.172 62.1818C126.172 62.6922 126.248 63.1513 126.4 63.5589C126.553 63.9666 126.778 64.2898 127.076 64.5284C127.378 64.7637 127.749 64.8814 128.19 64.8814ZM133.767 66V58.3636H135.253V66H133.767ZM134.518 57.1854C134.259 57.1854 134.037 57.0992 133.851 56.9268C133.669 56.7512 133.578 56.5424 133.578 56.3004C133.578 56.0552 133.669 55.8464 133.851 55.674C134.037 55.4983 134.259 55.4105 134.518 55.4105C134.776 55.4105 134.997 55.4983 135.179 55.674C135.364 55.8464 135.457 56.0552 135.457 56.3004C135.457 56.5424 135.364 56.7512 135.179 56.9268C134.997 57.0992 134.776 57.1854 134.518 57.1854ZM140.47 66.1541C139.731 66.1541 139.094 65.9867 138.561 65.652C138.03 65.3139 137.623 64.8482 137.338 64.255C137.053 63.6617 136.91 62.9822 136.91 62.2166C136.91 61.4411 137.056 60.7566 137.348 60.1634C137.639 59.5668 138.05 59.1011 138.581 58.7663C139.111 58.4316 139.736 58.2642 140.455 58.2642C141.035 58.2642 141.552 58.3719 142.006 58.5874C142.46 58.7995 142.826 59.0978 143.105 59.4822C143.386 59.8667 143.554 60.3158 143.607 60.8295H142.16C142.081 60.4716 141.898 60.1634 141.613 59.9048C141.332 59.6463 140.954 59.517 140.48 59.517C140.065 59.517 139.703 59.6264 139.391 59.8452C139.083 60.0606 138.842 60.3688 138.67 60.7699C138.498 61.1676 138.412 61.6383 138.412 62.1818C138.412 62.7386 138.496 63.2192 138.665 63.6236C138.834 64.0279 139.073 64.3411 139.381 64.5632C139.693 64.7853 140.059 64.8963 140.48 64.8963C140.761 64.8963 141.017 64.8449 141.245 64.7422C141.477 64.6361 141.671 64.4853 141.827 64.2898C141.986 64.0942 142.097 63.8589 142.16 63.5838H143.607C143.554 64.0777 143.393 64.5185 143.125 64.9062C142.856 65.294 142.497 65.599 142.046 65.821C141.598 66.0431 141.073 66.1541 140.47 66.1541ZM147.419 66.169C146.935 66.169 146.497 66.0795 146.106 65.9006C145.715 65.7183 145.405 65.4548 145.177 65.1101C144.951 64.7654 144.839 64.3428 144.839 63.8423C144.839 63.4115 144.921 63.0568 145.087 62.7784C145.253 62.5 145.477 62.2796 145.758 62.1172C146.04 61.9548 146.355 61.8321 146.703 61.7493C147.051 61.6664 147.406 61.6035 147.767 61.5604C148.224 61.5073 148.595 61.4643 148.881 61.4311C149.166 61.3946 149.373 61.3366 149.502 61.2571C149.631 61.1776 149.696 61.0483 149.696 60.8693V60.8345C149.696 60.4003 149.573 60.0639 149.328 59.8253C149.086 59.5866 148.725 59.4673 148.244 59.4673C147.744 59.4673 147.349 59.5784 147.061 59.8004C146.776 60.0192 146.579 60.2628 146.469 60.5312L145.072 60.2131C145.238 59.7491 145.48 59.3745 145.798 59.0895C146.12 58.8011 146.489 58.5923 146.907 58.4631C147.324 58.3305 147.764 58.2642 148.224 58.2642C148.529 58.2642 148.852 58.3007 149.194 58.3736C149.538 58.4432 149.86 58.5724 150.158 58.7614C150.46 58.9503 150.707 59.2204 150.899 59.5717C151.091 59.9197 151.187 60.3722 151.187 60.929V66H149.736V64.956H149.676C149.58 65.1482 149.436 65.3371 149.243 65.5227C149.051 65.7083 148.804 65.8625 148.503 65.9851C148.201 66.1077 147.84 66.169 147.419 66.169ZM147.742 64.9759C148.153 64.9759 148.504 64.8946 148.796 64.7322C149.091 64.5698 149.315 64.3577 149.467 64.0959C149.623 63.8307 149.701 63.5473 149.701 63.2457V62.2614C149.648 62.3144 149.545 62.3641 149.393 62.4105C149.243 62.4536 149.073 62.4917 148.881 62.5249C148.688 62.5547 148.501 62.5829 148.319 62.6094C148.136 62.6326 147.984 62.6525 147.861 62.669C147.573 62.7055 147.309 62.7668 147.071 62.853C146.836 62.9392 146.647 63.0634 146.504 63.2259C146.365 63.3849 146.295 63.5971 146.295 63.8622C146.295 64.2301 146.431 64.5085 146.703 64.6974C146.975 64.883 147.321 64.9759 147.742 64.9759ZM154.654 55.8182V66H153.167V55.8182H154.654Z" fill="#21201D"/>
<path d="M60.375 89H57.233V78.8182H60.5142C61.5019 78.8182 62.3471 79.022 63.0497 79.4297C63.7524 79.834 64.291 80.4157 64.6655 81.1747C65.04 81.9304 65.2273 82.8352 65.2273 83.8892C65.2273 84.9498 65.0384 85.8629 64.6605 86.6286C64.2827 87.3909 63.7325 87.9775 63.0099 88.3885C62.2874 88.7962 61.4091 89 60.375 89ZM58.4659 87.9062H60.2955C61.1373 87.9062 61.835 87.7438 62.3885 87.419C62.942 87.0942 63.3546 86.6319 63.6264 86.032C63.8982 85.4321 64.0341 84.7178 64.0341 83.8892C64.0341 83.0672 63.8999 82.3596 63.6314 81.7663C63.3629 81.1697 62.9619 80.7124 62.4283 80.3942C61.8946 80.0727 61.2301 79.9119 60.4347 79.9119H58.4659V87.9062ZM70.3381 89.1591C69.6023 89.1591 68.9676 88.9967 68.4339 88.6719C67.9036 88.3438 67.4943 87.8864 67.206 87.2997C66.9209 86.7098 66.7784 86.0237 66.7784 85.2415C66.7784 84.4593 66.9209 83.7699 67.206 83.1733C67.4943 82.5734 67.8954 82.1061 68.4091 81.7713C68.9261 81.4332 69.5294 81.2642 70.2188 81.2642C70.6165 81.2642 71.0092 81.3305 71.397 81.4631C71.7848 81.5956 72.1378 81.8111 72.456 82.1094C72.7741 82.4044 73.0277 82.7955 73.2166 83.2827C73.4055 83.7699 73.5 84.3698 73.5 85.0824V85.5795H67.6136V84.5653H72.3068C72.3068 84.1345 72.2206 83.75 72.0483 83.4119C71.8793 83.0739 71.6373 82.8071 71.3224 82.6115C71.0109 82.416 70.643 82.3182 70.2188 82.3182C69.7514 82.3182 69.3471 82.4342 69.0057 82.6662C68.6676 82.8949 68.4074 83.1932 68.2251 83.5611C68.0429 83.929 67.9517 84.3234 67.9517 84.7443V85.4205C67.9517 85.9972 68.0511 86.486 68.25 86.8871C68.4522 87.2848 68.7322 87.5881 69.0902 87.7969C69.4482 88.0024 69.8641 88.1051 70.3381 88.1051C70.6463 88.1051 70.9247 88.062 71.1733 87.9759C71.4252 87.8864 71.6423 87.7538 71.8246 87.5781C72.0069 87.3991 72.1477 87.1771 72.2472 86.9119L73.3807 87.2301C73.2614 87.6146 73.0608 87.9527 72.7791 88.2443C72.4974 88.5327 72.1494 88.758 71.7351 88.9205C71.3208 89.0795 70.8551 89.1591 70.3381 89.1591ZM76.4581 84.4062V89H75.2848V81.3636H76.4183V82.5568H76.5178C76.6967 82.169 76.9685 81.8575 77.3331 81.6222C77.6977 81.3835 78.1683 81.2642 78.745 81.2642C79.2621 81.2642 79.7145 81.3703 80.1023 81.5824C80.4901 81.7912 80.7917 82.1094 81.0071 82.5369C81.2225 82.9612 81.3303 83.4981 81.3303 84.1477V89H80.157V84.2273C80.157 83.6274 80.0012 83.16 79.6896 82.8253C79.3781 82.4872 78.9505 82.3182 78.407 82.3182C78.0324 82.3182 77.6977 82.3994 77.4027 82.5618C77.111 82.7242 76.8807 82.9612 76.7116 83.2727C76.5426 83.5843 76.4581 83.9621 76.4581 84.4062ZM89.4451 81.3636L86.6213 89H85.4281L82.6042 81.3636H83.877L85.9849 87.4489H86.0645L88.1724 81.3636H89.4451ZM93.9221 89.1591C93.1863 89.1591 92.5516 88.9967 92.0179 88.6719C91.4876 88.3438 91.0783 87.8864 90.79 87.2997C90.5049 86.7098 90.3624 86.0237 90.3624 85.2415C90.3624 84.4593 90.5049 83.7699 90.79 83.1733C91.0783 82.5734 91.4793 82.1061 91.9931 81.7713C92.5101 81.4332 93.1133 81.2642 93.8027 81.2642C94.2005 81.2642 94.5932 81.3305 94.981 81.4631C95.3688 81.5956 95.7218 81.8111 96.04 82.1094C96.3581 82.4044 96.6117 82.7955 96.8006 83.2827C96.9895 83.7699 97.084 84.3698 97.084 85.0824V85.5795H91.1976V84.5653H95.8908C95.8908 84.1345 95.8046 83.75 95.6323 83.4119C95.4632 83.0739 95.2213 82.8071 94.9064 82.6115C94.5949 82.416 94.227 82.3182 93.8027 82.3182C93.3354 82.3182 92.931 82.4342 92.5897 82.6662C92.2516 82.8949 91.9914 83.1932 91.8091 83.5611C91.6268 83.929 91.5357 84.3234 91.5357 84.7443V85.4205C91.5357 85.9972 91.6351 86.486 91.834 86.8871C92.0362 87.2848 92.3162 87.5881 92.6742 87.7969C93.0321 88.0024 93.4481 88.1051 93.9221 88.1051C94.2303 88.1051 94.5087 88.062 94.7573 87.9759C95.0092 87.8864 95.2263 87.7538 95.4086 87.5781C95.5909 87.3991 95.7317 87.1771 95.8311 86.9119L96.9647 87.2301C96.8453 87.6146 96.6448 87.9527 96.3631 88.2443C96.0814 88.5327 95.7334 88.758 95.3191 88.9205C94.9048 89.0795 94.4391 89.1591 93.9221 89.1591ZM98.8688 89V81.3636H100.002V82.517H100.082C100.221 82.1392 100.473 81.8326 100.838 81.5973C101.202 81.362 101.613 81.2443 102.07 81.2443C102.157 81.2443 102.264 81.246 102.394 81.2493C102.523 81.2526 102.621 81.2576 102.687 81.2642V82.4574C102.647 82.4474 102.556 82.4325 102.414 82.4126C102.274 82.3894 102.127 82.3778 101.971 82.3778C101.6 82.3778 101.268 82.4557 100.977 82.6115C100.688 82.764 100.46 82.9761 100.291 83.2479C100.125 83.5163 100.042 83.8229 100.042 84.1676V89H98.8688ZM104.953 87.608L104.873 88.1449C104.817 88.5227 104.731 88.9271 104.615 89.358C104.502 89.7888 104.384 90.1948 104.262 90.576C104.139 90.9571 104.038 91.2604 103.958 91.4858H103.064C103.107 91.2737 103.163 90.9936 103.233 90.6456C103.302 90.2976 103.372 89.9081 103.441 89.4773C103.514 89.0497 103.574 88.6122 103.62 88.1648L103.68 87.608H104.953ZM119.416 82H118.183C118.111 81.6454 117.983 81.3338 117.801 81.0653C117.622 80.7969 117.403 80.5715 117.144 80.3892C116.889 80.2036 116.606 80.0644 116.294 79.9716C115.983 79.8788 115.658 79.8324 115.32 79.8324C114.703 79.8324 114.145 79.9882 113.644 80.2997C113.147 80.6113 112.751 81.0703 112.456 81.6768C112.164 82.2834 112.019 83.0275 112.019 83.9091C112.019 84.7907 112.164 85.5348 112.456 86.1413C112.751 86.7479 113.147 87.2069 113.644 87.5185C114.145 87.83 114.703 87.9858 115.32 87.9858C115.658 87.9858 115.983 87.9394 116.294 87.8466C116.606 87.7538 116.889 87.6162 117.144 87.4339C117.403 87.2483 117.622 87.0213 117.801 86.7528C117.983 86.4811 118.111 86.1695 118.183 85.8182H119.416C119.324 86.3385 119.155 86.8042 118.909 87.2152C118.664 87.6262 118.359 87.9759 117.994 88.2642C117.63 88.5492 117.221 88.7663 116.767 88.9155C116.316 89.0646 115.834 89.1392 115.32 89.1392C114.451 89.1392 113.679 88.9271 113.003 88.5028C112.327 88.0786 111.795 87.4754 111.407 86.6932C111.019 85.911 110.825 84.983 110.825 83.9091C110.825 82.8352 111.019 81.9072 111.407 81.125C111.795 80.3428 112.327 79.7396 113.003 79.3153C113.679 78.8911 114.451 78.679 115.32 78.679C115.834 78.679 116.316 78.7536 116.767 78.9027C117.221 79.0518 117.63 79.2706 117.994 79.5589C118.359 79.844 118.664 80.192 118.909 80.603C119.155 81.0107 119.324 81.4763 119.416 82ZM130 83.9091C130 84.983 129.806 85.911 129.418 86.6932C129.03 87.4754 128.498 88.0786 127.822 88.5028C127.146 88.9271 126.374 89.1392 125.505 89.1392C124.637 89.1392 123.865 88.9271 123.189 88.5028C122.512 88.0786 121.98 87.4754 121.593 86.6932C121.205 85.911 121.011 84.983 121.011 83.9091C121.011 82.8352 121.205 81.9072 121.593 81.125C121.98 80.3428 122.512 79.7396 123.189 79.3153C123.865 78.8911 124.637 78.679 125.505 78.679C126.374 78.679 127.146 78.8911 127.822 79.3153C128.498 79.7396 129.03 80.3428 129.418 81.125C129.806 81.9072 130 82.8352 130 83.9091ZM128.806 83.9091C128.806 83.0275 128.659 82.2834 128.364 81.6768C128.072 81.0703 127.676 80.6113 127.176 80.2997C126.679 79.9882 126.122 79.8324 125.505 79.8324C124.889 79.8324 124.33 79.9882 123.83 80.2997C123.333 80.6113 122.937 81.0703 122.642 81.6768C122.35 82.2834 122.204 83.0275 122.204 83.9091C122.204 84.7907 122.35 85.5348 122.642 86.1413C122.937 86.7479 123.333 87.2069 123.83 87.5185C124.33 87.83 124.889 87.9858 125.505 87.9858C126.122 87.9858 126.679 87.83 127.176 87.5185C127.676 87.2069 128.072 86.7479 128.364 86.1413C128.659 85.5348 128.806 84.7907 128.806 83.9091Z" fill="#666561"/>
<path d="M337.426 70.5H336.193C336.12 70.1454 335.993 69.8338 335.81 69.5653C335.631 69.2969 335.413 69.0715 335.154 68.8892C334.899 68.7036 334.616 68.5644 334.304 68.4716C333.992 68.3788 333.668 68.3324 333.33 68.3324C332.713 68.3324 332.155 68.4882 331.654 68.7997C331.157 69.1113 330.761 69.5703 330.466 70.1768C330.174 70.7834 330.028 71.5275 330.028 72.4091C330.028 73.2907 330.174 74.0348 330.466 74.6413C330.761 75.2479 331.157 75.7069 331.654 76.0185C332.155 76.33 332.713 76.4858 333.33 76.4858C333.668 76.4858 333.992 76.4394 334.304 76.3466C334.616 76.2538 334.899 76.1162 335.154 75.9339C335.413 75.7483 335.631 75.5213 335.81 75.2528C335.993 74.9811 336.12 74.6695 336.193 74.3182H337.426C337.333 74.8385 337.164 75.3042 336.919 75.7152C336.674 76.1262 336.369 76.4759 336.004 76.7642C335.64 77.0492 335.23 77.2663 334.776 77.4155C334.326 77.5646 333.843 77.6392 333.33 77.6392C332.461 77.6392 331.689 77.4271 331.013 77.0028C330.337 76.5786 329.805 75.9754 329.417 75.1932C329.029 74.411 328.835 73.483 328.835 72.4091C328.835 71.3352 329.029 70.4072 329.417 69.625C329.805 68.8428 330.337 68.2396 331.013 67.8153C331.689 67.3911 332.461 67.179 333.33 67.179C333.843 67.179 334.326 67.2536 334.776 67.4027C335.23 67.5518 335.64 67.7706 336.004 68.0589C336.369 68.344 336.674 68.692 336.919 69.103C337.164 69.5107 337.333 69.9763 337.426 70.5ZM340.433 72.9062V77.5H339.259V67.3182H340.433V71.0568H340.532C340.711 70.6624 340.98 70.3492 341.338 70.1172C341.699 69.8819 342.179 69.7642 342.779 69.7642C343.3 69.7642 343.755 69.8686 344.146 70.0774C344.538 70.2829 344.841 70.5994 345.056 71.027C345.275 71.4512 345.384 71.9915 345.384 72.6477V77.5H344.211V72.7273C344.211 72.1207 344.054 71.6518 343.739 71.3203C343.427 70.9856 342.995 70.8182 342.441 70.8182C342.057 70.8182 341.712 70.8994 341.407 71.0618C341.106 71.2242 340.867 71.4612 340.691 71.7727C340.519 72.0843 340.433 72.4621 340.433 72.9062ZM349.778 77.679C349.294 77.679 348.855 77.5878 348.461 77.4055C348.066 77.2199 347.753 76.9531 347.521 76.6051C347.289 76.2538 347.173 75.8295 347.173 75.3324C347.173 74.8949 347.259 74.5402 347.431 74.2685C347.604 73.9934 347.834 73.7779 348.123 73.6222C348.411 73.4664 348.729 73.3504 349.077 73.2741C349.428 73.1946 349.781 73.1316 350.136 73.0852C350.6 73.0256 350.976 72.9808 351.265 72.951C351.556 72.9179 351.768 72.8632 351.901 72.7869C352.037 72.7107 352.105 72.5781 352.105 72.3892V72.3494C352.105 71.8589 351.971 71.4777 351.702 71.206C351.437 70.9342 351.034 70.7983 350.494 70.7983C349.934 70.7983 349.495 70.9209 349.176 71.1662C348.858 71.4115 348.635 71.6733 348.505 71.9517L347.392 71.554C347.591 71.09 347.856 70.7287 348.187 70.4702C348.522 70.2083 348.886 70.026 349.281 69.9233C349.679 69.8172 350.07 69.7642 350.454 69.7642C350.699 69.7642 350.981 69.794 351.299 69.8537C351.621 69.91 351.931 70.0277 352.229 70.2067C352.531 70.3857 352.781 70.6558 352.98 71.017C353.179 71.3783 353.278 71.8622 353.278 72.4688V77.5H352.105V76.4659H352.045C351.966 76.6316 351.833 76.8089 351.647 76.9979C351.462 77.1868 351.215 77.3475 350.907 77.4801C350.598 77.6127 350.222 77.679 349.778 77.679ZM349.957 76.625C350.421 76.625 350.812 76.5339 351.13 76.3516C351.452 76.1693 351.694 75.9339 351.856 75.6456C352.022 75.3572 352.105 75.054 352.105 74.7358V73.6619C352.055 73.7216 351.946 73.7763 351.777 73.826C351.611 73.8724 351.419 73.9138 351.2 73.9503C350.984 73.9834 350.774 74.0133 350.569 74.0398C350.366 74.063 350.202 74.0829 350.076 74.0994C349.771 74.1392 349.486 74.2038 349.221 74.2933C348.959 74.3795 348.747 74.5104 348.585 74.6861C348.426 74.8584 348.346 75.0937 348.346 75.392C348.346 75.7997 348.497 76.108 348.799 76.3168C349.104 76.5223 349.49 76.625 349.957 76.625ZM356.593 72.9062V77.5H355.42V69.8636H356.553V71.0568H356.653C356.831 70.669 357.103 70.3575 357.468 70.1222C357.832 69.8835 358.303 69.7642 358.88 69.7642C359.397 69.7642 359.849 69.8703 360.237 70.0824C360.625 70.2912 360.926 70.6094 361.142 71.0369C361.357 71.4612 361.465 71.9981 361.465 72.6477V77.5H360.292V72.7273C360.292 72.1274 360.136 71.66 359.824 71.3253C359.513 70.9872 359.085 70.8182 358.542 70.8182C358.167 70.8182 357.832 70.8994 357.537 71.0618C357.246 71.2242 357.015 71.4612 356.846 71.7727C356.677 72.0843 356.593 72.4621 356.593 72.9062ZM366.691 80.5227C366.125 80.5227 365.637 80.4498 365.23 80.304C364.822 80.1615 364.482 79.9725 364.211 79.7372C363.942 79.5052 363.728 79.2566 363.569 78.9915L364.504 78.3352C364.61 78.4744 364.744 78.6335 364.907 78.8125C365.069 78.9948 365.291 79.1522 365.573 79.2848C365.858 79.4207 366.231 79.4886 366.691 79.4886C367.308 79.4886 367.817 79.3395 368.218 79.0412C368.619 78.7429 368.819 78.2756 368.819 77.6392V76.0881H368.72C368.634 76.2273 368.511 76.3996 368.352 76.6051C368.196 76.8073 367.971 76.9879 367.676 77.147C367.384 77.3028 366.99 77.3807 366.493 77.3807C365.876 77.3807 365.323 77.2348 364.832 76.9432C364.345 76.6515 363.959 76.2273 363.674 75.6705C363.392 75.1136 363.251 74.4375 363.251 73.642C363.251 72.8598 363.389 72.1787 363.664 71.5987C363.939 71.0154 364.322 70.5646 364.812 70.2464C365.303 69.925 365.869 69.7642 366.512 69.7642C367.01 69.7642 367.404 69.8471 367.696 70.0128C367.991 70.1752 368.216 70.3608 368.372 70.5696C368.531 70.7751 368.654 70.9441 368.74 71.0767H368.859V69.8636H369.993V77.7188C369.993 78.375 369.843 78.9086 369.545 79.3196C369.25 79.7339 368.852 80.0372 368.352 80.2294C367.855 80.425 367.301 80.5227 366.691 80.5227ZM366.652 76.3267C367.122 76.3267 367.52 76.219 367.845 76.0036C368.17 75.7881 368.417 75.4782 368.586 75.0739C368.755 74.6695 368.839 74.1856 368.839 73.6222C368.839 73.072 368.756 72.5864 368.591 72.1655C368.425 71.7446 368.18 71.4148 367.855 71.1761C367.53 70.9375 367.129 70.8182 366.652 70.8182C366.154 70.8182 365.74 70.9441 365.409 71.196C365.081 71.4479 364.834 71.786 364.668 72.2102C364.506 72.6345 364.424 73.1051 364.424 73.6222C364.424 74.1525 364.507 74.6214 364.673 75.0291C364.842 75.4335 365.091 75.7517 365.419 75.9837C365.75 76.2124 366.161 76.3267 366.652 76.3267ZM375.342 77.6591C374.606 77.6591 373.971 77.4967 373.438 77.1719C372.908 76.8438 372.498 76.3864 372.21 75.7997C371.925 75.2098 371.782 74.5237 371.782 73.7415C371.782 72.9593 371.925 72.2699 372.21 71.6733C372.498 71.0734 372.899 70.6061 373.413 70.2713C373.93 69.9332 374.533 69.7642 375.223 69.7642C375.62 69.7642 376.013 69.8305 376.401 69.9631C376.789 70.0956 377.142 70.3111 377.46 70.6094C377.778 70.9044 378.032 71.2955 378.221 71.7827C378.409 72.2699 378.504 72.8698 378.504 73.5824V74.0795H372.618V73.0653H377.311C377.311 72.6345 377.225 72.25 377.052 71.9119C376.883 71.5739 376.641 71.3071 376.326 71.1115C376.015 70.916 375.647 70.8182 375.223 70.8182C374.755 70.8182 374.351 70.9342 374.01 71.1662C373.672 71.3949 373.411 71.6932 373.229 72.0611C373.047 72.429 372.956 72.8234 372.956 73.2443V73.9205C372.956 74.4972 373.055 74.986 373.254 75.3871C373.456 75.7848 373.736 76.0881 374.094 76.2969C374.452 76.5024 374.868 76.6051 375.342 76.6051C375.65 76.6051 375.929 76.562 376.177 76.4759C376.429 76.3864 376.646 76.2538 376.828 76.0781C377.011 75.8991 377.152 75.6771 377.251 75.4119L378.385 75.7301C378.265 76.1146 378.065 76.4527 377.783 76.7443C377.501 77.0327 377.153 77.258 376.739 77.4205C376.325 77.5795 375.859 77.6591 375.342 77.6591Z" fill="#1576B6"/>
<path d="M44.6165 126.141V124.818H52.4964V126.141H49.3196V135H47.7884V126.141H44.6165ZM54.1184 135V127.364H55.6049V135H54.1184ZM54.8691 126.185C54.6106 126.185 54.3886 126.099 54.2029 125.927C54.0207 125.751 53.9295 125.542 53.9295 125.3C53.9295 125.055 54.0207 124.846 54.2029 124.674C54.3886 124.498 54.6106 124.411 54.8691 124.411C55.1277 124.411 55.3481 124.498 55.5304 124.674C55.716 124.846 55.8088 125.055 55.8088 125.3C55.8088 125.542 55.716 125.751 55.5304 125.927C55.3481 126.099 55.1277 126.185 54.8691 126.185ZM57.6048 135V127.364H59.0316V128.607H59.1261C59.2852 128.186 59.5453 127.857 59.9066 127.622C60.2679 127.384 60.7004 127.264 61.2042 127.264C61.7146 127.264 62.1422 127.384 62.4869 127.622C62.8349 127.861 63.0917 128.189 63.2575 128.607H63.337C63.5193 128.199 63.8093 127.874 64.207 127.632C64.6048 127.387 65.0787 127.264 65.6289 127.264C66.3216 127.264 66.8867 127.481 67.3242 127.915C67.765 128.35 67.9854 129.004 67.9854 129.879V135H66.4989V130.018C66.4989 129.501 66.3581 129.127 66.0763 128.895C65.7946 128.663 65.4582 128.547 65.0671 128.547C64.5832 128.547 64.207 128.696 63.9386 128.994C63.6701 129.289 63.5359 129.669 63.5359 130.133V135H62.0543V129.924C62.0543 129.51 61.9251 129.177 61.6665 128.925C61.408 128.673 61.0716 128.547 60.6573 128.547C60.3756 128.547 60.1154 128.621 59.8768 128.771C59.6415 128.916 59.4509 129.12 59.305 129.382C59.1625 129.644 59.0913 129.947 59.0913 130.292V135H57.6048ZM73.269 135.154C72.5166 135.154 71.8687 134.993 71.3251 134.672C70.7849 134.347 70.3672 133.891 70.0723 133.305C69.7806 132.715 69.6348 132.024 69.6348 131.232C69.6348 130.449 69.7806 129.76 70.0723 129.163C70.3672 128.567 70.7782 128.101 71.3052 127.766C71.8355 127.432 72.4553 127.264 73.1646 127.264C73.5955 127.264 74.0131 127.335 74.4174 127.478C74.8218 127.621 75.1847 127.844 75.5062 128.149C75.8277 128.454 76.0813 128.85 76.2669 129.337C76.4525 129.821 76.5453 130.41 76.5453 131.102V131.629H70.475V130.516H75.0886C75.0886 130.125 75.0091 129.778 74.85 129.477C74.6909 129.172 74.4672 128.931 74.1788 128.756C73.8938 128.58 73.559 128.492 73.1745 128.492C72.7569 128.492 72.3923 128.595 72.0808 128.8C71.7725 129.003 71.5339 129.268 71.3649 129.596C71.1992 129.921 71.1163 130.274 71.1163 130.655V131.525C71.1163 132.035 71.2058 132.469 71.3848 132.827C71.5671 133.185 71.8206 133.459 72.1454 133.648C72.4702 133.833 72.8497 133.926 73.2839 133.926C73.5656 133.926 73.8225 133.886 74.0545 133.807C74.2865 133.724 74.487 133.601 74.6561 133.439C74.8251 133.277 74.9544 133.076 75.0439 132.837L76.4508 133.091C76.3381 133.505 76.1359 133.868 75.8443 134.18C75.5559 134.488 75.193 134.728 74.7555 134.901C74.3213 135.07 73.8258 135.154 73.269 135.154ZM81.7406 135V133.981L85.877 128.726V128.656H81.8748V127.364H87.7314V128.447L83.7541 133.638V133.707H87.8706V135H81.7406ZM92.6222 135.154C91.9063 135.154 91.2815 134.99 90.7479 134.662C90.2143 134.334 89.8 133.875 89.505 133.285C89.21 132.695 89.0625 132.005 89.0625 131.217C89.0625 130.424 89.21 129.732 89.505 129.138C89.8 128.545 90.2143 128.085 90.7479 127.756C91.2815 127.428 91.9063 127.264 92.6222 127.264C93.3381 127.264 93.9628 127.428 94.4964 127.756C95.0301 128.085 95.4444 128.545 95.7393 129.138C96.0343 129.732 96.1818 130.424 96.1818 131.217C96.1818 132.005 96.0343 132.695 95.7393 133.285C95.4444 133.875 95.0301 134.334 94.4964 134.662C93.9628 134.99 93.3381 135.154 92.6222 135.154ZM92.6271 133.906C93.0911 133.906 93.4756 133.784 93.7805 133.538C94.0855 133.293 94.3108 132.967 94.4567 132.559C94.6058 132.151 94.6804 131.702 94.6804 131.212C94.6804 130.724 94.6058 130.277 94.4567 129.869C94.3108 129.458 94.0855 129.129 93.7805 128.88C93.4756 128.631 93.0911 128.507 92.6271 128.507C92.1598 128.507 91.772 128.631 91.4638 128.88C91.1589 129.129 90.9318 129.458 90.7827 129.869C90.6368 130.277 90.5639 130.724 90.5639 131.212C90.5639 131.702 90.6368 132.151 90.7827 132.559C90.9318 132.967 91.1589 133.293 91.4638 133.538C91.772 133.784 92.1598 133.906 92.6271 133.906ZM99.3276 130.466V135H97.8411V127.364H99.2679V128.607H99.3624C99.5381 128.202 99.8132 127.877 100.188 127.632C100.566 127.387 101.041 127.264 101.615 127.264C102.135 127.264 102.591 127.374 102.982 127.592C103.373 127.808 103.676 128.129 103.892 128.557C104.107 128.984 104.215 129.513 104.215 130.143V135H102.728V130.322C102.728 129.768 102.584 129.336 102.296 129.024C102.007 128.709 101.611 128.552 101.107 128.552C100.763 128.552 100.456 128.626 100.188 128.776C99.9225 128.925 99.7121 129.143 99.5563 129.432C99.4038 129.717 99.3276 130.062 99.3276 130.466ZM109.499 135.154C108.747 135.154 108.099 134.993 107.556 134.672C107.015 134.347 106.598 133.891 106.303 133.305C106.011 132.715 105.865 132.024 105.865 131.232C105.865 130.449 106.011 129.76 106.303 129.163C106.598 128.567 107.009 128.101 107.536 127.766C108.066 127.432 108.686 127.264 109.395 127.264C109.826 127.264 110.244 127.335 110.648 127.478C111.052 127.621 111.415 127.844 111.737 128.149C112.058 128.454 112.312 128.85 112.497 129.337C112.683 129.821 112.776 130.41 112.776 131.102V131.629H106.705V130.516H111.319C111.319 130.125 111.24 129.778 111.08 129.477C110.921 129.172 110.698 128.931 110.409 128.756C110.124 128.58 109.789 128.492 109.405 128.492C108.987 128.492 108.623 128.595 108.311 128.8C108.003 129.003 107.764 129.268 107.595 129.596C107.43 129.921 107.347 130.274 107.347 130.655V131.525C107.347 132.035 107.436 132.469 107.615 132.827C107.798 133.185 108.051 133.459 108.376 133.648C108.701 133.833 109.08 133.926 109.514 133.926C109.796 133.926 110.053 133.886 110.285 133.807C110.517 133.724 110.718 133.601 110.887 133.439C111.056 133.277 111.185 133.076 111.274 132.837L112.681 133.091C112.569 133.505 112.366 133.868 112.075 134.18C111.786 134.488 111.423 134.728 110.986 134.901C110.552 135.07 110.056 135.154 109.499 135.154Z" fill="#21201D"/>
<path d="M50 147.5H206C209.038 147.5 211.5 149.962 211.5 153V177C211.5 180.038 209.038 182.5 206 182.5H50C46.9624 182.5 44.5 180.038 44.5 177V153C44.5 149.962 46.9624 147.5 50 147.5Z" fill="white"/>
<path d="M50 147.5H206C209.038 147.5 211.5 149.962 211.5 153V177C211.5 180.038 209.038 182.5 206 182.5H50C46.9624 182.5 44.5 180.038 44.5 177V153C44.5 149.962 46.9624 147.5 50 147.5Z" stroke="#E9E8E6"/>
<path d="M65.4261 163H64.1932C64.1203 162.645 63.9927 162.334 63.8104 162.065C63.6314 161.797 63.4126 161.571 63.1541 161.389C62.8989 161.204 62.6155 161.064 62.304 160.972C61.9924 160.879 61.6676 160.832 61.3295 160.832C60.7131 160.832 60.1546 160.988 59.6541 161.3C59.157 161.611 58.7609 162.07 58.4659 162.677C58.1742 163.283 58.0284 164.027 58.0284 164.909C58.0284 165.791 58.1742 166.535 58.4659 167.141C58.7609 167.748 59.157 168.207 59.6541 168.518C60.1546 168.83 60.7131 168.986 61.3295 168.986C61.6676 168.986 61.9924 168.939 62.304 168.847C62.6155 168.754 62.8989 168.616 63.1541 168.434C63.4126 168.248 63.6314 168.021 63.8104 167.753C63.9927 167.481 64.1203 167.17 64.1932 166.818H65.4261C65.3333 167.339 65.1643 167.804 64.919 168.215C64.6738 168.626 64.3688 168.976 64.0043 169.264C63.6397 169.549 63.2304 169.766 62.7763 169.915C62.3255 170.065 61.8433 170.139 61.3295 170.139C60.4612 170.139 59.6889 169.927 59.0128 169.503C58.3366 169.079 57.8047 168.475 57.4169 167.693C57.0291 166.911 56.8352 165.983 56.8352 164.909C56.8352 163.835 57.0291 162.907 57.4169 162.125C57.8047 161.343 58.3366 160.74 59.0128 160.315C59.6889 159.891 60.4612 159.679 61.3295 159.679C61.8433 159.679 62.3255 159.754 62.7763 159.903C63.2304 160.052 63.6397 160.271 64.0043 160.559C64.3688 160.844 64.6738 161.192 64.919 161.603C65.1643 162.011 65.3333 162.476 65.4261 163ZM72.9867 162.364C72.927 161.86 72.6851 161.469 72.2608 161.19C71.8366 160.912 71.3162 160.773 70.6998 160.773C70.249 160.773 69.8546 160.846 69.5165 160.991C69.1818 161.137 68.9199 161.338 68.731 161.593C68.5454 161.848 68.4526 162.138 68.4526 162.463C68.4526 162.735 68.5172 162.969 68.6465 163.164C68.7791 163.356 68.9481 163.517 69.1536 163.646C69.3591 163.772 69.5745 163.877 69.7999 163.96C70.0253 164.039 70.2324 164.104 70.4213 164.153L71.4554 164.432C71.7206 164.501 72.0156 164.598 72.3404 164.72C72.6685 164.843 72.9817 165.01 73.28 165.222C73.5816 165.431 73.8302 165.7 74.0257 166.028C74.2213 166.356 74.3191 166.759 74.3191 167.236C74.3191 167.786 74.1749 168.283 73.8865 168.727C73.6015 169.171 73.1839 169.524 72.6337 169.786C72.0868 170.048 71.4223 170.179 70.6401 170.179C69.9109 170.179 69.2795 170.061 68.7459 169.826C68.2156 169.591 67.798 169.263 67.4931 168.842C67.1915 168.421 67.0208 167.932 66.981 167.375H68.2537C68.2869 167.759 68.4161 168.078 68.6415 168.33C68.8702 168.578 69.1586 168.764 69.5066 168.886C69.8579 169.006 70.2357 169.065 70.6401 169.065C71.1107 169.065 71.5333 168.989 71.9078 168.837C72.2824 168.681 72.579 168.465 72.7978 168.19C73.0165 167.912 73.1259 167.587 73.1259 167.216C73.1259 166.878 73.0314 166.603 72.8425 166.391C72.6536 166.179 72.405 166.006 72.0968 165.874C71.7885 165.741 71.4554 165.625 71.0975 165.526L69.8446 165.168C69.0492 164.939 68.4194 164.612 67.9554 164.188C67.4914 163.764 67.2594 163.209 67.2594 162.523C67.2594 161.953 67.4135 161.455 67.7218 161.031C68.0333 160.604 68.4509 160.272 68.9746 160.037C69.5016 159.798 70.0899 159.679 70.7395 159.679C71.3958 159.679 71.9791 159.797 72.4895 160.032C72.9999 160.264 73.4043 160.582 73.7026 160.987C74.0042 161.391 74.1633 161.85 74.1799 162.364H72.9867ZM75.7894 160.912V159.818H83.4258V160.912H80.2241V170H78.9911V160.912H75.7894Z" fill="#21201D"/>
<path d="M187 168L190 171L193 168" stroke="#8E8C88" stroke-width="1.34" stroke-linecap="round" stroke-linejoin="round"/>
<path d="M187 162L190 159L193 162" stroke="#8E8C88" stroke-width="1.34" stroke-linecap="round" stroke-linejoin="round"/>
<path d="M225.119 135V124.818H228.748C229.54 124.818 230.196 124.962 230.717 125.251C231.237 125.539 231.626 125.933 231.885 126.434C232.143 126.931 232.273 127.491 232.273 128.114C232.273 128.741 232.142 129.304 231.88 129.805C231.621 130.302 231.23 130.696 230.707 130.988C230.186 131.276 229.532 131.42 228.743 131.42H226.247V130.118H228.604C229.104 130.118 229.51 130.032 229.822 129.859C230.133 129.684 230.362 129.445 230.508 129.143C230.654 128.842 230.727 128.499 230.727 128.114C230.727 127.73 230.654 127.388 230.508 127.09C230.362 126.792 230.132 126.558 229.817 126.389C229.505 126.22 229.094 126.136 228.584 126.136H226.655V135H225.119ZM235.441 130.466V135H233.954V124.818H235.421V128.607H235.515C235.694 128.196 235.968 127.869 236.336 127.627C236.704 127.385 237.184 127.264 237.778 127.264C238.301 127.264 238.759 127.372 239.15 127.587C239.544 127.803 239.849 128.124 240.064 128.552C240.283 128.976 240.393 129.506 240.393 130.143V135H238.906V130.322C238.906 129.762 238.762 129.327 238.474 129.019C238.185 128.708 237.784 128.552 237.27 128.552C236.919 128.552 236.604 128.626 236.326 128.776C236.051 128.925 235.834 129.143 235.675 129.432C235.519 129.717 235.441 130.062 235.441 130.466ZM245.593 135.154C244.877 135.154 244.252 134.99 243.719 134.662C243.185 134.334 242.771 133.875 242.476 133.285C242.181 132.695 242.033 132.005 242.033 131.217C242.033 130.424 242.181 129.732 242.476 129.138C242.771 128.545 243.185 128.085 243.719 127.756C244.252 127.428 244.877 127.264 245.593 127.264C246.309 127.264 246.934 127.428 247.467 127.756C248.001 128.085 248.415 128.545 248.71 129.138C249.005 129.732 249.153 130.424 249.153 131.217C249.153 132.005 249.005 132.695 248.71 133.285C248.415 133.875 248.001 134.334 247.467 134.662C246.934 134.99 246.309 135.154 245.593 135.154ZM245.598 133.906C246.062 133.906 246.446 133.784 246.751 133.538C247.056 133.293 247.282 132.967 247.427 132.559C247.577 132.151 247.651 131.702 247.651 131.212C247.651 130.724 247.577 130.277 247.427 129.869C247.282 129.458 247.056 129.129 246.751 128.88C246.446 128.631 246.062 128.507 245.598 128.507C245.131 128.507 244.743 128.631 244.434 128.88C244.13 129.129 243.903 129.458 243.753 129.869C243.608 130.277 243.535 130.724 243.535 131.212C243.535 131.702 243.608 132.151 243.753 132.559C243.903 132.967 244.13 133.293 244.434 133.538C244.743 133.784 245.131 133.906 245.598 133.906ZM252.298 130.466V135H250.812V127.364H252.239V128.607H252.333C252.509 128.202 252.784 127.877 253.158 127.632C253.536 127.387 254.012 127.264 254.585 127.264C255.106 127.264 255.561 127.374 255.952 127.592C256.344 127.808 256.647 128.129 256.862 128.557C257.078 128.984 257.185 129.513 257.185 130.143V135H255.699V130.322C255.699 129.768 255.555 129.336 255.266 129.024C254.978 128.709 254.582 128.552 254.078 128.552C253.733 128.552 253.427 128.626 253.158 128.776C252.893 128.925 252.683 129.143 252.527 129.432C252.375 129.717 252.298 130.062 252.298 130.466ZM262.47 135.154C261.718 135.154 261.07 134.993 260.526 134.672C259.986 134.347 259.568 133.891 259.273 133.305C258.982 132.715 258.836 132.024 258.836 131.232C258.836 130.449 258.982 129.76 259.273 129.163C259.568 128.567 259.979 128.101 260.506 127.766C261.037 127.432 261.656 127.264 262.366 127.264C262.797 127.264 263.214 127.335 263.619 127.478C264.023 127.621 264.386 127.844 264.707 128.149C265.029 128.454 265.282 128.85 265.468 129.337C265.654 129.821 265.746 130.41 265.746 131.102V131.629H259.676V130.516H264.29C264.29 130.125 264.21 129.778 264.051 129.477C263.892 129.172 263.668 128.931 263.38 128.756C263.095 128.58 262.76 128.492 262.376 128.492C261.958 128.492 261.594 128.595 261.282 128.8C260.974 129.003 260.735 129.268 260.566 129.596C260.4 129.921 260.317 130.274 260.317 130.655V131.525C260.317 132.035 260.407 132.469 260.586 132.827C260.768 133.185 261.022 133.459 261.347 133.648C261.671 133.833 262.051 133.926 262.485 133.926C262.767 133.926 263.024 133.886 263.256 133.807C263.488 133.724 263.688 133.601 263.857 133.439C264.026 133.277 264.156 133.076 264.245 132.837L265.652 133.091C265.539 133.505 265.337 133.868 265.045 134.18C264.757 134.488 264.394 134.728 263.957 134.901C263.522 135.07 263.027 135.154 262.47 135.154ZM272.587 130.466V135H271.101V127.364H272.528V128.607H272.622C272.798 128.202 273.073 127.877 273.447 127.632C273.825 127.387 274.301 127.264 274.874 127.264C275.395 127.264 275.85 127.374 276.241 127.592C276.633 127.808 276.936 128.129 277.151 128.557C277.367 128.984 277.474 129.513 277.474 130.143V135H275.988V130.322C275.988 129.768 275.844 129.336 275.555 129.024C275.267 128.709 274.871 128.552 274.367 128.552C274.022 128.552 273.716 128.626 273.447 128.776C273.182 128.925 272.972 129.143 272.816 129.432C272.664 129.717 272.587 130.062 272.587 130.466ZM284.305 131.833V127.364H285.797V135H284.335V133.678H284.256C284.08 134.085 283.798 134.425 283.411 134.697C283.026 134.965 282.547 135.099 281.974 135.099C281.483 135.099 281.049 134.992 280.671 134.776C280.297 134.558 280.002 134.234 279.786 133.807C279.574 133.379 279.468 132.851 279.468 132.221V127.364H280.955V132.042C280.955 132.562 281.099 132.977 281.387 133.285C281.675 133.593 282.05 133.747 282.511 133.747C282.789 133.747 283.066 133.678 283.341 133.538C283.619 133.399 283.85 133.189 284.032 132.907C284.218 132.625 284.309 132.267 284.305 131.833ZM287.794 135V127.364H289.221V128.607H289.316C289.475 128.186 289.735 127.857 290.096 127.622C290.457 127.384 290.89 127.264 291.394 127.264C291.904 127.264 292.332 127.384 292.676 127.622C293.024 127.861 293.281 128.189 293.447 128.607H293.526C293.709 128.199 293.999 127.874 294.396 127.632C294.794 127.387 295.268 127.264 295.818 127.264C296.511 127.264 297.076 127.481 297.514 127.915C297.954 128.35 298.175 129.004 298.175 129.879V135H296.688V130.018C296.688 129.501 296.548 129.127 296.266 128.895C295.984 128.663 295.648 128.547 295.257 128.547C294.773 128.547 294.396 128.696 294.128 128.994C293.86 129.289 293.725 129.669 293.725 130.133V135H292.244V129.924C292.244 129.51 292.115 129.177 291.856 128.925C291.597 128.673 291.261 128.547 290.847 128.547C290.565 128.547 290.305 128.621 290.066 128.771C289.831 128.916 289.64 129.12 289.494 129.382C289.352 129.644 289.281 129.947 289.281 130.292V135H287.794ZM300.287 135V124.818H301.773V128.602H301.863C301.949 128.442 302.073 128.259 302.235 128.05C302.398 127.841 302.623 127.659 302.912 127.503C303.2 127.344 303.581 127.264 304.055 127.264C304.672 127.264 305.222 127.42 305.706 127.732C306.19 128.043 306.569 128.492 306.844 129.079C307.123 129.665 307.262 130.371 307.262 131.197C307.262 132.022 307.124 132.73 306.849 133.32C306.574 133.906 306.196 134.359 305.716 134.677C305.235 134.992 304.686 135.149 304.07 135.149C303.606 135.149 303.226 135.071 302.931 134.915C302.64 134.76 302.411 134.577 302.245 134.369C302.08 134.16 301.952 133.974 301.863 133.812H301.738V135H300.287ZM301.743 131.182C301.743 131.719 301.821 132.189 301.977 132.594C302.133 132.998 302.358 133.315 302.653 133.543C302.948 133.769 303.309 133.881 303.737 133.881C304.181 133.881 304.552 133.764 304.85 133.528C305.149 133.29 305.374 132.967 305.527 132.559C305.682 132.151 305.76 131.692 305.76 131.182C305.76 130.678 305.684 130.226 305.532 129.825C305.382 129.424 305.157 129.107 304.855 128.875C304.557 128.643 304.184 128.527 303.737 128.527C303.306 128.527 302.941 128.638 302.643 128.86C302.348 129.082 302.124 129.392 301.972 129.79C301.819 130.187 301.743 130.652 301.743 131.182ZM312.222 135.154C311.47 135.154 310.822 134.993 310.278 134.672C309.738 134.347 309.32 133.891 309.025 133.305C308.734 132.715 308.588 132.024 308.588 131.232C308.588 130.449 308.734 129.76 309.025 129.163C309.32 128.567 309.731 128.101 310.258 127.766C310.789 127.432 311.408 127.264 312.118 127.264C312.549 127.264 312.966 127.335 313.371 127.478C313.775 127.621 314.138 127.844 314.459 128.149C314.781 128.454 315.034 128.85 315.22 129.337C315.406 129.821 315.498 130.41 315.498 131.102V131.629H309.428V130.516H314.042C314.042 130.125 313.962 129.778 313.803 129.477C313.644 129.172 313.42 128.931 313.132 128.756C312.847 128.58 312.512 128.492 312.128 128.492C311.71 128.492 311.345 128.595 311.034 128.8C310.726 129.003 310.487 129.268 310.318 129.596C310.152 129.921 310.069 130.274 310.069 130.655V131.525C310.069 132.035 310.159 132.469 310.338 132.827C310.52 133.185 310.774 133.459 311.099 133.648C311.423 133.833 311.803 133.926 312.237 133.926C312.519 133.926 312.776 133.886 313.008 133.807C313.24 133.724 313.44 133.601 313.609 133.439C313.778 133.277 313.907 133.076 313.997 132.837L315.404 133.091C315.291 133.505 315.089 133.868 314.797 134.18C314.509 134.488 314.146 134.728 313.709 134.901C313.274 135.07 312.779 135.154 312.222 135.154ZM317.148 135V127.364H318.585V128.577H318.664C318.803 128.166 319.049 127.843 319.4 127.607C319.754 127.369 320.156 127.249 320.603 127.249C320.696 127.249 320.805 127.253 320.931 127.259C321.06 127.266 321.161 127.274 321.234 127.284V128.706C321.175 128.689 321.069 128.671 320.916 128.651C320.764 128.628 320.611 128.616 320.459 128.616C320.107 128.616 319.794 128.691 319.519 128.84C319.247 128.986 319.032 129.19 318.873 129.452C318.714 129.71 318.634 130.005 318.634 130.337V135H317.148Z" fill="#21201D"/>
<path d="M230 147.5H386C389.038 147.5 391.5 149.962 391.5 153V177C391.5 180.038 389.038 182.5 386 182.5H230C226.962 182.5 224.5 180.038 224.5 177V153C224.5 149.962 226.962 147.5 230 147.5Z" fill="white"/>
<path d="M230 147.5H386C389.038 147.5 391.5 149.962 391.5 153V177C391.5 180.038 389.038 182.5 386 182.5H230C226.962 182.5 224.5 180.038 224.5 177V153C224.5 149.962 226.962 147.5 230 147.5Z" stroke="#E9E8E6"/>
<path d="M237.491 164.909C237.491 163.656 237.654 162.504 237.979 161.454C238.307 160.4 238.774 159.43 239.381 158.545H240.415C240.176 158.874 239.952 159.278 239.744 159.759C239.538 160.236 239.357 160.761 239.202 161.335C239.046 161.905 238.923 162.495 238.834 163.104C238.748 163.714 238.705 164.316 238.705 164.909C238.705 165.698 238.781 166.498 238.933 167.31C239.086 168.122 239.291 168.876 239.55 169.572C239.808 170.268 240.097 170.835 240.415 171.273H239.381C238.774 170.388 238.307 169.42 237.979 168.369C237.654 167.315 237.491 166.162 237.491 164.909ZM245.308 170.139C244.725 170.139 244.199 170.023 243.732 169.791C243.265 169.559 242.89 169.241 242.608 168.837C242.327 168.432 242.173 167.972 242.146 167.455H243.339C243.386 167.915 243.595 168.296 243.966 168.598C244.34 168.896 244.788 169.045 245.308 169.045C245.726 169.045 246.097 168.948 246.422 168.752C246.75 168.557 247.007 168.288 247.192 167.947C247.381 167.602 247.476 167.213 247.476 166.778C247.476 166.334 247.378 165.938 247.182 165.59C246.99 165.239 246.725 164.962 246.387 164.76C246.049 164.558 245.663 164.455 245.229 164.452C244.917 164.448 244.597 164.496 244.269 164.596C243.941 164.692 243.671 164.816 243.459 164.969L242.305 164.83L242.922 159.818H248.211V160.912H243.956L243.598 163.915H243.657C243.866 163.749 244.128 163.612 244.443 163.502C244.758 163.393 245.086 163.338 245.427 163.338C246.05 163.338 246.606 163.487 247.093 163.786C247.583 164.08 247.968 164.485 248.246 164.999C248.528 165.512 248.669 166.099 248.669 166.759C248.669 167.408 248.523 167.988 248.231 168.499C247.943 169.006 247.545 169.407 247.038 169.702C246.531 169.993 245.954 170.139 245.308 170.139ZM253.826 170.139C253.242 170.139 252.717 170.023 252.25 169.791C251.782 169.559 251.408 169.241 251.126 168.837C250.844 168.432 250.69 167.972 250.664 167.455H251.857C251.903 167.915 252.112 168.296 252.483 168.598C252.858 168.896 253.305 169.045 253.826 169.045C254.243 169.045 254.614 168.948 254.939 168.752C255.267 168.557 255.524 168.288 255.71 167.947C255.899 167.602 255.993 167.213 255.993 166.778C255.993 166.334 255.895 165.938 255.7 165.59C255.508 165.239 255.243 164.962 254.904 164.76C254.566 164.558 254.18 164.455 253.746 164.452C253.435 164.448 253.115 164.496 252.787 164.596C252.458 164.692 252.188 164.816 251.976 164.969L250.823 164.83L251.439 159.818H256.729V160.912H252.473L252.115 163.915H252.175C252.384 163.749 252.646 163.612 252.961 163.502C253.275 163.393 253.604 163.338 253.945 163.338C254.568 163.338 255.123 163.487 255.61 163.786C256.101 164.08 256.485 164.485 256.764 164.999C257.046 165.512 257.186 166.099 257.186 166.759C257.186 167.408 257.041 167.988 256.749 168.499C256.461 169.006 256.063 169.407 255.556 169.702C255.049 169.993 254.472 170.139 253.826 170.139ZM262.343 170.139C261.76 170.139 261.235 170.023 260.767 169.791C260.3 169.559 259.925 169.241 259.644 168.837C259.362 168.432 259.208 167.972 259.181 167.455H260.374C260.421 167.915 260.63 168.296 261.001 168.598C261.375 168.896 261.823 169.045 262.343 169.045C262.761 169.045 263.132 168.948 263.457 168.752C263.785 168.557 264.042 168.288 264.227 167.947C264.416 167.602 264.511 167.213 264.511 166.778C264.511 166.334 264.413 165.938 264.218 165.59C264.025 165.239 263.76 164.962 263.422 164.76C263.084 164.558 262.698 164.455 262.264 164.452C261.952 164.448 261.632 164.496 261.304 164.596C260.976 164.692 260.706 164.816 260.494 164.969L259.34 164.83L259.957 159.818H265.247V160.912H260.991L260.633 163.915H260.693C260.901 163.749 261.163 163.612 261.478 163.502C261.793 163.393 262.121 163.338 262.463 163.338C263.086 163.338 263.641 163.487 264.128 163.786C264.619 164.08 265.003 164.485 265.281 164.999C265.563 165.512 265.704 166.099 265.704 166.759C265.704 167.408 265.558 167.988 265.267 168.499C264.978 169.006 264.58 169.407 264.073 169.702C263.566 169.993 262.99 170.139 262.343 170.139ZM270.205 164.909C270.205 166.162 270.04 167.315 269.712 168.369C269.388 169.42 268.922 170.388 268.315 171.273H267.281C267.52 170.945 267.742 170.54 267.947 170.06C268.156 169.582 268.339 169.059 268.494 168.489C268.65 167.915 268.771 167.324 268.857 166.714C268.947 166.101 268.991 165.499 268.991 164.909C268.991 164.12 268.915 163.32 268.763 162.508C268.61 161.696 268.405 160.942 268.146 160.246C267.888 159.55 267.599 158.983 267.281 158.545H268.315C268.922 159.43 269.388 160.4 269.712 161.454C270.04 162.504 270.205 163.656 270.205 164.909ZM280.268 159.818V170H279.035V161.111H278.976L276.49 162.761V161.509L279.035 159.818H280.268ZM283.197 170V169.105L286.557 165.426C286.952 164.995 287.277 164.621 287.532 164.303C287.787 163.981 287.976 163.679 288.099 163.398C288.224 163.113 288.287 162.814 288.287 162.503C288.287 162.145 288.201 161.835 288.029 161.573C287.86 161.311 287.628 161.109 287.333 160.967C287.038 160.824 286.706 160.753 286.339 160.753C285.948 160.753 285.606 160.834 285.314 160.996C285.026 161.156 284.802 161.379 284.643 161.668C284.488 161.956 284.41 162.294 284.41 162.682H283.236C283.236 162.085 283.374 161.562 283.649 161.111C283.924 160.66 284.299 160.309 284.773 160.057C285.25 159.805 285.785 159.679 286.378 159.679C286.975 159.679 287.504 159.805 287.964 160.057C288.425 160.309 288.786 160.648 289.048 161.076C289.31 161.504 289.441 161.979 289.441 162.503C289.441 162.877 289.373 163.244 289.237 163.602C289.104 163.956 288.872 164.352 288.541 164.79C288.213 165.224 287.757 165.754 287.174 166.381L284.887 168.827V168.906H289.62V170H283.197ZM295.113 170.139C294.457 170.139 293.872 170.027 293.358 169.801C292.848 169.576 292.442 169.263 292.14 168.862C291.842 168.457 291.68 167.988 291.653 167.455H292.906C292.933 167.783 293.045 168.066 293.244 168.305C293.443 168.54 293.703 168.722 294.025 168.852C294.346 168.981 294.702 169.045 295.094 169.045C295.531 169.045 295.919 168.969 296.257 168.817C296.595 168.664 296.86 168.452 297.052 168.18C297.245 167.909 297.341 167.594 297.341 167.236C297.341 166.861 297.248 166.531 297.062 166.246C296.877 165.958 296.605 165.733 296.247 165.57C295.889 165.408 295.452 165.327 294.934 165.327H294.119V164.233H294.934C295.339 164.233 295.693 164.16 295.998 164.014C296.307 163.868 296.547 163.663 296.719 163.398C296.895 163.133 296.983 162.821 296.983 162.463C296.983 162.118 296.907 161.818 296.754 161.563C296.602 161.308 296.386 161.109 296.108 160.967C295.833 160.824 295.508 160.753 295.133 160.753C294.782 160.753 294.451 160.817 294.139 160.947C293.831 161.073 293.579 161.257 293.383 161.499C293.188 161.737 293.082 162.026 293.065 162.364H291.872C291.892 161.83 292.053 161.363 292.354 160.962C292.656 160.557 293.05 160.242 293.537 160.017C294.028 159.792 294.567 159.679 295.153 159.679C295.783 159.679 296.323 159.807 296.774 160.062C297.225 160.314 297.571 160.647 297.813 161.061C298.055 161.475 298.176 161.923 298.176 162.403C298.176 162.977 298.025 163.466 297.724 163.87C297.425 164.274 297.019 164.554 296.506 164.71V164.79C297.148 164.896 297.651 165.169 298.012 165.61C298.373 166.048 298.554 166.589 298.554 167.236C298.554 167.789 298.403 168.286 298.101 168.727C297.803 169.165 297.395 169.509 296.878 169.761C296.361 170.013 295.773 170.139 295.113 170.139ZM304.982 164.362V165.456H300.528V164.362H304.982ZM310.606 159.818V170H309.373V161.111H309.314L306.828 162.761V161.509L309.373 159.818H310.606ZM313.534 170V169.105L316.895 165.426C317.29 164.995 317.614 164.621 317.87 164.303C318.125 163.981 318.314 163.679 318.436 163.398C318.562 163.113 318.625 162.814 318.625 162.503C318.625 162.145 318.539 161.835 318.367 161.573C318.198 161.311 317.966 161.109 317.671 160.967C317.376 160.824 317.044 160.753 316.676 160.753C316.285 160.753 315.944 160.834 315.652 160.996C315.364 161.156 315.14 161.379 314.981 161.668C314.825 161.956 314.748 162.294 314.748 162.682H313.574C313.574 162.085 313.712 161.562 313.987 161.111C314.262 160.66 314.636 160.309 315.11 160.057C315.588 159.805 316.123 159.679 316.716 159.679C317.313 159.679 317.842 159.805 318.302 160.057C318.763 160.309 319.124 160.648 319.386 161.076C319.648 161.504 319.779 161.979 319.779 162.503C319.779 162.877 319.711 163.244 319.575 163.602C319.442 163.956 319.21 164.352 318.879 164.79C318.551 165.224 318.095 165.754 317.512 166.381L315.225 168.827V168.906H319.958V170H313.534ZM325.451 170.139C324.795 170.139 324.21 170.027 323.696 169.801C323.186 169.576 322.78 169.263 322.478 168.862C322.18 168.457 322.018 167.988 321.991 167.455H323.244C323.27 167.783 323.383 168.066 323.582 168.305C323.781 168.54 324.041 168.722 324.363 168.852C324.684 168.981 325.04 169.045 325.431 169.045C325.869 169.045 326.257 168.969 326.595 168.817C326.933 168.664 327.198 168.452 327.39 168.18C327.583 167.909 327.679 167.594 327.679 167.236C327.679 166.861 327.586 166.531 327.4 166.246C327.215 165.958 326.943 165.733 326.585 165.57C326.227 165.408 325.789 165.327 325.272 165.327H324.457V164.233H325.272C325.677 164.233 326.031 164.16 326.336 164.014C326.645 163.868 326.885 163.663 327.057 163.398C327.233 163.133 327.321 162.821 327.321 162.463C327.321 162.118 327.244 161.818 327.092 161.563C326.94 161.308 326.724 161.109 326.446 160.967C326.171 160.824 325.846 160.753 325.471 160.753C325.12 160.753 324.788 160.817 324.477 160.947C324.169 161.073 323.917 161.257 323.721 161.499C323.526 161.737 323.42 162.026 323.403 162.364H322.21C322.23 161.83 322.391 161.363 322.692 160.962C322.994 160.557 323.388 160.242 323.875 160.017C324.366 159.792 324.904 159.679 325.491 159.679C326.121 159.679 326.661 159.807 327.112 160.062C327.563 160.314 327.909 160.647 328.151 161.061C328.393 161.475 328.514 161.923 328.514 162.403C328.514 162.977 328.363 163.466 328.061 163.87C327.763 164.274 327.357 164.554 326.843 164.71V164.79C327.486 164.896 327.989 165.169 328.35 165.61C328.711 166.048 328.892 166.589 328.892 167.236C328.892 167.789 328.741 168.286 328.439 168.727C328.141 169.165 327.733 169.509 327.216 169.761C326.699 170.013 326.111 170.139 325.451 170.139ZM330.686 167.912V166.898L335.161 159.818H335.897V161.389H335.4L332.019 166.739V166.818H338.044V167.912H330.686ZM335.479 170V167.604V167.131V159.818H336.652V170H335.479Z" fill="#21201D"/>
</g>
<defs>
<filter id="filter0_d_711_23129" x="0" y="0" width="436" height="231" filterUnits="userSpaceOnUse" color-interpolation-filters="sRGB">
<feFlood flood-opacity="0" result="BackgroundImageFix"/>
<feColorMatrix in="SourceAlpha" type="matrix" values="0 0 0 0 0 0 0 0 0 0 0 0 0 0 0 0 0 0 127 0" result="hardAlpha"/>
<feOffset dy="4"/>
<feGaussianBlur stdDeviation="14"/>
<feComposite in2="hardAlpha" operator="out"/>
<feColorMatrix type="matrix" values="0 0 0 0 0 0 0 0 0 0 0 0 0 0 0 0 0 0 0.04 0"/>
<feBlend mode="normal" in2="BackgroundImageFix" result="effect1_dropShadow_711_23129"/>
<feBlend mode="normal" in="SourceGraphic" in2="effect1_dropShadow_711_23129" result="shape"/>
</filter>
</defs>
</svg>
