<svg width="438" height="220" viewBox="0 0 438 220" fill="none" xmlns="http://www.w3.org/2000/svg">
<g filter="url(#filter0_d_640_19985)">
<rect x="29" y="25" width="380" height="162" rx="8" fill="white" shape-rendering="crispEdges"/>
<rect x="28.5" y="24.5" width="381" height="163" rx="8.5" stroke="#E9E8E6" shape-rendering="crispEdges"/>
<g clip-path="url(#clip0_640_19985)">
<mask id="path-4-inside-1_640_19985" fill="white">
<path d="M29 33H409V67H29V33Z"/>
</mask>
<path d="M409 67V66H29V67V68H409V67Z" fill="#E9E8E6" mask="url(#path-4-inside-1_640_19985)"/>
<path d="M51.6719 44.4929C51.6188 44.0223 51.4001 43.6577 51.0156 43.3991C50.6312 43.1373 50.1473 43.0064 49.5639 43.0064C49.1463 43.0064 48.785 43.0727 48.4801 43.2053C48.1752 43.3345 47.9382 43.5135 47.7692 43.7422C47.6035 43.9676 47.5206 44.2244 47.5206 44.5128C47.5206 44.7547 47.5769 44.9635 47.6896 45.1392C47.8056 45.3149 47.9564 45.4624 48.142 45.5817C48.331 45.6977 48.5331 45.7955 48.7486 45.875C48.964 45.9512 49.1712 46.0142 49.37 46.0639L50.3643 46.3224C50.6892 46.402 51.0223 46.5097 51.3636 46.6456C51.705 46.7815 52.0215 46.9605 52.3132 47.1825C52.6049 47.4046 52.8402 47.6797 53.0192 48.0078C53.2015 48.3359 53.2926 48.7287 53.2926 49.1861C53.2926 49.7628 53.1435 50.2749 52.8452 50.7223C52.5502 51.1697 52.121 51.5227 51.5575 51.7812C50.9974 52.0398 50.3196 52.169 49.5241 52.169C48.7618 52.169 48.1023 52.0481 47.5455 51.8061C46.9886 51.5642 46.5528 51.2211 46.2379 50.777C45.9231 50.3295 45.7491 49.7992 45.7159 49.1861H47.2571C47.2869 49.554 47.4063 49.8606 47.6151 50.1058C47.8272 50.3478 48.0973 50.5284 48.4254 50.6477C48.7569 50.7637 49.1198 50.8217 49.5142 50.8217C49.9484 50.8217 50.3345 50.7538 50.6726 50.6179C51.014 50.4787 51.2824 50.2865 51.478 50.0412C51.6735 49.7926 51.7713 49.5026 51.7713 49.1712C51.7713 48.8696 51.6851 48.6226 51.5128 48.4304C51.3438 48.2382 51.1134 48.0791 50.8217 47.9531C50.5334 47.8272 50.2069 47.7161 49.8423 47.62L48.6392 47.2919C47.8239 47.0698 47.1776 46.7434 46.7003 46.3125C46.2263 45.8816 45.9893 45.3116 45.9893 44.6023C45.9893 44.0156 46.1484 43.5036 46.4666 43.0661C46.7848 42.6286 47.2157 42.2888 47.7592 42.0469C48.3028 41.8016 48.916 41.679 49.5987 41.679C50.2881 41.679 50.8963 41.8 51.4233 42.0419C51.9536 42.2839 52.3712 42.617 52.6761 43.0412C52.9811 43.4621 53.1402 43.946 53.1534 44.4929H51.6719ZM58.2257 52.1541C57.4866 52.1541 56.8502 51.9867 56.3166 51.652C55.7863 51.3139 55.3786 50.8482 55.0936 50.255C54.8085 49.6617 54.666 48.9822 54.666 48.2166C54.666 47.4411 54.8118 46.7566 55.1035 46.1634C55.3952 45.5668 55.8062 45.1011 56.3365 44.7663C56.8668 44.4316 57.4915 44.2642 58.2108 44.2642C58.7908 44.2642 59.3078 44.3719 59.7619 44.5874C60.216 44.7995 60.5822 45.0978 60.8606 45.4822C61.1423 45.8667 61.3097 46.3158 61.3627 46.8295H59.916C59.8365 46.4716 59.6542 46.1634 59.3691 45.9048C59.0874 45.6463 58.7096 45.517 58.2356 45.517C57.8213 45.517 57.4584 45.6264 57.1468 45.8452C56.8386 46.0606 56.5983 46.3688 56.426 46.7699C56.2536 47.1676 56.1674 47.6383 56.1674 48.1818C56.1674 48.7386 56.252 49.2192 56.421 49.6236C56.59 50.0279 56.8287 50.3411 57.1369 50.5632C57.4484 50.7853 57.8147 50.8963 58.2356 50.8963C58.5173 50.8963 58.7725 50.8449 59.0012 50.7422C59.2333 50.6361 59.4271 50.4853 59.5829 50.2898C59.742 50.0942 59.853 49.8589 59.916 49.5838H61.3627C61.3097 50.0777 61.149 50.5185 60.8805 50.9062C60.612 51.294 60.2524 51.599 59.8017 51.821C59.3542 52.0431 58.8289 52.1541 58.2257 52.1541ZM64.4389 47.4659V52H62.9524V41.8182H64.419V45.6065H64.5135C64.6925 45.1955 64.9659 44.8691 65.3338 44.6271C65.7017 44.3852 66.1823 44.2642 66.7756 44.2642C67.2992 44.2642 67.7566 44.3719 68.1477 44.5874C68.5421 44.8028 68.8471 45.1243 69.0625 45.5518C69.2812 45.9761 69.3906 46.5064 69.3906 47.1428V52H67.9041V47.3217C67.9041 46.7616 67.7599 46.3274 67.4716 46.0192C67.1832 45.7076 66.7822 45.5518 66.2685 45.5518C65.9171 45.5518 65.6023 45.6264 65.3239 45.7756C65.0488 45.9247 64.8317 46.1435 64.6726 46.4318C64.5168 46.7169 64.4389 47.0616 64.4389 47.4659ZM74.6655 52.1541C73.9131 52.1541 73.2652 51.9934 72.7216 51.6719C72.1813 51.3471 71.7637 50.8913 71.4688 50.3047C71.1771 49.7147 71.0312 49.0237 71.0312 48.2315C71.0312 47.4493 71.1771 46.7599 71.4688 46.1634C71.7637 45.5668 72.1747 45.1011 72.7017 44.7663C73.232 44.4316 73.8518 44.2642 74.5611 44.2642C74.992 44.2642 75.4096 44.3355 75.8139 44.478C76.2183 44.6205 76.5812 44.8442 76.9027 45.1491C77.2242 45.4541 77.4777 45.8501 77.6634 46.3374C77.849 46.8213 77.9418 47.4096 77.9418 48.1023V48.6293H71.8714V47.5156H76.4851C76.4851 47.1245 76.4055 46.7782 76.2464 46.4766C76.0874 46.1716 75.8636 45.9313 75.5753 45.7557C75.2902 45.58 74.9555 45.4922 74.571 45.4922C74.1534 45.4922 73.7888 45.5949 73.4773 45.8004C73.169 46.0026 72.9304 46.2678 72.7614 46.5959C72.5956 46.9207 72.5128 47.2737 72.5128 47.6548V48.5249C72.5128 49.0353 72.6023 49.4695 72.7812 49.8274C72.9635 50.1854 73.2171 50.4588 73.5419 50.6477C73.8667 50.8333 74.2462 50.9261 74.6804 50.9261C74.9621 50.9261 75.219 50.8864 75.451 50.8068C75.683 50.724 75.8835 50.6013 76.0526 50.4389C76.2216 50.2765 76.3509 50.076 76.4403 49.8374L77.8473 50.0909C77.7346 50.5052 77.5324 50.8681 77.2408 51.1797C76.9524 51.4879 76.5895 51.7282 76.152 51.9006C75.7178 52.0696 75.2223 52.1541 74.6655 52.1541ZM82.4498 52.1491C81.8333 52.1491 81.2831 51.9917 80.7992 51.6768C80.3186 51.3587 79.9408 50.9062 79.6657 50.3196C79.3939 49.7296 79.258 49.022 79.258 48.1967C79.258 47.3714 79.3955 46.6655 79.6706 46.0788C79.949 45.4922 80.3302 45.0431 80.8141 44.7315C81.298 44.42 81.8465 44.2642 82.4597 44.2642C82.9337 44.2642 83.3148 44.3438 83.6032 44.5028C83.8948 44.6586 84.1202 44.8409 84.2793 45.0497C84.4417 45.2585 84.5676 45.4425 84.6571 45.6016H84.7466V41.8182H86.2331V52H84.7814V50.8118H84.6571C84.5676 50.9742 84.4384 51.1598 84.2694 51.3686C84.1036 51.5774 83.8749 51.7597 83.5833 51.9155C83.2916 52.0713 82.9138 52.1491 82.4498 52.1491ZM82.7779 50.8814C83.2054 50.8814 83.5667 50.7687 83.8617 50.5433C84.16 50.3146 84.3854 49.9981 84.5378 49.5938C84.6936 49.1894 84.7715 48.7187 84.7715 48.1818C84.7715 47.6515 84.6953 47.1875 84.5428 46.7898C84.3903 46.392 84.1666 46.0821 83.8716 45.8601C83.5766 45.638 83.2121 45.527 82.7779 45.527C82.3304 45.527 81.9576 45.643 81.6593 45.875C81.361 46.107 81.1356 46.4235 80.9831 46.8246C80.834 47.2256 80.7594 47.678 80.7594 48.1818C80.7594 48.6922 80.8356 49.1513 80.9881 49.5589C81.1406 49.9666 81.3659 50.2898 81.6642 50.5284C81.9658 50.7637 82.3371 50.8814 82.7779 50.8814ZM93.1921 48.8331V44.3636H94.6836V52H93.2219V50.6776H93.1424C92.9667 51.0852 92.685 51.425 92.2972 51.6967C91.9128 51.9652 91.4338 52.0994 90.8604 52.0994C90.3699 52.0994 89.9357 51.9917 89.5579 51.7763C89.1834 51.5575 88.8884 51.2344 88.6729 50.8068C88.4608 50.3793 88.3548 49.8506 88.3548 49.2209V44.3636H89.8413V49.0419C89.8413 49.5623 89.9854 49.9766 90.2738 50.2848C90.5621 50.593 90.9367 50.7472 91.3974 50.7472C91.6758 50.7472 91.9525 50.6776 92.2276 50.5384C92.506 50.3991 92.7364 50.1887 92.9187 49.907C93.1043 49.6252 93.1954 49.2673 93.1921 48.8331ZM98.1674 41.8182V52H96.6809V41.8182H98.1674ZM100.167 52V44.3636H101.654V52H100.167ZM100.918 43.1854C100.659 43.1854 100.437 43.0992 100.252 42.9268C100.069 42.7512 99.9783 42.5424 99.9783 42.3004C99.9783 42.0552 100.069 41.8464 100.252 41.674C100.437 41.4983 100.659 41.4105 100.918 41.4105C101.176 41.4105 101.397 41.4983 101.579 41.674C101.765 41.8464 101.858 42.0552 101.858 42.3004C101.858 42.5424 101.765 42.7512 101.579 42.9268C101.397 43.0992 101.176 43.1854 100.918 43.1854ZM105.14 47.4659V52H103.654V44.3636H105.08V45.6065H105.175C105.351 45.2022 105.626 44.8774 106 44.6321C106.378 44.3868 106.854 44.2642 107.427 44.2642C107.947 44.2642 108.403 44.3736 108.794 44.5923C109.185 44.8078 109.489 45.1293 109.704 45.5568C109.919 45.9844 110.027 46.513 110.027 47.1428V52H108.541V47.3217C108.541 46.7682 108.396 46.3357 108.108 46.0241C107.82 45.7093 107.424 45.5518 106.92 45.5518C106.575 45.5518 106.269 45.6264 106 45.7756C105.735 45.9247 105.525 46.1435 105.369 46.4318C105.216 46.7169 105.14 47.0616 105.14 47.4659ZM115.222 55.0227C114.616 55.0227 114.094 54.9432 113.656 54.7841C113.222 54.625 112.868 54.4145 112.593 54.1527C112.317 53.8909 112.112 53.6042 111.976 53.2926L113.254 52.7656C113.343 52.9115 113.463 53.0656 113.612 53.228C113.764 53.3937 113.97 53.5346 114.228 53.6506C114.49 53.7666 114.826 53.8246 115.237 53.8246C115.801 53.8246 116.267 53.687 116.634 53.4119C117.002 53.1402 117.186 52.706 117.186 52.1094V50.608H117.092C117.002 50.7704 116.873 50.951 116.704 51.1499C116.538 51.3487 116.31 51.5211 116.018 51.6669C115.726 51.8127 115.347 51.8857 114.879 51.8857C114.276 51.8857 113.733 51.7448 113.249 51.4631C112.768 51.178 112.387 50.7588 112.105 50.2053C111.827 49.6484 111.688 48.964 111.688 48.152C111.688 47.34 111.825 46.6439 112.1 46.0639C112.379 45.4839 112.76 45.0398 113.244 44.7315C113.728 44.42 114.276 44.2642 114.889 44.2642C115.363 44.2642 115.746 44.3438 116.038 44.5028C116.329 44.6586 116.557 44.8409 116.719 45.0497C116.885 45.2585 117.012 45.4425 117.102 45.6016H117.211V44.3636H118.668V52.169C118.668 52.8253 118.515 53.3639 118.21 53.7848C117.905 54.2057 117.493 54.5173 116.972 54.7195C116.455 54.9216 115.872 55.0227 115.222 55.0227ZM115.208 50.6527C115.635 50.6527 115.996 50.5533 116.291 50.3544C116.59 50.1522 116.815 49.8639 116.968 49.4893C117.123 49.1115 117.201 48.6591 117.201 48.1321C117.201 47.6184 117.125 47.166 116.972 46.7749C116.82 46.3838 116.596 46.0788 116.301 45.8601C116.006 45.638 115.642 45.527 115.208 45.527C114.76 45.527 114.387 45.643 114.089 45.875C113.791 46.1037 113.565 46.4152 113.413 46.8097C113.264 47.2041 113.189 47.6449 113.189 48.1321C113.189 48.6326 113.265 49.0717 113.418 49.4496C113.57 49.8274 113.796 50.1224 114.094 50.3345C114.396 50.5466 114.767 50.6527 115.208 50.6527Z" fill="#6A3CDF"/>
<rect width="75" height="2" transform="translate(45 65)" fill="#6A3CDF"/>
<path d="M139.119 41.8182H140.983L144.224 49.733H144.344L147.585 41.8182H149.45V52H147.988V44.6321H147.893L144.891 51.9851H143.678L140.675 44.6271H140.58V52H139.119V41.8182ZM154.855 52.1541C154.103 52.1541 153.455 51.9934 152.911 51.6719C152.371 51.3471 151.953 50.8913 151.658 50.3047C151.367 49.7147 151.221 49.0237 151.221 48.2315C151.221 47.4493 151.367 46.7599 151.658 46.1634C151.953 45.5668 152.364 45.1011 152.891 44.7663C153.421 44.4316 154.041 44.2642 154.751 44.2642C155.181 44.2642 155.599 44.3355 156.003 44.478C156.408 44.6205 156.771 44.8442 157.092 45.1491C157.414 45.4541 157.667 45.8501 157.853 46.3374C158.038 46.8213 158.131 47.4096 158.131 48.1023V48.6293H152.061V47.5156H156.675C156.675 47.1245 156.595 46.7782 156.436 46.4766C156.277 46.1716 156.053 45.9313 155.765 45.7557C155.48 45.58 155.145 45.4922 154.76 45.4922C154.343 45.4922 153.978 45.5949 153.667 45.8004C153.358 46.0026 153.12 46.2678 152.951 46.5959C152.785 46.9207 152.702 47.2737 152.702 47.6548V48.5249C152.702 49.0353 152.792 49.4695 152.971 49.8274C153.153 50.1854 153.407 50.4588 153.731 50.6477C154.056 50.8333 154.436 50.9261 154.87 50.9261C155.152 50.9261 155.408 50.8864 155.64 50.8068C155.872 50.724 156.073 50.6013 156.242 50.4389C156.411 50.2765 156.54 50.076 156.63 49.8374L158.037 50.0909C157.924 50.5052 157.722 50.8681 157.43 51.1797C157.142 51.4879 156.779 51.7282 156.341 51.9006C155.907 52.0696 155.412 52.1541 154.855 52.1541ZM162.639 52.1491C162.023 52.1491 161.473 51.9917 160.989 51.6768C160.508 51.3587 160.13 50.9062 159.855 50.3196C159.583 49.7296 159.447 49.022 159.447 48.1967C159.447 47.3714 159.585 46.6655 159.86 46.0788C160.138 45.4922 160.52 45.0431 161.004 44.7315C161.487 44.42 162.036 44.2642 162.649 44.2642C163.123 44.2642 163.504 44.3438 163.793 44.5028C164.084 44.6586 164.31 44.8409 164.469 45.0497C164.631 45.2585 164.757 45.4425 164.847 45.6016H164.936V41.8182H166.423V52H164.971V50.8118H164.847C164.757 50.9742 164.628 51.1598 164.459 51.3686C164.293 51.5774 164.064 51.7597 163.773 51.9155C163.481 52.0713 163.103 52.1491 162.639 52.1491ZM162.967 50.8814C163.395 50.8814 163.756 50.7687 164.051 50.5433C164.349 50.3146 164.575 49.9981 164.727 49.5938C164.883 49.1894 164.961 48.7187 164.961 48.1818C164.961 47.6515 164.885 47.1875 164.732 46.7898C164.58 46.392 164.356 46.0821 164.061 45.8601C163.766 45.638 163.402 45.527 162.967 45.527C162.52 45.527 162.147 45.643 161.849 45.875C161.55 46.107 161.325 46.4235 161.173 46.8246C161.023 47.2256 160.949 47.678 160.949 48.1818C160.949 48.6922 161.025 49.1513 161.178 49.5589C161.33 49.9666 161.555 50.2898 161.854 50.5284C162.155 50.7637 162.527 50.8814 162.967 50.8814ZM168.544 52V44.3636H170.031V52H168.544ZM169.295 43.1854C169.036 43.1854 168.814 43.0992 168.629 42.9268C168.446 42.7512 168.355 42.5424 168.355 42.3004C168.355 42.0552 168.446 41.8464 168.629 41.674C168.814 41.4983 169.036 41.4105 169.295 41.4105C169.553 41.4105 169.774 41.4983 169.956 41.674C170.142 41.8464 170.235 42.0552 170.235 42.3004C170.235 42.5424 170.142 42.7512 169.956 42.9268C169.774 43.0992 169.553 43.1854 169.295 43.1854ZM175.247 52.1541C174.508 52.1541 173.872 51.9867 173.338 51.652C172.808 51.3139 172.4 50.8482 172.115 50.255C171.83 49.6617 171.688 48.9822 171.688 48.2166C171.688 47.4411 171.833 46.7566 172.125 46.1634C172.417 45.5668 172.828 45.1011 173.358 44.7663C173.888 44.4316 174.513 44.2642 175.232 44.2642C175.812 44.2642 176.329 44.3719 176.783 44.5874C177.237 44.7995 177.604 45.0978 177.882 45.4822C178.164 45.8667 178.331 46.3158 178.384 46.8295H176.938C176.858 46.4716 176.676 46.1634 176.391 45.9048C176.109 45.6463 175.731 45.517 175.257 45.517C174.843 45.517 174.48 45.6264 174.168 45.8452C173.86 46.0606 173.62 46.3688 173.447 46.7699C173.275 47.1676 173.189 47.6383 173.189 48.1818C173.189 48.7386 173.273 49.2192 173.442 49.6236C173.612 50.0279 173.85 50.3411 174.158 50.5632C174.47 50.7853 174.836 50.8963 175.257 50.8963C175.539 50.8963 175.794 50.8449 176.023 50.7422C176.255 50.6361 176.449 50.4853 176.604 50.2898C176.763 50.0942 176.875 49.8589 176.938 49.5838H178.384C178.331 50.0777 178.17 50.5185 177.902 50.9062C177.634 51.294 177.274 51.599 176.823 51.821C176.376 52.0431 175.85 52.1541 175.247 52.1541ZM182.196 52.169C181.712 52.169 181.275 52.0795 180.884 51.9006C180.493 51.7183 180.183 51.4548 179.954 51.1101C179.729 50.7654 179.616 50.3428 179.616 49.8423C179.616 49.4115 179.699 49.0568 179.865 48.7784C180.03 48.5 180.254 48.2796 180.536 48.1172C180.817 47.9548 181.132 47.8321 181.48 47.7493C181.828 47.6664 182.183 47.6035 182.544 47.5604C183.002 47.5073 183.373 47.4643 183.658 47.4311C183.943 47.3946 184.15 47.3366 184.279 47.2571C184.409 47.1776 184.473 47.0483 184.473 46.8693V46.8345C184.473 46.4003 184.351 46.0639 184.105 45.8253C183.863 45.5866 183.502 45.4673 183.021 45.4673C182.521 45.4673 182.127 45.5784 181.838 45.8004C181.553 46.0192 181.356 46.2628 181.247 46.5312L179.85 46.2131C180.015 45.7491 180.257 45.3745 180.575 45.0895C180.897 44.8011 181.267 44.5923 181.684 44.4631C182.102 44.3305 182.541 44.2642 183.002 44.2642C183.307 44.2642 183.63 44.3007 183.971 44.3736C184.316 44.4432 184.637 44.5724 184.936 44.7614C185.237 44.9503 185.484 45.2204 185.676 45.5717C185.869 45.9197 185.965 46.3722 185.965 46.929V52H184.513V50.956H184.453C184.357 51.1482 184.213 51.3371 184.021 51.5227C183.829 51.7083 183.582 51.8625 183.28 51.9851C182.978 52.1077 182.617 52.169 182.196 52.169ZM182.519 50.9759C182.93 50.9759 183.282 50.8946 183.573 50.7322C183.868 50.5698 184.092 50.3577 184.244 50.0959C184.4 49.8307 184.478 49.5473 184.478 49.2457V48.2614C184.425 48.3144 184.322 48.3641 184.17 48.4105C184.021 48.4536 183.85 48.4917 183.658 48.5249C183.466 48.5547 183.278 48.5829 183.096 48.6094C182.914 48.6326 182.761 48.6525 182.639 48.669C182.35 48.7055 182.087 48.7668 181.848 48.853C181.613 48.9392 181.424 49.0634 181.281 49.2259C181.142 49.3849 181.073 49.5971 181.073 49.8622C181.073 50.2301 181.209 50.5085 181.48 50.6974C181.752 50.883 182.098 50.9759 182.519 50.9759ZM191.509 44.3636V45.5568H187.338V44.3636H191.509ZM188.457 42.5341H189.943V49.7578C189.943 50.0462 189.986 50.2633 190.072 50.4091C190.159 50.5516 190.27 50.6494 190.406 50.7024C190.545 50.7521 190.696 50.777 190.858 50.777C190.977 50.777 191.082 50.7687 191.171 50.7521C191.261 50.7356 191.33 50.7223 191.38 50.7124L191.648 51.9403C191.562 51.9735 191.44 52.0066 191.281 52.0398C191.121 52.0762 190.923 52.0961 190.684 52.0994C190.293 52.1061 189.928 52.0365 189.59 51.8906C189.252 51.7448 188.979 51.5194 188.77 51.2145C188.561 50.9096 188.457 50.5268 188.457 50.0661V42.5341ZM193.154 52V44.3636H194.64V52H193.154ZM193.904 43.1854C193.646 43.1854 193.424 43.0992 193.238 42.9268C193.056 42.7512 192.965 42.5424 192.965 42.3004C192.965 42.0552 193.056 41.8464 193.238 41.674C193.424 41.4983 193.646 41.4105 193.904 41.4105C194.163 41.4105 194.383 41.4983 194.566 41.674C194.751 41.8464 194.844 42.0552 194.844 42.3004C194.844 42.5424 194.751 42.7512 194.566 42.9268C194.383 43.0992 194.163 43.1854 193.904 43.1854ZM199.857 52.1541C199.141 52.1541 198.516 51.9901 197.982 51.6619C197.449 51.3338 197.034 50.8748 196.739 50.2848C196.444 49.6948 196.297 49.0054 196.297 48.2166C196.297 47.4245 196.444 46.7318 196.739 46.1385C197.034 45.5452 197.449 45.0845 197.982 44.7564C198.516 44.4283 199.141 44.2642 199.857 44.2642C200.572 44.2642 201.197 44.4283 201.731 44.7564C202.264 45.0845 202.679 45.5452 202.974 46.1385C203.269 46.7318 203.416 47.4245 203.416 48.2166C203.416 49.0054 203.269 49.6948 202.974 50.2848C202.679 50.8748 202.264 51.3338 201.731 51.6619C201.197 51.9901 200.572 52.1541 199.857 52.1541ZM199.862 50.9062C200.326 50.9062 200.71 50.7836 201.015 50.5384C201.32 50.2931 201.545 49.9666 201.691 49.5589C201.84 49.1513 201.915 48.7022 201.915 48.2116C201.915 47.7244 201.84 47.277 201.691 46.8693C201.545 46.4583 201.32 46.1286 201.015 45.88C200.71 45.6314 200.326 45.5071 199.862 45.5071C199.394 45.5071 199.006 45.6314 198.698 45.88C198.393 46.1286 198.166 46.4583 198.017 46.8693C197.871 47.277 197.798 47.7244 197.798 48.2116C197.798 48.7022 197.871 49.1513 198.017 49.5589C198.166 49.9666 198.393 50.2931 198.698 50.5384C199.006 50.7836 199.394 50.9062 199.862 50.9062ZM206.562 47.4659V52H205.075V44.3636H206.502V45.6065H206.597C206.772 45.2022 207.048 44.8774 207.422 44.6321C207.8 44.3868 208.276 44.2642 208.849 44.2642C209.369 44.2642 209.825 44.3736 210.216 44.5923C210.607 44.8078 210.91 45.1293 211.126 45.5568C211.341 45.9844 211.449 46.513 211.449 47.1428V52H209.963V47.3217C209.963 46.7682 209.818 46.3357 209.53 46.0241C209.242 45.7093 208.846 45.5518 208.342 45.5518C207.997 45.5518 207.691 45.6264 207.422 45.7756C207.157 45.9247 206.946 46.1435 206.791 46.4318C206.638 46.7169 206.562 47.0616 206.562 47.4659ZM217.148 52V44.3636H218.585V45.5767H218.664C218.803 45.1657 219.049 44.8426 219.4 44.6072C219.754 44.3686 220.156 44.2493 220.603 44.2493C220.696 44.2493 220.805 44.2526 220.931 44.2592C221.06 44.2659 221.161 44.2741 221.234 44.2841V45.706C221.175 45.6894 221.069 45.6712 220.916 45.6513C220.764 45.6281 220.611 45.6165 220.459 45.6165C220.107 45.6165 219.794 45.6911 219.519 45.8402C219.247 45.986 219.032 46.1899 218.873 46.4517C218.714 46.7102 218.634 47.0052 218.634 47.3366V52H217.148ZM225.539 52.1541C224.786 52.1541 224.138 51.9934 223.595 51.6719C223.054 51.3471 222.637 50.8913 222.342 50.3047C222.05 49.7147 221.904 49.0237 221.904 48.2315C221.904 47.4493 222.05 46.7599 222.342 46.1634C222.637 45.5668 223.048 45.1011 223.575 44.7663C224.105 44.4316 224.725 44.2642 225.434 44.2642C225.865 44.2642 226.283 44.3355 226.687 44.478C227.091 44.6205 227.454 44.8442 227.776 45.1491C228.097 45.4541 228.351 45.8501 228.536 46.3374C228.722 46.8213 228.815 47.4096 228.815 48.1023V48.6293H222.744V47.5156H227.358C227.358 47.1245 227.279 46.7782 227.119 46.4766C226.96 46.1716 226.737 45.9313 226.448 45.7557C226.163 45.58 225.829 45.4922 225.444 45.4922C225.026 45.4922 224.662 45.5949 224.35 45.8004C224.042 46.0026 223.803 46.2678 223.634 46.5959C223.469 46.9207 223.386 47.2737 223.386 47.6548V48.5249C223.386 49.0353 223.475 49.4695 223.654 49.8274C223.837 50.1854 224.09 50.4588 224.415 50.6477C224.74 50.8333 225.119 50.9261 225.553 50.9261C225.835 50.9261 226.092 50.8864 226.324 50.8068C226.556 50.724 226.757 50.6013 226.926 50.4389C227.095 50.2765 227.224 50.076 227.313 49.8374L228.72 50.0909C228.608 50.5052 228.405 50.8681 228.114 51.1797C227.825 51.4879 227.463 51.7282 227.025 51.9006C226.591 52.0696 226.095 52.1541 225.539 52.1541ZM234.098 44.3636V45.5568H229.783V44.3636H234.098ZM230.966 52V43.4787C230.966 43.0014 231.071 42.6053 231.279 42.2905C231.488 41.9723 231.765 41.7353 232.11 41.5795C232.454 41.4205 232.829 41.3409 233.233 41.3409C233.532 41.3409 233.787 41.3658 233.999 41.4155C234.211 41.4619 234.368 41.505 234.471 41.5447L234.123 42.7479C234.054 42.728 233.964 42.7048 233.855 42.6783C233.745 42.6484 233.613 42.6335 233.457 42.6335C233.096 42.6335 232.837 42.723 232.681 42.902C232.529 43.081 232.453 43.3395 232.453 43.6776V52H230.966ZM235.632 52V44.3636H237.119V52H235.632ZM236.383 43.1854C236.124 43.1854 235.902 43.0992 235.717 42.9268C235.534 42.7512 235.443 42.5424 235.443 42.3004C235.443 42.0552 235.534 41.8464 235.717 41.674C235.902 41.4983 236.124 41.4105 236.383 41.4105C236.641 41.4105 236.862 41.4983 237.044 41.674C237.23 41.8464 237.322 42.0552 237.322 42.3004C237.322 42.5424 237.23 42.7512 237.044 42.9268C236.862 43.0992 236.641 43.1854 236.383 43.1854ZM240.605 41.8182V52H239.118V41.8182H240.605ZM244.091 41.8182V52H242.605V41.8182H244.091Z" fill="#8E8C88"/>
<path d="M265.119 52V41.8182H268.847C269.57 41.8182 270.168 41.9375 270.642 42.1761C271.116 42.4115 271.471 42.7313 271.706 43.1357C271.941 43.5367 272.059 43.9891 272.059 44.4929C272.059 44.9171 271.981 45.2751 271.825 45.5668C271.67 45.8551 271.461 46.0871 271.199 46.2628C270.94 46.4351 270.655 46.5611 270.344 46.6406V46.7401C270.682 46.7566 271.012 46.866 271.333 47.0682C271.658 47.267 271.926 47.5504 272.138 47.9183C272.351 48.2862 272.457 48.7337 272.457 49.2607C272.457 49.781 272.334 50.2483 272.089 50.6626C271.847 51.0736 271.472 51.4001 270.965 51.642C270.458 51.8807 269.81 52 269.021 52H265.119ZM266.655 50.6825H268.872C269.608 50.6825 270.135 50.54 270.453 50.255C270.771 49.9699 270.93 49.6136 270.93 49.1861C270.93 48.8646 270.849 48.5696 270.687 48.3011C270.524 48.0327 270.292 47.8189 269.991 47.6598C269.692 47.5007 269.338 47.4212 268.927 47.4212H266.655V50.6825ZM266.655 46.223H268.713C269.058 46.223 269.368 46.1567 269.643 46.0241C269.921 45.8916 270.142 45.706 270.304 45.4673C270.47 45.2254 270.553 44.9403 270.553 44.6122C270.553 44.1913 270.405 43.8383 270.11 43.5533C269.815 43.2682 269.363 43.1257 268.753 43.1257H266.655V46.223ZM274.159 52V44.3636H275.646V52H274.159ZM274.91 43.1854C274.652 43.1854 274.43 43.0992 274.244 42.9268C274.062 42.7512 273.971 42.5424 273.971 42.3004C273.971 42.0552 274.062 41.8464 274.244 41.674C274.43 41.4983 274.652 41.4105 274.91 41.4105C275.169 41.4105 275.389 41.4983 275.571 41.674C275.757 41.8464 275.85 42.0552 275.85 42.3004C275.85 42.5424 275.757 42.7512 275.571 42.9268C275.389 43.0992 275.169 43.1854 274.91 43.1854ZM279.132 41.8182V52H277.646V41.8182H279.132ZM282.619 41.8182V52H281.132V41.8182H282.619ZM284.618 52V44.3636H286.105V52H284.618ZM285.369 43.1854C285.111 43.1854 284.889 43.0992 284.703 42.9268C284.521 42.7512 284.43 42.5424 284.43 42.3004C284.43 42.0552 284.521 41.8464 284.703 41.674C284.889 41.4983 285.111 41.4105 285.369 41.4105C285.628 41.4105 285.848 41.4983 286.03 41.674C286.216 41.8464 286.309 42.0552 286.309 42.3004C286.309 42.5424 286.216 42.7512 286.03 42.9268C285.848 43.0992 285.628 43.1854 285.369 43.1854ZM289.591 47.4659V52H288.105V44.3636H289.532V45.6065H289.626C289.802 45.2022 290.077 44.8774 290.451 44.6321C290.829 44.3868 291.305 44.2642 291.878 44.2642C292.399 44.2642 292.854 44.3736 293.245 44.5923C293.636 44.8078 293.94 45.1293 294.155 45.5568C294.371 45.9844 294.478 46.513 294.478 47.1428V52H292.992V47.3217C292.992 46.7682 292.848 46.3357 292.559 46.0241C292.271 45.7093 291.875 45.5518 291.371 45.5518C291.026 45.5518 290.72 45.6264 290.451 45.7756C290.186 45.9247 289.976 46.1435 289.82 46.4318C289.667 46.7169 289.591 47.0616 289.591 47.4659ZM299.674 55.0227C299.067 55.0227 298.545 54.9432 298.108 54.7841C297.673 54.625 297.319 54.4145 297.044 54.1527C296.769 53.8909 296.563 53.6042 296.427 53.2926L297.705 52.7656C297.794 52.9115 297.914 53.0656 298.063 53.228C298.215 53.3937 298.421 53.5346 298.679 53.6506C298.941 53.7666 299.278 53.8246 299.689 53.8246C300.252 53.8246 300.718 53.687 301.086 53.4119C301.453 53.1402 301.637 52.706 301.637 52.1094V50.608H301.543C301.453 50.7704 301.324 50.951 301.155 51.1499C300.989 51.3487 300.761 51.5211 300.469 51.6669C300.177 51.8127 299.798 51.8857 299.331 51.8857C298.727 51.8857 298.184 51.7448 297.7 51.4631C297.219 51.178 296.838 50.7588 296.556 50.2053C296.278 49.6484 296.139 48.964 296.139 48.152C296.139 47.34 296.276 46.6439 296.551 46.0639C296.83 45.4839 297.211 45.0398 297.695 44.7315C298.179 44.42 298.727 44.2642 299.341 44.2642C299.815 44.2642 300.197 44.3438 300.489 44.5028C300.781 44.6586 301.008 44.8409 301.17 45.0497C301.336 45.2585 301.463 45.4425 301.553 45.6016H301.662V44.3636H303.119V52.169C303.119 52.8253 302.967 53.3639 302.662 53.7848C302.357 54.2057 301.944 54.5173 301.424 54.7195C300.907 54.9216 300.323 55.0227 299.674 55.0227ZM299.659 50.6527C300.086 50.6527 300.448 50.5533 300.743 50.3544C301.041 50.1522 301.266 49.8639 301.419 49.4893C301.574 49.1115 301.652 48.6591 301.652 48.1321C301.652 47.6184 301.576 47.166 301.424 46.7749C301.271 46.3838 301.047 46.0788 300.752 45.8601C300.458 45.638 300.093 45.527 299.659 45.527C299.211 45.527 298.838 45.643 298.54 45.875C298.242 46.1037 298.016 46.4152 297.864 46.8097C297.715 47.2041 297.64 47.6449 297.64 48.1321C297.64 48.6326 297.717 49.0717 297.869 49.4496C298.021 49.8274 298.247 50.1224 298.545 50.3345C298.847 50.5466 299.218 50.6527 299.659 50.6527Z" fill="#8E8C88"/>
<g clip-path="url(#clip1_640_19985)">
<mask id="path-14-inside-2_640_19985" fill="white">
<path d="M59 83H379V127H59V83Z"/>
</mask>
<path d="M379 127V126H59V127V128H379V127Z" fill="#E9E8E6" mask="url(#path-14-inside-2_640_19985)"/>
<path d="M63.375 110H60.233V99.8182H63.5142C64.5019 99.8182 65.3471 100.022 66.0497 100.43C66.7524 100.834 67.291 101.416 67.6655 102.175C68.04 102.93 68.2273 103.835 68.2273 104.889C68.2273 105.95 68.0384 106.863 67.6605 107.629C67.2827 108.391 66.7325 108.978 66.0099 109.388C65.2874 109.796 64.4091 110 63.375 110ZM61.4659 108.906H63.2955C64.1373 108.906 64.835 108.744 65.3885 108.419C65.942 108.094 66.3546 107.632 66.6264 107.032C66.8982 106.432 67.0341 105.718 67.0341 104.889C67.0341 104.067 66.8999 103.36 66.6314 102.766C66.3629 102.17 65.9619 101.712 65.4283 101.394C64.8946 101.073 64.2301 100.912 63.4347 100.912H61.4659V108.906ZM74.9489 106.878V102.364H76.1222V110H74.9489V108.707H74.8693C74.6903 109.095 74.4119 109.425 74.0341 109.697C73.6563 109.965 73.179 110.099 72.6023 110.099C72.125 110.099 71.7008 109.995 71.3295 109.786C70.9583 109.574 70.6667 109.256 70.4545 108.832C70.2424 108.404 70.1364 107.866 70.1364 107.216V102.364H71.3097V107.136C71.3097 107.693 71.4654 108.137 71.777 108.469C72.0919 108.8 72.4929 108.966 72.9801 108.966C73.2718 108.966 73.5684 108.891 73.87 108.742C74.175 108.593 74.4302 108.364 74.6357 108.056C74.8445 107.748 74.9489 107.355 74.9489 106.878ZM78.2711 110V102.364H79.4047V103.517H79.4842C79.6234 103.139 79.8753 102.833 80.2399 102.597C80.6045 102.362 81.0154 102.244 81.4728 102.244C81.559 102.244 81.6667 102.246 81.796 102.249C81.9252 102.253 82.023 102.258 82.0893 102.264V103.457C82.0495 103.447 81.9584 103.433 81.8159 103.413C81.6767 103.389 81.5292 103.378 81.3734 103.378C81.0022 103.378 80.6708 103.456 80.3791 103.612C80.0907 103.764 79.862 103.976 79.693 104.248C79.5273 104.516 79.4444 104.823 79.4444 105.168V110H78.2711ZM85.7273 110.179C85.2434 110.179 84.8042 110.088 84.4098 109.906C84.0154 109.72 83.7022 109.453 83.4702 109.105C83.2382 108.754 83.1222 108.33 83.1222 107.832C83.1222 107.395 83.2083 107.04 83.3807 106.768C83.553 106.493 83.7834 106.278 84.0717 106.122C84.3601 105.966 84.6783 105.85 85.0263 105.774C85.3776 105.695 85.7306 105.632 86.0852 105.585C86.5492 105.526 86.9254 105.481 87.2138 105.451C87.5054 105.418 87.7176 105.363 87.8501 105.287C87.986 105.211 88.054 105.078 88.054 104.889V104.849C88.054 104.359 87.9197 103.978 87.6513 103.706C87.3861 103.434 86.9834 103.298 86.4432 103.298C85.883 103.298 85.4439 103.421 85.1257 103.666C84.8075 103.911 84.5838 104.173 84.4545 104.452L83.3409 104.054C83.5398 103.59 83.8049 103.229 84.1364 102.97C84.4711 102.708 84.8357 102.526 85.2301 102.423C85.6278 102.317 86.0189 102.264 86.4034 102.264C86.6487 102.264 86.9304 102.294 87.2486 102.354C87.5701 102.41 87.88 102.528 88.1783 102.707C88.4799 102.886 88.7301 103.156 88.929 103.517C89.1278 103.878 89.2273 104.362 89.2273 104.969V110H88.054V108.966H87.9943C87.9148 109.132 87.7822 109.309 87.5966 109.498C87.411 109.687 87.1641 109.848 86.8558 109.98C86.5476 110.113 86.1714 110.179 85.7273 110.179ZM85.9062 109.125C86.3703 109.125 86.7614 109.034 87.0795 108.852C87.401 108.669 87.643 108.434 87.8054 108.146C87.9711 107.857 88.054 107.554 88.054 107.236V106.162C88.0043 106.222 87.8949 106.276 87.7259 106.326C87.5601 106.372 87.3679 106.414 87.1491 106.45C86.9337 106.483 86.7232 106.513 86.5178 106.54C86.3156 106.563 86.1515 106.583 86.0256 106.599C85.7206 106.639 85.4356 106.704 85.1705 106.793C84.9086 106.879 84.6965 107.01 84.5341 107.186C84.375 107.358 84.2955 107.594 84.2955 107.892C84.2955 108.3 84.4463 108.608 84.7479 108.817C85.0528 109.022 85.4389 109.125 85.9062 109.125ZM94.6898 102.364V103.358H90.7324V102.364H94.6898ZM91.8858 100.534H93.0591V107.812C93.0591 108.144 93.1072 108.393 93.2033 108.558C93.3027 108.721 93.4287 108.83 93.5811 108.886C93.7369 108.939 93.901 108.966 94.0733 108.966C94.2026 108.966 94.3087 108.959 94.3915 108.946C94.4744 108.929 94.5407 108.916 94.5904 108.906L94.829 109.96C94.7495 109.99 94.6384 110.02 94.4959 110.05C94.3534 110.083 94.1728 110.099 93.954 110.099C93.6226 110.099 93.2978 110.028 92.9796 109.886C92.6647 109.743 92.4029 109.526 92.1941 109.234C91.9886 108.943 91.8858 108.575 91.8858 108.131V100.534ZM96.4547 110V102.364H97.628V110H96.4547ZM97.0513 101.091C96.8226 101.091 96.6254 101.013 96.4597 100.857C96.2973 100.701 96.2161 100.514 96.2161 100.295C96.2161 100.077 96.2973 99.8894 96.4597 99.7337C96.6254 99.5779 96.8226 99.5 97.0513 99.5C97.28 99.5 97.4756 99.5779 97.638 99.7337C97.8037 99.8894 97.8865 100.077 97.8865 100.295C97.8865 100.514 97.8037 100.701 97.638 100.857C97.4756 101.013 97.28 101.091 97.0513 101.091ZM102.879 110.159C102.19 110.159 101.585 109.995 101.065 109.667C100.548 109.339 100.143 108.88 99.8516 108.29C99.5632 107.7 99.419 107.01 99.419 106.222C99.419 105.426 99.5632 104.732 99.8516 104.138C100.143 103.545 100.548 103.085 101.065 102.756C101.585 102.428 102.19 102.264 102.879 102.264C103.569 102.264 104.172 102.428 104.689 102.756C105.209 103.085 105.614 103.545 105.902 104.138C106.194 104.732 106.339 105.426 106.339 106.222C106.339 107.01 106.194 107.7 105.902 108.29C105.614 108.88 105.209 109.339 104.689 109.667C104.172 109.995 103.569 110.159 102.879 110.159ZM102.879 109.105C103.403 109.105 103.834 108.971 104.172 108.702C104.51 108.434 104.76 108.081 104.923 107.643C105.085 107.206 105.166 106.732 105.166 106.222C105.166 105.711 105.085 105.236 104.923 104.795C104.76 104.354 104.51 103.998 104.172 103.726C103.834 103.454 103.403 103.318 102.879 103.318C102.356 103.318 101.925 103.454 101.587 103.726C101.249 103.998 100.998 104.354 100.836 104.795C100.674 105.236 100.592 105.711 100.592 106.222C100.592 106.732 100.674 107.206 100.836 107.643C100.998 108.081 101.249 108.434 101.587 108.702C101.925 108.971 102.356 109.105 102.879 109.105ZM109.304 105.406V110H108.131V102.364H109.264V103.557H109.363C109.542 103.169 109.814 102.857 110.179 102.622C110.543 102.384 111.014 102.264 111.591 102.264C112.108 102.264 112.56 102.37 112.948 102.582C113.336 102.791 113.637 103.109 113.853 103.537C114.068 103.961 114.176 104.498 114.176 105.148V110H113.003V105.227C113.003 104.627 112.847 104.16 112.535 103.825C112.224 103.487 111.796 103.318 111.253 103.318C110.878 103.318 110.543 103.399 110.248 103.562C109.957 103.724 109.726 103.961 109.557 104.273C109.388 104.584 109.304 104.962 109.304 105.406Z" fill="#21201D"/>
<path d="M302.494 110.139C301.838 110.139 301.253 110.027 300.739 109.801C300.229 109.576 299.823 109.263 299.521 108.862C299.223 108.457 299.061 107.988 299.034 107.455H300.287C300.313 107.783 300.426 108.066 300.625 108.305C300.824 108.54 301.084 108.722 301.406 108.852C301.727 108.981 302.083 109.045 302.474 109.045C302.912 109.045 303.3 108.969 303.638 108.817C303.976 108.664 304.241 108.452 304.433 108.18C304.625 107.909 304.722 107.594 304.722 107.236C304.722 106.861 304.629 106.531 304.443 106.246C304.258 105.958 303.986 105.733 303.628 105.57C303.27 105.408 302.832 105.327 302.315 105.327H301.5V104.233H302.315C302.72 104.233 303.074 104.16 303.379 104.014C303.688 103.868 303.928 103.663 304.1 103.398C304.276 103.133 304.364 102.821 304.364 102.463C304.364 102.118 304.287 101.818 304.135 101.563C303.982 101.308 303.767 101.109 303.489 100.967C303.214 100.824 302.889 100.753 302.514 100.753C302.163 100.753 301.831 100.817 301.52 100.947C301.212 101.073 300.96 101.257 300.764 101.499C300.569 101.737 300.463 102.026 300.446 102.364H299.253C299.273 101.83 299.433 101.363 299.735 100.962C300.037 100.557 300.431 100.242 300.918 100.017C301.409 99.7917 301.947 99.679 302.534 99.679C303.164 99.679 303.704 99.8066 304.155 100.062C304.606 100.314 304.952 100.647 305.194 101.061C305.436 101.475 305.557 101.923 305.557 102.403C305.557 102.977 305.406 103.466 305.104 103.87C304.806 104.274 304.4 104.554 303.886 104.71V104.79C304.529 104.896 305.031 105.169 305.393 105.61C305.754 106.048 305.935 106.589 305.935 107.236C305.935 107.789 305.784 108.286 305.482 108.727C305.184 109.165 304.776 109.509 304.259 109.761C303.742 110.013 303.154 110.139 302.494 110.139ZM311.289 110.139C310.54 110.139 309.902 109.935 309.375 109.528C308.848 109.117 308.445 108.522 308.167 107.743C307.888 106.961 307.749 106.016 307.749 104.909C307.749 103.809 307.888 102.869 308.167 102.09C308.449 101.308 308.853 100.711 309.38 100.3C309.91 99.8861 310.547 99.679 311.289 99.679C312.031 99.679 312.666 99.8861 313.193 100.3C313.723 100.711 314.128 101.308 314.406 102.09C314.688 102.869 314.829 103.809 314.829 104.909C314.829 106.016 314.69 106.961 314.411 107.743C314.133 108.522 313.73 109.117 313.203 109.528C312.676 109.935 312.038 110.139 311.289 110.139ZM311.289 109.045C312.031 109.045 312.608 108.687 313.019 107.972C313.43 107.256 313.636 106.235 313.636 104.909C313.636 104.027 313.541 103.277 313.352 102.657C313.167 102.037 312.898 101.565 312.547 101.24C312.199 100.915 311.78 100.753 311.289 100.753C310.553 100.753 309.978 101.116 309.564 101.842C309.15 102.564 308.942 103.587 308.942 104.909C308.942 105.791 309.035 106.54 309.221 107.156C309.406 107.773 309.673 108.242 310.021 108.563C310.373 108.885 310.795 109.045 311.289 109.045ZM320.675 110V102.364H321.809V103.557H321.908C322.067 103.149 322.324 102.833 322.679 102.607C323.034 102.379 323.46 102.264 323.957 102.264C324.46 102.264 324.88 102.379 325.214 102.607C325.553 102.833 325.816 103.149 326.005 103.557H326.085C326.28 103.162 326.573 102.849 326.964 102.617C327.356 102.382 327.825 102.264 328.371 102.264C329.054 102.264 329.613 102.478 330.047 102.906C330.481 103.33 330.698 103.991 330.698 104.889V110H329.525V104.889C329.525 104.326 329.371 103.923 329.062 103.681C328.754 103.439 328.391 103.318 327.974 103.318C327.437 103.318 327.021 103.481 326.726 103.805C326.431 104.127 326.283 104.535 326.283 105.028V110H325.09V104.77C325.09 104.336 324.949 103.986 324.668 103.721C324.386 103.452 324.023 103.318 323.579 103.318C323.274 103.318 322.989 103.399 322.724 103.562C322.462 103.724 322.25 103.95 322.087 104.238C321.928 104.523 321.849 104.853 321.849 105.227V110H320.675ZM332.843 110V102.364H334.017V110H332.843ZM333.44 101.091C333.211 101.091 333.014 101.013 332.848 100.857C332.686 100.701 332.605 100.514 332.605 100.295C332.605 100.077 332.686 99.8894 332.848 99.7337C333.014 99.5779 333.211 99.5 333.44 99.5C333.669 99.5 333.864 99.5779 334.027 99.7337C334.192 99.8894 334.275 100.077 334.275 100.295C334.275 100.514 334.192 100.701 334.027 100.857C333.864 101.013 333.669 101.091 333.44 101.091ZM337.339 105.406V110H336.166V102.364H337.299V103.557H337.399C337.578 103.169 337.849 102.857 338.214 102.622C338.579 102.384 339.049 102.264 339.626 102.264C340.143 102.264 340.595 102.37 340.983 102.582C341.371 102.791 341.673 103.109 341.888 103.537C342.103 103.961 342.211 104.498 342.211 105.148V110H341.038V105.227C341.038 104.627 340.882 104.16 340.57 103.825C340.259 103.487 339.831 103.318 339.288 103.318C338.913 103.318 338.579 103.399 338.284 103.562C337.992 103.724 337.762 103.961 337.593 104.273C337.423 104.584 337.339 104.962 337.339 105.406ZM349.764 104.074L348.71 104.372C348.644 104.196 348.546 104.026 348.417 103.86C348.291 103.691 348.119 103.552 347.9 103.442C347.681 103.333 347.401 103.278 347.06 103.278C346.592 103.278 346.203 103.386 345.891 103.602C345.583 103.814 345.429 104.084 345.429 104.412C345.429 104.704 345.535 104.934 345.747 105.103C345.959 105.272 346.291 105.413 346.741 105.526L347.875 105.804C348.558 105.97 349.067 106.223 349.401 106.565C349.736 106.903 349.903 107.339 349.903 107.872C349.903 108.31 349.777 108.701 349.526 109.045C349.277 109.39 348.929 109.662 348.482 109.861C348.034 110.06 347.514 110.159 346.92 110.159C346.142 110.159 345.497 109.99 344.987 109.652C344.476 109.314 344.153 108.82 344.017 108.17L345.131 107.892C345.237 108.303 345.437 108.611 345.732 108.817C346.031 109.022 346.42 109.125 346.901 109.125C347.447 109.125 347.882 109.009 348.203 108.777C348.528 108.542 348.69 108.26 348.69 107.932C348.69 107.667 348.598 107.445 348.412 107.266C348.226 107.083 347.941 106.947 347.557 106.858L346.284 106.56C345.585 106.394 345.071 106.137 344.743 105.789C344.418 105.438 344.256 104.999 344.256 104.472C344.256 104.041 344.377 103.66 344.619 103.328C344.864 102.997 345.197 102.737 345.618 102.548C346.042 102.359 346.523 102.264 347.06 102.264C347.815 102.264 348.409 102.43 348.839 102.761C349.274 103.093 349.582 103.53 349.764 104.074Z" fill="#21201D"/>
<path d="M370.75 103.5L367 107.25L363.25 103.5" stroke="#8E8C88" stroke-width="1.1" stroke-linecap="round" stroke-linejoin="round"/>
<path d="M60.233 154V143.818H63.6733C64.4721 143.818 65.125 143.962 65.6321 144.251C66.1425 144.536 66.5204 144.922 66.7656 145.409C67.0109 145.896 67.1335 146.44 67.1335 147.04C67.1335 147.64 67.0109 148.185 66.7656 148.675C66.5237 149.166 66.1491 149.557 65.642 149.849C65.1349 150.137 64.4853 150.281 63.6932 150.281H61.2273V149.188H63.6534C64.2003 149.188 64.6394 149.093 64.9709 148.904C65.3023 148.715 65.5426 148.46 65.6918 148.138C65.8442 147.814 65.9205 147.447 65.9205 147.04C65.9205 146.632 65.8442 146.268 65.6918 145.946C65.5426 145.625 65.3007 145.373 64.9659 145.19C64.6312 145.005 64.187 144.912 63.6335 144.912H61.4659V154H60.233ZM68.9606 154V146.364H70.0941V147.517H70.1737C70.3129 147.139 70.5647 146.833 70.9293 146.597C71.2939 146.362 71.7049 146.244 72.1623 146.244C72.2485 146.244 72.3562 146.246 72.4854 146.249C72.6147 146.253 72.7125 146.258 72.7788 146.264V147.457C72.739 147.447 72.6478 147.433 72.5053 147.413C72.3661 147.389 72.2186 147.378 72.0629 147.378C71.6916 147.378 71.3602 147.456 71.0685 147.612C70.7802 147.764 70.5515 147.976 70.3825 148.248C70.2167 148.516 70.1339 148.823 70.1339 149.168V154H68.9606ZM77.0394 154.159C76.35 154.159 75.7451 153.995 75.2248 153.667C74.7077 153.339 74.3034 152.88 74.0117 152.29C73.7234 151.7 73.5792 151.01 73.5792 150.222C73.5792 149.426 73.7234 148.732 74.0117 148.138C74.3034 147.545 74.7077 147.085 75.2248 146.756C75.7451 146.428 76.35 146.264 77.0394 146.264C77.7288 146.264 78.332 146.428 78.8491 146.756C79.3694 147.085 79.7738 147.545 80.0621 148.138C80.3538 148.732 80.4996 149.426 80.4996 150.222C80.4996 151.01 80.3538 151.7 80.0621 152.29C79.7738 152.88 79.3694 153.339 78.8491 153.667C78.332 153.995 77.7288 154.159 77.0394 154.159ZM77.0394 153.105C77.5631 153.105 77.994 152.971 78.332 152.702C78.6701 152.434 78.9203 152.081 79.0827 151.643C79.2451 151.206 79.3263 150.732 79.3263 150.222C79.3263 149.711 79.2451 149.236 79.0827 148.795C78.9203 148.354 78.6701 147.998 78.332 147.726C77.994 147.454 77.5631 147.318 77.0394 147.318C76.5157 147.318 76.0849 147.454 75.7468 147.726C75.4087 147.998 75.1585 148.354 74.9961 148.795C74.8337 149.236 74.7525 149.711 74.7525 150.222C74.7525 150.732 74.8337 151.206 74.9961 151.643C75.1585 152.081 75.4087 152.434 75.7468 152.702C76.0849 152.971 76.5157 153.105 77.0394 153.105ZM88.2615 146.364L85.4377 154H84.2445L81.4206 146.364H82.6934L84.8013 152.449H84.8809L86.9888 146.364H88.2615ZM89.8102 154V146.364H90.9835V154H89.8102ZM90.4068 145.091C90.1781 145.091 89.9809 145.013 89.8152 144.857C89.6528 144.701 89.5716 144.514 89.5716 144.295C89.5716 144.077 89.6528 143.889 89.8152 143.734C89.9809 143.578 90.1781 143.5 90.4068 143.5C90.6355 143.5 90.831 143.578 90.9934 143.734C91.1592 143.889 91.242 144.077 91.242 144.295C91.242 144.514 91.1592 144.701 90.9934 144.857C90.831 145.013 90.6355 145.091 90.4068 145.091ZM96.016 154.159C95.3796 154.159 94.8178 153.998 94.3306 153.677C93.8434 153.352 93.4622 152.895 93.1871 152.305C92.9121 151.711 92.7745 151.01 92.7745 150.202C92.7745 149.4 92.9121 148.704 93.1871 148.114C93.4622 147.524 93.8451 147.068 94.3356 146.746C94.8261 146.425 95.3929 146.264 96.0359 146.264C96.533 146.264 96.9258 146.347 97.2141 146.513C97.5058 146.675 97.7279 146.861 97.8803 147.07C98.0361 147.275 98.1571 147.444 98.2433 147.577H98.3427V143.818H99.516V154H98.3825V152.827H98.2433C98.1571 152.966 98.0344 153.142 97.8754 153.354C97.7163 153.562 97.4892 153.75 97.1942 153.915C96.8993 154.078 96.5065 154.159 96.016 154.159ZM96.1751 153.105C96.6457 153.105 97.0434 152.982 97.3683 152.737C97.6931 152.489 97.94 152.146 98.109 151.708C98.2781 151.267 98.3626 150.759 98.3626 150.182C98.3626 149.612 98.2797 149.113 98.114 148.685C97.9483 148.254 97.703 147.92 97.3782 147.681C97.0534 147.439 96.6523 147.318 96.1751 147.318C95.6779 147.318 95.2636 147.446 94.9322 147.701C94.604 147.953 94.3571 148.296 94.1914 148.73C94.029 149.161 93.9478 149.645 93.9478 150.182C93.9478 150.725 94.0307 151.219 94.1964 151.663C94.3654 152.104 94.614 152.455 94.9421 152.717C95.2736 152.976 95.6845 153.105 96.1751 153.105ZM105.029 154.159C104.294 154.159 103.659 153.997 103.125 153.672C102.595 153.344 102.186 152.886 101.897 152.3C101.612 151.71 101.47 151.024 101.47 150.241C101.47 149.459 101.612 148.77 101.897 148.173C102.186 147.573 102.587 147.106 103.1 146.771C103.618 146.433 104.221 146.264 104.91 146.264C105.308 146.264 105.701 146.33 106.088 146.463C106.476 146.596 106.829 146.811 107.147 147.109C107.466 147.404 107.719 147.795 107.908 148.283C108.097 148.77 108.191 149.37 108.191 150.082V150.58H102.305V149.565H106.998C106.998 149.134 106.912 148.75 106.74 148.412C106.571 148.074 106.329 147.807 106.014 147.612C105.702 147.416 105.334 147.318 104.91 147.318C104.443 147.318 104.038 147.434 103.697 147.666C103.359 147.895 103.099 148.193 102.917 148.561C102.734 148.929 102.643 149.323 102.643 149.744V150.42C102.643 150.997 102.743 151.486 102.941 151.887C103.144 152.285 103.424 152.588 103.782 152.797C104.14 153.002 104.556 153.105 105.029 153.105C105.338 153.105 105.616 153.062 105.865 152.976C106.117 152.886 106.334 152.754 106.516 152.578C106.698 152.399 106.839 152.177 106.939 151.912L108.072 152.23C107.953 152.615 107.752 152.953 107.471 153.244C107.189 153.533 106.841 153.758 106.426 153.92C106.012 154.08 105.547 154.159 105.029 154.159ZM109.976 154V146.364H111.11V147.517H111.189C111.328 147.139 111.58 146.833 111.945 146.597C112.31 146.362 112.721 146.244 113.178 146.244C113.264 146.244 113.372 146.246 113.501 146.249C113.63 146.253 113.728 146.258 113.794 146.264V147.457C113.755 147.447 113.663 147.433 113.521 147.413C113.382 147.389 113.234 147.378 113.078 147.378C112.707 147.378 112.376 147.456 112.084 147.612C111.796 147.764 111.567 147.976 111.398 148.248C111.232 148.516 111.15 148.823 111.15 149.168V154H109.976ZM120.594 148.074L119.54 148.372C119.474 148.196 119.376 148.026 119.247 147.86C119.121 147.691 118.949 147.552 118.73 147.442C118.511 147.333 118.231 147.278 117.89 147.278C117.422 147.278 117.033 147.386 116.721 147.602C116.413 147.814 116.259 148.084 116.259 148.412C116.259 148.704 116.365 148.934 116.577 149.103C116.789 149.272 117.121 149.413 117.572 149.526L118.705 149.804C119.388 149.97 119.897 150.223 120.231 150.565C120.566 150.903 120.733 151.339 120.733 151.872C120.733 152.31 120.608 152.701 120.356 153.045C120.107 153.39 119.759 153.662 119.312 153.861C118.864 154.06 118.344 154.159 117.751 154.159C116.972 154.159 116.327 153.99 115.817 153.652C115.306 153.314 114.983 152.82 114.847 152.17L115.961 151.892C116.067 152.303 116.267 152.611 116.562 152.817C116.861 153.022 117.25 153.125 117.731 153.125C118.278 153.125 118.712 153.009 119.033 152.777C119.358 152.542 119.52 152.26 119.52 151.932C119.52 151.667 119.428 151.445 119.242 151.266C119.056 151.083 118.771 150.947 118.387 150.858L117.114 150.56C116.415 150.394 115.901 150.137 115.573 149.789C115.248 149.438 115.086 148.999 115.086 148.472C115.086 148.041 115.207 147.66 115.449 147.328C115.694 146.997 116.027 146.737 116.448 146.548C116.872 146.359 117.353 146.264 117.89 146.264C118.645 146.264 119.239 146.43 119.67 146.761C120.104 147.093 120.412 147.53 120.594 148.074Z" fill="#21201D"/>
<path d="M269.651 154H268.358L272.097 143.818H273.369L277.108 154H275.815L272.773 145.429H272.693L269.651 154ZM270.128 150.023H275.338V151.116H270.128V150.023ZM279.708 143.818V154H278.535V143.818H279.708ZM283.03 143.818V154H281.857V143.818H283.03ZM289.117 156.864V146.364H290.25V147.577H290.39C290.476 147.444 290.595 147.275 290.748 147.07C290.903 146.861 291.125 146.675 291.414 146.513C291.705 146.347 292.1 146.264 292.597 146.264C293.24 146.264 293.807 146.425 294.297 146.746C294.788 147.068 295.171 147.524 295.446 148.114C295.721 148.704 295.858 149.4 295.858 150.202C295.858 151.01 295.721 151.711 295.446 152.305C295.171 152.895 294.789 153.352 294.302 153.677C293.815 153.998 293.253 154.159 292.617 154.159C292.126 154.159 291.734 154.078 291.439 153.915C291.144 153.75 290.917 153.562 290.757 153.354C290.598 153.142 290.476 152.966 290.39 152.827H290.29V156.864H289.117ZM290.27 150.182C290.27 150.759 290.355 151.267 290.524 151.708C290.693 152.146 290.94 152.489 291.265 152.737C291.589 152.982 291.987 153.105 292.458 153.105C292.948 153.105 293.358 152.976 293.686 152.717C294.017 152.455 294.266 152.104 294.431 151.663C294.6 151.219 294.685 150.725 294.685 150.182C294.685 149.645 294.602 149.161 294.436 148.73C294.274 148.296 294.027 147.953 293.696 147.701C293.368 147.446 292.955 147.318 292.458 147.318C291.98 147.318 291.579 147.439 291.255 147.681C290.93 147.92 290.685 148.254 290.519 148.685C290.353 149.113 290.27 149.612 290.27 150.182ZM297.648 154V146.364H298.782V147.517H298.861C299 147.139 299.252 146.833 299.617 146.597C299.981 146.362 300.392 146.244 300.85 146.244C300.936 146.244 301.044 146.246 301.173 146.249C301.302 146.253 301.4 146.258 301.466 146.264V147.457C301.426 147.447 301.335 147.433 301.193 147.413C301.054 147.389 300.906 147.378 300.75 147.378C300.379 147.378 300.048 147.456 299.756 147.612C299.468 147.764 299.239 147.976 299.07 148.248C298.904 148.516 298.821 148.823 298.821 149.168V154H297.648ZM305.727 154.159C305.038 154.159 304.433 153.995 303.912 153.667C303.395 153.339 302.991 152.88 302.699 152.29C302.411 151.7 302.267 151.01 302.267 150.222C302.267 149.426 302.411 148.732 302.699 148.138C302.991 147.545 303.395 147.085 303.912 146.756C304.433 146.428 305.038 146.264 305.727 146.264C306.416 146.264 307.02 146.428 307.537 146.756C308.057 147.085 308.461 147.545 308.75 148.138C309.041 148.732 309.187 149.426 309.187 150.222C309.187 151.01 309.041 151.7 308.75 152.29C308.461 152.88 308.057 153.339 307.537 153.667C307.02 153.995 306.416 154.159 305.727 154.159ZM305.727 153.105C306.251 153.105 306.681 152.971 307.02 152.702C307.358 152.434 307.608 152.081 307.77 151.643C307.933 151.206 308.014 150.732 308.014 150.222C308.014 149.711 307.933 149.236 307.77 148.795C307.608 148.354 307.358 147.998 307.02 147.726C306.681 147.454 306.251 147.318 305.727 147.318C305.203 147.318 304.772 147.454 304.434 147.726C304.096 147.998 303.846 148.354 303.684 148.795C303.521 149.236 303.44 149.711 303.44 150.222C303.44 150.732 303.521 151.206 303.684 151.643C303.846 152.081 304.096 152.434 304.434 152.702C304.772 152.971 305.203 153.105 305.727 153.105ZM316.949 146.364L314.125 154H312.932L310.108 146.364H311.381L313.489 152.449H313.568L315.676 146.364H316.949ZM318.498 154V146.364H319.671V154H318.498ZM319.094 145.091C318.866 145.091 318.668 145.013 318.503 144.857C318.34 144.701 318.259 144.514 318.259 144.295C318.259 144.077 318.34 143.889 318.503 143.734C318.668 143.578 318.866 143.5 319.094 143.5C319.323 143.5 319.519 143.578 319.681 143.734C319.847 143.889 319.93 144.077 319.93 144.295C319.93 144.514 319.847 144.701 319.681 144.857C319.519 145.013 319.323 145.091 319.094 145.091ZM324.703 154.159C324.067 154.159 323.505 153.998 323.018 153.677C322.531 153.352 322.15 152.895 321.875 152.305C321.6 151.711 321.462 151.01 321.462 150.202C321.462 149.4 321.6 148.704 321.875 148.114C322.15 147.524 322.533 147.068 323.023 146.746C323.514 146.425 324.08 146.264 324.723 146.264C325.221 146.264 325.613 146.347 325.902 146.513C326.193 146.675 326.415 146.861 326.568 147.07C326.724 147.275 326.845 147.444 326.931 147.577H327.03V143.818H328.203V154H327.07V152.827H326.931C326.845 152.966 326.722 153.142 326.563 153.354C326.404 153.562 326.177 153.75 325.882 153.915C325.587 154.078 325.194 154.159 324.703 154.159ZM324.863 153.105C325.333 153.105 325.731 152.982 326.056 152.737C326.381 152.489 326.627 152.146 326.797 151.708C326.966 151.267 327.05 150.759 327.05 150.182C327.05 149.612 326.967 149.113 326.801 148.685C326.636 148.254 326.391 147.92 326.066 147.681C325.741 147.439 325.34 147.318 324.863 147.318C324.365 147.318 323.951 147.446 323.62 147.701C323.292 147.953 323.045 148.296 322.879 148.73C322.717 149.161 322.635 149.645 322.635 150.182C322.635 150.725 322.718 151.219 322.884 151.663C323.053 152.104 323.301 152.455 323.63 152.717C323.961 152.976 324.372 153.105 324.863 153.105ZM333.717 154.159C332.981 154.159 332.346 153.997 331.813 153.672C331.283 153.344 330.873 152.886 330.585 152.3C330.3 151.71 330.157 151.024 330.157 150.241C330.157 149.459 330.3 148.77 330.585 148.173C330.873 147.573 331.274 147.106 331.788 146.771C332.305 146.433 332.908 146.264 333.598 146.264C333.995 146.264 334.388 146.33 334.776 146.463C335.164 146.596 335.517 146.811 335.835 147.109C336.153 147.404 336.407 147.795 336.596 148.283C336.784 148.77 336.879 149.37 336.879 150.082V150.58H330.993V149.565H335.686C335.686 149.134 335.6 148.75 335.427 148.412C335.258 148.074 335.016 147.807 334.701 147.612C334.39 147.416 334.022 147.318 333.598 147.318C333.13 147.318 332.726 147.434 332.385 147.666C332.047 147.895 331.786 148.193 331.604 148.561C331.422 148.929 331.331 149.323 331.331 149.744V150.42C331.331 150.997 331.43 151.486 331.629 151.887C331.831 152.285 332.111 152.588 332.469 152.797C332.827 153.002 333.243 153.105 333.717 153.105C334.025 153.105 334.304 153.062 334.552 152.976C334.804 152.886 335.021 152.754 335.203 152.578C335.386 152.399 335.527 152.177 335.626 151.912L336.76 152.23C336.64 152.615 336.44 152.953 336.158 153.244C335.876 153.533 335.528 153.758 335.114 153.92C334.7 154.08 334.234 154.159 333.717 154.159ZM338.664 154V146.364H339.797V147.517H339.877C340.016 147.139 340.268 146.833 340.632 146.597C340.997 146.362 341.408 146.244 341.865 146.244C341.952 146.244 342.059 146.246 342.189 146.249C342.318 146.253 342.416 146.258 342.482 146.264V147.457C342.442 147.447 342.351 147.433 342.208 147.413C342.069 147.389 341.922 147.378 341.766 147.378C341.395 147.378 341.063 147.456 340.772 147.612C340.483 147.764 340.255 147.976 340.086 148.248C339.92 148.516 339.837 148.823 339.837 149.168V154H338.664ZM349.282 148.074L348.228 148.372C348.162 148.196 348.064 148.026 347.934 147.86C347.809 147.691 347.636 147.552 347.417 147.442C347.199 147.333 346.919 147.278 346.577 147.278C346.11 147.278 345.72 147.386 345.409 147.602C345.101 147.814 344.947 148.084 344.947 148.412C344.947 148.704 345.053 148.934 345.265 149.103C345.477 149.272 345.808 149.413 346.259 149.526L347.393 149.804C348.075 149.97 348.584 150.223 348.919 150.565C349.254 150.903 349.421 151.339 349.421 151.872C349.421 152.31 349.295 152.701 349.043 153.045C348.795 153.39 348.447 153.662 347.999 153.861C347.552 154.06 347.031 154.159 346.438 154.159C345.659 154.159 345.015 153.99 344.504 153.652C343.994 153.314 343.671 152.82 343.535 152.17L344.648 151.892C344.754 152.303 344.955 152.611 345.25 152.817C345.548 153.022 345.938 153.125 346.418 153.125C346.965 153.125 347.399 153.009 347.721 152.777C348.046 152.542 348.208 152.26 348.208 151.932C348.208 151.667 348.115 151.445 347.93 151.266C347.744 151.083 347.459 150.947 347.074 150.858L345.802 150.56C345.102 150.394 344.589 150.137 344.26 149.789C343.936 149.438 343.773 148.999 343.773 148.472C343.773 148.041 343.894 147.66 344.136 147.328C344.381 146.997 344.715 146.737 345.135 146.548C345.56 146.359 346.04 146.264 346.577 146.264C347.333 146.264 347.926 146.43 348.357 146.761C348.791 147.093 349.099 147.53 349.282 148.074Z" fill="#21201D"/>
<path d="M370.75 147.5L367 151.25L363.25 147.5" stroke="#8E8C88" stroke-width="1.1" stroke-linecap="round" stroke-linejoin="round"/>
</g>
<rect x="45.5" y="83.5" width="347" height="87" rx="5.5" stroke="#E9E8E6"/>
</g>
</g>
<defs>
<filter id="filter0_d_640_19985" x="0" y="0" width="438" height="220" filterUnits="userSpaceOnUse" color-interpolation-filters="sRGB">
<feFlood flood-opacity="0" result="BackgroundImageFix"/>
<feColorMatrix in="SourceAlpha" type="matrix" values="0 0 0 0 0 0 0 0 0 0 0 0 0 0 0 0 0 0 127 0" result="hardAlpha"/>
<feOffset dy="4"/>
<feGaussianBlur stdDeviation="14"/>
<feComposite in2="hardAlpha" operator="out"/>
<feColorMatrix type="matrix" values="0 0 0 0 0 0 0 0 0 0 0 0 0 0 0 0 0 0 0.04 0"/>
<feBlend mode="normal" in2="BackgroundImageFix" result="effect1_dropShadow_640_19985"/>
<feBlend mode="normal" in="SourceGraphic" in2="effect1_dropShadow_640_19985" result="shape"/>
</filter>
<clipPath id="clip0_640_19985">
<rect x="29" y="33" width="380" height="138" rx="12" fill="white"/>
</clipPath>
<clipPath id="clip1_640_19985">
<rect x="45" y="83" width="348" height="88" rx="6" fill="white"/>
</clipPath>
</defs>
</svg>
