<svg xmlns="http://www.w3.org/2000/svg" width="362" height="164" fill="none" viewBox="0 0 362 164"><rect width="361" height="163" x=".5" y=".5" fill="#fff" rx="8.5"/><rect width="361" height="163" x=".5" y=".5" stroke="#e9e8e6" rx="8.5"/><g clip-path="url(#a)"><mask id="b" fill="#fff"><path d="M1 9h360v34H1z"/></mask><path fill="#e9e8e6" d="M361 43v-1H1v2h360z" mask="url(#b)"/><path fill="#6a3cdf" d="M23.672 20.493a1.45 1.45 0 0 0-.656-1.094q-.578-.393-1.452-.393-.627 0-1.084.2-.458.193-.71.536a1.27 1.27 0 0 0-.25.77q0 .364.17.627.173.264.452.443.283.174.607.293.323.115.621.189l.994.258q.487.12 1 .324.511.203.95.537.436.333.705.825.274.491.274 1.178 0 .866-.448 1.536-.443.671-1.287 1.06-.84.387-2.034.387-1.143 0-1.979-.363-.834-.363-1.307-1.029-.473-.672-.522-1.59h1.541q.046.551.358.919.318.362.81.542.498.174 1.09.174.65 0 1.158-.204.512-.209.805-.577.293-.372.293-.87 0-.452-.258-.74a1.9 1.9 0 0 0-.691-.478 7 7 0 0 0-.98-.333l-1.203-.328q-1.222-.333-1.939-.98-.71-.645-.71-1.71 0-.879.477-1.536.477-.656 1.292-1.02.816-.367 1.84-.367 1.034 0 1.824.363.795.363 1.253 1 .457.63.477 1.45zm6.554 7.661q-1.11 0-1.91-.502a3.33 3.33 0 0 1-1.222-1.397q-.428-.89-.428-2.038 0-1.163.438-2.054a3.35 3.35 0 0 1 1.233-1.397q.795-.502 1.874-.502.87 0 1.55.323.682.318 1.1.895.422.577.502 1.348h-1.447a1.73 1.73 0 0 0-.547-.925q-.423-.388-1.133-.388-.622 0-1.09.328-.461.324-.72.925-.259.596-.259 1.412 0 .835.254 1.442.254.606.716.94.467.332 1.099.332.422 0 .765-.154.348-.16.582-.452.238-.294.333-.706h1.447a2.8 2.8 0 0 1-.483 1.322 2.8 2.8 0 0 1-1.078.915q-.672.333-1.576.333m6.213-4.688V28h-1.487V17.818h1.467v3.788h.095q.268-.615.82-.979.552-.363 1.442-.363.784 0 1.372.323.592.323.914.965.33.636.329 1.59V28h-1.487v-4.678q0-.84-.432-1.303-.433-.467-1.203-.467-.528 0-.945.224-.413.223-.651.656-.234.428-.234 1.034m10.227 4.688q-1.129 0-1.944-.482a3.27 3.27 0 0 1-1.253-1.367q-.438-.885-.438-2.073 0-1.174.438-2.069a3.4 3.4 0 0 1 1.233-1.397q.795-.502 1.86-.502.645 0 1.252.214.606.213 1.089.671.482.457.76 1.188.279.726.279 1.765v.527h-6.07v-1.113h4.613q0-.587-.239-1.04a1.8 1.8 0 0 0-.67-.72 1.9 1.9 0 0 0-1.005-.264 1.94 1.94 0 0 0-1.094.308 2.07 2.07 0 0 0-.716.796 2.3 2.3 0 0 0-.248 1.059v.87q0 .766.268 1.302.274.538.76.82.488.28 1.14.28.422 0 .77-.12.348-.125.602-.368.254-.244.387-.602l1.407.254a2.55 2.55 0 0 1-.606 1.089 2.94 2.94 0 0 1-1.089.72q-.651.255-1.486.254m7.784-.005a2.96 2.96 0 0 1-1.65-.472q-.722-.477-1.134-1.357-.408-.885-.408-2.123t.413-2.118q.418-.88 1.143-1.348a2.97 2.97 0 0 1 1.646-.467q.711 0 1.143.239.438.234.676.547.245.313.378.552h.09v-3.784h1.486V28h-1.452v-1.188h-.124q-.135.243-.388.557a2.2 2.2 0 0 1-.686.547q-.437.233-1.133.233m.328-1.268q.641 0 1.084-.338.447-.342.676-.95.234-.606.234-1.411 0-.795-.23-1.392-.228-.597-.67-.93t-1.094-.333q-.671 0-1.119.348a2.13 2.13 0 0 0-.676.95q-.224.6-.224 1.357 0 .766.23 1.377.228.611.675.97.453.352 1.114.352m10.414-2.048v-4.47h1.492V28h-1.462v-1.322h-.08a2.4 2.4 0 0 1-.845 1.019q-.576.402-1.437.402-.735 0-1.302-.323a2.27 2.27 0 0 1-.885-.97q-.318-.64-.318-1.585v-4.857h1.486v4.678q0 .78.433 1.243.432.462 1.123.462.419 0 .83-.209.419-.209.692-.631.278-.423.273-1.074m4.975-7.015V28h-1.486V17.818zm2 10.182v-7.636h1.487V28zm.751-8.815a.95.95 0 0 1-.666-.258.84.84 0 0 1-.274-.627.83.83 0 0 1 .274-.626.94.94 0 0 1 .666-.264q.388 0 .661.264a.82.82 0 0 1 .279.626q0 .363-.279.627a.93.93 0 0 1-.661.258m4.222 4.28V28h-1.486v-7.636h1.426v1.242h.095q.263-.606.825-.974.567-.368 1.427-.368.78 0 1.367.328.587.324.91.965.323.64.323 1.586V28h-1.486v-4.678q0-.83-.433-1.298-.432-.472-1.188-.472a1.86 1.86 0 0 0-.92.224q-.397.223-.631.656-.23.428-.229 1.034m10.082 7.558q-.909 0-1.566-.239-.65-.239-1.064-.631a2.65 2.65 0 0 1-.616-.86l1.278-.527q.135.219.358.462.229.249.616.423.392.174 1.01.174.844 0 1.396-.413.552-.408.552-1.303v-1.501h-.094q-.135.243-.388.542a2.1 2.1 0 0 1-.686.517q-.438.219-1.139.219-.904 0-1.63-.423-.72-.427-1.144-1.258-.417-.835-.417-2.053t.412-2.088q.418-.87 1.144-1.332a2.97 2.97 0 0 1 1.645-.468q.711 0 1.149.239.438.234.68.547.25.313.384.552h.11v-1.238h1.456v7.805q0 .984-.458 1.616-.457.63-1.237.934-.776.304-1.75.304m-.014-4.37q.64 0 1.083-.299.448-.303.677-.865.233-.567.233-1.357 0-.77-.228-1.357-.23-.587-.672-.915-.443-.333-1.093-.333-.671 0-1.119.348-.448.343-.676.935-.225.591-.224 1.322 0 .75.229 1.318.229.566.676.884.453.32 1.114.319M17 41h75v2H17z"/><path fill="#8e8c88" d="M111.119 17.818h1.864l3.241 7.915h.12l3.241-7.915h1.865V28h-1.462v-7.368h-.095l-3.002 7.353h-1.213l-3.003-7.358h-.095V28h-1.461zm15.736 10.336q-1.128 0-1.944-.482a3.27 3.27 0 0 1-1.253-1.367q-.437-.885-.437-2.073 0-1.174.437-2.069a3.4 3.4 0 0 1 1.233-1.397q.795-.502 1.86-.502.645 0 1.252.214.608.213 1.089.671.482.457.761 1.188.278.726.278 1.765v.527h-6.07v-1.113h4.614q0-.587-.239-1.04a1.8 1.8 0 0 0-.671-.72 1.9 1.9 0 0 0-1.005-.264q-.626 0-1.093.308a2.06 2.06 0 0 0-.716.796 2.3 2.3 0 0 0-.249 1.059v.87q0 .766.269 1.302.273.538.76.82.488.28 1.139.28.422 0 .77-.12.348-.125.602-.368.253-.244.388-.602l1.407.254a2.55 2.55 0 0 1-.607 1.089 2.9 2.9 0 0 1-1.089.72q-.65.255-1.486.254m7.784-.005a2.96 2.96 0 0 1-1.65-.472q-.722-.477-1.134-1.357-.408-.885-.408-2.123t.413-2.118q.417-.88 1.144-1.348a2.97 2.97 0 0 1 1.645-.467q.71 0 1.144.239.437.234.676.547.243.313.378.552h.089v-3.784h1.487V28h-1.452v-1.188h-.124q-.135.243-.388.557a2.2 2.2 0 0 1-.686.547q-.438.233-1.134.233m.328-1.268q.642 0 1.084-.338.447-.342.676-.95.234-.606.234-1.411 0-.795-.229-1.392-.228-.597-.671-.93-.442-.333-1.094-.333-.67 0-1.118.348a2.1 2.1 0 0 0-.676.95q-.225.6-.224 1.357 0 .766.229 1.377.228.611.676.97.452.352 1.113.352M140.544 28v-7.636h1.487V28zm.751-8.815a.94.94 0 0 1-.666-.258.84.84 0 0 1-.274-.627q0-.368.274-.626a.93.93 0 0 1 .666-.264q.388 0 .661.264a.82.82 0 0 1 .279.626q0 .363-.279.627a.93.93 0 0 1-.661.258m5.952 8.97q-1.108 0-1.909-.503a3.33 3.33 0 0 1-1.223-1.397q-.427-.89-.427-2.038 0-1.163.437-2.054a3.36 3.36 0 0 1 1.233-1.397q.795-.502 1.874-.502.87 0 1.551.323.681.318 1.099.895a2.7 2.7 0 0 1 .502 1.348h-1.446a1.74 1.74 0 0 0-.547-.925q-.423-.388-1.134-.388-.621 0-1.089.328-.462.324-.721.925-.258.596-.258 1.412 0 .835.253 1.442.254.606.716.94.468.332 1.099.332.423 0 .766-.154.348-.16.581-.452.239-.294.334-.706h1.446a2.8 2.8 0 0 1-.482 1.322 2.77 2.77 0 0 1-1.079.915q-.671.333-1.576.333m6.949.014q-.726 0-1.312-.268a2.2 2.2 0 0 1-.93-.79q-.338-.518-.338-1.269 0-.645.249-1.064.248-.417.671-.66a3.5 3.5 0 0 1 .944-.369 9 9 0 0 1 1.064-.189l1.114-.129q.427-.054.621-.174.195-.12.194-.388v-.035q0-.65-.368-1.009-.363-.357-1.084-.358-.75 0-1.183.333-.427.33-.591.731l-1.397-.318q.248-.696.725-1.123a2.95 2.95 0 0 1 1.109-.627 4.3 4.3 0 0 1 1.318-.199q.457 0 .969.11.517.104.965.387.452.285.74.81.29.523.289 1.358V28h-1.452v-1.044h-.06q-.144.288-.432.567t-.741.462-1.084.184m.323-1.193q.617 0 1.054-.244.443-.243.671-.636a1.65 1.65 0 0 0 .234-.85v-.985q-.08.08-.308.15-.224.064-.512.114-.289.045-.562.084l-.457.06a3.7 3.7 0 0 0-.791.184q-.353.129-.567.373-.208.238-.208.636 0 .553.407.835.408.279 1.039.279m8.99-6.612v1.193h-4.171v-1.193zm-3.052-1.83h1.486v7.224q0 .432.129.651a.68.68 0 0 0 .334.293q.209.075.452.075.179 0 .313-.025.135-.024.209-.04l.268 1.228a2.9 2.9 0 0 1-.964.16 2.6 2.6 0 0 1-1.094-.21 1.9 1.9 0 0 1-.82-.675q-.313-.457-.313-1.149zM165.154 28v-7.636h1.486V28zm.75-8.815a.95.95 0 0 1-.666-.258.84.84 0 0 1-.273-.627q0-.368.273-.626a.94.94 0 0 1 .666-.264.92.92 0 0 1 .662.264.83.83 0 0 1 .278.626q0 .363-.278.627a.93.93 0 0 1-.662.258m5.953 8.97q-1.074 0-1.875-.493a3.3 3.3 0 0 1-1.243-1.377q-.442-.886-.442-2.068 0-1.189.442-2.078a3.3 3.3 0 0 1 1.243-1.383q.801-.492 1.875-.492t1.874.492 1.243 1.383q.442.889.442 2.078 0 1.183-.442 2.068a3.3 3.3 0 0 1-1.243 1.377q-.801.492-1.874.492m.005-1.249q.696 0 1.153-.368.457-.367.676-.98.224-.61.224-1.346 0-.732-.224-1.343a2.2 2.2 0 0 0-.676-.989q-.457-.373-1.153-.373-.702 0-1.164.373a2.2 2.2 0 0 0-.681.99 4 4 0 0 0-.219 1.342q0 .736.219 1.347.224.611.681.98.462.367 1.164.367m6.7-3.44V28h-1.487v-7.636h1.427v1.242h.095q.263-.606.825-.974.567-.368 1.427-.368.78 0 1.367.328a2.2 2.2 0 0 1 .91.965q.323.64.323 1.586V28h-1.486v-4.678q0-.83-.433-1.298-.432-.472-1.188-.472-.517 0-.92.224-.398.223-.631.656-.23.428-.229 1.034M189.148 28v-7.636h1.437v1.213h.079q.209-.616.736-.97a2.1 2.1 0 0 1 1.203-.358 6 6 0 0 1 .631.035v1.422a3 3 0 0 0-.318-.055 3 3 0 0 0-.457-.035 1.94 1.94 0 0 0-.94.224 1.66 1.66 0 0 0-.885 1.497V28zm8.391.154q-1.13 0-1.944-.482a3.27 3.27 0 0 1-1.253-1.367q-.438-.885-.438-2.073 0-1.174.438-2.069a3.4 3.4 0 0 1 1.233-1.397q.795-.502 1.859-.502.647 0 1.253.214.606.213 1.089.671.482.457.76 1.188.279.726.279 1.765v.527h-6.071v-1.113h4.614q0-.587-.239-1.04a1.8 1.8 0 0 0-.671-.72 1.87 1.87 0 0 0-1.004-.264q-.627 0-1.094.308a2.07 2.07 0 0 0-.716.796 2.3 2.3 0 0 0-.248 1.059v.87q0 .766.268 1.302.274.538.761.82.487.28 1.138.28.423 0 .771-.12.348-.125.602-.368.254-.244.387-.602l1.407.254a2.55 2.55 0 0 1-.606 1.089 2.94 2.94 0 0 1-1.089.72q-.651.255-1.486.254m8.559-7.79v1.193h-4.315v-1.193zM202.966 28v-8.521q0-.717.313-1.188.313-.478.831-.712a2.65 2.65 0 0 1 1.123-.238 3.4 3.4 0 0 1 .766.075q.318.069.472.129l-.348 1.203a7 7 0 0 0-.268-.07 1.5 1.5 0 0 0-.398-.044q-.542 0-.776.268-.228.269-.228.776V28zm4.666 0v-7.636h1.487V28zm.751-8.815a.94.94 0 0 1-.666-.258.84.84 0 0 1-.274-.627q0-.368.274-.626a.93.93 0 0 1 .666-.264q.387 0 .661.264a.82.82 0 0 1 .278.626q0 .363-.278.627a.93.93 0 0 1-.661.258m4.222-1.367V28h-1.487V17.818zm3.486 0V28h-1.486V17.818zM237.119 28V17.818h3.728q1.084 0 1.795.358.711.353 1.064.96.353.6.353 1.357 0 .636-.234 1.074-.233.432-.626.696a2.8 2.8 0 0 1-.855.378v.1q.507.024.989.327.487.298.805.85.32.552.319 1.343 0 .78-.368 1.402-.363.616-1.124.979-.76.358-1.944.358zm1.536-1.317h2.217q1.104 0 1.581-.428.477-.427.477-1.069a1.7 1.7 0 0 0-.243-.885 1.75 1.75 0 0 0-.696-.641q-.448-.24-1.064-.239h-2.272zm0-4.46h2.058q.518 0 .93-.199.417-.198.661-.557.249-.363.249-.855 0-.63-.443-1.059-.442-.427-1.357-.427h-2.098zM246.159 28v-7.636h1.487V28zm.751-8.815a.95.95 0 0 1-.666-.258.84.84 0 0 1-.273-.627q0-.368.273-.626a.94.94 0 0 1 .666-.264q.388 0 .661.264a.82.82 0 0 1 .279.626q0 .363-.279.627a.93.93 0 0 1-.661.258m4.222-1.367V28h-1.486V17.818zm3.487 0V28h-1.487V17.818zM256.618 28v-7.636h1.487V28zm.751-8.815a.95.95 0 0 1-.666-.258.84.84 0 0 1-.273-.627q0-.368.273-.626a.94.94 0 0 1 .666-.264q.388 0 .661.264a.82.82 0 0 1 .279.626q0 .363-.279.627a.93.93 0 0 1-.661.258m4.222 4.28V28h-1.486v-7.636h1.427v1.242h.094q.264-.606.825-.974.567-.368 1.427-.368.781 0 1.367.328.587.324.91.965.323.64.323 1.586V28h-1.486v-4.678q0-.83-.433-1.298-.432-.472-1.188-.472-.517 0-.92.224a1.6 1.6 0 0 0-.631.656q-.23.428-.229 1.034m10.083 7.558q-.91 0-1.566-.239-.652-.239-1.064-.631a2.7 2.7 0 0 1-.617-.86l1.278-.527q.134.219.358.462.228.249.616.423.393.174 1.01.174.845 0 1.397-.413.55-.408.551-1.303v-1.501h-.094q-.135.243-.388.542a2.1 2.1 0 0 1-.686.517q-.438.219-1.138.219a3.2 3.2 0 0 1-1.631-.423q-.721-.427-1.144-1.258-.417-.835-.417-2.053t.412-2.088q.418-.87 1.144-1.332a2.97 2.97 0 0 1 1.646-.468q.71 0 1.148.239.438.234.681.547.248.313.383.552h.109v-1.238h1.457v7.805q0 .984-.457 1.616-.458.63-1.238.934-.776.304-1.75.304m-.015-4.37q.641 0 1.084-.299.447-.303.676-.865.233-.567.233-1.357 0-.77-.228-1.357a2 2 0 0 0-.672-.915q-.441-.333-1.093-.333-.672 0-1.119.348-.447.343-.676.935a3.7 3.7 0 0 0-.224 1.322q0 .75.229 1.318.228.566.676.884.453.32 1.114.319"/><g clip-path="url(#c)"><mask id="d" fill="#fff"><path d="M31 59h300v44H31z"/></mask><path fill="#e9e8e6" d="M331 103v-1H31v2h300z" mask="url(#d)"/><path fill="#21201d" d="M35.375 86h-3.142V75.818h3.281q1.482 0 2.536.612a4 4 0 0 1 1.616 1.745q.561 1.133.561 2.714 0 1.59-.566 2.74a4.04 4.04 0 0 1-1.651 1.76q-1.084.61-2.635.611m-1.91-1.094h1.83q1.263 0 2.093-.487a3 3 0 0 0 1.238-1.387q.408-.9.408-2.143 0-1.233-.403-2.123a2.97 2.97 0 0 0-1.203-1.372q-.8-.482-1.993-.482h-1.97zm13.484-2.028v-4.514h1.173V86H46.95v-1.293h-.08a2.5 2.5 0 0 1-.835.99q-.567.402-1.432.402-.716 0-1.272-.313a2.2 2.2 0 0 1-.875-.954q-.32-.641-.319-1.616v-4.852h1.174v4.772q0 .835.467 1.333.473.497 1.203.497.438 0 .89-.224.457-.224.766-.686.313-.462.313-1.178M50.27 86v-7.636h1.134v1.153h.08q.207-.567.755-.92a2.2 2.2 0 0 1 1.233-.353q.13 0 .323.005.195.006.293.015v1.193q-.06-.015-.273-.044a3 3 0 0 0-.443-.035q-.556 0-.994.234a1.76 1.76 0 0 0-.686.636 1.7 1.7 0 0 0-.249.92V86zm7.456.179q-.726 0-1.317-.273a2.26 2.26 0 0 1-.94-.8q-.348-.528-.348-1.274 0-.656.259-1.063.258-.413.69-.647.434-.234.955-.348.528-.12 1.06-.189.695-.09 1.128-.134.437-.05.636-.164.204-.114.204-.398v-.04q0-.735-.403-1.143-.398-.408-1.208-.408-.84 0-1.317.368-.478.368-.671.786l-1.114-.398q.298-.696.795-1.084.503-.393 1.094-.547a4.5 4.5 0 0 1 1.173-.159q.368 0 .846.09.481.084.93.353t.75.81q.298.542.298 1.452V86h-1.173v-1.034h-.06q-.12.249-.397.532-.279.284-.741.482-.462.2-1.129.199m.18-1.054q.694 0 1.173-.273a1.86 1.86 0 0 0 .974-1.616v-1.074q-.075.09-.328.164a6 6 0 0 1-.577.124 26 26 0 0 1-1.123.15q-.457.06-.856.193a1.5 1.5 0 0 0-.636.393q-.239.258-.239.706 0 .612.453.925.457.308 1.158.308m8.783-6.761v.994H62.73v-.994zm-2.804-1.83h1.173v7.278q0 .498.144.746.15.244.378.328.234.08.492.08.195 0 .319-.02l.198-.04.239 1.054q-.12.045-.333.09-.214.05-.542.05-.497 0-.974-.214a1.94 1.94 0 0 1-.786-.652q-.308-.437-.308-1.103zM68.455 86v-7.636h1.173V86zm.596-8.91a.83.83 0 0 1-.591-.233.75.75 0 0 1-.244-.561.75.75 0 0 1 .244-.562.83.83 0 0 1 .591-.234q.344 0 .587.234a.74.74 0 0 1 .248.562.74.74 0 0 1-.248.561.82.82 0 0 1-.587.234m5.828 9.07q-1.035 0-1.814-.493a3.34 3.34 0 0 1-1.213-1.377q-.433-.885-.433-2.068 0-1.194.433-2.084a3.34 3.34 0 0 1 1.213-1.382q.78-.492 1.814-.492t1.81.492q.78.494 1.213 1.382.438.89.438 2.084 0 1.183-.438 2.068a3.3 3.3 0 0 1-1.213 1.377q-.775.492-1.81.492m0-1.055q.786 0 1.293-.403.507-.402.75-1.058.244-.657.244-1.422t-.243-1.427a2.4 2.4 0 0 0-.751-1.07q-.508-.406-1.293-.407t-1.292.408a2.4 2.4 0 0 0-.751 1.069q-.244.66-.244 1.427 0 .765.244 1.422t.75 1.058q.508.403 1.293.403m6.425-3.699V86H80.13v-7.636h1.134v1.193h.1q.267-.582.815-.935.546-.358 1.412-.358.776 0 1.357.318.582.314.905.955.323.636.323 1.61V86h-1.173v-4.773q0-.9-.468-1.402-.467-.507-1.282-.507-.562 0-1.005.244-.437.244-.69.71-.255.468-.254 1.134m173.19 4.734q-.984 0-1.755-.339a3 3 0 0 1-1.218-.94 2.53 2.53 0 0 1-.487-1.407h1.253q.04.493.338.85.298.353.781.548.481.194 1.068.194.657 0 1.164-.23.507-.228.795-.636.288-.407.289-.944a1.77 1.77 0 0 0-.279-.99 1.84 1.84 0 0 0-.815-.676q-.537-.243-1.313-.243h-.815v-1.094h.815q.607 0 1.064-.219.463-.219.721-.616a1.65 1.65 0 0 0 .264-.935q0-.517-.229-.9a1.57 1.57 0 0 0-.646-.596 2.1 2.1 0 0 0-.975-.214q-.527 0-.994.194-.462.189-.756.552a1.44 1.44 0 0 0-.318.865h-1.193q.03-.8.482-1.402a3.04 3.04 0 0 1 1.183-.945 3.8 3.8 0 0 1 1.616-.338q.945 0 1.621.383.676.378 1.039 1 .363.62.363 1.341 0 .861-.453 1.467a2.3 2.3 0 0 1-1.218.84v.08q.964.16 1.507.82.542.657.542 1.626 0 .83-.453 1.491a3.1 3.1 0 0 1-1.223 1.034q-.775.378-1.765.378m8.795 0q-1.124 0-1.914-.612-.79-.617-1.208-1.785-.418-1.173-.418-2.834 0-1.65.418-2.819.423-1.173 1.213-1.79.795-.621 1.909-.621t1.904.621q.796.617 1.213 1.79.423 1.17.423 2.82 0 1.659-.418 2.833-.417 1.168-1.208 1.785-.79.61-1.914.611m0-1.094q1.113 0 1.73-1.074t.617-3.063q0-1.323-.284-2.252-.278-.93-.805-1.417a1.78 1.78 0 0 0-1.258-.487q-1.104 0-1.725 1.089-.622 1.083-.622 3.067 0 1.322.279 2.247.278.926.8 1.407.527.483 1.268.483m9.386.954v-7.636h1.134v1.193h.099q.238-.612.771-.95.533-.343 1.278-.343.755 0 1.257.343.508.338.791.95h.08a2.2 2.2 0 0 1 .879-.94q.588-.353 1.407-.353 1.025 0 1.676.642.651.636.651 1.983V86h-1.173v-5.11q0-.846-.463-1.209a1.7 1.7 0 0 0-1.088-.363q-.805 0-1.248.487-.443.483-.443 1.223V86h-1.193v-5.23q0-.651-.422-1.05-.423-.402-1.089-.402-.457 0-.855.244a1.85 1.85 0 0 0-.637.676 2 2 0 0 0-.238.99V86zm12.168 0v-7.636h1.174V86zm.597-8.91a.84.84 0 0 1-.592-.233.75.75 0 0 1-.243-.561q0-.33.243-.562a.84.84 0 0 1 .592-.234q.343 0 .587.234a.75.75 0 0 1 .248.562.75.75 0 0 1-.248.561.82.82 0 0 1-.587.234m3.899 4.316V86h-1.173v-7.636h1.133v1.193h.1q.268-.582.815-.935.547-.358 1.412-.358.775 0 1.357.318.582.314.905.955.323.636.323 1.61V86h-1.173v-4.773q0-.9-.468-1.402-.467-.507-1.282-.507-.562 0-1.004.244a1.74 1.74 0 0 0-.691.71q-.255.468-.254 1.134m12.425-1.332-1.054.298a2 2 0 0 0-.293-.512 1.4 1.4 0 0 0-.517-.418q-.329-.164-.84-.164-.702 0-1.169.324-.462.318-.462.81 0 .438.318.691t.994.423l1.134.278q1.025.25 1.526.76.502.509.502 1.308 0 .657-.377 1.174-.374.516-1.044.815-.671.298-1.562.298-1.168 0-1.933-.507t-.97-1.481l1.114-.279q.159.617.601.925.448.308 1.169.308.82 0 1.302-.348.487-.353.487-.845a.9.9 0 0 0-.278-.666q-.279-.275-.855-.408l-1.273-.298q-1.049-.25-1.541-.77-.487-.528-.487-1.318 0-.646.363-1.144.367-.496.999-.78a3.5 3.5 0 0 1 1.442-.284q1.133 0 1.779.497.652.498.925 1.313"/><path stroke="#8e8c88" stroke-linecap="round" stroke-linejoin="round" stroke-width="1.1" d="M322.75 79.5 319 83.25l-3.75-3.75"/><path fill="#21201d" d="M32.233 130v-10.182h3.44q1.199 0 1.96.433.764.428 1.133 1.158.367.73.367 1.631a3.6 3.6 0 0 1-.367 1.635 2.74 2.74 0 0 1-1.124 1.174q-.76.432-1.949.432h-2.466v-1.093h2.426q.82 0 1.318-.284a1.7 1.7 0 0 0 .72-.766q.23-.487.23-1.098t-.23-1.094a1.64 1.64 0 0 0-.725-.756q-.502-.278-1.333-.278h-2.167V130zm8.728 0v-7.636h1.133v1.153h.08q.208-.566.755-.92a2.23 2.23 0 0 1 1.233-.353q.13 0 .323.005.194.006.294.015v1.193a4 4 0 0 0-.274-.044 2.6 2.6 0 0 0-.442-.035q-.557 0-.995.234a1.71 1.71 0 0 0-.935 1.556V130zm8.078.159q-1.034 0-1.814-.492a3.34 3.34 0 0 1-1.213-1.377q-.433-.886-.433-2.068 0-1.193.433-2.084a3.34 3.34 0 0 1 1.213-1.382q.78-.492 1.814-.492t1.81.492q.78.493 1.213 1.382.438.89.438 2.084 0 1.182-.438 2.068a3.3 3.3 0 0 1-1.213 1.377q-.775.492-1.81.492m0-1.054q.786 0 1.293-.403.507-.402.75-1.059a4 4 0 0 0 .244-1.421q0-.766-.243-1.427a2.4 2.4 0 0 0-.751-1.069q-.507-.408-1.293-.408t-1.292.408a2.4 2.4 0 0 0-.75 1.069 4.1 4.1 0 0 0-.245 1.427q0 .765.244 1.421.244.657.75 1.059.509.403 1.293.403m11.222-6.741L57.439 130h-1.194l-2.823-7.636h1.272l2.108 6.085h.08l2.108-6.085zm1.55 7.636v-7.636h1.172V130zm.596-8.909a.83.83 0 0 1-.592-.234.75.75 0 0 1-.243-.562q0-.328.243-.561a.83.83 0 0 1 .592-.234q.343 0 .586.234a.74.74 0 0 1 .249.561.74.74 0 0 1-.249.562.82.82 0 0 1-.586.234m5.609 9.068q-.954 0-1.685-.482-.732-.487-1.144-1.372-.412-.891-.412-2.103 0-1.203.412-2.088.413-.885 1.149-1.368.735-.482 1.7-.482.746 0 1.178.249.438.243.666.557.234.308.363.507h.1v-3.759h1.173V130h-1.134v-1.173h-.139a8 8 0 0 1-.368.527q-.239.313-.68.561-.443.244-1.179.244m.16-1.054q.705 0 1.192-.368.488-.372.741-1.029.255-.661.254-1.526 0-.855-.249-1.497-.249-.646-.736-1.004-.487-.363-1.203-.363-.745 0-1.243.383a2.3 2.3 0 0 0-.74 1.029 4.1 4.1 0 0 0-.244 1.452q0 .815.248 1.481.255.661.746 1.054.498.388 1.233.388m8.853 1.054q-1.103 0-1.904-.487a3.27 3.27 0 0 1-1.228-1.372q-.427-.885-.427-2.059 0-1.173.427-2.068.434-.9 1.203-1.402.776-.507 1.81-.507.597 0 1.178.199.582.2 1.06.646.477.442.76 1.174.283.73.283 1.799v.498h-5.886v-1.015h4.693a2.5 2.5 0 0 0-.258-1.153 1.94 1.94 0 0 0-.726-.8q-.468-.294-1.104-.294-.7 0-1.213.348a2.3 2.3 0 0 0-.78.895 2.6 2.6 0 0 0-.274 1.183v.676q0 .865.298 1.467.305.597.84.91.538.308 1.248.308.463 0 .836-.129a1.8 1.8 0 0 0 .651-.398q.273-.269.423-.666l1.133.318q-.18.577-.602 1.014-.423.433-1.043.676-.622.24-1.398.239m4.947-.159v-7.636h1.134v1.153h.08q.208-.566.755-.92a2.23 2.23 0 0 1 1.233-.353q.13 0 .323.005.194.006.293.015v1.193q-.06-.015-.273-.044a2.6 2.6 0 0 0-.442-.035q-.558 0-.995.234a1.76 1.76 0 0 0-.686.636 1.7 1.7 0 0 0-.248.92V130zm10.618-5.926-1.054.298a2 2 0 0 0-.293-.512 1.4 1.4 0 0 0-.517-.418q-.328-.164-.84-.164-.701 0-1.169.324-.462.318-.462.81 0 .438.318.691t.995.423l1.133.278q1.025.248 1.526.761.503.507.503 1.307 0 .657-.378 1.173-.373.518-1.044.816-.672.298-1.561.298-1.17 0-1.934-.507-.766-.507-.97-1.482l1.114-.278q.159.616.601.925.448.308 1.169.308.82 0 1.302-.348.487-.353.487-.845a.9.9 0 0 0-.278-.666q-.278-.275-.855-.408l-1.273-.298q-1.05-.249-1.541-.771-.487-.527-.487-1.317 0-.646.363-1.144a2.5 2.5 0 0 1 .999-.78 3.5 3.5 0 0 1 1.442-.284q1.133 0 1.78.497.651.498.924 1.313M221.651 130h-1.293l3.739-10.182h1.272L229.108 130h-1.293l-3.042-8.571h-.08zm.477-3.977h5.21v1.093h-5.21zm9.58-6.205V130h-1.173v-10.182zm3.322 0V130h-1.173v-10.182zm6.087 13.046v-10.5h1.133v1.213h.14q.129-.2.358-.507.233-.314.666-.557.437-.249 1.183-.249.965 0 1.7.482.736.483 1.149 1.368.412.885.412 2.088 0 1.212-.412 2.103-.413.885-1.144 1.372-.73.482-1.685.482-.736 0-1.178-.244a2.2 2.2 0 0 1-.682-.561 8 8 0 0 1-.367-.527h-.1v4.037zm1.153-6.682q0 .865.254 1.526.254.657.741 1.029.486.368 1.193.368.736 0 1.228-.388.497-.393.745-1.054.254-.666.254-1.481 0-.806-.249-1.452a2.24 2.24 0 0 0-.74-1.029q-.492-.383-1.238-.383-.717 0-1.203.363-.487.358-.736 1.004-.249.642-.249 1.497m7.378 3.818v-7.636h1.134v1.153h.079q.209-.566.756-.92a2.2 2.2 0 0 1 1.233-.353q.13 0 .323.005.194.006.293.015v1.193a4 4 0 0 0-.273-.044 2.6 2.6 0 0 0-.443-.035q-.556 0-.994.234a1.71 1.71 0 0 0-.935 1.556V130zm8.079.159q-1.034 0-1.815-.492a3.35 3.35 0 0 1-1.213-1.377q-.432-.886-.432-2.068 0-1.193.432-2.084a3.35 3.35 0 0 1 1.213-1.382q.781-.492 1.815-.492t1.81.492q.78.493 1.213 1.382.437.89.437 2.084 0 1.182-.437 2.068a3.3 3.3 0 0 1-1.213 1.377q-.776.492-1.81.492m0-1.054q.785 0 1.293-.403.507-.402.75-1.059.244-.656.244-1.421 0-.766-.244-1.427a2.4 2.4 0 0 0-.75-1.069q-.508-.408-1.293-.408-.786 0-1.293.408a2.4 2.4 0 0 0-.75 1.069 4.1 4.1 0 0 0-.244 1.427q0 .765.244 1.421.243.657.75 1.059.507.403 1.293.403m11.222-6.741L266.125 130h-1.193l-2.824-7.636h1.273l2.108 6.085h.079l2.108-6.085zm1.549 7.636v-7.636h1.173V130zm.596-8.909a.83.83 0 0 1-.591-.234.75.75 0 0 1-.244-.562q0-.328.244-.561a.83.83 0 0 1 .591-.234q.344 0 .587.234a.74.74 0 0 1 .249.561.74.74 0 0 1-.249.562.82.82 0 0 1-.587.234m5.609 9.068q-.954 0-1.685-.482-.73-.487-1.143-1.372-.413-.891-.413-2.103 0-1.203.413-2.088t1.148-1.368q.736-.482 1.7-.482.746 0 1.179.249.436.243.666.557.234.308.363.507h.099v-3.759h1.173V130h-1.133v-1.173h-.139a8 8 0 0 1-.368.527 2.2 2.2 0 0 1-.681.561q-.442.244-1.179.244m.16-1.054q.705 0 1.193-.368.487-.372.741-1.029.253-.661.253-1.526 0-.855-.249-1.497-.248-.646-.735-1.004-.488-.363-1.203-.363-.747 0-1.243.383a2.3 2.3 0 0 0-.741 1.029 4.1 4.1 0 0 0-.244 1.452q0 .815.249 1.481.253.661.746 1.054.496.388 1.233.388m8.854 1.054q-1.104 0-1.904-.487a3.27 3.27 0 0 1-1.228-1.372q-.428-.885-.428-2.059 0-1.173.428-2.068.432-.9 1.203-1.402.775-.507 1.81-.507.596 0 1.178.199.582.2 1.059.646.477.442.761 1.174.283.73.283 1.799v.498h-5.886v-1.015h4.693q0-.646-.259-1.153a1.94 1.94 0 0 0-.726-.8q-.467-.294-1.103-.294-.702 0-1.213.348a2.3 2.3 0 0 0-.781.895 2.6 2.6 0 0 0-.273 1.183v.676q0 .865.298 1.467.303.597.84.91.537.308 1.248.308.462 0 .835-.129.378-.135.651-.398.274-.269.423-.666l1.134.318a2.5 2.5 0 0 1-.602 1.014q-.423.433-1.044.676-.621.24-1.397.239m4.947-.159v-7.636h1.133v1.153h.08q.209-.566.755-.92a2.23 2.23 0 0 1 1.233-.353q.13 0 .324.005.194.006.293.015v1.193a4 4 0 0 0-.274-.044 2.6 2.6 0 0 0-.442-.035q-.557 0-.994.234a1.71 1.71 0 0 0-.935 1.556V130zm10.618-5.926-1.054.298a2 2 0 0 0-.294-.512 1.4 1.4 0 0 0-.517-.418q-.327-.164-.84-.164-.701 0-1.168.324-.462.318-.462.81 0 .438.318.691t.994.423l1.134.278q1.023.248 1.526.761.502.507.502 1.307 0 .657-.378 1.173-.372.518-1.044.816-.671.298-1.561.298-1.168 0-1.934-.507-.765-.507-.969-1.482l1.113-.278q.16.616.602.925.447.308 1.168.308.82 0 1.303-.348.487-.353.487-.845a.9.9 0 0 0-.278-.666q-.279-.275-.856-.408l-1.272-.298q-1.05-.249-1.542-.771-.486-.527-.487-1.317 0-.646.363-1.144.368-.496.999-.78a3.5 3.5 0 0 1 1.442-.284q1.134 0 1.78.497.65.498.925 1.313"/><path stroke="#8e8c88" stroke-linecap="round" stroke-linejoin="round" stroke-width="1.1" d="m322.75 123.5-3.75 3.75-3.75-3.75"/></g><rect width="327" height="87" x="17.5" y="59.5" stroke="#e9e8e6" rx="5.5"/></g><defs><clipPath id="a"><rect width="360" height="138" x="1" y="9" fill="#fff" rx="12"/></clipPath><clipPath id="c"><rect width="328" height="88" x="17" y="59" fill="#fff" rx="6"/></clipPath></defs></svg>