<svg preserveAspectRatio="none" width="100%" height="100%" overflow="visible" style="display: block;" viewBox="0 0 26.7361 26.7361" fill="none" xmlns="http://www.w3.org/2000/svg">
<g id="Button Icon">
<path d="M5.72949 0.477539H21.0068C23.9073 0.477539 26.2588 2.82904 26.2588 5.72949V21.0068C26.2588 23.9073 23.9073 26.2588 21.0068 26.2588H5.72949C2.82904 26.2588 0.477539 23.9073 0.477539 21.0068V5.72949C0.477539 2.82904 2.82904 0.477539 5.72949 0.477539Z" fill="var(--fill-0, white)"/>
<path d="M5.72949 0.477539H21.0068C23.9073 0.477539 26.2588 2.82904 26.2588 5.72949V21.0068C26.2588 23.9073 23.9073 26.2588 21.0068 26.2588H5.72949C2.82904 26.2588 0.477539 23.9073 0.477539 21.0068V5.72949C0.477539 2.82904 2.82904 0.477539 5.72949 0.477539Z" stroke="var(--stroke-0, #E9E8E6)" stroke-width="0.954861"/>
<path id="Vector" d="M9.47581 7.67592C9.62342 7.67876 9.76778 7.72163 9.89377 7.79995L17.7102 12.6554H17.7112C17.8317 12.7294 17.9311 12.8344 18.0002 12.9591C18.0693 13.0839 18.106 13.2251 18.1057 13.3683C18.106 13.5115 18.0693 13.6527 18.0002 13.7775C17.9311 13.902 17.8315 14.0063 17.7112 14.0802H17.7102L9.89377 18.9357C9.76776 19.014 9.62345 19.0569 9.47581 19.0597C9.36501 19.0618 9.25486 19.0415 9.15256 19.0001L9.05295 18.9513C8.92541 18.8789 8.81848 18.7737 8.74436 18.6456C8.67025 18.5176 8.63132 18.3714 8.63108 18.2228V8.51381C8.63129 8.36531 8.67038 8.21897 8.74436 8.09096C8.79993 7.99494 8.87401 7.91113 8.96116 7.84487L9.05295 7.78432C9.18182 7.71072 9.32805 7.67314 9.47581 7.67592Z" fill="var(--fill-0, #21201D)" stroke="var(--stroke-0, #21201D)" stroke-width="0.0745985"/>
</g>
</svg>
