<svg width="403" height="164" viewBox="0 0 403 164" fill="none" xmlns="http://www.w3.org/2000/svg">
<rect x="1.33086" y="0.45382" width="401" height="160" rx="8.5" transform="rotate(0.312855 1.33086 0.45382)" fill="white"/>
<rect x="1.33086" y="0.45382" width="401" height="160" rx="8.5" transform="rotate(0.312855 1.33086 0.45382)" stroke="#E9E8E6"/>
<rect x="13.7656" y="13.022" width="376" height="34" rx="6" transform="rotate(0.312855 13.7656 13.022)" fill="#F8F8F7"/>
<rect x="16.2551" y="15.5357" width="123" height="29" rx="3.5" transform="rotate(0.312855 16.2551 15.5357)" fill="white"/>
<rect x="16.2551" y="15.5357" width="123" height="29" rx="3.5" transform="rotate(0.312855 16.2551 15.5357)" stroke="#E9E8E6"/>
<path d="M43.815 26.327L43.8222 25.0046L51.702 25.0476L51.6948 26.37L48.518 26.3527L48.4696 35.2119L46.9384 35.2036L46.9868 26.3443L43.815 26.327ZM52.4754 35.2338L52.5171 27.5976L53.9539 27.6054L53.9473 28.8185L54.0268 28.8189C54.1683 28.4087 54.4153 28.0869 54.7679 27.8535C55.1238 27.6168 55.5255 27.4996 55.973 27.5021C56.0658 27.5026 56.1751 27.5065 56.301 27.5138C56.4303 27.5212 56.5313 27.53 56.6042 27.5403L56.5964 28.9622C56.5368 28.9453 56.4309 28.9265 56.2785 28.9058C56.1262 28.8817 55.9738 28.8693 55.8213 28.8685C55.47 28.8666 55.1564 28.9394 54.8805 29.0871C54.6079 29.2314 54.3914 29.4341 54.2309 29.695C54.0704 29.9527 53.9892 30.2472 53.9874 30.5787L53.9619 35.2419L52.4754 35.2338ZM60.0014 35.4439C59.5175 35.4413 59.0805 35.3494 58.6904 35.1683C58.3003 34.9839 57.9918 34.7187 57.765 34.3728C57.5415 34.0268 57.4311 33.6037 57.4339 33.1032C57.4362 32.6723 57.521 32.3181 57.6883 32.0406C57.8555 31.7631 58.0804 31.544 58.363 31.3831C58.6456 31.2222 58.9612 31.1013 59.3096 31.0204C59.6581 30.9394 60.0131 30.8784 60.3746 30.8373C60.8322 30.7867 61.2037 30.7457 61.4889 30.7141C61.7741 30.6792 61.9816 30.6223 62.1113 30.5435C62.241 30.4646 62.3063 30.3357 62.3073 30.1567L62.3075 30.1219C62.3098 29.6878 62.1891 29.3507 61.9451 29.1107C61.7045 28.8708 61.3438 28.7495 60.8633 28.7468C60.3628 28.7441 59.9678 28.853 59.6782 29.0735C59.392 29.2907 59.1935 29.5332 59.0826 29.8011L57.6874 29.4753C57.8556 29.0122 58.0996 28.639 58.4193 28.3557C58.7424 28.0691 59.1131 27.8623 59.5314 27.7353C59.9497 27.605 60.3892 27.5411 60.8499 27.5436C61.1549 27.5453 61.4778 27.5835 61.8188 27.6583C62.1631 27.7298 62.4839 27.8608 62.7811 28.0513C63.0817 28.2419 63.3272 28.5134 63.5175 28.8657C63.7078 29.2148 63.8015 29.6677 63.7984 30.2245L63.7707 35.2955L62.319 35.2876L62.3247 34.2435L62.2651 34.2432C62.1679 34.4349 62.0227 34.6231 61.8295 34.8076C61.6362 34.9922 61.3885 35.1449 61.0862 35.2659C60.7839 35.3869 60.4223 35.4462 60.0014 35.4439ZM60.3311 34.2525C60.742 34.2548 61.0938 34.1755 61.3863 34.0147C61.6822 33.8539 61.9071 33.643 62.061 33.382C62.2182 33.1177 62.2976 32.8348 62.2993 32.5332L62.3047 31.5488C62.2513 31.6015 62.1483 31.6507 61.9956 31.6963C61.8462 31.7385 61.6753 31.7757 61.4829 31.8078C61.2905 31.8366 61.1031 31.8637 60.9207 31.8893C60.7383 31.9115 60.5857 31.9305 60.463 31.9464C60.1744 31.9813 59.9106 32.0412 59.6715 32.126C59.4357 32.2109 59.2461 32.3342 59.1027 32.4958C58.9626 32.6541 58.8919 32.8659 58.8904 33.131C58.8884 33.4989 59.0228 33.7781 59.2935 33.9685C59.5643 34.1556 59.9101 34.2503 60.3311 34.2525ZM67.2619 30.7804L67.2371 35.3144L65.7506 35.3063L65.7923 27.6701L67.2192 27.6778L67.2124 28.9207L67.3068 28.9212C67.4847 28.5179 67.7616 28.1945 68.1374 27.9513C68.5166 27.7081 68.9929 27.5881 69.5663 27.5912C70.0866 27.5941 70.5417 27.7059 70.9316 27.9268C71.3215 28.1444 71.6231 28.4675 71.8362 28.8963C72.0492 29.325 72.1541 29.8542 72.1506 30.4839L72.1241 35.3411L70.6376 35.333L70.6632 30.6548C70.6662 30.1013 70.5244 29.668 70.2377 29.3549C69.9511 29.0384 69.5559 28.8788 69.0521 28.8761C68.7074 28.8742 68.4005 28.9471 68.1312 29.0948C67.8652 29.2425 67.6536 29.4601 67.4962 29.7476C67.3422 30.0318 67.2641 30.376 67.2619 30.7804ZM79.8714 29.6113L78.5228 29.8426C78.4674 29.6699 78.3789 29.5054 78.2571 29.3489C78.1386 29.1925 77.9769 29.064 77.772 28.9635C77.567 28.8629 77.3104 28.8118 77.0022 28.8101C76.5813 28.8078 76.2294 28.9004 75.9467 29.0877C75.6639 29.2718 75.5218 29.5113 75.5202 29.8063C75.5188 30.0615 75.6121 30.2675 75.8002 30.4243C75.9882 30.5811 76.2925 30.7104 76.7128 30.8121L77.9244 31.0971C78.6261 31.2634 79.1484 31.5165 79.4913 31.8564C79.8341 32.1964 80.0041 32.6365 80.0011 33.1767C79.9986 33.6341 79.8638 34.041 79.5967 34.3975C79.3329 34.7507 78.9652 35.0271 78.4934 35.2267C78.025 35.4264 77.4826 35.5245 76.8661 35.5211C76.011 35.5165 75.3143 35.3304 74.7761 34.9628C74.2379 34.592 73.9093 34.0682 73.7903 33.3914L75.2283 33.1805C75.3157 33.5555 75.4981 33.8399 75.7755 34.0336C76.0529 34.224 76.4153 34.3205 76.8627 34.3229C77.3499 34.3256 77.7399 34.2266 78.0327 34.026C78.3254 33.8222 78.4726 33.5727 78.4743 33.2777C78.4756 33.0391 78.3872 32.8381 78.2091 32.6747C78.0343 32.5114 77.7649 32.3873 77.4007 32.3024L76.1097 32.012C75.398 31.8457 74.8724 31.5843 74.533 31.2278C74.1969 30.8713 74.0303 30.4213 74.0332 29.8777C74.0357 29.427 74.1638 29.0333 74.4175 28.6966C74.6713 28.3599 75.0207 28.0983 75.4659 27.9118C75.911 27.722 76.4203 27.6287 76.9937 27.6318C77.819 27.6363 78.4676 27.8188 78.9396 28.1794C79.4116 28.5366 79.7222 29.0139 79.8714 29.6113ZM84.8392 35.5647C84.1001 35.5606 83.4646 35.3898 82.9329 35.0521C82.4044 34.7112 81.9993 34.2433 81.7175 33.6484C81.4357 33.0536 81.2969 32.3734 81.3011 31.6078C81.3053 30.8322 81.4549 30.1486 81.7498 29.5569C82.0447 28.9619 82.4582 28.4985 82.9903 28.1667C83.5225 27.8348 84.1481 27.6709 84.8673 27.6748C85.4474 27.6779 85.9638 27.7885 86.4167 28.0064C86.8696 28.221 87.2342 28.5213 87.5105 28.9073C87.7901 29.2933 87.9551 29.7433 88.0053 30.2573L86.5586 30.2494C86.481 29.891 86.3004 29.5818 86.0167 29.3217C85.7364 29.0616 85.3593 28.9303 84.8854 28.9277C84.4711 28.9255 84.1075 29.0329 83.7948 29.2499C83.4854 29.4637 83.2434 29.7706 83.0689 30.1707C82.8944 30.5675 82.8056 31.0376 82.8027 31.5812C82.7996 32.138 82.8815 32.619 83.0483 33.0243C83.2152 33.4296 83.4521 33.7441 83.7591 33.9678C84.0694 34.1916 84.4351 34.3046 84.856 34.3069C85.1377 34.3085 85.3932 34.2585 85.6224 34.157C85.855 34.0522 86.0497 33.9024 86.2066 33.7077C86.3667 33.5131 86.479 33.2784 86.5435 33.0036L87.9902 33.0115C87.9345 33.5051 87.7714 33.945 87.5008 34.3313C87.2302 34.7176 86.8689 35.0206 86.417 35.2402C85.9683 35.4598 85.4424 35.568 84.8392 35.5647ZM89.5667 35.4364L89.6084 27.8001L91.0452 27.8079L91.0385 29.021L91.1181 29.0214C91.2595 28.6112 91.5065 28.2894 91.8591 28.056C92.2151 27.8193 92.6168 27.7022 93.0642 27.7046C93.157 27.7051 93.2664 27.709 93.3923 27.7164C93.5215 27.7237 93.6225 27.7325 93.6954 27.7429L93.6876 29.1647C93.6281 29.1478 93.5221 29.129 93.3698 29.1083C93.2174 29.0843 93.065 29.0718 92.9126 29.071C92.5613 29.0691 92.2476 29.1419 91.9717 29.2896C91.6992 29.4339 91.4826 29.6366 91.3221 29.8976C91.1616 30.1552 91.0804 30.4497 91.0786 30.7812L91.0532 35.4445L89.5667 35.4364ZM94.9397 35.4657L94.9813 27.8294L96.4678 27.8376L96.4261 35.4738L94.9397 35.4657ZM95.7385 26.6553C95.48 26.6539 95.2584 26.5665 95.0737 26.3931C94.8924 26.2165 94.8024 26.0072 94.8037 25.7652C94.805 25.52 94.8973 25.3117 95.0806 25.1403C95.2671 24.9657 95.4897 24.879 95.7482 24.8805C96.0067 24.8819 96.2266 24.9709 96.4079 25.1476C96.5926 25.3209 96.6843 25.5302 96.6829 25.7755C96.6816 26.0174 96.5877 26.2257 96.4011 26.4004C96.2179 26.5717 95.997 26.6567 95.7385 26.6553ZM98.4103 38.3483L98.4676 27.8485L99.9193 27.8564L99.9125 29.0943L100.037 29.095C100.124 28.9364 100.249 28.7531 100.413 28.5452C100.576 28.3373 100.803 28.1562 101.092 28.002C101.381 27.8445 101.763 27.767 102.237 27.7696C102.853 27.773 103.402 27.9318 103.885 28.246C104.367 28.5601 104.744 29.0113 105.016 29.5995C105.291 30.1876 105.426 30.8943 105.422 31.7196C105.417 32.5449 105.276 33.2517 104.998 33.8402C104.719 34.4253 104.339 34.8757 103.857 35.1912C103.374 35.5035 102.825 35.6579 102.208 35.6545C101.744 35.652 101.365 35.572 101.071 35.4147C100.78 35.2573 100.553 35.0737 100.388 34.864C100.224 34.6543 100.097 34.468 100.008 34.3051L99.9189 34.3046L99.8968 38.3564L98.4103 38.3483ZM99.9034 31.6746C99.9005 32.2115 99.9758 32.6825 100.129 33.0877C100.283 33.4929 100.507 33.8107 100.8 34.041C101.094 34.268 101.455 34.3826 101.882 34.385C102.326 34.3874 102.698 34.2718 102.998 34.0381C103.297 33.8011 103.525 33.4792 103.679 33.0723C103.837 32.6655 103.918 32.2069 103.92 31.6965C103.923 31.1927 103.849 30.7399 103.699 30.338C103.552 29.9362 103.329 29.6184 103.028 29.3848C102.731 29.1511 102.359 29.0331 101.912 29.0307C101.481 29.0283 101.115 29.1373 100.816 29.3578C100.52 29.5782 100.294 29.8869 100.14 30.2838C99.9851 30.6807 99.9063 31.1443 99.9034 31.6746ZM110.673 27.9151L110.666 29.1083L106.495 29.0855L106.502 27.8923L110.673 27.9151ZM107.63 26.0689L109.117 26.0771L109.077 33.3007C109.076 33.589 109.118 33.8063 109.203 33.9526C109.288 34.0956 109.399 34.194 109.534 34.2478C109.673 34.2983 109.824 34.3239 109.986 34.3248C110.106 34.3255 110.21 34.3178 110.3 34.3017C110.389 34.2856 110.459 34.2727 110.509 34.263L110.771 35.4925C110.684 35.5251 110.561 35.5576 110.402 35.5899C110.243 35.6255 110.044 35.6443 109.805 35.6463C109.414 35.6508 109.05 35.5792 108.713 35.4315C108.375 35.2838 108.103 35.057 107.896 34.7509C107.689 34.4449 107.587 34.0615 107.589 33.6008L107.63 26.0689Z" fill="#21201D"/>
<path d="M178.769 35.9234L178.824 25.7417L182.454 25.7615C183.246 25.7659 183.901 25.9136 184.42 26.2048C184.939 26.496 185.326 26.8925 185.582 27.3944C185.838 27.893 185.964 28.4538 185.96 29.0769C185.957 29.7033 185.823 30.266 185.558 30.7651C185.297 31.2608 184.904 31.6531 184.379 31.9419C183.857 32.2274 183.201 32.368 182.412 32.3637L179.917 32.3501L179.924 31.0475L182.28 31.0604C182.781 31.0631 183.187 30.9792 183.5 30.8085C183.812 30.6346 184.042 30.3972 184.19 30.0964C184.337 29.7956 184.412 29.4529 184.414 29.0685C184.416 28.684 184.345 28.3422 184.201 28.0431C184.057 27.744 183.828 27.5091 183.514 27.3384C183.203 27.1676 182.793 27.0809 182.282 27.0781L180.353 27.0676L180.305 35.9318L178.769 35.9234ZM189.757 36.1524C189.273 36.1498 188.836 36.0579 188.446 35.8768C188.056 35.6924 187.748 35.4272 187.521 35.0812C187.297 34.7353 187.187 34.3121 187.19 33.8117C187.192 33.3808 187.277 33.0266 187.444 32.7491C187.611 32.4716 187.836 32.2524 188.119 32.0916C188.402 31.9307 188.717 31.8098 189.066 31.7288C189.414 31.6479 189.769 31.5868 190.13 31.5457C190.588 31.4952 190.96 31.4541 191.245 31.4225C191.53 31.3876 191.738 31.3308 191.867 31.2519C191.997 31.1731 192.062 31.0442 192.063 30.8652L192.063 30.8304C192.066 30.3962 191.945 30.0592 191.701 29.8192C191.46 29.5792 191.1 29.4579 190.619 29.4553C190.119 29.4526 189.724 29.5615 189.434 29.782C189.148 29.9991 188.949 30.2417 188.839 30.5095L187.443 30.1837C187.612 29.7206 187.856 29.3474 188.175 29.0641C188.498 28.7775 188.869 28.5708 189.287 28.4438C189.706 28.3135 190.145 28.2496 190.606 28.2521C190.911 28.2538 191.234 28.292 191.575 28.3668C191.919 28.4383 192.24 28.5693 192.537 28.7598C192.838 28.9504 193.083 29.2218 193.273 29.5742C193.464 29.9233 193.557 30.3762 193.554 30.933L193.527 36.004L192.075 35.996L192.081 34.952L192.021 34.9517C191.924 35.1434 191.779 35.3315 191.585 35.5161C191.392 35.7006 191.144 35.8534 190.842 35.9744C190.54 36.0954 190.178 36.1547 189.757 36.1524ZM190.087 34.961C190.498 34.9633 190.85 34.884 191.142 34.7232C191.438 34.5624 191.663 34.3515 191.817 34.0905C191.974 33.8262 192.054 33.5432 192.055 33.2416L192.061 32.2573C192.007 32.31 191.904 32.3592 191.752 32.4047C191.602 32.447 191.431 32.4842 191.239 32.5163C191.046 32.5451 190.859 32.5722 190.677 32.5977C190.494 32.6199 190.342 32.639 190.219 32.6549C189.93 32.6898 189.667 32.7496 189.427 32.8345C189.192 32.9194 189.002 33.0427 188.859 33.2043C188.719 33.3626 188.648 33.5744 188.646 33.8395C188.644 34.2074 188.779 34.4865 189.049 34.6769C189.32 34.864 189.666 34.9587 190.087 34.961ZM199.113 28.398L199.106 29.5912L194.935 29.5684L194.942 28.3752L199.113 28.398ZM196.07 26.5518L197.557 26.5599L197.517 33.7835C197.516 34.0719 197.558 34.2892 197.643 34.4355C197.728 34.5785 197.839 34.6769 197.975 34.7306C198.113 34.7811 198.264 34.8068 198.427 34.8077C198.546 34.8083 198.65 34.8006 198.74 34.7845C198.829 34.7685 198.899 34.7556 198.949 34.7459L199.211 35.9753C199.124 36.008 199.002 36.0405 198.842 36.0728C198.683 36.1084 198.484 36.1272 198.245 36.1292C197.854 36.1337 197.49 36.0621 197.153 35.9144C196.815 35.7667 196.543 35.5398 196.336 35.2338C196.129 34.9277 196.027 34.5443 196.029 34.0837L196.07 26.5518ZM200.715 36.0432L200.757 28.407L202.244 28.4151L202.202 36.0513L200.715 36.0432ZM201.514 27.2328C201.256 27.2314 201.034 27.144 200.85 26.9707C200.668 26.794 200.578 26.5847 200.58 26.3428C200.581 26.0975 200.673 25.8892 200.856 25.7178C201.043 25.5432 201.265 25.4566 201.524 25.458C201.783 25.4594 202.002 25.5484 202.184 25.7251C202.368 25.8984 202.46 26.1078 202.459 26.353C202.457 26.595 202.363 26.8033 202.177 26.9779C201.994 27.1493 201.773 27.2342 201.514 27.2328ZM207.492 36.2343C206.74 36.2302 206.093 36.066 205.551 35.7415C205.012 35.4137 204.597 34.9557 204.305 34.3675C204.017 33.7759 203.875 33.0841 203.879 32.292C203.884 31.5098 204.033 30.8212 204.328 30.2262C204.626 29.6312 205.04 29.1678 205.569 28.8359C206.101 28.5041 206.721 28.3401 207.431 28.344C207.862 28.3463 208.279 28.4199 208.682 28.5646C209.086 28.7093 209.448 28.935 209.767 29.2417C210.087 29.5484 210.339 29.9458 210.522 30.434C210.705 30.9189 210.794 31.5077 210.79 32.2004L210.788 32.7274L204.717 32.6943L204.723 31.5807L209.337 31.6059C209.339 31.2148 209.261 30.868 209.104 30.5655C208.947 30.2597 208.724 30.0182 208.437 29.841C208.153 29.6638 207.818 29.5741 207.434 29.572C207.016 29.5697 206.651 29.6705 206.339 29.8743C206.029 30.0747 205.789 30.3386 205.618 30.6658C205.451 30.9897 205.366 31.3422 205.364 31.7234L205.359 32.5934C205.356 33.1038 205.444 33.5385 205.621 33.8974C205.801 34.2563 206.053 34.5311 206.377 34.7218C206.701 34.9092 207.079 35.0041 207.514 35.0065C207.795 35.008 208.052 34.9696 208.285 34.8914C208.517 34.8098 208.719 34.6882 208.888 34.5267C209.058 34.3653 209.189 34.1655 209.28 33.9273L210.685 34.1885C210.57 34.6022 210.366 34.964 210.073 35.274C209.783 35.5806 209.418 35.819 208.98 35.9889C208.545 36.1556 208.049 36.2374 207.492 36.2343ZM213.93 31.5812L213.905 36.1152L212.418 36.1071L212.46 28.4709L213.887 28.4787L213.88 29.7215L213.975 29.7221C214.152 29.3187 214.429 28.9954 214.805 28.7521C215.184 28.5089 215.661 28.3889 216.234 28.392C216.754 28.3949 217.21 28.5067 217.599 28.7276C217.989 28.9452 218.291 29.2683 218.504 29.6971C218.717 30.1258 218.822 30.655 218.818 31.2848L218.792 36.1419L217.305 36.1338L217.331 31.4556C217.334 30.9021 217.192 30.4688 216.906 30.1557C216.619 29.8392 216.224 29.6796 215.72 29.6769C215.375 29.675 215.068 29.7479 214.799 29.8956C214.533 30.0433 214.321 30.2609 214.164 30.5484C214.01 30.8326 213.932 31.1769 213.93 31.5812ZM224.392 28.536L224.385 29.7292L220.214 29.7064L220.221 28.5132L224.392 28.536ZM221.349 26.6898L222.836 26.698L222.796 33.9216C222.795 34.2099 222.837 34.4272 222.922 34.5735C223.007 34.7165 223.118 34.8149 223.253 34.8687C223.392 34.9192 223.543 34.9448 223.705 34.9457C223.825 34.9464 223.929 34.9387 224.019 34.9226C224.108 34.9065 224.178 34.8936 224.228 34.8839L224.49 36.1134C224.403 36.146 224.28 36.1785 224.121 36.2108C223.962 36.2464 223.763 36.2652 223.524 36.2672C223.133 36.2717 222.769 36.2001 222.432 36.0524C222.094 35.9047 221.822 35.6779 221.615 35.3718C221.408 35.0658 221.306 34.6824 221.308 34.2217L221.349 26.6898Z" fill="#82807C"/>
<path d="M302.269 36.5977L302.324 26.416L303.861 26.4244L303.836 30.8491L308.912 30.8768L308.936 26.4521L310.478 26.4605L310.422 36.6422L308.881 36.6338L308.905 32.1942L303.829 32.1665L303.805 36.6061L302.269 36.5977ZM312.54 36.6538L312.582 29.0175L314.068 29.0256L314.026 36.6619L312.54 36.6538ZM313.339 27.8434C313.08 27.842 312.859 27.7546 312.674 27.5812C312.493 27.4046 312.403 27.1953 312.404 26.9533C312.405 26.7081 312.498 26.4998 312.681 26.3284C312.867 26.1538 313.09 26.0671 313.348 26.0685C313.607 26.07 313.827 26.159 314.008 26.3356C314.193 26.509 314.284 26.7183 314.283 26.9636C314.282 27.2055 314.188 27.4138 314.001 27.5885C313.818 27.7598 313.597 27.8448 313.339 27.8434ZM321.78 30.9321L320.431 31.1634C320.376 30.9908 320.287 30.8262 320.166 30.6698C320.047 30.5133 319.885 30.3848 319.68 30.2843C319.475 30.1837 319.219 30.1326 318.911 30.1309C318.49 30.1286 318.138 30.2212 317.855 30.4086C317.572 30.5926 317.43 30.8321 317.429 31.1271C317.427 31.3823 317.521 31.5883 317.709 31.7451C317.897 31.9019 318.201 32.0312 318.621 32.1329L319.833 32.418C320.535 32.5842 321.057 32.8373 321.4 33.1772C321.743 33.5172 321.913 33.9573 321.91 34.4975C321.907 34.9549 321.772 35.3618 321.505 35.7183C321.241 36.0716 320.874 36.348 320.402 36.5476C319.933 36.7472 319.391 36.8453 318.775 36.8419C317.919 36.8373 317.223 36.6512 316.685 36.2837C316.146 35.9128 315.818 35.389 315.699 34.7122L317.137 34.5013C317.224 34.8763 317.407 35.1607 317.684 35.3544C317.961 35.5449 318.324 35.6413 318.771 35.6438C319.258 35.6464 319.648 35.5475 319.941 35.3469C320.234 35.143 320.381 34.8935 320.383 34.5986C320.384 34.3599 320.296 34.1589 320.118 33.9955C319.943 33.8322 319.673 33.7081 319.309 33.6232L318.018 33.3328C317.306 33.1665 316.781 32.9051 316.441 32.5486C316.105 32.1921 315.939 31.7421 315.942 31.1986C315.944 30.7478 316.072 30.3541 316.326 30.0174C316.58 29.6807 316.929 29.4191 317.374 29.2326C317.819 29.0428 318.329 28.9495 318.902 28.9526C319.727 28.9571 320.376 29.1396 320.848 29.5002C321.32 29.8574 321.631 30.3347 321.78 30.9321ZM327.138 29.097L327.132 30.2902L322.961 30.2674L322.967 29.0742L327.138 29.097ZM324.096 27.2508L325.582 27.2589L325.543 34.4826C325.541 34.7709 325.583 34.9882 325.668 35.1345C325.754 35.2775 325.864 35.3759 326 35.4297C326.139 35.4801 326.289 35.5058 326.452 35.5067C326.571 35.5074 326.676 35.4997 326.765 35.4836C326.855 35.4675 326.924 35.4546 326.974 35.4449L327.236 36.6744C327.15 36.707 327.027 36.7395 326.868 36.7718C326.708 36.8074 326.509 36.8262 326.271 36.8282C325.88 36.8327 325.515 36.7611 325.178 36.6134C324.841 36.4657 324.569 36.2389 324.361 35.9328C324.154 35.6267 324.052 35.2434 324.055 34.7827L324.096 27.2508ZM331.874 36.9135C331.159 36.9096 330.535 36.7421 330.003 36.4111C329.471 36.08 329.059 35.6187 328.768 35.0272C328.476 34.4356 328.332 33.7454 328.336 32.9566C328.341 32.1645 328.492 31.4726 328.79 30.8809C329.088 30.2893 329.505 29.8308 330.041 29.5056C330.576 29.1804 331.202 29.0198 331.918 29.0237C332.633 29.0276 333.257 29.1951 333.789 29.5261C334.321 29.8571 334.733 30.3201 335.024 30.915C335.316 31.5098 335.46 32.2033 335.456 32.9955C335.451 33.7843 335.3 34.4729 335.002 35.0612C334.704 35.6496 334.287 36.1063 333.751 36.4315C333.216 36.7567 332.59 36.9174 331.874 36.9135ZM331.886 35.6657C332.35 35.6682 332.735 35.5477 333.042 35.3041C333.348 35.0605 333.575 34.7352 333.723 34.3284C333.875 33.9215 333.952 33.4728 333.954 32.9823C333.957 32.4951 333.885 32.0473 333.738 31.6388C333.594 31.227 333.371 30.896 333.067 30.6457C332.764 30.3955 332.38 30.2691 331.916 30.2666C331.448 30.264 331.06 30.3862 330.75 30.6331C330.444 30.88 330.215 31.2085 330.064 31.6187C329.916 32.0256 329.84 32.4726 329.838 32.9598C329.835 33.4503 329.906 33.8998 330.049 34.3083C330.196 34.7168 330.421 35.0445 330.725 35.2914C331.032 35.5384 331.419 35.6631 331.886 35.6657ZM337.094 36.7879L337.136 29.1516L338.573 29.1595L338.566 30.3725L338.646 30.3729C338.787 29.9627 339.034 29.6409 339.387 29.4075C339.743 29.1708 340.144 29.0537 340.592 29.0561C340.685 29.0566 340.794 29.0605 340.92 29.0679C341.049 29.0752 341.15 29.084 341.223 29.0944L341.215 30.5162C341.156 30.4993 341.05 30.4805 340.897 30.4598C340.745 30.4358 340.593 30.4233 340.44 30.4225C340.089 30.4206 339.775 30.4935 339.499 30.6411C339.227 30.7854 339.01 30.9881 338.85 31.2491C338.689 31.5067 338.608 31.8013 338.606 32.1327L338.581 36.796L337.094 36.7879ZM343.624 39.6872C343.401 39.686 343.199 39.6666 343.017 39.6292C342.835 39.5951 342.7 39.5579 342.61 39.5176L342.975 38.3015C343.246 38.3759 343.488 38.4087 343.7 38.3999C343.912 38.3912 344.1 38.3126 344.263 38.1644C344.43 38.0161 344.577 37.7733 344.705 37.436L344.891 36.9299L342.14 29.1789L343.731 29.1876L345.632 35.1242L345.712 35.1247L347.678 29.2092L349.274 29.2179L346.08 37.8561C345.932 38.253 345.744 38.5884 345.517 38.8623C345.29 39.1395 345.021 39.3468 344.708 39.4843C344.396 39.6218 344.035 39.6894 343.624 39.6872Z" fill="#82807C"/>
<g clip-path="url(#clip0_685_22977)">
<rect x="13.3828" y="82.521" width="2" height="2" rx="1" transform="rotate(0.312855 13.3828 82.521)" fill="#DAD9D6"/>
<rect x="17.3828" y="82.5427" width="2" height="2" rx="1" transform="rotate(0.312855 17.3828 82.5427)" fill="#DAD9D6"/>
<rect x="21.3828" y="82.5645" width="2" height="2" rx="1" transform="rotate(0.312855 21.3828 82.5645)" fill="#DAD9D6"/>
<rect x="25.3828" y="82.5864" width="2" height="2" rx="1" transform="rotate(0.312855 25.3828 82.5864)" fill="#DAD9D6"/>
<rect x="29.3828" y="82.6082" width="2" height="2" rx="1" transform="rotate(0.312855 29.3828 82.6082)" fill="#DAD9D6"/>
<rect x="33.4062" y="78.1301" width="2" height="11" rx="1" transform="rotate(0.312855 33.4062 78.1301)" fill="#DAD9D6"/>
<rect x="37.3828" y="82.6519" width="2" height="2" rx="1" transform="rotate(0.312855 37.3828 82.6519)" fill="#DAD9D6"/>
<rect x="41.3828" y="82.6738" width="2" height="2" rx="1" transform="rotate(0.312855 41.3828 82.6738)" fill="#DAD9D6"/>
<rect x="45.3906" y="80.1956" width="2" height="7" rx="1" transform="rotate(0.312855 45.3906 80.1956)" fill="#DAD9D6"/>
<rect x="49.3828" y="82.7175" width="2" height="2" rx="1" transform="rotate(0.312855 49.3828 82.7175)" fill="#DAD9D6"/>
<rect x="53.3906" y="80.2393" width="2" height="7" rx="1" transform="rotate(0.312855 53.3906 80.2393)" fill="#DAD9D6"/>
<rect x="57.3984" y="79.2612" width="2" height="9" rx="1" transform="rotate(0.312855 57.3984 79.2612)" fill="#DAD9D6"/>
<rect x="61.375" y="82.783" width="2" height="2" rx="1" transform="rotate(0.312855 61.375 82.783)" fill="#DAD9D6"/>
<rect x="65.375" y="82.8049" width="2" height="2" rx="1" transform="rotate(0.312855 65.375 82.8049)" fill="#DAD9D6"/>
<rect x="69.375" y="82.8267" width="2" height="2" rx="1" transform="rotate(0.312855 69.375 82.8267)" fill="#DAD9D6"/>
<rect x="73.3906" y="81.3486" width="2" height="5" rx="1" transform="rotate(0.312855 73.3906 81.3486)" fill="#DAD9D6"/>
<rect x="77.375" y="82.8704" width="2" height="2" rx="1" transform="rotate(0.312855 77.375 82.8704)" fill="#DAD9D6"/>
<rect x="81.375" y="82.8921" width="2" height="2" rx="1" transform="rotate(0.312855 81.375 82.8921)" fill="#DAD9D6"/>
<rect x="85.3906" y="80.4141" width="2" height="7" rx="1" transform="rotate(0.312855 85.3906 80.4141)" fill="#DAD9D6"/>
<rect x="89.375" y="82.9358" width="2" height="2" rx="1" transform="rotate(0.312855 89.375 82.9358)" fill="#DAD9D6"/>
<rect x="93.4062" y="78.4578" width="2" height="11" rx="1" transform="rotate(0.312855 93.4062 78.4578)" fill="#DAD9D6"/>
<rect x="97.375" y="82.9795" width="2" height="2" rx="1" transform="rotate(0.312855 97.375 82.9795)" fill="#DAD9D6"/>
<rect x="101.375" y="83.0015" width="2" height="2" rx="1" transform="rotate(0.312855 101.375 83.0015)" fill="#DAD9D6"/>
<rect x="105.375" y="83.0232" width="2" height="2" rx="1" transform="rotate(0.312855 105.375 83.0232)" fill="#DAD9D6"/>
<rect x="109.414" y="76.5452" width="2" height="15" rx="1" transform="rotate(0.312855 109.414 76.5452)" fill="#DAD9D6"/>
<rect x="113.492" y="62.5671" width="2" height="43" rx="1" transform="rotate(0.312855 113.492 62.5671)" fill="#DAD9D6"/>
<rect x="117.461" y="67.5891" width="2" height="33" rx="1" transform="rotate(0.312855 117.461 67.5891)" fill="#DAD9D6"/>
<rect x="121.453" y="69.6108" width="2" height="29" rx="1" transform="rotate(0.312855 121.453 69.6108)" fill="#DAD9D6"/>
<rect x="125.461" y="67.6326" width="2" height="33" rx="1" transform="rotate(0.312855 125.461 67.6326)" fill="#DAD9D6"/>
<rect x="129.438" y="72.6545" width="2" height="23" rx="1" transform="rotate(0.312855 129.438 72.6545)" fill="#DAD9D6"/>
<rect x="133.445" y="70.6763" width="2" height="27" rx="1" transform="rotate(0.312855 133.445 70.6763)" fill="#DAD9D6"/>
<rect x="137.414" y="76.698" width="2" height="15" rx="1" transform="rotate(0.312855 137.414 76.698)" fill="#DAD9D6"/>
<rect x="141.422" y="74.72" width="2" height="19" rx="1" transform="rotate(0.312855 141.422 74.72)" fill="#DAD9D6"/>
<rect x="145.422" y="75.7417" width="2" height="17" rx="1" transform="rotate(0.312855 145.422 75.7417)" fill="#DAD9D6"/>
<rect x="149.383" y="82.2634" width="2" height="4" rx="1" transform="rotate(0.312855 149.383 82.2634)" fill="#DAD9D6"/>
<rect x="153.398" y="78.7854" width="2" height="11" rx="1" transform="rotate(0.312855 153.398 78.7854)" fill="#DAD9D6"/>
<rect x="157.383" y="82.8071" width="2" height="3" rx="1" transform="rotate(0.312855 157.383 82.8071)" fill="#DAD9D6"/>
<rect x="161.375" y="83.3291" width="2" height="2" rx="1" transform="rotate(0.312855 161.375 83.3291)" fill="#DAD9D6"/>
<rect x="165.391" y="80.8508" width="2" height="7" rx="1" transform="rotate(0.312855 165.391 80.8508)" fill="#DAD9D6"/>
<rect x="169.383" y="82.8728" width="2" height="3" rx="1" transform="rotate(0.312855 169.383 82.8728)" fill="#DAD9D6"/>
<rect x="173.398" y="78.8945" width="2" height="11" rx="1" transform="rotate(0.312855 173.398 78.8945)" fill="#DAD9D6"/>
<rect x="177.383" y="82.4165" width="2" height="4" rx="1" transform="rotate(0.312855 177.383 82.4165)" fill="#DAD9D6"/>
<rect x="181.383" y="82.4382" width="2" height="4" rx="1" transform="rotate(0.312855 181.383 82.4382)" fill="#DAD9D6"/>
<rect x="185.383" y="82.46" width="2" height="4" rx="1" transform="rotate(0.312855 185.383 82.46)" fill="#DAD9D6"/>
<rect x="189.383" y="82.4819" width="2" height="4" rx="1" transform="rotate(0.312855 189.383 82.4819)" fill="#DAD9D6"/>
<rect x="193.398" y="79.0039" width="2" height="11" rx="1" transform="rotate(0.312855 193.398 79.0039)" fill="#DAD9D6"/>
<rect x="197.383" y="83.0256" width="2" height="3" rx="1" transform="rotate(0.312855 197.383 83.0256)" fill="#DAD9D6"/>
<rect x="201.375" y="83.5474" width="2" height="2" rx="1" transform="rotate(0.312855 201.375 83.5474)" fill="#DAD9D6"/>
<rect x="205.391" y="81.0693" width="2" height="7" rx="1" transform="rotate(0.312855 205.391 81.0693)" fill="#DAD9D6"/>
<rect x="209.383" y="83.0911" width="2" height="3" rx="1" transform="rotate(0.312855 209.383 83.0911)" fill="#DAD9D6"/>
<rect x="213.398" y="79.113" width="2" height="11" rx="1" transform="rotate(0.312855 213.398 79.113)" fill="#DAD9D6"/>
<rect x="217.43" y="74.135" width="2" height="21" rx="1" transform="rotate(0.312855 217.43 74.135)" fill="#DAD9D6"/>
<rect x="221.469" y="66.157" width="2" height="37" rx="1" transform="rotate(0.312855 221.469 66.157)" fill="#DAD9D6"/>
<rect x="225.43" y="74.1787" width="2" height="21" rx="1" transform="rotate(0.312855 225.43 74.1787)" fill="#DAD9D6"/>
<rect x="229.438" y="73.2004" width="2" height="23" rx="1" transform="rotate(0.312855 229.438 73.2004)" fill="#DAD9D6"/>
<rect x="233.422" y="75.2222" width="2" height="19" rx="1" transform="rotate(0.312855 233.422 75.2222)" fill="#DAD9D6"/>
<rect x="237.414" y="77.2441" width="2" height="15" rx="1" transform="rotate(0.312855 237.414 77.2441)" fill="#DAD9D6"/>
<rect x="241.414" y="76.2659" width="2" height="17" rx="1" transform="rotate(0.312855 241.414 76.2659)" fill="#DAD9D6"/>
<rect x="245.438" y="72.2878" width="2" height="25" rx="1" transform="rotate(0.312855 245.438 72.2878)" fill="#DAD9D6"/>
<rect x="249.414" y="77.3096" width="2" height="15" rx="1" transform="rotate(0.312855 249.414 77.3096)" fill="#DAD9D6"/>
<rect x="253.422" y="75.3315" width="2" height="19" rx="1" transform="rotate(0.312855 253.422 75.3315)" fill="#DAD9D6"/>
<rect x="257.414" y="77.3533" width="2" height="15" rx="1" transform="rotate(0.312855 257.414 77.3533)" fill="#DAD9D6"/>
<rect x="261.414" y="76.3752" width="2" height="17" rx="1" transform="rotate(0.312855 261.414 76.3752)" fill="#DAD9D6"/>
<rect x="265.398" y="79.397" width="2" height="11" rx="1" transform="rotate(0.312855 265.398 79.397)" fill="#DAD9D6"/>
<rect x="269.43" y="74.4189" width="2" height="21" rx="1" transform="rotate(0.312855 269.43 74.4189)" fill="#DAD9D6"/>
<rect x="273.406" y="78.4407" width="2" height="13" rx="1" transform="rotate(0.312855 273.406 78.4407)" fill="#DAD9D6"/>
<rect x="277.445" y="71.4626" width="2" height="27" rx="1" transform="rotate(0.312855 277.445 71.4626)" fill="#DAD9D6"/>
<rect x="281.383" y="82.9844" width="2" height="4" rx="1" transform="rotate(0.312855 281.383 82.9844)" fill="#DAD9D6"/>
<rect x="285.383" y="83.0061" width="2" height="4" rx="1" transform="rotate(0.312855 285.383 83.0061)" fill="#DAD9D6"/>
<rect x="289.383" y="83.0281" width="2" height="4" rx="1" transform="rotate(0.312855 289.383 83.0281)" fill="#DAD9D6"/>
<rect x="293.383" y="83.0498" width="2" height="4" rx="1" transform="rotate(0.312855 293.383 83.0498)" fill="#DAD9D6"/>
<rect x="297.398" y="79.5718" width="2" height="11" rx="1" transform="rotate(0.312855 297.398 79.5718)" fill="#DAD9D6"/>
<rect x="301.375" y="83.5935" width="2" height="3" rx="1" transform="rotate(0.312855 301.375 83.5935)" fill="#DAD9D6"/>
<rect x="305.375" y="84.1152" width="2" height="2" rx="1" transform="rotate(0.312855 305.375 84.1152)" fill="#DAD9D6"/>
<rect x="309.391" y="81.6372" width="2" height="7" rx="1" transform="rotate(0.312855 309.391 81.6372)" fill="#DAD9D6"/>
<rect x="313.375" y="83.6589" width="2" height="3" rx="1" transform="rotate(0.312855 313.375 83.6589)" fill="#DAD9D6"/>
<rect x="317.375" y="84.1809" width="2" height="2" rx="1" transform="rotate(0.312855 317.375 84.1809)" fill="#DAD9D6"/>
<rect x="321.375" y="84.2026" width="2" height="2" rx="1" transform="rotate(0.312855 321.375 84.2026)" fill="#DAD9D6"/>
<rect x="325.375" y="84.2246" width="2" height="2" rx="1" transform="rotate(0.312855 325.375 84.2246)" fill="#DAD9D6"/>
<rect x="329.375" y="84.2463" width="2" height="2" rx="1" transform="rotate(0.312855 329.375 84.2463)" fill="#DAD9D6"/>
<rect x="333.398" y="79.7683" width="2" height="11" rx="1" transform="rotate(0.312855 333.398 79.7683)" fill="#DAD9D6"/>
<rect x="337.383" y="82.79" width="2" height="5" rx="1" transform="rotate(0.312855 337.383 82.79)" fill="#DAD9D6"/>
<rect x="341.375" y="84.3118" width="2" height="2" rx="1" transform="rotate(0.312855 341.375 84.3118)" fill="#DAD9D6"/>
<rect x="345.375" y="84.3337" width="2" height="2" rx="1" transform="rotate(0.312855 345.375 84.3337)" fill="#DAD9D6"/>
<rect x="349.391" y="81.8557" width="2" height="7" rx="1" transform="rotate(0.312855 349.391 81.8557)" fill="#DAD9D6"/>
<rect x="353.375" y="84.3774" width="2" height="2" rx="1" transform="rotate(0.312855 353.375 84.3774)" fill="#DAD9D6"/>
<rect x="357.375" y="84.3992" width="2" height="2" rx="1" transform="rotate(0.312855 357.375 84.3992)" fill="#DAD9D6"/>
<rect x="361.391" y="80.9211" width="2" height="9" rx="1" transform="rotate(0.312855 361.391 80.9211)" fill="#DAD9D6"/>
<rect x="365.406" y="78.9431" width="2" height="13" rx="1" transform="rotate(0.312855 365.406 78.9431)" fill="#DAD9D6"/>
<rect x="369.43" y="73.9648" width="2" height="23" rx="1" transform="rotate(0.312855 369.43 73.9648)" fill="#DAD9D6"/>
<rect x="373.398" y="79.9866" width="2" height="11" rx="1" transform="rotate(0.312855 373.398 79.9866)" fill="#DAD9D6"/>
<rect x="377.383" y="83.0085" width="2" height="5" rx="1" transform="rotate(0.312855 377.383 83.0085)" fill="#DAD9D6"/>
<rect x="381.406" y="79.0303" width="2" height="13" rx="1" transform="rotate(0.312855 381.406 79.0303)" fill="#DAD9D6"/>
<rect x="385.414" y="77.0522" width="2" height="17" rx="1" transform="rotate(0.312855 385.414 77.0522)" fill="#DAD9D6"/>
</g>
<path d="M19.1691 120.553L35.1688 120.64C38.2063 120.657 40.6553 123.133 40.6387 126.17L40.5513 142.17C40.5348 145.208 38.0589 147.657 35.0214 147.64L19.0216 147.553C15.9841 147.536 13.5352 145.06 13.5517 142.023L13.6391 126.023C13.6557 122.985 16.1315 120.536 19.1691 120.553Z" fill="white"/>
<path d="M19.1691 120.553L35.1688 120.64C38.2063 120.657 40.6553 123.133 40.6387 126.17L40.5513 142.17C40.5348 145.208 38.0589 147.657 35.0214 147.64L19.0216 147.553C15.9841 147.536 13.5352 145.06 13.5517 142.023L13.6391 126.023C13.6557 122.985 16.1315 120.536 19.1691 120.553Z" stroke="#E9E8E6"/>
<path d="M23.0476 128.113C23.2023 128.117 23.3538 128.163 23.4854 128.246L31.644 133.375C31.7698 133.453 31.8733 133.563 31.945 133.694C32.0167 133.825 32.0542 133.974 32.053 134.124L32.0456 134.236C32.031 134.347 31.9951 134.454 31.9403 134.552C31.8855 134.649 31.8134 134.735 31.727 134.804L31.6359 134.867L23.4217 139.908C23.2892 139.989 23.1373 140.033 22.9825 140.035C22.8279 140.037 22.6752 139.997 22.5408 139.919C22.4076 139.843 22.2972 139.731 22.2203 139.596C22.1434 139.462 22.1029 139.309 22.1035 139.153L22.1591 128.986L22.1675 128.869C22.1834 128.755 22.2219 128.644 22.2806 128.544C22.359 128.41 22.4706 128.299 22.6046 128.224C22.7399 128.148 22.893 128.11 23.0476 128.113Z" fill="#21201D" stroke="#21201D" stroke-width="0.078125"/>
<path d="M57.962 129.083L57.9064 139.265L56.3653 139.257L56.4124 130.616L56.3528 130.616L53.9081 132.193L53.9161 130.722L56.4656 129.075L57.962 129.083ZM61.0715 139.377C60.7998 139.375 60.5666 139.278 60.3721 139.085C60.1776 138.888 60.0812 138.652 60.0827 138.377C60.0841 138.105 60.1832 137.874 60.3798 137.683C60.5764 137.488 60.8106 137.392 61.0824 137.393C61.3541 137.395 61.5873 137.494 61.7817 137.69C61.9762 137.884 62.0728 138.116 62.0713 138.388C62.0703 138.57 62.023 138.737 61.9293 138.889C61.839 139.038 61.7191 139.157 61.5694 139.245C61.4198 139.334 61.2538 139.378 61.0715 139.377ZM67.2122 139.485C66.4267 139.477 65.7567 139.266 65.2021 138.852C64.6476 138.438 64.2249 137.838 63.9342 137.051C63.6436 136.264 63.5012 135.317 63.5073 134.21C63.5133 133.106 63.6659 132.164 63.9652 131.383C64.2678 130.603 64.6986 130.008 65.2576 129.6C65.82 129.193 66.4906 128.991 67.2695 128.995C68.0483 128.999 68.7151 129.21 69.2696 129.627C69.8242 130.041 70.2468 130.64 70.5375 131.424C70.8315 132.205 70.9756 133.147 70.9695 134.25C70.9635 135.361 70.8108 136.308 70.5115 137.092C70.2123 137.872 69.7831 138.468 69.2241 138.879C68.665 139.287 67.9944 139.489 67.2122 139.485ZM67.2194 138.157C67.9088 138.161 68.4492 137.828 68.8407 137.157C69.2355 136.486 69.4363 135.515 69.4433 134.242C69.4479 133.397 69.3623 132.682 69.1865 132.098C69.0141 131.51 68.7629 131.065 68.4331 130.761C68.1067 130.455 67.7164 130.3 67.2624 130.297C66.5763 130.294 66.0359 130.629 65.6411 131.303C65.2463 131.977 65.0438 132.949 65.0335 134.218C65.0289 135.066 65.1128 135.784 65.2853 136.372C65.4611 136.956 65.7122 137.4 66.0387 137.704C66.3652 138.004 66.7587 138.155 67.2194 138.157ZM73.9403 131.716L75.6094 134.698L77.3259 131.735L78.9516 131.743L76.5493 135.549L78.9297 139.38L77.3041 139.371L75.5995 136.508L73.8687 139.352L72.2381 139.343L74.6353 135.538L72.3096 131.707L73.9403 131.716Z" fill="#21201D"/>
<path d="M300.587 140.759C299.802 140.751 299.132 140.541 298.577 140.127C298.023 139.713 297.6 139.112 297.309 138.325C297.019 137.538 296.876 136.591 296.882 135.484C296.888 134.38 297.041 133.438 297.34 132.657C297.643 131.877 298.074 131.282 298.633 130.875C299.195 130.467 299.866 130.265 300.645 130.269C301.423 130.273 302.09 130.484 302.645 130.901C303.199 131.315 303.622 131.914 303.913 132.698C304.207 133.479 304.351 134.421 304.345 135.524C304.339 136.635 304.186 137.582 303.887 138.366C303.587 139.146 303.158 139.742 302.599 140.153C302.04 140.561 301.37 140.763 300.587 140.759ZM300.595 139.432C301.284 139.435 301.824 139.102 302.216 138.431C302.611 137.76 302.811 136.789 302.818 135.516C302.823 134.671 302.737 133.956 302.562 133.372C302.389 132.784 302.138 132.339 301.808 132.035C301.482 131.729 301.092 131.574 300.638 131.572C299.951 131.568 299.411 131.903 299.016 132.577C298.621 133.251 298.419 134.223 298.409 135.492C298.404 136.34 298.488 137.059 298.66 137.646C298.836 138.23 299.087 138.674 299.414 138.978C299.74 139.278 300.134 139.429 300.595 139.432ZM309.624 140.808C308.839 140.801 308.169 140.59 307.614 140.176C307.06 139.762 306.637 139.161 306.346 138.374C306.056 137.587 305.913 136.64 305.919 135.533C305.925 134.429 306.078 133.487 306.377 132.707C306.68 131.926 307.111 131.332 307.67 130.924C308.232 130.516 308.903 130.314 309.682 130.318C310.46 130.323 311.127 130.533 311.682 130.951C312.236 131.365 312.659 131.964 312.95 132.748C313.244 133.528 313.388 134.47 313.382 135.574C313.376 136.684 313.223 137.631 312.924 138.415C312.624 139.196 312.195 139.792 311.636 140.203C311.077 140.611 310.406 140.813 309.624 140.808ZM309.632 139.481C310.321 139.485 310.861 139.151 311.253 138.481C311.648 137.81 311.848 136.838 311.855 135.565C311.86 134.72 311.774 134.006 311.599 133.421C311.426 132.834 311.175 132.388 310.845 132.085C310.519 131.778 310.129 131.623 309.674 131.621C308.988 131.617 308.448 131.952 308.053 132.626C307.658 133.3 307.456 134.272 307.446 135.541C307.441 136.39 307.525 137.108 307.697 137.695C307.873 138.28 308.124 138.724 308.451 139.027C308.777 139.327 309.171 139.478 309.632 139.481ZM316.124 139.412C315.852 139.41 315.619 139.313 315.424 139.12C315.23 138.923 315.133 138.687 315.135 138.412C315.136 138.14 315.235 137.909 315.432 137.718C315.629 137.523 315.863 137.427 316.135 137.428C316.406 137.43 316.639 137.529 316.834 137.725C317.028 137.919 317.125 138.151 317.123 138.423C317.122 138.605 317.075 138.772 316.981 138.924C316.891 139.073 316.771 139.192 316.622 139.28C316.472 139.369 316.306 139.413 316.124 139.412ZM316.152 134.311C315.88 134.31 315.647 134.212 315.452 134.019C315.258 133.822 315.161 133.587 315.163 133.311C315.164 133.04 315.263 132.808 315.46 132.617C315.656 132.423 315.891 132.326 316.162 132.328C316.434 132.329 316.667 132.428 316.862 132.625C317.056 132.818 317.153 133.051 317.151 133.322C317.15 133.505 317.103 133.672 317.009 133.824C316.919 133.972 316.799 134.091 316.649 134.18C316.5 134.268 316.334 134.312 316.152 134.311ZM322.626 140.879C321.841 140.872 321.171 140.661 320.616 140.247C320.061 139.833 319.639 139.232 319.348 138.445C319.057 137.658 318.915 136.711 318.921 135.604C318.927 134.5 319.08 133.558 319.379 132.778C319.682 131.997 320.112 131.403 320.671 130.995C321.234 130.587 321.904 130.385 322.683 130.389C323.462 130.394 324.129 130.604 324.683 131.022C325.238 131.436 325.661 132.035 325.951 132.818C326.245 133.599 326.389 134.541 326.383 135.645C326.377 136.755 326.225 137.702 325.925 138.486C325.626 139.267 325.197 139.863 324.638 140.274C324.079 140.682 323.408 140.884 322.626 140.879ZM322.633 139.552C323.323 139.556 323.863 139.222 324.255 138.552C324.649 137.881 324.85 136.909 324.857 135.636C324.862 134.791 324.776 134.077 324.6 133.492C324.428 132.905 324.177 132.459 323.847 132.156C323.521 131.849 323.13 131.694 322.676 131.692C321.99 131.688 321.45 132.023 321.055 132.697C320.66 133.371 320.458 134.343 320.447 135.612C320.443 136.461 320.527 137.179 320.699 137.766C320.875 138.351 321.126 138.795 321.453 139.098C321.779 139.398 322.173 139.549 322.633 139.552ZM331.663 140.929C330.878 140.921 330.208 140.71 329.653 140.296C329.098 139.882 328.676 139.282 328.385 138.495C328.094 137.707 327.952 136.76 327.958 135.653C327.964 134.55 328.117 133.608 328.416 132.827C328.719 132.046 329.149 131.452 329.708 131.044C330.271 130.636 330.941 130.434 331.72 130.439C332.499 130.443 333.166 130.654 333.72 131.071C334.275 131.485 334.698 132.084 334.988 132.868C335.282 133.648 335.426 134.59 335.42 135.694C335.414 136.804 335.262 137.752 334.962 138.535C334.663 139.316 334.234 139.912 333.675 140.323C333.116 140.731 332.445 140.933 331.663 140.929ZM331.67 139.601C332.36 139.605 332.9 139.272 333.292 138.601C333.686 137.93 333.887 136.958 333.894 135.686C333.899 134.841 333.813 134.126 333.637 133.542C333.465 132.954 333.214 132.508 332.884 132.205C332.558 131.898 332.167 131.744 331.713 131.741C331.027 131.738 330.487 132.073 330.092 132.747C329.697 133.421 329.495 134.392 329.484 135.662C329.48 136.51 329.564 137.228 329.736 137.816C329.912 138.4 330.163 138.844 330.49 139.147C330.816 139.447 331.21 139.599 331.67 139.601ZM344.817 130.172L341.469 142.344L340.142 142.337L343.49 130.165L344.817 130.172ZM353.251 141.047C352.465 141.039 351.795 140.828 351.241 140.414C350.686 140 350.263 139.4 349.973 138.612C349.682 137.825 349.54 136.878 349.546 135.771C349.552 134.668 349.704 133.725 350.004 132.945C350.306 132.164 350.737 131.57 351.296 131.162C351.858 130.754 352.529 130.552 353.308 130.557C354.087 130.561 354.753 130.772 355.308 131.189C355.863 131.603 356.285 132.202 356.576 132.986C356.87 133.766 357.014 134.708 357.008 135.812C357.002 136.922 356.849 137.869 356.55 138.653C356.251 139.434 355.822 140.03 355.262 140.441C354.703 140.849 354.033 141.051 353.251 141.047ZM353.258 139.719C353.947 139.723 354.488 139.389 354.879 138.719C355.274 138.048 355.475 137.076 355.482 135.804C355.486 134.958 355.401 134.244 355.225 133.659C355.052 133.072 354.801 132.626 354.472 132.323C354.145 132.016 353.755 131.862 353.301 131.859C352.615 131.855 352.074 132.191 351.68 132.865C351.285 133.539 351.082 134.51 351.072 135.78C351.067 136.628 351.151 137.346 351.324 137.934C351.499 138.518 351.751 138.962 352.077 139.265C352.404 139.565 352.797 139.717 353.258 139.719ZM362.288 141.096C361.502 141.088 360.832 140.877 360.278 140.463C359.723 140.049 359.3 139.449 359.01 138.662C358.719 137.875 358.577 136.928 358.583 135.821C358.589 134.717 358.741 133.775 359.041 132.994C359.343 132.214 359.774 131.619 360.333 131.211C360.895 130.804 361.566 130.602 362.345 130.606C363.124 130.61 363.79 130.821 364.345 131.238C364.9 131.652 365.322 132.251 365.613 133.035C365.907 133.816 366.051 134.758 366.045 135.861C366.039 136.972 365.886 137.919 365.587 138.703C365.288 139.483 364.859 140.079 364.299 140.49C363.74 140.898 363.07 141.1 362.288 141.096ZM362.295 139.768C362.984 139.772 363.525 139.439 363.916 138.768C364.311 138.097 364.512 137.126 364.519 135.853C364.523 135.008 364.438 134.293 364.262 133.709C364.089 133.121 363.838 132.676 363.509 132.372C363.182 132.066 362.792 131.911 362.338 131.909C361.652 131.905 361.111 132.24 360.716 132.914C360.322 133.588 360.119 134.56 360.109 135.829C360.104 136.677 360.188 137.395 360.361 137.983C360.536 138.567 360.788 139.011 361.114 139.315C361.441 139.615 361.834 139.766 362.295 139.768ZM368.787 139.7C368.515 139.698 368.282 139.601 368.088 139.407C367.893 139.211 367.797 138.975 367.798 138.7C367.8 138.428 367.899 138.197 368.095 138.005C368.292 137.811 368.526 137.714 368.798 137.716C369.07 137.717 369.303 137.816 369.497 138.013C369.692 138.206 369.788 138.439 369.787 138.711C369.786 138.893 369.738 139.06 369.645 139.212C369.554 139.361 369.434 139.479 369.285 139.568C369.135 139.657 368.969 139.701 368.787 139.7ZM368.815 134.599C368.543 134.597 368.31 134.5 368.115 134.307C367.921 134.11 367.824 133.874 367.826 133.599C367.827 133.327 367.926 133.096 368.123 132.905C368.32 132.71 368.554 132.614 368.826 132.615C369.097 132.617 369.331 132.716 369.525 132.912C369.72 133.106 369.816 133.338 369.815 133.61C369.814 133.792 369.766 133.959 369.673 134.111C369.582 134.26 369.462 134.379 369.313 134.467C369.163 134.556 368.997 134.6 368.815 134.599ZM371.543 138.989L371.549 137.746L375.987 130.82L376.967 130.825L376.957 132.655L376.335 132.651L373.161 137.615L373.161 137.695L379.191 137.728L379.184 139.03L371.543 138.989ZM376.359 141.004L376.372 138.637L376.385 138.071L376.425 130.822L377.881 130.83L377.826 141.012L376.359 141.004ZM380.906 141.028L380.912 139.915L384.376 136.364C384.746 135.978 385.052 135.64 385.292 135.35C385.535 135.056 385.718 134.777 385.838 134.513C385.959 134.248 386.02 133.967 386.022 133.669C386.024 133.33 385.946 133.038 385.788 132.792C385.63 132.543 385.414 132.351 385.14 132.217C384.866 132.08 384.556 132.01 384.211 132.008C383.847 132.006 383.528 132.079 383.256 132.227C382.983 132.374 382.773 132.584 382.626 132.855C382.478 133.126 382.404 133.443 382.402 133.808L380.935 133.8C380.939 133.18 381.084 132.639 381.372 132.176C381.659 131.714 382.052 131.357 382.551 131.104C383.049 130.848 383.615 130.722 384.248 130.726C384.888 130.729 385.451 130.86 385.936 131.118C386.426 131.372 386.806 131.719 387.079 132.158C387.352 132.594 387.487 133.085 387.484 133.632C387.482 134.01 387.408 134.379 387.264 134.739C387.123 135.1 386.877 135.501 386.526 135.943C386.176 136.382 385.689 136.915 385.066 137.541L383.031 139.648L383.031 139.723L387.614 139.748L387.607 141.065L380.906 141.028Z" fill="#21201D"/>
<defs>
<clipPath id="clip0_685_22977">
<rect width="376" height="49" fill="white" transform="translate(13.5078 59.0212) rotate(0.312855)"/>
</clipPath>
</defs>
</svg>
