<svg width="416" height="226" viewBox="0 0 416 226" fill="none" xmlns="http://www.w3.org/2000/svg">
<g filter="url(#filter0_d_645_22303)">
<rect x="28" y="24" width="360" height="169.358" rx="8" fill="white"/>
<rect x="44" y="40" width="328" height="33.2778" rx="7.63889" fill="#F8F8F7"/>
<g clip-path="url(#clip0_645_22303)">
<path d="M51.6357 42.3872L148.237 42.3872C151.138 42.3872 153.489 44.7387 153.489 47.6392V65.6392C153.489 68.5394 151.138 70.8901 148.237 70.8901H51.6357C48.7354 70.8901 46.384 68.5395 46.3838 65.6392V47.6392C46.3838 44.7387 48.7353 42.3872 51.6357 42.3872Z" fill="white"/>
<path d="M51.6357 42.3872L148.237 42.3872C151.138 42.3872 153.489 44.7387 153.489 47.6392V65.6392C153.489 68.5394 151.138 70.8901 148.237 70.8901H51.6357C48.7354 70.8901 46.384 68.5395 46.3838 65.6392V47.6392C46.3838 44.7387 48.7353 42.3872 51.6357 42.3872Z" stroke="#E9E8E6" stroke-width="0.954861"/>
<path d="M67.5262 52.1793V50.9166H75.0504V52.1793H72.017V60.6388H70.5549V52.1793H67.5262ZM75.842 60.6388V53.3471H77.214V54.5054H77.2899C77.4228 54.113 77.657 53.8044 77.9925 53.5797C78.3311 53.3519 78.7141 53.2379 79.1413 53.2379C79.2299 53.2379 79.3344 53.2411 79.4546 53.2474C79.578 53.2538 79.6746 53.2617 79.7442 53.2712V54.6289C79.6872 54.613 79.586 54.5956 79.4404 54.5766C79.2948 54.5545 79.1492 54.5434 79.0036 54.5434C78.6682 54.5434 78.3691 54.6146 78.1064 54.757C77.8469 54.8963 77.6412 55.0909 77.4893 55.3409C77.3374 55.5878 77.2614 55.8695 77.2614 56.1859V60.6388H75.842ZM83.0292 60.8002C82.5672 60.8002 82.1494 60.7147 81.776 60.5438C81.4025 60.3698 81.1066 60.1182 80.8883 59.789C80.6731 59.4599 80.5655 59.0564 80.5655 58.5785C80.5655 58.1671 80.6446 57.8285 80.8028 57.5626C80.9611 57.2968 81.1747 57.0863 81.4437 56.9312C81.7127 56.7762 82.0134 56.6591 82.3457 56.58C82.678 56.5008 83.0166 56.4407 83.3616 56.3996C83.7983 56.3489 84.1527 56.3078 84.4249 56.2761C84.6971 56.2413 84.8949 56.1859 85.0183 56.11C85.1417 56.034 85.2035 55.9106 85.2035 55.7397V55.7065C85.2035 55.2919 85.0864 54.9707 84.8522 54.7428C84.6211 54.5149 84.2762 54.401 83.8173 54.401C83.3394 54.401 82.9628 54.507 82.6875 54.7191C82.4153 54.9279 82.227 55.1605 82.1225 55.4169L80.7886 55.1131C80.9468 54.67 81.1778 54.3124 81.4817 54.0402C81.7887 53.7649 82.1415 53.5655 82.5403 53.4421C82.9391 53.3155 83.3584 53.2522 83.7983 53.2522C84.0895 53.2522 84.398 53.287 84.724 53.3566C85.0531 53.4231 85.3601 53.5465 85.6449 53.7269C85.9329 53.9073 86.1687 54.1652 86.3523 54.5007C86.5358 54.833 86.6276 55.265 86.6276 55.7967V60.6388H85.2414V59.6419H85.1845C85.0927 59.8254 84.955 60.0058 84.7715 60.1831C84.5879 60.3603 84.3521 60.5075 84.0641 60.6246C83.7761 60.7416 83.4312 60.8002 83.0292 60.8002ZM83.3378 59.6609C83.7302 59.6609 84.0657 59.5833 84.3442 59.4283C84.6259 59.2732 84.8395 59.0706 84.9851 58.8206C85.1338 58.5674 85.2082 58.2969 85.2082 58.0089V57.0689C85.1576 57.1196 85.0595 57.167 84.9139 57.2113C84.7715 57.2525 84.6085 57.2889 84.4249 57.3205C84.2414 57.349 84.0626 57.3759 83.8885 57.4012C83.7144 57.4234 83.5688 57.4424 83.4517 57.4582C83.1764 57.493 82.9248 57.5515 82.6969 57.6338C82.4722 57.7161 82.2919 57.8348 82.1558 57.9899C82.0228 58.1418 81.9564 58.3443 81.9564 58.5975C81.9564 58.9488 82.0861 59.2146 82.3457 59.395C82.6052 59.5723 82.9359 59.6609 83.3378 59.6609ZM89.9376 56.3094V60.6388H88.5182V53.3471H89.8806V54.5339H89.9708C90.1385 54.1478 90.4012 53.8377 90.7588 53.6035C91.1196 53.3693 91.5738 53.2522 92.1213 53.2522C92.6182 53.2522 93.0533 53.3566 93.4268 53.5655C93.8002 53.7712 94.0898 54.0782 94.2955 54.4864C94.5012 54.8947 94.6041 55.3995 94.6041 56.0008V60.6388H93.1846V56.1717C93.1846 55.6432 93.047 55.2302 92.7716 54.9327C92.4963 54.632 92.1181 54.4817 91.6371 54.4817C91.3079 54.4817 91.0152 54.5529 90.7588 54.6953C90.5057 54.8377 90.3047 55.0466 90.1559 55.322C90.0104 55.5941 89.9376 55.9233 89.9376 56.3094ZM101.972 55.1273L100.685 55.3552C100.631 55.1906 100.546 55.034 100.429 54.8852C100.315 54.7365 100.16 54.6146 99.9636 54.5197C99.7674 54.4247 99.5221 54.3773 99.2278 54.3773C98.8259 54.3773 98.4904 54.4675 98.2214 54.6479C97.9524 54.8251 97.8179 55.0545 97.8179 55.3362C97.8179 55.5799 97.9081 55.7761 98.0885 55.9248C98.2689 56.0736 98.56 56.1954 98.962 56.2904L100.12 56.5562C100.791 56.7113 101.291 56.9502 101.62 57.273C101.95 57.5959 102.114 58.0152 102.114 58.531C102.114 58.9678 101.988 59.3571 101.734 59.6989C101.484 60.0375 101.135 60.3033 100.685 60.4964C100.239 60.6894 99.7215 60.786 99.1329 60.786C98.3163 60.786 97.6502 60.6119 97.1343 60.2638C96.6184 59.9125 96.302 59.414 96.1849 58.7684L97.5568 58.5595C97.6423 58.9171 97.8179 59.1877 98.0837 59.3713C98.3496 59.5517 98.6961 59.6419 99.1234 59.6419C99.5886 59.6419 99.9605 59.5454 100.239 59.3523C100.517 59.1561 100.657 58.9171 100.657 58.6355C100.657 58.4076 100.571 58.2161 100.4 58.0611C100.233 57.906 99.9747 57.7889 99.6266 57.7098L98.3923 57.4392C97.7119 57.2841 97.2087 57.0373 96.8827 56.6986C96.5599 56.36 96.3985 55.9312 96.3985 55.4121C96.3985 54.9817 96.5188 54.6051 96.7593 54.2823C96.9998 53.9595 97.3321 53.7079 97.7562 53.5275C98.1803 53.344 98.6661 53.2522 99.2136 53.2522C100.002 53.2522 100.622 53.4231 101.074 53.7649C101.527 54.1035 101.826 54.5577 101.972 55.1273ZM106.746 60.786C106.04 60.786 105.433 60.6261 104.923 60.3065C104.417 59.9837 104.028 59.539 103.755 58.9725C103.483 58.406 103.347 57.7573 103.347 57.0262C103.347 56.2856 103.486 55.6321 103.765 55.0656C104.043 54.4959 104.436 54.0513 104.942 53.7316C105.449 53.412 106.045 53.2522 106.732 53.2522C107.286 53.2522 107.779 53.355 108.213 53.5608C108.647 53.7633 108.996 54.0481 109.262 54.4152C109.531 54.7824 109.691 55.2112 109.742 55.7017H108.36C108.284 55.3599 108.11 55.0656 107.838 54.8188C107.569 54.5719 107.208 54.4485 106.756 54.4485C106.36 54.4485 106.014 54.5529 105.716 54.7618C105.422 54.9675 105.192 55.2618 105.028 55.6448C104.863 56.0245 104.781 56.4739 104.781 56.993C104.781 57.5246 104.862 57.9835 105.023 58.3696C105.184 58.7557 105.412 59.0548 105.707 59.2669C106.004 59.4789 106.354 59.5849 106.756 59.5849C107.025 59.5849 107.268 59.5359 107.487 59.4378C107.708 59.3365 107.893 59.1925 108.042 59.0058C108.194 58.819 108.3 58.5943 108.36 58.3317H109.742C109.691 58.8032 109.537 59.2241 109.281 59.5944C109.025 59.9647 108.681 60.2559 108.251 60.4679C107.824 60.6799 107.322 60.786 106.746 60.786ZM111.26 60.6388V53.3471H112.631V54.5054H112.707C112.84 54.113 113.075 53.8044 113.41 53.5797C113.749 53.3519 114.132 53.2379 114.559 53.2379C114.647 53.2379 114.752 53.2411 114.872 53.2474C114.996 53.2538 115.092 53.2617 115.162 53.2712V54.6289C115.105 54.613 115.003 54.5956 114.858 54.5766C114.712 54.5545 114.567 54.5434 114.421 54.5434C114.086 54.5434 113.787 54.6146 113.524 54.757C113.264 54.8963 113.059 55.0909 112.907 55.3409C112.755 55.5878 112.679 55.8695 112.679 56.1859V60.6388H111.26ZM116.39 60.6388V53.3471H117.809V60.6388H116.39ZM117.107 52.222C116.86 52.222 116.648 52.1398 116.471 51.9752C116.297 51.8075 116.21 51.6081 116.21 51.377C116.21 51.1429 116.297 50.9435 116.471 50.7789C116.648 50.6112 116.86 50.5273 117.107 50.5273C117.354 50.5273 117.564 50.6112 117.738 50.7789C117.915 50.9435 118.004 51.1429 118.004 51.377C118.004 51.6081 117.915 51.8075 117.738 51.9752C117.564 52.1398 117.354 52.222 117.107 52.222ZM119.719 63.3732V53.3471H121.105V54.5292H121.224C121.306 54.3773 121.425 54.2016 121.58 54.0022C121.735 53.8029 121.95 53.6288 122.226 53.48C122.501 53.3281 122.865 53.2522 123.317 53.2522C123.906 53.2522 124.431 53.4009 124.893 53.6984C125.355 53.9959 125.718 54.4247 125.981 54.9849C126.246 55.5451 126.379 56.2192 126.379 57.0072C126.379 57.7952 126.248 58.4709 125.985 59.0342C125.723 59.5944 125.362 60.0264 124.903 60.3302C124.444 60.6309 123.92 60.7812 123.332 60.7812C122.889 60.7812 122.526 60.7068 122.245 60.5581C121.966 60.4093 121.748 60.2353 121.589 60.0359C121.431 59.8365 121.309 59.6593 121.224 59.5042H121.138V63.3732H119.719ZM121.11 56.993C121.11 57.5057 121.184 57.9551 121.333 58.3412C121.482 58.7273 121.697 59.0295 121.979 59.2479C122.26 59.4631 122.605 59.5707 123.014 59.5707C123.438 59.5707 123.792 59.4583 124.077 59.2336C124.362 59.0058 124.577 58.6972 124.723 58.3079C124.871 57.9187 124.946 57.4803 124.946 56.993C124.946 56.5119 124.873 56.0799 124.727 55.697C124.585 55.314 124.37 55.0118 124.082 54.7903C123.797 54.5687 123.441 54.458 123.014 54.458C122.602 54.458 122.254 54.564 121.969 54.776C121.688 54.9881 121.474 55.284 121.328 55.6638C121.183 56.0435 121.11 56.4866 121.11 56.993ZM131.373 53.3471V54.4864L127.39 54.4864V53.3471L131.373 53.3471ZM128.459 51.6002H129.878V58.4978C129.878 58.7732 129.919 58.9804 130.001 59.1197C130.084 59.2558 130.19 59.3491 130.319 59.3998C130.452 59.4473 130.596 59.471 130.751 59.471C130.865 59.471 130.965 59.4631 131.051 59.4473C131.136 59.4314 131.202 59.4188 131.25 59.4093L131.506 60.5818C131.424 60.6135 131.307 60.6451 131.155 60.6768C131.003 60.7116 130.813 60.7306 130.585 60.7337C130.212 60.7401 129.864 60.6736 129.541 60.5344C129.218 60.3951 128.957 60.1799 128.758 59.8887C128.558 59.5976 128.459 59.232 128.459 58.7921V51.6002Z" fill="#21201D"/>
<path d="M186.068 60.6388V50.9166H189.534C190.29 50.9166 190.917 51.0542 191.413 51.3296C191.91 51.6049 192.282 51.9815 192.529 52.4594C192.776 52.9341 192.899 53.469 192.899 54.064C192.899 54.6621 192.774 55.2001 192.524 55.678C192.277 56.1527 191.904 56.5293 191.404 56.8078C190.907 57.0832 190.282 57.2208 189.529 57.2208H187.146V55.9771H189.396C189.874 55.9771 190.261 55.8948 190.559 55.7302C190.856 55.5625 191.075 55.3346 191.214 55.0466C191.353 54.7586 191.423 54.4311 191.423 54.064C191.423 53.6968 191.353 53.3709 191.214 53.086C191.075 52.8012 190.855 52.5781 190.554 52.4167C190.257 52.2553 189.864 52.1746 189.377 52.1746H187.535V60.6388H186.068ZM196.562 60.8002C196.1 60.8002 195.682 60.7147 195.308 60.5438C194.935 60.3698 194.639 60.1182 194.421 59.789C194.206 59.4599 194.098 59.0564 194.098 58.5785C194.098 58.1671 194.177 57.8285 194.335 57.5626C194.494 57.2968 194.707 57.0863 194.976 56.9312C195.245 56.7762 195.546 56.6591 195.878 56.58C196.21 56.5008 196.549 56.4407 196.894 56.3996C197.331 56.3489 197.685 56.3078 197.957 56.2761C198.23 56.2413 198.427 56.1859 198.551 56.11C198.674 56.034 198.736 55.9106 198.736 55.7397V55.7065C198.736 55.2919 198.619 54.9707 198.385 54.7428C198.154 54.5149 197.809 54.401 197.35 54.401C196.872 54.401 196.495 54.507 196.22 54.7191C195.948 54.9279 195.759 55.1605 195.655 55.4169L194.321 55.1131C194.479 54.67 194.71 54.3124 195.014 54.0402C195.321 53.7649 195.674 53.5655 196.073 53.4421C196.472 53.3155 196.891 53.2522 197.331 53.2522C197.622 53.2522 197.931 53.287 198.256 53.3566C198.586 53.4231 198.893 53.5465 199.177 53.7269C199.465 53.9073 199.701 54.1652 199.885 54.5007C200.068 54.833 200.16 55.265 200.16 55.7967V60.6388H198.774V59.6419H198.717C198.625 59.8254 198.488 60.0058 198.304 60.1831C198.12 60.3603 197.885 60.5075 197.597 60.6246C197.309 60.7416 196.964 60.8002 196.562 60.8002ZM196.87 59.6609C197.263 59.6609 197.598 59.5833 197.877 59.4283C198.158 59.2732 198.372 59.0706 198.518 58.8206C198.666 58.5674 198.741 58.2969 198.741 58.0089V57.0689C198.69 57.1196 198.592 57.167 198.446 57.2113C198.304 57.2525 198.141 57.2889 197.957 57.3205C197.774 57.349 197.595 57.3759 197.421 57.4012C197.247 57.4234 197.101 57.4424 196.984 57.4582C196.709 57.493 196.457 57.5515 196.229 57.6338C196.005 57.7161 195.824 57.8348 195.688 57.9899C195.555 58.1418 195.489 58.3443 195.489 58.5975C195.489 58.9488 195.619 59.2146 195.878 59.395C196.138 59.5723 196.468 59.6609 196.87 59.6609ZM205.454 53.3471V54.4864H201.472V53.3471H205.454ZM202.54 51.6002H203.959V58.4978C203.959 58.7732 204 58.9804 204.082 59.1197C204.165 59.2558 204.271 59.3491 204.401 59.3998C204.533 59.4473 204.677 59.471 204.833 59.471C204.946 59.471 205.046 59.4631 205.132 59.4473C205.217 59.4314 205.284 59.4188 205.331 59.4093L205.587 60.5818C205.505 60.6135 205.388 60.6451 205.236 60.6768C205.084 60.7116 204.894 60.7306 204.666 60.7337C204.293 60.7401 203.945 60.6736 203.622 60.5344C203.299 60.3951 203.038 60.1799 202.839 59.8887C202.639 59.5976 202.54 59.232 202.54 58.7921V51.6002ZM207.025 60.6388V53.3471H208.444V60.6388H207.025ZM207.741 52.222C207.495 52.222 207.282 52.1398 207.105 51.9752C206.931 51.8075 206.844 51.6081 206.844 51.377C206.844 51.1429 206.931 50.9435 207.105 50.7789C207.282 50.6112 207.495 50.5273 207.741 50.5273C207.988 50.5273 208.199 50.6112 208.373 50.7789C208.55 50.9435 208.639 51.1429 208.639 51.377C208.639 51.6081 208.55 51.8075 208.373 51.9752C208.199 52.1398 207.988 52.222 207.741 52.222ZM213.496 60.786C212.778 60.786 212.159 60.6325 211.64 60.3255C211.124 60.0153 210.725 59.5802 210.444 59.02C210.165 58.4567 210.026 57.7968 210.026 57.0404C210.026 56.2935 210.165 55.6353 210.444 55.0656C210.725 54.4959 211.118 54.0513 211.621 53.7316C212.127 53.412 212.719 53.2522 213.396 53.2522C213.808 53.2522 214.207 53.3202 214.593 53.4563C214.979 53.5924 215.325 53.806 215.632 54.0972C215.939 54.3883 216.181 54.7665 216.359 55.2318C216.536 55.6938 216.625 56.2556 216.625 56.917V57.4202H210.828V56.3568H215.234C215.234 55.9834 215.158 55.6527 215.006 55.3647C214.854 55.0735 214.64 54.8441 214.365 54.6763C214.093 54.5086 213.773 54.4247 213.406 54.4247C213.007 54.4247 212.659 54.5228 212.362 54.7191C212.067 54.9121 211.839 55.1653 211.678 55.4786C211.52 55.7888 211.441 56.1258 211.441 56.4898V57.3205C211.441 57.8079 211.526 58.2225 211.697 58.5643C211.871 58.9061 212.113 59.1672 212.423 59.3476C212.733 59.5248 213.096 59.6134 213.51 59.6134C213.779 59.6134 214.025 59.5754 214.246 59.4995C214.468 59.4204 214.659 59.3033 214.821 59.1482C214.982 58.9931 215.105 58.8016 215.191 58.5738L216.534 58.8159C216.427 59.2115 216.234 59.558 215.955 59.8555C215.68 60.1498 215.333 60.3793 214.916 60.5438C214.501 60.7053 214.028 60.786 213.496 60.786ZM219.619 56.3094V60.6388H218.199V53.3471H219.562V54.5339H219.652C219.82 54.1478 220.082 53.8377 220.44 53.6035C220.801 53.3693 221.255 53.2522 221.803 53.2522C222.299 53.2522 222.735 53.3566 223.108 53.5655C223.481 53.7712 223.771 54.0782 223.977 54.4864C224.182 54.8947 224.285 55.3995 224.285 56.0008V60.6388H222.866V56.1717C222.866 55.6432 222.728 55.2302 222.453 54.9327C222.178 54.632 221.799 54.4817 221.318 54.4817C220.989 54.4817 220.696 54.5529 220.44 54.6953C220.187 54.8377 219.986 55.0466 219.837 55.322C219.692 55.5941 219.619 55.9233 219.619 56.3094ZM229.593 53.3471V54.4864H225.61V53.3471H229.593ZM226.678 51.6002H228.097V58.4978C228.097 58.7732 228.138 58.9804 228.221 59.1197C228.303 59.2558 228.409 59.3491 228.539 59.3998C228.672 59.4473 228.816 59.471 228.971 59.471C229.085 59.471 229.184 59.4631 229.27 59.4473C229.355 59.4314 229.422 59.4188 229.469 59.4093L229.726 60.5818C229.643 60.6135 229.526 60.6451 229.374 60.6768C229.222 60.7116 229.032 60.7306 228.805 60.7337C228.431 60.7401 228.083 60.6736 227.76 60.5344C227.437 60.3951 227.176 60.1799 226.977 59.8887C226.778 59.5976 226.678 59.232 226.678 58.7921V51.6002Z" fill="#82807C"/>
<path d="M293.623 60.6388V50.9166H295.09V55.1416H299.937V50.9166H301.408V60.6388H299.937V56.3996H295.09V60.6388H293.623ZM303.43 60.6388V53.3471H304.85V60.6388H303.43ZM304.147 52.222C303.9 52.222 303.688 52.1398 303.511 51.9752C303.337 51.8075 303.25 51.6081 303.25 51.377C303.25 51.1429 303.337 50.9435 303.511 50.7789C303.688 50.6112 303.9 50.5273 304.147 50.5273C304.394 50.5273 304.605 50.6112 304.779 50.7789C304.956 50.9435 305.045 51.1429 305.045 51.377C305.045 51.6081 304.956 51.8075 304.779 51.9752C304.605 52.1398 304.394 52.222 304.147 52.222ZM312.223 55.1273L310.937 55.3552C310.883 55.1906 310.798 55.034 310.681 54.8852C310.567 54.7365 310.412 54.6146 310.215 54.5197C310.019 54.4247 309.774 54.3773 309.48 54.3773C309.078 54.3773 308.742 54.4675 308.473 54.6479C308.204 54.8251 308.07 55.0545 308.07 55.3362C308.07 55.5799 308.16 55.7761 308.34 55.9248C308.521 56.0736 308.812 56.1954 309.214 56.2904L310.372 56.5562C311.043 56.7113 311.543 56.9502 311.872 57.273C312.201 57.5959 312.366 58.0152 312.366 58.531C312.366 58.9678 312.239 59.3571 311.986 59.6989C311.736 60.0375 311.386 60.3033 310.937 60.4964C310.491 60.6894 309.973 60.786 309.385 60.786C308.568 60.786 307.902 60.6119 307.386 60.2638C306.87 59.9125 306.554 59.414 306.437 58.7684L307.809 58.5595C307.894 58.9171 308.07 59.1877 308.335 59.3713C308.601 59.5517 308.948 59.6419 309.375 59.6419C309.84 59.6419 310.212 59.5454 310.491 59.3523C310.769 59.1561 310.908 58.9171 310.908 58.6355C310.908 58.4076 310.823 58.2161 310.652 58.0611C310.484 57.906 310.226 57.7889 309.878 57.7098L308.644 57.4392C307.964 57.2841 307.46 57.0373 307.134 56.6986C306.812 56.36 306.65 55.9312 306.65 55.4121C306.65 54.9817 306.771 54.6051 307.011 54.2823C307.252 53.9595 307.584 53.7079 308.008 53.5275C308.432 53.344 308.918 53.2522 309.465 53.2522C310.253 53.2522 310.874 53.4231 311.326 53.7649C311.779 54.1035 312.078 54.5577 312.223 55.1273ZM317.33 53.3471V54.4864H313.347V53.3471H317.33ZM314.415 51.6002H315.835V58.4978C315.835 58.7732 315.876 58.9804 315.958 59.1197C316.041 59.2558 316.147 59.3491 316.276 59.3998C316.409 59.4473 316.553 59.471 316.708 59.471C316.822 59.471 316.922 59.4631 317.007 59.4473C317.093 59.4314 317.159 59.4188 317.207 59.4093L317.463 60.5818C317.381 60.6135 317.264 60.6451 317.112 60.6768C316.96 60.7116 316.77 60.7306 316.542 60.7337C316.169 60.7401 315.821 60.6736 315.498 60.5344C315.175 60.3951 314.914 60.1799 314.715 59.8887C314.515 59.5976 314.415 59.232 314.415 58.7921V51.6002ZM321.893 60.786C321.21 60.786 320.613 60.6293 320.104 60.316C319.594 60.0027 319.199 59.5643 318.917 59.001C318.635 58.4377 318.494 57.7794 318.494 57.0262C318.494 56.2698 318.635 55.6084 318.917 55.0419C319.199 54.4754 319.594 54.0355 320.104 53.7222C320.613 53.4088 321.21 53.2522 321.893 53.2522C322.577 53.2522 323.174 53.4088 323.683 53.7222C324.193 54.0355 324.588 54.4754 324.87 55.0419C325.152 55.6084 325.292 56.2698 325.292 57.0262C325.292 57.7794 325.152 58.4377 324.87 59.001C324.588 59.5643 324.193 60.0027 323.683 60.316C323.174 60.6293 322.577 60.786 321.893 60.786ZM321.898 59.5944C322.341 59.5944 322.708 59.4773 323 59.2431C323.291 59.0089 323.506 58.6972 323.645 58.3079C323.788 57.9187 323.859 57.4898 323.859 57.0214C323.859 56.5562 323.788 56.129 323.645 55.7397C323.506 55.3473 323.291 55.0324 323 54.795C322.708 54.5577 322.341 54.439 321.898 54.439C321.452 54.439 321.082 54.5577 320.787 54.795C320.496 55.0324 320.279 55.3473 320.137 55.7397C319.998 56.129 319.928 56.5562 319.928 57.0214C319.928 57.4898 319.998 57.9187 320.137 58.3079C320.279 58.6972 320.496 59.0089 320.787 59.2431C321.082 59.4773 321.452 59.5944 321.898 59.5944ZM326.877 60.6388V53.3471H328.249V54.5054H328.325C328.458 54.113 328.692 53.8044 329.027 53.5797C329.366 53.3519 329.749 53.2379 330.176 53.2379C330.265 53.2379 330.369 53.2411 330.489 53.2474C330.613 53.2538 330.709 53.2617 330.779 53.2712V54.6289C330.722 54.613 330.621 54.5956 330.475 54.5766C330.33 54.5545 330.184 54.5434 330.038 54.5434C329.703 54.5434 329.404 54.6146 329.141 54.757C328.882 54.8963 328.676 55.0909 328.524 55.3409C328.372 55.5878 328.296 55.8695 328.296 56.1859V60.6388H326.877ZM333.126 63.3732C332.914 63.3732 332.721 63.3558 332.547 63.3209C332.373 63.2893 332.243 63.2545 332.158 63.2165L332.5 62.0535C332.759 62.1231 332.99 62.1531 333.193 62.1436C333.395 62.1342 333.574 62.0582 333.729 61.9158C333.888 61.7734 334.027 61.5408 334.147 61.2179L334.323 60.7337L331.655 53.3471H333.174L335.021 59.0058H335.097L336.943 53.3471H338.467L335.462 61.612C335.323 61.9917 335.146 62.313 334.93 62.5756C334.715 62.8415 334.459 63.0409 334.161 63.1738C333.864 63.3067 333.519 63.3732 333.126 63.3732Z" fill="#82807C"/>
</g>
<g clip-path="url(#clip1_645_22303)">
<rect x="44" y="110.995" width="1.90972" height="1.90972" rx="0.954861" fill="#DAD9D6"/>
<rect x="47.8203" y="110.995" width="1.90972" height="1.90972" rx="0.954861" fill="#DAD9D6"/>
<rect x="51.6406" y="110.995" width="1.90972" height="1.90972" rx="0.954861" fill="#DAD9D6"/>
<rect x="55.4609" y="110.995" width="1.90972" height="1.90972" rx="0.954861" fill="#DAD9D6"/>
<rect x="59.2812" y="110.995" width="1.90972" height="1.90972" rx="0.954861" fill="#DAD9D6"/>
<rect x="63.0938" y="106.698" width="1.90972" height="10.5035" rx="0.954861" fill="#DAD9D6"/>
<rect x="66.9141" y="110.995" width="1.90972" height="1.90972" rx="0.954861" fill="#DAD9D6"/>
<rect x="70.7344" y="110.995" width="1.90972" height="1.90972" rx="0.954861" fill="#DAD9D6"/>
<rect x="74.5547" y="108.608" width="1.90972" height="6.68403" rx="0.954861" fill="#DAD9D6"/>
<rect x="78.375" y="110.995" width="1.90972" height="1.90972" rx="0.954861" fill="#DAD9D6"/>
<rect x="82.1953" y="108.608" width="1.90972" height="6.68403" rx="0.954861" fill="#DAD9D6"/>
<rect x="86.0156" y="107.653" width="1.90972" height="8.59375" rx="0.954861" fill="#DAD9D6"/>
<rect x="89.8359" y="110.995" width="1.90972" height="1.90972" rx="0.954861" fill="#DAD9D6"/>
<rect x="93.6562" y="110.995" width="1.90972" height="1.90972" rx="0.954861" fill="#DAD9D6"/>
<rect x="97.4688" y="110.995" width="1.90972" height="1.90972" rx="0.954861" fill="#DAD9D6"/>
<rect x="101.289" y="109.562" width="1.90972" height="4.77431" rx="0.954861" fill="#DAD9D6"/>
<rect x="105.109" y="110.995" width="1.90972" height="1.90972" rx="0.954861" fill="#DAD9D6"/>
<rect x="108.93" y="110.995" width="1.90972" height="1.90972" rx="0.954861" fill="#DAD9D6"/>
<rect x="112.75" y="108.608" width="1.90972" height="6.68403" rx="0.954861" fill="#DAD9D6"/>
<rect x="116.57" y="110.995" width="1.90972" height="1.90972" rx="0.954861" fill="#DAD9D6"/>
<rect x="120.391" y="106.698" width="1.90972" height="10.5035" rx="0.954861" fill="#DAD9D6"/>
<rect x="124.211" y="110.995" width="1.90972" height="1.90972" rx="0.954861" fill="#DAD9D6"/>
<rect x="128.031" y="110.995" width="1.90972" height="1.90972" rx="0.954861" fill="#DAD9D6"/>
<rect x="131.844" y="110.995" width="1.90972" height="1.90972" rx="0.954861" fill="#DAD9D6"/>
<rect x="135.664" y="104.788" width="1.90972" height="14.3229" rx="0.954861" fill="#DAD9D6"/>
<rect x="139.484" y="91.4202" width="1.90972" height="41.059" rx="0.954861" fill="#DAD9D6"/>
<rect x="143.305" y="96.1945" width="1.90972" height="31.5104" rx="0.954861" fill="#DAD9D6"/>
<rect x="147.125" y="98.1042" width="1.90972" height="27.691" rx="0.954861" fill="#DAD9D6"/>
<rect x="150.945" y="96.1945" width="1.90972" height="31.5104" rx="0.954861" fill="#DAD9D6"/>
<rect x="154.766" y="100.969" width="1.90972" height="21.9618" rx="0.954861" fill="#DAD9D6"/>
<rect x="158.586" y="99.059" width="1.90972" height="25.7812" rx="0.954861" fill="#DAD9D6"/>
<rect x="162.406" y="104.788" width="1.90972" height="14.3229" rx="0.954861" fill="#DAD9D6"/>
<rect x="166.219" y="102.879" width="1.90972" height="18.1424" rx="0.954861" fill="#DAD9D6"/>
<rect x="170.039" y="103.833" width="1.90972" height="16.2326" rx="0.954861" fill="#DAD9D6"/>
<rect x="173.859" y="110.04" width="1.90972" height="3.81944" rx="0.954861" fill="#DAD9D6"/>
<rect x="177.68" y="106.698" width="1.90972" height="10.5035" rx="0.954861" fill="#DAD9D6"/>
<rect x="181.5" y="110.518" width="1.90972" height="2.86458" rx="0.954861" fill="#DAD9D6"/>
<rect x="185.32" y="110.995" width="1.90972" height="1.90972" rx="0.954861" fill="#DAD9D6"/>
<rect x="189.141" y="108.608" width="1.90972" height="6.68403" rx="0.954861" fill="#DAD9D6"/>
<rect x="192.961" y="110.517" width="1.90972" height="2.86458" rx="0.954861" fill="#DAD9D6"/>
<rect x="196.781" y="106.698" width="1.90972" height="10.5035" rx="0.954861" fill="#DAD9D6"/>
<rect x="200.594" y="110.04" width="1.90972" height="3.81944" rx="0.954861" fill="#DAD9D6"/>
<rect x="204.414" y="110.04" width="1.90972" height="3.81944" rx="0.954861" fill="#DAD9D6"/>
<rect x="208.234" y="110.04" width="1.90972" height="3.81944" rx="0.954861" fill="#DAD9D6"/>
<rect x="212.055" y="110.04" width="1.90972" height="3.81944" rx="0.954861" fill="#DAD9D6"/>
<rect x="215.875" y="106.698" width="1.90972" height="10.5035" rx="0.954861" fill="#DAD9D6"/>
<rect x="219.695" y="110.517" width="1.90972" height="2.86458" rx="0.954861" fill="#DAD9D6"/>
<rect x="223.516" y="110.995" width="1.90972" height="1.90972" rx="0.954861" fill="#DAD9D6"/>
<rect x="227.336" y="108.608" width="1.90972" height="6.68403" rx="0.954861" fill="#DAD9D6"/>
<rect x="231.156" y="110.517" width="1.90972" height="2.86458" rx="0.954861" fill="#DAD9D6"/>
<rect x="234.969" y="106.698" width="1.90972" height="10.5035" rx="0.954861" fill="#DAD9D6"/>
<rect x="238.789" y="101.924" width="1.90972" height="20.0521" rx="0.954861" fill="#DAD9D6"/>
<rect x="242.609" y="94.2848" width="1.90972" height="35.3299" rx="0.954861" fill="#DAD9D6"/>
<rect x="246.43" y="101.924" width="1.90972" height="20.0521" rx="0.954861" fill="#DAD9D6"/>
<rect x="250.25" y="100.969" width="1.90972" height="21.9618" rx="0.954861" fill="#DAD9D6"/>
<rect x="254.07" y="102.879" width="1.90972" height="18.1424" rx="0.954861" fill="#DAD9D6"/>
<rect x="257.891" y="104.788" width="1.90972" height="14.3229" rx="0.954861" fill="#DAD9D6"/>
<rect x="261.711" y="103.833" width="1.90972" height="16.2326" rx="0.954861" fill="#DAD9D6"/>
<rect x="265.531" y="100.014" width="1.90972" height="23.8715" rx="0.954861" fill="#DAD9D6"/>
<rect x="269.344" y="104.788" width="1.90972" height="14.3229" rx="0.954861" fill="#DAD9D6"/>
<rect x="273.164" y="102.879" width="1.90972" height="18.1424" rx="0.954861" fill="#DAD9D6"/>
<rect x="276.984" y="104.788" width="1.90972" height="14.3229" rx="0.954861" fill="#DAD9D6"/>
<rect x="280.805" y="103.833" width="1.90972" height="16.2326" rx="0.954861" fill="#DAD9D6"/>
<rect x="284.625" y="106.698" width="1.90972" height="10.5035" rx="0.954861" fill="#DAD9D6"/>
<rect x="288.445" y="101.924" width="1.90972" height="20.0521" rx="0.954861" fill="#DAD9D6"/>
<rect x="292.266" y="105.743" width="1.90972" height="12.4132" rx="0.954861" fill="#DAD9D6"/>
<rect x="296.086" y="99.0591" width="1.90972" height="25.7812" rx="0.954861" fill="#DAD9D6"/>
<rect x="299.906" y="110.04" width="1.90972" height="3.81944" rx="0.954861" fill="#DAD9D6"/>
<rect x="303.719" y="110.04" width="1.90972" height="3.81944" rx="0.954861" fill="#DAD9D6"/>
<rect x="307.539" y="110.04" width="1.90972" height="3.81944" rx="0.954861" fill="#DAD9D6"/>
<rect x="311.359" y="110.04" width="1.90972" height="3.81944" rx="0.954861" fill="#DAD9D6"/>
<rect x="315.18" y="106.698" width="1.90972" height="10.5035" rx="0.954861" fill="#DAD9D6"/>
<rect x="319" y="110.517" width="1.90972" height="2.86458" rx="0.954861" fill="#DAD9D6"/>
<rect x="322.82" y="110.995" width="1.90972" height="1.90972" rx="0.954861" fill="#DAD9D6"/>
<rect x="326.641" y="108.608" width="1.90972" height="6.68403" rx="0.954861" fill="#DAD9D6"/>
<rect x="330.461" y="110.517" width="1.90972" height="2.86458" rx="0.954861" fill="#DAD9D6"/>
<rect x="334.281" y="110.995" width="1.90972" height="1.90972" rx="0.954861" fill="#DAD9D6"/>
<rect x="338.094" y="110.995" width="1.90972" height="1.90972" rx="0.954861" fill="#DAD9D6"/>
<rect x="341.914" y="110.995" width="1.90972" height="1.90972" rx="0.954861" fill="#DAD9D6"/>
<rect x="345.734" y="110.995" width="1.90972" height="1.90972" rx="0.954861" fill="#DAD9D6"/>
<rect x="349.555" y="106.698" width="1.90972" height="10.5035" rx="0.954861" fill="#DAD9D6"/>
<rect x="353.375" y="109.562" width="1.90972" height="4.77431" rx="0.954861" fill="#DAD9D6"/>
<rect x="357.195" y="110.995" width="1.90972" height="1.90972" rx="0.954861" fill="#DAD9D6"/>
<rect x="361.016" y="110.995" width="1.90972" height="1.90972" rx="0.954861" fill="#DAD9D6"/>
<rect x="364.836" y="108.608" width="1.90972" height="6.68403" rx="0.954861" fill="#DAD9D6"/>
<rect x="368.656" y="110.995" width="1.90972" height="1.90972" rx="0.954861" fill="#DAD9D6"/>
</g>
<path d="M49.7295 151.099H65.0068C67.9073 151.099 70.2588 153.451 70.2588 156.351V171.629C70.2588 174.529 67.9073 176.88 65.0068 176.88H49.7295C46.829 176.88 44.4775 174.529 44.4775 171.629V156.351C44.4775 153.451 46.829 151.099 49.7295 151.099Z" fill="white"/>
<path d="M49.7295 151.099H65.0068C67.9073 151.099 70.2588 153.451 70.2588 156.351V171.629C70.2588 174.529 67.9073 176.88 65.0068 176.88H49.7295C46.829 176.88 44.4775 174.529 44.4775 171.629V156.351C44.4775 153.451 46.829 151.099 49.7295 151.099Z" stroke="#E9E8E6" stroke-width="0.954861"/>
<path d="M53.4756 158.298C53.6232 158.3 53.7676 158.343 53.8936 158.422L61.71 163.277H61.7109C61.8314 163.351 61.9309 163.456 62 163.581C62.0691 163.706 62.1058 163.847 62.1055 163.99C62.1058 164.133 62.0691 164.274 62 164.399C61.9309 164.524 61.8313 164.628 61.7109 164.702H61.71L53.8936 169.557C53.7675 169.636 53.6232 169.679 53.4756 169.681C53.3648 169.683 53.2546 169.663 53.1523 169.622L53.0527 169.573C52.9252 169.501 52.8183 169.395 52.7441 169.267C52.67 169.139 52.6311 168.993 52.6309 168.844V159.135C52.6311 158.987 52.6702 158.841 52.7441 158.713C52.7997 158.617 52.8738 158.533 52.9609 158.467L53.0527 158.406C53.1816 158.332 53.3278 158.295 53.4756 158.298Z" fill="#21201D" stroke="#21201D" stroke-width="0.0745985"/>
<path d="M86.8191 158.268V167.99H85.3474V159.739H85.2905L82.9644 161.258V159.853L85.3902 158.268H86.8191ZM89.8418 168.08C89.5823 168.08 89.3592 167.988 89.1725 167.805C88.9858 167.618 88.8924 167.393 88.8924 167.131C88.8924 166.871 88.9858 166.649 89.1725 166.466C89.3592 166.279 89.5823 166.186 89.8418 166.186C90.1013 166.186 90.3245 166.279 90.5112 166.466C90.6979 166.649 90.7913 166.871 90.7913 167.131C90.7913 167.305 90.747 167.464 90.6583 167.61C90.5729 167.752 90.459 167.866 90.3165 167.952C90.1741 168.037 90.0159 168.08 89.8418 168.08ZM95.7058 168.151C94.9557 168.148 94.3149 167.95 93.7832 167.558C93.2515 167.165 92.8448 166.594 92.5632 165.844C92.2815 165.094 92.1407 164.19 92.1407 163.133C92.1407 162.08 92.2815 161.179 92.5632 160.432C92.848 159.685 93.2562 159.116 93.7879 158.723C94.3228 158.331 94.9621 158.135 95.7058 158.135C96.4495 158.135 97.0872 158.332 97.6189 158.728C98.1506 159.12 98.5573 159.69 98.8389 160.437C99.1238 161.181 99.2662 162.08 99.2662 163.133C99.2662 164.194 99.1253 165.099 98.8437 165.849C98.562 166.596 98.1553 167.167 97.6236 167.562C97.092 167.955 96.4527 168.151 95.7058 168.151ZM95.7058 166.884C96.3641 166.884 96.8783 166.562 97.2486 165.92C97.6221 165.278 97.8088 164.349 97.8088 163.133C97.8088 162.326 97.7233 161.644 97.5524 161.087C97.3847 160.527 97.1426 160.103 96.8261 159.815C96.5128 159.524 96.1394 159.378 95.7058 159.378C95.0507 159.378 94.5364 159.701 94.1629 160.347C93.7895 160.992 93.6012 161.921 93.598 163.133C93.598 163.944 93.6819 164.629 93.8496 165.189C94.0205 165.746 94.2626 166.168 94.576 166.456C94.8893 166.741 95.2659 166.884 95.7058 166.884ZM102.09 160.698L103.699 163.537L105.322 160.698H106.875L104.601 164.344L106.894 167.99H105.341L103.699 165.265L102.061 167.99H100.504L102.773 164.344L100.532 160.698H102.09Z" fill="#21201D"/>
<path d="M287.32 168.151C286.57 168.148 285.929 167.95 285.397 167.558C284.866 167.165 284.459 166.594 284.177 165.844C283.896 165.094 283.755 164.19 283.755 163.133C283.755 162.08 283.896 161.179 284.177 160.432C284.462 159.685 284.87 159.116 285.402 158.723C285.937 158.331 286.576 158.135 287.32 158.135C288.064 158.135 288.701 158.332 289.233 158.728C289.765 159.12 290.171 159.69 290.453 160.437C290.738 161.181 290.88 162.08 290.88 163.133C290.88 164.194 290.739 165.099 290.458 165.849C290.176 166.596 289.769 167.167 289.238 167.562C288.706 167.955 288.067 168.151 287.32 168.151ZM287.32 166.884C287.978 166.884 288.492 166.562 288.863 165.92C289.236 165.278 289.423 164.349 289.423 163.133C289.423 162.326 289.337 161.644 289.167 161.087C288.999 160.527 288.757 160.103 288.44 159.815C288.127 159.524 287.754 159.378 287.32 159.378C286.665 159.378 286.151 159.701 285.777 160.347C285.404 160.992 285.215 161.921 285.212 163.133C285.212 163.944 285.296 164.629 285.464 165.189C285.635 165.746 285.877 166.168 286.19 166.456C286.503 166.741 286.88 166.884 287.32 166.884ZM295.949 168.151C295.199 168.148 294.558 167.95 294.027 167.558C293.495 167.165 293.088 166.594 292.806 165.844C292.525 165.094 292.384 164.19 292.384 163.133C292.384 162.08 292.525 161.179 292.806 160.432C293.091 159.685 293.5 159.116 294.031 158.723C294.566 158.331 295.205 158.135 295.949 158.135C296.693 158.135 297.331 158.332 297.862 158.728C298.394 159.12 298.801 159.69 299.082 160.437C299.367 161.181 299.509 162.08 299.509 163.133C299.509 164.194 299.369 165.099 299.087 165.849C298.805 166.596 298.399 167.167 297.867 167.562C297.335 167.955 296.696 168.151 295.949 168.151ZM295.949 166.884C296.607 166.884 297.122 166.562 297.492 165.92C297.865 165.278 298.052 164.349 298.052 163.133C298.052 162.326 297.967 161.644 297.796 161.087C297.628 160.527 297.386 160.103 297.069 159.815C296.756 159.524 296.383 159.378 295.949 159.378C295.294 159.378 294.78 159.701 294.406 160.347C294.033 160.992 293.845 161.921 293.841 163.133C293.841 163.944 293.925 164.629 294.093 165.189C294.264 165.746 294.506 166.168 294.819 166.456C295.133 166.741 295.509 166.884 295.949 166.884ZM302.148 166.784C301.888 166.784 301.665 166.692 301.478 166.509C301.292 166.322 301.198 166.097 301.198 165.835C301.198 165.575 301.292 165.353 301.478 165.17C301.665 164.983 301.888 164.89 302.148 164.89C302.407 164.89 302.63 164.983 302.817 165.17C303.004 165.353 303.097 165.575 303.097 165.835C303.097 166.009 303.053 166.168 302.964 166.314C302.879 166.456 302.765 166.57 302.622 166.656C302.48 166.741 302.322 166.784 302.148 166.784ZM302.148 161.913C301.888 161.913 301.665 161.822 301.478 161.638C301.292 161.451 301.198 161.227 301.198 160.964C301.198 160.704 301.292 160.483 301.478 160.299C301.665 160.113 301.888 160.019 302.148 160.019C302.407 160.019 302.63 160.113 302.817 160.299C303.004 160.483 303.097 160.704 303.097 160.964C303.097 161.138 303.053 161.298 302.964 161.443C302.879 161.586 302.765 161.7 302.622 161.785C302.48 161.871 302.322 161.913 302.148 161.913ZM308.364 168.151C307.614 168.148 306.973 167.95 306.442 167.558C305.91 167.165 305.503 166.594 305.222 165.844C304.94 165.094 304.799 164.19 304.799 163.133C304.799 162.08 304.94 161.179 305.222 160.432C305.506 159.685 305.915 159.116 306.446 158.723C306.981 158.331 307.62 158.135 308.364 158.135C309.108 158.135 309.746 158.332 310.277 158.728C310.809 159.12 311.216 159.69 311.497 160.437C311.782 161.181 311.925 162.08 311.925 163.133C311.925 164.194 311.784 165.099 311.502 165.849C311.22 166.596 310.814 167.167 310.282 167.562C309.75 167.955 309.111 168.151 308.364 168.151ZM308.364 166.884C309.022 166.884 309.537 166.562 309.907 165.92C310.28 165.278 310.467 164.349 310.467 163.133C310.467 162.326 310.382 161.644 310.211 161.087C310.043 160.527 309.801 160.103 309.485 159.815C309.171 159.524 308.798 159.378 308.364 159.378C307.709 159.378 307.195 159.701 306.821 160.347C306.448 160.992 306.26 161.921 306.256 163.133C306.256 163.944 306.34 164.629 306.508 165.189C306.679 165.746 306.921 166.168 307.234 166.456C307.548 166.741 307.924 166.884 308.364 166.884ZM316.993 168.151C316.243 168.148 315.602 167.95 315.071 167.558C314.539 167.165 314.132 166.594 313.851 165.844C313.569 165.094 313.428 164.19 313.428 163.133C313.428 162.08 313.569 161.179 313.851 160.432C314.136 159.685 314.544 159.116 315.075 158.723C315.61 158.331 316.25 158.135 316.993 158.135C317.737 158.135 318.375 158.332 318.906 158.728C319.438 159.12 319.845 159.69 320.126 160.437C320.411 161.181 320.554 162.08 320.554 163.133C320.554 164.194 320.413 165.099 320.131 165.849C319.85 166.596 319.443 167.167 318.911 167.562C318.38 167.955 317.74 168.151 316.993 168.151ZM316.993 166.884C317.652 166.884 318.166 166.562 318.536 165.92C318.91 165.278 319.096 164.349 319.096 163.133C319.096 162.326 319.011 161.644 318.84 161.087C318.672 160.527 318.43 160.103 318.114 159.815C317.8 159.524 317.427 159.378 316.993 159.378C316.338 159.378 315.824 159.701 315.451 160.347C315.077 160.992 314.889 161.921 314.886 163.133C314.886 163.944 314.969 164.629 315.137 165.189C315.308 165.746 315.55 166.168 315.864 166.456C316.177 166.741 316.553 166.884 316.993 166.884ZM329.497 157.812L326.364 169.452H325.097L328.23 157.812H329.497ZM337.607 168.151C336.857 168.148 336.216 167.95 335.684 167.558C335.152 167.165 334.746 166.594 334.464 165.844C334.182 165.094 334.042 164.19 334.042 163.133C334.042 162.08 334.182 161.179 334.464 160.432C334.749 159.685 335.157 159.116 335.689 158.723C336.224 158.331 336.863 158.135 337.607 158.135C338.351 158.135 338.988 158.332 339.52 158.728C340.052 159.12 340.458 159.69 340.74 160.437C341.025 161.181 341.167 162.08 341.167 163.133C341.167 164.194 341.026 165.099 340.745 165.849C340.463 166.596 340.056 167.167 339.525 167.562C338.993 167.955 338.354 168.151 337.607 168.151ZM337.607 166.884C338.265 166.884 338.779 166.562 339.15 165.92C339.523 165.278 339.71 164.349 339.71 163.133C339.71 162.326 339.624 161.644 339.453 161.087C339.286 160.527 339.044 160.103 338.727 159.815C338.414 159.524 338.04 159.378 337.607 159.378C336.952 159.378 336.437 159.701 336.064 160.347C335.691 160.992 335.502 161.921 335.499 163.133C335.499 163.944 335.583 164.629 335.751 165.189C335.922 165.746 336.164 166.168 336.477 166.456C336.79 166.741 337.167 166.884 337.607 166.884ZM346.236 168.151C345.486 168.148 344.845 167.95 344.313 167.558C343.782 167.165 343.375 166.594 343.093 165.844C342.812 165.094 342.671 164.19 342.671 163.133C342.671 162.08 342.812 161.179 343.093 160.432C343.378 159.685 343.786 159.116 344.318 158.723C344.853 158.331 345.492 158.135 346.236 158.135C346.98 158.135 347.617 158.332 348.149 158.728C348.681 159.12 349.087 159.69 349.369 160.437C349.654 161.181 349.796 162.08 349.796 163.133C349.796 164.194 349.656 165.099 349.374 165.849C349.092 166.596 348.686 167.167 348.154 167.562C347.622 167.955 346.983 168.151 346.236 168.151ZM346.236 166.884C346.894 166.884 347.409 166.562 347.779 165.92C348.152 165.278 348.339 164.349 348.339 163.133C348.339 162.326 348.254 161.644 348.083 161.087C347.915 160.527 347.673 160.103 347.356 159.815C347.043 159.524 346.67 159.378 346.236 159.378C345.581 159.378 345.067 159.701 344.693 160.347C344.32 160.992 344.131 161.921 344.128 163.133C344.128 163.944 344.212 164.629 344.38 165.189C344.551 165.746 344.793 166.168 345.106 166.456C345.419 166.741 345.796 166.884 346.236 166.884ZM352.435 166.784C352.175 166.784 351.952 166.692 351.765 166.509C351.579 166.322 351.485 166.097 351.485 165.835C351.485 165.575 351.579 165.353 351.765 165.17C351.952 164.983 352.175 164.89 352.435 164.89C352.694 164.89 352.917 164.983 353.104 165.17C353.291 165.353 353.384 165.575 353.384 165.835C353.384 166.009 353.34 166.168 353.251 166.314C353.166 166.456 353.052 166.57 352.909 166.656C352.767 166.741 352.609 166.784 352.435 166.784ZM352.435 161.913C352.175 161.913 351.952 161.822 351.765 161.638C351.579 161.451 351.485 161.227 351.485 160.964C351.485 160.704 351.579 160.483 351.765 160.299C351.952 160.113 352.175 160.019 352.435 160.019C352.694 160.019 352.917 160.113 353.104 160.299C353.291 160.483 353.384 160.704 353.384 160.964C353.384 161.138 353.34 161.298 353.251 161.443C353.166 161.586 353.052 161.7 352.909 161.785C352.767 161.871 352.609 161.913 352.435 161.913ZM355.062 166.091V164.904L359.263 158.268H360.199V160.014H359.605L356.6 164.771V164.847H362.359V166.091H355.062ZM359.672 167.99V165.73L359.681 165.189V158.268H361.072V167.99H359.672ZM364.013 167.99V166.926L367.303 163.518C367.654 163.148 367.944 162.823 368.171 162.545C368.403 162.263 368.575 161.996 368.689 161.742C368.803 161.489 368.86 161.22 368.86 160.935C368.86 160.613 368.784 160.334 368.632 160.1C368.48 159.863 368.273 159.681 368.01 159.554C367.747 159.424 367.452 159.359 367.122 159.359C366.774 159.359 366.47 159.431 366.211 159.573C365.951 159.715 365.752 159.916 365.613 160.176C365.474 160.435 365.404 160.739 365.404 161.087H364.003C364.003 160.496 364.14 159.978 364.412 159.535C364.684 159.092 365.057 158.749 365.532 158.505C366.007 158.258 366.546 158.135 367.151 158.135C367.762 158.135 368.3 158.256 368.765 158.5C369.233 158.741 369.599 159.07 369.861 159.488C370.124 159.902 370.256 160.371 370.256 160.893C370.256 161.253 370.187 161.606 370.051 161.951C369.918 162.296 369.686 162.681 369.354 163.105C369.021 163.526 368.559 164.037 367.967 164.638L366.035 166.661V166.732H370.412V167.99H364.013Z" fill="#21201D"/>
</g>
<defs>
<filter id="filter0_d_645_22303" x="0" y="0" width="416" height="225.358" filterUnits="userSpaceOnUse" color-interpolation-filters="sRGB">
<feFlood flood-opacity="0" result="BackgroundImageFix"/>
<feColorMatrix in="SourceAlpha" type="matrix" values="0 0 0 0 0 0 0 0 0 0 0 0 0 0 0 0 0 0 127 0" result="hardAlpha"/>
<feOffset dy="4"/>
<feGaussianBlur stdDeviation="14"/>
<feComposite in2="hardAlpha" operator="out"/>
<feColorMatrix type="matrix" values="0 0 0 0 0 0 0 0 0 0 0 0 0 0 0 0 0 0 0.04 0"/>
<feBlend mode="normal" in2="BackgroundImageFix" result="effect1_dropShadow_645_22303"/>
<feBlend mode="normal" in="SourceGraphic" in2="effect1_dropShadow_645_22303" result="shape"/>
</filter>
<clipPath id="clip0_645_22303">
<rect x="45.9062" y="41.9097" width="324.181" height="29.4583" rx="5.72917" fill="white"/>
</clipPath>
<clipPath id="clip1_645_22303">
<rect width="328" height="46.7882" fill="white" transform="translate(44 88.5555)"/>
</clipPath>
</defs>
</svg>
