<svg xmlns="http://www.w3.org/2000/svg" width="448" height="215" fill="none" viewBox="0 0 448 215"><rect width="447" height="151" x=".5" y=".5" fill="#fff" rx="11.5"/><rect width="447" height="151" x=".5" y=".5" stroke="#dad9d6" rx="11.5"/><path fill="#fff" d="M30 24.5h388a5.5 5.5 0 0 1 5.5 5.5v32a5.5 5.5 0 0 1-5.5 5.5H30a5.5 5.5 0 0 1-5.5-5.5V30a5.5 5.5 0 0 1 5.5-5.5"/><path stroke="#dad9d6" d="M30 24.5h388a5.5 5.5 0 0 1 5.5 5.5v32a5.5 5.5 0 0 1-5.5 5.5H30a5.5 5.5 0 0 1-5.5-5.5V30a5.5 5.5 0 0 1 5.5-5.5Z"/><path stroke="#21201d" stroke-linecap="round" stroke-linejoin="round" stroke-width="1.34" d="M44.75 51a6.25 6.25 0 1 0 0-12.5 6.25 6.25 0 0 0 0 12.5m4.42-1.83 4.33 4.33"/><path fill="#21201d" d="M70.801 43.364a1.56 1.56 0 0 0-.726-1.174q-.636-.417-1.56-.417-.678 0-1.184.218a1.9 1.9 0 0 0-.785.602 1.44 1.44 0 0 0-.279.87q0 .408.194.701.2.288.507.482.309.189.646.313.339.12.622.194l1.034.279q.398.104.885.288.492.184.94.502.452.315.745.806.294.491.293 1.208a2.7 2.7 0 0 1-.432 1.491q-.428.666-1.253 1.06-.82.392-1.993.392-1.095 0-1.895-.353-.795-.352-1.252-.984a2.8 2.8 0 0 1-.513-1.467h1.273q.05.577.388.955a2.1 2.1 0 0 0 .865.556q.528.18 1.133.18.707 0 1.268-.23.563-.232.89-.646.328-.417.328-.974 0-.507-.283-.825a2.1 2.1 0 0 0-.746-.517 8 8 0 0 0-1-.348l-1.252-.358q-1.192-.344-1.89-.98-.695-.637-.695-1.665 0-.855.462-1.492.468-.641 1.253-.994a4.2 4.2 0 0 1 1.765-.358q.984 0 1.75.353.766.348 1.213.955.452.606.477 1.377zm3.2 10.5v-10.5h1.134v1.213h.14q.128-.2.357-.507.234-.315.666-.557.438-.249 1.184-.249.965 0 1.7.482.735.483 1.148 1.368t.413 2.088q0 1.213-.413 2.103-.413.885-1.143 1.372-.73.482-1.685.482-.736 0-1.179-.243a2.2 2.2 0 0 1-.68-.562 8 8 0 0 1-.369-.527h-.1v4.037zm1.154-6.682q0 .864.254 1.526.253.656.74 1.03.487.367 1.194.367.736 0 1.227-.388a2.37 2.37 0 0 0 .746-1.054q.255-.666.254-1.481 0-.806-.249-1.452a2.24 2.24 0 0 0-.74-1.029q-.493-.383-1.239-.383-.715 0-1.203.363-.487.359-.735 1.004-.249.642-.249 1.497M82.533 51v-7.636h1.133v1.153h.08q.21-.566.756-.92a2.23 2.23 0 0 1 1.233-.353q.129 0 .323.005.194.006.293.015v1.193q-.06-.015-.273-.044a3 3 0 0 0-.443-.035q-.557 0-.994.233a1.76 1.76 0 0 0-.686.637 1.7 1.7 0 0 0-.249.92V51zm5.209 0v-7.636h1.173V51zm.596-8.91a.83.83 0 0 1-.591-.233.75.75 0 0 1-.244-.562.75.75 0 0 1 .244-.561.83.83 0 0 1 .591-.234q.344 0 .587.234a.74.74 0 0 1 .249.561.74.74 0 0 1-.249.562.82.82 0 0 1-.587.234m3.9 4.316V51h-1.174v-7.636h1.134v1.193h.1q.268-.582.814-.935.548-.358 1.412-.358.776 0 1.358.318.581.314.904.955.324.636.324 1.61V51h-1.174v-4.773q0-.9-.467-1.402-.468-.507-1.283-.507-.561 0-1.004.244-.438.244-.691.71-.255.468-.254 1.134m10.098 7.617q-.85 0-1.462-.219a3.1 3.1 0 0 1-1.019-.567 3.1 3.1 0 0 1-.641-.745l.934-.657q.16.21.403.477.245.274.666.473.427.204 1.119.204.924 0 1.526-.448.602-.447.602-1.402v-1.55h-.1a6 6 0 0 1-.368.516q-.233.303-.676.542-.437.234-1.183.234-.924 0-1.66-.438-.732-.437-1.159-1.273-.422-.835-.422-2.028 0-1.173.412-2.043.412-.875 1.149-1.353.735-.482 1.7-.482.746 0 1.183.249.443.243.676.557.239.307.368.507h.12v-1.213h1.133v7.855q0 .984-.447 1.6a2.55 2.55 0 0 1-1.194.91 4.5 4.5 0 0 1-1.66.294m-.04-4.196q.707 0 1.193-.323.487-.324.741-.93t.254-1.452q0-.825-.249-1.456a2.2 2.2 0 0 0-.736-.99q-.488-.358-1.203-.358-.745 0-1.243.378-.492.378-.741 1.014a3.9 3.9 0 0 0-.243 1.412q0 .796.248 1.407.255.607.746.955.498.343 1.233.343M111.722 51v-7.636h1.134v1.193h.099q.239-.611.771-.95.531-.343 1.278-.343.755 0 1.257.343.507.338.791.95h.079q.294-.592.88-.94.587-.353 1.407-.353 1.025 0 1.676.642.651.636.651 1.983V51h-1.173v-5.11q0-.846-.463-1.209a1.7 1.7 0 0 0-1.088-.363q-.806 0-1.248.487-.443.483-.443 1.223V51h-1.193v-5.23q0-.651-.423-1.05-.422-.402-1.088-.402-.458 0-.855.244a1.85 1.85 0 0 0-.637.676 2 2 0 0 0-.238.99V51zm15.37.16q-1.104 0-1.904-.488a3.27 3.27 0 0 1-1.228-1.372q-.428-.885-.428-2.058 0-1.174.428-2.069.432-.9 1.203-1.402.775-.507 1.81-.507.596 0 1.178.2.582.198 1.059.645.477.442.761 1.174.282.73.283 1.8v.497h-5.886v-1.015h4.693q0-.646-.259-1.153a1.95 1.95 0 0 0-.726-.8q-.467-.294-1.103-.294-.702 0-1.213.348a2.3 2.3 0 0 0-.781.895 2.6 2.6 0 0 0-.273 1.183v.676q0 .865.298 1.467.303.597.84.91.537.308 1.248.308.463 0 .835-.13.378-.133.651-.397.275-.268.423-.666l1.134.318q-.18.578-.602 1.014-.423.433-1.044.676-.621.24-1.397.24m7.83 0q-.954 0-1.685-.483-.731-.487-1.144-1.372-.412-.891-.412-2.103 0-1.203.412-2.088t1.149-1.368q.735-.482 1.7-.482.746 0 1.178.249.438.243.667.557.233.307.363.507h.099v-3.759h1.173V51h-1.133v-1.173h-.139q-.13.209-.368.527a2.2 2.2 0 0 1-.682.562q-.441.243-1.178.243m.159-1.055q.706 0 1.194-.368.486-.372.74-1.029.254-.661.254-1.526 0-.856-.249-1.497-.248-.645-.736-1.004-.486-.363-1.203-.363-.745 0-1.243.383a2.3 2.3 0 0 0-.74 1.03q-.244.645-.244 1.45 0 .816.249 1.482.253.662.745 1.054.498.388 1.233.388m5.653.895v-7.636h1.173V51zm.597-8.91a.84.84 0 0 1-.592-.233.75.75 0 0 1-.244-.562q0-.328.244-.561a.84.84 0 0 1 .592-.234q.343 0 .586.234a.74.74 0 0 1 .249.561.74.74 0 0 1-.249.562.82.82 0 0 1-.586.234m5.828 9.07q-1.074 0-1.85-.508a3.3 3.3 0 0 1-1.193-1.397q-.417-.89-.418-2.033 0-1.163.428-2.054a3.4 3.4 0 0 1 1.203-1.397q.775-.507 1.81-.507.806 0 1.451.298a2.8 2.8 0 0 1 1.059.836q.413.537.512 1.253h-1.173q-.134-.522-.596-.925-.458-.408-1.233-.408-.687 0-1.204.358-.512.353-.8 1-.283.641-.283 1.506 0 .884.278 1.541.283.656.795 1.02.518.362 1.214.362.456 0 .83-.159t.631-.457q.259-.3.368-.716h1.173a2.71 2.71 0 0 1-1.521 2.073q-.636.313-1.481.313m6.965.019q-.726 0-1.318-.273a2.26 2.26 0 0 1-.939-.8q-.348-.527-.348-1.274 0-.656.258-1.063.26-.413.691-.647.433-.234.955-.348.526-.12 1.059-.189.696-.09 1.128-.134.438-.05.637-.164.203-.114.203-.398v-.04q0-.735-.402-1.143-.398-.408-1.208-.408-.84 0-1.318.368-.477.367-.671.786l-1.114-.398q.298-.696.796-1.084a3 3 0 0 1 1.094-.547 4.5 4.5 0 0 1 1.173-.159q.368 0 .845.09.482.084.93.353.452.269.75.81.299.542.299 1.452V51h-1.174v-1.034h-.059a2 2 0 0 1-.398.532q-.278.284-.741.482-.462.2-1.128.199m.179-1.054q.696 0 1.173-.273a1.86 1.86 0 0 0 .974-1.616v-1.074q-.074.09-.328.164a6 6 0 0 1-.576.124 27 27 0 0 1-1.124.15q-.458.06-.855.193a1.5 1.5 0 0 0-.636.393q-.24.258-.239.706 0 .612.452.925.457.308 1.159.308m6.636-9.307V51h-1.174V40.818z"/><path fill="#f1f0ef" d="M24 90a6 6 0 0 1 6-6h388a6 6 0 0 1 6 6v32a6 6 0 0 1-6 6H30a6 6 0 0 1-6-6z"/><path fill="#bcbbb7" d="M206.337 100.818V111h-1.412l-5.176-7.467h-.094V111h-1.536v-10.182h1.421l5.181 7.477h.094v-7.477zm5.412 10.336q-1.128 0-1.943-.482a3.27 3.27 0 0 1-1.253-1.367q-.438-.885-.438-2.073 0-1.174.438-2.069a3.4 3.4 0 0 1 1.233-1.397q.795-.502 1.859-.502.647 0 1.253.214t1.089.671q.482.457.76 1.188.279.727.279 1.765v.527h-6.071v-1.113h4.614q0-.587-.239-1.039a1.8 1.8 0 0 0-.671-.721 1.87 1.87 0 0 0-1.004-.264q-.627 0-1.094.308a2.1 2.1 0 0 0-.716.796 2.3 2.3 0 0 0-.248 1.059v.87q0 .765.268 1.302.274.537.761.821a2.26 2.26 0 0 0 1.138.278q.423 0 .771-.119.348-.125.602-.368t.387-.602l1.407.254a2.55 2.55 0 0 1-.606 1.089 3 3 0 0 1-1.089.721q-.651.253-1.487.253m5.922-7.79 1.685 2.973 1.7-2.973h1.626l-2.381 3.818 2.401 3.818h-1.626l-1.72-2.854-1.715 2.854h-1.631l2.377-3.818-2.347-3.818zm10.102 0v1.193h-4.171v-1.193zm-3.053-1.83h1.487v7.224q0 .432.129.651a.67.67 0 0 0 .333.293q.208.075.453.075.178 0 .313-.025l.209-.04.268 1.228a2.9 2.9 0 0 1-.964.159 2.6 2.6 0 0 1-1.094-.208 1.87 1.87 0 0 1-.82-.677q-.314-.456-.314-1.148z"/><path stroke="#bcbbb7" stroke-linecap="round" stroke-linejoin="round" stroke-width="1.34" d="M236.812 106h12.376m-5.063-5.062 5.063 5.062-5.063 5.062"/><g filter="url(#a)"><path fill="#fff" d="M24 79a8 8 0 0 1 8-8h384a8 8 0 0 1 8 8v104a8 8 0 0 1-8 8H32a8 8 0 0 1-8-8z" shape-rendering="crispEdges"/><path stroke="#dad9d6" d="M32 71.5h384a7.5 7.5 0 0 1 7.5 7.5v104a7.5 7.5 0 0 1-7.5 7.5H32a7.5 7.5 0 0 1-7.5-7.5V79a7.5 7.5 0 0 1 7.5-7.5Z" shape-rendering="crispEdges"/><path fill="#241600" fill-opacity=".06" d="M30 83a6 6 0 0 1 6-6h376a6 6 0 0 1 6 6v42a6 6 0 0 1-6 6H36a6 6 0 0 1-6-6z"/><path stroke="#21201d" stroke-linecap="round" stroke-linejoin="round" stroke-width="1.34" d="M47 104.562a2.25 2.25 0 1 0 0-4.5 2.25 2.25 0 0 0 0 4.5"/><path stroke="#21201d" stroke-linecap="round" stroke-linejoin="round" stroke-width="1.34" d="M52.625 102.312c0 5.063-5.625 9-5.625 9s-5.625-3.937-5.625-9a5.625 5.625 0 0 1 11.25 0"/><path fill="#21201d" d="M70.801 91.364a1.56 1.56 0 0 0-.726-1.174q-.636-.417-1.56-.417-.678 0-1.184.219a1.9 1.9 0 0 0-.785.601 1.44 1.44 0 0 0-.279.87q0 .408.194.701.2.288.507.482.309.189.646.314.339.12.622.193l1.034.279q.398.104.885.288.492.184.94.502.452.314.745.806.294.492.293 1.208a2.7 2.7 0 0 1-.432 1.491q-.428.666-1.253 1.06-.82.392-1.993.392-1.095 0-1.895-.353-.795-.352-1.252-.984a2.8 2.8 0 0 1-.513-1.467h1.273q.05.578.388.954a2.1 2.1 0 0 0 .865.557q.528.18 1.133.18.707 0 1.268-.23.563-.232.89-.646.328-.417.328-.974 0-.507-.283-.825a2.1 2.1 0 0 0-.746-.517 8 8 0 0 0-1-.348l-1.252-.358q-1.192-.344-1.89-.98-.695-.637-.695-1.665 0-.855.462-1.492.468-.641 1.253-.994a4.2 4.2 0 0 1 1.765-.358q.984 0 1.75.353.766.348 1.213.955.452.606.477 1.377zm3.2 10.5v-10.5h1.134v1.213h.14q.128-.2.357-.507.234-.314.666-.557.438-.249 1.184-.249.965 0 1.7.482.735.483 1.148 1.368t.413 2.088q0 1.213-.413 2.103-.413.885-1.143 1.372-.73.482-1.685.482-.736 0-1.179-.244a2.2 2.2 0 0 1-.68-.561 8 8 0 0 1-.369-.527h-.1v4.037zm1.154-6.682q0 .864.254 1.526.253.656.74 1.03.487.367 1.194.367.736 0 1.227-.388a2.37 2.37 0 0 0 .746-1.054q.255-.666.254-1.481 0-.806-.249-1.452a2.24 2.24 0 0 0-.74-1.029q-.493-.383-1.239-.383-.715 0-1.203.363-.487.358-.735 1.004-.249.642-.249 1.497M82.533 99v-7.636h1.133v1.153h.08q.21-.566.756-.92a2.23 2.23 0 0 1 1.233-.353q.129 0 .323.005.194.006.293.015v1.193q-.06-.015-.273-.044a3 3 0 0 0-.443-.035q-.557 0-.994.234a1.76 1.76 0 0 0-.686.636 1.7 1.7 0 0 0-.249.92V99zm5.209 0v-7.636h1.173V99zm.596-8.91a.83.83 0 0 1-.591-.233.75.75 0 0 1-.244-.561.75.75 0 0 1 .244-.562.83.83 0 0 1 .591-.234q.344 0 .587.234a.74.74 0 0 1 .249.562.74.74 0 0 1-.249.561.82.82 0 0 1-.587.234m3.9 4.316V99h-1.174v-7.636h1.134v1.193h.1q.268-.582.814-.935.548-.358 1.412-.358.776 0 1.358.318.581.314.904.955.324.636.324 1.61V99h-1.174v-4.773q0-.9-.467-1.402-.468-.507-1.283-.507-.561 0-1.004.244-.438.244-.691.71-.255.468-.254 1.134m10.098 7.617q-.85 0-1.462-.219a3.1 3.1 0 0 1-1.019-.567 3.1 3.1 0 0 1-.641-.746l.934-.656q.16.21.403.477.245.274.666.473.427.204 1.119.204.924 0 1.526-.448.602-.447.602-1.402v-1.55h-.1a6 6 0 0 1-.368.516q-.233.303-.676.542-.437.234-1.183.234-.924 0-1.66-.438-.732-.437-1.159-1.272-.422-.836-.422-2.029 0-1.173.412-2.043.412-.875 1.149-1.353.735-.482 1.7-.482.746 0 1.183.249.443.243.676.557.239.308.368.507h.12v-1.213h1.133v7.855q0 .984-.447 1.601a2.55 2.55 0 0 1-1.194.909 4.5 4.5 0 0 1-1.66.294m-.04-4.196q.707 0 1.193-.323.487-.324.741-.93t.254-1.452q0-.825-.249-1.457a2.2 2.2 0 0 0-.736-.989q-.488-.358-1.203-.358-.745 0-1.243.378-.492.378-.741 1.014a3.9 3.9 0 0 0-.243 1.412q0 .796.248 1.407.255.607.746.955.498.342 1.233.343m9.585-9.009h1.472l3.46 8.452h.12l3.46-8.452h1.471V99h-1.153v-7.736h-.099L117.43 99h-1.114l-3.182-7.736h-.099V99h-1.154zm15.498 10.341q-1.104 0-1.904-.487a3.27 3.27 0 0 1-1.228-1.372q-.428-.885-.428-2.058 0-1.174.428-2.069.432-.9 1.203-1.402.775-.507 1.81-.507.596 0 1.178.2.582.198 1.059.645.477.443.761 1.174.283.73.283 1.8v.496h-5.886v-1.014h4.693q0-.645-.259-1.153a1.95 1.95 0 0 0-.726-.8q-.467-.294-1.103-.294-.702 0-1.213.348a2.3 2.3 0 0 0-.781.895 2.6 2.6 0 0 0-.273 1.183v.677q0 .864.298 1.466.303.597.84.91.537.308 1.248.308.463 0 .835-.13.378-.133.652-.397.273-.268.422-.666l1.134.318q-.18.578-.602 1.014-.423.433-1.044.677-.621.237-1.397.238m7.83 0q-.954 0-1.685-.482-.73-.487-1.143-1.372-.413-.891-.413-2.103 0-1.203.413-2.088.412-.885 1.148-1.368.735-.482 1.7-.482.746 0 1.178.249.438.243.667.557.233.308.363.507h.099v-3.759h1.173V99h-1.133v-1.173h-.139q-.13.209-.368.527a2.2 2.2 0 0 1-.681.561q-.442.244-1.179.244m.159-1.054q.707 0 1.194-.368.486-.372.74-1.029.254-.661.254-1.526 0-.856-.249-1.497-.248-.645-.735-1.004-.487-.363-1.204-.363-.745 0-1.242.383a2.3 2.3 0 0 0-.741 1.03q-.244.646-.244 1.45 0 .816.249 1.482.253.662.745 1.054.498.388 1.233.388m5.653.895v-7.636h1.173V99zm.597-8.91a.84.84 0 0 1-.592-.233.75.75 0 0 1-.244-.561q0-.33.244-.562a.84.84 0 0 1 .592-.234q.343 0 .586.234a.74.74 0 0 1 .249.562.74.74 0 0 1-.249.561.82.82 0 0 1-.586.234m5.828 9.07q-1.074 0-1.85-.508a3.3 3.3 0 0 1-1.193-1.397q-.418-.89-.418-2.033 0-1.163.428-2.054a3.4 3.4 0 0 1 1.203-1.397q.775-.507 1.81-.507.806 0 1.451.299a2.8 2.8 0 0 1 1.059.835q.413.537.513 1.253h-1.174q-.134-.522-.596-.925-.458-.408-1.233-.408-.687 0-1.203.358-.513.354-.801 1-.283.641-.283 1.506 0 .884.278 1.541.283.656.796 1.02.517.362 1.213.362.457 0 .83-.159a1.7 1.7 0 0 0 .999-1.173h1.174q-.1.675-.493 1.218a2.74 2.74 0 0 1-1.029.855q-.636.313-1.481.313m6.965.019q-.726 0-1.318-.273a2.26 2.26 0 0 1-.939-.8q-.348-.528-.348-1.274 0-.656.258-1.063.26-.414.691-.647.433-.234.955-.348.526-.12 1.059-.189.696-.09 1.128-.134.438-.05.637-.164.204-.114.204-.398v-.04q0-.735-.403-1.143-.398-.408-1.208-.408-.84 0-1.318.368-.477.368-.671.786l-1.113-.398q.298-.696.795-1.084a3 3 0 0 1 1.094-.547q.596-.159 1.173-.159.368 0 .845.09.483.084.93.353.452.268.751.81.298.542.298 1.452V99h-1.173v-1.034h-.06a2 2 0 0 1-.398.532q-.278.284-.741.482-.462.2-1.128.199m.179-1.054q.696 0 1.173-.273.483-.274.726-.706.249-.433.249-.91v-1.074q-.075.09-.329.164a6 6 0 0 1-.576.124 27 27 0 0 1-1.124.15q-.458.06-.855.193a1.5 1.5 0 0 0-.636.393q-.239.258-.239.706 0 .612.452.925.458.308 1.159.308m6.636-9.307V99h-1.174V88.818z"/><path fill="#8e8c88" d="M67.972 110.273V119h-1.057v-7.619h-.051l-2.131 1.414v-1.073l2.182-1.449zm2.51 8.727v-.767l2.88-3.153q.507-.555.835-.964.33-.413.486-.775.162-.366.162-.767 0-.46-.221-.797a1.44 1.44 0 0 0-.597-.52 1.9 1.9 0 0 0-.852-.183q-.503 0-.878.209a1.44 1.44 0 0 0-.575.575q-.2.37-.2.869h-1.006q0-.767.353-1.346.354-.58.963-.904.614-.324 1.377-.324.766 0 1.36.324.592.324.928.874t.337 1.223q0 .481-.175.942-.17.456-.597 1.018-.42.558-1.171 1.364l-1.96 2.096v.068h4.056V119zm10.214.119q-.844 0-1.504-.289a2.6 2.6 0 0 1-1.044-.806 2.16 2.16 0 0 1-.418-1.206h1.074q.035.422.29.729.255.303.669.469.412.165.916.166.562 0 .997-.196a1.64 1.64 0 0 0 .682-.546q.247-.349.247-.809 0-.482-.239-.848a1.6 1.6 0 0 0-.698-.58q-.46-.209-1.125-.209h-.7v-.937h.7q.52 0 .911-.188.397-.187.618-.528.226-.34.226-.801 0-.444-.196-.772a1.34 1.34 0 0 0-.554-.511 1.8 1.8 0 0 0-.835-.183q-.452 0-.852.166-.396.162-.648.473a1.23 1.23 0 0 0-.273.742h-1.022q.025-.686.413-1.202a2.6 2.6 0 0 1 1.014-.81 3.3 3.3 0 0 1 1.385-.29q.81 0 1.39.329.58.323.89.856t.311 1.151q0 .736-.388 1.257a1.97 1.97 0 0 1-1.044.72v.068q.827.136 1.291.703.465.563.465 1.394 0 .711-.388 1.278a2.6 2.6 0 0 1-1.048.886q-.665.324-1.513.324m8.22-8.846h1.262l2.966 7.244h.102l2.966-7.244h1.261V119h-.989v-6.631H96.4L93.672 119h-.955l-2.727-6.631h-.085V119h-.989zm12.466 8.88q-.622 0-1.13-.234a1.94 1.94 0 0 1-.805-.686q-.298-.452-.298-1.091 0-.562.221-.912.222-.354.593-.554.37-.2.818-.298a10 10 0 0 1 .908-.162q.596-.077.967-.115.375-.043.545-.141.175-.098.175-.341v-.034q0-.63-.345-.98-.341-.35-1.036-.349-.72 0-1.129.315-.409.316-.575.673l-.955-.341q.255-.596.682-.929.43-.336.938-.468a4 4 0 0 1 1.005-.137q.316 0 .725.077.413.072.797.303.387.23.643.694.256.465.256 1.245V119h-1.006v-.886h-.051a1.8 1.8 0 0 1-.341.456 2 2 0 0 1-.635.413q-.397.17-.967.17m.153-.903q.597 0 1.006-.234.413-.235.622-.605.213-.372.213-.78v-.921q-.064.077-.281.141-.213.06-.495.106a21 21 0 0 1-.963.128 4 4 0 0 0-.733.166 1.26 1.26 0 0 0-.545.337q-.204.221-.205.605 0 .525.388.793.393.264.993.264m4.682.75v-6.545h1.006V119zm.512-7.636a.7.7 0 0 1-.507-.201.64.64 0 0 1-.209-.481q0-.282.209-.482a.72.72 0 0 1 .507-.2q.294 0 .503.2a.64.64 0 0 1 .213.482.64.64 0 0 1-.213.481.7.7 0 0 1-.503.201m3.342 3.698V119h-1.006v-6.545h.972v1.022h.085q.23-.498.699-.801.469-.306 1.21-.307.665 0 1.163.273.499.269.776.818.276.546.277 1.381V119h-1.006v-4.091q0-.771-.4-1.202-.4-.434-1.1-.434-.481 0-.861.209-.375.208-.592.609-.217.4-.217.971m14.298-2.607a1.34 1.34 0 0 0-.623-1.006q-.544-.358-1.338-.358-.579 0-1.014.187a1.6 1.6 0 0 0-.673.516 1.24 1.24 0 0 0-.239.746q0 .35.166.601.171.246.435.413.264.162.554.268.29.103.533.167l.886.238q.34.09.759.247.421.158.805.431.388.269.639.69.252.422.252 1.036a2.3 2.3 0 0 1-.371 1.278q-.366.571-1.074.908-.703.336-1.709.336-.937 0-1.623-.302a2.6 2.6 0 0 1-1.074-.844 2.4 2.4 0 0 1-.439-1.257h1.091q.042.495.332.818.294.32.742.477.452.154.971.154.606 0 1.087-.196.481-.2.763-.554.28-.358.281-.835 0-.435-.243-.708a1.8 1.8 0 0 0-.639-.443 7 7 0 0 0-.857-.298l-1.074-.307q-1.022-.294-1.619-.84-.596-.545-.596-1.427 0-.733.396-1.279.4-.549 1.074-.852a3.6 3.6 0 0 1 1.512-.307q.844 0 1.5.303.657.299 1.04.818.388.52.409 1.181zm5.589 0v.852h-3.392v-.852zm-2.403-1.569h1.006v6.239q0 .426.123.639a.64.64 0 0 0 .324.281q.2.069.422.069.166 0 .273-.017l.17-.035.205.904a2.2 2.2 0 0 1-.75.119q-.426 0-.835-.183a1.66 1.66 0 0 1-.674-.558q-.264-.376-.264-.946zm3.916 8.114v-6.545h.972v.988h.068q.179-.485.648-.788a1.9 1.9 0 0 1 1.057-.303 11 11 0 0 1 .528.017v1.023a3 3 0 0 0-.234-.038q-.18-.03-.38-.03-.477 0-.852.2a1.47 1.47 0 0 0-.801 1.334V119zm7.01.136q-.947 0-1.632-.417a2.8 2.8 0 0 1-1.052-1.176q-.367-.759-.367-1.765t.367-1.772q.37-.772 1.031-1.202.665-.435 1.551-.435.511 0 1.01.171.498.17.908.554.409.38.652 1.005.242.627.242 1.543v.426h-5.045v-.869h4.023q0-.554-.222-.989a1.67 1.67 0 0 0-.622-.686 1.75 1.75 0 0 0-.946-.251q-.601 0-1.04.298a1.96 1.96 0 0 0-.669.767 2.25 2.25 0 0 0-.234 1.014v.58q0 .741.255 1.257.26.512.721.78.46.264 1.069.264.396 0 .716-.111.324-.115.558-.341a1.55 1.55 0 0 0 .363-.571l.971.273a2.16 2.16 0 0 1-.515.869 2.5 2.5 0 0 1-.895.58 3.3 3.3 0 0 1-1.198.204m6.985 0q-.946 0-1.633-.417a2.8 2.8 0 0 1-1.052-1.176q-.366-.759-.367-1.765 0-1.005.367-1.772a2.9 2.9 0 0 1 1.031-1.202q.665-.435 1.551-.435.512 0 1.01.171.499.17.908.554.41.38.652 1.005.243.627.243 1.543v.426h-5.046v-.869h4.023q0-.554-.222-.989a1.66 1.66 0 0 0-.622-.686 1.75 1.75 0 0 0-.946-.251q-.6 0-1.039.298a1.97 1.97 0 0 0-.67.767 2.25 2.25 0 0 0-.234 1.014v.58q0 .741.256 1.257.26.512.72.78.46.264 1.07.264.396 0 .715-.111a1.5 1.5 0 0 0 .559-.341q.234-.23.362-.571l.972.273a2.2 2.2 0 0 1-.516.869 2.5 2.5 0 0 1-.895.58 3.3 3.3 0 0 1-1.197.204m7.086-6.681v.852h-3.392v-.852zm-2.403-1.569h1.005v6.239q0 .426.124.639a.64.64 0 0 0 .324.281q.2.069.422.069.166 0 .273-.017l.17-.035.205.904a2.3 2.3 0 0 1-.75.119q-.427 0-.836-.183a1.66 1.66 0 0 1-.673-.558q-.264-.376-.264-.946zm5.416 6.921-.068.46a9 9 0 0 1-.222 1.04 19 19 0 0 1-.302 1.044q-.158.49-.26.78h-.767l.145-.72q.089-.448.179-1.002.093-.549.153-1.125l.051-.477zm8.068 1.193h-2.693v-8.727h2.812q1.27 0 2.173.524a3.4 3.4 0 0 1 1.385 1.496q.482.971.482 2.326 0 1.364-.486 2.348a3.46 3.46 0 0 1-1.415 1.509q-.929.524-2.258.524m-1.637-.938h1.569q1.081 0 1.794-.417a2.58 2.58 0 0 0 1.061-1.189q.35-.77.349-1.837 0-1.056-.345-1.819a2.54 2.54 0 0 0-1.031-1.176q-.686-.414-1.709-.414h-1.688zm10.177 1.074q-.946 0-1.633-.417a2.8 2.8 0 0 1-1.052-1.176q-.366-.759-.367-1.765 0-1.005.367-1.772a2.9 2.9 0 0 1 1.031-1.202q.665-.435 1.551-.435.512 0 1.01.171.499.17.908.554.41.38.652 1.005.243.627.243 1.543v.426h-5.046v-.869h4.023q0-.554-.222-.989a1.66 1.66 0 0 0-.622-.686 1.75 1.75 0 0 0-.946-.251q-.6 0-1.039.298a1.96 1.96 0 0 0-.669.767 2.24 2.24 0 0 0-.235 1.014v.58q0 .741.256 1.257.26.512.72.78.46.264 1.07.264.396 0 .715-.111a1.5 1.5 0 0 0 .559-.341q.234-.23.362-.571l.972.273a2.2 2.2 0 0 1-.516.869 2.5 2.5 0 0 1-.895.58 3.3 3.3 0 0 1-1.197.204m5.245-4.074V119h-1.005v-6.545h.971v1.022h.085a1.9 1.9 0 0 1 .699-.801q.469-.306 1.211-.307.665 0 1.163.273.498.269.775.818.277.546.277 1.381V119h-1.005v-4.091q0-.771-.401-1.202-.4-.434-1.099-.434-.482 0-.861.209-.375.208-.592.609-.218.4-.218.971m11.132-2.607L186.13 119h-1.023l-2.421-6.545h1.091l1.807 5.215h.068l1.807-5.215zm3.837 6.681q-.945 0-1.632-.417a2.8 2.8 0 0 1-1.052-1.176q-.367-.759-.367-1.765t.367-1.772a2.9 2.9 0 0 1 1.031-1.202q.665-.435 1.551-.435.512 0 1.01.171.498.17.908.554.409.38.652 1.005.243.627.243 1.543v.426h-5.046v-.869h4.023q0-.554-.222-.989a1.67 1.67 0 0 0-.622-.686 1.75 1.75 0 0 0-.946-.251q-.6 0-1.04.298a2 2 0 0 0-.669.767 2.25 2.25 0 0 0-.234 1.014v.58q0 .741.256 1.257.26.512.72.78a2.1 2.1 0 0 0 1.069.264q.397 0 .716-.111a1.5 1.5 0 0 0 .559-.341q.234-.23.362-.571l.971.273a2.16 2.16 0 0 1-.515.869 2.5 2.5 0 0 1-.895.58 3.3 3.3 0 0 1-1.198.204m4.24-.136v-6.545h.972v.988h.068q.18-.485.648-.788a1.9 1.9 0 0 1 1.057-.303 11 11 0 0 1 .528.017v1.023a3 3 0 0 0-.234-.038 2.3 2.3 0 0 0-.379-.03q-.478 0-.853.2a1.47 1.47 0 0 0-.801 1.334V119zm5.215-1.193-.068.46a9 9 0 0 1-.221 1.04q-.146.553-.303 1.044-.158.49-.26.78h-.767l.145-.72q.09-.448.179-1.002.094-.549.153-1.125l.051-.477zM214.24 113h-1.057a2.2 2.2 0 0 0-.891-1.381 2.4 2.4 0 0 0-.728-.358 3 3 0 0 0-.836-.119q-.792 0-1.436.401-.639.4-1.018 1.18-.375.78-.375 1.913t.375 1.914q.38.78 1.018 1.18.644.4 1.436.401.435 0 .836-.12.4-.119.728-.353.332-.239.563-.584.234-.35.328-.801h1.057q-.12.669-.435 1.197a3.28 3.28 0 0 1-1.837 1.458 4 4 0 0 1-1.24.191q-1.116 0-1.985-.545-.87-.546-1.368-1.551-.5-1.006-.499-2.387 0-1.38.499-2.386.498-1.006 1.368-1.551.869-.546 1.985-.546.661 0 1.24.192.584.192 1.053.563.469.366.784.895.315.524.435 1.197m9.071 1.636q0 1.381-.499 2.387-.498 1.005-1.367 1.551-.87.545-1.986.545t-1.986-.545q-.87-.546-1.368-1.551-.498-1.006-.498-2.387 0-1.38.498-2.386.499-1.006 1.368-1.551.87-.546 1.986-.546t1.986.546q.869.545 1.367 1.551.5 1.005.499 2.386m-1.023 0q0-1.133-.379-1.913-.375-.78-1.018-1.18a2.65 2.65 0 0 0-1.432-.401q-.793 0-1.436.401-.64.4-1.019 1.18-.375.78-.375 1.913t.375 1.914q.38.78 1.019 1.18.643.4 1.436.401.792 0 1.432-.401.643-.4 1.018-1.18.38-.78.379-1.914"/><path stroke="#21201d" stroke-linecap="round" stroke-linejoin="round" stroke-width="1.34" d="M47 158.562a2.25 2.25 0 1 0 0-4.5 2.25 2.25 0 0 0 0 4.5"/><path stroke="#21201d" stroke-linecap="round" stroke-linejoin="round" stroke-width="1.34" d="M52.625 156.312c0 5.063-5.625 9-5.625 9s-5.625-3.937-5.625-9a5.625 5.625 0 0 1 11.25 0"/><path fill="#21201d" d="M70.801 145.364a1.56 1.56 0 0 0-.726-1.174q-.636-.417-1.56-.417-.678 0-1.184.218a1.9 1.9 0 0 0-.785.602 1.44 1.44 0 0 0-.279.87q0 .408.194.701.2.288.507.482.309.19.646.314.339.119.622.193l1.034.279q.398.104.885.288.492.184.94.502.452.314.745.806.294.492.293 1.208 0 .825-.432 1.491-.428.666-1.253 1.059-.82.393-1.993.393-1.095 0-1.895-.353-.795-.353-1.252-.984a2.8 2.8 0 0 1-.513-1.467h1.273q.05.576.388.955.343.372.865.556.528.18 1.133.179.707 0 1.268-.228a2.2 2.2 0 0 0 .89-.647 1.53 1.53 0 0 0 .328-.974q0-.507-.283-.825a2.1 2.1 0 0 0-.746-.517 8 8 0 0 0-1-.348l-1.252-.358q-1.192-.344-1.89-.98-.695-.636-.695-1.665 0-.856.462-1.492.468-.641 1.253-.994a4.2 4.2 0 0 1 1.765-.358q.984 0 1.75.353.766.348 1.213.955.452.606.477 1.377zm3.2 10.5v-10.5h1.134v1.213h.14q.128-.2.357-.507a2.1 2.1 0 0 1 .666-.557q.438-.249 1.184-.249.965 0 1.7.482.735.483 1.148 1.368t.413 2.088q0 1.212-.413 2.103-.413.885-1.143 1.372-.73.482-1.685.482-.736 0-1.179-.244a2.2 2.2 0 0 1-.68-.561 8 8 0 0 1-.369-.527h-.1v4.037zm1.154-6.682q0 .865.254 1.526.253.657.74 1.029.487.368 1.194.368.736 0 1.227-.388.498-.393.746-1.054.255-.666.254-1.481a4 4 0 0 0-.249-1.452 2.24 2.24 0 0 0-.74-1.029q-.493-.383-1.239-.383-.715 0-1.203.363-.487.358-.735 1.004-.249.642-.249 1.497M82.533 153v-7.636h1.133v1.153h.08q.21-.566.756-.92a2.23 2.23 0 0 1 1.233-.353q.129 0 .323.005.194.006.293.015v1.193a4 4 0 0 0-.273-.044 2.6 2.6 0 0 0-.443-.035q-.557 0-.994.234a1.76 1.76 0 0 0-.686.636 1.7 1.7 0 0 0-.249.92V153zm5.209 0v-7.636h1.173V153zm.596-8.909a.83.83 0 0 1-.591-.234.75.75 0 0 1-.244-.562q0-.328.244-.561a.83.83 0 0 1 .591-.234q.344 0 .587.234a.74.74 0 0 1 .249.561.74.74 0 0 1-.249.562.82.82 0 0 1-.587.234m3.9 4.315V153h-1.174v-7.636h1.134v1.193h.1q.268-.582.814-.935.548-.358 1.412-.358.776 0 1.358.318.581.313.904.955.324.636.324 1.611V153h-1.174v-4.773q0-.9-.467-1.402-.468-.507-1.283-.507-.561 0-1.004.244a1.74 1.74 0 0 0-.691.711q-.255.467-.254 1.133m10.098 7.617q-.85 0-1.462-.219a3.1 3.1 0 0 1-1.019-.567 3.1 3.1 0 0 1-.641-.746l.934-.656q.16.21.403.477.245.274.666.473.427.204 1.119.204.924 0 1.526-.448.602-.447.602-1.402v-1.551h-.1a6 6 0 0 1-.368.517q-.233.303-.676.542-.437.234-1.183.234-.924 0-1.66-.438-.732-.437-1.159-1.273-.422-.835-.422-2.028 0-1.173.412-2.043.412-.875 1.149-1.353.735-.482 1.7-.482.746 0 1.183.249.443.243.676.557.239.308.368.507h.12v-1.213h1.133v7.855q0 .984-.447 1.601a2.55 2.55 0 0 1-1.194.909 4.5 4.5 0 0 1-1.66.294m-.04-4.196q.707 0 1.193-.323.487-.324.741-.93t.254-1.452q0-.825-.249-1.457a2.2 2.2 0 0 0-.736-.989q-.488-.358-1.203-.358-.745 0-1.243.378-.492.378-.741 1.014a3.9 3.9 0 0 0-.243 1.412q0 .795.248 1.407.255.607.746.955.498.343 1.233.343m9.585-9.009h1.472l3.46 8.452h.12l3.46-8.452h1.471V153h-1.153v-7.736h-.099L117.43 153h-1.114l-3.182-7.736h-.099V153h-1.154zm15.498 10.341q-1.104 0-1.904-.487a3.27 3.27 0 0 1-1.228-1.372q-.428-.885-.428-2.059 0-1.173.428-2.068.432-.9 1.203-1.402.775-.507 1.81-.507.596 0 1.178.199.582.2 1.059.646.477.442.761 1.174.283.73.283 1.799v.498h-5.886v-1.015h4.693q0-.646-.259-1.153a1.94 1.94 0 0 0-.726-.8q-.467-.294-1.103-.294-.702 0-1.213.348a2.3 2.3 0 0 0-.781.895 2.6 2.6 0 0 0-.273 1.183v.676q0 .866.298 1.467.303.597.84.91.537.308 1.248.308.463 0 .835-.129.378-.135.652-.398.273-.269.422-.666l1.134.318a2.5 2.5 0 0 1-.602 1.014q-.423.433-1.044.676-.621.24-1.397.239m7.83 0q-.954 0-1.685-.482-.73-.487-1.143-1.372-.413-.891-.413-2.103 0-1.203.413-2.088.412-.885 1.148-1.368.735-.482 1.7-.482.746 0 1.178.249.438.243.667.557.233.308.363.507h.099v-3.759h1.173V153h-1.133v-1.173h-.139a8 8 0 0 1-.368.527 2.2 2.2 0 0 1-.681.561q-.442.244-1.179.244m.159-1.054q.707 0 1.194-.368.486-.372.74-1.029.254-.661.254-1.526 0-.855-.249-1.497-.248-.646-.735-1.004-.487-.363-1.204-.363-.745 0-1.242.383a2.3 2.3 0 0 0-.741 1.029 4.1 4.1 0 0 0-.244 1.452q0 .815.249 1.481.253.661.745 1.054.498.388 1.233.388m5.653.895v-7.636h1.173V153zm.597-8.909a.83.83 0 0 1-.592-.234.75.75 0 0 1-.244-.562.75.75 0 0 1 .244-.561.83.83 0 0 1 .592-.234q.343 0 .586.234a.74.74 0 0 1 .249.561.74.74 0 0 1-.249.562.82.82 0 0 1-.586.234m5.828 9.068q-1.074 0-1.85-.507a3.3 3.3 0 0 1-1.193-1.397q-.418-.89-.418-2.033 0-1.164.428-2.054a3.4 3.4 0 0 1 1.203-1.397q.775-.507 1.81-.507.806 0 1.451.298.647.299 1.059.836.413.537.513 1.253h-1.174q-.134-.523-.596-.925-.458-.408-1.233-.408-.687 0-1.203.358-.513.353-.801.999-.283.642-.283 1.507 0 .885.278 1.541.283.656.796 1.019.517.363 1.213.363.457 0 .83-.159a1.7 1.7 0 0 0 .999-1.173h1.174q-.1.675-.493 1.218a2.74 2.74 0 0 1-1.029.855q-.636.313-1.481.313m6.965.02q-.726 0-1.318-.273a2.27 2.27 0 0 1-.939-.801q-.348-.526-.348-1.273 0-.656.258-1.064.26-.412.691-.646.433-.234.955-.348.526-.118 1.059-.189.696-.089 1.128-.134.438-.05.637-.164.204-.114.204-.398v-.04q0-.735-.403-1.143-.398-.408-1.208-.408-.84 0-1.318.368-.477.368-.671.786l-1.113-.398q.298-.696.795-1.084a3 3 0 0 1 1.094-.547 4.5 4.5 0 0 1 1.173-.159q.368 0 .845.09.483.084.93.353.452.269.751.81.298.541.298 1.452V153h-1.173v-1.034h-.06q-.12.249-.398.532a2.3 2.3 0 0 1-.741.482q-.462.2-1.128.199m.179-1.054q.696 0 1.173-.273a1.86 1.86 0 0 0 .975-1.616v-1.074q-.075.09-.329.164a6 6 0 0 1-.576.124q-.323.05-.632.09-.303.035-.492.059-.458.06-.855.194a1.5 1.5 0 0 0-.636.393q-.239.258-.239.706 0 .612.452.925.458.308 1.159.308m6.636-9.307V153h-1.174v-10.182z"/><path fill="#8e8c88" d="M64.699 171.21v-.869l3.835-6.068h.63v1.346h-.425l-2.898 4.586v.068h5.165v.937zm4.108 1.79v-8.727h1.005V173zm6.523.119q-.75 0-1.351-.298a2.5 2.5 0 0 1-.963-.818 2.23 2.23 0 0 1-.396-1.185h1.022q.06.593.537.98.482.384 1.15.384.538 0 .955-.252.423-.25.661-.69.243-.443.243-1.001 0-.572-.252-1.019a1.84 1.84 0 0 0-.681-.711 1.9 1.9 0 0 0-.993-.265 2.7 2.7 0 0 0-.823.124 2.3 2.3 0 0 0-.694.32l-.989-.12.528-4.295h4.534v.937h-3.647l-.307 2.574h.051q.269-.213.673-.354.406-.14.844-.14a2.68 2.68 0 0 1 2.416 1.423q.363.66.363 1.509 0 .835-.375 1.491a2.74 2.74 0 0 1-1.023 1.031 2.9 2.9 0 0 1-1.483.375m8.102-8.846h1.261l2.966 7.244h.102l2.966-7.244h1.262V173H91v-6.631h-.085L88.187 173h-.954l-2.727-6.631h-.085V173h-.99zM93.972 173v-6.545h1.005V173zm.51-7.636a.7.7 0 0 1-.507-.201.64.64 0 0 1-.208-.481q0-.282.209-.482a.72.72 0 0 1 .507-.2q.294 0 .502.2a.64.64 0 0 1 .213.482.64.64 0 0 1-.213.481.7.7 0 0 1-.502.201m6.973 2.556-.903.256a1.7 1.7 0 0 0-.252-.439 1.2 1.2 0 0 0-.443-.358q-.28-.14-.72-.14-.6 0-1.001.277-.397.272-.397.694 0 .375.273.593.273.216.852.362l.972.238q.878.214 1.308.652.43.435.431 1.121 0 .562-.324 1.006a2.16 2.16 0 0 1-.895.699q-.576.255-1.338.255-1.001 0-1.658-.434-.656-.435-.83-1.27l.954-.239q.135.529.515.793.384.264 1.002.264.702 0 1.116-.298.418-.303.418-.725a.76.76 0 0 0-.239-.571q-.238-.234-.733-.349l-1.09-.256q-.9-.213-1.322-.66-.417-.452-.417-1.13 0-.554.31-.98a2.1 2.1 0 0 1 .857-.669 3 3 0 0 1 1.236-.243q.972 0 1.526.426.558.427.792 1.125m6.27 0-.904.256a1.7 1.7 0 0 0-.251-.439 1.2 1.2 0 0 0-.443-.358q-.282-.14-.72-.14-.602 0-1.002.277-.396.272-.396.694 0 .375.273.593.272.216.852.362l.971.238q.879.214 1.309.652.43.435.43 1.121 0 .562-.324 1.006a2.15 2.15 0 0 1-.895.699q-.575.255-1.338.255-1.001 0-1.657-.434-.657-.435-.831-1.27l.954-.239q.136.529.516.793.383.264 1.001.264.703 0 1.117-.298.417-.303.417-.725a.76.76 0 0 0-.238-.571q-.239-.234-.733-.349l-1.091-.256q-.9-.213-1.321-.66-.418-.452-.418-1.13 0-.554.311-.98.316-.426.857-.669a3 3 0 0 1 1.236-.243q.971 0 1.525.426.558.427.793 1.125m1.633 5.08v-6.545h1.006V173zm.511-7.636a.7.7 0 0 1-.507-.201.64.64 0 0 1-.209-.481q0-.282.209-.482a.72.72 0 0 1 .507-.2q.294 0 .503.2a.64.64 0 0 1 .213.482.64.64 0 0 1-.213.481.7.7 0 0 1-.503.201m4.996 7.772q-.887 0-1.556-.422a2.86 2.86 0 0 1-1.039-1.18q-.371-.759-.371-1.773 0-1.022.371-1.785.375-.763 1.039-1.185.67-.422 1.556-.422t1.551.422q.669.421 1.04 1.185.375.763.375 1.785 0 1.014-.375 1.773a2.83 2.83 0 0 1-1.04 1.18q-.665.423-1.551.422m0-.903q.673 0 1.108-.345.434-.345.643-.908a3.5 3.5 0 0 0 .209-1.219q0-.656-.209-1.223a2.07 2.07 0 0 0-.643-.916q-.435-.35-1.108-.349-.673 0-1.108.349-.435.35-.644.916a3.5 3.5 0 0 0-.209 1.223q0 .657.209 1.219t.644.908q.435.345 1.108.345m5.506-3.171V173h-1.005v-6.545h.971v1.022h.086q.23-.498.698-.801.469-.307 1.211-.307.665 0 1.163.273.498.269.776.818.276.546.277 1.381V173h-1.006v-4.091q0-.771-.401-1.202-.4-.434-1.099-.434-.481 0-.861.209-.375.209-.592.609-.218.4-.218.971m14.298-2.607a1.34 1.34 0 0 0-.622-1.006q-.544-.358-1.338-.358-.579 0-1.014.187a1.6 1.6 0 0 0-.673.516 1.24 1.24 0 0 0-.239.746q0 .35.166.601.171.246.435.413.264.162.554.268.29.103.533.167l.886.238q.34.09.758.247.423.159.806.431.387.268.639.69.251.422.251 1.036 0 .707-.37 1.278-.368.571-1.074.908-.704.336-1.709.336-.937 0-1.624-.302a2.6 2.6 0 0 1-1.073-.844 2.4 2.4 0 0 1-.439-1.257h1.091q.042.495.332.818a1.8 1.8 0 0 0 .741.477q.452.154.972.154.605 0 1.087-.196.481-.2.762-.554a1.3 1.3 0 0 0 .282-.835q0-.435-.243-.708a1.8 1.8 0 0 0-.639-.443 7 7 0 0 0-.857-.298l-1.074-.307q-1.022-.294-1.619-.84-.597-.545-.597-1.427 0-.733.397-1.279a2.64 2.64 0 0 1 1.073-.852 3.6 3.6 0 0 1 1.513-.307q.844 0 1.5.303a2.6 2.6 0 0 1 1.04.818q.388.52.409 1.181zm5.59 0v.852h-3.392v-.852zm-2.403-1.569h1.006v6.239q0 .426.123.639a.64.64 0 0 0 .324.281q.2.069.422.069.166 0 .273-.017l.17-.035.205.904a2.3 2.3 0 0 1-.75.119q-.427 0-.836-.183a1.66 1.66 0 0 1-.673-.558q-.264-.376-.264-.946zm3.916 8.114v-6.545h.972v.988h.068q.178-.486.648-.788a1.9 1.9 0 0 1 1.056-.303 11 11 0 0 1 .529.017v1.023a3 3 0 0 0-.235-.038 2.3 2.3 0 0 0-.379-.03q-.477 0-.852.2a1.47 1.47 0 0 0-.801 1.334V173zm7.01.136q-.946 0-1.632-.417a2.8 2.8 0 0 1-1.053-1.176q-.366-.759-.366-1.765t.366-1.772a2.9 2.9 0 0 1 1.032-1.202q.665-.435 1.551-.435.511 0 1.01.171.498.17.907.554.41.38.652 1.005.243.627.243 1.543v.426h-5.045v-.869h4.022q0-.554-.221-.989a1.67 1.67 0 0 0-.622-.686 1.75 1.75 0 0 0-.946-.251q-.601 0-1.04.298a1.96 1.96 0 0 0-.669.767 2.25 2.25 0 0 0-.234 1.014v.58q0 .741.255 1.257.26.512.72.78.46.264 1.07.264.396 0 .716-.111.324-.115.558-.341.234-.23.362-.571l.972.273a2.15 2.15 0 0 1-.516.869 2.5 2.5 0 0 1-.895.58 3.3 3.3 0 0 1-1.197.204m6.984 0q-.945 0-1.632-.417a2.8 2.8 0 0 1-1.052-1.176q-.367-.759-.367-1.765t.367-1.772a2.9 2.9 0 0 1 1.031-1.202q.665-.435 1.551-.435.512 0 1.01.171.498.17.908.554.409.38.652 1.005.243.627.243 1.543v.426h-5.046v-.869h4.023q0-.554-.222-.989a1.67 1.67 0 0 0-.622-.686 1.75 1.75 0 0 0-.946-.251q-.601 0-1.04.298a2 2 0 0 0-.669.767 2.25 2.25 0 0 0-.234 1.014v.58q0 .741.256 1.257.26.512.72.78a2.1 2.1 0 0 0 1.069.264q.397 0 .716-.111.324-.115.558-.341a1.55 1.55 0 0 0 .363-.571l.971.273a2.16 2.16 0 0 1-.515.869 2.5 2.5 0 0 1-.895.58 3.3 3.3 0 0 1-1.198.204m7.087-6.681v.852h-3.392v-.852zm-2.403-1.569h1.005v6.239q0 .426.124.639a.64.64 0 0 0 .324.281q.2.069.422.069.165 0 .272-.017l.171-.035.204.904a2.2 2.2 0 0 1-.75.119q-.426 0-.835-.183a1.66 1.66 0 0 1-.673-.558q-.264-.376-.264-.946zm5.416 6.921-.068.46a10 10 0 0 1-.222 1.04q-.145.554-.303 1.044a27 27 0 0 1-.26.78h-.767l.145-.72q.09-.449.179-1.002.094-.549.154-1.125l.051-.477zm8.068 1.193h-2.694v-8.727h2.813q1.27 0 2.173.524a3.43 3.43 0 0 1 1.385 1.496q.482.971.482 2.326 0 1.364-.486 2.348a3.46 3.46 0 0 1-1.415 1.509q-.929.524-2.258.524m-1.637-.938h1.568q1.083 0 1.794-.417a2.58 2.58 0 0 0 1.062-1.189q.349-.77.349-1.837 0-1.056-.345-1.819a2.54 2.54 0 0 0-1.031-1.176q-.686-.414-1.709-.414h-1.688zm10.176 1.074q-.945 0-1.632-.417a2.8 2.8 0 0 1-1.052-1.176q-.367-.759-.367-1.765t.367-1.772a2.9 2.9 0 0 1 1.031-1.202q.665-.435 1.551-.435.512 0 1.01.171.498.17.908.554.409.38.652 1.005.243.627.243 1.543v.426h-5.046v-.869h4.023q0-.554-.222-.989a1.67 1.67 0 0 0-.622-.686 1.75 1.75 0 0 0-.946-.251q-.6 0-1.04.298a2 2 0 0 0-.669.767 2.25 2.25 0 0 0-.234 1.014v.58q0 .741.256 1.257.26.512.72.78a2.1 2.1 0 0 0 1.069.264q.397 0 .716-.111a1.5 1.5 0 0 0 .559-.341q.234-.23.362-.571l.971.273a2.16 2.16 0 0 1-.515.869 2.5 2.5 0 0 1-.895.58 3.3 3.3 0 0 1-1.198.204m5.246-4.074V173h-1.006v-6.545h.972v1.022h.085a1.9 1.9 0 0 1 .699-.801q.47-.307 1.21-.307.665 0 1.164.273.499.269.775.818.277.546.277 1.381V173h-1.005v-4.091q0-.771-.401-1.202-.401-.434-1.099-.434-.481 0-.861.209-.375.209-.593.609t-.217.971m11.132-2.607L196.43 173h-1.022l-2.421-6.545h1.091l1.807 5.215h.068l1.807-5.215zm3.837 6.681q-.946 0-1.632-.417a2.8 2.8 0 0 1-1.052-1.176q-.367-.759-.367-1.765t.367-1.772q.37-.772 1.031-1.202.665-.435 1.551-.435.511 0 1.01.171.498.17.908.554.409.38.652 1.005.242.627.242 1.543v.426h-5.045v-.869h4.023q0-.554-.222-.989a1.67 1.67 0 0 0-.622-.686 1.75 1.75 0 0 0-.946-.251q-.601 0-1.04.298a1.96 1.96 0 0 0-.669.767 2.25 2.25 0 0 0-.234 1.014v.58q0 .741.255 1.257.26.512.721.78.46.264 1.069.264.396 0 .716-.111.324-.115.558-.341a1.55 1.55 0 0 0 .363-.571l.971.273a2.16 2.16 0 0 1-.515.869 2.5 2.5 0 0 1-.895.58 3.3 3.3 0 0 1-1.198.204m4.24-.136v-6.545h.972v.988h.068q.179-.486.648-.788a1.9 1.9 0 0 1 1.057-.303 11 11 0 0 1 .528.017v1.023a3 3 0 0 0-.234-.038q-.18-.03-.38-.03-.477 0-.852.2a1.47 1.47 0 0 0-.801 1.334V173zm5.215-1.193-.068.46a9 9 0 0 1-.222 1.04 19 19 0 0 1-.302 1.044q-.158.49-.26.78h-.767l.145-.72q.089-.449.179-1.002.093-.549.153-1.125l.051-.477zM224.54 167h-1.056a2.2 2.2 0 0 0-.891-1.381 2.4 2.4 0 0 0-.729-.358 3 3 0 0 0-.835-.119q-.792 0-1.436.401-.64.4-1.018 1.18-.375.78-.375 1.913t.375 1.914q.379.78 1.018 1.18.644.4 1.436.401.435 0 .835-.12a2.4 2.4 0 0 0 .729-.353q.333-.239.563-.584.234-.35.328-.801h1.056a3.5 3.5 0 0 1-.434 1.197 3.28 3.28 0 0 1-1.837 1.458q-.58.19-1.24.191-1.116 0-1.986-.545-.868-.546-1.368-1.551-.498-1.006-.498-2.387 0-1.38.498-2.386.5-1.006 1.368-1.551.87-.546 1.986-.546.66 0 1.24.192.584.192 1.053.563.469.366.784.895.315.523.434 1.197m9.072 1.636q0 1.381-.499 2.387-.498 1.005-1.368 1.551-.869.546-1.985.545-1.118 0-1.986-.545-.87-.546-1.368-1.551-.499-1.006-.499-2.387 0-1.38.499-2.386.498-1.006 1.368-1.551.869-.546 1.986-.546t1.985.546q.87.545 1.368 1.551.5 1.006.499 2.386m-1.023 0q0-1.133-.379-1.913-.375-.78-1.019-1.18a2.64 2.64 0 0 0-1.431-.401q-.794 0-1.436.401-.64.4-1.019 1.18-.375.78-.375 1.913t.375 1.914q.379.78 1.019 1.18.642.4 1.436.401a2.64 2.64 0 0 0 1.431-.401q.644-.4 1.019-1.18.38-.78.379-1.914"/></g><defs><filter id="a" width="436" height="156" x="6" y="59" color-interpolation-filters="sRGB" filterUnits="userSpaceOnUse"><feFlood flood-opacity="0" result="BackgroundImageFix"/><feColorMatrix in="SourceAlpha" result="hardAlpha" values="0 0 0 0 0 0 0 0 0 0 0 0 0 0 0 0 0 0 127 0"/><feOffset dy="1"/><feGaussianBlur stdDeviation=".5"/><feComposite in2="hardAlpha" operator="out"/><feColorMatrix values="0 0 0 0 0 0 0 0 0 0 0 0 0 0 0 0 0 0 0.04 0"/><feBlend in2="BackgroundImageFix" result="effect1_dropShadow_558_26992"/><feColorMatrix in="SourceAlpha" result="hardAlpha" values="0 0 0 0 0 0 0 0 0 0 0 0 0 0 0 0 0 0 127 0"/><feOffset dy="3"/><feGaussianBlur stdDeviation="4.5"/><feComposite in2="hardAlpha" operator="out"/><feColorMatrix values="0 0 0 0 0 0 0 0 0 0 0 0 0 0 0 0 0 0 0.04 0"/><feBlend in2="effect1_dropShadow_558_26992" result="effect2_dropShadow_558_26992"/><feColorMatrix in="SourceAlpha" result="hardAlpha" values="0 0 0 0 0 0 0 0 0 0 0 0 0 0 0 0 0 0 127 0"/><feOffset dy="6"/><feGaussianBlur stdDeviation="9"/><feComposite in2="hardAlpha" operator="out"/><feColorMatrix values="0 0 0 0 0 0 0 0 0 0 0 0 0 0 0 0 0 0 0.04 0"/><feBlend in2="effect2_dropShadow_558_26992" result="effect3_dropShadow_558_26992"/><feBlend in="SourceGraphic" in2="effect3_dropShadow_558_26992" result="shape"/></filter></defs></svg>