<svg xmlns="http://www.w3.org/2000/svg" width="362" height="172" fill="none" viewBox="0 0 362 172"><rect width="361" height="170.358" x=".5" y=".5" fill="#fff" rx="8.5"/><rect width="361" height="170.358" x=".5" y=".5" stroke="#e9e8e6" rx="8.5"/><rect width="328" height="33.278" x="17" y="17" fill="#f8f8f7" rx="4"/><g clip-path="url(#a)"><rect width="107.105" height="28.503" x="19.384" y="19.387" fill="#fff" rx="3.523"/><rect width="107.105" height="28.503" x="19.384" y="19.387" stroke="#e9e8e6" stroke-width=".955" rx="3.523"/><path fill="#21201d" d="M40.526 29.18v-1.263h7.524v1.262h-3.033v8.46h-1.462v-8.46zm8.316 8.459v-7.292h1.372v1.158h.076q.2-.588.703-.925a2 2 0 0 1 1.148-.342 6 6 0 0 1 .603.033v1.358a3 3 0 0 0-.304-.052 3 3 0 0 0-.436-.034q-.504 0-.898.214a1.59 1.59 0 0 0-.845 1.429v4.453zm7.187.161q-.693 0-1.253-.256a2.1 2.1 0 0 1-.888-.755q-.322-.495-.322-1.21 0-.617.237-1.016.237-.4.64-.632.404-.232.903-.351.497-.12 1.016-.18l1.063-.124q.408-.052.593-.166t.185-.37v-.034q0-.621-.35-.963-.348-.342-1.036-.342-.716 0-1.13.318-.408.313-.564.698l-1.334-.304q.237-.664.693-1.073a2.8 2.8 0 0 1 1.058-.598q.599-.19 1.258-.19.437 0 .926.105.494.1.92.37.434.27.708.774.276.498.276 1.296v4.842H58.24v-.997h-.056q-.138.275-.413.541-.276.266-.708.442-.432.175-1.035.175m.309-1.14q.589 0 1.006-.232a1.63 1.63 0 0 0 .641-.607q.223-.38.223-.812v-.94q-.075.075-.294.142a5 5 0 0 1-.49.11l-.535.08-.437.057a3.5 3.5 0 0 0-.755.176 1.3 1.3 0 0 0-.541.356q-.2.228-.2.607 0 .528.39.798.39.266.992.266m6.6-3.35v4.329h-1.42v-7.292h1.363v1.187h.09q.251-.579.788-.93.54-.352 1.362-.352.745 0 1.306.314.56.308.868.92.31.614.31 1.515v4.638h-1.42v-4.467q0-.793-.413-1.24-.414-.45-1.135-.45-.494 0-.878.213a1.54 1.54 0 0 0-.603.627q-.219.408-.218.987m12.034-1.183-1.287.228a1.5 1.5 0 0 0-.256-.47 1.3 1.3 0 0 0-.465-.365q-.295-.143-.736-.143-.603 0-1.007.27-.403.266-.403.69 0 .365.27.588t.874.365l1.158.266q1.007.233 1.5.717.495.484.494 1.258 0 .655-.38 1.168-.375.508-1.049.797-.669.29-1.552.29-1.225 0-1.999-.522-.773-.527-.95-1.496l1.373-.209q.127.537.527.812.399.27 1.04.27.698 0 1.115-.289.418-.294.418-.716a.75.75 0 0 0-.257-.575q-.25-.233-.773-.351l-1.235-.27q-1.02-.234-1.51-.741-.484-.508-.484-1.287 0-.645.361-1.13.36-.484.997-.755.636-.275 1.458-.275 1.182 0 1.86.513.68.508.898 1.362m4.774 5.659q-1.059 0-1.823-.48a3.2 3.2 0 0 1-1.168-1.334q-.408-.85-.408-1.946 0-1.11.418-1.96a3.2 3.2 0 0 1 1.177-1.334q.76-.48 1.79-.48.83 0 1.481.309.65.303 1.05.854.402.55.479 1.287H81.36a1.66 1.66 0 0 0-.522-.883q-.404-.37-1.082-.37-.594 0-1.04.313-.442.309-.688.883-.247.57-.247 1.348 0 .797.242 1.377.242.579.684.897a1.76 1.76 0 0 0 1.049.318q.403 0 .73-.147.333-.152.556-.432.228-.28.318-.674h1.382q-.077.707-.46 1.262-.385.556-1.031.874-.64.318-1.505.318m4.514-.147v-7.292h1.371v1.158h.076q.2-.588.703-.925a2 2 0 0 1 1.149-.342 6 6 0 0 1 .603.033v1.358a3 3 0 0 0-.304-.052 3 3 0 0 0-.437-.034q-.502 0-.897.214a1.59 1.59 0 0 0-.845 1.429v4.453zm5.13 0v-7.292h1.42v7.292zm.717-8.417a.9.9 0 0 1-.636-.247.8.8 0 0 1-.261-.598q0-.35.26-.598a.9.9 0 0 1 .637-.252q.37 0 .631.252a.8.8 0 0 1 .266.598q0 .346-.266.598a.9.9 0 0 1-.631.247m2.612 11.151V30.347h1.386v1.182h.119q.122-.228.356-.527t.645-.522q.414-.228 1.092-.228.883 0 1.576.446.694.447 1.088 1.287.398.84.398 2.022t-.394 2.027q-.393.84-1.082 1.296-.689.45-1.571.451-.666 0-1.087-.223a2.1 2.1 0 0 1-.656-.522 4 4 0 0 1-.365-.532h-.086v3.87zm1.39-6.38q0 .77.224 1.348.223.579.646.907.422.323 1.034.323.638 0 1.064-.337.427-.342.645-.926a3.7 3.7 0 0 0 .224-1.315q0-.721-.219-1.296a2 2 0 0 0-.645-.907q-.427-.332-1.069-.332-.616 0-1.044.318-.422.318-.64.888-.22.57-.22 1.329m10.264-3.646v1.14h-3.983v-1.14zm-2.914-1.747h1.419v6.898q0 .412.123.622a.65.65 0 0 0 .318.28q.2.07.432.071.171 0 .3-.024l.199-.038.256 1.173a2.8 2.8 0 0 1-.921.152 2.5 2.5 0 0 1-1.044-.2 1.8 1.8 0 0 1-.783-.645q-.3-.437-.299-1.097z"/><path fill="#82807c" d="M159.068 37.639v-9.722h3.466q1.135 0 1.879.413.745.413 1.116 1.13.37.711.37 1.604 0 .897-.375 1.614-.37.712-1.12 1.13-.746.413-1.875.413h-2.383v-1.244h2.25q.717 0 1.163-.247a1.55 1.55 0 0 0 .655-.683q.209-.432.209-.983t-.209-.978a1.5 1.5 0 0 0-.66-.67q-.446-.24-1.177-.241h-1.842v8.464zm10.494.161q-.693 0-1.254-.256a2.1 2.1 0 0 1-.887-.755q-.323-.495-.323-1.21 0-.617.237-1.016.238-.4.641-.632.404-.232.902-.351.498-.12 1.016-.18l1.063-.124q.409-.052.594-.166t.185-.37v-.034q0-.621-.351-.963-.346-.342-1.035-.342-.717 0-1.13.318-.409.313-.565.698l-1.334-.304q.237-.664.693-1.073.46-.412 1.059-.598.598-.19 1.258-.19.437 0 .925.105.495.1.921.37.432.27.708.774.275.498.275 1.296v4.842h-1.386v-.997h-.057a2 2 0 0 1-.413.541 2.2 2.2 0 0 1-.707.442q-.432.175-1.035.175m.308-1.14q.589 0 1.007-.232.422-.232.641-.607.223-.38.223-.812v-.94q-.076.075-.295.142a5 5 0 0 1-.489.11l-.536.08-.437.057a3.5 3.5 0 0 0-.755.176 1.3 1.3 0 0 0-.541.356q-.2.228-.199.607 0 .528.389.798.39.266.992.266m8.584-6.313v1.14h-3.982v-1.14zM175.54 28.6h1.419v6.898q0 .412.123.622.124.204.319.28.198.07.432.071.17 0 .299-.024.128-.023.199-.038l.256 1.173a2.8 2.8 0 0 1-.921.152 2.5 2.5 0 0 1-1.044-.2 1.8 1.8 0 0 1-.783-.645q-.3-.437-.299-1.097zm4.485 9.039v-7.292h1.419v7.292zm.716-8.417a.9.9 0 0 1-.636-.247.8.8 0 0 1-.261-.598q0-.35.261-.598a.9.9 0 0 1 .636-.252q.37 0 .632.252a.8.8 0 0 1 .266.598q0 .346-.266.598a.9.9 0 0 1-.632.247m5.755 8.564q-1.077 0-1.856-.46a3.1 3.1 0 0 1-1.196-1.306q-.418-.845-.418-1.98 0-1.12.418-1.974a3.24 3.24 0 0 1 1.177-1.334q.76-.48 1.775-.48.618 0 1.197.204t1.039.641.727 1.135q.266.693.266 1.685v.503h-5.797v-1.063h4.406q0-.56-.228-.992a1.73 1.73 0 0 0-.641-.689 1.8 1.8 0 0 0-.959-.251 1.85 1.85 0 0 0-1.044.294 1.97 1.97 0 0 0-.684.76q-.237.465-.237 1.01v.832q0 .73.256 1.243.261.513.726.784.466.265 1.087.265.404 0 .736-.114.333-.119.575-.35.241-.233.37-.575l1.343.242q-.16.593-.579 1.04a2.8 2.8 0 0 1-1.039.688 3.9 3.9 0 0 1-1.42.242m6.123-4.477v4.33h-1.42v-7.292h1.363v1.187h.09q.252-.579.788-.93.541-.352 1.363-.352.745 0 1.305.314a2.1 2.1 0 0 1 .869.92q.308.614.308 1.515v4.638h-1.419v-4.467q0-.793-.413-1.24-.413-.45-1.135-.45-.494 0-.878.213a1.54 1.54 0 0 0-.603.627q-.218.408-.218.987m9.974-2.962v1.14h-3.983v-1.14zm-2.915-1.747h1.419v6.898q0 .412.124.622.123.204.318.28.2.07.432.071.17 0 .299-.024.128-.023.199-.038l.257 1.173q-.124.047-.352.095a3 3 0 0 1-.569.057 2.5 2.5 0 0 1-1.045-.2 1.8 1.8 0 0 1-.783-.645q-.299-.437-.299-1.097zm66.945 9.039v-9.722h1.467v4.225h4.847v-4.225h1.471v9.722h-1.471v-4.24h-4.847v4.24zm9.807 0v-7.292h1.42v7.292zm.717-8.417a.9.9 0 0 1-.636-.247.8.8 0 0 1-.261-.598q0-.35.261-.598a.9.9 0 0 1 .636-.252q.37 0 .632.252a.8.8 0 0 1 .266.598q0 .346-.266.598a.9.9 0 0 1-.632.247m8.076 2.905-1.286.228a1.5 1.5 0 0 0-.256-.47 1.3 1.3 0 0 0-.466-.365q-.294-.143-.735-.143-.603 0-1.007.27-.403.266-.403.69 0 .365.27.588.271.223.874.365l1.158.266q1.007.233 1.5.717t.494 1.258q0 .655-.38 1.168-.375.508-1.049.797-.67.29-1.552.29-1.225 0-1.999-.522-.774-.527-.949-1.496l1.372-.209q.128.537.526.812.4.27 1.04.27.697 0 1.116-.289.417-.294.417-.716a.74.74 0 0 0-.256-.575q-.252-.233-.774-.351l-1.234-.27q-1.02-.234-1.51-.741-.484-.508-.484-1.287 0-.645.361-1.13t.997-.755q.636-.275 1.457-.275 1.183 0 1.861.513.68.508.897 1.362m5.107-1.78v1.14h-3.983v-1.14zm-2.915-1.747h1.42v6.898q0 .412.123.622a.65.65 0 0 0 .318.28q.2.07.432.071.171 0 .299-.024l.2-.038.256 1.173a2.8 2.8 0 0 1-.921.152 2.5 2.5 0 0 1-1.044-.2 1.8 1.8 0 0 1-.783-.645q-.3-.437-.3-1.097zm7.478 9.186q-1.025 0-1.789-.47a3.17 3.17 0 0 1-1.187-1.315q-.423-.845-.423-1.975 0-1.135.423-1.984a3.16 3.16 0 0 1 1.187-1.32q.764-.47 1.789-.47 1.026 0 1.79.47t1.187 1.32.422 1.984q0 1.13-.422 1.975a3.17 3.17 0 0 1-1.187 1.315q-.764.47-1.79.47m.005-1.192q.664 0 1.102-.35.437-.352.645-.936.214-.584.214-1.287 0-.698-.214-1.281a2.1 2.1 0 0 0-.645-.945q-.438-.356-1.102-.356-.669 0-1.111.356a2.1 2.1 0 0 0-.65.945q-.209.584-.209 1.281 0 .704.209 1.287.213.584.65.935.442.351 1.111.351m4.979 1.045v-7.292h1.372v1.158h.076q.2-.588.702-.925a2 2 0 0 1 1.149-.342 6 6 0 0 1 .603.033v1.358a3 3 0 0 0-.304-.052 3 3 0 0 0-.437-.034q-.502 0-.897.214a1.59 1.59 0 0 0-.845 1.429v4.453zm6.249 2.734q-.318 0-.579-.052a1.8 1.8 0 0 1-.389-.104l.342-1.163q.389.105.693.09a.83.83 0 0 0 .536-.228q.238-.214.418-.698l.176-.484-2.668-7.387h1.519l1.847 5.659h.076l1.846-5.659h1.524l-3.005 8.265q-.208.57-.532.964a2.06 2.06 0 0 1-.769.598q-.446.2-1.035.2"/></g><g fill="#dad9d6" clip-path="url(#b)"><rect width="1.91" height="1.91" x="17" y="87.995" rx=".955"/><rect width="1.91" height="1.91" x="20.82" y="87.995" rx=".955"/><rect width="1.91" height="1.91" x="24.641" y="87.995" rx=".955"/><rect width="1.91" height="1.91" x="28.461" y="87.995" rx=".955"/><rect width="1.91" height="1.91" x="32.281" y="87.995" rx=".955"/><rect width="1.91" height="10.504" x="36.094" y="83.698" rx=".955"/><rect width="1.91" height="1.91" x="39.914" y="87.995" rx=".955"/><rect width="1.91" height="1.91" x="43.734" y="87.995" rx=".955"/><rect width="1.91" height="6.684" x="47.555" y="85.608" rx=".955"/><rect width="1.91" height="1.91" x="51.375" y="87.995" rx=".955"/><rect width="1.91" height="6.684" x="55.195" y="85.608" rx=".955"/><rect width="1.91" height="8.594" x="59.016" y="84.653" rx=".955"/><rect width="1.91" height="1.91" x="62.836" y="87.995" rx=".955"/><rect width="1.91" height="1.91" x="66.656" y="87.995" rx=".955"/><rect width="1.91" height="1.91" x="70.469" y="87.995" rx=".955"/><rect width="1.91" height="4.774" x="74.289" y="86.563" rx=".955"/><rect width="1.91" height="1.91" x="78.109" y="87.995" rx=".955"/><rect width="1.91" height="1.91" x="81.93" y="87.995" rx=".955"/><rect width="1.91" height="6.684" x="85.75" y="85.608" rx=".955"/><rect width="1.91" height="1.91" x="89.57" y="87.995" rx=".955"/><rect width="1.91" height="10.504" x="93.391" y="83.698" rx=".955"/><rect width="1.91" height="1.91" x="97.211" y="87.995" rx=".955"/><rect width="1.91" height="1.91" x="101.031" y="87.995" rx=".955"/><rect width="1.91" height="1.91" x="104.844" y="87.995" rx=".955"/><rect width="1.91" height="14.323" x="108.664" y="81.788" rx=".955"/><rect width="1.91" height="41.059" x="112.484" y="68.42" rx=".955"/><rect width="1.91" height="31.51" x="116.305" y="73.195" rx=".955"/><rect width="1.91" height="27.691" x="120.125" y="75.104" rx=".955"/><rect width="1.91" height="31.51" x="123.945" y="73.195" rx=".955"/><rect width="1.91" height="21.962" x="127.766" y="77.969" rx=".955"/><rect width="1.91" height="25.781" x="131.586" y="76.059" rx=".955"/><rect width="1.91" height="14.323" x="135.406" y="81.788" rx=".955"/><rect width="1.91" height="18.142" x="139.219" y="79.879" rx=".955"/><rect width="1.91" height="16.233" x="143.039" y="80.833" rx=".955"/><rect width="1.91" height="3.819" x="146.859" y="87.04" rx=".955"/><rect width="1.91" height="10.504" x="150.68" y="83.698" rx=".955"/><rect width="1.91" height="2.865" x="154.5" y="87.518" rx=".955"/><rect width="1.91" height="1.91" x="158.32" y="87.995" rx=".955"/><rect width="1.91" height="6.684" x="162.141" y="85.608" rx=".955"/><rect width="1.91" height="2.865" x="165.961" y="87.517" rx=".955"/><rect width="1.91" height="10.504" x="169.781" y="83.698" rx=".955"/><rect width="1.91" height="3.819" x="173.594" y="87.04" rx=".955"/><rect width="1.91" height="3.819" x="177.414" y="87.04" rx=".955"/><rect width="1.91" height="3.819" x="181.234" y="87.04" rx=".955"/><rect width="1.91" height="3.819" x="185.055" y="87.04" rx=".955"/><rect width="1.91" height="10.504" x="188.875" y="83.698" rx=".955"/><rect width="1.91" height="2.865" x="192.695" y="87.517" rx=".955"/><rect width="1.91" height="1.91" x="196.516" y="87.995" rx=".955"/><rect width="1.91" height="6.684" x="200.336" y="85.608" rx=".955"/><rect width="1.91" height="2.865" x="204.156" y="87.517" rx=".955"/><rect width="1.91" height="10.504" x="207.969" y="83.698" rx=".955"/><rect width="1.91" height="20.052" x="211.789" y="78.924" rx=".955"/><rect width="1.91" height="35.33" x="215.609" y="71.285" rx=".955"/><rect width="1.91" height="20.052" x="219.43" y="78.924" rx=".955"/><rect width="1.91" height="21.962" x="223.25" y="77.969" rx=".955"/><rect width="1.91" height="18.142" x="227.07" y="79.879" rx=".955"/><rect width="1.91" height="14.323" x="230.891" y="81.788" rx=".955"/><rect width="1.91" height="16.233" x="234.711" y="80.833" rx=".955"/><rect width="1.91" height="23.872" x="238.531" y="77.014" rx=".955"/><rect width="1.91" height="14.323" x="242.344" y="81.788" rx=".955"/><rect width="1.91" height="18.142" x="246.164" y="79.879" rx=".955"/><rect width="1.91" height="14.323" x="249.984" y="81.788" rx=".955"/><rect width="1.91" height="16.233" x="253.805" y="80.834" rx=".955"/><rect width="1.91" height="10.504" x="257.625" y="83.698" rx=".955"/><rect width="1.91" height="20.052" x="261.445" y="78.924" rx=".955"/><rect width="1.91" height="12.413" x="265.266" y="82.743" rx=".955"/><rect width="1.91" height="25.781" x="269.086" y="76.059" rx=".955"/><rect width="1.91" height="3.819" x="272.906" y="87.04" rx=".955"/><rect width="1.91" height="3.819" x="276.719" y="87.04" rx=".955"/><rect width="1.91" height="3.819" x="280.539" y="87.04" rx=".955"/><rect width="1.91" height="3.819" x="284.359" y="87.04" rx=".955"/><rect width="1.91" height="10.504" x="288.18" y="83.698" rx=".955"/><rect width="1.91" height="2.865" x="292" y="87.517" rx=".955"/><rect width="1.91" height="1.91" x="295.82" y="87.995" rx=".955"/><rect width="1.91" height="6.684" x="299.641" y="85.608" rx=".955"/><rect width="1.91" height="2.865" x="303.461" y="87.517" rx=".955"/><rect width="1.91" height="1.91" x="307.281" y="87.995" rx=".955"/><rect width="1.91" height="1.91" x="311.094" y="87.995" rx=".955"/><rect width="1.91" height="1.91" x="314.914" y="87.995" rx=".955"/><rect width="1.91" height="1.91" x="318.734" y="87.995" rx=".955"/><rect width="1.91" height="10.504" x="322.555" y="83.698" rx=".955"/><rect width="1.91" height="4.774" x="326.375" y="86.563" rx=".955"/><rect width="1.91" height="1.91" x="330.195" y="87.995" rx=".955"/><rect width="1.91" height="1.91" x="334.016" y="87.995" rx=".955"/><rect width="1.91" height="6.684" x="337.836" y="85.608" rx=".955"/><rect width="1.91" height="1.91" x="341.656" y="87.995" rx=".955"/></g><rect width="25.781" height="25.781" x="17.477" y="128.099" fill="#fff" rx="3.523"/><rect width="25.781" height="25.781" x="17.477" y="128.099" stroke="#e9e8e6" stroke-width=".955" rx="3.523"/><path fill="#21201d" stroke="#21201d" stroke-width=".075" d="M26.476 135.298a.8.8 0 0 1 .418.124l7.816 4.855a.843.843 0 0 1 0 1.425l-7.816 4.855a.83.83 0 0 1-.741.065l-.1-.049a.83.83 0 0 1-.422-.729v-9.709a.85.85 0 0 1 .33-.668l.092-.061a.8.8 0 0 1 .423-.108Z"/><path fill="#21201d" d="M59.82 135.268v9.722h-1.473v-8.251h-.056l-2.327 1.519v-1.405l2.426-1.585zm3.022 9.812a.92.92 0 0 1-.67-.275.92.92 0 0 1-.28-.674q0-.39.28-.665a.9.9 0 0 1 .67-.28q.39 0 .67.28.28.275.28.665a.9.9 0 0 1-.134.479 1 1 0 0 1-.342.342.9.9 0 0 1-.474.128m5.864.071q-1.125-.005-1.923-.593-.797-.59-1.22-1.714t-.422-2.711q0-1.58.422-2.701.427-1.12 1.225-1.709.802-.588 1.918-.588t1.913.593q.798.588 1.22 1.709.427 1.116.427 2.696 0 1.591-.422 2.716-.423 1.12-1.22 1.713-.798.59-1.918.589m0-1.267q.987 0 1.543-.964.56-.963.56-2.787 0-1.21-.257-2.046-.251-.84-.726-1.272a1.6 1.6 0 0 0-1.12-.437q-.983 0-1.543.969-.56.968-.565 2.786 0 1.216.252 2.056.256.835.726 1.267.47.428 1.13.428m6.383-6.186 1.61 2.839 1.623-2.839h1.553l-2.274 3.646 2.293 3.646H78.34l-1.642-2.725-1.638 2.725h-1.557l2.27-3.646-2.242-3.646zm185.231 7.453q-1.125-.005-1.923-.593-.797-.59-1.22-1.714t-.422-2.711q0-1.58.422-2.701.427-1.12 1.225-1.709.802-.588 1.918-.588t1.913.593q.797.588 1.22 1.709.427 1.116.427 2.696 0 1.591-.422 2.716-.423 1.12-1.22 1.713-.798.59-1.918.589m0-1.267q.987 0 1.543-.964.56-.963.56-2.787 0-1.21-.256-2.046-.252-.84-.727-1.272a1.6 1.6 0 0 0-1.12-.437q-.982 0-1.543.969-.56.968-.565 2.786 0 1.216.252 2.056.257.835.726 1.267.47.428 1.13.428m8.629 1.267q-1.125-.005-1.922-.593-.798-.59-1.221-1.714-.422-1.125-.422-2.711 0-1.58.422-2.701.428-1.12 1.225-1.709.802-.588 1.918-.588t1.913.593q.798.588 1.22 1.709.427 1.116.427 2.696 0 1.591-.422 2.716-.423 1.12-1.22 1.713-.798.59-1.918.589m0-1.267q.988 0 1.543-.964.56-.963.56-2.787 0-1.21-.256-2.046-.252-.84-.727-1.272a1.6 1.6 0 0 0-1.12-.437q-.982 0-1.543.969-.56.968-.565 2.786 0 1.216.252 2.056.257.835.726 1.267.47.428 1.13.428m6.199-.1a.92.92 0 0 1-.67-.275.92.92 0 0 1-.28-.674.9.9 0 0 1 .28-.665.9.9 0 0 1 .67-.28q.389 0 .669.28.28.275.28.665a.9.9 0 0 1-.133.479 1 1 0 0 1-.342.342.9.9 0 0 1-.474.128m0-4.871a.92.92 0 0 1-.67-.275.92.92 0 0 1-.28-.674q0-.39.28-.665a.92.92 0 0 1 .67-.28q.389 0 .669.28.28.275.28.665a.97.97 0 0 1-.475.821.9.9 0 0 1-.474.128m6.216 6.238q-1.125-.005-1.922-.593-.798-.59-1.22-1.714-.423-1.125-.423-2.711 0-1.58.423-2.701.427-1.12 1.224-1.709.802-.588 1.918-.588t1.913.593q.798.588 1.22 1.709.428 1.116.428 2.696 0 1.591-.423 2.716-.422 1.12-1.22 1.713-.798.59-1.918.589m0-1.267q.988 0 1.543-.964.56-.963.56-2.787 0-1.21-.256-2.046-.252-.84-.726-1.272a1.6 1.6 0 0 0-1.121-.437q-.982 0-1.543.969-.56.968-.565 2.786 0 1.216.252 2.056.257.835.726 1.267.47.428 1.13.428m8.629 1.267q-1.125-.005-1.922-.593-.798-.59-1.22-1.714-.423-1.125-.423-2.711 0-1.58.423-2.701.428-1.12 1.224-1.709.803-.588 1.918-.588 1.116 0 1.913.593.798.588 1.22 1.709.428 1.116.428 2.696 0 1.591-.423 2.716-.422 1.12-1.22 1.713-.797.59-1.918.589m0-1.267q.988 0 1.543-.964.56-.963.56-2.787 0-1.21-.256-2.046-.252-.84-.726-1.272a1.6 1.6 0 0 0-1.121-.437q-.982 0-1.542.969-.56.968-.565 2.786 0 1.216.251 2.056.256.835.727 1.267.47.428 1.129.428m12.504-9.072-3.133 11.64h-1.267l3.133-11.64zm8.11 10.339q-1.125-.005-1.923-.593-.797-.59-1.22-1.714t-.422-2.711q0-1.58.422-2.701.427-1.12 1.225-1.709.802-.588 1.918-.588t1.913.593q.798.588 1.22 1.709.427 1.116.427 2.696 0 1.591-.422 2.716-.423 1.12-1.22 1.713-.798.59-1.918.589m0-1.267q.987 0 1.543-.964.56-.963.56-2.787 0-1.21-.257-2.046-.25-.84-.726-1.272a1.6 1.6 0 0 0-1.12-.437q-.983 0-1.543.969-.56.968-.565 2.786 0 1.216.252 2.056.256.835.726 1.267.47.428 1.13.428m8.629 1.267q-1.125-.005-1.923-.593-.797-.59-1.22-1.714t-.422-2.711q0-1.58.422-2.701.427-1.12 1.225-1.709.802-.588 1.918-.588t1.913.593q.797.588 1.22 1.709.427 1.116.427 2.696 0 1.591-.422 2.716-.423 1.12-1.22 1.713-.798.59-1.918.589m0-1.267q.988 0 1.543-.964.56-.963.56-2.787 0-1.21-.256-2.046-.252-.84-.727-1.272a1.6 1.6 0 0 0-1.12-.437q-.982 0-1.543.969-.56.968-.565 2.786 0 1.216.252 2.056.257.835.726 1.267.47.428 1.13.428m6.199-.1a.92.92 0 0 1-.67-.275.92.92 0 0 1-.28-.674.9.9 0 0 1 .28-.665.9.9 0 0 1 .67-.28q.389 0 .669.28.28.275.28.665a.9.9 0 0 1-.133.479 1 1 0 0 1-.342.342.9.9 0 0 1-.474.128m0-4.871a.92.92 0 0 1-.67-.275.92.92 0 0 1-.28-.674q0-.39.28-.665a.92.92 0 0 1 .67-.28q.389 0 .669.28.28.275.28.665a.97.97 0 0 1-.475.821.9.9 0 0 1-.474.128m2.627 4.178v-1.187l4.201-6.636h.936v1.746h-.594l-3.005 4.757v.076h5.759v1.244zm4.61 1.899v-2.26l.009-.541v-6.921h1.391v9.722zm4.341 0v-1.064l3.29-3.408q.527-.555.868-.973.348-.423.518-.803t.171-.807a1.5 1.5 0 0 0-.228-.835 1.5 1.5 0 0 0-.622-.546 2 2 0 0 0-.888-.195q-.522 0-.911.214-.39.213-.598.603a1.9 1.9 0 0 0-.209.911h-1.401q0-.887.409-1.552a2.77 2.77 0 0 1 1.12-1.03q.712-.37 1.619-.37.916 0 1.614.365.703.361 1.096.988.395.621.395 1.405 0 .54-.205 1.058-.2.518-.697 1.154-.5.631-1.387 1.533l-1.932 2.023v.071h4.377v1.258z"/><defs><clipPath id="a"><rect width="324.181" height="29.458" x="18.906" y="18.91" fill="#fff" rx="4"/></clipPath><clipPath id="b"><path fill="#fff" d="M17 65.556h328v46.787H17z"/></clipPath></defs></svg>