<svg width="311" height="236" viewBox="0 0 311 236" fill="none" xmlns="http://www.w3.org/2000/svg">
<rect width="311" height="236" rx="12" fill="white"/>
<path d="M20 36C20 29.3726 25.3726 24 32 24V24C38.6274 24 44 29.3726 44 36V36C44 42.6274 38.6274 48 32 48V48C25.3726 48 20 42.6274 20 36V36Z" fill="#8E4EC6"/>
<path d="M36.3334 34H35.1004C35.0275 33.6454 34.8999 33.3338 34.7176 33.0653C34.5386 32.7969 34.3199 32.5715 34.0613 32.3892C33.8061 32.2036 33.5228 32.0644 33.2112 31.9716C32.8997 31.8788 32.5748 31.8324 32.2368 31.8324C31.6203 31.8324 31.0618 31.9882 30.5613 32.2997C30.0642 32.6113 29.6681 33.0703 29.3731 33.6768C29.0815 34.2834 28.9356 35.0275 28.9356 35.9091C28.9356 36.7907 29.0815 37.5348 29.3731 38.1413C29.6681 38.7479 30.0642 39.2069 30.5613 39.5185C31.0618 39.83 31.6203 39.9858 32.2368 39.9858C32.5748 39.9858 32.8997 39.9394 33.2112 39.8466C33.5228 39.7538 33.8061 39.6162 34.0613 39.4339C34.3199 39.2483 34.5386 39.0213 34.7176 38.7528C34.8999 38.4811 35.0275 38.1695 35.1004 37.8182H36.3334C36.2406 38.3385 36.0715 38.8042 35.8263 39.2152C35.581 39.6262 35.2761 39.9759 34.9115 40.2642C34.5469 40.5492 34.1376 40.7663 33.6835 40.9155C33.2327 41.0646 32.7505 41.1392 32.2368 41.1392C31.3684 41.1392 30.5961 40.9271 29.92 40.5028C29.2439 40.0786 28.7119 39.4754 28.3241 38.6932C27.9363 37.911 27.7425 36.983 27.7425 35.9091C27.7425 34.8352 27.9363 33.9072 28.3241 33.125C28.7119 32.3428 29.2439 31.7396 29.92 31.3153C30.5961 30.8911 31.3684 30.679 32.2368 30.679C32.7505 30.679 33.2327 30.7536 33.6835 30.9027C34.1376 31.0518 34.5469 31.2706 34.9115 31.5589C35.2761 31.844 35.581 32.192 35.8263 32.603C36.0715 33.0107 36.2406 33.4763 36.3334 34Z" fill="#FDFDFC"/>
<g clip-path="url(#clip0_479_10171)">
<path d="M65.5753 31.1293H64.0241C63.9645 30.7978 63.8535 30.5062 63.6911 30.2543C63.5286 30.0024 63.3298 29.7886 63.0945 29.6129C62.8591 29.4373 62.5956 29.3047 62.304 29.2152C62.0156 29.1257 61.709 29.081 61.3842 29.081C60.7976 29.081 60.2723 29.2285 59.8082 29.5234C59.3475 29.8184 58.983 30.2509 58.7145 30.821C58.4493 31.3911 58.3168 32.0871 58.3168 32.9091C58.3168 33.7377 58.4493 34.437 58.7145 35.0071C58.983 35.5772 59.3492 36.008 59.8132 36.2997C60.2772 36.5914 60.7992 36.7372 61.3793 36.7372C61.7008 36.7372 62.0057 36.6941 62.294 36.608C62.5857 36.5185 62.8492 36.3875 63.0845 36.2152C63.3198 36.0428 63.5187 35.8324 63.6811 35.5838C63.8468 35.3319 63.9612 35.0436 64.0241 34.7187L65.5753 34.7237C65.4924 35.2242 65.3317 35.6849 65.093 36.1058C64.8577 36.5234 64.5545 36.8847 64.1832 37.1896C63.8153 37.4912 63.3944 37.7249 62.9205 37.8906C62.4465 38.0563 61.9295 38.1392 61.3693 38.1392C60.4877 38.1392 59.7022 37.9304 59.0128 37.5128C58.3234 37.0919 57.7798 36.4903 57.3821 35.7081C56.9877 34.9259 56.7905 33.9929 56.7905 32.9091C56.7905 31.822 56.9893 30.889 57.3871 30.1101C57.7848 29.3279 58.3284 28.728 59.0178 28.3104C59.7071 27.8894 60.491 27.679 61.3693 27.679C61.9096 27.679 62.4134 27.7569 62.8807 27.9126C63.3513 28.0651 63.7739 28.2905 64.1484 28.5888C64.523 28.8838 64.8329 29.245 65.0781 29.6726C65.3234 30.0968 65.4891 30.5824 65.5753 31.1293ZM68.7807 27.8182V38H67.2942V27.8182H68.7807ZM73.0028 38.169C72.5189 38.169 72.0814 38.0795 71.6903 37.9006C71.2992 37.7183 70.9893 37.4548 70.7607 37.1101C70.5353 36.7654 70.4226 36.3428 70.4226 35.8423C70.4226 35.4115 70.5054 35.0568 70.6712 34.7784C70.8369 34.5 71.0606 34.2796 71.3423 34.1172C71.6241 33.9548 71.9389 33.8321 72.2869 33.7493C72.6349 33.6664 72.9896 33.6035 73.3509 33.5604C73.8082 33.5073 74.1794 33.4643 74.4645 33.4311C74.7495 33.3946 74.9567 33.3366 75.0859 33.2571C75.2152 33.1776 75.2798 33.0483 75.2798 32.8693V32.8345C75.2798 32.4003 75.1572 32.0639 74.9119 31.8253C74.67 31.5866 74.3087 31.4673 73.8281 31.4673C73.3277 31.4673 72.9332 31.5784 72.6449 31.8004C72.3598 32.0192 72.1626 32.2628 72.0533 32.5312L70.6562 32.2131C70.822 31.7491 71.0639 31.3745 71.3821 31.0895C71.7036 30.8011 72.0732 30.5923 72.4908 30.4631C72.9084 30.3305 73.3475 30.2642 73.8082 30.2642C74.1132 30.2642 74.4363 30.3007 74.7777 30.3736C75.1224 30.4432 75.4439 30.5724 75.7422 30.7614C76.0438 30.9503 76.2907 31.2204 76.483 31.5717C76.6752 31.9197 76.7713 32.3722 76.7713 32.929V38H75.3196V36.956H75.2599C75.1638 37.1482 75.0196 37.3371 74.8274 37.5227C74.6352 37.7083 74.3883 37.8625 74.0866 37.9851C73.785 38.1077 73.4238 38.169 73.0028 38.169ZM73.326 36.9759C73.737 36.9759 74.0883 36.8946 74.38 36.7322C74.675 36.5698 74.8987 36.3577 75.0511 36.0959C75.2069 35.8307 75.2848 35.5473 75.2848 35.2457V34.2614C75.2318 34.3144 75.129 34.3641 74.9766 34.4105C74.8274 34.4536 74.6567 34.4917 74.4645 34.5249C74.2723 34.5547 74.085 34.5829 73.9027 34.6094C73.7204 34.6326 73.5679 34.6525 73.4453 34.669C73.157 34.7055 72.8935 34.7668 72.6548 34.853C72.4195 34.9392 72.2306 35.0634 72.0881 35.2259C71.9489 35.3849 71.8793 35.5971 71.8793 35.8622C71.8793 36.2301 72.0152 36.5085 72.2869 36.6974C72.5587 36.883 72.9051 36.9759 73.326 36.9759ZM78.7512 38V30.3636H80.188V31.5767H80.2676C80.4068 31.1657 80.652 30.8426 81.0034 30.6072C81.358 30.3686 81.7591 30.2493 82.2065 30.2493C82.2993 30.2493 82.4087 30.2526 82.5346 30.2592C82.6639 30.2659 82.765 30.2741 82.8379 30.2841V31.706C82.7782 31.6894 82.6722 31.6712 82.5197 31.6513C82.3672 31.6281 82.2148 31.6165 82.0623 31.6165C81.711 31.6165 81.3978 31.6911 81.1227 31.8402C80.8509 31.986 80.6355 32.1899 80.4764 32.4517C80.3173 32.7102 80.2377 33.0052 80.2377 33.3366V38H78.7512ZM86.2782 38.169C85.7943 38.169 85.3568 38.0795 84.9657 37.9006C84.5746 37.7183 84.2647 37.4548 84.036 37.1101C83.8107 36.7654 83.698 36.3428 83.698 35.8423C83.698 35.4115 83.7808 35.0568 83.9466 34.7784C84.1123 34.5 84.336 34.2796 84.6177 34.1172C84.8994 33.9548 85.2143 33.8321 85.5623 33.7493C85.9103 33.6664 86.265 33.6035 86.6262 33.5604C87.0836 33.5073 87.4548 33.4643 87.7399 33.4311C88.0249 33.3946 88.2321 33.3366 88.3613 33.2571C88.4906 33.1776 88.5552 33.0483 88.5552 32.8693V32.8345C88.5552 32.4003 88.4326 32.0639 88.1873 31.8253C87.9454 31.5866 87.5841 31.4673 87.1035 31.4673C86.603 31.4673 86.2086 31.5784 85.9203 31.8004C85.6352 32.0192 85.438 32.2628 85.3287 32.5312L83.9316 32.2131C84.0974 31.7491 84.3393 31.3745 84.6575 31.0895C84.979 30.8011 85.3485 30.5923 85.7662 30.4631C86.1838 30.3305 86.6229 30.2642 87.0836 30.2642C87.3886 30.2642 87.7117 30.3007 88.0531 30.3736C88.3978 30.4432 88.7193 30.5724 89.0176 30.7614C89.3192 30.9503 89.5661 31.2204 89.7583 31.5717C89.9506 31.9197 90.0467 32.3722 90.0467 32.929V38H88.595V36.956H88.5353C88.4392 37.1482 88.295 37.3371 88.1028 37.5227C87.9106 37.7083 87.6636 37.8625 87.362 37.9851C87.0604 38.1077 86.6992 38.169 86.2782 38.169ZM86.6014 36.9759C87.0124 36.9759 87.3637 36.8946 87.6554 36.7322C87.9503 36.5698 88.1741 36.3577 88.3265 36.0959C88.4823 35.8307 88.5602 35.5473 88.5602 35.2457V34.2614C88.5072 34.3144 88.4044 34.3641 88.252 34.4105C88.1028 34.4536 87.9321 34.4917 87.7399 34.5249C87.5476 34.5547 87.3604 34.5829 87.1781 34.6094C86.9958 34.6326 86.8433 34.6525 86.7207 34.669C86.4323 34.7055 86.1689 34.7668 85.9302 34.853C85.6949 34.9392 85.506 35.0634 85.3635 35.2259C85.2243 35.3849 85.1547 35.5971 85.1547 35.8622C85.1547 36.2301 85.2905 36.5085 85.5623 36.6974C85.8341 36.883 86.1805 36.9759 86.6014 36.9759ZM97.8446 38L95.0208 27.8182H96.6365L98.6202 35.7031H98.7147L100.778 27.8182H102.379L104.442 35.7081H104.536L106.515 27.8182H108.136L105.307 38H103.761L101.618 30.3736H101.539L99.3958 38H97.8446ZM110.904 33.4659V38H109.417V27.8182H110.884V31.6065H110.978C111.157 31.1955 111.431 30.8691 111.799 30.6271C112.167 30.3852 112.647 30.2642 113.24 30.2642C113.764 30.2642 114.221 30.3719 114.613 30.5874C115.007 30.8028 115.312 31.1243 115.527 31.5518C115.746 31.9761 115.855 32.5064 115.855 33.1428V38H114.369V33.3217C114.369 32.7616 114.225 32.3274 113.936 32.0192C113.648 31.7076 113.247 31.5518 112.733 31.5518C112.382 31.5518 112.067 31.6264 111.789 31.7756C111.514 31.9247 111.297 32.1435 111.137 32.4318C110.982 32.7169 110.904 33.0616 110.904 33.4659ZM117.839 38V30.3636H119.326V38H117.839ZM118.59 29.1854C118.331 29.1854 118.109 29.0992 117.924 28.9268C117.741 28.7512 117.65 28.5424 117.65 28.3004C117.65 28.0552 117.741 27.8464 117.924 27.674C118.109 27.4983 118.331 27.4105 118.59 27.4105C118.848 27.4105 119.069 27.4983 119.251 27.674C119.437 27.8464 119.529 28.0552 119.529 28.3004C119.529 28.5424 119.437 28.7512 119.251 28.9268C119.069 29.0992 118.848 29.1854 118.59 29.1854ZM124.89 30.3636V31.5568H120.719V30.3636H124.89ZM121.838 28.5341H123.324V35.7578C123.324 36.0462 123.367 36.2633 123.453 36.4091C123.539 36.5516 123.651 36.6494 123.786 36.7024C123.926 36.7521 124.076 36.777 124.239 36.777C124.358 36.777 124.463 36.7687 124.552 36.7521C124.642 36.7356 124.711 36.7223 124.761 36.7124L125.029 37.9403C124.943 37.9735 124.82 38.0066 124.661 38.0398C124.502 38.0762 124.303 38.0961 124.065 38.0994C123.674 38.1061 123.309 38.0365 122.971 37.8906C122.633 37.7448 122.36 37.5194 122.151 37.2145C121.942 36.9096 121.838 36.5268 121.838 36.0661V28.5341ZM129.744 38.1541C128.991 38.1541 128.343 37.9934 127.8 37.6719C127.259 37.3471 126.842 36.8913 126.547 36.3047C126.255 35.7147 126.109 35.0237 126.109 34.2315C126.109 33.4493 126.255 32.7599 126.547 32.1634C126.842 31.5668 127.253 31.1011 127.78 30.7663C128.31 30.4316 128.93 30.2642 129.639 30.2642C130.07 30.2642 130.488 30.3355 130.892 30.478C131.296 30.6205 131.659 30.8442 131.981 31.1491C132.302 31.4541 132.556 31.8501 132.741 32.3374C132.927 32.8213 133.02 33.4096 133.02 34.1023V34.6293H126.95V33.5156H131.563C131.563 33.1245 131.484 32.7782 131.325 32.4766C131.165 32.1716 130.942 31.9313 130.653 31.7557C130.368 31.58 130.034 31.4922 129.649 31.4922C129.232 31.4922 128.867 31.5949 128.555 31.8004C128.247 32.0026 128.009 32.2678 127.839 32.5959C127.674 32.9207 127.591 33.2737 127.591 33.6548V34.5249C127.591 35.0353 127.68 35.4695 127.859 35.8274C128.042 36.1854 128.295 36.4588 128.62 36.6477C128.945 36.8333 129.324 36.9261 129.759 36.9261C130.04 36.9261 130.297 36.8864 130.529 36.8068C130.761 36.724 130.962 36.6013 131.131 36.4389C131.3 36.2765 131.429 36.076 131.518 35.8374L132.925 36.0909C132.813 36.5052 132.611 36.8681 132.319 37.1797C132.031 37.4879 131.668 37.7282 131.23 37.9006C130.796 38.0696 130.3 38.1541 129.744 38.1541Z" fill="#82807C"/>
<path d="M280.634 27.8182V38H279.401V29.1108H279.341L276.855 30.7614V29.5085L279.401 27.8182H280.634ZM284.755 33.4062V38H283.582V27.8182H284.755V31.5568H284.854C285.033 31.1624 285.302 30.8492 285.66 30.6172C286.021 30.3819 286.502 30.2642 287.102 30.2642C287.622 30.2642 288.078 30.3686 288.469 30.5774C288.86 30.7829 289.163 31.0994 289.379 31.527C289.597 31.9512 289.707 32.4915 289.707 33.1477V38H288.533V33.2273C288.533 32.6207 288.376 32.1518 288.061 31.8203C287.75 31.4856 287.317 31.3182 286.763 31.3182C286.379 31.3182 286.034 31.3994 285.729 31.5618C285.428 31.7242 285.189 31.9612 285.013 32.2727C284.841 32.5843 284.755 32.9621 284.755 33.4062Z" fill="#82807C"/>
<path d="M65.3068 49.8182V60H64.1136L58.5653 52.0057H58.4659V60H57.233V49.8182H58.4261L63.9943 57.8324H64.0937V49.8182H65.3068ZM72.4274 56.8778V52.3636H73.6007V60H72.4274V58.7074H72.3478C72.1689 59.0952 71.8904 59.425 71.5126 59.6967C71.1348 59.9652 70.6575 60.0994 70.0808 60.0994C69.6035 60.0994 69.1793 59.995 68.8081 59.7862C68.4368 59.5741 68.1452 59.2559 67.9331 58.8317C67.7209 58.4041 67.6149 57.8655 67.6149 57.2159V52.3636H68.7882V57.1364C68.7882 57.6932 68.944 58.1373 69.2555 58.4687C69.5704 58.8002 69.9714 58.9659 70.4586 58.9659C70.7503 58.9659 71.0469 58.8913 71.3485 58.7422C71.6535 58.593 71.9087 58.3643 72.1142 58.0561C72.323 57.7479 72.4274 57.3551 72.4274 56.8778ZM79.0707 52.3636V53.358H75.1133V52.3636H79.0707ZM76.2667 50.5341H77.44V57.8125C77.44 58.1439 77.488 58.3925 77.5842 58.5582C77.6836 58.7206 77.8095 58.83 77.962 58.8864C78.1178 58.9394 78.2818 58.9659 78.4542 58.9659C78.5835 58.9659 78.6895 58.9593 78.7724 58.946C78.8552 58.9294 78.9215 58.9162 78.9712 58.9062L79.2099 59.9602C79.1303 59.9901 79.0193 60.0199 78.8768 60.0497C78.7343 60.0829 78.5536 60.0994 78.3349 60.0994C78.0034 60.0994 77.6786 60.0282 77.3604 59.8857C77.0456 59.7431 76.7837 59.526 76.5749 59.2344C76.3694 58.9427 76.2667 58.5748 76.2667 58.1307V50.5341ZM80.8356 60V52.3636H81.9691V53.517H82.0486C82.1879 53.1392 82.4397 52.8326 82.8043 52.5973C83.1689 52.362 83.5799 52.2443 84.0373 52.2443C84.1235 52.2443 84.2312 52.246 84.3604 52.2493C84.4897 52.2526 84.5875 52.2576 84.6538 52.2642V53.4574C84.614 53.4474 84.5228 53.4325 84.3803 53.4126C84.2411 53.3894 84.0936 53.3778 83.9379 53.3778C83.5666 53.3778 83.2352 53.4557 82.9435 53.6115C82.6552 53.764 82.4265 53.9761 82.2575 54.2479C82.0917 54.5163 82.0089 54.8229 82.0089 55.1676V60H80.8356ZM86.0446 60V52.3636H87.2179V60H86.0446ZM86.6412 51.0909C86.4125 51.0909 86.2153 51.013 86.0495 50.8572C85.8871 50.7015 85.8059 50.5142 85.8059 50.2955C85.8059 50.0767 85.8871 49.8894 86.0495 49.7337C86.2153 49.5779 86.4125 49.5 86.6412 49.5C86.8698 49.5 87.0654 49.5779 87.2278 49.7337C87.3935 49.8894 87.4764 50.0767 87.4764 50.2955C87.4764 50.5142 87.3935 50.7015 87.2278 50.8572C87.0654 51.013 86.8698 51.0909 86.6412 51.0909ZM92.6879 52.3636V53.358H88.7305V52.3636H92.6879ZM89.8839 50.5341H91.0572V57.8125C91.0572 58.1439 91.1052 58.3925 91.2013 58.5582C91.3008 58.7206 91.4267 58.83 91.5792 58.8864C91.735 58.9394 91.899 58.9659 92.0714 58.9659C92.2006 58.9659 92.3067 58.9593 92.3896 58.946C92.4724 58.9294 92.5387 58.9162 92.5884 58.9062L92.8271 59.9602C92.7475 59.9901 92.6365 60.0199 92.494 60.0497C92.3514 60.0829 92.1708 60.0994 91.9521 60.0994C91.6206 60.0994 91.2958 60.0282 90.9776 59.8857C90.6628 59.7431 90.4009 59.526 90.1921 59.2344C89.9866 58.9427 89.8839 58.5748 89.8839 58.1307V50.5341ZM94.4528 60V52.3636H95.6261V60H94.4528ZM95.0494 51.0909C94.8207 51.0909 94.6235 51.013 94.4577 50.8572C94.2953 50.7015 94.2141 50.5142 94.2141 50.2955C94.2141 50.0767 94.2953 49.8894 94.4577 49.7337C94.6235 49.5779 94.8207 49.5 95.0494 49.5C95.2781 49.5 95.4736 49.5779 95.636 49.7337C95.8017 49.8894 95.8846 50.0767 95.8846 50.2955C95.8846 50.5142 95.8017 50.7015 95.636 50.8572C95.4736 51.013 95.2781 51.0909 95.0494 51.0909ZM100.877 60.1591C100.188 60.1591 99.583 59.995 99.0627 59.6669C98.5456 59.3388 98.1413 58.8797 97.8496 58.2898C97.5613 57.6998 97.4171 57.0104 97.4171 56.2216C97.4171 55.4261 97.5613 54.7318 97.8496 54.1385C98.1413 53.5452 98.5456 53.0845 99.0627 52.7564C99.583 52.4283 100.188 52.2642 100.877 52.2642C101.567 52.2642 102.17 52.4283 102.687 52.7564C103.207 53.0845 103.612 53.5452 103.9 54.1385C104.192 54.7318 104.338 55.4261 104.338 56.2216C104.338 57.0104 104.192 57.6998 103.9 58.2898C103.612 58.8797 103.207 59.3388 102.687 59.6669C102.17 59.995 101.567 60.1591 100.877 60.1591ZM100.877 59.1051C101.401 59.1051 101.832 58.9709 102.17 58.7024C102.508 58.4339 102.758 58.081 102.921 57.6435C103.083 57.206 103.164 56.732 103.164 56.2216C103.164 55.7112 103.083 55.2356 102.921 54.7947C102.758 54.3539 102.508 53.9976 102.17 53.7259C101.832 53.4541 101.401 53.3182 100.877 53.3182C100.354 53.3182 99.9228 53.4541 99.5847 53.7259C99.2466 53.9976 98.9964 54.3539 98.834 54.7947C98.6716 55.2356 98.5904 55.7112 98.5904 56.2216C98.5904 56.732 98.6716 57.206 98.834 57.6435C98.9964 58.081 99.2466 58.4339 99.5847 58.7024C99.9228 58.9709 100.354 59.1051 100.877 59.1051ZM107.302 55.4062V60H106.129V52.3636H107.262V53.5568H107.362C107.54 53.169 107.812 52.8575 108.177 52.6222C108.541 52.3835 109.012 52.2642 109.589 52.2642C110.106 52.2642 110.558 52.3703 110.946 52.5824C111.334 52.7912 111.635 53.1094 111.851 53.5369C112.066 53.9612 112.174 54.4981 112.174 55.1477V60H111.001V55.2273C111.001 54.6274 110.845 54.16 110.533 53.8253C110.222 53.4872 109.794 53.3182 109.251 53.3182C108.876 53.3182 108.541 53.3994 108.246 53.5618C107.955 53.7242 107.724 53.9612 107.555 54.2727C107.386 54.5843 107.302 54.9621 107.302 55.4062ZM121.358 60.1591C120.642 60.1591 120.025 59.9901 119.508 59.652C118.991 59.3139 118.594 58.8482 118.315 58.255C118.037 57.6617 117.898 56.9839 117.898 56.2216C117.898 55.446 118.04 54.7616 118.325 54.1683C118.613 53.5717 119.014 53.1061 119.528 52.7713C120.045 52.4332 120.648 52.2642 121.338 52.2642C121.875 52.2642 122.359 52.3636 122.79 52.5625C123.22 52.7614 123.573 53.0398 123.849 53.3977C124.124 53.7557 124.294 54.1733 124.361 54.6506H123.187C123.098 54.3026 122.899 53.9943 122.591 53.7259C122.286 53.4541 121.875 53.3182 121.358 53.3182C120.9 53.3182 120.499 53.4375 120.155 53.6761C119.813 53.9115 119.546 54.2446 119.354 54.6754C119.165 55.103 119.071 55.6051 119.071 56.1818C119.071 56.7718 119.164 57.2855 119.349 57.723C119.538 58.1605 119.803 58.5002 120.145 58.7422C120.489 58.9841 120.894 59.1051 121.358 59.1051C121.663 59.1051 121.939 59.0521 122.188 58.946C122.437 58.84 122.647 58.6875 122.819 58.4886C122.992 58.2898 123.114 58.0511 123.187 57.7727H124.361C124.294 58.2235 124.13 58.6295 123.868 58.9908C123.61 59.3487 123.267 59.6338 122.839 59.8459C122.415 60.0547 121.921 60.1591 121.358 60.1591ZM129.178 60.1591C128.489 60.1591 127.884 59.995 127.363 59.6669C126.846 59.3388 126.442 58.8797 126.15 58.2898C125.862 57.6998 125.718 57.0104 125.718 56.2216C125.718 55.4261 125.862 54.7318 126.15 54.1385C126.442 53.5452 126.846 53.0845 127.363 52.7564C127.884 52.4283 128.489 52.2642 129.178 52.2642C129.867 52.2642 130.471 52.4283 130.988 52.7564C131.508 53.0845 131.912 53.5452 132.201 54.1385C132.492 54.7318 132.638 55.4261 132.638 56.2216C132.638 57.0104 132.492 57.6998 132.201 58.2898C131.912 58.8797 131.508 59.3388 130.988 59.6669C130.471 59.995 129.867 60.1591 129.178 60.1591ZM129.178 59.1051C129.702 59.1051 130.133 58.9709 130.471 58.7024C130.809 58.4339 131.059 58.081 131.221 57.6435C131.384 57.206 131.465 56.732 131.465 56.2216C131.465 55.7112 131.384 55.2356 131.221 54.7947C131.059 54.3539 130.809 53.9976 130.471 53.7259C130.133 53.4541 129.702 53.3182 129.178 53.3182C128.654 53.3182 128.224 53.4541 127.885 53.7259C127.547 53.9976 127.297 54.3539 127.135 54.7947C126.972 55.2356 126.891 55.7112 126.891 56.2216C126.891 56.732 126.972 57.206 127.135 57.6435C127.297 58.081 127.547 58.4339 127.885 58.7024C128.224 58.9709 128.654 59.1051 129.178 59.1051ZM135.603 55.4062V60H134.429V52.3636H135.563V53.5568H135.662C135.841 53.169 136.113 52.8575 136.478 52.6222C136.842 52.3835 137.313 52.2642 137.89 52.2642C138.407 52.2642 138.859 52.3703 139.247 52.5824C139.635 52.7912 139.936 53.1094 140.152 53.5369C140.367 53.9612 140.475 54.4981 140.475 55.1477V60H139.301V55.2273C139.301 54.6274 139.146 54.16 138.834 53.8253C138.523 53.4872 138.095 53.3182 137.551 53.3182C137.177 53.3182 136.842 53.3994 136.547 53.5618C136.256 53.7242 136.025 53.9612 135.856 54.2727C135.687 54.5843 135.603 54.9621 135.603 55.4062ZM148.028 54.0739L146.974 54.3722C146.908 54.1965 146.81 54.0258 146.681 53.8601C146.555 53.6911 146.382 53.5518 146.164 53.4425C145.945 53.3331 145.665 53.2784 145.323 53.2784C144.856 53.2784 144.467 53.3861 144.155 53.6016C143.847 53.8137 143.693 54.0838 143.693 54.4119C143.693 54.7036 143.799 54.9339 144.011 55.103C144.223 55.272 144.554 55.4129 145.005 55.5256L146.139 55.804C146.821 55.9697 147.33 56.2232 147.665 56.5646C148 56.9027 148.167 57.3385 148.167 57.8722C148.167 58.3097 148.041 58.7008 147.789 59.0455C147.541 59.3902 147.193 59.6619 146.745 59.8608C146.298 60.0597 145.777 60.1591 145.184 60.1591C144.405 60.1591 143.761 59.9901 143.25 59.652C142.74 59.3139 142.417 58.8201 142.281 58.1705L143.394 57.892C143.5 58.303 143.701 58.6113 143.996 58.8168C144.294 59.0223 144.684 59.125 145.164 59.125C145.711 59.125 146.145 59.009 146.467 58.777C146.792 58.5417 146.954 58.2599 146.954 57.9318C146.954 57.6667 146.861 57.4446 146.676 57.2656C146.49 57.0833 146.205 56.9474 145.82 56.858L144.548 56.5597C143.848 56.3939 143.335 56.1371 143.007 55.7891C142.682 55.4377 142.519 54.9986 142.519 54.4716C142.519 54.0407 142.64 53.6596 142.882 53.3281C143.128 52.9967 143.461 52.7365 143.882 52.5476C144.306 52.3587 144.786 52.2642 145.323 52.2642C146.079 52.2642 146.672 52.4299 147.103 52.7614C147.537 53.0928 147.846 53.5303 148.028 54.0739ZM154.746 56.8778V52.3636H155.919V60H154.746V58.7074H154.666C154.487 59.0952 154.209 59.425 153.831 59.6967C153.453 59.9652 152.976 60.0994 152.399 60.0994C151.922 60.0994 151.498 59.995 151.126 59.7862C150.755 59.5741 150.464 59.2559 150.251 58.8317C150.039 58.4041 149.933 57.8655 149.933 57.2159V52.3636H151.107V57.1364C151.107 57.6932 151.262 58.1373 151.574 58.4687C151.889 58.8002 152.29 58.9659 152.777 58.9659C153.069 58.9659 153.365 58.8913 153.667 58.7422C153.972 58.593 154.227 58.3643 154.433 58.0561C154.641 57.7479 154.746 57.3551 154.746 56.8778ZM159.241 49.8182V60H158.068V49.8182H159.241ZM164.711 52.3636V53.358H160.754V52.3636H164.711ZM161.907 50.5341H163.081V57.8125C163.081 58.1439 163.129 58.3925 163.225 58.5582C163.324 58.7206 163.45 58.83 163.603 58.8864C163.758 58.9394 163.922 58.9659 164.095 58.9659C164.224 58.9659 164.33 58.9593 164.413 58.946C164.496 58.9294 164.562 58.9162 164.612 58.9062L164.85 59.9602C164.771 59.9901 164.66 60.0199 164.517 60.0497C164.375 60.0829 164.194 60.0994 163.975 60.0994C163.644 60.0994 163.319 60.0282 163.001 59.8857C162.686 59.7431 162.424 59.526 162.216 59.2344C162.01 58.9427 161.907 58.5748 161.907 58.1307V50.5341ZM168.723 60.179C168.239 60.179 167.8 60.0878 167.406 59.9055C167.011 59.7199 166.698 59.4531 166.466 59.1051C166.234 58.7538 166.118 58.3295 166.118 57.8324C166.118 57.3949 166.204 57.0402 166.377 56.7685C166.549 56.4934 166.779 56.2779 167.068 56.1222C167.356 55.9664 167.674 55.8504 168.022 55.7741C168.374 55.6946 168.727 55.6316 169.081 55.5852C169.545 55.5256 169.922 55.4808 170.21 55.451C170.502 55.4178 170.714 55.3632 170.846 55.2869C170.982 55.2107 171.05 55.0781 171.05 54.8892V54.8494C171.05 54.3589 170.916 53.9777 170.647 53.706C170.382 53.4342 169.98 53.2983 169.439 53.2983C168.879 53.2983 168.44 53.4209 168.122 53.6662C167.804 53.9115 167.58 54.1733 167.451 54.4517L166.337 54.054C166.536 53.59 166.801 53.2287 167.132 52.9702C167.467 52.7083 167.832 52.526 168.226 52.4233C168.624 52.3172 169.015 52.2642 169.399 52.2642C169.645 52.2642 169.926 52.294 170.245 52.3537C170.566 52.41 170.876 52.5277 171.174 52.7067C171.476 52.8857 171.726 53.1558 171.925 53.517C172.124 53.8783 172.223 54.3622 172.223 54.9687V60H171.05V58.9659H170.99C170.911 59.1316 170.778 59.3089 170.593 59.4979C170.407 59.6868 170.16 59.8475 169.852 59.9801C169.544 60.1127 169.167 60.179 168.723 60.179ZM168.902 59.125C169.366 59.125 169.757 59.0339 170.076 58.8516C170.397 58.6693 170.639 58.4339 170.801 58.1456C170.967 57.8572 171.05 57.554 171.05 57.2358V56.1619C171 56.2216 170.891 56.2763 170.722 56.326C170.556 56.3724 170.364 56.4138 170.145 56.4503C169.93 56.4834 169.719 56.5133 169.514 56.5398C169.312 56.563 169.148 56.5829 169.022 56.5994C168.717 56.6392 168.432 56.7038 168.167 56.7933C167.905 56.8795 167.693 57.0104 167.53 57.1861C167.371 57.3584 167.292 57.5937 167.292 57.892C167.292 58.2997 167.442 58.608 167.744 58.8168C168.049 59.0223 168.435 59.125 168.902 59.125ZM177.686 52.3636V53.358H173.729V52.3636H177.686ZM174.882 50.5341H176.055V57.8125C176.055 58.1439 176.103 58.3925 176.199 58.5582C176.299 58.7206 176.425 58.83 176.577 58.8864C176.733 58.9394 176.897 58.9659 177.069 58.9659C177.199 58.9659 177.305 58.9593 177.388 58.946C177.47 58.9294 177.537 58.9162 177.586 58.9062L177.825 59.9602C177.746 59.9901 177.635 60.0199 177.492 60.0497C177.349 60.0829 177.169 60.0994 176.95 60.0994C176.619 60.0994 176.294 60.0282 175.976 59.8857C175.661 59.7431 175.399 59.526 175.19 59.2344C174.985 58.9427 174.882 58.5748 174.882 58.1307V50.5341ZM179.451 60V52.3636H180.624V60H179.451ZM180.047 51.0909C179.819 51.0909 179.622 51.013 179.456 50.8572C179.293 50.7015 179.212 50.5142 179.212 50.2955C179.212 50.0767 179.293 49.8894 179.456 49.7337C179.622 49.5779 179.819 49.5 180.047 49.5C180.276 49.5 180.472 49.5779 180.634 49.7337C180.8 49.8894 180.883 50.0767 180.883 50.2955C180.883 50.5142 180.8 50.7015 180.634 50.8572C180.472 51.013 180.276 51.0909 180.047 51.0909ZM185.875 60.1591C185.186 60.1591 184.581 59.995 184.061 59.6669C183.544 59.3388 183.139 58.8797 182.848 58.2898C182.559 57.6998 182.415 57.0104 182.415 56.2216C182.415 55.4261 182.559 54.7318 182.848 54.1385C183.139 53.5452 183.544 53.0845 184.061 52.7564C184.581 52.4283 185.186 52.2642 185.875 52.2642C186.565 52.2642 187.168 52.4283 187.685 52.7564C188.205 53.0845 188.61 53.5452 188.898 54.1385C189.19 54.7318 189.336 55.4261 189.336 56.2216C189.336 57.0104 189.19 57.6998 188.898 58.2898C188.61 58.8797 188.205 59.3388 187.685 59.6669C187.168 59.995 186.565 60.1591 185.875 60.1591ZM185.875 59.1051C186.399 59.1051 186.83 58.9709 187.168 58.7024C187.506 58.4339 187.756 58.081 187.919 57.6435C188.081 57.206 188.162 56.732 188.162 56.2216C188.162 55.7112 188.081 55.2356 187.919 54.7947C187.756 54.3539 187.506 53.9976 187.168 53.7259C186.83 53.4541 186.399 53.3182 185.875 53.3182C185.352 53.3182 184.921 53.4541 184.583 53.7259C184.245 53.9976 183.994 54.3539 183.832 54.7947C183.67 55.2356 183.588 55.7112 183.588 56.2216C183.588 56.732 183.67 57.206 183.832 57.6435C183.994 58.081 184.245 58.4339 184.583 58.7024C184.921 58.9709 185.352 59.1051 185.875 59.1051ZM192.3 55.4062V60H191.127V52.3636H192.26V53.5568H192.36C192.539 53.169 192.81 52.8575 193.175 52.6222C193.539 52.3835 194.01 52.2642 194.587 52.2642C195.104 52.2642 195.556 52.3703 195.944 52.5824C196.332 52.7912 196.633 53.1094 196.849 53.5369C197.064 53.9612 197.172 54.4981 197.172 55.1477V60H195.999V55.2273C195.999 54.6274 195.843 54.16 195.531 53.8253C195.22 53.4872 194.792 53.3182 194.249 53.3182C193.874 53.3182 193.539 53.3994 193.244 53.5618C192.953 53.7242 192.722 53.9612 192.553 54.2727C192.384 54.5843 192.3 54.9621 192.3 55.4062Z" fill="#82807C"/>
</g>
<path d="M20 110C20 103.373 25.3726 98 32 98V98C38.6274 98 44 103.373 44 110V110C44 116.627 38.6274 122 32 122V122C25.3726 122 20 116.627 20 110V110Z" fill="#53B9AB"/>
<path d="M27.0054 104.818H28.477L31.9372 113.27H32.0566L35.5168 104.818H36.9884V115H35.835V107.264H35.7355L32.5537 115H31.4401L28.2583 107.264H28.1588V115H27.0054V104.818Z" fill="#FDFDFC"/>
<g clip-path="url(#clip1_479_10171)">
<path d="M57.1186 101.818H58.983L62.2244 109.733H62.3437L65.5852 101.818H67.4496V112H65.9879V104.632H65.8935L62.8906 111.985H61.6776L58.6747 104.627H58.5803V112H57.1186V101.818ZM69.5637 112V104.364H71.0502V112H69.5637ZM70.3145 103.185C70.0559 103.185 69.8339 103.099 69.6483 102.927C69.466 102.751 69.3748 102.542 69.3748 102.3C69.3748 102.055 69.466 101.846 69.6483 101.674C69.8339 101.498 70.0559 101.411 70.3145 101.411C70.573 101.411 70.7934 101.498 70.9757 101.674C71.1613 101.846 71.2541 102.055 71.2541 102.3C71.2541 102.542 71.1613 102.751 70.9757 102.927C70.7934 103.099 70.573 103.185 70.3145 103.185ZM76.2667 112.154C75.5276 112.154 74.8912 111.987 74.3576 111.652C73.8273 111.314 73.4196 110.848 73.1346 110.255C72.8495 109.662 72.707 108.982 72.707 108.217C72.707 107.441 72.8529 106.757 73.1445 106.163C73.4362 105.567 73.8472 105.101 74.3775 104.766C74.9078 104.432 75.5326 104.264 76.2518 104.264C76.8318 104.264 77.3488 104.372 77.8029 104.587C78.257 104.799 78.6232 105.098 78.9016 105.482C79.1834 105.867 79.3507 106.316 79.4038 106.83H77.957C77.8775 106.472 77.6952 106.163 77.4102 105.905C77.1284 105.646 76.7506 105.517 76.2766 105.517C75.8623 105.517 75.4994 105.626 75.1879 105.845C74.8796 106.061 74.6393 106.369 74.467 106.77C74.2946 107.168 74.2085 107.638 74.2085 108.182C74.2085 108.739 74.293 109.219 74.462 109.624C74.631 110.028 74.8697 110.341 75.1779 110.563C75.4895 110.785 75.8557 110.896 76.2766 110.896C76.5584 110.896 76.8136 110.845 77.0423 110.742C77.2743 110.636 77.4682 110.485 77.6239 110.29C77.783 110.094 77.8941 109.859 77.957 109.584H79.4038C79.3507 110.078 79.19 110.518 78.9215 110.906C78.6531 111.294 78.2934 111.599 77.8427 111.821C77.3952 112.043 76.8699 112.154 76.2667 112.154ZM82.4799 107.466V112H80.9934V101.818H82.46V105.607H82.5545C82.7335 105.196 83.0069 104.869 83.3748 104.627C83.7427 104.385 84.2233 104.264 84.8166 104.264C85.3403 104.264 85.7976 104.372 86.1887 104.587C86.5832 104.803 86.8881 105.124 87.1035 105.552C87.3223 105.976 87.4316 106.506 87.4316 107.143V112H85.9451V107.322C85.9451 106.762 85.801 106.327 85.5126 106.019C85.2243 105.708 84.8232 105.552 84.3095 105.552C83.9582 105.552 83.6433 105.626 83.3649 105.776C83.0898 105.925 82.8727 106.143 82.7136 106.432C82.5578 106.717 82.4799 107.062 82.4799 107.466ZM91.6376 112.169C91.1537 112.169 90.7162 112.08 90.3251 111.901C89.934 111.718 89.6241 111.455 89.3954 111.11C89.17 110.765 89.0573 110.343 89.0573 109.842C89.0573 109.411 89.1402 109.057 89.3059 108.778C89.4716 108.5 89.6954 108.28 89.9771 108.117C90.2588 107.955 90.5737 107.832 90.9217 107.749C91.2697 107.666 91.6243 107.603 91.9856 107.56C92.443 107.507 92.8142 107.464 93.0993 107.431C93.3843 107.395 93.5914 107.337 93.7207 107.257C93.85 107.178 93.9146 107.048 93.9146 106.869V106.835C93.9146 106.4 93.792 106.064 93.5467 105.825C93.3047 105.587 92.9435 105.467 92.4629 105.467C91.9624 105.467 91.568 105.578 91.2797 105.8C90.9946 106.019 90.7974 106.263 90.688 106.531L89.291 106.213C89.4567 105.749 89.6987 105.375 90.0169 105.089C90.3384 104.801 90.7079 104.592 91.1255 104.463C91.5431 104.33 91.9823 104.264 92.443 104.264C92.7479 104.264 93.0711 104.301 93.4125 104.374C93.7572 104.443 94.0787 104.572 94.377 104.761C94.6786 104.95 94.9255 105.22 95.1177 105.572C95.31 105.92 95.4061 106.372 95.4061 106.929V112H93.9544V110.956H93.8947C93.7986 111.148 93.6544 111.337 93.4622 111.523C93.2699 111.708 93.023 111.862 92.7214 111.985C92.4198 112.108 92.0585 112.169 91.6376 112.169ZM91.9608 110.976C92.3717 110.976 92.7231 110.895 93.0147 110.732C93.3097 110.57 93.5334 110.358 93.6859 110.096C93.8417 109.831 93.9196 109.547 93.9196 109.246V108.261C93.8665 108.314 93.7638 108.364 93.6113 108.411C93.4622 108.454 93.2915 108.492 93.0993 108.525C92.907 108.555 92.7198 108.583 92.5375 108.609C92.3552 108.633 92.2027 108.652 92.0801 108.669C91.7917 108.705 91.5282 108.767 91.2896 108.853C91.0543 108.939 90.8654 109.063 90.7228 109.226C90.5836 109.385 90.514 109.597 90.514 109.862C90.514 110.23 90.6499 110.509 90.9217 110.697C91.1935 110.883 91.5398 110.976 91.9608 110.976ZM100.677 112.154C99.9248 112.154 99.2769 111.993 98.7333 111.672C98.1931 111.347 97.7754 110.891 97.4805 110.305C97.1888 109.715 97.043 109.024 97.043 108.232C97.043 107.449 97.1888 106.76 97.4805 106.163C97.7754 105.567 98.1864 105.101 98.7134 104.766C99.2437 104.432 99.8635 104.264 100.573 104.264C101.004 104.264 101.421 104.335 101.826 104.478C102.23 104.621 102.593 104.844 102.914 105.149C103.236 105.454 103.489 105.85 103.675 106.337C103.861 106.821 103.953 107.41 103.953 108.102V108.629H97.8832V107.516H102.497C102.497 107.125 102.417 106.778 102.258 106.477C102.099 106.172 101.875 105.931 101.587 105.756C101.302 105.58 100.967 105.492 100.583 105.492C100.165 105.492 99.8005 105.595 99.489 105.8C99.1808 106.003 98.9421 106.268 98.7731 106.596C98.6074 106.921 98.5245 107.274 98.5245 107.655V108.525C98.5245 109.035 98.614 109.469 98.793 109.827C98.9753 110.185 99.2288 110.459 99.5536 110.648C99.8784 110.833 100.258 110.926 100.692 110.926C100.974 110.926 101.231 110.886 101.463 110.807C101.695 110.724 101.895 110.601 102.064 110.439C102.233 110.277 102.363 110.076 102.452 109.837L103.859 110.091C103.746 110.505 103.544 110.868 103.252 111.18C102.964 111.488 102.601 111.728 102.164 111.901C101.73 112.07 101.234 112.154 100.677 112.154ZM107.089 101.818V112H105.603V101.818H107.089ZM118.467 104.493C118.414 104.022 118.195 103.658 117.811 103.399C117.426 103.137 116.942 103.006 116.359 103.006C115.941 103.006 115.58 103.073 115.275 103.205C114.97 103.335 114.733 103.513 114.564 103.742C114.398 103.968 114.316 104.224 114.316 104.513C114.316 104.755 114.372 104.964 114.485 105.139C114.601 105.315 114.751 105.462 114.937 105.582C115.126 105.698 115.328 105.795 115.543 105.875C115.759 105.951 115.966 106.014 116.165 106.064L117.159 106.322C117.484 106.402 117.817 106.51 118.159 106.646C118.5 106.781 118.816 106.96 119.108 107.183C119.4 107.405 119.635 107.68 119.814 108.008C119.996 108.336 120.088 108.729 120.088 109.186C120.088 109.763 119.938 110.275 119.64 110.722C119.345 111.17 118.916 111.523 118.352 111.781C117.792 112.04 117.115 112.169 116.319 112.169C115.557 112.169 114.897 112.048 114.34 111.806C113.784 111.564 113.348 111.221 113.033 110.777C112.718 110.33 112.544 109.799 112.511 109.186H114.052C114.082 109.554 114.201 109.861 114.41 110.106C114.622 110.348 114.892 110.528 115.22 110.648C115.552 110.764 115.915 110.822 116.309 110.822C116.743 110.822 117.129 110.754 117.468 110.618C117.809 110.479 118.077 110.286 118.273 110.041C118.468 109.793 118.566 109.503 118.566 109.171C118.566 108.87 118.48 108.623 118.308 108.43C118.139 108.238 117.908 108.079 117.617 107.953C117.328 107.827 117.002 107.716 116.637 107.62L115.434 107.292C114.619 107.07 113.972 106.743 113.495 106.312C113.021 105.882 112.784 105.312 112.784 104.602C112.784 104.016 112.943 103.504 113.262 103.066C113.58 102.629 114.011 102.289 114.554 102.047C115.098 101.802 115.711 101.679 116.394 101.679C117.083 101.679 117.691 101.8 118.218 102.042C118.749 102.284 119.166 102.617 119.471 103.041C119.776 103.462 119.935 103.946 119.948 104.493H118.467ZM121.804 112V104.364H123.231V105.607H123.325C123.484 105.186 123.745 104.857 124.106 104.622C124.467 104.384 124.9 104.264 125.403 104.264C125.914 104.264 126.341 104.384 126.686 104.622C127.034 104.861 127.291 105.189 127.457 105.607H127.536C127.719 105.199 128.009 104.874 128.406 104.632C128.804 104.387 129.278 104.264 129.828 104.264C130.521 104.264 131.086 104.481 131.523 104.915C131.964 105.35 132.185 106.004 132.185 106.879V112H130.698V107.018C130.698 106.501 130.557 106.127 130.276 105.895C129.994 105.663 129.657 105.547 129.266 105.547C128.782 105.547 128.406 105.696 128.138 105.994C127.869 106.289 127.735 106.669 127.735 107.133V112H126.254V106.924C126.254 106.51 126.124 106.177 125.866 105.925C125.607 105.673 125.271 105.547 124.857 105.547C124.575 105.547 124.315 105.621 124.076 105.771C123.841 105.916 123.65 106.12 123.504 106.382C123.362 106.644 123.29 106.947 123.29 107.292V112H121.804ZM134.177 112V104.364H135.664V112H134.177ZM134.928 103.185C134.669 103.185 134.447 103.099 134.262 102.927C134.079 102.751 133.988 102.542 133.988 102.3C133.988 102.055 134.079 101.846 134.262 101.674C134.447 101.498 134.669 101.411 134.928 101.411C135.186 101.411 135.407 101.498 135.589 101.674C135.775 101.846 135.867 102.055 135.867 102.3C135.867 102.542 135.775 102.751 135.589 102.927C135.407 103.099 135.186 103.185 134.928 103.185ZM141.228 104.364V105.557H137.057V104.364H141.228ZM138.175 102.534H139.662V109.758C139.662 110.046 139.705 110.263 139.791 110.409C139.877 110.552 139.988 110.649 140.124 110.702C140.263 110.752 140.414 110.777 140.577 110.777C140.696 110.777 140.8 110.769 140.89 110.752C140.979 110.736 141.049 110.722 141.099 110.712L141.367 111.94C141.281 111.973 141.158 112.007 140.999 112.04C140.84 112.076 140.641 112.096 140.403 112.099C140.012 112.106 139.647 112.036 139.309 111.891C138.971 111.745 138.697 111.519 138.489 111.214C138.28 110.91 138.175 110.527 138.175 110.066V102.534ZM144.523 107.466V112H143.036V101.818H144.503V105.607H144.597C144.776 105.196 145.05 104.869 145.418 104.627C145.786 104.385 146.266 104.264 146.86 104.264C147.383 104.264 147.841 104.372 148.232 104.587C148.626 104.803 148.931 105.124 149.146 105.552C149.365 105.976 149.475 106.506 149.475 107.143V112H147.988V107.322C147.988 106.762 147.844 106.327 147.556 106.019C147.267 105.708 146.866 105.552 146.352 105.552C146.001 105.552 145.686 105.626 145.408 105.776C145.133 105.925 144.916 106.143 144.757 106.432C144.601 106.717 144.523 107.062 144.523 107.466Z" fill="#21201D"/>
<circle cx="164" cy="107" r="5" fill="#1576B6"/>
<path d="M251.054 112V111.105L254.415 107.426C254.809 106.995 255.134 106.621 255.389 106.303C255.644 105.981 255.833 105.679 255.956 105.398C256.082 105.113 256.145 104.814 256.145 104.503C256.145 104.145 256.059 103.835 255.886 103.573C255.717 103.311 255.485 103.109 255.19 102.967C254.895 102.824 254.564 102.753 254.196 102.753C253.805 102.753 253.464 102.834 253.172 102.996C252.884 103.156 252.66 103.379 252.501 103.668C252.345 103.956 252.267 104.294 252.267 104.682H251.094C251.094 104.085 251.231 103.562 251.506 103.111C251.781 102.66 252.156 102.309 252.63 102.057C253.107 101.805 253.643 101.679 254.236 101.679C254.832 101.679 255.361 101.805 255.822 102.057C256.282 102.309 256.644 102.648 256.906 103.076C257.167 103.504 257.298 103.979 257.298 104.503C257.298 104.877 257.23 105.244 257.094 105.602C256.962 105.956 256.73 106.352 256.398 106.79C256.07 107.224 255.615 107.754 255.031 108.381L252.744 110.827V110.906H257.477V112H251.054ZM259.531 112V111.105L262.891 107.426C263.286 106.995 263.611 106.621 263.866 106.303C264.121 105.981 264.31 105.679 264.433 105.398C264.558 105.113 264.621 104.814 264.621 104.503C264.621 104.145 264.535 103.835 264.363 103.573C264.194 103.311 263.962 103.109 263.667 102.967C263.372 102.824 263.04 102.753 262.673 102.753C262.281 102.753 261.94 102.834 261.648 102.996C261.36 103.156 261.136 103.379 260.977 103.668C260.821 103.956 260.744 104.294 260.744 104.682H259.57C259.57 104.085 259.708 103.562 259.983 103.111C260.258 102.66 260.633 102.309 261.107 102.057C261.584 101.805 262.119 101.679 262.712 101.679C263.309 101.679 263.838 101.805 264.298 102.057C264.759 102.309 265.12 102.648 265.382 103.076C265.644 103.504 265.775 103.979 265.775 104.503C265.775 104.877 265.707 105.244 265.571 105.602C265.438 105.956 265.206 106.352 264.875 106.79C264.547 107.224 264.091 107.754 263.508 108.381L261.221 110.827V110.906H265.954V112H259.531ZM268.027 112V104.364H269.161V105.557H269.26C269.419 105.149 269.676 104.833 270.031 104.607C270.385 104.379 270.811 104.264 271.308 104.264C271.812 104.264 272.231 104.379 272.566 104.607C272.904 104.833 273.168 105.149 273.357 105.557H273.436C273.632 105.162 273.925 104.849 274.316 104.617C274.707 104.382 275.176 104.264 275.723 104.264C276.406 104.264 276.964 104.478 277.398 104.906C277.833 105.33 278.05 105.991 278.05 106.889V112H276.876V106.889C276.876 106.326 276.722 105.923 276.414 105.681C276.106 105.439 275.743 105.318 275.325 105.318C274.788 105.318 274.372 105.481 274.077 105.805C273.782 106.127 273.635 106.535 273.635 107.028V112H272.442V106.77C272.442 106.336 272.301 105.986 272.019 105.721C271.737 105.452 271.375 105.318 270.93 105.318C270.625 105.318 270.34 105.399 270.075 105.562C269.813 105.724 269.601 105.95 269.439 106.238C269.28 106.523 269.2 106.853 269.2 107.227V112H268.027ZM280.195 112V104.364H281.368V112H280.195ZM280.792 103.091C280.563 103.091 280.366 103.013 280.2 102.857C280.038 102.701 279.956 102.514 279.956 102.295C279.956 102.077 280.038 101.889 280.2 101.734C280.366 101.578 280.563 101.5 280.792 101.5C281.02 101.5 281.216 101.578 281.378 101.734C281.544 101.889 281.627 102.077 281.627 102.295C281.627 102.514 281.544 102.701 281.378 102.857C281.216 103.013 281.02 103.091 280.792 103.091ZM284.691 107.406V112H283.517V104.364H284.651V105.557H284.75C284.929 105.169 285.201 104.857 285.566 104.622C285.93 104.384 286.401 104.264 286.977 104.264C287.494 104.264 287.947 104.37 288.335 104.582C288.722 104.791 289.024 105.109 289.24 105.537C289.455 105.961 289.563 106.498 289.563 107.148V112H288.389V107.227C288.389 106.627 288.234 106.16 287.922 105.825C287.61 105.487 287.183 105.318 286.639 105.318C286.265 105.318 285.93 105.399 285.635 105.562C285.343 105.724 285.113 105.961 284.944 106.273C284.775 106.584 284.691 106.962 284.691 107.406Z" fill="#82807C"/>
<path d="M65.3068 123.818V134H64.1136L58.5653 126.006H58.4659V134H57.233V123.818H58.4261L63.9943 131.832H64.0937V123.818H65.3068ZM70.8166 134.159C70.0808 134.159 69.4461 133.997 68.9125 133.672C68.3822 133.344 67.9728 132.886 67.6845 132.3C67.3994 131.71 67.2569 131.024 67.2569 130.241C67.2569 129.459 67.3994 128.77 67.6845 128.173C67.9728 127.573 68.3739 127.106 68.8876 126.771C69.4047 126.433 70.0079 126.264 70.6973 126.264C71.095 126.264 71.4877 126.33 71.8755 126.463C72.2633 126.596 72.6163 126.811 72.9345 127.109C73.2527 127.404 73.5062 127.795 73.6951 128.283C73.8841 128.77 73.9785 129.37 73.9785 130.082V130.58H68.0922V129.565H72.7853C72.7853 129.134 72.6992 128.75 72.5268 128.412C72.3578 128.074 72.1158 127.807 71.801 127.612C71.4894 127.416 71.1215 127.318 70.6973 127.318C70.2299 127.318 69.8256 127.434 69.4842 127.666C69.1461 127.895 68.8859 128.193 68.7037 128.561C68.5214 128.929 68.4302 129.323 68.4302 129.744V130.42C68.4302 130.997 68.5297 131.486 68.7285 131.887C68.9307 132.285 69.2108 132.588 69.5687 132.797C69.9267 133.002 70.3426 133.105 70.8166 133.105C71.1248 133.105 71.4032 133.062 71.6518 132.976C71.9037 132.886 72.1208 132.754 72.3031 132.578C72.4854 132.399 72.6262 132.177 72.7257 131.912L73.8592 132.23C73.7399 132.615 73.5394 132.953 73.2576 133.244C72.9759 133.533 72.6279 133.758 72.2136 133.92C71.7993 134.08 71.3336 134.159 70.8166 134.159ZM77.4934 134L75.1667 126.364H76.3997L78.0502 132.21H78.1298L79.7605 126.364H81.0133L82.6241 132.19H82.7037L84.3542 126.364H85.5872L83.2605 134H82.1071L80.4366 128.134H80.3173L78.6468 134H77.4934ZM91.0758 136.864V126.364H92.2093V127.577H92.3485C92.4347 127.444 92.554 127.275 92.7065 127.07C92.8623 126.861 93.0843 126.675 93.3727 126.513C93.6644 126.347 94.0588 126.264 94.5559 126.264C95.1989 126.264 95.7657 126.425 96.2562 126.746C96.7467 127.068 97.1296 127.524 97.4047 128.114C97.6797 128.704 97.8173 129.4 97.8173 130.202C97.8173 131.01 97.6797 131.711 97.4047 132.305C97.1296 132.895 96.7484 133.352 96.2612 133.677C95.774 133.998 95.2122 134.159 94.5758 134.159C94.0853 134.159 93.6925 134.078 93.3975 133.915C93.1026 133.75 92.8755 133.562 92.7164 133.354C92.5573 133.142 92.4347 132.966 92.3485 132.827H92.2491V136.864H91.0758ZM92.2292 130.182C92.2292 130.759 92.3137 131.267 92.4828 131.708C92.6518 132.146 92.8987 132.489 93.2235 132.737C93.5484 132.982 93.9461 133.105 94.4167 133.105C94.9073 133.105 95.3166 132.976 95.6447 132.717C95.9761 132.455 96.2247 132.104 96.3904 131.663C96.5595 131.219 96.644 130.725 96.644 130.182C96.644 129.645 96.5611 129.161 96.3954 128.73C96.233 128.296 95.9861 127.953 95.6546 127.701C95.3265 127.446 94.9139 127.318 94.4167 127.318C93.9395 127.318 93.5384 127.439 93.2136 127.681C92.8888 127.92 92.6435 128.254 92.4778 128.685C92.3121 129.113 92.2292 129.612 92.2292 130.182ZM101.854 134.179C101.37 134.179 100.931 134.088 100.537 133.906C100.142 133.72 99.8291 133.453 99.5971 133.105C99.3651 132.754 99.2491 132.33 99.2491 131.832C99.2491 131.395 99.3353 131.04 99.5076 130.768C99.68 130.493 99.9103 130.278 100.199 130.122C100.487 129.966 100.805 129.85 101.153 129.774C101.505 129.695 101.858 129.632 102.212 129.585C102.676 129.526 103.052 129.481 103.341 129.451C103.632 129.418 103.845 129.363 103.977 129.287C104.113 129.211 104.181 129.078 104.181 128.889V128.849C104.181 128.359 104.047 127.978 103.778 127.706C103.513 127.434 103.11 127.298 102.57 127.298C102.01 127.298 101.571 127.421 101.253 127.666C100.934 127.911 100.711 128.173 100.581 128.452L99.4679 128.054C99.6667 127.59 99.9319 127.229 100.263 126.97C100.598 126.708 100.963 126.526 101.357 126.423C101.755 126.317 102.146 126.264 102.53 126.264C102.776 126.264 103.057 126.294 103.376 126.354C103.697 126.41 104.007 126.528 104.305 126.707C104.607 126.886 104.857 127.156 105.056 127.517C105.255 127.878 105.354 128.362 105.354 128.969V134H104.181V132.966H104.121C104.042 133.132 103.909 133.309 103.724 133.498C103.538 133.687 103.291 133.848 102.983 133.98C102.675 134.113 102.298 134.179 101.854 134.179ZM102.033 133.125C102.497 133.125 102.888 133.034 103.206 132.852C103.528 132.669 103.77 132.434 103.932 132.146C104.098 131.857 104.181 131.554 104.181 131.236V130.162C104.131 130.222 104.022 130.276 103.853 130.326C103.687 130.372 103.495 130.414 103.276 130.45C103.061 130.483 102.85 130.513 102.645 130.54C102.443 130.563 102.278 130.583 102.153 130.599C101.848 130.639 101.563 130.704 101.297 130.793C101.036 130.879 100.823 131.01 100.661 131.186C100.502 131.358 100.422 131.594 100.422 131.892C100.422 132.3 100.573 132.608 100.875 132.817C101.18 133.022 101.566 133.125 102.033 133.125ZM110.817 126.364V127.358H106.859V126.364H110.817ZM108.013 124.534H109.186V131.812C109.186 132.144 109.234 132.393 109.33 132.558C109.43 132.721 109.556 132.83 109.708 132.886C109.864 132.939 110.028 132.966 110.2 132.966C110.33 132.966 110.436 132.959 110.518 132.946C110.601 132.929 110.668 132.916 110.717 132.906L110.956 133.96C110.876 133.99 110.765 134.02 110.623 134.05C110.48 134.083 110.3 134.099 110.081 134.099C109.75 134.099 109.425 134.028 109.107 133.886C108.792 133.743 108.53 133.526 108.321 133.234C108.116 132.943 108.013 132.575 108.013 132.131V124.534ZM112.582 134V126.364H113.755V134H112.582ZM113.178 125.091C112.95 125.091 112.752 125.013 112.587 124.857C112.424 124.701 112.343 124.514 112.343 124.295C112.343 124.077 112.424 123.889 112.587 123.734C112.752 123.578 112.95 123.5 113.178 123.5C113.407 123.5 113.603 123.578 113.765 123.734C113.931 123.889 114.013 124.077 114.013 124.295C114.013 124.514 113.931 124.701 113.765 124.857C113.603 125.013 113.407 125.091 113.178 125.091ZM119.106 134.159C118.37 134.159 117.735 133.997 117.202 133.672C116.671 133.344 116.262 132.886 115.974 132.3C115.689 131.71 115.546 131.024 115.546 130.241C115.546 129.459 115.689 128.77 115.974 128.173C116.262 127.573 116.663 127.106 117.177 126.771C117.694 126.433 118.297 126.264 118.986 126.264C119.384 126.264 119.777 126.33 120.165 126.463C120.552 126.596 120.905 126.811 121.224 127.109C121.542 127.404 121.795 127.795 121.984 128.283C122.173 128.77 122.268 129.37 122.268 130.082V130.58H116.381V129.565H121.074C121.074 129.134 120.988 128.75 120.816 128.412C120.647 128.074 120.405 127.807 120.09 127.612C119.778 127.416 119.411 127.318 118.986 127.318C118.519 127.318 118.115 127.434 117.773 127.666C117.435 127.895 117.175 128.193 116.993 128.561C116.81 128.929 116.719 129.323 116.719 129.744V130.42C116.719 130.997 116.819 131.486 117.018 131.887C117.22 132.285 117.5 132.588 117.858 132.797C118.216 133.002 118.632 133.105 119.106 133.105C119.414 133.105 119.692 133.062 119.941 132.976C120.193 132.886 120.41 132.754 120.592 132.578C120.774 132.399 120.915 132.177 121.015 131.912L122.148 132.23C122.029 132.615 121.828 132.953 121.547 133.244C121.265 133.533 120.917 133.758 120.503 133.92C120.088 134.08 119.623 134.159 119.106 134.159ZM125.226 129.406V134H124.052V126.364H125.186V127.557H125.285C125.464 127.169 125.736 126.857 126.101 126.622C126.465 126.384 126.936 126.264 127.513 126.264C128.03 126.264 128.482 126.37 128.87 126.582C129.258 126.791 129.559 127.109 129.775 127.537C129.99 127.961 130.098 128.498 130.098 129.148V134H128.925V129.227C128.925 128.627 128.769 128.16 128.457 127.825C128.146 127.487 127.718 127.318 127.175 127.318C126.8 127.318 126.465 127.399 126.17 127.562C125.879 127.724 125.648 127.961 125.479 128.273C125.31 128.584 125.226 128.962 125.226 129.406ZM135.563 126.364V127.358H131.605V126.364H135.563ZM132.759 124.534H133.932V131.812C133.932 132.144 133.98 132.393 134.076 132.558C134.176 132.721 134.302 132.83 134.454 132.886C134.61 132.939 134.774 132.966 134.946 132.966C135.076 132.966 135.182 132.959 135.265 132.946C135.347 132.929 135.414 132.916 135.463 132.906L135.702 133.96C135.623 133.99 135.511 134.02 135.369 134.05C135.226 134.083 135.046 134.099 134.827 134.099C134.496 134.099 134.171 134.028 133.853 133.886C133.538 133.743 133.276 133.526 133.067 133.234C132.862 132.943 132.759 132.575 132.759 132.131V124.534ZM143.512 134.179C143.029 134.179 142.589 134.088 142.195 133.906C141.801 133.72 141.487 133.453 141.255 133.105C141.023 132.754 140.907 132.33 140.907 131.832C140.907 131.395 140.993 131.04 141.166 130.768C141.338 130.493 141.569 130.278 141.857 130.122C142.145 129.966 142.463 129.85 142.811 129.774C143.163 129.695 143.516 129.632 143.87 129.585C144.334 129.526 144.711 129.481 144.999 129.451C145.291 129.418 145.503 129.363 145.635 129.287C145.771 129.211 145.839 129.078 145.839 128.889V128.849C145.839 128.359 145.705 127.978 145.436 127.706C145.171 127.434 144.769 127.298 144.228 127.298C143.668 127.298 143.229 127.421 142.911 127.666C142.593 127.911 142.369 128.173 142.24 128.452L141.126 128.054C141.325 127.59 141.59 127.229 141.922 126.97C142.256 126.708 142.621 126.526 143.015 126.423C143.413 126.317 143.804 126.264 144.189 126.264C144.434 126.264 144.716 126.294 145.034 126.354C145.355 126.41 145.665 126.528 145.963 126.707C146.265 126.886 146.515 127.156 146.714 127.517C146.913 127.878 147.012 128.362 147.012 128.969V134H145.839V132.966H145.779C145.7 133.132 145.567 133.309 145.382 133.498C145.196 133.687 144.949 133.848 144.641 133.98C144.333 134.113 143.957 134.179 143.512 134.179ZM143.691 133.125C144.155 133.125 144.547 133.034 144.865 132.852C145.186 132.669 145.428 132.434 145.591 132.146C145.756 131.857 145.839 131.554 145.839 131.236V130.162C145.789 130.222 145.68 130.276 145.511 130.326C145.345 130.372 145.153 130.414 144.934 130.45C144.719 130.483 144.508 130.513 144.303 130.54C144.101 130.563 143.937 130.583 143.811 130.599C143.506 130.639 143.221 130.704 142.956 130.793C142.694 130.879 142.482 131.01 142.319 131.186C142.16 131.358 142.081 131.594 142.081 131.892C142.081 132.3 142.231 132.608 142.533 132.817C142.838 133.022 143.224 133.125 143.691 133.125ZM149.154 136.864V126.364H150.287V127.577H150.427C150.513 127.444 150.632 127.275 150.785 127.07C150.94 126.861 151.162 126.675 151.451 126.513C151.742 126.347 152.137 126.264 152.634 126.264C153.277 126.264 153.844 126.425 154.334 126.746C154.825 127.068 155.208 127.524 155.483 128.114C155.758 128.704 155.895 129.4 155.895 130.202C155.895 131.01 155.758 131.711 155.483 132.305C155.208 132.895 154.827 133.352 154.339 133.677C153.852 133.998 153.29 134.159 152.654 134.159C152.163 134.159 151.771 134.078 151.476 133.915C151.181 133.75 150.954 133.562 150.795 133.354C150.635 133.142 150.513 132.966 150.427 132.827H150.327V136.864H149.154ZM150.307 130.182C150.307 130.759 150.392 131.267 150.561 131.708C150.73 132.146 150.977 132.489 151.302 132.737C151.626 132.982 152.024 133.105 152.495 133.105C152.985 133.105 153.395 132.976 153.723 132.717C154.054 132.455 154.303 132.104 154.469 131.663C154.638 131.219 154.722 130.725 154.722 130.182C154.722 129.645 154.639 129.161 154.474 128.73C154.311 128.296 154.064 127.953 153.733 127.701C153.405 127.446 152.992 127.318 152.495 127.318C152.018 127.318 151.617 127.439 151.292 127.681C150.967 127.92 150.722 128.254 150.556 128.685C150.39 129.113 150.307 129.612 150.307 130.182ZM157.685 136.864V126.364H158.819V127.577H158.958C159.044 127.444 159.163 127.275 159.316 127.07C159.472 126.861 159.694 126.675 159.982 126.513C160.274 126.347 160.668 126.264 161.165 126.264C161.808 126.264 162.375 126.425 162.866 126.746C163.356 127.068 163.739 127.524 164.014 128.114C164.289 128.704 164.427 129.4 164.427 130.202C164.427 131.01 164.289 131.711 164.014 132.305C163.739 132.895 163.358 133.352 162.871 133.677C162.383 133.998 161.822 134.159 161.185 134.159C160.695 134.159 160.302 134.078 160.007 133.915C159.712 133.75 159.485 133.562 159.326 133.354C159.167 133.142 159.044 132.966 158.958 132.827H158.858V136.864H157.685ZM158.839 130.182C158.839 130.759 158.923 131.267 159.092 131.708C159.261 132.146 159.508 132.489 159.833 132.737C160.158 132.982 160.555 133.105 161.026 133.105C161.517 133.105 161.926 132.976 162.254 132.717C162.586 132.455 162.834 132.104 163 131.663C163.169 131.219 163.253 130.725 163.253 130.182C163.253 129.645 163.171 129.161 163.005 128.73C162.842 128.296 162.595 127.953 162.264 127.701C161.936 127.446 161.523 127.318 161.026 127.318C160.549 127.318 160.148 127.439 159.823 127.681C159.498 127.92 159.253 128.254 159.087 128.685C158.921 129.113 158.839 129.612 158.839 130.182ZM169.319 134.159C168.629 134.159 168.024 133.995 167.504 133.667C166.987 133.339 166.583 132.88 166.291 132.29C166.003 131.7 165.858 131.01 165.858 130.222C165.858 129.426 166.003 128.732 166.291 128.138C166.583 127.545 166.987 127.085 167.504 126.756C168.024 126.428 168.629 126.264 169.319 126.264C170.008 126.264 170.611 126.428 171.128 126.756C171.649 127.085 172.053 127.545 172.341 128.138C172.633 128.732 172.779 129.426 172.779 130.222C172.779 131.01 172.633 131.7 172.341 132.29C172.053 132.88 171.649 133.339 171.128 133.667C170.611 133.995 170.008 134.159 169.319 134.159ZM169.319 133.105C169.842 133.105 170.273 132.971 170.611 132.702C170.949 132.434 171.2 132.081 171.362 131.643C171.524 131.206 171.606 130.732 171.606 130.222C171.606 129.711 171.524 129.236 171.362 128.795C171.2 128.354 170.949 127.998 170.611 127.726C170.273 127.454 169.842 127.318 169.319 127.318C168.795 127.318 168.364 127.454 168.026 127.726C167.688 127.998 167.438 128.354 167.275 128.795C167.113 129.236 167.032 129.711 167.032 130.222C167.032 130.732 167.113 131.206 167.275 131.643C167.438 132.081 167.688 132.434 168.026 132.702C168.364 132.971 168.795 133.105 169.319 133.105ZM174.57 134V126.364H175.743V134H174.57ZM175.167 125.091C174.938 125.091 174.741 125.013 174.575 124.857C174.413 124.701 174.331 124.514 174.331 124.295C174.331 124.077 174.413 123.889 174.575 123.734C174.741 123.578 174.938 123.5 175.167 123.5C175.395 123.5 175.591 123.578 175.753 123.734C175.919 123.889 176.002 124.077 176.002 124.295C176.002 124.514 175.919 124.701 175.753 124.857C175.591 125.013 175.395 125.091 175.167 125.091ZM179.066 129.406V134H177.892V126.364H179.026V127.557H179.125C179.304 127.169 179.576 126.857 179.941 126.622C180.305 126.384 180.776 126.264 181.352 126.264C181.869 126.264 182.322 126.37 182.71 126.582C183.097 126.791 183.399 127.109 183.615 127.537C183.83 127.961 183.938 128.498 183.938 129.148V134H182.764V129.227C182.764 128.627 182.609 128.16 182.297 127.825C181.985 127.487 181.558 127.318 181.014 127.318C180.64 127.318 180.305 127.399 180.01 127.562C179.718 127.724 179.488 127.961 179.319 128.273C179.15 128.584 179.066 128.962 179.066 129.406ZM189.403 126.364V127.358H185.445V126.364H189.403ZM186.599 124.534H187.772V131.812C187.772 132.144 187.82 132.393 187.916 132.558C188.016 132.721 188.142 132.83 188.294 132.886C188.45 132.939 188.614 132.966 188.786 132.966C188.915 132.966 189.022 132.959 189.104 132.946C189.187 132.929 189.254 132.916 189.303 132.906L189.542 133.96C189.462 133.99 189.351 134.02 189.209 134.05C189.066 134.083 188.886 134.099 188.667 134.099C188.335 134.099 188.011 134.028 187.692 133.886C187.378 133.743 187.116 133.526 186.907 133.234C186.701 132.943 186.599 132.575 186.599 132.131V124.534ZM191.168 134V126.364H192.301V127.557H192.401C192.56 127.149 192.817 126.833 193.171 126.607C193.526 126.379 193.952 126.264 194.449 126.264C194.953 126.264 195.372 126.379 195.707 126.607C196.045 126.833 196.308 127.149 196.497 127.557H196.577C196.772 127.162 197.066 126.849 197.457 126.617C197.848 126.382 198.317 126.264 198.864 126.264C199.546 126.264 200.105 126.478 200.539 126.906C200.973 127.33 201.19 127.991 201.19 128.889V134H200.017V128.889C200.017 128.326 199.863 127.923 199.555 127.681C199.246 127.439 198.884 127.318 198.466 127.318C197.929 127.318 197.513 127.481 197.218 127.805C196.923 128.127 196.776 128.535 196.776 129.028V134H195.582V128.77C195.582 128.336 195.442 127.986 195.16 127.721C194.878 127.452 194.515 127.318 194.071 127.318C193.766 127.318 193.481 127.399 193.216 127.562C192.954 127.724 192.742 127.95 192.58 128.238C192.42 128.523 192.341 128.853 192.341 129.227V134H191.168ZM206.537 134.159C205.801 134.159 205.167 133.997 204.633 133.672C204.103 133.344 203.694 132.886 203.405 132.3C203.12 131.71 202.978 131.024 202.978 130.241C202.978 129.459 203.12 128.77 203.405 128.173C203.694 127.573 204.095 127.106 204.608 126.771C205.125 126.433 205.729 126.264 206.418 126.264C206.816 126.264 207.208 126.33 207.596 126.463C207.984 126.596 208.337 126.811 208.655 127.109C208.973 127.404 209.227 127.795 209.416 128.283C209.605 128.77 209.699 129.37 209.699 130.082V130.58H203.813V129.565H208.506C208.506 129.134 208.42 128.75 208.248 128.412C208.078 128.074 207.837 127.807 207.522 127.612C207.21 127.416 206.842 127.318 206.418 127.318C205.951 127.318 205.546 127.434 205.205 127.666C204.867 127.895 204.607 128.193 204.424 128.561C204.242 128.929 204.151 129.323 204.151 129.744V130.42C204.151 130.997 204.25 131.486 204.449 131.887C204.651 132.285 204.931 132.588 205.289 132.797C205.647 133.002 206.063 133.105 206.537 133.105C206.846 133.105 207.124 133.062 207.373 132.976C207.624 132.886 207.841 132.754 208.024 132.578C208.206 132.399 208.347 132.177 208.446 131.912L209.58 132.23C209.461 132.615 209.26 132.953 208.978 133.244C208.697 133.533 208.349 133.758 207.934 133.92C207.52 134.08 207.054 134.159 206.537 134.159ZM212.657 129.406V134H211.484V126.364H212.618V127.557H212.717C212.896 127.169 213.168 126.857 213.532 126.622C213.897 126.384 214.368 126.264 214.944 126.264C215.461 126.264 215.914 126.37 216.301 126.582C216.689 126.791 216.991 127.109 217.206 127.537C217.422 127.961 217.529 128.498 217.529 129.148V134H216.356V129.227C216.356 128.627 216.2 128.16 215.889 127.825C215.577 127.487 215.15 127.318 214.606 127.318C214.232 127.318 213.897 127.399 213.602 127.562C213.31 127.724 213.08 127.961 212.911 128.273C212.742 128.584 212.657 128.962 212.657 129.406ZM222.994 126.364V127.358H219.037V126.364H222.994ZM220.191 124.534H221.364V131.812C221.364 132.144 221.412 132.393 221.508 132.558C221.607 132.721 221.733 132.83 221.886 132.886C222.042 132.939 222.206 132.966 222.378 132.966C222.507 132.966 222.613 132.959 222.696 132.946C222.779 132.929 222.845 132.916 222.895 132.906L223.134 133.96C223.054 133.99 222.943 134.02 222.801 134.05C222.658 134.083 222.477 134.099 222.259 134.099C221.927 134.099 221.602 134.028 221.284 133.886C220.969 133.743 220.708 133.526 220.499 133.234C220.293 132.943 220.191 132.575 220.191 132.131V124.534Z" fill="#21201D"/>
</g>
<path d="M20 184C20 177.373 25.3726 172 32 172V172C38.6274 172 44 177.373 44 184V184C44 190.627 38.6274 196 32 196V196C25.3726 196 20 190.627 20 184V184Z" fill="#E9E8E6"/>
<path d="M29.375 185.312L26.75 182.687L29.375 180.062" stroke="#21201D" stroke-width="1.34" stroke-linecap="round" stroke-linejoin="round"/>
<path d="M37.25 187.937C37.25 186.545 36.6969 185.21 35.7123 184.225C34.7277 183.241 33.3924 182.688 32 182.688H26.75" stroke="#21201D" stroke-width="1.34" stroke-linecap="round" stroke-linejoin="round"/>
<g clip-path="url(#clip2_479_10171)">
<path d="M57.1186 186V175.818H58.6548V184.678H63.2685V186H57.1186ZM64.9016 186V178.364H66.3881V186H64.9016ZM65.6523 177.185C65.3938 177.185 65.1718 177.099 64.9862 176.927C64.8039 176.751 64.7127 176.542 64.7127 176.3C64.7127 176.055 64.8039 175.846 64.9862 175.674C65.1718 175.498 65.3938 175.411 65.6523 175.411C65.9109 175.411 66.1313 175.498 66.3136 175.674C66.4992 175.846 66.592 176.055 66.592 176.3C66.592 176.542 66.4992 176.751 66.3136 176.927C66.1313 177.099 65.9109 177.185 65.6523 177.185ZM70.6103 186.169C70.1264 186.169 69.6889 186.08 69.2978 185.901C68.9067 185.718 68.5968 185.455 68.3681 185.11C68.1427 184.765 68.03 184.343 68.03 183.842C68.03 183.411 68.1129 183.057 68.2786 182.778C68.4443 182.5 68.668 182.28 68.9498 182.117C69.2315 181.955 69.5463 181.832 69.8944 181.749C70.2424 181.666 70.597 181.603 70.9583 181.56C71.4157 181.507 71.7869 181.464 72.0719 181.431C72.3569 181.395 72.5641 181.337 72.6934 181.257C72.8226 181.178 72.8873 181.048 72.8873 180.869V180.835C72.8873 180.4 72.7646 180.064 72.5194 179.825C72.2774 179.587 71.9161 179.467 71.4355 179.467C70.9351 179.467 70.5407 179.578 70.2523 179.8C69.9673 180.019 69.7701 180.263 69.6607 180.531L68.2637 180.213C68.4294 179.749 68.6713 179.375 68.9895 179.089C69.311 178.801 69.6806 178.592 70.0982 178.463C70.5158 178.33 70.955 178.264 71.4157 178.264C71.7206 178.264 72.0437 178.301 72.3851 178.374C72.7298 178.443 73.0513 178.572 73.3496 178.761C73.6512 178.95 73.8981 179.22 74.0904 179.572C74.2826 179.92 74.3787 180.372 74.3787 180.929V186H72.927V184.956H72.8674C72.7712 185.148 72.6271 185.337 72.4348 185.523C72.2426 185.708 71.9957 185.862 71.6941 185.985C71.3925 186.108 71.0312 186.169 70.6103 186.169ZM70.9334 184.976C71.3444 184.976 71.6957 184.895 71.9874 184.732C72.2824 184.57 72.5061 184.358 72.6586 184.096C72.8143 183.831 72.8922 183.547 72.8922 183.246V182.261C72.8392 182.314 72.7364 182.364 72.584 182.411C72.4348 182.454 72.2641 182.492 72.0719 182.525C71.8797 182.555 71.6924 182.583 71.5101 182.609C71.3278 182.633 71.1754 182.652 71.0527 182.669C70.7644 182.705 70.5009 182.767 70.2623 182.853C70.0269 182.939 69.838 183.063 69.6955 183.226C69.5563 183.385 69.4867 183.597 69.4867 183.862C69.4867 184.23 69.6226 184.509 69.8944 184.697C70.1661 184.883 70.5125 184.976 70.9334 184.976ZM76.3587 186V178.364H77.7855V179.607H77.88C78.0391 179.186 78.2992 178.857 78.6605 178.622C79.0218 178.384 79.4543 178.264 79.9581 178.264C80.4685 178.264 80.8961 178.384 81.2408 178.622C81.5888 178.861 81.8456 179.189 82.0114 179.607H82.0909C82.2732 179.199 82.5632 178.874 82.9609 178.632C83.3587 178.387 83.8326 178.264 84.3828 178.264C85.0755 178.264 85.6406 178.481 86.0781 178.915C86.5189 179.35 86.7393 180.004 86.7393 180.879V186H85.2528V181.018C85.2528 180.501 85.112 180.127 84.8303 179.895C84.5485 179.663 84.2121 179.547 83.821 179.547C83.3371 179.547 82.9609 179.696 82.6925 179.994C82.424 180.289 82.2898 180.669 82.2898 181.133V186H80.8082V180.924C80.8082 180.51 80.679 180.177 80.4205 179.925C80.1619 179.673 79.8255 179.547 79.4112 179.547C79.1295 179.547 78.8693 179.621 78.6307 179.771C78.3954 179.916 78.2048 180.12 78.0589 180.382C77.9164 180.644 77.8452 180.947 77.8452 181.292V186H76.3587ZM92.5561 186V175.818H96.1854C96.9742 175.818 97.6288 175.954 98.1491 176.226C98.6728 176.498 99.0639 176.874 99.3224 177.354C99.581 177.832 99.7102 178.384 99.7102 179.01C99.7102 179.633 99.5793 180.182 99.3175 180.656C99.0589 181.126 98.6678 181.492 98.1442 181.754C97.6238 182.016 96.9692 182.147 96.1804 182.147H93.4311V180.825H96.0412C96.5384 180.825 96.9427 180.753 97.2543 180.611C97.5691 180.468 97.7995 180.261 97.9453 179.989C98.0911 179.718 98.1641 179.391 98.1641 179.01C98.1641 178.625 98.0895 178.292 97.9403 178.011C97.7945 177.729 97.5642 177.513 97.2493 177.364C96.9377 177.212 96.5284 177.136 96.0213 177.136H94.0923V186H92.5561ZM97.5824 181.406L100.098 186H98.348L95.8821 181.406H97.5824ZM104.581 186.154C103.865 186.154 103.24 185.99 102.707 185.662C102.173 185.334 101.759 184.875 101.464 184.285C101.169 183.695 101.021 183.005 101.021 182.217C101.021 181.424 101.169 180.732 101.464 180.138C101.759 179.545 102.173 179.085 102.707 178.756C103.24 178.428 103.865 178.264 104.581 178.264C105.297 178.264 105.922 178.428 106.455 178.756C106.989 179.085 107.403 179.545 107.698 180.138C107.993 180.732 108.141 181.424 108.141 182.217C108.141 183.005 107.993 183.695 107.698 184.285C107.403 184.875 106.989 185.334 106.455 185.662C105.922 185.99 105.297 186.154 104.581 186.154ZM104.586 184.906C105.05 184.906 105.435 184.784 105.74 184.538C106.044 184.293 106.27 183.967 106.416 183.559C106.565 183.151 106.639 182.702 106.639 182.212C106.639 181.724 106.565 181.277 106.416 180.869C106.27 180.458 106.044 180.129 105.74 179.88C105.435 179.631 105.05 179.507 104.586 179.507C104.119 179.507 103.731 179.631 103.423 179.88C103.118 180.129 102.891 180.458 102.742 180.869C102.596 181.277 102.523 181.724 102.523 182.212C102.523 182.702 102.596 183.151 102.742 183.559C102.891 183.967 103.118 184.293 103.423 184.538C103.731 184.784 104.119 184.906 104.586 184.906ZM112.659 186.149C112.042 186.149 111.492 185.992 111.008 185.677C110.528 185.359 110.15 184.906 109.875 184.32C109.603 183.73 109.467 183.022 109.467 182.197C109.467 181.371 109.605 180.665 109.88 180.079C110.158 179.492 110.539 179.043 111.023 178.732C111.507 178.42 112.056 178.264 112.669 178.264C113.143 178.264 113.524 178.344 113.812 178.503C114.104 178.659 114.329 178.841 114.488 179.05C114.651 179.259 114.777 179.442 114.866 179.602H114.956V175.818H116.442V186H114.99V184.812H114.866C114.777 184.974 114.647 185.16 114.478 185.369C114.313 185.577 114.084 185.76 113.792 185.915C113.501 186.071 113.123 186.149 112.659 186.149ZM112.987 184.881C113.414 184.881 113.776 184.769 114.071 184.543C114.369 184.315 114.594 183.998 114.747 183.594C114.903 183.189 114.98 182.719 114.98 182.182C114.98 181.652 114.904 181.187 114.752 180.79C114.599 180.392 114.376 180.082 114.081 179.86C113.786 179.638 113.421 179.527 112.987 179.527C112.539 179.527 112.167 179.643 111.868 179.875C111.57 180.107 111.345 180.424 111.192 180.825C111.043 181.226 110.968 181.678 110.968 182.182C110.968 182.692 111.045 183.151 111.197 183.559C111.35 183.967 111.575 184.29 111.873 184.528C112.175 184.764 112.546 184.881 112.987 184.881ZM118.564 186V178.364H120.001V179.577H120.08C120.219 179.166 120.465 178.843 120.816 178.607C121.171 178.369 121.572 178.249 122.019 178.249C122.112 178.249 122.221 178.253 122.347 178.259C122.476 178.266 122.577 178.274 122.65 178.284V179.706C122.591 179.689 122.485 179.671 122.332 179.651C122.18 179.628 122.027 179.616 121.875 179.616C121.523 179.616 121.21 179.691 120.935 179.84C120.663 179.986 120.448 180.19 120.289 180.452C120.13 180.71 120.05 181.005 120.05 181.337V186H118.564ZM123.937 186V178.364H125.423V186H123.937ZM124.687 177.185C124.429 177.185 124.207 177.099 124.021 176.927C123.839 176.751 123.748 176.542 123.748 176.3C123.748 176.055 123.839 175.846 124.021 175.674C124.207 175.498 124.429 175.411 124.687 175.411C124.946 175.411 125.166 175.498 125.349 175.674C125.534 175.846 125.627 176.055 125.627 176.3C125.627 176.542 125.534 176.751 125.349 176.927C125.166 177.099 124.946 177.185 124.687 177.185ZM130.625 189.023C130.018 189.023 129.496 188.943 129.059 188.784C128.625 188.625 128.27 188.415 127.995 188.153C127.72 187.891 127.514 187.604 127.378 187.293L128.656 186.766C128.746 186.911 128.865 187.066 129.014 187.228C129.166 187.394 129.372 187.535 129.63 187.651C129.892 187.767 130.229 187.825 130.64 187.825C131.203 187.825 131.669 187.687 132.037 187.412C132.405 187.14 132.589 186.706 132.589 186.109V184.608H132.494C132.405 184.77 132.275 184.951 132.106 185.15C131.941 185.349 131.712 185.521 131.42 185.667C131.129 185.813 130.749 185.886 130.282 185.886C129.679 185.886 129.135 185.745 128.651 185.463C128.171 185.178 127.789 184.759 127.508 184.205C127.229 183.648 127.09 182.964 127.09 182.152C127.09 181.34 127.228 180.644 127.503 180.064C127.781 179.484 128.162 179.04 128.646 178.732C129.13 178.42 129.679 178.264 130.292 178.264C130.766 178.264 131.148 178.344 131.44 178.503C131.732 178.659 131.959 178.841 132.121 179.05C132.287 179.259 132.415 179.442 132.504 179.602H132.613V178.364H134.07V186.169C134.07 186.825 133.918 187.364 133.613 187.785C133.308 188.206 132.895 188.517 132.375 188.719C131.858 188.922 131.274 189.023 130.625 189.023ZM130.61 184.653C131.037 184.653 131.399 184.553 131.694 184.354C131.992 184.152 132.217 183.864 132.37 183.489C132.526 183.112 132.604 182.659 132.604 182.132C132.604 181.618 132.527 181.166 132.375 180.775C132.222 180.384 131.999 180.079 131.704 179.86C131.409 179.638 131.044 179.527 130.61 179.527C130.162 179.527 129.79 179.643 129.491 179.875C129.193 180.104 128.968 180.415 128.815 180.81C128.666 181.204 128.591 181.645 128.591 182.132C128.591 182.633 128.668 183.072 128.82 183.45C128.973 183.827 129.198 184.122 129.496 184.335C129.798 184.547 130.169 184.653 130.61 184.653ZM140.901 182.833V178.364H142.393V186H140.931V184.678H140.851C140.676 185.085 140.394 185.425 140.006 185.697C139.622 185.965 139.143 186.099 138.569 186.099C138.079 186.099 137.645 185.992 137.267 185.776C136.892 185.558 136.597 185.234 136.382 184.807C136.17 184.379 136.064 183.851 136.064 183.221V178.364H137.55V183.042C137.55 183.562 137.694 183.977 137.983 184.285C138.271 184.593 138.646 184.747 139.106 184.747C139.385 184.747 139.662 184.678 139.937 184.538C140.215 184.399 140.445 184.189 140.628 183.907C140.813 183.625 140.904 183.267 140.901 182.833ZM147.681 186.154C146.929 186.154 146.281 185.993 145.737 185.672C145.197 185.347 144.779 184.891 144.484 184.305C144.193 183.715 144.047 183.024 144.047 182.232C144.047 181.449 144.193 180.76 144.484 180.163C144.779 179.567 145.19 179.101 145.717 178.766C146.248 178.432 146.867 178.264 147.577 178.264C148.008 178.264 148.425 178.335 148.83 178.478C149.234 178.621 149.597 178.844 149.918 179.149C150.24 179.454 150.493 179.85 150.679 180.337C150.865 180.821 150.957 181.41 150.957 182.102V182.629H144.887V181.516H149.501C149.501 181.125 149.421 180.778 149.262 180.477C149.103 180.172 148.879 179.931 148.591 179.756C148.306 179.58 147.971 179.492 147.587 179.492C147.169 179.492 146.804 179.595 146.493 179.8C146.185 180.003 145.946 180.268 145.777 180.596C145.611 180.921 145.528 181.274 145.528 181.655V182.525C145.528 183.035 145.618 183.469 145.797 183.827C145.979 184.185 146.233 184.459 146.558 184.648C146.882 184.833 147.262 184.926 147.696 184.926C147.978 184.926 148.235 184.886 148.467 184.807C148.699 184.724 148.899 184.601 149.068 184.439C149.237 184.277 149.366 184.076 149.456 183.837L150.863 184.091C150.75 184.505 150.548 184.868 150.256 185.18C149.968 185.488 149.605 185.728 149.168 185.901C148.733 186.07 148.238 186.154 147.681 186.154ZM152.448 186V184.981L156.584 179.726V179.656H152.582V178.364H158.438V179.447L154.461 184.638V184.707H158.578V186H152.448Z" fill="#82807C"/>
<path d="M251.054 186V185.105L254.415 181.426C254.809 180.995 255.134 180.621 255.389 180.303C255.644 179.981 255.833 179.679 255.956 179.398C256.082 179.113 256.145 178.814 256.145 178.503C256.145 178.145 256.059 177.835 255.886 177.573C255.717 177.311 255.485 177.109 255.19 176.967C254.895 176.824 254.564 176.753 254.196 176.753C253.805 176.753 253.464 176.834 253.172 176.996C252.884 177.156 252.66 177.379 252.501 177.668C252.345 177.956 252.267 178.294 252.267 178.682H251.094C251.094 178.085 251.231 177.562 251.506 177.111C251.781 176.66 252.156 176.309 252.63 176.057C253.107 175.805 253.643 175.679 254.236 175.679C254.832 175.679 255.361 175.805 255.822 176.057C256.282 176.309 256.644 176.648 256.906 177.076C257.167 177.504 257.298 177.979 257.298 178.503C257.298 178.877 257.23 179.244 257.094 179.602C256.962 179.956 256.73 180.352 256.398 180.79C256.07 181.224 255.615 181.754 255.031 182.381L252.744 184.827V184.906H257.477V186H251.054ZM262.852 186.139C262.103 186.139 261.464 185.935 260.937 185.528C260.411 185.117 260.008 184.522 259.729 183.743C259.451 182.961 259.312 182.016 259.312 180.909C259.312 179.809 259.451 178.869 259.729 178.09C260.011 177.308 260.415 176.711 260.942 176.3C261.473 175.886 262.109 175.679 262.852 175.679C263.594 175.679 264.229 175.886 264.756 176.3C265.286 176.711 265.69 177.308 265.969 178.09C266.25 178.869 266.391 179.809 266.391 180.909C266.391 182.016 266.252 182.961 265.974 183.743C265.695 184.522 265.293 185.117 264.766 185.528C264.239 185.935 263.601 186.139 262.852 186.139ZM262.852 185.045C263.594 185.045 264.171 184.687 264.582 183.972C264.993 183.256 265.198 182.235 265.198 180.909C265.198 180.027 265.104 179.277 264.915 178.657C264.729 178.037 264.461 177.565 264.109 177.24C263.761 176.915 263.342 176.753 262.852 176.753C262.116 176.753 261.541 177.116 261.126 177.842C260.712 178.564 260.505 179.587 260.505 180.909C260.505 181.791 260.598 182.54 260.783 183.156C260.969 183.773 261.236 184.242 261.584 184.563C261.935 184.885 262.358 185.045 262.852 185.045ZM268.3 186V178.364H269.434V179.557H269.533C269.692 179.149 269.949 178.833 270.304 178.607C270.659 178.379 271.085 178.264 271.582 178.264C272.085 178.264 272.505 178.379 272.839 178.607C273.178 178.833 273.441 179.149 273.63 179.557H273.71C273.905 179.162 274.198 178.849 274.589 178.617C274.981 178.382 275.45 178.264 275.996 178.264C276.679 178.264 277.238 178.478 277.672 178.906C278.106 179.33 278.323 179.991 278.323 180.889V186H277.15V180.889C277.15 180.326 276.996 179.923 276.687 179.681C276.379 179.439 276.016 179.318 275.599 179.318C275.062 179.318 274.646 179.481 274.351 179.805C274.056 180.127 273.908 180.535 273.908 181.028V186H272.715V180.77C272.715 180.336 272.574 179.986 272.293 179.721C272.011 179.452 271.648 179.318 271.204 179.318C270.899 179.318 270.614 179.399 270.349 179.562C270.087 179.724 269.875 179.95 269.712 180.238C269.553 180.523 269.474 180.853 269.474 181.227V186H268.3ZM280.468 186V178.364H281.642V186H280.468ZM281.065 177.091C280.836 177.091 280.639 177.013 280.473 176.857C280.311 176.701 280.23 176.514 280.23 176.295C280.23 176.077 280.311 175.889 280.473 175.734C280.639 175.578 280.836 175.5 281.065 175.5C281.294 175.5 281.489 175.578 281.652 175.734C281.817 175.889 281.9 176.077 281.9 176.295C281.9 176.514 281.817 176.701 281.652 176.857C281.489 177.013 281.294 177.091 281.065 177.091ZM284.964 181.406V186H283.791V178.364H284.924V179.557H285.024C285.203 179.169 285.474 178.857 285.839 178.622C286.204 178.384 286.674 178.264 287.251 178.264C287.768 178.264 288.22 178.37 288.608 178.582C288.996 178.791 289.298 179.109 289.513 179.537C289.728 179.961 289.836 180.498 289.836 181.148V186H288.663V181.227C288.663 180.627 288.507 180.16 288.195 179.825C287.884 179.487 287.456 179.318 286.913 179.318C286.538 179.318 286.204 179.399 285.909 179.562C285.617 179.724 285.387 179.961 285.218 180.273C285.048 180.584 284.964 180.962 284.964 181.406Z" fill="#82807C"/>
<path d="M60.9318 204.818H62.2841L63.4176 206.31L63.7159 206.707L65.4062 208.955H64.054L62.9403 207.463L62.6619 207.085L60.9318 204.818ZM65.8239 202.909C65.8239 203.983 65.63 204.911 65.2422 205.693C64.8544 206.475 64.3224 207.079 63.6463 207.503C62.9702 207.927 62.1979 208.139 61.3295 208.139C60.4612 208.139 59.6889 207.927 59.0128 207.503C58.3366 207.079 57.8047 206.475 57.4169 205.693C57.0291 204.911 56.8352 203.983 56.8352 202.909C56.8352 201.835 57.0291 200.907 57.4169 200.125C57.8047 199.343 58.3366 198.74 59.0128 198.315C59.6889 197.891 60.4612 197.679 61.3295 197.679C62.1979 197.679 62.9702 197.891 63.6463 198.315C64.3224 198.74 64.8544 199.343 65.2422 200.125C65.63 200.907 65.8239 201.835 65.8239 202.909ZM64.6307 202.909C64.6307 202.027 64.4832 201.283 64.1882 200.677C63.8965 200.07 63.5005 199.611 63 199.3C62.5028 198.988 61.946 198.832 61.3295 198.832C60.7131 198.832 60.1546 198.988 59.6541 199.3C59.157 199.611 58.7609 200.07 58.4659 200.677C58.1742 201.283 58.0284 202.027 58.0284 202.909C58.0284 203.791 58.1742 204.535 58.4659 205.141C58.7609 205.748 59.157 206.207 59.6541 206.518C60.1546 206.83 60.7131 206.986 61.3295 206.986C61.946 206.986 62.5028 206.83 63 206.518C63.5005 206.207 63.8965 205.748 64.1882 205.141C64.4832 204.535 64.6307 203.791 64.6307 202.909ZM72.5504 204.878V200.364H73.7237V208H72.5504V206.707H72.4709C72.2919 207.095 72.0135 207.425 71.6357 207.697C71.2578 207.965 70.7805 208.099 70.2038 208.099C69.7266 208.099 69.3023 207.995 68.9311 207.786C68.5599 207.574 68.2682 207.256 68.0561 206.832C67.844 206.404 67.7379 205.866 67.7379 205.216V200.364H68.9112V205.136C68.9112 205.693 69.067 206.137 69.3786 206.469C69.6934 206.8 70.0945 206.966 70.5817 206.966C70.8733 206.966 71.17 206.891 71.4716 206.742C71.7765 206.593 72.0317 206.364 72.2372 206.056C72.446 205.748 72.5504 205.355 72.5504 204.878ZM75.8727 208V200.364H77.046V208H75.8727ZM76.4693 199.091C76.2406 199.091 76.0434 199.013 75.8777 198.857C75.7153 198.701 75.6341 198.514 75.6341 198.295C75.6341 198.077 75.7153 197.889 75.8777 197.734C76.0434 197.578 76.2406 197.5 76.4693 197.5C76.698 197.5 76.8935 197.578 77.0559 197.734C77.2216 197.889 77.3045 198.077 77.3045 198.295C77.3045 198.514 77.2216 198.701 77.0559 198.857C76.8935 199.013 76.698 199.091 76.4693 199.091ZM82.2972 208.159C81.5813 208.159 80.9648 207.99 80.4478 207.652C79.9308 207.314 79.533 206.848 79.2546 206.255C78.9762 205.662 78.837 204.984 78.837 204.222C78.837 203.446 78.9795 202.762 79.2646 202.168C79.5529 201.572 79.954 201.106 80.4677 200.771C80.9847 200.433 81.5879 200.264 82.2773 200.264C82.8143 200.264 83.2982 200.364 83.729 200.562C84.1599 200.761 84.5129 201.04 84.788 201.398C85.0631 201.756 85.2338 202.173 85.3001 202.651H84.1268C84.0373 202.303 83.8384 201.994 83.5302 201.726C83.2253 201.454 82.8143 201.318 82.2972 201.318C81.8398 201.318 81.4388 201.437 81.0941 201.676C80.7527 201.911 80.4859 202.245 80.2937 202.675C80.1048 203.103 80.0103 203.605 80.0103 204.182C80.0103 204.772 80.1031 205.286 80.2887 205.723C80.4776 206.161 80.7428 206.5 81.0842 206.742C81.4289 206.984 81.8332 207.105 82.2972 207.105C82.6022 207.105 82.8789 207.052 83.1275 206.946C83.3761 206.84 83.5865 206.687 83.7589 206.489C83.9312 206.29 84.0539 206.051 84.1268 205.773H85.3001C85.2338 206.223 85.0697 206.629 84.8079 206.991C84.5494 207.349 84.2063 207.634 83.7788 207.846C83.3545 208.055 82.8607 208.159 82.2972 208.159ZM88.109 205.216L88.0891 203.764H88.3278L91.6687 200.364H93.1204L89.5607 203.963H89.4613L88.109 205.216ZM87.0153 208V197.818H88.1886V208H87.0153ZM91.8675 208L88.8846 204.222L89.7198 203.406L93.359 208H91.8675ZM100.815 208.179C100.331 208.179 99.8921 208.088 99.4977 207.906C99.1033 207.72 98.7901 207.453 98.5581 207.105C98.3261 206.754 98.21 206.33 98.21 205.832C98.21 205.395 98.2962 205.04 98.4686 204.768C98.6409 204.493 98.8713 204.278 99.1596 204.122C99.448 203.966 99.7662 203.85 100.114 203.774C100.465 203.695 100.818 203.632 101.173 203.585C101.637 203.526 102.013 203.481 102.302 203.451C102.593 203.418 102.805 203.363 102.938 203.287C103.074 203.211 103.142 203.078 103.142 202.889V202.849C103.142 202.359 103.008 201.978 102.739 201.706C102.474 201.434 102.071 201.298 101.531 201.298C100.971 201.298 100.532 201.421 100.214 201.666C99.8954 201.911 99.6717 202.173 99.5424 202.452L98.4288 202.054C98.6277 201.59 98.8928 201.229 99.2243 200.97C99.559 200.708 99.9236 200.526 100.318 200.423C100.716 200.317 101.107 200.264 101.491 200.264C101.737 200.264 102.018 200.294 102.336 200.354C102.658 200.41 102.968 200.528 103.266 200.707C103.568 200.886 103.818 201.156 104.017 201.517C104.216 201.878 104.315 202.362 104.315 202.969V208H103.142V206.966H103.082C103.003 207.132 102.87 207.309 102.684 207.498C102.499 207.687 102.252 207.848 101.944 207.98C101.635 208.113 101.259 208.179 100.815 208.179ZM100.994 207.125C101.458 207.125 101.849 207.034 102.167 206.852C102.489 206.669 102.731 206.434 102.893 206.146C103.059 205.857 103.142 205.554 103.142 205.236V204.162C103.092 204.222 102.983 204.276 102.814 204.326C102.648 204.372 102.456 204.414 102.237 204.45C102.022 204.483 101.811 204.513 101.606 204.54C101.403 204.563 101.239 204.583 101.113 204.599C100.809 204.639 100.523 204.704 100.258 204.793C99.9965 204.879 99.7844 205.01 99.622 205.186C99.4629 205.358 99.3833 205.594 99.3833 205.892C99.3833 206.3 99.5341 206.608 99.8358 206.817C100.141 207.022 100.527 207.125 100.994 207.125ZM109.34 208.159C108.704 208.159 108.142 207.998 107.655 207.677C107.168 207.352 106.786 206.895 106.511 206.305C106.236 205.711 106.099 205.01 106.099 204.202C106.099 203.4 106.236 202.704 106.511 202.114C106.786 201.524 107.169 201.068 107.66 200.746C108.15 200.425 108.717 200.264 109.36 200.264C109.857 200.264 110.25 200.347 110.538 200.513C110.83 200.675 111.052 200.861 111.205 201.07C111.36 201.275 111.481 201.444 111.567 201.577H111.667V197.818H112.84V208H111.707V206.827H111.567C111.481 206.966 111.359 207.142 111.2 207.354C111.04 207.562 110.813 207.75 110.518 207.915C110.223 208.078 109.831 208.159 109.34 208.159ZM109.499 207.105C109.97 207.105 110.368 206.982 110.692 206.737C111.017 206.489 111.264 206.146 111.433 205.708C111.602 205.267 111.687 204.759 111.687 204.182C111.687 203.612 111.604 203.113 111.438 202.685C111.272 202.254 111.027 201.92 110.702 201.681C110.378 201.439 109.977 201.318 109.499 201.318C109.002 201.318 108.588 201.446 108.256 201.701C107.928 201.953 107.681 202.296 107.516 202.73C107.353 203.161 107.272 203.645 107.272 204.182C107.272 204.725 107.355 205.219 107.521 205.663C107.69 206.104 107.938 206.455 108.266 206.717C108.598 206.976 109.009 207.105 109.499 207.105ZM121.396 200.364L118.572 208H117.379L114.555 200.364H115.828L117.936 206.449H118.016L120.124 200.364H121.396ZM122.945 208V200.364H124.118V208H122.945ZM123.542 199.091C123.313 199.091 123.116 199.013 122.95 198.857C122.788 198.701 122.706 198.514 122.706 198.295C122.706 198.077 122.788 197.889 122.95 197.734C123.116 197.578 123.313 197.5 123.542 197.5C123.77 197.5 123.966 197.578 124.128 197.734C124.294 197.889 124.377 198.077 124.377 198.295C124.377 198.514 124.294 198.701 124.128 198.857C123.966 199.013 123.77 199.091 123.542 199.091ZM129.369 208.159C128.654 208.159 128.037 207.99 127.52 207.652C127.003 207.314 126.605 206.848 126.327 206.255C126.048 205.662 125.909 204.984 125.909 204.222C125.909 203.446 126.052 202.762 126.337 202.168C126.625 201.572 127.026 201.106 127.54 200.771C128.057 200.433 128.66 200.264 129.35 200.264C129.887 200.264 130.37 200.364 130.801 200.562C131.232 200.761 131.585 201.04 131.86 201.398C132.135 201.756 132.306 202.173 132.372 202.651H131.199C131.11 202.303 130.911 201.994 130.602 201.726C130.298 201.454 129.887 201.318 129.369 201.318C128.912 201.318 128.511 201.437 128.166 201.676C127.825 201.911 127.558 202.245 127.366 202.675C127.177 203.103 127.083 203.605 127.083 204.182C127.083 204.772 127.175 205.286 127.361 205.723C127.55 206.161 127.815 206.5 128.156 206.742C128.501 206.984 128.905 207.105 129.369 207.105C129.674 207.105 129.951 207.052 130.2 206.946C130.448 206.84 130.659 206.687 130.831 206.489C131.003 206.29 131.126 206.051 131.199 205.773H132.372C132.306 206.223 132.142 206.629 131.88 206.991C131.622 207.349 131.279 207.634 130.851 207.846C130.427 208.055 129.933 208.159 129.369 208.159ZM137.289 208.159C136.553 208.159 135.919 207.997 135.385 207.672C134.855 207.344 134.445 206.886 134.157 206.3C133.872 205.71 133.73 205.024 133.73 204.241C133.73 203.459 133.872 202.77 134.157 202.173C134.445 201.573 134.847 201.106 135.36 200.771C135.877 200.433 136.481 200.264 137.17 200.264C137.568 200.264 137.96 200.33 138.348 200.463C138.736 200.596 139.089 200.811 139.407 201.109C139.725 201.404 139.979 201.795 140.168 202.283C140.357 202.77 140.451 203.37 140.451 204.082V204.58H134.565V203.565H139.258C139.258 203.134 139.172 202.75 138.999 202.412C138.83 202.074 138.588 201.807 138.274 201.612C137.962 201.416 137.594 201.318 137.17 201.318C136.703 201.318 136.298 201.434 135.957 201.666C135.619 201.895 135.359 202.193 135.176 202.561C134.994 202.929 134.903 203.323 134.903 203.744V204.42C134.903 204.997 135.002 205.486 135.201 205.887C135.403 206.285 135.683 206.588 136.041 206.797C136.399 207.002 136.815 207.105 137.289 207.105C137.597 207.105 137.876 207.062 138.124 206.976C138.376 206.886 138.593 206.754 138.776 206.578C138.958 206.399 139.099 206.177 139.198 205.912L140.332 206.23C140.213 206.615 140.012 206.953 139.73 207.244C139.449 207.533 139.101 207.758 138.686 207.92C138.272 208.08 137.806 208.159 137.289 208.159ZM149.276 208.159C148.56 208.159 147.943 207.99 147.426 207.652C146.909 207.314 146.512 206.848 146.233 206.255C145.955 205.662 145.816 204.984 145.816 204.222C145.816 203.446 145.958 202.762 146.243 202.168C146.531 201.572 146.932 201.106 147.446 200.771C147.963 200.433 148.566 200.264 149.256 200.264C149.793 200.264 150.277 200.364 150.708 200.562C151.138 200.761 151.491 201.04 151.767 201.398C152.042 201.756 152.212 202.173 152.279 202.651H151.105C151.016 202.303 150.817 201.994 150.509 201.726C150.204 201.454 149.793 201.318 149.276 201.318C148.818 201.318 148.417 201.437 148.073 201.676C147.731 201.911 147.464 202.245 147.272 202.675C147.083 203.103 146.989 203.605 146.989 204.182C146.989 204.772 147.082 205.286 147.267 205.723C147.456 206.161 147.721 206.5 148.063 206.742C148.407 206.984 148.812 207.105 149.276 207.105C149.581 207.105 149.857 207.052 150.106 206.946C150.355 206.84 150.565 206.687 150.737 206.489C150.91 206.29 151.032 206.051 151.105 205.773H152.279C152.212 206.223 152.048 206.629 151.786 206.991C151.528 207.349 151.185 207.634 150.757 207.846C150.333 208.055 149.839 208.159 149.276 208.159ZM156.241 208.179C155.757 208.179 155.318 208.088 154.923 207.906C154.529 207.72 154.216 207.453 153.984 207.105C153.752 206.754 153.636 206.33 153.636 205.832C153.636 205.395 153.722 205.04 153.894 204.768C154.067 204.493 154.297 204.278 154.585 204.122C154.874 203.966 155.192 203.85 155.54 203.774C155.891 203.695 156.244 203.632 156.599 203.585C157.063 203.526 157.439 203.481 157.727 203.451C158.019 203.418 158.231 203.363 158.364 203.287C158.5 203.211 158.568 203.078 158.568 202.889V202.849C158.568 202.359 158.433 201.978 158.165 201.706C157.9 201.434 157.497 201.298 156.957 201.298C156.397 201.298 155.958 201.421 155.639 201.666C155.321 201.911 155.097 202.173 154.968 202.452L153.855 202.054C154.053 201.59 154.319 201.229 154.65 200.97C154.985 200.708 155.349 200.526 155.744 200.423C156.142 200.317 156.533 200.264 156.917 200.264C157.162 200.264 157.444 200.294 157.762 200.354C158.084 200.41 158.394 200.528 158.692 200.707C158.994 200.886 159.244 201.156 159.443 201.517C159.642 201.878 159.741 202.362 159.741 202.969V208H158.568V206.966H158.508C158.428 207.132 158.296 207.309 158.11 207.498C157.925 207.687 157.678 207.848 157.369 207.98C157.061 208.113 156.685 208.179 156.241 208.179ZM156.42 207.125C156.884 207.125 157.275 207.034 157.593 206.852C157.915 206.669 158.157 206.434 158.319 206.146C158.485 205.857 158.568 205.554 158.568 205.236V204.162C158.518 204.222 158.409 204.276 158.24 204.326C158.074 204.372 157.882 204.414 157.663 204.45C157.447 204.483 157.237 204.513 157.031 204.54C156.829 204.563 156.665 204.583 156.539 204.599C156.234 204.639 155.949 204.704 155.684 204.793C155.422 204.879 155.21 205.01 155.048 205.186C154.889 205.358 154.809 205.594 154.809 205.892C154.809 206.3 154.96 206.608 155.262 206.817C155.566 207.022 155.953 207.125 156.42 207.125ZM163.056 197.818V208H161.882V197.818H163.056ZM166.378 197.818V208H165.205V197.818H166.378Z" fill="#82807C"/>
</g>
<defs>
<clipPath id="clip0_479_10171">
<rect width="235" height="40" fill="white" transform="translate(56 24)"/>
</clipPath>
<clipPath id="clip1_479_10171">
<rect width="235" height="40" fill="white" transform="translate(56 98)"/>
</clipPath>
<clipPath id="clip2_479_10171">
<rect width="235" height="40" fill="white" transform="translate(56 172)"/>
</clipPath>
</defs>
</svg>
