<svg width="360" height="170" viewBox="0 0 360 170" fill="none" xmlns="http://www.w3.org/2000/svg">
<rect width="360" height="169.358" fill="white"/>
<rect x="16" y="16" width="328" height="33.2778" rx="7.63889" fill="#F8F8F7"/>
<g clip-path="url(#clip0_645_22303)">
<path d="M23.6357 18.3872L120.237 18.3872C123.138 18.3872 125.489 20.7387 125.489 23.6392V41.6392C125.489 44.5394 123.138 46.8901 120.237 46.8901H23.6357C20.7354 46.8901 18.384 44.5395 18.3838 41.6392V23.6392C18.3838 20.7387 20.7353 18.3872 23.6357 18.3872Z" fill="white"/>
<path d="M23.6357 18.3872L120.237 18.3872C123.138 18.3872 125.489 20.7387 125.489 23.6392V41.6392C125.489 44.5394 123.138 46.8901 120.237 46.8901H23.6357C20.7354 46.8901 18.384 44.5395 18.3838 41.6392V23.6392C18.3838 20.7387 20.7353 18.3872 23.6357 18.3872Z" stroke="#E9E8E6" stroke-width="0.954861"/>
<path d="M39.5262 28.1793V26.9166L47.0504 26.9166V28.1793H44.017V36.6388H42.5549V28.1793H39.5262ZM47.842 36.6388V29.3471H49.214V30.5054H49.2899C49.4228 30.113 49.657 29.8044 49.9925 29.5797C50.3311 29.3519 50.7141 29.2379 51.1413 29.2379C51.2299 29.2379 51.3344 29.2411 51.4546 29.2474C51.578 29.2538 51.6746 29.2617 51.7442 29.2712V30.6289C51.6872 30.613 51.586 30.5956 51.4404 30.5766C51.2948 30.5545 51.1492 30.5434 51.0036 30.5434C50.6682 30.5434 50.3691 30.6146 50.1064 30.757C49.8469 30.8963 49.6412 31.0909 49.4893 31.3409C49.3374 31.5878 49.2614 31.8695 49.2614 32.1859V36.6388H47.842ZM55.0292 36.8002C54.5672 36.8002 54.1494 36.7147 53.776 36.5438C53.4025 36.3698 53.1066 36.1182 52.8883 35.789C52.6731 35.4599 52.5655 35.0564 52.5655 34.5785C52.5655 34.1671 52.6446 33.8285 52.8028 33.5626C52.9611 33.2968 53.1747 33.0863 53.4437 32.9312C53.7127 32.7762 54.0134 32.6591 54.3457 32.58C54.678 32.5008 55.0166 32.4407 55.3616 32.3996C55.7983 32.3489 56.1527 32.3078 56.4249 32.2761C56.6971 32.2413 56.8949 32.1859 57.0183 32.11C57.1417 32.034 57.2035 31.9106 57.2035 31.7397V31.7065C57.2035 31.2919 57.0864 30.9707 56.8522 30.7428C56.6211 30.5149 56.2762 30.401 55.8173 30.401C55.3394 30.401 54.9628 30.507 54.6875 30.7191C54.4153 30.9279 54.227 31.1605 54.1225 31.4169L52.7886 31.1131C52.9468 30.67 53.1778 30.3124 53.4817 30.0402C53.7887 29.7649 54.1415 29.5655 54.5403 29.4421C54.9391 29.3155 55.3584 29.2522 55.7983 29.2522C56.0895 29.2522 56.398 29.287 56.724 29.3566C57.0531 29.4231 57.3601 29.5465 57.6449 29.7269C57.9329 29.9073 58.1687 30.1652 58.3523 30.5007C58.5358 30.833 58.6276 31.265 58.6276 31.7967V36.6388H57.2414V35.6419H57.1845C57.0927 35.8254 56.955 36.0058 56.7715 36.1831C56.5879 36.3603 56.3521 36.5075 56.0641 36.6246C55.7761 36.7416 55.4312 36.8002 55.0292 36.8002ZM55.3378 35.6609C55.7302 35.6609 56.0657 35.5833 56.3442 35.4283C56.6259 35.2732 56.8395 35.0706 56.9851 34.8206C57.1338 34.5674 57.2082 34.2969 57.2082 34.0089V33.0689C57.1576 33.1196 57.0595 33.167 56.9139 33.2113C56.7715 33.2525 56.6085 33.2889 56.4249 33.3205C56.2414 33.349 56.0626 33.3759 55.8885 33.4012C55.7144 33.4234 55.5688 33.4424 55.4517 33.4582C55.1764 33.493 54.9248 33.5515 54.6969 33.6338C54.4722 33.7161 54.2919 33.8348 54.1558 33.9899C54.0228 34.1418 53.9564 34.3443 53.9564 34.5975C53.9564 34.9488 54.0861 35.2146 54.3457 35.395C54.6052 35.5723 54.9359 35.6609 55.3378 35.6609ZM61.9376 32.3094V36.6388H60.5182V29.3471H61.8806V30.5339H61.9708C62.1385 30.1478 62.4012 29.8377 62.7588 29.6035C63.1196 29.3693 63.5738 29.2522 64.1213 29.2522C64.6182 29.2522 65.0533 29.3566 65.4268 29.5655C65.8002 29.7712 66.0898 30.0782 66.2955 30.4864C66.5012 30.8947 66.6041 31.3995 66.6041 32.0008V36.6388H65.1846V32.1717C65.1846 31.6432 65.047 31.2302 64.7716 30.9327C64.4963 30.632 64.1181 30.4817 63.6371 30.4817C63.3079 30.4817 63.0152 30.5529 62.7588 30.6953C62.5057 30.8377 62.3047 31.0466 62.1559 31.322C62.0104 31.5941 61.9376 31.9233 61.9376 32.3094ZM73.9717 31.1273L72.6852 31.3552C72.6314 31.1906 72.5459 31.034 72.4288 30.8852C72.3149 30.7365 72.1598 30.6146 71.9636 30.5197C71.7674 30.4247 71.5221 30.3773 71.2278 30.3773C70.8259 30.3773 70.4904 30.4675 70.2214 30.6479C69.9524 30.8251 69.8179 31.0545 69.8179 31.3362C69.8179 31.5799 69.9081 31.7761 70.0885 31.9248C70.2689 32.0736 70.56 32.1954 70.962 32.2904L72.1203 32.5562C72.7912 32.7113 73.2912 32.9502 73.6204 33.273C73.9495 33.5959 74.1141 34.0152 74.1141 34.531C74.1141 34.9678 73.9875 35.3571 73.7343 35.6989C73.4843 36.0375 73.1346 36.3033 72.6852 36.4964C72.239 36.6894 71.7215 36.786 71.1329 36.786C70.3163 36.786 69.6502 36.6119 69.1343 36.2638C68.6184 35.9125 68.302 35.414 68.1849 34.7684L69.5568 34.5595C69.6423 34.9171 69.8179 35.1877 70.0837 35.3713C70.3496 35.5517 70.6961 35.6419 71.1234 35.6419C71.5886 35.6419 71.9605 35.5454 72.239 35.3523C72.5175 35.1561 72.6567 34.9171 72.6567 34.6355C72.6567 34.4076 72.5713 34.2161 72.4004 34.0611C72.2326 33.906 71.9747 33.7889 71.6266 33.7098L70.3923 33.4392C69.7119 33.2841 69.2087 33.0373 68.8827 32.6986C68.5599 32.36 68.3985 31.9312 68.3985 31.4121C68.3985 30.9817 68.5188 30.6051 68.7593 30.2823C68.9998 29.9595 69.3321 29.7079 69.7562 29.5275C70.1803 29.344 70.6661 29.2522 71.2136 29.2522C72.0016 29.2522 72.6219 29.4231 73.0745 29.7649C73.527 30.1035 73.8261 30.5577 73.9717 31.1273ZM78.7462 36.786C78.0404 36.786 77.4328 36.6261 76.9232 36.3065C76.4169 35.9837 76.0276 35.539 75.7554 34.9725C75.4833 34.406 75.3472 33.7573 75.3472 33.0262C75.3472 32.2856 75.4864 31.6321 75.7649 31.0656C76.0434 30.4959 76.4359 30.0513 76.9422 29.7316C77.4486 29.412 78.0452 29.2522 78.7319 29.2522C79.2857 29.2522 79.7795 29.355 80.213 29.5608C80.6466 29.7633 80.9963 30.0481 81.2622 30.4152C81.5312 30.7824 81.691 31.2112 81.7416 31.7017H80.3602C80.2842 31.3599 80.1102 31.0656 79.838 30.8188C79.569 30.5719 79.2082 30.4485 78.7556 30.4485C78.36 30.4485 78.0135 30.5529 77.716 30.7618C77.4217 30.9675 77.1922 31.2618 77.0277 31.6448C76.8631 32.0245 76.7808 32.4739 76.7808 32.993C76.7808 33.5246 76.8615 33.9835 77.0229 34.3696C77.1843 34.7557 77.4122 35.0548 77.7065 35.2669C78.004 35.4789 78.3537 35.5849 78.7556 35.5849C79.0247 35.5849 79.2683 35.5359 79.4867 35.4378C79.7082 35.3365 79.8934 35.1925 80.0421 35.0058C80.194 34.819 80.3001 34.5943 80.3602 34.3317H81.7416C81.691 34.8032 81.5375 35.2241 81.2811 35.5944C81.0248 35.9647 80.6814 36.2559 80.251 36.4679C79.8238 36.6799 79.3221 36.786 78.7462 36.786ZM83.2595 36.6388V29.3471H84.6315V30.5054H84.7074C84.8403 30.113 85.0745 29.8044 85.41 29.5797C85.7486 29.3519 86.1316 29.2379 86.5588 29.2379C86.6474 29.2379 86.7519 29.2411 86.8721 29.2474C86.9956 29.2538 87.0921 29.2617 87.1617 29.2712V30.6289C87.1047 30.613 87.0035 30.5956 86.8579 30.5766C86.7123 30.5545 86.5667 30.5434 86.4212 30.5434C86.0857 30.5434 85.7866 30.6146 85.5239 30.757C85.2644 30.8963 85.0587 31.0909 84.9068 31.3409C84.7549 31.5878 84.6789 31.8695 84.6789 32.1859V36.6388H83.2595ZM88.39 36.6388V29.3471H89.8094V36.6388H88.39ZM89.1069 28.222C88.86 28.222 88.648 28.1398 88.4707 27.9752C88.2967 27.8075 88.2097 27.6081 88.2097 27.377C88.2097 27.1429 88.2967 26.9435 88.4707 26.7789C88.648 26.6112 88.86 26.5273 89.1069 26.5273C89.3537 26.5273 89.5642 26.6112 89.7382 26.7789C89.9155 26.9435 90.0041 27.1429 90.0041 27.377C90.0041 27.6081 89.9155 27.8075 89.7382 27.9752C89.5642 28.1398 89.3537 28.222 89.1069 28.222ZM91.719 39.3732V29.3471H93.1052V30.5292H93.2239C93.3061 30.3773 93.4248 30.2016 93.5799 30.0022C93.735 29.8029 93.9502 29.6288 94.2255 29.48C94.5009 29.3281 94.8648 29.2522 95.3174 29.2522C95.906 29.2522 96.4314 29.4009 96.8934 29.6984C97.3555 29.9959 97.7179 30.4247 97.9805 30.9849C98.2464 31.5451 98.3793 32.2192 98.3793 33.0072C98.3793 33.7952 98.248 34.4709 97.9853 35.0342C97.7226 35.5944 97.3618 36.0264 96.9029 36.3302C96.444 36.6309 95.9203 36.7812 95.3316 36.7812C94.8885 36.7812 94.5262 36.7068 94.2445 36.5581C93.966 36.4093 93.7476 36.2353 93.5894 36.0359C93.4312 35.8365 93.3093 35.6593 93.2239 35.5042H93.1384V39.3732H91.719ZM93.1099 32.993C93.1099 33.5057 93.1843 33.9551 93.333 34.3412C93.4818 34.7273 93.697 35.0295 93.9787 35.2479C94.2603 35.4631 94.6053 35.5707 95.0135 35.5707C95.4376 35.5707 95.7921 35.4583 96.0769 35.2336C96.3617 35.0058 96.5769 34.6972 96.7225 34.3079C96.8713 33.9187 96.9456 33.4803 96.9456 32.993C96.9456 32.5119 96.8729 32.0799 96.7273 31.697C96.5849 31.314 96.3697 31.0118 96.0817 30.7903C95.7968 30.5687 95.4408 30.458 95.0135 30.458C94.6021 30.458 94.254 30.564 93.9692 30.776C93.6875 30.9881 93.4739 31.284 93.3283 31.6638C93.1827 32.0435 93.1099 32.4866 93.1099 32.993ZM103.373 29.3471V30.4864H99.3904V29.3471H103.373ZM100.459 27.6002H101.878V34.4978C101.878 34.7732 101.919 34.9804 102.001 35.1197C102.084 35.2558 102.19 35.3491 102.319 35.3998C102.452 35.4473 102.596 35.471 102.751 35.471C102.865 35.471 102.965 35.4631 103.051 35.4473C103.136 35.4314 103.202 35.4188 103.25 35.4093L103.506 36.5818C103.424 36.6135 103.307 36.6451 103.155 36.6768C103.003 36.7116 102.813 36.7306 102.585 36.7337C102.212 36.7401 101.864 36.6736 101.541 36.5344C101.218 36.3951 100.957 36.1799 100.758 35.8887C100.558 35.5976 100.459 35.232 100.459 34.7921V27.6002Z" fill="#21201D"/>
<path d="M158.068 36.6388V26.9166H161.534C162.29 26.9166 162.917 27.0542 163.413 27.3296C163.91 27.6049 164.282 27.9815 164.529 28.4594C164.776 28.9341 164.899 29.469 164.899 30.064C164.899 30.6621 164.774 31.2001 164.524 31.678C164.277 32.1527 163.904 32.5293 163.404 32.8078C162.907 33.0832 162.282 33.2208 161.529 33.2208H159.146V31.9771H161.396C161.874 31.9771 162.261 31.8948 162.559 31.7302C162.856 31.5625 163.075 31.3346 163.214 31.0466C163.353 30.7586 163.423 30.4311 163.423 30.064C163.423 29.6968 163.353 29.3709 163.214 29.086C163.075 28.8012 162.855 28.5781 162.554 28.4167C162.257 28.2553 161.864 28.1746 161.377 28.1746H159.535V36.6388H158.068ZM168.562 36.8002C168.1 36.8002 167.682 36.7147 167.308 36.5438C166.935 36.3698 166.639 36.1182 166.421 35.789C166.206 35.4599 166.098 35.0564 166.098 34.5785C166.098 34.1671 166.177 33.8285 166.335 33.5626C166.494 33.2968 166.707 33.0863 166.976 32.9312C167.245 32.7762 167.546 32.6591 167.878 32.58C168.21 32.5008 168.549 32.4407 168.894 32.3996C169.331 32.3489 169.685 32.3078 169.957 32.2761C170.23 32.2413 170.427 32.1859 170.551 32.11C170.674 32.034 170.736 31.9106 170.736 31.7397V31.7065C170.736 31.2919 170.619 30.9707 170.385 30.7428C170.154 30.5149 169.809 30.401 169.35 30.401C168.872 30.401 168.495 30.507 168.22 30.7191C167.948 30.9279 167.759 31.1605 167.655 31.4169L166.321 31.1131C166.479 30.67 166.71 30.3124 167.014 30.0402C167.321 29.7649 167.674 29.5655 168.073 29.4421C168.472 29.3155 168.891 29.2522 169.331 29.2522C169.622 29.2522 169.931 29.287 170.256 29.3566C170.586 29.4231 170.893 29.5465 171.177 29.7269C171.465 29.9073 171.701 30.1652 171.885 30.5007C172.068 30.833 172.16 31.265 172.16 31.7967V36.6388H170.774V35.6419H170.717C170.625 35.8254 170.488 36.0058 170.304 36.1831C170.12 36.3603 169.885 36.5075 169.597 36.6246C169.309 36.7416 168.964 36.8002 168.562 36.8002ZM168.87 35.6609C169.263 35.6609 169.598 35.5833 169.877 35.4283C170.158 35.2732 170.372 35.0706 170.518 34.8206C170.666 34.5674 170.741 34.2969 170.741 34.0089V33.0689C170.69 33.1196 170.592 33.167 170.446 33.2113C170.304 33.2525 170.141 33.2889 169.957 33.3205C169.774 33.349 169.595 33.3759 169.421 33.4012C169.247 33.4234 169.101 33.4424 168.984 33.4582C168.709 33.493 168.457 33.5515 168.229 33.6338C168.005 33.7161 167.824 33.8348 167.688 33.9899C167.555 34.1418 167.489 34.3443 167.489 34.5975C167.489 34.9488 167.619 35.2146 167.878 35.395C168.138 35.5723 168.468 35.6609 168.87 35.6609ZM177.454 29.3471V30.4864H173.472V29.3471H177.454ZM174.54 27.6002H175.959V34.4978C175.959 34.7732 176 34.9804 176.082 35.1197C176.165 35.2558 176.271 35.3491 176.401 35.3998C176.533 35.4473 176.677 35.471 176.833 35.471C176.946 35.471 177.046 35.4631 177.132 35.4473C177.217 35.4314 177.284 35.4188 177.331 35.4093L177.587 36.5818C177.505 36.6135 177.388 36.6451 177.236 36.6768C177.084 36.7116 176.894 36.7306 176.666 36.7337C176.293 36.7401 175.945 36.6736 175.622 36.5344C175.299 36.3951 175.038 36.1799 174.839 35.8887C174.639 35.5976 174.54 35.232 174.54 34.7921V27.6002ZM179.025 36.6388V29.3471H180.444V36.6388H179.025ZM179.741 28.222C179.495 28.222 179.282 28.1398 179.105 27.9752C178.931 27.8075 178.844 27.6081 178.844 27.377C178.844 27.1429 178.931 26.9435 179.105 26.7789C179.282 26.6112 179.495 26.5273 179.741 26.5273C179.988 26.5273 180.199 26.6112 180.373 26.7789C180.55 26.9435 180.639 27.1429 180.639 27.377C180.639 27.6081 180.55 27.8075 180.373 27.9752C180.199 28.1398 179.988 28.222 179.741 28.222ZM185.496 36.786C184.778 36.786 184.159 36.6325 183.64 36.3255C183.124 36.0153 182.725 35.5802 182.444 35.02C182.165 34.4567 182.026 33.7968 182.026 33.0404C182.026 32.2935 182.165 31.6353 182.444 31.0656C182.725 30.4959 183.118 30.0513 183.621 29.7316C184.127 29.412 184.719 29.2522 185.396 29.2522C185.808 29.2522 186.207 29.3202 186.593 29.4563C186.979 29.5924 187.325 29.806 187.632 30.0972C187.939 30.3883 188.181 30.7665 188.359 31.2318C188.536 31.6938 188.625 32.2556 188.625 32.917V33.4202H182.828V32.3568H187.234C187.234 31.9834 187.158 31.6527 187.006 31.3647C186.854 31.0735 186.64 30.8441 186.365 30.6763C186.093 30.5086 185.773 30.4247 185.406 30.4247C185.007 30.4247 184.659 30.5228 184.362 30.7191C184.067 30.9121 183.839 31.1653 183.678 31.4786C183.52 31.7888 183.441 32.1258 183.441 32.4898V33.3205C183.441 33.8079 183.526 34.2225 183.697 34.5643C183.871 34.9061 184.113 35.1672 184.423 35.3476C184.733 35.5248 185.096 35.6134 185.51 35.6134C185.779 35.6134 186.025 35.5754 186.246 35.4995C186.468 35.4204 186.659 35.3033 186.821 35.1482C186.982 34.9931 187.105 34.8016 187.191 34.5738L188.534 34.8159C188.427 35.2115 188.234 35.558 187.955 35.8555C187.68 36.1498 187.333 36.3793 186.916 36.5438C186.501 36.7053 186.028 36.786 185.496 36.786ZM191.619 32.3094V36.6388H190.199V29.3471H191.562V30.5339H191.652C191.82 30.1478 192.082 29.8377 192.44 29.6035C192.801 29.3693 193.255 29.2522 193.803 29.2522C194.299 29.2522 194.735 29.3566 195.108 29.5655C195.481 29.7712 195.771 30.0782 195.977 30.4864C196.182 30.8947 196.285 31.3995 196.285 32.0008V36.6388H194.866V32.1717C194.866 31.6432 194.728 31.2302 194.453 30.9327C194.178 30.632 193.799 30.4817 193.318 30.4817C192.989 30.4817 192.696 30.5529 192.44 30.6953C192.187 30.8377 191.986 31.0466 191.837 31.322C191.692 31.5941 191.619 31.9233 191.619 32.3094ZM201.593 29.3471V30.4864H197.61V29.3471H201.593ZM198.678 27.6002H200.097V34.4978C200.097 34.7732 200.138 34.9804 200.221 35.1197C200.303 35.2558 200.409 35.3491 200.539 35.3998C200.672 35.4473 200.816 35.471 200.971 35.471C201.085 35.471 201.184 35.4631 201.27 35.4473C201.355 35.4314 201.422 35.4188 201.469 35.4093L201.726 36.5818C201.643 36.6135 201.526 36.6451 201.374 36.6768C201.222 36.7116 201.032 36.7306 200.805 36.7337C200.431 36.7401 200.083 36.6736 199.76 36.5344C199.437 36.3951 199.176 36.1799 198.977 35.8887C198.778 35.5976 198.678 35.232 198.678 34.7921V27.6002Z" fill="#82807C"/>
<path d="M265.623 36.6388V26.9166H267.09V31.1416H271.937V26.9166H273.408V36.6388H271.937V32.3996H267.09V36.6388H265.623ZM275.43 36.6388V29.3471H276.85V36.6388H275.43ZM276.147 28.222C275.9 28.222 275.688 28.1398 275.511 27.9752C275.337 27.8075 275.25 27.6081 275.25 27.377C275.25 27.1429 275.337 26.9435 275.511 26.7789C275.688 26.6112 275.9 26.5273 276.147 26.5273C276.394 26.5273 276.605 26.6112 276.779 26.7789C276.956 26.9435 277.045 27.1429 277.045 27.377C277.045 27.6081 276.956 27.8075 276.779 27.9752C276.605 28.1398 276.394 28.222 276.147 28.222ZM284.223 31.1273L282.937 31.3552C282.883 31.1906 282.798 31.034 282.681 30.8852C282.567 30.7365 282.412 30.6146 282.215 30.5197C282.019 30.4247 281.774 30.3773 281.48 30.3773C281.078 30.3773 280.742 30.4675 280.473 30.6479C280.204 30.8251 280.07 31.0545 280.07 31.3362C280.07 31.5799 280.16 31.7761 280.34 31.9248C280.521 32.0736 280.812 32.1954 281.214 32.2904L282.372 32.5562C283.043 32.7113 283.543 32.9502 283.872 33.273C284.201 33.5959 284.366 34.0152 284.366 34.531C284.366 34.9678 284.239 35.3571 283.986 35.6989C283.736 36.0375 283.386 36.3033 282.937 36.4964C282.491 36.6894 281.973 36.786 281.385 36.786C280.568 36.786 279.902 36.6119 279.386 36.2638C278.87 35.9125 278.554 35.414 278.437 34.7684L279.809 34.5595C279.894 34.9171 280.07 35.1877 280.335 35.3713C280.601 35.5517 280.948 35.6419 281.375 35.6419C281.84 35.6419 282.212 35.5454 282.491 35.3523C282.769 35.1561 282.908 34.9171 282.908 34.6355C282.908 34.4076 282.823 34.2161 282.652 34.0611C282.484 33.906 282.226 33.7889 281.878 33.7098L280.644 33.4392C279.964 33.2841 279.46 33.0373 279.134 32.6986C278.812 32.36 278.65 31.9312 278.65 31.4121C278.65 30.9817 278.771 30.6051 279.011 30.2823C279.252 29.9595 279.584 29.7079 280.008 29.5275C280.432 29.344 280.918 29.2522 281.465 29.2522C282.253 29.2522 282.874 29.4231 283.326 29.7649C283.779 30.1035 284.078 30.5577 284.223 31.1273ZM289.33 29.3471V30.4864H285.347V29.3471H289.33ZM286.415 27.6002H287.835V34.4978C287.835 34.7732 287.876 34.9804 287.958 35.1197C288.041 35.2558 288.147 35.3491 288.276 35.3998C288.409 35.4473 288.553 35.471 288.708 35.471C288.822 35.471 288.922 35.4631 289.007 35.4473C289.093 35.4314 289.159 35.4188 289.207 35.4093L289.463 36.5818C289.381 36.6135 289.264 36.6451 289.112 36.6768C288.96 36.7116 288.77 36.7306 288.542 36.7337C288.169 36.7401 287.821 36.6736 287.498 36.5344C287.175 36.3951 286.914 36.1799 286.715 35.8887C286.515 35.5976 286.415 35.232 286.415 34.7921V27.6002ZM293.893 36.786C293.21 36.786 292.613 36.6293 292.104 36.316C291.594 36.0027 291.199 35.5643 290.917 35.001C290.635 34.4377 290.494 33.7794 290.494 33.0262C290.494 32.2698 290.635 31.6084 290.917 31.0419C291.199 30.4754 291.594 30.0355 292.104 29.7222C292.613 29.4088 293.21 29.2522 293.893 29.2522C294.577 29.2522 295.174 29.4088 295.683 29.7222C296.193 30.0355 296.588 30.4754 296.87 31.0419C297.152 31.6084 297.292 32.2698 297.292 33.0262C297.292 33.7794 297.152 34.4377 296.87 35.001C296.588 35.5643 296.193 36.0027 295.683 36.316C295.174 36.6293 294.577 36.786 293.893 36.786ZM293.898 35.5944C294.341 35.5944 294.708 35.4773 295 35.2431C295.291 35.0089 295.506 34.6972 295.645 34.3079C295.788 33.9187 295.859 33.4898 295.859 33.0214C295.859 32.5562 295.788 32.129 295.645 31.7397C295.506 31.3473 295.291 31.0324 295 30.795C294.708 30.5577 294.341 30.439 293.898 30.439C293.452 30.439 293.082 30.5577 292.787 30.795C292.496 31.0324 292.279 31.3473 292.137 31.7397C291.998 32.129 291.928 32.5562 291.928 33.0214C291.928 33.4898 291.998 33.9187 292.137 34.3079C292.279 34.6972 292.496 35.0089 292.787 35.2431C293.082 35.4773 293.452 35.5944 293.898 35.5944ZM298.877 36.6388V29.3471H300.249V30.5054H300.325C300.458 30.113 300.692 29.8044 301.027 29.5797C301.366 29.3519 301.749 29.2379 302.176 29.2379C302.265 29.2379 302.369 29.2411 302.489 29.2474C302.613 29.2538 302.709 29.2617 302.779 29.2712V30.6289C302.722 30.613 302.621 30.5956 302.475 30.5766C302.33 30.5545 302.184 30.5434 302.038 30.5434C301.703 30.5434 301.404 30.6146 301.141 30.757C300.882 30.8963 300.676 31.0909 300.524 31.3409C300.372 31.5878 300.296 31.8695 300.296 32.1859V36.6388H298.877ZM305.126 39.3732C304.914 39.3732 304.721 39.3558 304.547 39.3209C304.373 39.2893 304.243 39.2545 304.158 39.2165L304.5 38.0535C304.759 38.1231 304.99 38.1531 305.193 38.1436C305.395 38.1342 305.574 38.0582 305.729 37.9158C305.888 37.7734 306.027 37.5408 306.147 37.2179L306.323 36.7337L303.655 29.3471H305.174L307.021 35.0058H307.097L308.943 29.3471H310.467L307.462 37.612C307.323 37.9917 307.146 38.313 306.93 38.5756C306.715 38.8415 306.459 39.0409 306.161 39.1738C305.864 39.3067 305.519 39.3732 305.126 39.3732Z" fill="#82807C"/>
</g>
<g clip-path="url(#clip1_645_22303)">
<rect x="16" y="86.9949" width="1.90972" height="1.90972" rx="0.954861" fill="#DAD9D6"/>
<rect x="19.8203" y="86.9948" width="1.90972" height="1.90972" rx="0.954861" fill="#DAD9D6"/>
<rect x="23.6406" y="86.9949" width="1.90972" height="1.90972" rx="0.954861" fill="#DAD9D6"/>
<rect x="27.4609" y="86.9949" width="1.90972" height="1.90972" rx="0.954861" fill="#DAD9D6"/>
<rect x="31.2812" y="86.9949" width="1.90972" height="1.90972" rx="0.954861" fill="#DAD9D6"/>
<rect x="35.0938" y="82.6979" width="1.90972" height="10.5035" rx="0.954861" fill="#DAD9D6"/>
<rect x="38.9141" y="86.9949" width="1.90972" height="1.90972" rx="0.954861" fill="#DAD9D6"/>
<rect x="42.7344" y="86.9949" width="1.90972" height="1.90972" rx="0.954861" fill="#DAD9D6"/>
<rect x="46.5547" y="84.6077" width="1.90972" height="6.68403" rx="0.954861" fill="#DAD9D6"/>
<rect x="50.375" y="86.9949" width="1.90972" height="1.90972" rx="0.954861" fill="#DAD9D6"/>
<rect x="54.1953" y="84.6078" width="1.90972" height="6.68403" rx="0.954861" fill="#DAD9D6"/>
<rect x="58.0156" y="83.6527" width="1.90972" height="8.59375" rx="0.954861" fill="#DAD9D6"/>
<rect x="61.8359" y="86.9948" width="1.90972" height="1.90972" rx="0.954861" fill="#DAD9D6"/>
<rect x="65.6562" y="86.9949" width="1.90972" height="1.90972" rx="0.954861" fill="#DAD9D6"/>
<rect x="69.4688" y="86.9948" width="1.90972" height="1.90972" rx="0.954861" fill="#DAD9D6"/>
<rect x="73.2891" y="85.5625" width="1.90972" height="4.77431" rx="0.954861" fill="#DAD9D6"/>
<rect x="77.1094" y="86.9949" width="1.90972" height="1.90972" rx="0.954861" fill="#DAD9D6"/>
<rect x="80.9297" y="86.9948" width="1.90972" height="1.90972" rx="0.954861" fill="#DAD9D6"/>
<rect x="84.75" y="84.6077" width="1.90972" height="6.68403" rx="0.954861" fill="#DAD9D6"/>
<rect x="88.5703" y="86.9949" width="1.90972" height="1.90972" rx="0.954861" fill="#DAD9D6"/>
<rect x="92.3906" y="82.6979" width="1.90972" height="10.5035" rx="0.954861" fill="#DAD9D6"/>
<rect x="96.2109" y="86.9948" width="1.90972" height="1.90972" rx="0.954861" fill="#DAD9D6"/>
<rect x="100.031" y="86.9948" width="1.90972" height="1.90972" rx="0.954861" fill="#DAD9D6"/>
<rect x="103.844" y="86.9949" width="1.90972" height="1.90972" rx="0.954861" fill="#DAD9D6"/>
<rect x="107.664" y="80.7882" width="1.90972" height="14.3229" rx="0.954861" fill="#DAD9D6"/>
<rect x="111.484" y="67.4202" width="1.90972" height="41.059" rx="0.954861" fill="#DAD9D6"/>
<rect x="115.305" y="72.1945" width="1.90972" height="31.5104" rx="0.954861" fill="#DAD9D6"/>
<rect x="119.125" y="74.1042" width="1.90972" height="27.691" rx="0.954861" fill="#DAD9D6"/>
<rect x="122.945" y="72.1945" width="1.90972" height="31.5104" rx="0.954861" fill="#DAD9D6"/>
<rect x="126.766" y="76.9688" width="1.90972" height="21.9618" rx="0.954861" fill="#DAD9D6"/>
<rect x="130.586" y="75.059" width="1.90972" height="25.7812" rx="0.954861" fill="#DAD9D6"/>
<rect x="134.406" y="80.7883" width="1.90972" height="14.3229" rx="0.954861" fill="#DAD9D6"/>
<rect x="138.219" y="78.8785" width="1.90972" height="18.1424" rx="0.954861" fill="#DAD9D6"/>
<rect x="142.039" y="79.8334" width="1.90972" height="16.2326" rx="0.954861" fill="#DAD9D6"/>
<rect x="145.859" y="86.04" width="1.90972" height="3.81944" rx="0.954861" fill="#DAD9D6"/>
<rect x="149.68" y="82.698" width="1.90972" height="10.5035" rx="0.954861" fill="#DAD9D6"/>
<rect x="153.5" y="86.5176" width="1.90972" height="2.86458" rx="0.954861" fill="#DAD9D6"/>
<rect x="157.32" y="86.9948" width="1.90972" height="1.90972" rx="0.954861" fill="#DAD9D6"/>
<rect x="161.141" y="84.6077" width="1.90972" height="6.68403" rx="0.954861" fill="#DAD9D6"/>
<rect x="164.961" y="86.5173" width="1.90972" height="2.86458" rx="0.954861" fill="#DAD9D6"/>
<rect x="168.781" y="82.698" width="1.90972" height="10.5035" rx="0.954861" fill="#DAD9D6"/>
<rect x="172.594" y="86.0399" width="1.90972" height="3.81944" rx="0.954861" fill="#DAD9D6"/>
<rect x="176.414" y="86.0399" width="1.90972" height="3.81944" rx="0.954861" fill="#DAD9D6"/>
<rect x="180.234" y="86.0399" width="1.90972" height="3.81944" rx="0.954861" fill="#DAD9D6"/>
<rect x="184.055" y="86.04" width="1.90972" height="3.81944" rx="0.954861" fill="#DAD9D6"/>
<rect x="187.875" y="82.698" width="1.90972" height="10.5035" rx="0.954861" fill="#DAD9D6"/>
<rect x="191.695" y="86.5173" width="1.90972" height="2.86458" rx="0.954861" fill="#DAD9D6"/>
<rect x="195.516" y="86.9949" width="1.90972" height="1.90972" rx="0.954861" fill="#DAD9D6"/>
<rect x="199.336" y="84.6077" width="1.90972" height="6.68403" rx="0.954861" fill="#DAD9D6"/>
<rect x="203.156" y="86.5175" width="1.90972" height="2.86458" rx="0.954861" fill="#DAD9D6"/>
<rect x="206.969" y="82.698" width="1.90972" height="10.5035" rx="0.954861" fill="#DAD9D6"/>
<rect x="210.789" y="77.9237" width="1.90972" height="20.0521" rx="0.954861" fill="#DAD9D6"/>
<rect x="214.609" y="70.2848" width="1.90972" height="35.3299" rx="0.954861" fill="#DAD9D6"/>
<rect x="218.43" y="77.9236" width="1.90972" height="20.0521" rx="0.954861" fill="#DAD9D6"/>
<rect x="222.25" y="76.9688" width="1.90972" height="21.9618" rx="0.954861" fill="#DAD9D6"/>
<rect x="226.07" y="78.8785" width="1.90972" height="18.1424" rx="0.954861" fill="#DAD9D6"/>
<rect x="229.891" y="80.7882" width="1.90972" height="14.3229" rx="0.954861" fill="#DAD9D6"/>
<rect x="233.711" y="79.8334" width="1.90972" height="16.2326" rx="0.954861" fill="#DAD9D6"/>
<rect x="237.531" y="76.0138" width="1.90972" height="23.8715" rx="0.954861" fill="#DAD9D6"/>
<rect x="241.344" y="80.7882" width="1.90972" height="14.3229" rx="0.954861" fill="#DAD9D6"/>
<rect x="245.164" y="78.8785" width="1.90972" height="18.1424" rx="0.954861" fill="#DAD9D6"/>
<rect x="248.984" y="80.7882" width="1.90972" height="14.3229" rx="0.954861" fill="#DAD9D6"/>
<rect x="252.805" y="79.8335" width="1.90972" height="16.2326" rx="0.954861" fill="#DAD9D6"/>
<rect x="256.625" y="82.6979" width="1.90972" height="10.5035" rx="0.954861" fill="#DAD9D6"/>
<rect x="260.445" y="77.9236" width="1.90972" height="20.0521" rx="0.954861" fill="#DAD9D6"/>
<rect x="264.266" y="81.7432" width="1.90972" height="12.4132" rx="0.954861" fill="#DAD9D6"/>
<rect x="268.086" y="75.0591" width="1.90972" height="25.7812" rx="0.954861" fill="#DAD9D6"/>
<rect x="271.906" y="86.04" width="1.90972" height="3.81944" rx="0.954861" fill="#DAD9D6"/>
<rect x="275.719" y="86.04" width="1.90972" height="3.81944" rx="0.954861" fill="#DAD9D6"/>
<rect x="279.539" y="86.0399" width="1.90972" height="3.81944" rx="0.954861" fill="#DAD9D6"/>
<rect x="283.359" y="86.04" width="1.90972" height="3.81944" rx="0.954861" fill="#DAD9D6"/>
<rect x="287.18" y="82.698" width="1.90972" height="10.5035" rx="0.954861" fill="#DAD9D6"/>
<rect x="291" y="86.5173" width="1.90972" height="2.86458" rx="0.954861" fill="#DAD9D6"/>
<rect x="294.82" y="86.9949" width="1.90972" height="1.90972" rx="0.954861" fill="#DAD9D6"/>
<rect x="298.641" y="84.6077" width="1.90972" height="6.68403" rx="0.954861" fill="#DAD9D6"/>
<rect x="302.461" y="86.5173" width="1.90972" height="2.86458" rx="0.954861" fill="#DAD9D6"/>
<rect x="306.281" y="86.9949" width="1.90972" height="1.90972" rx="0.954861" fill="#DAD9D6"/>
<rect x="310.094" y="86.9949" width="1.90972" height="1.90972" rx="0.954861" fill="#DAD9D6"/>
<rect x="313.914" y="86.9948" width="1.90972" height="1.90972" rx="0.954861" fill="#DAD9D6"/>
<rect x="317.734" y="86.9948" width="1.90972" height="1.90972" rx="0.954861" fill="#DAD9D6"/>
<rect x="321.555" y="82.6981" width="1.90972" height="10.5035" rx="0.954861" fill="#DAD9D6"/>
<rect x="325.375" y="85.5625" width="1.90972" height="4.77431" rx="0.954861" fill="#DAD9D6"/>
<rect x="329.195" y="86.9949" width="1.90972" height="1.90972" rx="0.954861" fill="#DAD9D6"/>
<rect x="333.016" y="86.9949" width="1.90972" height="1.90972" rx="0.954861" fill="#DAD9D6"/>
<rect x="336.836" y="84.6077" width="1.90972" height="6.68403" rx="0.954861" fill="#DAD9D6"/>
<rect x="340.656" y="86.9949" width="1.90972" height="1.90972" rx="0.954861" fill="#DAD9D6"/>
</g>
<path d="M21.7295 127.099H37.0068C39.9073 127.099 42.2588 129.451 42.2588 132.351V147.629C42.2588 150.529 39.9073 152.88 37.0068 152.88H21.7295C18.829 152.88 16.4775 150.529 16.4775 147.629V132.351C16.4775 129.451 18.829 127.099 21.7295 127.099Z" fill="white"/>
<path d="M21.7295 127.099H37.0068C39.9073 127.099 42.2588 129.451 42.2588 132.351V147.629C42.2588 150.529 39.9073 152.88 37.0068 152.88H21.7295C18.829 152.88 16.4775 150.529 16.4775 147.629V132.351C16.4775 129.451 18.829 127.099 21.7295 127.099Z" stroke="#E9E8E6" stroke-width="0.954861"/>
<path d="M25.4756 134.298C25.6232 134.3 25.7676 134.343 25.8936 134.422L33.71 139.277H33.7109C33.8314 139.351 33.9309 139.456 34 139.581C34.0691 139.706 34.1058 139.847 34.1055 139.99C34.1058 140.133 34.0691 140.274 34 140.399C33.9309 140.524 33.8313 140.628 33.7109 140.702H33.71L25.8936 145.557C25.7675 145.636 25.6232 145.679 25.4756 145.681C25.3648 145.683 25.2546 145.663 25.1523 145.622L25.0527 145.573C24.9252 145.501 24.8183 145.395 24.7441 145.267C24.67 145.139 24.6311 144.993 24.6309 144.844V135.135C24.6311 134.987 24.6702 134.841 24.7441 134.713C24.7997 134.617 24.8738 134.533 24.9609 134.467L25.0527 134.406C25.1816 134.332 25.3278 134.295 25.4756 134.298Z" fill="#21201D" stroke="#21201D" stroke-width="0.0745985"/>
<path d="M58.8191 134.268V143.99H57.3474V135.739H57.2905L54.9644 137.258V135.853L57.3902 134.268H58.8191ZM61.8418 144.08C61.5823 144.08 61.3592 143.988 61.1725 143.805C60.9858 143.618 60.8924 143.393 60.8924 143.131C60.8924 142.871 60.9858 142.649 61.1725 142.466C61.3592 142.279 61.5823 142.186 61.8418 142.186C62.1013 142.186 62.3245 142.279 62.5112 142.466C62.6979 142.649 62.7913 142.871 62.7913 143.131C62.7913 143.305 62.747 143.464 62.6583 143.61C62.5729 143.752 62.459 143.866 62.3165 143.952C62.1741 144.037 62.0159 144.08 61.8418 144.08ZM67.7058 144.151C66.9557 144.148 66.3149 143.95 65.7832 143.558C65.2515 143.165 64.8448 142.594 64.5632 141.844C64.2815 141.094 64.1407 140.19 64.1407 139.133C64.1407 138.08 64.2815 137.179 64.5632 136.432C64.848 135.685 65.2562 135.116 65.7879 134.723C66.3228 134.331 66.9621 134.135 67.7058 134.135C68.4495 134.135 69.0872 134.332 69.6189 134.728C70.1506 135.12 70.5573 135.69 70.8389 136.437C71.1238 137.181 71.2662 138.08 71.2662 139.133C71.2662 140.194 71.1253 141.099 70.8437 141.849C70.562 142.596 70.1553 143.167 69.6236 143.562C69.092 143.955 68.4527 144.151 67.7058 144.151ZM67.7058 142.884C68.3641 142.884 68.8783 142.562 69.2486 141.92C69.6221 141.278 69.8088 140.349 69.8088 139.133C69.8088 138.326 69.7233 137.644 69.5524 137.087C69.3847 136.527 69.1426 136.103 68.8261 135.815C68.5128 135.524 68.1394 135.378 67.7058 135.378C67.0507 135.378 66.5364 135.701 66.1629 136.347C65.7895 136.992 65.6012 137.921 65.598 139.133C65.598 139.944 65.6819 140.629 65.8496 141.189C66.0205 141.746 66.2626 142.168 66.576 142.456C66.8893 142.741 67.2659 142.884 67.7058 142.884ZM74.0895 136.698L75.6988 139.537L77.3224 136.698H78.8747L76.6008 140.344L78.8937 143.99H77.3414L75.6988 141.265L74.0611 143.99H72.504L74.7731 140.344L72.5325 136.698H74.0895Z" fill="#21201D"/>
<path d="M259.32 144.151C258.57 144.148 257.929 143.95 257.397 143.558C256.866 143.165 256.459 142.594 256.177 141.844C255.896 141.094 255.755 140.19 255.755 139.133C255.755 138.08 255.896 137.179 256.177 136.432C256.462 135.685 256.87 135.116 257.402 134.723C257.937 134.331 258.576 134.135 259.32 134.135C260.064 134.135 260.701 134.332 261.233 134.728C261.765 135.12 262.171 135.69 262.453 136.437C262.738 137.181 262.88 138.08 262.88 139.133C262.88 140.194 262.739 141.099 262.458 141.849C262.176 142.596 261.769 143.167 261.238 143.562C260.706 143.955 260.067 144.151 259.32 144.151ZM259.32 142.884C259.978 142.884 260.492 142.562 260.863 141.92C261.236 141.278 261.423 140.349 261.423 139.133C261.423 138.326 261.337 137.644 261.167 137.087C260.999 136.527 260.757 136.103 260.44 135.815C260.127 135.524 259.754 135.378 259.32 135.378C258.665 135.378 258.151 135.701 257.777 136.347C257.404 136.992 257.215 137.921 257.212 139.133C257.212 139.944 257.296 140.629 257.464 141.189C257.635 141.746 257.877 142.168 258.19 142.456C258.503 142.741 258.88 142.884 259.32 142.884ZM267.949 144.151C267.199 144.148 266.558 143.95 266.027 143.558C265.495 143.165 265.088 142.594 264.806 141.844C264.525 141.094 264.384 140.19 264.384 139.133C264.384 138.08 264.525 137.179 264.806 136.432C265.091 135.685 265.5 135.116 266.031 134.723C266.566 134.331 267.205 134.135 267.949 134.135C268.693 134.135 269.331 134.332 269.862 134.728C270.394 135.12 270.801 135.69 271.082 136.437C271.367 137.181 271.509 138.08 271.509 139.133C271.509 140.194 271.369 141.099 271.087 141.849C270.805 142.596 270.399 143.167 269.867 143.562C269.335 143.955 268.696 144.151 267.949 144.151ZM267.949 142.884C268.607 142.884 269.122 142.562 269.492 141.92C269.865 141.278 270.052 140.349 270.052 139.133C270.052 138.326 269.967 137.644 269.796 137.087C269.628 136.527 269.386 136.103 269.069 135.815C268.756 135.524 268.383 135.378 267.949 135.378C267.294 135.378 266.78 135.701 266.406 136.347C266.033 136.992 265.845 137.921 265.841 139.133C265.841 139.944 265.925 140.629 266.093 141.189C266.264 141.746 266.506 142.168 266.819 142.456C267.133 142.741 267.509 142.884 267.949 142.884ZM274.148 142.784C273.888 142.784 273.665 142.692 273.478 142.509C273.292 142.322 273.198 142.097 273.198 141.835C273.198 141.575 273.292 141.353 273.478 141.17C273.665 140.983 273.888 140.89 274.148 140.89C274.407 140.89 274.63 140.983 274.817 141.17C275.004 141.353 275.097 141.575 275.097 141.835C275.097 142.009 275.053 142.168 274.964 142.314C274.879 142.456 274.765 142.57 274.622 142.656C274.48 142.741 274.322 142.784 274.148 142.784ZM274.148 137.913C273.888 137.913 273.665 137.822 273.478 137.638C273.292 137.451 273.198 137.227 273.198 136.964C273.198 136.704 273.292 136.483 273.478 136.299C273.665 136.113 273.888 136.019 274.148 136.019C274.407 136.019 274.63 136.113 274.817 136.299C275.004 136.483 275.097 136.704 275.097 136.964C275.097 137.138 275.053 137.298 274.964 137.443C274.879 137.586 274.765 137.7 274.622 137.785C274.48 137.871 274.322 137.913 274.148 137.913ZM280.364 144.151C279.614 144.148 278.973 143.95 278.442 143.558C277.91 143.165 277.503 142.594 277.222 141.844C276.94 141.094 276.799 140.19 276.799 139.133C276.799 138.08 276.94 137.179 277.222 136.432C277.506 135.685 277.915 135.116 278.446 134.723C278.981 134.331 279.62 134.135 280.364 134.135C281.108 134.135 281.746 134.332 282.277 134.728C282.809 135.12 283.216 135.69 283.497 136.437C283.782 137.181 283.925 138.08 283.925 139.133C283.925 140.194 283.784 141.099 283.502 141.849C283.22 142.596 282.814 143.167 282.282 143.562C281.75 143.955 281.111 144.151 280.364 144.151ZM280.364 142.884C281.022 142.884 281.537 142.562 281.907 141.92C282.28 141.278 282.467 140.349 282.467 139.133C282.467 138.326 282.382 137.644 282.211 137.087C282.043 136.527 281.801 136.103 281.485 135.815C281.171 135.524 280.798 135.378 280.364 135.378C279.709 135.378 279.195 135.701 278.821 136.347C278.448 136.992 278.26 137.921 278.256 139.133C278.256 139.944 278.34 140.629 278.508 141.189C278.679 141.746 278.921 142.168 279.234 142.456C279.548 142.741 279.924 142.884 280.364 142.884ZM288.993 144.151C288.243 144.148 287.602 143.95 287.071 143.558C286.539 143.165 286.132 142.594 285.851 141.844C285.569 141.094 285.428 140.19 285.428 139.133C285.428 138.08 285.569 137.179 285.851 136.432C286.136 135.685 286.544 135.116 287.075 134.723C287.61 134.331 288.25 134.135 288.993 134.135C289.737 134.135 290.375 134.332 290.906 134.728C291.438 135.12 291.845 135.69 292.126 136.437C292.411 137.181 292.554 138.08 292.554 139.133C292.554 140.194 292.413 141.099 292.131 141.849C291.85 142.596 291.443 143.167 290.911 143.562C290.38 143.955 289.74 144.151 288.993 144.151ZM288.993 142.884C289.652 142.884 290.166 142.562 290.536 141.92C290.91 141.278 291.096 140.349 291.096 139.133C291.096 138.326 291.011 137.644 290.84 137.087C290.672 136.527 290.43 136.103 290.114 135.815C289.8 135.524 289.427 135.378 288.993 135.378C288.338 135.378 287.824 135.701 287.451 136.347C287.077 136.992 286.889 137.921 286.886 139.133C286.886 139.944 286.969 140.629 287.137 141.189C287.308 141.746 287.55 142.168 287.864 142.456C288.177 142.741 288.553 142.884 288.993 142.884ZM301.497 133.812L298.364 145.452H297.097L300.23 133.812H301.497ZM309.607 144.151C308.857 144.148 308.216 143.95 307.684 143.558C307.152 143.165 306.746 142.594 306.464 141.844C306.182 141.094 306.042 140.19 306.042 139.133C306.042 138.08 306.182 137.179 306.464 136.432C306.749 135.685 307.157 135.116 307.689 134.723C308.224 134.331 308.863 134.135 309.607 134.135C310.351 134.135 310.988 134.332 311.52 134.728C312.052 135.12 312.458 135.69 312.74 136.437C313.025 137.181 313.167 138.08 313.167 139.133C313.167 140.194 313.026 141.099 312.745 141.849C312.463 142.596 312.056 143.167 311.525 143.562C310.993 143.955 310.354 144.151 309.607 144.151ZM309.607 142.884C310.265 142.884 310.779 142.562 311.15 141.92C311.523 141.278 311.71 140.349 311.71 139.133C311.71 138.326 311.624 137.644 311.453 137.087C311.286 136.527 311.044 136.103 310.727 135.815C310.414 135.524 310.04 135.378 309.607 135.378C308.952 135.378 308.437 135.701 308.064 136.347C307.691 136.992 307.502 137.921 307.499 139.133C307.499 139.944 307.583 140.629 307.751 141.189C307.922 141.746 308.164 142.168 308.477 142.456C308.79 142.741 309.167 142.884 309.607 142.884ZM318.236 144.151C317.486 144.148 316.845 143.95 316.313 143.558C315.782 143.165 315.375 142.594 315.093 141.844C314.812 141.094 314.671 140.19 314.671 139.133C314.671 138.08 314.812 137.179 315.093 136.432C315.378 135.685 315.786 135.116 316.318 134.723C316.853 134.331 317.492 134.135 318.236 134.135C318.98 134.135 319.617 134.332 320.149 134.728C320.681 135.12 321.087 135.69 321.369 136.437C321.654 137.181 321.796 138.08 321.796 139.133C321.796 140.194 321.656 141.099 321.374 141.849C321.092 142.596 320.686 143.167 320.154 143.562C319.622 143.955 318.983 144.151 318.236 144.151ZM318.236 142.884C318.894 142.884 319.409 142.562 319.779 141.92C320.152 141.278 320.339 140.349 320.339 139.133C320.339 138.326 320.254 137.644 320.083 137.087C319.915 136.527 319.673 136.103 319.356 135.815C319.043 135.524 318.67 135.378 318.236 135.378C317.581 135.378 317.067 135.701 316.693 136.347C316.32 136.992 316.131 137.921 316.128 139.133C316.128 139.944 316.212 140.629 316.38 141.189C316.551 141.746 316.793 142.168 317.106 142.456C317.419 142.741 317.796 142.884 318.236 142.884ZM324.435 142.784C324.175 142.784 323.952 142.692 323.765 142.509C323.579 142.322 323.485 142.097 323.485 141.835C323.485 141.575 323.579 141.353 323.765 141.17C323.952 140.983 324.175 140.89 324.435 140.89C324.694 140.89 324.917 140.983 325.104 141.17C325.291 141.353 325.384 141.575 325.384 141.835C325.384 142.009 325.34 142.168 325.251 142.314C325.166 142.456 325.052 142.57 324.909 142.656C324.767 142.741 324.609 142.784 324.435 142.784ZM324.435 137.913C324.175 137.913 323.952 137.822 323.765 137.638C323.579 137.451 323.485 137.227 323.485 136.964C323.485 136.704 323.579 136.483 323.765 136.299C323.952 136.113 324.175 136.019 324.435 136.019C324.694 136.019 324.917 136.113 325.104 136.299C325.291 136.483 325.384 136.704 325.384 136.964C325.384 137.138 325.34 137.298 325.251 137.443C325.166 137.586 325.052 137.7 324.909 137.785C324.767 137.871 324.609 137.913 324.435 137.913ZM327.062 142.091V140.904L331.263 134.268H332.199V136.014H331.605L328.6 140.771V140.847H334.359V142.091H327.062ZM331.672 143.99V141.73L331.681 141.189V134.268H333.072V143.99H331.672ZM336.013 143.99V142.926L339.303 139.518C339.654 139.148 339.944 138.823 340.171 138.545C340.403 138.263 340.575 137.996 340.689 137.742C340.803 137.489 340.86 137.22 340.86 136.935C340.86 136.613 340.784 136.334 340.632 136.1C340.48 135.863 340.273 135.681 340.01 135.554C339.747 135.424 339.452 135.359 339.122 135.359C338.774 135.359 338.47 135.431 338.211 135.573C337.951 135.715 337.752 135.916 337.613 136.176C337.474 136.435 337.404 136.739 337.404 137.087H336.003C336.003 136.496 336.14 135.978 336.412 135.535C336.684 135.092 337.057 134.749 337.532 134.505C338.007 134.258 338.546 134.135 339.151 134.135C339.762 134.135 340.3 134.256 340.765 134.5C341.233 134.741 341.599 135.07 341.861 135.488C342.124 135.902 342.256 136.371 342.256 136.893C342.256 137.253 342.187 137.606 342.051 137.951C341.918 138.296 341.686 138.681 341.354 139.105C341.021 139.526 340.559 140.037 339.967 140.638L338.035 142.661V142.732H342.412V143.99H336.013Z" fill="#21201D"/>
<defs>
<clipPath id="clip0_645_22303">
<rect x="17.9062" y="17.9097" width="324.181" height="29.4583" rx="5.72917" fill="white"/>
</clipPath>
<clipPath id="clip1_645_22303">
<rect width="328" height="46.7882" fill="white" transform="translate(16 64.5555)"/>
</clipPath>
</defs>
</svg>
