<svg width="360" height="175" viewBox="0 0 360 175" fill="none" xmlns="http://www.w3.org/2000/svg">
<rect width="360" height="175" fill="white"/>
<rect x="16" y="16" width="328" height="65" rx="6" fill="#F8F8F7"/>
<path d="M34.6719 34.4929C34.6188 34.0223 34.4001 33.6577 34.0156 33.3991C33.6312 33.1373 33.1473 33.0064 32.5639 33.0064C32.1463 33.0064 31.785 33.0727 31.4801 33.2053C31.1752 33.3345 30.9382 33.5135 30.7692 33.7422C30.6035 33.9676 30.5206 34.2244 30.5206 34.5128C30.5206 34.7547 30.5769 34.9635 30.6896 35.1392C30.8056 35.3149 30.9564 35.4624 31.142 35.5817C31.331 35.6977 31.5331 35.7955 31.7486 35.875C31.964 35.9512 32.1712 36.0142 32.37 36.0639L33.3643 36.3224C33.6892 36.402 34.0223 36.5097 34.3636 36.6456C34.705 36.7815 35.0215 36.9605 35.3132 37.1825C35.6049 37.4046 35.8402 37.6797 36.0192 38.0078C36.2015 38.3359 36.2926 38.7287 36.2926 39.1861C36.2926 39.7628 36.1435 40.2749 35.8452 40.7223C35.5502 41.1697 35.121 41.5227 34.5575 41.7812C33.9974 42.0398 33.3196 42.169 32.5241 42.169C31.7618 42.169 31.1023 42.0481 30.5455 41.8061C29.9886 41.5642 29.5528 41.2211 29.2379 40.777C28.9231 40.3295 28.7491 39.7992 28.7159 39.1861H30.2571C30.2869 39.554 30.4063 39.8606 30.6151 40.1058C30.8272 40.3478 31.0973 40.5284 31.4254 40.6477C31.7569 40.7637 32.1198 40.8217 32.5142 40.8217C32.9484 40.8217 33.3345 40.7538 33.6726 40.6179C34.014 40.4787 34.2824 40.2865 34.478 40.0412C34.6735 39.7926 34.7713 39.5026 34.7713 39.1712C34.7713 38.8696 34.6851 38.6226 34.5128 38.4304C34.3438 38.2382 34.1134 38.0791 33.8217 37.9531C33.5334 37.8272 33.2069 37.7161 32.8423 37.62L31.6392 37.2919C30.8239 37.0698 30.1776 36.7434 29.7003 36.3125C29.2263 35.8816 28.9893 35.3116 28.9893 34.6023C28.9893 34.0156 29.1484 33.5036 29.4666 33.0661C29.7848 32.6286 30.2157 32.2888 30.7592 32.0469C31.3028 31.8016 31.916 31.679 32.5987 31.679C33.2881 31.679 33.8963 31.8 34.4233 32.0419C34.9536 32.2839 35.3712 32.617 35.6761 33.0412C35.9811 33.4621 36.1402 33.946 36.1534 34.4929H34.6719ZM38.0091 44.8636V34.3636H39.4608V35.6016H39.585C39.6712 35.4425 39.7955 35.2585 39.9579 35.0497C40.1203 34.8409 40.3457 34.6586 40.6341 34.5028C40.9224 34.3438 41.3036 34.2642 41.7775 34.2642C42.394 34.2642 42.9442 34.42 43.4281 34.7315C43.912 35.0431 44.2915 35.4922 44.5666 36.0788C44.845 36.6655 44.9842 37.3714 44.9842 38.1967C44.9842 39.022 44.8467 39.7296 44.5716 40.3196C44.2965 40.9062 43.9186 41.3587 43.438 41.6768C42.9574 41.9917 42.4089 42.1491 41.7924 42.1491C41.3284 42.1491 40.9489 42.0713 40.6539 41.9155C40.3623 41.7597 40.1336 41.5774 39.9679 41.3686C39.8021 41.1598 39.6745 40.9742 39.585 40.8118H39.4956V44.8636H38.0091ZM39.4657 38.1818C39.4657 38.7187 39.5436 39.1894 39.6994 39.5938C39.8552 39.9981 40.0806 40.3146 40.3755 40.5433C40.6705 40.7687 41.0318 40.8814 41.4593 40.8814C41.9035 40.8814 42.2747 40.7637 42.573 40.5284C42.8713 40.2898 43.0967 39.9666 43.2491 39.5589C43.4049 39.1513 43.4828 38.6922 43.4828 38.1818C43.4828 37.678 43.4065 37.2256 43.2541 36.8246C43.1049 36.4235 42.8796 36.107 42.5779 35.875C42.2797 35.643 41.9068 35.527 41.4593 35.527C41.0285 35.527 40.6639 35.638 40.3656 35.8601C40.0706 36.0821 39.8469 36.392 39.6944 36.7898C39.542 37.1875 39.4657 37.6515 39.4657 38.1818ZM46.6497 42V34.3636H48.0865V35.5767H48.166C48.3052 35.1657 48.5505 34.8426 48.9018 34.6072C49.2565 34.3686 49.6575 34.2493 50.1049 34.2493C50.1977 34.2493 50.3071 34.2526 50.4331 34.2592C50.5623 34.2659 50.6634 34.2741 50.7363 34.2841V35.706C50.6767 35.6894 50.5706 35.6712 50.4181 35.6513C50.2657 35.6281 50.1132 35.6165 49.9608 35.6165C49.6094 35.6165 49.2962 35.6911 49.0211 35.8402C48.7493 35.986 48.5339 36.1899 48.3748 36.4517C48.2157 36.7102 48.1362 37.0052 48.1362 37.3366V42H46.6497ZM52.0227 42V34.3636H53.5092V42H52.0227ZM52.7734 33.1854C52.5149 33.1854 52.2929 33.0992 52.1072 32.9268C51.925 32.7512 51.8338 32.5424 51.8338 32.3004C51.8338 32.0552 51.925 31.8464 52.1072 31.674C52.2929 31.4983 52.5149 31.4105 52.7734 31.4105C53.032 31.4105 53.2524 31.4983 53.4347 31.674C53.6203 31.8464 53.7131 32.0552 53.7131 32.3004C53.7131 32.5424 53.6203 32.7512 53.4347 32.9268C53.2524 33.0992 53.032 33.1854 52.7734 33.1854ZM56.9956 37.4659V42H55.5091V34.3636H56.9359V35.6065H57.0304C57.206 35.2022 57.4811 34.8774 57.8556 34.6321C58.2335 34.3868 58.7091 34.2642 59.2825 34.2642C59.8029 34.2642 60.2586 34.3736 60.6497 34.5923C61.0408 34.8078 61.344 35.1293 61.5595 35.5568C61.7749 35.9844 61.8826 36.513 61.8826 37.1428V42H60.3961V37.3217C60.3961 36.7682 60.252 36.3357 59.9636 36.0241C59.6752 35.7093 59.2792 35.5518 58.7754 35.5518C58.4307 35.5518 58.1241 35.6264 57.8556 35.7756C57.5905 35.9247 57.38 36.1435 57.2243 36.4318C57.0718 36.7169 56.9956 37.0616 56.9956 37.4659ZM67.0779 45.0227C66.4714 45.0227 65.9494 44.9432 65.5119 44.7841C65.0777 44.625 64.7231 44.4145 64.448 44.1527C64.1729 43.8909 63.9674 43.6042 63.8315 43.2926L65.1092 42.7656C65.1987 42.9115 65.318 43.0656 65.4672 43.228C65.6196 43.3937 65.8251 43.5346 66.0836 43.6506C66.3455 43.7666 66.6819 43.8246 67.0929 43.8246C67.6563 43.8246 68.122 43.687 68.4899 43.4119C68.8578 43.1402 69.0417 42.706 69.0417 42.1094V40.608H68.9473C68.8578 40.7704 68.7285 40.951 68.5595 41.1499C68.3938 41.3487 68.1651 41.5211 67.8734 41.6669C67.5817 41.8127 67.2022 41.8857 66.7349 41.8857C66.1317 41.8857 65.5881 41.7448 65.1042 41.4631C64.6236 41.178 64.2425 40.7588 63.9608 40.2053C63.6824 39.6484 63.5431 38.964 63.5431 38.152C63.5431 37.34 63.6807 36.6439 63.9558 36.0639C64.2342 35.4839 64.6154 35.0398 65.0993 34.7315C65.5832 34.42 66.1317 34.2642 66.7449 34.2642C67.2188 34.2642 67.6016 34.3438 67.8933 34.5028C68.185 34.6586 68.412 34.8409 68.5744 35.0497C68.7401 35.2585 68.8677 35.4425 68.9572 35.6016H69.0666V34.3636H70.5233V42.169C70.5233 42.8253 70.3708 43.3639 70.0659 43.7848C69.7609 44.2057 69.3483 44.5173 68.8279 44.7195C68.3109 44.9216 67.7276 45.0227 67.0779 45.0227ZM67.063 40.6527C67.4906 40.6527 67.8519 40.5533 68.1468 40.3544C68.4451 40.1522 68.6705 39.8639 68.823 39.4893C68.9788 39.1115 69.0566 38.6591 69.0566 38.1321C69.0566 37.6184 68.9804 37.166 68.8279 36.7749C68.6755 36.3838 68.4518 36.0788 68.1568 35.8601C67.8618 35.638 67.4972 35.527 67.063 35.527C66.6156 35.527 66.2427 35.643 65.9444 35.875C65.6461 36.1037 65.4208 36.4152 65.2683 36.8097C65.1191 37.2041 65.0446 37.6449 65.0446 38.1321C65.0446 38.6326 65.1208 39.0717 65.2733 39.4496C65.4257 39.8274 65.6511 40.1224 65.9494 40.3345C66.251 40.5466 66.6222 40.6527 67.063 40.6527ZM76.3413 31.8182H78.2056L81.4471 39.733H81.5664L84.8079 31.8182H86.6722V42H85.2106V34.6321H85.1161L82.1133 41.9851H80.9002L77.8974 34.6271H77.8029V42H76.3413V31.8182ZM92.0776 42.1541C91.3252 42.1541 90.6773 41.9934 90.1337 41.6719C89.5935 41.3471 89.1758 40.8913 88.8809 40.3047C88.5892 39.7147 88.4434 39.0237 88.4434 38.2315C88.4434 37.4493 88.5892 36.7599 88.8809 36.1634C89.1758 35.5668 89.5868 35.1011 90.1138 34.7663C90.6441 34.4316 91.2639 34.2642 91.9732 34.2642C92.4041 34.2642 92.8217 34.3355 93.226 34.478C93.6304 34.6205 93.9933 34.8442 94.3148 35.1491C94.6363 35.4541 94.8899 35.8501 95.0755 36.3374C95.2611 36.8213 95.3539 37.4096 95.3539 38.1023V38.6293H89.2836V37.5156H93.8972C93.8972 37.1245 93.8176 36.7782 93.6586 36.4766C93.4995 36.1716 93.2757 35.9313 92.9874 35.7557C92.7024 35.58 92.3676 35.4922 91.9831 35.4922C91.5655 35.4922 91.2009 35.5949 90.8894 35.8004C90.5811 36.0026 90.3425 36.2678 90.1735 36.5959C90.0078 36.9207 89.9249 37.2737 89.9249 37.6548V38.5249C89.9249 39.0353 90.0144 39.4695 90.1934 39.8274C90.3757 40.1854 90.6292 40.4588 90.954 40.6477C91.2788 40.8333 91.6583 40.9261 92.0925 40.9261C92.3742 40.9261 92.6311 40.8864 92.8631 40.8068C93.0951 40.724 93.2956 40.6013 93.4647 40.4389C93.6337 40.2765 93.763 40.076 93.8525 39.8374L95.2594 40.0909C95.1467 40.5052 94.9445 40.8681 94.6529 41.1797C94.3645 41.4879 94.0016 41.7282 93.5641 41.9006C93.1299 42.0696 92.6344 42.1541 92.0776 42.1541ZM99.8619 42.1491C99.2454 42.1491 98.6952 41.9917 98.2113 41.6768C97.7307 41.3587 97.3529 40.9062 97.0778 40.3196C96.806 39.7296 96.6701 39.022 96.6701 38.1967C96.6701 37.3714 96.8076 36.6655 97.0827 36.0788C97.3612 35.4922 97.7423 35.0431 98.2262 34.7315C98.7101 34.42 99.2586 34.2642 99.8718 34.2642C100.346 34.2642 100.727 34.3438 101.015 34.5028C101.307 34.6586 101.532 34.8409 101.691 35.0497C101.854 35.2585 101.98 35.4425 102.069 35.6016H102.159V31.8182H103.645V42H102.194V40.8118H102.069C101.98 40.9742 101.85 41.1598 101.681 41.3686C101.516 41.5774 101.287 41.7597 100.995 41.9155C100.704 42.0713 100.326 42.1491 99.8619 42.1491ZM100.19 40.8814C100.618 40.8814 100.979 40.7687 101.274 40.5433C101.572 40.3146 101.797 39.9981 101.95 39.5938C102.106 39.1894 102.184 38.7187 102.184 38.1818C102.184 37.6515 102.107 37.1875 101.955 36.7898C101.802 36.392 101.579 36.0821 101.284 35.8601C100.989 35.638 100.624 35.527 100.19 35.527C99.7425 35.527 99.3697 35.643 99.0714 35.875C98.7731 36.107 98.5477 36.4235 98.3952 36.8246C98.2461 37.2256 98.1715 37.678 98.1715 38.1818C98.1715 38.6922 98.2478 39.1513 98.4002 39.5589C98.5527 39.9666 98.7781 40.2898 99.0763 40.5284C99.378 40.7637 99.7492 40.8814 100.19 40.8814ZM105.767 42V34.3636H107.253V42H105.767ZM106.518 33.1854C106.259 33.1854 106.037 33.0992 105.851 32.9268C105.669 32.7512 105.578 32.5424 105.578 32.3004C105.578 32.0552 105.669 31.8464 105.851 31.674C106.037 31.4983 106.259 31.4105 106.518 31.4105C106.776 31.4105 106.997 31.4983 107.179 31.674C107.364 31.8464 107.457 32.0552 107.457 32.3004C107.457 32.5424 107.364 32.7512 107.179 32.9268C106.997 33.0992 106.776 33.1854 106.518 33.1854ZM112.47 42.1541C111.731 42.1541 111.094 41.9867 110.561 41.652C110.03 41.3139 109.623 40.8482 109.338 40.255C109.053 39.6617 108.91 38.9822 108.91 38.2166C108.91 37.4411 109.056 36.7566 109.348 36.1634C109.639 35.5668 110.05 35.1011 110.581 34.7663C111.111 34.4316 111.736 34.2642 112.455 34.2642C113.035 34.2642 113.552 34.3719 114.006 34.5874C114.46 34.7995 114.826 35.0978 115.105 35.4822C115.386 35.8667 115.554 36.3158 115.607 36.8295H114.16C114.081 36.4716 113.898 36.1634 113.613 35.9048C113.332 35.6463 112.954 35.517 112.48 35.517C112.065 35.517 111.703 35.6264 111.391 35.8452C111.083 36.0606 110.842 36.3688 110.67 36.7699C110.498 37.1676 110.412 37.6383 110.412 38.1818C110.412 38.7386 110.496 39.2192 110.665 39.6236C110.834 40.0279 111.073 40.3411 111.381 40.5632C111.693 40.7853 112.059 40.8963 112.48 40.8963C112.761 40.8963 113.017 40.8449 113.245 40.7422C113.477 40.6361 113.671 40.4853 113.827 40.2898C113.986 40.0942 114.097 39.8589 114.16 39.5838H115.607C115.554 40.0777 115.393 40.5185 115.125 40.9062C114.856 41.294 114.497 41.599 114.046 41.821C113.598 42.0431 113.073 42.1541 112.47 42.1541ZM119.419 42.169C118.935 42.169 118.497 42.0795 118.106 41.9006C117.715 41.7183 117.405 41.4548 117.177 41.1101C116.951 40.7654 116.839 40.3428 116.839 39.8423C116.839 39.4115 116.921 39.0568 117.087 38.7784C117.253 38.5 117.477 38.2796 117.758 38.1172C118.04 37.9548 118.355 37.8321 118.703 37.7493C119.051 37.6664 119.406 37.6035 119.767 37.5604C120.224 37.5073 120.595 37.4643 120.881 37.4311C121.166 37.3946 121.373 37.3366 121.502 37.2571C121.631 37.1776 121.696 37.0483 121.696 36.8693V36.8345C121.696 36.4003 121.573 36.0639 121.328 35.8253C121.086 35.5866 120.725 35.4673 120.244 35.4673C119.744 35.4673 119.349 35.5784 119.061 35.8004C118.776 36.0192 118.579 36.2628 118.469 36.5312L117.072 36.2131C117.238 35.7491 117.48 35.3745 117.798 35.0895C118.12 34.8011 118.489 34.5923 118.907 34.4631C119.324 34.3305 119.764 34.2642 120.224 34.2642C120.529 34.2642 120.852 34.3007 121.194 34.3736C121.538 34.4432 121.86 34.5724 122.158 34.7614C122.46 34.9503 122.707 35.2204 122.899 35.5717C123.091 35.9197 123.187 36.3722 123.187 36.929V42H121.736V40.956H121.676C121.58 41.1482 121.436 41.3371 121.243 41.5227C121.051 41.7083 120.804 41.8625 120.503 41.9851C120.201 42.1077 119.84 42.169 119.419 42.169ZM119.742 40.9759C120.153 40.9759 120.504 40.8946 120.796 40.7322C121.091 40.5698 121.315 40.3577 121.467 40.0959C121.623 39.8307 121.701 39.5473 121.701 39.2457V38.2614C121.648 38.3144 121.545 38.3641 121.393 38.4105C121.243 38.4536 121.073 38.4917 120.881 38.5249C120.688 38.5547 120.501 38.5829 120.319 38.6094C120.136 38.6326 119.984 38.6525 119.861 38.669C119.573 38.7055 119.309 38.7668 119.071 38.853C118.836 38.9392 118.647 39.0634 118.504 39.2259C118.365 39.3849 118.295 39.5971 118.295 39.8622C118.295 40.2301 118.431 40.5085 118.703 40.6974C118.975 40.883 119.321 40.9759 119.742 40.9759ZM126.654 31.8182V42H125.167V31.8182H126.654Z" fill="#21201D"/>
<path d="M32.375 65H29.233V54.8182H32.5142C33.5019 54.8182 34.3471 55.022 35.0497 55.4297C35.7524 55.834 36.291 56.4157 36.6655 57.1747C37.04 57.9304 37.2273 58.8352 37.2273 59.8892C37.2273 60.9498 37.0384 61.8629 36.6605 62.6286C36.2827 63.3909 35.7325 63.9775 35.0099 64.3885C34.2874 64.7962 33.4091 65 32.375 65ZM30.4659 63.9062H32.2955C33.1373 63.9062 33.835 63.7438 34.3885 63.419C34.942 63.0942 35.3546 62.6319 35.6264 62.032C35.8982 61.4321 36.0341 60.7178 36.0341 59.8892C36.0341 59.0672 35.8999 58.3596 35.6314 57.7663C35.3629 57.1697 34.9619 56.7124 34.4283 56.3942C33.8946 56.0727 33.2301 55.9119 32.4347 55.9119H30.4659V63.9062ZM42.3381 65.1591C41.6023 65.1591 40.9676 64.9967 40.4339 64.6719C39.9036 64.3438 39.4943 63.8864 39.206 63.2997C38.9209 62.7098 38.7784 62.0237 38.7784 61.2415C38.7784 60.4593 38.9209 59.7699 39.206 59.1733C39.4943 58.5734 39.8954 58.1061 40.4091 57.7713C40.9261 57.4332 41.5294 57.2642 42.2188 57.2642C42.6165 57.2642 43.0092 57.3305 43.397 57.4631C43.7848 57.5956 44.1378 57.8111 44.456 58.1094C44.7741 58.4044 45.0277 58.7955 45.2166 59.2827C45.4055 59.7699 45.5 60.3698 45.5 61.0824V61.5795H39.6136V60.5653H44.3068C44.3068 60.1345 44.2206 59.75 44.0483 59.4119C43.8793 59.0739 43.6373 58.8071 43.3224 58.6115C43.0109 58.416 42.643 58.3182 42.2188 58.3182C41.7514 58.3182 41.3471 58.4342 41.0057 58.6662C40.6676 58.8949 40.4074 59.1932 40.2251 59.5611C40.0429 59.929 39.9517 60.3234 39.9517 60.7443V61.4205C39.9517 61.9972 40.0511 62.486 40.25 62.8871C40.4522 63.2848 40.7322 63.5881 41.0902 63.7969C41.4482 64.0024 41.8641 64.1051 42.3381 64.1051C42.6463 64.1051 42.9247 64.062 43.1733 63.9759C43.4252 63.8864 43.6423 63.7538 43.8246 63.5781C44.0069 63.3991 44.1477 63.1771 44.2472 62.9119L45.3807 63.2301C45.2614 63.6146 45.0608 63.9527 44.7791 64.2443C44.4974 64.5327 44.1494 64.758 43.7351 64.9205C43.3208 65.0795 42.8551 65.1591 42.3381 65.1591ZM48.4581 60.4062V65H47.2848V57.3636H48.4183V58.5568H48.5178C48.6967 58.169 48.9685 57.8575 49.3331 57.6222C49.6977 57.3835 50.1683 57.2642 50.745 57.2642C51.2621 57.2642 51.7145 57.3703 52.1023 57.5824C52.4901 57.7912 52.7917 58.1094 53.0071 58.5369C53.2225 58.9612 53.3303 59.4981 53.3303 60.1477V65H52.157V60.2273C52.157 59.6274 52.0012 59.16 51.6896 58.8253C51.3781 58.4872 50.9505 58.3182 50.407 58.3182C50.0324 58.3182 49.6977 58.3994 49.4027 58.5618C49.111 58.7242 48.8807 58.9612 48.7116 59.2727C48.5426 59.5843 48.4581 59.9621 48.4581 60.4062ZM61.4451 57.3636L58.6213 65H57.4281L54.6042 57.3636H55.877L57.9849 63.4489H58.0645L60.1724 57.3636H61.4451ZM65.9221 65.1591C65.1863 65.1591 64.5516 64.9967 64.0179 64.6719C63.4876 64.3438 63.0783 63.8864 62.79 63.2997C62.5049 62.7098 62.3624 62.0237 62.3624 61.2415C62.3624 60.4593 62.5049 59.7699 62.79 59.1733C63.0783 58.5734 63.4793 58.1061 63.9931 57.7713C64.5101 57.4332 65.1133 57.2642 65.8027 57.2642C66.2005 57.2642 66.5932 57.3305 66.981 57.4631C67.3688 57.5956 67.7218 57.8111 68.04 58.1094C68.3581 58.4044 68.6117 58.7955 68.8006 59.2827C68.9895 59.7699 69.084 60.3698 69.084 61.0824V61.5795H63.1976V60.5653H67.8908C67.8908 60.1345 67.8046 59.75 67.6323 59.4119C67.4632 59.0739 67.2213 58.8071 66.9064 58.6115C66.5949 58.416 66.227 58.3182 65.8027 58.3182C65.3354 58.3182 64.931 58.4342 64.5897 58.6662C64.2516 58.8949 63.9914 59.1932 63.8091 59.5611C63.6268 59.929 63.5357 60.3234 63.5357 60.7443V61.4205C63.5357 61.9972 63.6351 62.486 63.834 62.8871C64.0362 63.2848 64.3162 63.5881 64.6742 63.7969C65.0321 64.0024 65.4481 64.1051 65.9221 64.1051C66.2303 64.1051 66.5087 64.062 66.7573 63.9759C67.0092 63.8864 67.2263 63.7538 67.4086 63.5781C67.5909 63.3991 67.7317 63.1771 67.8311 62.9119L68.9647 63.2301C68.8453 63.6146 68.6448 63.9527 68.3631 64.2443C68.0814 64.5327 67.7334 64.758 67.3191 64.9205C66.9048 65.0795 66.4391 65.1591 65.9221 65.1591ZM70.8688 65V57.3636H72.0023V58.517H72.0819C72.2211 58.1392 72.473 57.8326 72.8375 57.5973C73.2021 57.362 73.6131 57.2443 74.0705 57.2443C74.1567 57.2443 74.2644 57.246 74.3936 57.2493C74.5229 57.2526 74.6207 57.2576 74.687 57.2642V58.4574C74.6472 58.4474 74.556 58.4325 74.4135 58.4126C74.2743 58.3894 74.1268 58.3778 73.9711 58.3778C73.5998 58.3778 73.2684 58.4557 72.9767 58.6115C72.6884 58.764 72.4597 58.9761 72.2907 59.2479C72.1249 59.5163 72.0421 59.8229 72.0421 60.1676V65H70.8688ZM76.9528 63.608L76.8732 64.1449C76.8169 64.5227 76.7307 64.9271 76.6147 65.358C76.502 65.7888 76.3844 66.1948 76.2617 66.576C76.1391 66.9571 76.038 67.2604 75.9585 67.4858H75.0636C75.1067 67.2737 75.163 66.9936 75.2326 66.6456C75.3022 66.2976 75.3718 65.9081 75.4414 65.4773C75.5143 65.0497 75.574 64.6122 75.6204 64.1648L75.68 63.608H76.9528ZM91.4164 58H90.1834C90.1105 57.6454 89.9829 57.3338 89.8006 57.0653C89.6216 56.7969 89.4029 56.5715 89.1444 56.3892C88.8891 56.2036 88.6058 56.0644 88.2942 55.9716C87.9827 55.8788 87.6578 55.8324 87.3198 55.8324C86.7033 55.8324 86.1448 55.9882 85.6444 56.2997C85.1472 56.6113 84.7511 57.0703 84.4561 57.6768C84.1645 58.2834 84.0186 59.0275 84.0186 59.9091C84.0186 60.7907 84.1645 61.5348 84.4561 62.1413C84.7511 62.7479 85.1472 63.2069 85.6444 63.5185C86.1448 63.83 86.7033 63.9858 87.3198 63.9858C87.6578 63.9858 87.9827 63.9394 88.2942 63.8466C88.6058 63.7538 88.8891 63.6162 89.1444 63.4339C89.4029 63.2483 89.6216 63.0213 89.8006 62.7528C89.9829 62.4811 90.1105 62.1695 90.1834 61.8182H91.4164C91.3236 62.3385 91.1545 62.8042 90.9093 63.2152C90.664 63.6262 90.3591 63.9759 89.9945 64.2642C89.6299 64.5492 89.2206 64.7663 88.7665 64.9155C88.3158 65.0646 87.8335 65.1392 87.3198 65.1392C86.4514 65.1392 85.6792 64.9271 85.003 64.5028C84.3269 64.0786 83.7949 63.4754 83.4071 62.6932C83.0194 61.911 82.8255 60.983 82.8255 59.9091C82.8255 58.8352 83.0194 57.9072 83.4071 57.125C83.7949 56.3428 84.3269 55.7396 85.003 55.3153C85.6792 54.8911 86.4514 54.679 87.3198 54.679C87.8335 54.679 88.3158 54.7536 88.7665 54.9027C89.2206 55.0518 89.6299 55.2706 89.9945 55.5589C90.3591 55.844 90.664 56.192 90.9093 56.603C91.1545 57.0107 91.3236 57.4763 91.4164 58ZM102 59.9091C102 60.983 101.806 61.911 101.418 62.6932C101.03 63.4754 100.498 64.0786 99.8221 64.5028C99.146 64.9271 98.3737 65.1392 97.5053 65.1392C96.637 65.1392 95.8647 64.9271 95.1886 64.5028C94.5124 64.0786 93.9805 63.4754 93.5927 62.6932C93.2049 61.911 93.011 60.983 93.011 59.9091C93.011 58.8352 93.2049 57.9072 93.5927 57.125C93.9805 56.3428 94.5124 55.7396 95.1886 55.3153C95.8647 54.8911 96.637 54.679 97.5053 54.679C98.3737 54.679 99.146 54.8911 99.8221 55.3153C100.498 55.7396 101.03 56.3428 101.418 57.125C101.806 57.9072 102 58.8352 102 59.9091ZM100.806 59.9091C100.806 59.0275 100.659 58.2834 100.364 57.6768C100.072 57.0703 99.6763 56.6113 99.1758 56.2997C98.6786 55.9882 98.1218 55.8324 97.5053 55.8324C96.8888 55.8324 96.3304 55.9882 95.8299 56.2997C95.3327 56.6113 94.9367 57.0703 94.6417 57.6768C94.35 58.2834 94.2042 59.0275 94.2042 59.9091C94.2042 60.7907 94.35 61.5348 94.6417 62.1413C94.9367 62.7479 95.3327 63.2069 95.8299 63.5185C96.3304 63.83 96.8888 63.9858 97.5053 63.9858C98.1218 63.9858 98.6786 63.83 99.1758 63.5185C99.6763 63.2069 100.072 62.7479 100.364 62.1413C100.659 61.5348 100.806 60.7907 100.806 59.9091Z" fill="#666561"/>
<path d="M289.426 46.5H288.193C288.12 46.1454 287.993 45.8338 287.81 45.5653C287.631 45.2969 287.413 45.0715 287.154 44.8892C286.899 44.7036 286.616 44.5644 286.304 44.4716C285.992 44.3788 285.668 44.3324 285.33 44.3324C284.713 44.3324 284.155 44.4882 283.654 44.7997C283.157 45.1113 282.761 45.5703 282.466 46.1768C282.174 46.7834 282.028 47.5275 282.028 48.4091C282.028 49.2907 282.174 50.0348 282.466 50.6413C282.761 51.2479 283.157 51.7069 283.654 52.0185C284.155 52.33 284.713 52.4858 285.33 52.4858C285.668 52.4858 285.992 52.4394 286.304 52.3466C286.616 52.2538 286.899 52.1162 287.154 51.9339C287.413 51.7483 287.631 51.5213 287.81 51.2528C287.993 50.9811 288.12 50.6695 288.193 50.3182H289.426C289.333 50.8385 289.164 51.3042 288.919 51.7152C288.674 52.1262 288.369 52.4759 288.004 52.7642C287.64 53.0492 287.23 53.2663 286.776 53.4155C286.326 53.5646 285.843 53.6392 285.33 53.6392C284.461 53.6392 283.689 53.4271 283.013 53.0028C282.337 52.5786 281.805 51.9754 281.417 51.1932C281.029 50.411 280.835 49.483 280.835 48.4091C280.835 47.3352 281.029 46.4072 281.417 45.625C281.805 44.8428 282.337 44.2396 283.013 43.8153C283.689 43.3911 284.461 43.179 285.33 43.179C285.843 43.179 286.326 43.2536 286.776 43.4027C287.23 43.5518 287.64 43.7706 288.004 44.0589C288.369 44.344 288.674 44.692 288.919 45.103C289.164 45.5107 289.333 45.9763 289.426 46.5ZM292.433 48.9062V53.5H291.259V43.3182H292.433V47.0568H292.532C292.711 46.6624 292.98 46.3492 293.338 46.1172C293.699 45.8819 294.179 45.7642 294.779 45.7642C295.3 45.7642 295.755 45.8686 296.146 46.0774C296.538 46.2829 296.841 46.5994 297.056 47.027C297.275 47.4512 297.384 47.9915 297.384 48.6477V53.5H296.211V48.7273C296.211 48.1207 296.054 47.6518 295.739 47.3203C295.427 46.9856 294.995 46.8182 294.441 46.8182C294.057 46.8182 293.712 46.8994 293.407 47.0618C293.106 47.2242 292.867 47.4612 292.691 47.7727C292.519 48.0843 292.433 48.4621 292.433 48.9062ZM301.778 53.679C301.294 53.679 300.855 53.5878 300.461 53.4055C300.066 53.2199 299.753 52.9531 299.521 52.6051C299.289 52.2538 299.173 51.8295 299.173 51.3324C299.173 50.8949 299.259 50.5402 299.431 50.2685C299.604 49.9934 299.834 49.7779 300.123 49.6222C300.411 49.4664 300.729 49.3504 301.077 49.2741C301.428 49.1946 301.781 49.1316 302.136 49.0852C302.6 49.0256 302.976 48.9808 303.265 48.951C303.556 48.9179 303.768 48.8632 303.901 48.7869C304.037 48.7107 304.105 48.5781 304.105 48.3892V48.3494C304.105 47.8589 303.971 47.4777 303.702 47.206C303.437 46.9342 303.034 46.7983 302.494 46.7983C301.934 46.7983 301.495 46.9209 301.176 47.1662C300.858 47.4115 300.635 47.6733 300.505 47.9517L299.392 47.554C299.591 47.09 299.856 46.7287 300.187 46.4702C300.522 46.2083 300.886 46.026 301.281 45.9233C301.679 45.8172 302.07 45.7642 302.454 45.7642C302.699 45.7642 302.981 45.794 303.299 45.8537C303.621 45.91 303.931 46.0277 304.229 46.2067C304.531 46.3857 304.781 46.6558 304.98 47.017C305.179 47.3783 305.278 47.8622 305.278 48.4688V53.5H304.105V52.4659H304.045C303.966 52.6316 303.833 52.8089 303.647 52.9979C303.462 53.1868 303.215 53.3475 302.907 53.4801C302.598 53.6127 302.222 53.679 301.778 53.679ZM301.957 52.625C302.421 52.625 302.812 52.5339 303.13 52.3516C303.452 52.1693 303.694 51.9339 303.856 51.6456C304.022 51.3572 304.105 51.054 304.105 50.7358V49.6619C304.055 49.7216 303.946 49.7763 303.777 49.826C303.611 49.8724 303.419 49.9138 303.2 49.9503C302.984 49.9834 302.774 50.0133 302.569 50.0398C302.366 50.063 302.202 50.0829 302.076 50.0994C301.771 50.1392 301.486 50.2038 301.221 50.2933C300.959 50.3795 300.747 50.5104 300.585 50.6861C300.426 50.8584 300.346 51.0937 300.346 51.392C300.346 51.7997 300.497 52.108 300.799 52.3168C301.104 52.5223 301.49 52.625 301.957 52.625ZM308.593 48.9062V53.5H307.42V45.8636H308.553V47.0568H308.653C308.831 46.669 309.103 46.3575 309.468 46.1222C309.832 45.8835 310.303 45.7642 310.88 45.7642C311.397 45.7642 311.849 45.8703 312.237 46.0824C312.625 46.2912 312.926 46.6094 313.142 47.0369C313.357 47.4612 313.465 47.9981 313.465 48.6477V53.5H312.292V48.7273C312.292 48.1274 312.136 47.66 311.824 47.3253C311.513 46.9872 311.085 46.8182 310.542 46.8182C310.167 46.8182 309.832 46.8994 309.537 47.0618C309.246 47.2242 309.015 47.4612 308.846 47.7727C308.677 48.0843 308.593 48.4621 308.593 48.9062ZM318.691 56.5227C318.125 56.5227 317.637 56.4498 317.23 56.304C316.822 56.1615 316.482 55.9725 316.211 55.7372C315.942 55.5052 315.728 55.2566 315.569 54.9915L316.504 54.3352C316.61 54.4744 316.744 54.6335 316.907 54.8125C317.069 54.9948 317.291 55.1522 317.573 55.2848C317.858 55.4207 318.231 55.4886 318.691 55.4886C319.308 55.4886 319.817 55.3395 320.218 55.0412C320.619 54.7429 320.819 54.2756 320.819 53.6392V52.0881H320.72C320.634 52.2273 320.511 52.3996 320.352 52.6051C320.196 52.8073 319.971 52.9879 319.676 53.147C319.384 53.3028 318.99 53.3807 318.493 53.3807C317.876 53.3807 317.323 53.2348 316.832 52.9432C316.345 52.6515 315.959 52.2273 315.674 51.6705C315.392 51.1136 315.251 50.4375 315.251 49.642C315.251 48.8598 315.389 48.1787 315.664 47.5987C315.939 47.0154 316.322 46.5646 316.812 46.2464C317.303 45.925 317.869 45.7642 318.512 45.7642C319.01 45.7642 319.404 45.8471 319.696 46.0128C319.991 46.1752 320.216 46.3608 320.372 46.5696C320.531 46.7751 320.654 46.9441 320.74 47.0767H320.859V45.8636H321.993V53.7188C321.993 54.375 321.843 54.9086 321.545 55.3196C321.25 55.7339 320.852 56.0372 320.352 56.2294C319.855 56.425 319.301 56.5227 318.691 56.5227ZM318.652 52.3267C319.122 52.3267 319.52 52.219 319.845 52.0036C320.17 51.7881 320.417 51.4782 320.586 51.0739C320.755 50.6695 320.839 50.1856 320.839 49.6222C320.839 49.072 320.756 48.5864 320.591 48.1655C320.425 47.7446 320.18 47.4148 319.855 47.1761C319.53 46.9375 319.129 46.8182 318.652 46.8182C318.154 46.8182 317.74 46.9441 317.409 47.196C317.081 47.4479 316.834 47.786 316.668 48.2102C316.506 48.6345 316.424 49.1051 316.424 49.6222C316.424 50.1525 316.507 50.6214 316.673 51.0291C316.842 51.4335 317.091 51.7517 317.419 51.9837C317.75 52.2124 318.161 52.3267 318.652 52.3267ZM327.342 53.6591C326.606 53.6591 325.971 53.4967 325.438 53.1719C324.908 52.8438 324.498 52.3864 324.21 51.7997C323.925 51.2098 323.782 50.5237 323.782 49.7415C323.782 48.9593 323.925 48.2699 324.21 47.6733C324.498 47.0734 324.899 46.6061 325.413 46.2713C325.93 45.9332 326.533 45.7642 327.223 45.7642C327.62 45.7642 328.013 45.8305 328.401 45.9631C328.789 46.0956 329.142 46.3111 329.46 46.6094C329.778 46.9044 330.032 47.2955 330.221 47.7827C330.409 48.2699 330.504 48.8698 330.504 49.5824V50.0795H324.618V49.0653H329.311C329.311 48.6345 329.225 48.25 329.052 47.9119C328.883 47.5739 328.641 47.3071 328.326 47.1115C328.015 46.916 327.647 46.8182 327.223 46.8182C326.755 46.8182 326.351 46.9342 326.01 47.1662C325.672 47.3949 325.411 47.6932 325.229 48.0611C325.047 48.429 324.956 48.8234 324.956 49.2443V49.9205C324.956 50.4972 325.055 50.986 325.254 51.3871C325.456 51.7848 325.736 52.0881 326.094 52.2969C326.452 52.5024 326.868 52.6051 327.342 52.6051C327.65 52.6051 327.929 52.562 328.177 52.4759C328.429 52.3864 328.646 52.2538 328.828 52.0781C329.011 51.8991 329.152 51.6771 329.251 51.4119L330.385 51.7301C330.265 52.1146 330.065 52.4527 329.783 52.7443C329.501 53.0327 329.153 53.258 328.739 53.4205C328.325 53.5795 327.859 53.6591 327.342 53.6591Z" fill="#1576B6"/>
<path d="M16.6165 102.141V100.818H24.4964V102.141H21.3196V111H19.7884V102.141H16.6165ZM26.1184 111V103.364H27.6049V111H26.1184ZM26.8691 102.185C26.6106 102.185 26.3886 102.099 26.2029 101.927C26.0207 101.751 25.9295 101.542 25.9295 101.3C25.9295 101.055 26.0207 100.846 26.2029 100.674C26.3886 100.498 26.6106 100.411 26.8691 100.411C27.1277 100.411 27.3481 100.498 27.5304 100.674C27.716 100.846 27.8088 101.055 27.8088 101.3C27.8088 101.542 27.716 101.751 27.5304 101.927C27.3481 102.099 27.1277 102.185 26.8691 102.185ZM29.6048 111V103.364H31.0316V104.607H31.1261C31.2852 104.186 31.5453 103.857 31.9066 103.622C32.2679 103.384 32.7004 103.264 33.2042 103.264C33.7146 103.264 34.1422 103.384 34.4869 103.622C34.8349 103.861 35.0917 104.189 35.2575 104.607H35.337C35.5193 104.199 35.8093 103.874 36.207 103.632C36.6048 103.387 37.0787 103.264 37.6289 103.264C38.3216 103.264 38.8867 103.481 39.3242 103.915C39.765 104.35 39.9854 105.004 39.9854 105.879V111H38.4989V106.018C38.4989 105.501 38.3581 105.127 38.0763 104.895C37.7946 104.663 37.4582 104.547 37.0671 104.547C36.5832 104.547 36.207 104.696 35.9386 104.994C35.6701 105.289 35.5359 105.669 35.5359 106.133V111H34.0543V105.924C34.0543 105.51 33.9251 105.177 33.6665 104.925C33.408 104.673 33.0716 104.547 32.6573 104.547C32.3756 104.547 32.1154 104.621 31.8768 104.771C31.6415 104.916 31.4509 105.12 31.305 105.382C31.1625 105.644 31.0913 105.947 31.0913 106.292V111H29.6048ZM45.269 111.154C44.5166 111.154 43.8687 110.993 43.3251 110.672C42.7849 110.347 42.3672 109.891 42.0723 109.305C41.7806 108.715 41.6348 108.024 41.6348 107.232C41.6348 106.449 41.7806 105.76 42.0723 105.163C42.3672 104.567 42.7782 104.101 43.3052 103.766C43.8355 103.432 44.4553 103.264 45.1646 103.264C45.5955 103.264 46.0131 103.335 46.4174 103.478C46.8218 103.621 47.1847 103.844 47.5062 104.149C47.8277 104.454 48.0813 104.85 48.2669 105.337C48.4525 105.821 48.5453 106.41 48.5453 107.102V107.629H42.475V106.516H47.0886C47.0886 106.125 47.0091 105.778 46.85 105.477C46.6909 105.172 46.4672 104.931 46.1788 104.756C45.8938 104.58 45.559 104.492 45.1745 104.492C44.7569 104.492 44.3923 104.595 44.0808 104.8C43.7725 105.003 43.5339 105.268 43.3649 105.596C43.1992 105.921 43.1163 106.274 43.1163 106.655V107.525C43.1163 108.035 43.2058 108.469 43.3848 108.827C43.5671 109.185 43.8206 109.459 44.1454 109.648C44.4702 109.833 44.8497 109.926 45.2839 109.926C45.5656 109.926 45.8225 109.886 46.0545 109.807C46.2865 109.724 46.487 109.601 46.6561 109.439C46.8251 109.277 46.9544 109.076 47.0439 108.837L48.4508 109.091C48.3381 109.505 48.1359 109.868 47.8443 110.18C47.5559 110.488 47.193 110.728 46.7555 110.901C46.3213 111.07 45.8258 111.154 45.269 111.154ZM53.7406 111V109.981L57.877 104.726V104.656H53.8748V103.364H59.7314V104.447L55.7541 109.638V109.707H59.8706V111H53.7406ZM64.6222 111.154C63.9063 111.154 63.2815 110.99 62.7479 110.662C62.2143 110.334 61.8 109.875 61.505 109.285C61.21 108.695 61.0625 108.005 61.0625 107.217C61.0625 106.424 61.21 105.732 61.505 105.138C61.8 104.545 62.2143 104.085 62.7479 103.756C63.2815 103.428 63.9063 103.264 64.6222 103.264C65.3381 103.264 65.9628 103.428 66.4964 103.756C67.0301 104.085 67.4444 104.545 67.7393 105.138C68.0343 105.732 68.1818 106.424 68.1818 107.217C68.1818 108.005 68.0343 108.695 67.7393 109.285C67.4444 109.875 67.0301 110.334 66.4964 110.662C65.9628 110.99 65.3381 111.154 64.6222 111.154ZM64.6271 109.906C65.0911 109.906 65.4756 109.784 65.7805 109.538C66.0855 109.293 66.3108 108.967 66.4567 108.559C66.6058 108.151 66.6804 107.702 66.6804 107.212C66.6804 106.724 66.6058 106.277 66.4567 105.869C66.3108 105.458 66.0855 105.129 65.7805 104.88C65.4756 104.631 65.0911 104.507 64.6271 104.507C64.1598 104.507 63.772 104.631 63.4638 104.88C63.1589 105.129 62.9318 105.458 62.7827 105.869C62.6368 106.277 62.5639 106.724 62.5639 107.212C62.5639 107.702 62.6368 108.151 62.7827 108.559C62.9318 108.967 63.1589 109.293 63.4638 109.538C63.772 109.784 64.1598 109.906 64.6271 109.906ZM71.3276 106.466V111H69.8411V103.364H71.2679V104.607H71.3624C71.5381 104.202 71.8132 103.877 72.1877 103.632C72.5655 103.387 73.0411 103.264 73.6145 103.264C74.1349 103.264 74.5906 103.374 74.9817 103.592C75.3728 103.808 75.6761 104.129 75.8915 104.557C76.1069 104.984 76.2147 105.513 76.2147 106.143V111H74.7282V106.322C74.7282 105.768 74.584 105.336 74.2956 105.024C74.0073 104.709 73.6112 104.552 73.1074 104.552C72.7627 104.552 72.4561 104.626 72.1877 104.776C71.9225 104.925 71.7121 105.143 71.5563 105.432C71.4038 105.717 71.3276 106.062 71.3276 106.466ZM81.4995 111.154C80.7471 111.154 80.0991 110.993 79.5556 110.672C79.0153 110.347 78.5977 109.891 78.3027 109.305C78.0111 108.715 77.8652 108.024 77.8652 107.232C77.8652 106.449 78.0111 105.76 78.3027 105.163C78.5977 104.567 79.0087 104.101 79.5357 103.766C80.066 103.432 80.6858 103.264 81.3951 103.264C81.8259 103.264 82.2435 103.335 82.6479 103.478C83.0523 103.621 83.4152 103.844 83.7367 104.149C84.0582 104.454 84.3117 104.85 84.4973 105.337C84.6829 105.821 84.7757 106.41 84.7757 107.102V107.629H78.7054V106.516H83.3191C83.3191 106.125 83.2395 105.778 83.0804 105.477C82.9213 105.172 82.6976 104.931 82.4093 104.756C82.1242 104.58 81.7895 104.492 81.405 104.492C80.9874 104.492 80.6228 104.595 80.3113 104.8C80.003 105.003 79.7644 105.268 79.5953 105.596C79.4296 105.921 79.3468 106.274 79.3468 106.655V107.525C79.3468 108.035 79.4363 108.469 79.6152 108.827C79.7975 109.185 80.0511 109.459 80.3759 109.648C80.7007 109.833 81.0802 109.926 81.5144 109.926C81.7961 109.926 82.053 109.886 82.285 109.807C82.517 109.724 82.7175 109.601 82.8865 109.439C83.0556 109.277 83.1848 109.076 83.2743 108.837L84.6813 109.091C84.5686 109.505 84.3664 109.868 84.0748 110.18C83.7864 110.488 83.4235 110.728 82.986 110.901C82.5518 111.07 82.0563 111.154 81.4995 111.154Z" fill="#21201D"/>
<path d="M22 123.5H168C171.038 123.5 173.5 125.962 173.5 129V153C173.5 156.038 171.038 158.5 168 158.5H22C18.9624 158.5 16.5 156.038 16.5 153V129C16.5 125.962 18.9624 123.5 22 123.5Z" fill="white"/>
<path d="M22 123.5H168C171.038 123.5 173.5 125.962 173.5 129V153C173.5 156.038 171.038 158.5 168 158.5H22C18.9624 158.5 16.5 156.038 16.5 153V129C16.5 125.962 18.9624 123.5 22 123.5Z" stroke="#E9E8E6"/>
<path d="M37.4261 139H36.1932C36.1203 138.645 35.9927 138.334 35.8104 138.065C35.6314 137.797 35.4126 137.571 35.1541 137.389C34.8989 137.204 34.6155 137.064 34.304 136.972C33.9924 136.879 33.6676 136.832 33.3295 136.832C32.7131 136.832 32.1546 136.988 31.6541 137.3C31.157 137.611 30.7609 138.07 30.4659 138.677C30.1742 139.283 30.0284 140.027 30.0284 140.909C30.0284 141.791 30.1742 142.535 30.4659 143.141C30.7609 143.748 31.157 144.207 31.6541 144.518C32.1546 144.83 32.7131 144.986 33.3295 144.986C33.6676 144.986 33.9924 144.939 34.304 144.847C34.6155 144.754 34.8989 144.616 35.1541 144.434C35.4126 144.248 35.6314 144.021 35.8104 143.753C35.9927 143.481 36.1203 143.17 36.1932 142.818H37.4261C37.3333 143.339 37.1643 143.804 36.919 144.215C36.6738 144.626 36.3688 144.976 36.0043 145.264C35.6397 145.549 35.2304 145.766 34.7763 145.915C34.3255 146.065 33.8433 146.139 33.3295 146.139C32.4612 146.139 31.6889 145.927 31.0128 145.503C30.3366 145.079 29.8047 144.475 29.4169 143.693C29.0291 142.911 28.8352 141.983 28.8352 140.909C28.8352 139.835 29.0291 138.907 29.4169 138.125C29.8047 137.343 30.3366 136.74 31.0128 136.315C31.6889 135.891 32.4612 135.679 33.3295 135.679C33.8433 135.679 34.3255 135.754 34.7763 135.903C35.2304 136.052 35.6397 136.271 36.0043 136.559C36.3688 136.844 36.6738 137.192 36.919 137.603C37.1643 138.011 37.3333 138.476 37.4261 139ZM44.9867 138.364C44.927 137.86 44.6851 137.469 44.2608 137.19C43.8366 136.912 43.3162 136.773 42.6998 136.773C42.249 136.773 41.8546 136.846 41.5165 136.991C41.1818 137.137 40.9199 137.338 40.731 137.593C40.5454 137.848 40.4526 138.138 40.4526 138.463C40.4526 138.735 40.5172 138.969 40.6465 139.164C40.7791 139.356 40.9481 139.517 41.1536 139.646C41.3591 139.772 41.5745 139.877 41.7999 139.96C42.0253 140.039 42.2324 140.104 42.4213 140.153L43.4554 140.432C43.7206 140.501 44.0156 140.598 44.3404 140.72C44.6685 140.843 44.9817 141.01 45.28 141.222C45.5816 141.431 45.8302 141.7 46.0257 142.028C46.2213 142.356 46.3191 142.759 46.3191 143.236C46.3191 143.786 46.1749 144.283 45.8865 144.727C45.6015 145.171 45.1839 145.524 44.6337 145.786C44.0868 146.048 43.4223 146.179 42.6401 146.179C41.9109 146.179 41.2795 146.061 40.7459 145.826C40.2156 145.591 39.798 145.263 39.4931 144.842C39.1915 144.421 39.0208 143.932 38.981 143.375H40.2537C40.2869 143.759 40.4161 144.078 40.6415 144.33C40.8702 144.578 41.1586 144.764 41.5066 144.886C41.8579 145.006 42.2357 145.065 42.6401 145.065C43.1107 145.065 43.5333 144.989 43.9078 144.837C44.2824 144.681 44.579 144.465 44.7978 144.19C45.0165 143.912 45.1259 143.587 45.1259 143.216C45.1259 142.878 45.0314 142.603 44.8425 142.391C44.6536 142.179 44.405 142.006 44.0968 141.874C43.7885 141.741 43.4554 141.625 43.0975 141.526L41.8446 141.168C41.0492 140.939 40.4194 140.612 39.9554 140.188C39.4914 139.764 39.2594 139.209 39.2594 138.523C39.2594 137.953 39.4135 137.455 39.7218 137.031C40.0333 136.604 40.4509 136.272 40.9746 136.037C41.5016 135.798 42.0899 135.679 42.7395 135.679C43.3958 135.679 43.9791 135.797 44.4895 136.032C44.9999 136.264 45.4043 136.582 45.7026 136.987C46.0042 137.391 46.1633 137.85 46.1799 138.364H44.9867ZM47.7894 136.912V135.818H55.4258V136.912H52.2241V146H50.9911V136.912H47.7894Z" fill="#21201D"/>
<path d="M149 144L152 147L155 144" stroke="#8E8C88" stroke-width="1.34" stroke-linecap="round" stroke-linejoin="round"/>
<path d="M149 138L152 135L155 138" stroke="#8E8C88" stroke-width="1.34" stroke-linecap="round" stroke-linejoin="round"/>
<path d="M187.119 111V100.818H190.748C191.54 100.818 192.196 100.962 192.717 101.251C193.237 101.539 193.626 101.933 193.885 102.434C194.143 102.931 194.273 103.491 194.273 104.114C194.273 104.741 194.142 105.304 193.88 105.805C193.621 106.302 193.23 106.696 192.707 106.988C192.186 107.276 191.532 107.42 190.743 107.42H188.247V106.118H190.604C191.104 106.118 191.51 106.032 191.822 105.859C192.133 105.684 192.362 105.445 192.508 105.143C192.654 104.842 192.727 104.499 192.727 104.114C192.727 103.73 192.654 103.388 192.508 103.09C192.362 102.792 192.132 102.558 191.817 102.389C191.505 102.22 191.094 102.136 190.584 102.136H188.655V111H187.119ZM197.441 106.466V111H195.954V100.818H197.421V104.607H197.515C197.694 104.196 197.968 103.869 198.336 103.627C198.704 103.385 199.184 103.264 199.778 103.264C200.301 103.264 200.759 103.372 201.15 103.587C201.544 103.803 201.849 104.124 202.064 104.552C202.283 104.976 202.393 105.506 202.393 106.143V111H200.906V106.322C200.906 105.762 200.762 105.327 200.474 105.019C200.185 104.708 199.784 104.552 199.27 104.552C198.919 104.552 198.604 104.626 198.326 104.776C198.051 104.925 197.834 105.143 197.675 105.432C197.519 105.717 197.441 106.062 197.441 106.466ZM207.593 111.154C206.877 111.154 206.252 110.99 205.719 110.662C205.185 110.334 204.771 109.875 204.476 109.285C204.181 108.695 204.033 108.005 204.033 107.217C204.033 106.424 204.181 105.732 204.476 105.138C204.771 104.545 205.185 104.085 205.719 103.756C206.252 103.428 206.877 103.264 207.593 103.264C208.309 103.264 208.934 103.428 209.467 103.756C210.001 104.085 210.415 104.545 210.71 105.138C211.005 105.732 211.153 106.424 211.153 107.217C211.153 108.005 211.005 108.695 210.71 109.285C210.415 109.875 210.001 110.334 209.467 110.662C208.934 110.99 208.309 111.154 207.593 111.154ZM207.598 109.906C208.062 109.906 208.446 109.784 208.751 109.538C209.056 109.293 209.282 108.967 209.427 108.559C209.577 108.151 209.651 107.702 209.651 107.212C209.651 106.724 209.577 106.277 209.427 105.869C209.282 105.458 209.056 105.129 208.751 104.88C208.446 104.631 208.062 104.507 207.598 104.507C207.131 104.507 206.743 104.631 206.434 104.88C206.13 105.129 205.903 105.458 205.753 105.869C205.608 106.277 205.535 106.724 205.535 107.212C205.535 107.702 205.608 108.151 205.753 108.559C205.903 108.967 206.13 109.293 206.434 109.538C206.743 109.784 207.131 109.906 207.598 109.906ZM214.298 106.466V111H212.812V103.364H214.239V104.607H214.333C214.509 104.202 214.784 103.877 215.158 103.632C215.536 103.387 216.012 103.264 216.585 103.264C217.106 103.264 217.561 103.374 217.952 103.592C218.344 103.808 218.647 104.129 218.862 104.557C219.078 104.984 219.185 105.513 219.185 106.143V111H217.699V106.322C217.699 105.768 217.555 105.336 217.266 105.024C216.978 104.709 216.582 104.552 216.078 104.552C215.733 104.552 215.427 104.626 215.158 104.776C214.893 104.925 214.683 105.143 214.527 105.432C214.375 105.717 214.298 106.062 214.298 106.466ZM224.47 111.154C223.718 111.154 223.07 110.993 222.526 110.672C221.986 110.347 221.568 109.891 221.273 109.305C220.982 108.715 220.836 108.024 220.836 107.232C220.836 106.449 220.982 105.76 221.273 105.163C221.568 104.567 221.979 104.101 222.506 103.766C223.037 103.432 223.656 103.264 224.366 103.264C224.797 103.264 225.214 103.335 225.619 103.478C226.023 103.621 226.386 103.844 226.707 104.149C227.029 104.454 227.282 104.85 227.468 105.337C227.654 105.821 227.746 106.41 227.746 107.102V107.629H221.676V106.516H226.29C226.29 106.125 226.21 105.778 226.051 105.477C225.892 105.172 225.668 104.931 225.38 104.756C225.095 104.58 224.76 104.492 224.376 104.492C223.958 104.492 223.594 104.595 223.282 104.8C222.974 105.003 222.735 105.268 222.566 105.596C222.4 105.921 222.317 106.274 222.317 106.655V107.525C222.317 108.035 222.407 108.469 222.586 108.827C222.768 109.185 223.022 109.459 223.347 109.648C223.671 109.833 224.051 109.926 224.485 109.926C224.767 109.926 225.024 109.886 225.256 109.807C225.488 109.724 225.688 109.601 225.857 109.439C226.026 109.277 226.156 109.076 226.245 108.837L227.652 109.091C227.539 109.505 227.337 109.868 227.045 110.18C226.757 110.488 226.394 110.728 225.957 110.901C225.522 111.07 225.027 111.154 224.47 111.154ZM234.587 106.466V111H233.101V103.364H234.528V104.607H234.622C234.798 104.202 235.073 103.877 235.447 103.632C235.825 103.387 236.301 103.264 236.874 103.264C237.395 103.264 237.85 103.374 238.241 103.592C238.633 103.808 238.936 104.129 239.151 104.557C239.367 104.984 239.474 105.513 239.474 106.143V111H237.988V106.322C237.988 105.768 237.844 105.336 237.555 105.024C237.267 104.709 236.871 104.552 236.367 104.552C236.022 104.552 235.716 104.626 235.447 104.776C235.182 104.925 234.972 105.143 234.816 105.432C234.664 105.717 234.587 106.062 234.587 106.466ZM246.305 107.833V103.364H247.797V111H246.335V109.678H246.256C246.08 110.085 245.798 110.425 245.411 110.697C245.026 110.965 244.547 111.099 243.974 111.099C243.483 111.099 243.049 110.992 242.671 110.776C242.297 110.558 242.002 110.234 241.786 109.807C241.574 109.379 241.468 108.851 241.468 108.221V103.364H242.955V108.042C242.955 108.562 243.099 108.977 243.387 109.285C243.675 109.593 244.05 109.747 244.511 109.747C244.789 109.747 245.066 109.678 245.341 109.538C245.619 109.399 245.85 109.189 246.032 108.907C246.218 108.625 246.309 108.267 246.305 107.833ZM249.794 111V103.364H251.221V104.607H251.316C251.475 104.186 251.735 103.857 252.096 103.622C252.457 103.384 252.89 103.264 253.394 103.264C253.904 103.264 254.332 103.384 254.676 103.622C255.024 103.861 255.281 104.189 255.447 104.607H255.526C255.709 104.199 255.999 103.874 256.396 103.632C256.794 103.387 257.268 103.264 257.818 103.264C258.511 103.264 259.076 103.481 259.514 103.915C259.954 104.35 260.175 105.004 260.175 105.879V111H258.688V106.018C258.688 105.501 258.548 105.127 258.266 104.895C257.984 104.663 257.648 104.547 257.257 104.547C256.773 104.547 256.396 104.696 256.128 104.994C255.86 105.289 255.725 105.669 255.725 106.133V111H254.244V105.924C254.244 105.51 254.115 105.177 253.856 104.925C253.597 104.673 253.261 104.547 252.847 104.547C252.565 104.547 252.305 104.621 252.066 104.771C251.831 104.916 251.64 105.12 251.494 105.382C251.352 105.644 251.281 105.947 251.281 106.292V111H249.794ZM262.287 111V100.818H263.773V104.602H263.863C263.949 104.442 264.073 104.259 264.235 104.05C264.398 103.841 264.623 103.659 264.912 103.503C265.2 103.344 265.581 103.264 266.055 103.264C266.672 103.264 267.222 103.42 267.706 103.732C268.19 104.043 268.569 104.492 268.844 105.079C269.123 105.665 269.262 106.371 269.262 107.197C269.262 108.022 269.124 108.73 268.849 109.32C268.574 109.906 268.196 110.359 267.716 110.677C267.235 110.992 266.686 111.149 266.07 111.149C265.606 111.149 265.226 111.071 264.931 110.915C264.64 110.76 264.411 110.577 264.245 110.369C264.08 110.16 263.952 109.974 263.863 109.812H263.738V111H262.287ZM263.743 107.182C263.743 107.719 263.821 108.189 263.977 108.594C264.133 108.998 264.358 109.315 264.653 109.543C264.948 109.769 265.309 109.881 265.737 109.881C266.181 109.881 266.552 109.764 266.85 109.528C267.149 109.29 267.374 108.967 267.527 108.559C267.682 108.151 267.76 107.692 267.76 107.182C267.76 106.678 267.684 106.226 267.532 105.825C267.382 105.424 267.157 105.107 266.855 104.875C266.557 104.643 266.184 104.527 265.737 104.527C265.306 104.527 264.941 104.638 264.643 104.86C264.348 105.082 264.124 105.392 263.972 105.79C263.819 106.187 263.743 106.652 263.743 107.182ZM274.222 111.154C273.47 111.154 272.822 110.993 272.278 110.672C271.738 110.347 271.32 109.891 271.025 109.305C270.734 108.715 270.588 108.024 270.588 107.232C270.588 106.449 270.734 105.76 271.025 105.163C271.32 104.567 271.731 104.101 272.258 103.766C272.789 103.432 273.408 103.264 274.118 103.264C274.549 103.264 274.966 103.335 275.371 103.478C275.775 103.621 276.138 103.844 276.459 104.149C276.781 104.454 277.034 104.85 277.22 105.337C277.406 105.821 277.498 106.41 277.498 107.102V107.629H271.428V106.516H276.042C276.042 106.125 275.962 105.778 275.803 105.477C275.644 105.172 275.42 104.931 275.132 104.756C274.847 104.58 274.512 104.492 274.128 104.492C273.71 104.492 273.345 104.595 273.034 104.8C272.726 105.003 272.487 105.268 272.318 105.596C272.152 105.921 272.069 106.274 272.069 106.655V107.525C272.069 108.035 272.159 108.469 272.338 108.827C272.52 109.185 272.774 109.459 273.099 109.648C273.423 109.833 273.803 109.926 274.237 109.926C274.519 109.926 274.776 109.886 275.008 109.807C275.24 109.724 275.44 109.601 275.609 109.439C275.778 109.277 275.907 109.076 275.997 108.837L277.404 109.091C277.291 109.505 277.089 109.868 276.797 110.18C276.509 110.488 276.146 110.728 275.709 110.901C275.274 111.07 274.779 111.154 274.222 111.154ZM279.148 111V103.364H280.585V104.577H280.664C280.803 104.166 281.049 103.843 281.4 103.607C281.754 103.369 282.156 103.249 282.603 103.249C282.696 103.249 282.805 103.253 282.931 103.259C283.06 103.266 283.161 103.274 283.234 103.284V104.706C283.175 104.689 283.069 104.671 282.916 104.651C282.764 104.628 282.611 104.616 282.459 104.616C282.107 104.616 281.794 104.691 281.519 104.84C281.247 104.986 281.032 105.19 280.873 105.452C280.714 105.71 280.634 106.005 280.634 106.337V111H279.148Z" fill="#21201D"/>
<path d="M192 123.5H338C341.038 123.5 343.5 125.962 343.5 129V153C343.5 156.038 341.038 158.5 338 158.5H192C188.962 158.5 186.5 156.038 186.5 153V129C186.5 125.962 188.962 123.5 192 123.5Z" fill="white"/>
<path d="M192 123.5H338C341.038 123.5 343.5 125.962 343.5 129V153C343.5 156.038 341.038 158.5 338 158.5H192C188.962 158.5 186.5 156.038 186.5 153V129C186.5 125.962 188.962 123.5 192 123.5Z" stroke="#E9E8E6"/>
<path d="M199.491 140.909C199.491 139.656 199.654 138.504 199.979 137.454C200.307 136.4 200.774 135.43 201.381 134.545H202.415C202.176 134.874 201.952 135.278 201.744 135.759C201.538 136.236 201.357 136.761 201.202 137.335C201.046 137.905 200.923 138.495 200.834 139.104C200.748 139.714 200.705 140.316 200.705 140.909C200.705 141.698 200.781 142.498 200.933 143.31C201.086 144.122 201.291 144.876 201.55 145.572C201.808 146.268 202.097 146.835 202.415 147.273H201.381C200.774 146.388 200.307 145.42 199.979 144.369C199.654 143.315 199.491 142.162 199.491 140.909ZM207.308 146.139C206.725 146.139 206.199 146.023 205.732 145.791C205.265 145.559 204.89 145.241 204.608 144.837C204.327 144.432 204.173 143.972 204.146 143.455H205.339C205.386 143.915 205.595 144.296 205.966 144.598C206.34 144.896 206.788 145.045 207.308 145.045C207.726 145.045 208.097 144.948 208.422 144.752C208.75 144.557 209.007 144.288 209.192 143.947C209.381 143.602 209.476 143.213 209.476 142.778C209.476 142.334 209.378 141.938 209.182 141.59C208.99 141.239 208.725 140.962 208.387 140.76C208.049 140.558 207.663 140.455 207.229 140.452C206.917 140.448 206.597 140.496 206.269 140.596C205.941 140.692 205.671 140.816 205.459 140.969L204.305 140.83L204.922 135.818H210.211V136.912H205.956L205.598 139.915H205.657C205.866 139.749 206.128 139.612 206.443 139.502C206.758 139.393 207.086 139.338 207.427 139.338C208.05 139.338 208.606 139.487 209.093 139.786C209.583 140.08 209.968 140.485 210.246 140.999C210.528 141.512 210.669 142.099 210.669 142.759C210.669 143.408 210.523 143.988 210.231 144.499C209.943 145.006 209.545 145.407 209.038 145.702C208.531 145.993 207.954 146.139 207.308 146.139ZM215.826 146.139C215.242 146.139 214.717 146.023 214.25 145.791C213.782 145.559 213.408 145.241 213.126 144.837C212.844 144.432 212.69 143.972 212.664 143.455H213.857C213.903 143.915 214.112 144.296 214.483 144.598C214.858 144.896 215.305 145.045 215.826 145.045C216.243 145.045 216.614 144.948 216.939 144.752C217.267 144.557 217.524 144.288 217.71 143.947C217.899 143.602 217.993 143.213 217.993 142.778C217.993 142.334 217.895 141.938 217.7 141.59C217.508 141.239 217.243 140.962 216.904 140.76C216.566 140.558 216.18 140.455 215.746 140.452C215.435 140.448 215.115 140.496 214.787 140.596C214.458 140.692 214.188 140.816 213.976 140.969L212.823 140.83L213.439 135.818H218.729V136.912H214.473L214.115 139.915H214.175C214.384 139.749 214.646 139.612 214.961 139.502C215.275 139.393 215.604 139.338 215.945 139.338C216.568 139.338 217.123 139.487 217.61 139.786C218.101 140.08 218.485 140.485 218.764 140.999C219.046 141.512 219.186 142.099 219.186 142.759C219.186 143.408 219.041 143.988 218.749 144.499C218.461 145.006 218.063 145.407 217.556 145.702C217.049 145.993 216.472 146.139 215.826 146.139ZM224.343 146.139C223.76 146.139 223.235 146.023 222.767 145.791C222.3 145.559 221.925 145.241 221.644 144.837C221.362 144.432 221.208 143.972 221.181 143.455H222.374C222.421 143.915 222.63 144.296 223.001 144.598C223.375 144.896 223.823 145.045 224.343 145.045C224.761 145.045 225.132 144.948 225.457 144.752C225.785 144.557 226.042 144.288 226.227 143.947C226.416 143.602 226.511 143.213 226.511 142.778C226.511 142.334 226.413 141.938 226.218 141.59C226.025 141.239 225.76 140.962 225.422 140.76C225.084 140.558 224.698 140.455 224.264 140.452C223.952 140.448 223.632 140.496 223.304 140.596C222.976 140.692 222.706 140.816 222.494 140.969L221.34 140.83L221.957 135.818H227.247V136.912H222.991L222.633 139.915H222.693C222.901 139.749 223.163 139.612 223.478 139.502C223.793 139.393 224.121 139.338 224.463 139.338C225.086 139.338 225.641 139.487 226.128 139.786C226.619 140.08 227.003 140.485 227.281 140.999C227.563 141.512 227.704 142.099 227.704 142.759C227.704 143.408 227.558 143.988 227.267 144.499C226.978 145.006 226.58 145.407 226.073 145.702C225.566 145.993 224.99 146.139 224.343 146.139ZM232.205 140.909C232.205 142.162 232.04 143.315 231.712 144.369C231.388 145.42 230.922 146.388 230.315 147.273H229.281C229.52 146.945 229.742 146.54 229.947 146.06C230.156 145.582 230.339 145.059 230.494 144.489C230.65 143.915 230.771 143.324 230.857 142.714C230.947 142.101 230.991 141.499 230.991 140.909C230.991 140.12 230.915 139.32 230.763 138.508C230.61 137.696 230.405 136.942 230.146 136.246C229.888 135.55 229.599 134.983 229.281 134.545H230.315C230.922 135.43 231.388 136.4 231.712 137.454C232.04 138.504 232.205 139.656 232.205 140.909ZM242.268 135.818V146H241.035V137.111H240.976L238.49 138.761V137.509L241.035 135.818H242.268ZM245.197 146V145.105L248.557 141.426C248.952 140.995 249.277 140.621 249.532 140.303C249.787 139.981 249.976 139.679 250.099 139.398C250.224 139.113 250.287 138.814 250.287 138.503C250.287 138.145 250.201 137.835 250.029 137.573C249.86 137.311 249.628 137.109 249.333 136.967C249.038 136.824 248.706 136.753 248.339 136.753C247.948 136.753 247.606 136.834 247.314 136.996C247.026 137.156 246.802 137.379 246.643 137.668C246.488 137.956 246.41 138.294 246.41 138.682H245.236C245.236 138.085 245.374 137.562 245.649 137.111C245.924 136.66 246.299 136.309 246.773 136.057C247.25 135.805 247.785 135.679 248.378 135.679C248.975 135.679 249.504 135.805 249.964 136.057C250.425 136.309 250.786 136.648 251.048 137.076C251.31 137.504 251.441 137.979 251.441 138.503C251.441 138.877 251.373 139.244 251.237 139.602C251.104 139.956 250.872 140.352 250.541 140.79C250.213 141.224 249.757 141.754 249.174 142.381L246.887 144.827V144.906H251.62V146H245.197ZM257.113 146.139C256.457 146.139 255.872 146.027 255.358 145.801C254.848 145.576 254.442 145.263 254.14 144.862C253.842 144.457 253.68 143.988 253.653 143.455H254.906C254.933 143.783 255.045 144.066 255.244 144.305C255.443 144.54 255.703 144.722 256.025 144.852C256.346 144.981 256.702 145.045 257.094 145.045C257.531 145.045 257.919 144.969 258.257 144.817C258.595 144.664 258.86 144.452 259.052 144.18C259.245 143.909 259.341 143.594 259.341 143.236C259.341 142.861 259.248 142.531 259.062 142.246C258.877 141.958 258.605 141.733 258.247 141.57C257.889 141.408 257.452 141.327 256.934 141.327H256.119V140.233H256.934C257.339 140.233 257.693 140.16 257.998 140.014C258.307 139.868 258.547 139.663 258.719 139.398C258.895 139.133 258.983 138.821 258.983 138.463C258.983 138.118 258.907 137.818 258.754 137.563C258.602 137.308 258.386 137.109 258.108 136.967C257.833 136.824 257.508 136.753 257.133 136.753C256.782 136.753 256.451 136.817 256.139 136.947C255.831 137.073 255.579 137.257 255.383 137.499C255.188 137.737 255.082 138.026 255.065 138.364H253.872C253.892 137.83 254.053 137.363 254.354 136.962C254.656 136.557 255.05 136.242 255.537 136.017C256.028 135.792 256.567 135.679 257.153 135.679C257.783 135.679 258.323 135.807 258.774 136.062C259.225 136.314 259.571 136.647 259.813 137.061C260.055 137.475 260.176 137.923 260.176 138.403C260.176 138.977 260.025 139.466 259.724 139.87C259.425 140.274 259.019 140.554 258.506 140.71V140.79C259.148 140.896 259.651 141.169 260.012 141.61C260.373 142.048 260.554 142.589 260.554 143.236C260.554 143.789 260.403 144.286 260.101 144.727C259.803 145.165 259.395 145.509 258.878 145.761C258.361 146.013 257.773 146.139 257.113 146.139ZM266.982 140.362V141.456H262.528V140.362H266.982ZM272.606 135.818V146H271.373V137.111H271.314L268.828 138.761V137.509L271.373 135.818H272.606ZM275.534 146V145.105L278.895 141.426C279.29 140.995 279.614 140.621 279.87 140.303C280.125 139.981 280.314 139.679 280.436 139.398C280.562 139.113 280.625 138.814 280.625 138.503C280.625 138.145 280.539 137.835 280.367 137.573C280.198 137.311 279.966 137.109 279.671 136.967C279.376 136.824 279.044 136.753 278.676 136.753C278.285 136.753 277.944 136.834 277.652 136.996C277.364 137.156 277.14 137.379 276.981 137.668C276.825 137.956 276.748 138.294 276.748 138.682H275.574C275.574 138.085 275.712 137.562 275.987 137.111C276.262 136.66 276.636 136.309 277.11 136.057C277.588 135.805 278.123 135.679 278.716 135.679C279.313 135.679 279.842 135.805 280.302 136.057C280.763 136.309 281.124 136.648 281.386 137.076C281.648 137.504 281.779 137.979 281.779 138.503C281.779 138.877 281.711 139.244 281.575 139.602C281.442 139.956 281.21 140.352 280.879 140.79C280.551 141.224 280.095 141.754 279.512 142.381L277.225 144.827V144.906H281.958V146H275.534ZM287.451 146.139C286.795 146.139 286.21 146.027 285.696 145.801C285.186 145.576 284.78 145.263 284.478 144.862C284.18 144.457 284.018 143.988 283.991 143.455H285.244C285.27 143.783 285.383 144.066 285.582 144.305C285.781 144.54 286.041 144.722 286.363 144.852C286.684 144.981 287.04 145.045 287.431 145.045C287.869 145.045 288.257 144.969 288.595 144.817C288.933 144.664 289.198 144.452 289.39 144.18C289.583 143.909 289.679 143.594 289.679 143.236C289.679 142.861 289.586 142.531 289.4 142.246C289.215 141.958 288.943 141.733 288.585 141.57C288.227 141.408 287.789 141.327 287.272 141.327H286.457V140.233H287.272C287.677 140.233 288.031 140.16 288.336 140.014C288.645 139.868 288.885 139.663 289.057 139.398C289.233 139.133 289.321 138.821 289.321 138.463C289.321 138.118 289.244 137.818 289.092 137.563C288.94 137.308 288.724 137.109 288.446 136.967C288.171 136.824 287.846 136.753 287.471 136.753C287.12 136.753 286.788 136.817 286.477 136.947C286.169 137.073 285.917 137.257 285.721 137.499C285.526 137.737 285.42 138.026 285.403 138.364H284.21C284.23 137.83 284.391 137.363 284.692 136.962C284.994 136.557 285.388 136.242 285.875 136.017C286.366 135.792 286.904 135.679 287.491 135.679C288.121 135.679 288.661 135.807 289.112 136.062C289.563 136.314 289.909 136.647 290.151 137.061C290.393 137.475 290.514 137.923 290.514 138.403C290.514 138.977 290.363 139.466 290.061 139.87C289.763 140.274 289.357 140.554 288.843 140.71V140.79C289.486 140.896 289.989 141.169 290.35 141.61C290.711 142.048 290.892 142.589 290.892 143.236C290.892 143.789 290.741 144.286 290.439 144.727C290.141 145.165 289.733 145.509 289.216 145.761C288.699 146.013 288.111 146.139 287.451 146.139ZM292.686 143.912V142.898L297.161 135.818H297.897V137.389H297.4L294.019 142.739V142.818H300.044V143.912H292.686ZM297.479 146V143.604V143.131V135.818H298.652V146H297.479Z" fill="#21201D"/>
</svg>
