<svg xmlns="http://www.w3.org/2000/svg" width="362" height="177" fill="none" viewBox="0 0 362 177"><rect width="361" height="176" x=".5" y=".5" fill="#fff" rx="8.5"/><rect width="361" height="176" x=".5" y=".5" stroke="#e9e8e6" rx="8.5"/><rect width="328" height="65" x="17" y="17" fill="#f8f8f7" rx="4"/><path fill="#21201d" d="M35.672 35.493a1.45 1.45 0 0 0-.656-1.094q-.578-.393-1.452-.393-.627 0-1.084.2-.458.192-.71.536a1.27 1.27 0 0 0-.25.77q0 .364.17.627.173.264.452.443.283.174.607.293.322.115.621.189l.994.258q.487.12 1 .324.512.204.95.536.436.334.705.826.274.492.274 1.178 0 .865-.448 1.536-.442.671-1.288 1.06-.84.387-2.033.387-1.143 0-1.979-.363-.834-.363-1.307-1.029-.473-.671-.522-1.59h1.541q.045.551.358.919.318.362.81.542.498.174 1.09.174.65 0 1.158-.204.512-.21.805-.577.293-.372.293-.87 0-.452-.258-.74a1.9 1.9 0 0 0-.691-.478 7 7 0 0 0-.98-.333l-1.203-.328q-1.222-.333-1.939-.98-.71-.645-.71-1.71 0-.879.477-1.536.477-.655 1.292-1.02.816-.366 1.84-.367 1.034 0 1.824.363.795.363 1.253 1 .458.63.477 1.45zm3.337 10.37v-10.5h1.452v1.239h.124q.129-.24.373-.552a2.1 2.1 0 0 1 .676-.547q.432-.24 1.144-.239.924 0 1.65.467.726.468 1.139 1.348.417.88.417 2.118t-.412 2.123q-.413.88-1.134 1.357-.721.472-1.646.472-.696 0-1.138-.233a2.2 2.2 0 0 1-.686-.547 4 4 0 0 1-.383-.557h-.09v4.052zm1.457-6.681q0 .805.233 1.412.234.605.677.95.442.337 1.083.337.666 0 1.114-.353a2.2 2.2 0 0 0 .676-.97q.234-.61.234-1.376 0-.756-.229-1.357a2.1 2.1 0 0 0-.676-.95q-.447-.348-1.119-.348-.645 0-1.093.333-.443.333-.672.93-.228.596-.228 1.392M47.65 43v-7.636h1.437v1.213h.079q.21-.616.736-.97a2.1 2.1 0 0 1 1.203-.358 6 6 0 0 1 .631.035v1.422a3 3 0 0 0-.318-.055 3 3 0 0 0-.457-.035 1.94 1.94 0 0 0-.94.224 1.66 1.66 0 0 0-.885 1.497V43zm5.373 0v-7.636h1.486V43zm.75-8.815a.95.95 0 0 1-.666-.258.84.84 0 0 1-.273-.627.83.83 0 0 1 .273-.626.94.94 0 0 1 .666-.264q.389 0 .662.264a.82.82 0 0 1 .278.626q0 .363-.278.627a.93.93 0 0 1-.662.258m4.223 4.28V43h-1.487v-7.636h1.427v1.242h.094q.264-.606.826-.974.566-.368 1.426-.368.78 0 1.368.328.586.324.91.965.323.64.323 1.586V43h-1.487v-4.678q0-.83-.432-1.298-.433-.472-1.189-.472-.516 0-.92.224-.397.223-.63.656-.23.428-.23 1.034m10.082 7.558q-.91 0-1.566-.239-.651-.239-1.064-.631a2.65 2.65 0 0 1-.616-.86l1.277-.527q.135.218.358.462.229.249.617.423.392.174 1.009.174.845 0 1.397-.413.552-.408.552-1.303v-1.501h-.095q-.135.243-.388.542a2.1 2.1 0 0 1-.686.517q-.436.219-1.138.219-.905 0-1.63-.423-.721-.427-1.144-1.258-.418-.835-.418-2.053t.413-2.088q.418-.87 1.143-1.333a2.97 2.97 0 0 1 1.646-.467q.711 0 1.148.239.438.234.681.547.25.314.383.552h.11v-1.238h1.456v7.805q0 .984-.457 1.616-.458.63-1.238.934-.775.304-1.75.304m-.015-4.37q.642 0 1.084-.299.447-.303.676-.865.234-.566.234-1.357 0-.77-.23-1.357a2 2 0 0 0-.67-.915q-.443-.333-1.094-.333-.67 0-1.119.348-.447.343-.676.935-.223.591-.223 1.322 0 .75.228 1.318.23.566.676.884.453.32 1.114.319m9.278-8.835h1.865l3.241 7.915h.12l3.24-7.915h1.865V43H86.21v-7.368h-.095l-3.003 7.353H81.9l-3.003-7.358h-.094V43H77.34zm15.737 10.336q-1.129 0-1.944-.482a3.27 3.27 0 0 1-1.253-1.367q-.438-.885-.438-2.074 0-1.173.438-2.068a3.4 3.4 0 0 1 1.233-1.397q.795-.502 1.86-.502.646 0 1.252.214.606.213 1.089.671.482.458.76 1.188.279.727.279 1.765v.527h-6.07v-1.113h4.613q0-.587-.238-1.04a1.8 1.8 0 0 0-.672-.72 1.9 1.9 0 0 0-1.004-.264 1.94 1.94 0 0 0-1.094.308 2.07 2.07 0 0 0-.715.796 2.3 2.3 0 0 0-.25 1.059v.87q0 .765.27 1.302.273.537.76.82.487.28 1.139.28.422 0 .77-.12.348-.125.602-.368.253-.244.388-.602l1.406.254a2.55 2.55 0 0 1-.606 1.089 2.94 2.94 0 0 1-1.089.72q-.651.255-1.486.254m7.784-.005a2.96 2.96 0 0 1-1.65-.472q-.722-.477-1.134-1.357-.408-.885-.408-2.123t.413-2.118q.418-.88 1.143-1.348a3 3 0 0 1 1.646-.467q.711 0 1.143.239.438.234.676.547.244.314.378.552h.09v-3.784h1.486V43h-1.451v-1.188h-.125a4 4 0 0 1-.388.557 2.1 2.1 0 0 1-.686.547q-.437.233-1.133.233m.328-1.268q.642 0 1.084-.338.447-.342.676-.95.234-.606.234-1.411 0-.796-.229-1.392-.229-.597-.671-.93t-1.094-.333q-.67 0-1.119.348a2.13 2.13 0 0 0-.676.95q-.224.6-.224 1.357 0 .766.23 1.377.228.611.675.97.453.352 1.114.352M106.767 43v-7.636h1.486V43zm.751-8.815a.95.95 0 0 1-.667-.258.84.84 0 0 1-.273-.627q0-.368.273-.626a.94.94 0 0 1 .667-.264q.387 0 .661.264a.83.83 0 0 1 .278.626q0 .363-.278.627a.93.93 0 0 1-.661.258m5.952 8.97q-1.109 0-1.909-.503a3.3 3.3 0 0 1-1.223-1.397q-.428-.89-.428-2.038 0-1.163.438-2.054a3.34 3.34 0 0 1 1.233-1.397q.795-.502 1.874-.502.87 0 1.551.323.68.318 1.099.895.422.577.502 1.348h-1.447a1.73 1.73 0 0 0-.547-.925q-.422-.388-1.133-.388-.622 0-1.089.328-.463.324-.721.925-.258.596-.258 1.412 0 .835.253 1.442.254.606.716.94.468.332 1.099.332.422 0 .765-.154.348-.16.582-.452.239-.294.333-.706h1.447a2.8 2.8 0 0 1-.482 1.322 2.8 2.8 0 0 1-1.079.915q-.672.333-1.576.333m6.949.014q-.726 0-1.313-.268a2.2 2.2 0 0 1-.929-.79q-.338-.518-.338-1.269 0-.645.248-1.064.25-.417.671-.66a3.5 3.5 0 0 1 .945-.369 9 9 0 0 1 1.064-.189l1.114-.129q.428-.054.621-.174.194-.12.194-.388v-.035q0-.65-.368-1.009-.363-.357-1.084-.358-.75 0-1.183.333-.427.33-.592.731l-1.397-.318q.249-.697.726-1.123a2.95 2.95 0 0 1 1.109-.627 4.3 4.3 0 0 1 1.317-.199q.457 0 .97.11.516.104.964.387.453.285.741.81.288.523.288 1.358V43h-1.451v-1.044h-.06a2.1 2.1 0 0 1-.433.567q-.288.278-.74.462-.453.184-1.084.184m.323-1.193q.616 0 1.054-.244.443-.243.671-.636a1.65 1.65 0 0 0 .234-.85v-.985q-.08.08-.308.15-.224.064-.512.114-.29.045-.562.084l-.458.06a3.7 3.7 0 0 0-.79.184q-.353.129-.567.373-.209.238-.209.636 0 .552.408.835.408.279 1.039.279m6.912-9.158V43h-1.487V32.818z"/><path fill="#666561" d="M33.375 66h-3.142V55.818h3.281q1.482 0 2.536.612a4 4 0 0 1 1.616 1.745q.561 1.133.561 2.714 0 1.59-.566 2.74a4.04 4.04 0 0 1-1.651 1.76q-1.084.61-2.635.611m-1.91-1.094h1.83q1.263 0 2.093-.487a3 3 0 0 0 1.238-1.387q.408-.9.408-2.143 0-1.233-.403-2.123a2.97 2.97 0 0 0-1.203-1.372q-.8-.482-1.993-.482h-1.97zm11.873 1.253q-1.103 0-1.904-.487a3.27 3.27 0 0 1-1.228-1.372q-.428-.885-.428-2.058 0-1.174.428-2.069.433-.9 1.203-1.402.775-.507 1.81-.507.596 0 1.178.2.581.198 1.059.645.477.442.76 1.174.285.73.284 1.8v.497h-5.886v-1.015h4.693q0-.646-.259-1.153a1.95 1.95 0 0 0-.726-.8q-.467-.294-1.103-.294-.702 0-1.213.348a2.3 2.3 0 0 0-.78.895 2.6 2.6 0 0 0-.274 1.183v.676q0 .865.298 1.467.303.597.84.91.537.308 1.248.308.463 0 .835-.13.379-.133.652-.397.273-.268.422-.666l1.134.318q-.18.578-.602 1.014-.423.433-1.044.677-.621.237-1.397.238m6.12-4.753V66h-1.173v-7.636h1.133v1.193h.1q.268-.582.815-.935.547-.358 1.412-.358.776 0 1.357.318.582.314.905.955.323.636.323 1.61V66h-1.173v-4.773q0-.9-.467-1.402-.468-.507-1.283-.507-.563 0-1.004.244-.438.244-.691.71-.255.468-.254 1.134m12.987-3.042L59.621 66h-1.193l-2.824-7.636h1.273l2.108 6.085h.08l2.107-6.085zm4.477 7.795q-1.104 0-1.904-.487A3.27 3.27 0 0 1 63.79 64.3q-.428-.885-.428-2.058 0-1.174.428-2.069.433-.9 1.203-1.402.775-.507 1.81-.507.597 0 1.178.2.581.198 1.059.645.477.442.76 1.174.284.73.284 1.8v.497h-5.886v-1.015h4.693q0-.646-.259-1.153a1.95 1.95 0 0 0-.726-.8q-.467-.294-1.103-.294-.702 0-1.213.348a2.3 2.3 0 0 0-.78.895 2.6 2.6 0 0 0-.274 1.183v.676q0 .865.298 1.467.303.597.84.91.537.308 1.248.308.463 0 .835-.13.378-.133.652-.397.273-.268.422-.666l1.134.318q-.18.578-.602 1.014-.423.433-1.044.677-.621.237-1.397.238M71.87 66v-7.636h1.133v1.153h.08q.21-.566.756-.92a2.23 2.23 0 0 1 1.233-.353q.129 0 .323.005.194.006.293.015v1.193a4 4 0 0 0-.273-.044 3 3 0 0 0-.443-.035q-.557 0-.994.233a1.71 1.71 0 0 0-.935 1.556V66zm6.084-1.392-.08.537q-.084.567-.258 1.213-.169.646-.353 1.218-.184.571-.303.91h-.895l.169-.84q.105-.522.208-1.169.11-.641.18-1.312l.059-.557zM92.416 59h-1.233a2.56 2.56 0 0 0-1.039-1.61 2.8 2.8 0 0 0-.85-.418 3.4 3.4 0 0 0-.974-.14q-.925 0-1.676.468-.746.466-1.188 1.377-.437.909-.437 2.232t.437 2.232q.443.91 1.188 1.378.751.467 1.676.467.507 0 .974-.14.468-.138.85-.412a2.6 2.6 0 0 0 1.039-1.616h1.233a4.1 4.1 0 0 1-.507 1.397q-.368.616-.915 1.05a4 4 0 0 1-1.228.65q-.676.225-1.446.224-1.302 0-2.317-.636-1.014-.637-1.596-1.81t-.581-2.784.581-2.784 1.596-1.81q1.014-.636 2.317-.636.77 0 1.447.224.68.224 1.228.656.546.428.914 1.044.368.611.507 1.397M103 60.91q0 1.61-.582 2.783-.582 1.174-1.596 1.81t-2.317.636-2.316-.636-1.596-1.81-.582-2.784.582-2.784 1.596-1.81q1.014-.636 2.316-.636 1.303 0 2.317.636 1.014.637 1.596 1.81t.582 2.784m-1.194 0q0-1.324-.442-2.233-.438-.91-1.188-1.377a3.1 3.1 0 0 0-1.67-.468q-.926 0-1.676.468-.746.466-1.188 1.377-.438.909-.438 2.232t.438 2.232q.442.91 1.188 1.378.75.467 1.675.467t1.671-.468q.75-.467 1.188-1.377.442-.909.442-2.232"/><path fill="#1576b6" d="M290.426 47.5h-1.233a2.6 2.6 0 0 0-.383-.935 2.5 2.5 0 0 0-.656-.676 2.8 2.8 0 0 0-.85-.417 3.4 3.4 0 0 0-.974-.14q-.925 0-1.676.468-.745.466-1.188 1.377-.438.909-.438 2.232t.438 2.232q.442.91 1.188 1.378a3.1 3.1 0 0 0 1.676.467q.507 0 .974-.14.468-.139.85-.412a2.6 2.6 0 0 0 1.039-1.616h1.233q-.14.78-.507 1.397a3.8 3.8 0 0 1-2.143 1.7q-.676.224-1.446.224-1.303 0-2.317-.636-1.014-.637-1.596-1.81t-.582-2.784.582-2.784 1.596-1.81 2.317-.636q.77 0 1.446.224.681.224 1.228.656.548.428.915 1.044.367.611.507 1.397m3.007 2.406V54.5h-1.174V44.318h1.174v3.739h.099a2.16 2.16 0 0 1 .806-.94q.541-.353 1.441-.353.781 0 1.367.313a2.1 2.1 0 0 1 .91.95q.328.637.328 1.62V54.5h-1.173v-4.773q0-.909-.472-1.407-.468-.502-1.298-.502-.576 0-1.034.244-.452.244-.716.71-.258.468-.258 1.134m9.345 4.773a3.1 3.1 0 0 1-1.317-.273 2.26 2.26 0 0 1-.94-.8q-.348-.527-.348-1.274 0-.656.258-1.063.259-.413.692-.647t.954-.348q.527-.12 1.059-.189.696-.09 1.129-.134.436-.05.636-.164.204-.114.204-.398v-.04q0-.735-.403-1.143-.398-.408-1.208-.408-.84 0-1.318.368-.476.367-.671.786l-1.113-.398q.299-.696.795-1.084a3 3 0 0 1 1.094-.547q.597-.159 1.173-.159.368 0 .845.09.483.084.93.353.453.269.751.81.298.542.298 1.452V54.5h-1.173v-1.034h-.06a2 2 0 0 1-.398.532q-.278.284-.74.482-.463.2-1.129.199m.179-1.054q.696 0 1.173-.273.483-.274.726-.706.249-.433.249-.91v-1.074q-.075.09-.328.164a6 6 0 0 1-.577.124 27 27 0 0 1-1.124.15q-.457.06-.855.193a1.5 1.5 0 0 0-.636.393q-.239.258-.239.706 0 .612.453.925.457.308 1.158.308m6.636-3.719V54.5h-1.173v-7.636h1.133v1.193h.1q.267-.582.815-.935.546-.358 1.412-.358.775 0 1.357.318.582.314.905.955.323.636.323 1.61V54.5h-1.173v-4.773q0-.9-.468-1.402-.467-.507-1.282-.507-.562 0-1.005.244-.437.244-.691.71-.253.468-.253 1.134m10.098 7.617q-.85 0-1.461-.219a3.1 3.1 0 0 1-1.019-.567 3.1 3.1 0 0 1-.642-.745l.935-.657q.159.21.403.477.243.274.666.473.428.204 1.118.204.925 0 1.527-.448.601-.447.601-1.402v-1.55h-.099q-.13.207-.368.516a2.1 2.1 0 0 1-.676.542q-.438.234-1.183.234-.925 0-1.661-.438-.73-.437-1.158-1.273-.423-.835-.423-2.028 0-1.173.413-2.043.413-.875 1.148-1.353.736-.482 1.7-.482.747 0 1.184.249.442.243.676.557.239.307.368.507h.119v-1.213h1.134v7.855q0 .984-.448 1.6a2.55 2.55 0 0 1-1.193.91 4.5 4.5 0 0 1-1.661.294m-.039-4.196q.705 0 1.193-.323.487-.324.741-.93.253-.606.253-1.452 0-.825-.248-1.456a2.2 2.2 0 0 0-.736-.99q-.487-.358-1.203-.358-.747 0-1.243.378-.492.378-.741 1.014a3.9 3.9 0 0 0-.244 1.412q0 .796.249 1.407.254.607.746.955.496.343 1.233.343m8.69 1.332q-1.104 0-1.904-.487a3.27 3.27 0 0 1-1.228-1.372q-.428-.885-.428-2.058 0-1.174.428-2.069.432-.9 1.203-1.402.775-.507 1.81-.507.596 0 1.178.2.582.198 1.059.645.477.442.761 1.174.283.73.283 1.8v.497h-5.886v-1.015h4.693q0-.646-.259-1.153a1.95 1.95 0 0 0-.726-.8q-.467-.294-1.103-.294-.702 0-1.213.348a2.3 2.3 0 0 0-.781.895 2.6 2.6 0 0 0-.273 1.183v.676q0 .865.298 1.467.303.597.84.91.537.308 1.248.308.462 0 .835-.13.378-.133.651-.397.274-.268.423-.666l1.134.318q-.18.578-.602 1.014-.423.433-1.044.676-.621.24-1.397.24"/><path fill="#21201d" d="M17.617 103.141v-1.323h7.88v1.323H22.32V112h-1.532v-8.859zM27.118 112v-7.636h1.487V112zm.751-8.815a.95.95 0 0 1-.666-.258.84.84 0 0 1-.273-.627.83.83 0 0 1 .273-.626.93.93 0 0 1 .666-.263q.389 0 .661.263a.82.82 0 0 1 .279.626.84.84 0 0 1-.279.627.93.93 0 0 1-.66.258M30.605 112v-7.636h1.427v1.243h.094q.24-.632.78-.985.543-.358 1.298-.358.765 0 1.283.358.522.358.77.985h.08q.273-.612.87-.975.597-.368 1.422-.368 1.04 0 1.695.651.661.652.661 1.964V112H39.5v-4.982q0-.775-.423-1.123a1.54 1.54 0 0 0-1.009-.348q-.726 0-1.128.447-.403.443-.403 1.139V112h-1.482v-5.076q0-.621-.388-.999-.387-.378-1.009-.378-.422 0-.78.224a1.63 1.63 0 0 0-.572.611 1.9 1.9 0 0 0-.214.91V112zm15.664.154q-1.128 0-1.944-.482a3.3 3.3 0 0 1-1.253-1.367q-.437-.885-.437-2.073 0-1.174.437-2.069a3.4 3.4 0 0 1 1.233-1.397q.795-.502 1.86-.502.645 0 1.252.214a3 3 0 0 1 1.09.671q.48.457.76 1.188.278.727.278 1.765v.527h-6.07v-1.113h4.614q0-.587-.239-1.039a1.8 1.8 0 0 0-.671-.721 1.87 1.87 0 0 0-1.005-.264q-.626 0-1.093.308a2.1 2.1 0 0 0-.716.796 2.3 2.3 0 0 0-.249 1.059v.87q0 .765.269 1.302.273.537.76.821.488.278 1.139.278.422 0 .77-.119.348-.125.602-.368t.388-.602l1.407.254a2.55 2.55 0 0 1-.607 1.089 2.95 2.95 0 0 1-1.089.721q-.651.253-1.486.253m8.472-.154v-1.019l4.136-5.255v-.07h-4.002v-1.292h5.856v1.083l-3.977 5.191v.069h4.117V112zm10.881.154q-1.073 0-1.874-.492a3.3 3.3 0 0 1-1.243-1.377q-.443-.886-.443-2.068 0-1.189.443-2.079a3.3 3.3 0 0 1 1.243-1.382q.8-.492 1.874-.492t1.874.492 1.243 1.382.443 2.079q0 1.182-.443 2.068a3.3 3.3 0 0 1-1.243 1.377q-.8.492-1.874.492m.005-1.248q.696 0 1.154-.368.457-.367.676-.979.223-.612.223-1.347 0-.731-.223-1.343a2.2 2.2 0 0 0-.676-.989q-.458-.373-1.154-.373-.7 0-1.163.373a2.2 2.2 0 0 0-.681.989 4 4 0 0 0-.22 1.343q0 .735.22 1.347.224.612.68.979.463.368 1.164.368m6.7-3.44V112h-1.486v-7.636h1.427v1.243h.094q.264-.608.826-.975.566-.368 1.427-.368.78 0 1.367.328.585.323.91.965.323.64.323 1.586V112h-1.487v-4.678q0-.83-.432-1.298-.433-.472-1.189-.472-.515 0-.92.224a1.6 1.6 0 0 0-.63.656q-.23.428-.23 1.034m10.173 4.688q-1.129 0-1.944-.482a3.3 3.3 0 0 1-1.253-1.367q-.438-.885-.438-2.073 0-1.174.438-2.069a3.4 3.4 0 0 1 1.233-1.397q.795-.502 1.86-.502.645 0 1.252.214a3 3 0 0 1 1.089.671q.482.457.76 1.188.279.727.279 1.765v.527h-6.07v-1.113h4.613q0-.587-.239-1.039a1.8 1.8 0 0 0-.67-.721 1.87 1.87 0 0 0-1.005-.264q-.626 0-1.094.308a2.1 2.1 0 0 0-.716.796 2.3 2.3 0 0 0-.248 1.059v.87q0 .765.268 1.302.274.537.76.821.488.278 1.14.278.422 0 .77-.119.348-.125.602-.368.253-.243.387-.602l1.407.254a2.55 2.55 0 0 1-.606 1.089 2.95 2.95 0 0 1-1.089.721q-.651.253-1.487.253"/><rect width="157" height="35" x="17.5" y="124.5" fill="#fff" rx="3.5"/><rect width="157" height="35" x="17.5" y="124.5" stroke="#e9e8e6" rx="3.5"/><path fill="#21201d" d="M38.426 140h-1.233a2.57 2.57 0 0 0-1.039-1.611 2.8 2.8 0 0 0-.85-.417 3.4 3.4 0 0 0-.974-.14q-.925 0-1.676.468-.745.466-1.188 1.377-.438.909-.438 2.232t.438 2.232q.442.91 1.188 1.377.751.468 1.675.468.508 0 .975-.139.467-.14.85-.413.388-.279.656-.681a2.6 2.6 0 0 0 .383-.935h1.233a4.1 4.1 0 0 1-.507 1.397q-.367.617-.915 1.049a4 4 0 0 1-1.228.651q-.675.224-1.447.224-1.302 0-2.316-.636-1.014-.637-1.596-1.81t-.582-2.784.582-2.784 1.596-1.81q1.014-.636 2.317-.636.77 0 1.446.224.681.224 1.228.656.547.427.915 1.044.368.611.507 1.397m7.56-.636a1.56 1.56 0 0 0-.725-1.174q-.636-.417-1.561-.417-.676 0-1.184.218a1.9 1.9 0 0 0-.785.602 1.44 1.44 0 0 0-.278.87q0 .408.194.701.198.288.507.482.307.19.646.314.337.119.621.193l1.034.279q.398.104.885.288.492.184.94.502.453.314.746.806t.293 1.208q0 .825-.433 1.491-.427.666-1.252 1.059-.82.393-1.994.393-1.094 0-1.894-.353-.795-.353-1.253-.984a2.8 2.8 0 0 1-.512-1.467h1.273q.05.576.388.955.343.372.865.556.526.18 1.133.179.705 0 1.268-.228a2.2 2.2 0 0 0 .89-.647 1.53 1.53 0 0 0 .328-.974q0-.507-.283-.825a2.1 2.1 0 0 0-.746-.517 8 8 0 0 0-1-.348l-1.252-.358q-1.194-.344-1.89-.98t-.696-1.665q0-.856.463-1.492.467-.641 1.253-.994a4.2 4.2 0 0 1 1.764-.358q.985 0 1.75.353.765.348 1.214.955.452.606.477 1.377zm2.803-1.452v-1.094h7.637v1.094h-3.202V147h-1.233v-9.088z"/><path stroke="#8e8c88" stroke-linecap="round" stroke-linejoin="round" stroke-width="1.34" d="m150 145 3 3 3-3m-6-6 3-3 3 3"/><path fill="#21201d" d="M188.119 112v-10.182h3.629q1.188 0 1.969.433.78.432 1.168 1.183.387.746.388 1.68 0 .94-.393 1.691a2.85 2.85 0 0 1-1.173 1.183q-.781.432-1.964.432h-2.496v-1.302h2.357q.75 0 1.218-.259.467-.263.686-.716t.219-1.029a2.3 2.3 0 0 0-.219-1.024 1.57 1.57 0 0 0-.691-.701q-.468-.253-1.233-.253h-1.929V112zm10.322-4.534V112h-1.487v-10.182h1.467v3.789h.094q.269-.617.821-.98t1.442-.363q.785 0 1.372.323.591.323.914.965.329.636.329 1.591V112h-1.487v-4.678q0-.84-.432-1.303-.433-.467-1.204-.467-.527 0-.944.224a1.6 1.6 0 0 0-.651.656q-.234.428-.234 1.034m10.152 4.688q-1.074 0-1.874-.492a3.3 3.3 0 0 1-1.243-1.377q-.443-.886-.443-2.068 0-1.189.443-2.079a3.3 3.3 0 0 1 1.243-1.382q.8-.492 1.874-.492t1.874.492 1.243 1.382.443 2.079q0 1.182-.443 2.068a3.3 3.3 0 0 1-1.243 1.377q-.8.492-1.874.492m.005-1.248q.696 0 1.153-.368.458-.367.676-.979.225-.612.224-1.347 0-.731-.224-1.343a2.2 2.2 0 0 0-.676-.989q-.457-.373-1.153-.373-.7 0-1.164.373a2.24 2.24 0 0 0-.681.989 4 4 0 0 0-.218 1.343q0 .735.218 1.347a2.2 2.2 0 0 0 .681.979q.464.368 1.164.368m6.7-3.44V112h-1.486v-7.636h1.427v1.243h.094q.264-.608.825-.975.567-.368 1.427-.368.781 0 1.367.328.588.323.91.965.324.64.323 1.586V112h-1.486v-4.678q0-.83-.433-1.298-.432-.472-1.188-.472-.517 0-.92.224a1.6 1.6 0 0 0-.631.656q-.228.428-.229 1.034m10.172 4.688q-1.128 0-1.944-.482a3.3 3.3 0 0 1-1.253-1.367q-.437-.885-.437-2.073 0-1.174.437-2.069a3.4 3.4 0 0 1 1.233-1.397q.796-.502 1.86-.502.646 0 1.253.214t1.088.671q.483.457.761 1.188.279.727.278 1.765v.527h-6.07v-1.113h4.614q0-.587-.239-1.039a1.8 1.8 0 0 0-.671-.721 1.87 1.87 0 0 0-1.004-.264q-.627 0-1.094.308a2.1 2.1 0 0 0-.716.796 2.3 2.3 0 0 0-.249 1.059v.87q0 .765.269 1.302.273.537.761.821.487.278 1.138.278.423 0 .771-.119a1.59 1.59 0 0 0 .989-.97l1.407.254a2.55 2.55 0 0 1-.607 1.089 2.95 2.95 0 0 1-1.088.721q-.652.253-1.487.253m10.117-4.688V112h-1.486v-7.636h1.427v1.243h.094q.264-.608.825-.975.567-.368 1.427-.368.781 0 1.367.328.588.323.91.965.324.64.323 1.586V112h-1.486v-4.678q0-.83-.433-1.298-.432-.472-1.188-.472-.517 0-.92.224a1.6 1.6 0 0 0-.631.656q-.228.428-.229 1.034m11.718 1.367v-4.469h1.492V112h-1.462v-1.322h-.079a2.4 2.4 0 0 1-.845 1.019q-.578.402-1.437.402-.736 0-1.303-.323a2.3 2.3 0 0 1-.885-.969q-.318-.642-.318-1.586v-4.857h1.487v4.678q0 .78.432 1.243.432.462 1.124.462.417 0 .83-.209.417-.208.691-.631.279-.423.273-1.074m3.489 3.167v-7.636h1.427v1.243h.095q.238-.632.78-.985.542-.358 1.298-.358.765 0 1.282.358.522.358.771.985h.079q.274-.612.87-.975.597-.368 1.422-.368 1.04 0 1.696.651.66.652.661 1.964V112h-1.487v-4.982q0-.775-.422-1.123a1.54 1.54 0 0 0-1.009-.348q-.726 0-1.129.447-.402.443-.403 1.139V112h-1.481v-5.076q0-.621-.388-.999t-1.009-.378a1.44 1.44 0 0 0-.781.224 1.64 1.64 0 0 0-.572.611 1.9 1.9 0 0 0-.213.91V112zm12.493 0v-10.182h1.486v3.784h.09q.129-.24.372-.552.244-.313.677-.547.432-.239 1.143-.239a3 3 0 0 1 1.651.468q.726.466 1.138 1.347.418.879.418 2.118t-.413 2.123q-.413.88-1.133 1.357a2.94 2.94 0 0 1-1.646.472q-.696 0-1.139-.234a2.2 2.2 0 0 1-.686-.546 4 4 0 0 1-.382-.557h-.125V112zm1.456-3.818q0 .805.234 1.412t.676.949q.442.339 1.084.338.666 0 1.113-.353.448-.357.677-.969.233-.612.233-1.377 0-.756-.228-1.357a2.1 2.1 0 0 0-.677-.95q-.447-.348-1.118-.348-.647 0-1.094.333-.443.333-.671.93-.23.596-.229 1.392m10.479 3.972q-1.128 0-1.944-.482a3.3 3.3 0 0 1-1.253-1.367q-.437-.885-.437-2.073 0-1.174.437-2.069a3.4 3.4 0 0 1 1.233-1.397q.796-.502 1.86-.502.646 0 1.253.214t1.088.671q.483.457.761 1.188.279.727.278 1.765v.527h-6.07v-1.113h4.614q0-.587-.239-1.039a1.8 1.8 0 0 0-.671-.721 1.87 1.87 0 0 0-1.004-.264q-.627 0-1.094.308a2.1 2.1 0 0 0-.716.796 2.3 2.3 0 0 0-.249 1.059v.87q0 .765.269 1.302.273.537.761.821.487.278 1.138.278.423 0 .771-.119a1.6 1.6 0 0 0 .989-.97l1.407.254a2.55 2.55 0 0 1-.607 1.089 2.95 2.95 0 0 1-1.088.721q-.652.253-1.487.253m4.926-.154v-7.636h1.437v1.213h.079a1.85 1.85 0 0 1 .736-.97 2.1 2.1 0 0 1 1.203-.358 7 7 0 0 1 .631.035v1.422a3 3 0 0 0-.318-.055 3 3 0 0 0-.457-.035 1.94 1.94 0 0 0-.94.224 1.66 1.66 0 0 0-.885 1.497V112z"/><rect width="157" height="35" x="187.5" y="124.5" fill="#fff" rx="3.5"/><rect width="157" height="35" x="187.5" y="124.5" stroke="#e9e8e6" rx="3.5"/><path fill="#21201d" d="M200.491 141.909q0-1.88.488-3.455a10.8 10.8 0 0 1 1.402-2.909h1.034a6.4 6.4 0 0 0-.671 1.214 12 12 0 0 0-.542 1.576 15 15 0 0 0-.368 1.769q-.129.915-.129 1.805 0 1.183.228 2.401.229 1.218.617 2.262t.865 1.701h-1.034a10.8 10.8 0 0 1-1.402-2.904q-.488-1.58-.488-3.46m7.817 5.23a3.5 3.5 0 0 1-1.576-.348 2.94 2.94 0 0 1-1.124-.954 2.6 2.6 0 0 1-.462-1.382h1.193q.07.69.627 1.143.561.447 1.342.447.627 0 1.114-.293.492-.293.77-.805.284-.517.284-1.169 0-.666-.294-1.188a2.15 2.15 0 0 0-.795-.83 2.25 2.25 0 0 0-1.158-.308 3.1 3.1 0 0 0-.96.144 2.7 2.7 0 0 0-.81.373l-1.154-.139.617-5.012h5.289v1.094h-4.255l-.358 3.003h.059q.314-.248.786-.413t.984-.164q.935 0 1.666.448.736.442 1.153 1.213.423.77.423 1.76 0 .974-.438 1.74a3.2 3.2 0 0 1-1.193 1.203q-.76.437-1.73.437m8.518 0a3.5 3.5 0 0 1-1.576-.348 2.9 2.9 0 0 1-1.124-.954 2.6 2.6 0 0 1-.462-1.382h1.193q.07.69.626 1.143.562.447 1.343.447.626 0 1.113-.293.492-.293.771-.805a2.4 2.4 0 0 0 .283-1.169q0-.666-.293-1.188a2.15 2.15 0 0 0-.796-.83 2.25 2.25 0 0 0-1.158-.308 3.1 3.1 0 0 0-.959.144q-.493.144-.811.373l-1.153-.139.616-5.012h5.29v1.094h-4.256l-.358 3.003h.06q.314-.248.786-.413t.984-.164q.934 0 1.665.448.736.442 1.154 1.213.422.77.422 1.76 0 .974-.437 1.74a3.2 3.2 0 0 1-1.193 1.203q-.76.437-1.73.437m8.517 0a3.5 3.5 0 0 1-1.576-.348 2.9 2.9 0 0 1-1.123-.954 2.6 2.6 0 0 1-.463-1.382h1.193q.07.69.627 1.143.561.447 1.342.447.627 0 1.114-.293.492-.293.77-.805.284-.517.284-1.169 0-.666-.293-1.188a2.16 2.16 0 0 0-.796-.83 2.25 2.25 0 0 0-1.158-.308 3.1 3.1 0 0 0-.96.144 2.7 2.7 0 0 0-.81.373l-1.154-.139.617-5.012h5.29v1.094h-4.256l-.358 3.003h.06q.312-.248.785-.413a3 3 0 0 1 .985-.164q.934 0 1.665.448.736.442 1.153 1.213.423.77.423 1.76 0 .974-.437 1.74a3.2 3.2 0 0 1-1.194 1.203q-.76.437-1.73.437m7.862-5.23q0 1.88-.493 3.46a10.7 10.7 0 0 1-1.397 2.904h-1.034q.359-.492.666-1.213.314-.716.547-1.571.234-.86.363-1.775.135-.92.134-1.805 0-1.183-.228-2.401a14 14 0 0 0-.617-2.262q-.387-1.044-.865-1.701h1.034a10.6 10.6 0 0 1 1.397 2.909q.493 1.575.493 3.455m10.063-5.091V147h-1.233v-8.889h-.059l-2.486 1.65v-1.252l2.545-1.691zM246.197 147v-.895l3.36-3.679q.593-.646.975-1.123.382-.483.567-.905.188-.428.188-.895 0-.537-.258-.93a1.67 1.67 0 0 0-.696-.606 2.25 2.25 0 0 0-.994-.214 2.1 2.1 0 0 0-1.025.243q-.432.24-.671.672a2.1 2.1 0 0 0-.233 1.014h-1.174q0-.895.413-1.571t1.124-1.054a3.4 3.4 0 0 1 1.605-.378q.896 0 1.586.378.691.377 1.084 1.019t.393 1.427q0 .562-.204 1.099-.2.531-.696 1.188-.492.65-1.367 1.591l-2.287 2.446v.079h4.733V147zm11.916.139q-.984 0-1.755-.338a3 3 0 0 1-1.218-.939 2.54 2.54 0 0 1-.487-1.407h1.253q.04.492.338.85.298.352.781.547.481.193 1.069.193a2.8 2.8 0 0 0 1.163-.228q.507-.23.795-.637.29-.407.289-.944a1.77 1.77 0 0 0-.279-.99q-.278-.432-.815-.676-.536-.243-1.313-.243h-.815v-1.094h.815q.607 0 1.064-.219.463-.219.721-.616.264-.398.264-.935 0-.518-.229-.9a1.56 1.56 0 0 0-.646-.596 2.1 2.1 0 0 0-.975-.214q-.526 0-.994.194-.462.189-.756.552a1.44 1.44 0 0 0-.318.865h-1.193q.03-.8.482-1.402.453-.608 1.183-.945a3.8 3.8 0 0 1 1.616-.338q.945 0 1.621.383.676.378 1.039.999t.363 1.342q0 .861-.452 1.467a2.3 2.3 0 0 1-1.218.84v.08q.964.159 1.506.82.542.656.542 1.626 0 .83-.453 1.491a3.07 3.07 0 0 1-1.223 1.034q-.775.378-1.765.378m9.869-5.777v1.094h-4.454v-1.094zm5.624-4.544V147h-1.233v-8.889h-.059l-2.486 1.65v-1.252l2.545-1.691zM276.534 147v-.895l3.361-3.679q.592-.646.975-1.123.383-.483.566-.905.189-.428.189-.895 0-.537-.258-.93a1.67 1.67 0 0 0-.696-.606 2.25 2.25 0 0 0-.995-.214q-.586 0-1.024.243-.432.24-.671.672a2.1 2.1 0 0 0-.233 1.014h-1.174q0-.895.413-1.571a2.86 2.86 0 0 1 1.123-1.054 3.4 3.4 0 0 1 1.606-.378q.896 0 1.586.378.691.377 1.084 1.019t.393 1.427q0 .562-.204 1.099-.2.531-.696 1.188-.492.65-1.367 1.591l-2.287 2.446v.079h4.733V147zm11.917.139q-.984 0-1.755-.338a3 3 0 0 1-1.218-.939 2.54 2.54 0 0 1-.487-1.407h1.253q.04.492.338.85.298.352.781.547a2.8 2.8 0 0 0 1.068.193q.657 0 1.164-.228.507-.23.795-.637.29-.407.289-.944a1.77 1.77 0 0 0-.279-.99q-.278-.432-.815-.676-.537-.243-1.313-.243h-.815v-1.094h.815q.607 0 1.064-.219.463-.219.721-.616.264-.398.264-.935 0-.518-.229-.9a1.56 1.56 0 0 0-.646-.596 2.1 2.1 0 0 0-.975-.214q-.527 0-.994.194-.462.189-.756.552a1.44 1.44 0 0 0-.318.865h-1.193q.03-.8.482-1.402.453-.608 1.183-.945a3.8 3.8 0 0 1 1.616-.338q.945 0 1.621.383.676.378 1.039.999t.363 1.342q0 .861-.453 1.467a2.3 2.3 0 0 1-1.218.84v.08q.965.159 1.507.82.542.656.542 1.626 0 .83-.453 1.491a3.07 3.07 0 0 1-1.223 1.034q-.775.378-1.765.378m5.235-2.227v-1.014l4.475-7.08h.736v1.571h-.497l-3.381 5.35v.079h6.025v1.094zm4.793 2.088v-10.182h1.173V147z"/></svg>