<svg width="360" height="162" viewBox="0 0 360 162" fill="none" xmlns="http://www.w3.org/2000/svg">
<rect width="360" height="162" fill="white"/>
<g clip-path="url(#clip0_640_19985)">
<mask id="path-2-inside-1_640_19985" fill="white">
<path d="M0 8H360V42H0V8Z"/>
</mask>
<path d="M360 42V41H0V42V43H360V42Z" fill="#E9E8E6" mask="url(#path-2-inside-1_640_19985)"/>
<path d="M22.6719 19.4929C22.6188 19.0223 22.4001 18.6577 22.0156 18.3991C21.6312 18.1373 21.1473 18.0064 20.5639 18.0064C20.1463 18.0064 19.785 18.0727 19.4801 18.2053C19.1752 18.3345 18.9382 18.5135 18.7692 18.7422C18.6035 18.9676 18.5206 19.2244 18.5206 19.5128C18.5206 19.7547 18.5769 19.9635 18.6896 20.1392C18.8056 20.3149 18.9564 20.4624 19.142 20.5817C19.331 20.6977 19.5331 20.7955 19.7486 20.875C19.964 20.9512 20.1712 21.0142 20.37 21.0639L21.3643 21.3224C21.6892 21.402 22.0223 21.5097 22.3636 21.6456C22.705 21.7815 23.0215 21.9605 23.3132 22.1825C23.6049 22.4046 23.8402 22.6797 24.0192 23.0078C24.2015 23.3359 24.2926 23.7287 24.2926 24.1861C24.2926 24.7628 24.1435 25.2749 23.8452 25.7223C23.5502 26.1697 23.121 26.5227 22.5575 26.7812C21.9974 27.0398 21.3196 27.169 20.5241 27.169C19.7618 27.169 19.1023 27.0481 18.5455 26.8061C17.9886 26.5642 17.5528 26.2211 17.2379 25.777C16.9231 25.3295 16.7491 24.7992 16.7159 24.1861H18.2571C18.2869 24.554 18.4063 24.8606 18.6151 25.1058C18.8272 25.3478 19.0973 25.5284 19.4254 25.6477C19.7569 25.7637 20.1198 25.8217 20.5142 25.8217C20.9484 25.8217 21.3345 25.7538 21.6726 25.6179C22.014 25.4787 22.2824 25.2865 22.478 25.0412C22.6735 24.7926 22.7713 24.5026 22.7713 24.1712C22.7713 23.8696 22.6851 23.6226 22.5128 23.4304C22.3438 23.2382 22.1134 23.0791 21.8217 22.9531C21.5334 22.8272 21.2069 22.7161 20.8423 22.62L19.6392 22.2919C18.8239 22.0698 18.1776 21.7434 17.7003 21.3125C17.2263 20.8816 16.9893 20.3116 16.9893 19.6023C16.9893 19.0156 17.1484 18.5036 17.4666 18.0661C17.7848 17.6286 18.2157 17.2888 18.7592 17.0469C19.3028 16.8016 19.916 16.679 20.5987 16.679C21.2881 16.679 21.8963 16.8 22.4233 17.0419C22.9536 17.2839 23.3712 17.617 23.6761 18.0412C23.9811 18.4621 24.1402 18.946 24.1534 19.4929H22.6719ZM29.2257 27.1541C28.4866 27.1541 27.8502 26.9867 27.3166 26.652C26.7863 26.3139 26.3786 25.8482 26.0936 25.255C25.8085 24.6617 25.666 23.9822 25.666 23.2166C25.666 22.4411 25.8118 21.7566 26.1035 21.1634C26.3952 20.5668 26.8062 20.1011 27.3365 19.7663C27.8668 19.4316 28.4915 19.2642 29.2108 19.2642C29.7908 19.2642 30.3078 19.3719 30.7619 19.5874C31.216 19.7995 31.5822 20.0978 31.8606 20.4822C32.1423 20.8667 32.3097 21.3158 32.3627 21.8295H30.916C30.8365 21.4716 30.6542 21.1634 30.3691 20.9048C30.0874 20.6463 29.7096 20.517 29.2356 20.517C28.8213 20.517 28.4584 20.6264 28.1468 20.8452C27.8386 21.0606 27.5983 21.3688 27.426 21.7699C27.2536 22.1676 27.1674 22.6383 27.1674 23.1818C27.1674 23.7386 27.252 24.2192 27.421 24.6236C27.59 25.0279 27.8287 25.3411 28.1369 25.5632C28.4484 25.7853 28.8147 25.8963 29.2356 25.8963C29.5173 25.8963 29.7725 25.8449 30.0012 25.7422C30.2333 25.6361 30.4271 25.4853 30.5829 25.2898C30.742 25.0942 30.853 24.8589 30.916 24.5838H32.3627C32.3097 25.0777 32.149 25.5185 31.8805 25.9062C31.612 26.294 31.2524 26.599 30.8017 26.821C30.3542 27.0431 29.8289 27.1541 29.2257 27.1541ZM35.4389 22.4659V27H33.9524V16.8182H35.419V20.6065H35.5135C35.6925 20.1955 35.9659 19.8691 36.3338 19.6271C36.7017 19.3852 37.1823 19.2642 37.7756 19.2642C38.2992 19.2642 38.7566 19.3719 39.1477 19.5874C39.5421 19.8028 39.8471 20.1243 40.0625 20.5518C40.2812 20.9761 40.3906 21.5064 40.3906 22.1428V27H38.9041V22.3217C38.9041 21.7616 38.7599 21.3274 38.4716 21.0192C38.1832 20.7076 37.7822 20.5518 37.2685 20.5518C36.9171 20.5518 36.6023 20.6264 36.3239 20.7756C36.0488 20.9247 35.8317 21.1435 35.6726 21.4318C35.5168 21.7169 35.4389 22.0616 35.4389 22.4659ZM45.6655 27.1541C44.9131 27.1541 44.2652 26.9934 43.7216 26.6719C43.1813 26.3471 42.7637 25.8913 42.4688 25.3047C42.1771 24.7147 42.0312 24.0237 42.0312 23.2315C42.0312 22.4493 42.1771 21.7599 42.4688 21.1634C42.7637 20.5668 43.1747 20.1011 43.7017 19.7663C44.232 19.4316 44.8518 19.2642 45.5611 19.2642C45.992 19.2642 46.4096 19.3355 46.8139 19.478C47.2183 19.6205 47.5812 19.8442 47.9027 20.1491C48.2242 20.4541 48.4777 20.8501 48.6634 21.3374C48.849 21.8213 48.9418 22.4096 48.9418 23.1023V23.6293H42.8714V22.5156H47.4851C47.4851 22.1245 47.4055 21.7782 47.2464 21.4766C47.0874 21.1716 46.8636 20.9313 46.5753 20.7557C46.2902 20.58 45.9555 20.4922 45.571 20.4922C45.1534 20.4922 44.7888 20.5949 44.4773 20.8004C44.169 21.0026 43.9304 21.2678 43.7614 21.5959C43.5956 21.9207 43.5128 22.2737 43.5128 22.6548V23.5249C43.5128 24.0353 43.6023 24.4695 43.7812 24.8274C43.9635 25.1854 44.2171 25.4588 44.5419 25.6477C44.8667 25.8333 45.2462 25.9261 45.6804 25.9261C45.9621 25.9261 46.219 25.8864 46.451 25.8068C46.683 25.724 46.8835 25.6013 47.0526 25.4389C47.2216 25.2765 47.3509 25.076 47.4403 24.8374L48.8473 25.0909C48.7346 25.5052 48.5324 25.8681 48.2408 26.1797C47.9524 26.4879 47.5895 26.7282 47.152 26.9006C46.7178 27.0696 46.2223 27.1541 45.6655 27.1541ZM53.4498 27.1491C52.8333 27.1491 52.2831 26.9917 51.7992 26.6768C51.3186 26.3587 50.9408 25.9062 50.6657 25.3196C50.3939 24.7296 50.258 24.022 50.258 23.1967C50.258 22.3714 50.3955 21.6655 50.6706 21.0788C50.949 20.4922 51.3302 20.0431 51.8141 19.7315C52.298 19.42 52.8465 19.2642 53.4597 19.2642C53.9337 19.2642 54.3148 19.3438 54.6032 19.5028C54.8948 19.6586 55.1202 19.8409 55.2793 20.0497C55.4417 20.2585 55.5676 20.4425 55.6571 20.6016H55.7466V16.8182H57.2331V27H55.7814V25.8118H55.6571C55.5676 25.9742 55.4384 26.1598 55.2694 26.3686C55.1036 26.5774 54.8749 26.7597 54.5833 26.9155C54.2916 27.0713 53.9138 27.1491 53.4498 27.1491ZM53.7779 25.8814C54.2054 25.8814 54.5667 25.7687 54.8617 25.5433C55.16 25.3146 55.3854 24.9981 55.5378 24.5938C55.6936 24.1894 55.7715 23.7187 55.7715 23.1818C55.7715 22.6515 55.6953 22.1875 55.5428 21.7898C55.3903 21.392 55.1666 21.0821 54.8716 20.8601C54.5766 20.638 54.2121 20.527 53.7779 20.527C53.3304 20.527 52.9576 20.643 52.6593 20.875C52.361 21.107 52.1356 21.4235 51.9831 21.8246C51.834 22.2256 51.7594 22.678 51.7594 23.1818C51.7594 23.6922 51.8356 24.1513 51.9881 24.5589C52.1406 24.9666 52.3659 25.2898 52.6642 25.5284C52.9658 25.7637 53.3371 25.8814 53.7779 25.8814ZM64.1921 23.8331V19.3636H65.6836V27H64.2219V25.6776H64.1424C63.9667 26.0852 63.685 26.425 63.2972 26.6967C62.9128 26.9652 62.4338 27.0994 61.8604 27.0994C61.3699 27.0994 60.9357 26.9917 60.5579 26.7763C60.1834 26.5575 59.8884 26.2344 59.6729 25.8068C59.4608 25.3793 59.3548 24.8506 59.3548 24.2209V19.3636H60.8413V24.0419C60.8413 24.5623 60.9854 24.9766 61.2738 25.2848C61.5621 25.593 61.9367 25.7472 62.3974 25.7472C62.6758 25.7472 62.9525 25.6776 63.2276 25.5384C63.506 25.3991 63.7364 25.1887 63.9187 24.907C64.1043 24.6252 64.1954 24.2673 64.1921 23.8331ZM69.1674 16.8182V27H67.6809V16.8182H69.1674ZM71.1673 27V19.3636H72.6538V27H71.1673ZM71.918 18.1854C71.6594 18.1854 71.4374 18.0992 71.2518 17.9268C71.0695 17.7512 70.9783 17.5424 70.9783 17.3004C70.9783 17.0552 71.0695 16.8464 71.2518 16.674C71.4374 16.4983 71.6594 16.4105 71.918 16.4105C72.1765 16.4105 72.3969 16.4983 72.5792 16.674C72.7648 16.8464 72.8576 17.0552 72.8576 17.3004C72.8576 17.5424 72.7648 17.7512 72.5792 17.9268C72.3969 18.0992 72.1765 18.1854 71.918 18.1854ZM76.1401 22.4659V27H74.6536V19.3636H76.0804V20.6065H76.1749C76.3506 20.2022 76.6257 19.8774 77.0002 19.6321C77.378 19.3868 77.8536 19.2642 78.427 19.2642C78.9474 19.2642 79.4031 19.3736 79.7942 19.5923C80.1853 19.8078 80.4886 20.1293 80.704 20.5568C80.9194 20.9844 81.0272 21.513 81.0272 22.1428V27H79.5407V22.3217C79.5407 21.7682 79.3965 21.3357 79.1081 21.0241C78.8198 20.7093 78.4237 20.5518 77.9199 20.5518C77.5752 20.5518 77.2686 20.6264 77.0002 20.7756C76.735 20.9247 76.5246 21.1435 76.3688 21.4318C76.2163 21.7169 76.1401 22.0616 76.1401 22.4659ZM86.2225 30.0227C85.6159 30.0227 85.0939 29.9432 84.6564 29.7841C84.2222 29.625 83.8676 29.4145 83.5925 29.1527C83.3174 28.8909 83.1119 28.6042 82.976 28.2926L84.2537 27.7656C84.3432 27.9115 84.4625 28.0656 84.6117 28.228C84.7641 28.3937 84.9696 28.5346 85.2282 28.6506C85.49 28.7666 85.8264 28.8246 86.2374 28.8246C86.8008 28.8246 87.2665 28.687 87.6344 28.4119C88.0023 28.1402 88.1863 27.706 88.1863 27.1094V25.608H88.0918C88.0023 25.7704 87.873 25.951 87.704 26.1499C87.5383 26.3487 87.3096 26.5211 87.0179 26.6669C86.7263 26.8127 86.3468 26.8857 85.8794 26.8857C85.2762 26.8857 84.7327 26.7448 84.2488 26.4631C83.7682 26.178 83.387 25.7588 83.1053 25.2053C82.8269 24.6484 82.6877 23.964 82.6877 23.152C82.6877 22.34 82.8252 21.6439 83.1003 21.0639C83.3787 20.4839 83.7599 20.0398 84.2438 19.7315C84.7277 19.42 85.2762 19.2642 85.8894 19.2642C86.3633 19.2642 86.7462 19.3438 87.0378 19.5028C87.3295 19.6586 87.5565 19.8409 87.7189 20.0497C87.8846 20.2585 88.0123 20.4425 88.1017 20.6016H88.2111V19.3636H89.6678V27.169C89.6678 27.8253 89.5153 28.3639 89.2104 28.7848C88.9055 29.2057 88.4928 29.5173 87.9725 29.7195C87.4554 29.9216 86.8721 30.0227 86.2225 30.0227ZM86.2076 25.6527C86.6351 25.6527 86.9964 25.5533 87.2914 25.3544C87.5897 25.1522 87.815 24.8639 87.9675 24.4893C88.1233 24.1115 88.2012 23.6591 88.2012 23.1321C88.2012 22.6184 88.1249 22.166 87.9725 21.7749C87.82 21.3838 87.5963 21.0788 87.3013 20.8601C87.0063 20.638 86.6417 20.527 86.2076 20.527C85.7601 20.527 85.3873 20.643 85.089 20.875C84.7907 21.1037 84.5653 21.4152 84.4128 21.8097C84.2637 22.2041 84.1891 22.6449 84.1891 23.1321C84.1891 23.6326 84.2653 24.0717 84.4178 24.4496C84.5703 24.8274 84.7956 25.1224 85.0939 25.3345C85.3955 25.5466 85.7667 25.6527 86.2076 25.6527Z" fill="#6A3CDF"/>
<rect width="75" height="2" transform="translate(16 40)" fill="#6A3CDF"/>
<path d="M110.119 16.8182H111.983L115.224 24.733H115.344L118.585 16.8182H120.45V27H118.988V19.6321H118.893L115.891 26.9851H114.678L111.675 19.6271H111.58V27H110.119V16.8182ZM125.855 27.1541C125.103 27.1541 124.455 26.9934 123.911 26.6719C123.371 26.3471 122.953 25.8913 122.658 25.3047C122.367 24.7147 122.221 24.0237 122.221 23.2315C122.221 22.4493 122.367 21.7599 122.658 21.1634C122.953 20.5668 123.364 20.1011 123.891 19.7663C124.421 19.4316 125.041 19.2642 125.751 19.2642C126.181 19.2642 126.599 19.3355 127.003 19.478C127.408 19.6205 127.771 19.8442 128.092 20.1491C128.414 20.4541 128.667 20.8501 128.853 21.3374C129.038 21.8213 129.131 22.4096 129.131 23.1023V23.6293H123.061V22.5156H127.675C127.675 22.1245 127.595 21.7782 127.436 21.4766C127.277 21.1716 127.053 20.9313 126.765 20.7557C126.48 20.58 126.145 20.4922 125.76 20.4922C125.343 20.4922 124.978 20.5949 124.667 20.8004C124.358 21.0026 124.12 21.2678 123.951 21.5959C123.785 21.9207 123.702 22.2737 123.702 22.6548V23.5249C123.702 24.0353 123.792 24.4695 123.971 24.8274C124.153 25.1854 124.407 25.4588 124.731 25.6477C125.056 25.8333 125.436 25.9261 125.87 25.9261C126.152 25.9261 126.408 25.8864 126.64 25.8068C126.872 25.724 127.073 25.6013 127.242 25.4389C127.411 25.2765 127.54 25.076 127.63 24.8374L129.037 25.0909C128.924 25.5052 128.722 25.8681 128.43 26.1797C128.142 26.4879 127.779 26.7282 127.341 26.9006C126.907 27.0696 126.412 27.1541 125.855 27.1541ZM133.639 27.1491C133.023 27.1491 132.473 26.9917 131.989 26.6768C131.508 26.3587 131.13 25.9062 130.855 25.3196C130.583 24.7296 130.447 24.022 130.447 23.1967C130.447 22.3714 130.585 21.6655 130.86 21.0788C131.138 20.4922 131.52 20.0431 132.004 19.7315C132.487 19.42 133.036 19.2642 133.649 19.2642C134.123 19.2642 134.504 19.3438 134.793 19.5028C135.084 19.6586 135.31 19.8409 135.469 20.0497C135.631 20.2585 135.757 20.4425 135.847 20.6016H135.936V16.8182H137.423V27H135.971V25.8118H135.847C135.757 25.9742 135.628 26.1598 135.459 26.3686C135.293 26.5774 135.064 26.7597 134.773 26.9155C134.481 27.0713 134.103 27.1491 133.639 27.1491ZM133.967 25.8814C134.395 25.8814 134.756 25.7687 135.051 25.5433C135.349 25.3146 135.575 24.9981 135.727 24.5938C135.883 24.1894 135.961 23.7187 135.961 23.1818C135.961 22.6515 135.885 22.1875 135.732 21.7898C135.58 21.392 135.356 21.0821 135.061 20.8601C134.766 20.638 134.402 20.527 133.967 20.527C133.52 20.527 133.147 20.643 132.849 20.875C132.55 21.107 132.325 21.4235 132.173 21.8246C132.023 22.2256 131.949 22.678 131.949 23.1818C131.949 23.6922 132.025 24.1513 132.178 24.5589C132.33 24.9666 132.555 25.2898 132.854 25.5284C133.155 25.7637 133.527 25.8814 133.967 25.8814ZM139.544 27V19.3636H141.031V27H139.544ZM140.295 18.1854C140.036 18.1854 139.814 18.0992 139.629 17.9268C139.446 17.7512 139.355 17.5424 139.355 17.3004C139.355 17.0552 139.446 16.8464 139.629 16.674C139.814 16.4983 140.036 16.4105 140.295 16.4105C140.553 16.4105 140.774 16.4983 140.956 16.674C141.142 16.8464 141.235 17.0552 141.235 17.3004C141.235 17.5424 141.142 17.7512 140.956 17.9268C140.774 18.0992 140.553 18.1854 140.295 18.1854ZM146.247 27.1541C145.508 27.1541 144.872 26.9867 144.338 26.652C143.808 26.3139 143.4 25.8482 143.115 25.255C142.83 24.6617 142.688 23.9822 142.688 23.2166C142.688 22.4411 142.833 21.7566 143.125 21.1634C143.417 20.5668 143.828 20.1011 144.358 19.7663C144.888 19.4316 145.513 19.2642 146.232 19.2642C146.812 19.2642 147.329 19.3719 147.783 19.5874C148.237 19.7995 148.604 20.0978 148.882 20.4822C149.164 20.8667 149.331 21.3158 149.384 21.8295H147.938C147.858 21.4716 147.676 21.1634 147.391 20.9048C147.109 20.6463 146.731 20.517 146.257 20.517C145.843 20.517 145.48 20.6264 145.168 20.8452C144.86 21.0606 144.62 21.3688 144.447 21.7699C144.275 22.1676 144.189 22.6383 144.189 23.1818C144.189 23.7386 144.273 24.2192 144.442 24.6236C144.612 25.0279 144.85 25.3411 145.158 25.5632C145.47 25.7853 145.836 25.8963 146.257 25.8963C146.539 25.8963 146.794 25.8449 147.023 25.7422C147.255 25.6361 147.449 25.4853 147.604 25.2898C147.763 25.0942 147.875 24.8589 147.938 24.5838H149.384C149.331 25.0777 149.17 25.5185 148.902 25.9062C148.634 26.294 148.274 26.599 147.823 26.821C147.376 27.0431 146.85 27.1541 146.247 27.1541ZM153.196 27.169C152.712 27.169 152.275 27.0795 151.884 26.9006C151.493 26.7183 151.183 26.4548 150.954 26.1101C150.729 25.7654 150.616 25.3428 150.616 24.8423C150.616 24.4115 150.699 24.0568 150.865 23.7784C151.03 23.5 151.254 23.2796 151.536 23.1172C151.817 22.9548 152.132 22.8321 152.48 22.7493C152.828 22.6664 153.183 22.6035 153.544 22.5604C154.002 22.5073 154.373 22.4643 154.658 22.4311C154.943 22.3946 155.15 22.3366 155.279 22.2571C155.409 22.1776 155.473 22.0483 155.473 21.8693V21.8345C155.473 21.4003 155.351 21.0639 155.105 20.8253C154.863 20.5866 154.502 20.4673 154.021 20.4673C153.521 20.4673 153.127 20.5784 152.838 20.8004C152.553 21.0192 152.356 21.2628 152.247 21.5312L150.85 21.2131C151.015 20.7491 151.257 20.3745 151.575 20.0895C151.897 19.8011 152.267 19.5923 152.684 19.4631C153.102 19.3305 153.541 19.2642 154.002 19.2642C154.307 19.2642 154.63 19.3007 154.971 19.3736C155.316 19.4432 155.637 19.5724 155.936 19.7614C156.237 19.9503 156.484 20.2204 156.676 20.5717C156.869 20.9197 156.965 21.3722 156.965 21.929V27H155.513V25.956H155.453C155.357 26.1482 155.213 26.3371 155.021 26.5227C154.829 26.7083 154.582 26.8625 154.28 26.9851C153.978 27.1077 153.617 27.169 153.196 27.169ZM153.519 25.9759C153.93 25.9759 154.282 25.8946 154.573 25.7322C154.868 25.5698 155.092 25.3577 155.244 25.0959C155.4 24.8307 155.478 24.5473 155.478 24.2457V23.2614C155.425 23.3144 155.322 23.3641 155.17 23.4105C155.021 23.4536 154.85 23.4917 154.658 23.5249C154.466 23.5547 154.278 23.5829 154.096 23.6094C153.914 23.6326 153.761 23.6525 153.639 23.669C153.35 23.7055 153.087 23.7668 152.848 23.853C152.613 23.9392 152.424 24.0634 152.281 24.2259C152.142 24.3849 152.073 24.5971 152.073 24.8622C152.073 25.2301 152.209 25.5085 152.48 25.6974C152.752 25.883 153.098 25.9759 153.519 25.9759ZM162.509 19.3636V20.5568H158.338V19.3636H162.509ZM159.457 17.5341H160.943V24.7578C160.943 25.0462 160.986 25.2633 161.072 25.4091C161.159 25.5516 161.27 25.6494 161.406 25.7024C161.545 25.7521 161.696 25.777 161.858 25.777C161.977 25.777 162.082 25.7687 162.171 25.7521C162.261 25.7356 162.33 25.7223 162.38 25.7124L162.648 26.9403C162.562 26.9735 162.44 27.0066 162.281 27.0398C162.121 27.0762 161.923 27.0961 161.684 27.0994C161.293 27.1061 160.928 27.0365 160.59 26.8906C160.252 26.7448 159.979 26.5194 159.77 26.2145C159.561 25.9096 159.457 25.5268 159.457 25.0661V17.5341ZM164.154 27V19.3636H165.64V27H164.154ZM164.904 18.1854C164.646 18.1854 164.424 18.0992 164.238 17.9268C164.056 17.7512 163.965 17.5424 163.965 17.3004C163.965 17.0552 164.056 16.8464 164.238 16.674C164.424 16.4983 164.646 16.4105 164.904 16.4105C165.163 16.4105 165.383 16.4983 165.566 16.674C165.751 16.8464 165.844 17.0552 165.844 17.3004C165.844 17.5424 165.751 17.7512 165.566 17.9268C165.383 18.0992 165.163 18.1854 164.904 18.1854ZM170.857 27.1541C170.141 27.1541 169.516 26.9901 168.982 26.6619C168.449 26.3338 168.034 25.8748 167.739 25.2848C167.444 24.6948 167.297 24.0054 167.297 23.2166C167.297 22.4245 167.444 21.7318 167.739 21.1385C168.034 20.5452 168.449 20.0845 168.982 19.7564C169.516 19.4283 170.141 19.2642 170.857 19.2642C171.572 19.2642 172.197 19.4283 172.731 19.7564C173.264 20.0845 173.679 20.5452 173.974 21.1385C174.269 21.7318 174.416 22.4245 174.416 23.2166C174.416 24.0054 174.269 24.6948 173.974 25.2848C173.679 25.8748 173.264 26.3338 172.731 26.6619C172.197 26.9901 171.572 27.1541 170.857 27.1541ZM170.862 25.9062C171.326 25.9062 171.71 25.7836 172.015 25.5384C172.32 25.2931 172.545 24.9666 172.691 24.5589C172.84 24.1513 172.915 23.7022 172.915 23.2116C172.915 22.7244 172.84 22.277 172.691 21.8693C172.545 21.4583 172.32 21.1286 172.015 20.88C171.71 20.6314 171.326 20.5071 170.862 20.5071C170.394 20.5071 170.006 20.6314 169.698 20.88C169.393 21.1286 169.166 21.4583 169.017 21.8693C168.871 22.277 168.798 22.7244 168.798 23.2116C168.798 23.7022 168.871 24.1513 169.017 24.5589C169.166 24.9666 169.393 25.2931 169.698 25.5384C170.006 25.7836 170.394 25.9062 170.862 25.9062ZM177.562 22.4659V27H176.075V19.3636H177.502V20.6065H177.597C177.772 20.2022 178.048 19.8774 178.422 19.6321C178.8 19.3868 179.276 19.2642 179.849 19.2642C180.369 19.2642 180.825 19.3736 181.216 19.5923C181.607 19.8078 181.91 20.1293 182.126 20.5568C182.341 20.9844 182.449 21.513 182.449 22.1428V27H180.963V22.3217C180.963 21.7682 180.818 21.3357 180.53 21.0241C180.242 20.7093 179.846 20.5518 179.342 20.5518C178.997 20.5518 178.691 20.6264 178.422 20.7756C178.157 20.9247 177.946 21.1435 177.791 21.4318C177.638 21.7169 177.562 22.0616 177.562 22.4659ZM188.148 27V19.3636H189.585V20.5767H189.664C189.803 20.1657 190.049 19.8426 190.4 19.6072C190.754 19.3686 191.156 19.2493 191.603 19.2493C191.696 19.2493 191.805 19.2526 191.931 19.2592C192.06 19.2659 192.161 19.2741 192.234 19.2841V20.706C192.175 20.6894 192.069 20.6712 191.916 20.6513C191.764 20.6281 191.611 20.6165 191.459 20.6165C191.107 20.6165 190.794 20.6911 190.519 20.8402C190.247 20.986 190.032 21.1899 189.873 21.4517C189.714 21.7102 189.634 22.0052 189.634 22.3366V27H188.148ZM196.539 27.1541C195.786 27.1541 195.138 26.9934 194.595 26.6719C194.054 26.3471 193.637 25.8913 193.342 25.3047C193.05 24.7147 192.904 24.0237 192.904 23.2315C192.904 22.4493 193.05 21.7599 193.342 21.1634C193.637 20.5668 194.048 20.1011 194.575 19.7663C195.105 19.4316 195.725 19.2642 196.434 19.2642C196.865 19.2642 197.283 19.3355 197.687 19.478C198.091 19.6205 198.454 19.8442 198.776 20.1491C199.097 20.4541 199.351 20.8501 199.536 21.3374C199.722 21.8213 199.815 22.4096 199.815 23.1023V23.6293H193.744V22.5156H198.358C198.358 22.1245 198.279 21.7782 198.119 21.4766C197.96 21.1716 197.737 20.9313 197.448 20.7557C197.163 20.58 196.829 20.4922 196.444 20.4922C196.026 20.4922 195.662 20.5949 195.35 20.8004C195.042 21.0026 194.803 21.2678 194.634 21.5959C194.469 21.9207 194.386 22.2737 194.386 22.6548V23.5249C194.386 24.0353 194.475 24.4695 194.654 24.8274C194.837 25.1854 195.09 25.4588 195.415 25.6477C195.74 25.8333 196.119 25.9261 196.553 25.9261C196.835 25.9261 197.092 25.8864 197.324 25.8068C197.556 25.724 197.757 25.6013 197.926 25.4389C198.095 25.2765 198.224 25.076 198.313 24.8374L199.72 25.0909C199.608 25.5052 199.405 25.8681 199.114 26.1797C198.825 26.4879 198.463 26.7282 198.025 26.9006C197.591 27.0696 197.095 27.1541 196.539 27.1541ZM205.098 19.3636V20.5568H200.783V19.3636H205.098ZM201.966 27V18.4787C201.966 18.0014 202.071 17.6053 202.279 17.2905C202.488 16.9723 202.765 16.7353 203.11 16.5795C203.454 16.4205 203.829 16.3409 204.233 16.3409C204.532 16.3409 204.787 16.3658 204.999 16.4155C205.211 16.4619 205.368 16.505 205.471 16.5447L205.123 17.7479C205.054 17.728 204.964 17.7048 204.855 17.6783C204.745 17.6484 204.613 17.6335 204.457 17.6335C204.096 17.6335 203.837 17.723 203.681 17.902C203.529 18.081 203.453 18.3395 203.453 18.6776V27H201.966ZM206.632 27V19.3636H208.119V27H206.632ZM207.383 18.1854C207.124 18.1854 206.902 18.0992 206.717 17.9268C206.534 17.7512 206.443 17.5424 206.443 17.3004C206.443 17.0552 206.534 16.8464 206.717 16.674C206.902 16.4983 207.124 16.4105 207.383 16.4105C207.641 16.4105 207.862 16.4983 208.044 16.674C208.23 16.8464 208.322 17.0552 208.322 17.3004C208.322 17.5424 208.23 17.7512 208.044 17.9268C207.862 18.0992 207.641 18.1854 207.383 18.1854ZM211.605 16.8182V27H210.118V16.8182H211.605ZM215.091 16.8182V27H213.605V16.8182H215.091Z" fill="#8E8C88"/>
<path d="M236.119 27V16.8182H239.847C240.57 16.8182 241.168 16.9375 241.642 17.1761C242.116 17.4115 242.471 17.7313 242.706 18.1357C242.941 18.5367 243.059 18.9891 243.059 19.4929C243.059 19.9171 242.981 20.2751 242.825 20.5668C242.67 20.8551 242.461 21.0871 242.199 21.2628C241.94 21.4351 241.655 21.5611 241.344 21.6406V21.7401C241.682 21.7566 242.012 21.866 242.333 22.0682C242.658 22.267 242.926 22.5504 243.138 22.9183C243.351 23.2862 243.457 23.7337 243.457 24.2607C243.457 24.781 243.334 25.2483 243.089 25.6626C242.847 26.0736 242.472 26.4001 241.965 26.642C241.458 26.8807 240.81 27 240.021 27H236.119ZM237.655 25.6825H239.872C240.608 25.6825 241.135 25.54 241.453 25.255C241.771 24.9699 241.93 24.6136 241.93 24.1861C241.93 23.8646 241.849 23.5696 241.687 23.3011C241.524 23.0327 241.292 22.8189 240.991 22.6598C240.692 22.5007 240.338 22.4212 239.927 22.4212H237.655V25.6825ZM237.655 21.223H239.713C240.058 21.223 240.368 21.1567 240.643 21.0241C240.921 20.8916 241.142 20.706 241.304 20.4673C241.47 20.2254 241.553 19.9403 241.553 19.6122C241.553 19.1913 241.405 18.8383 241.11 18.5533C240.815 18.2682 240.363 18.1257 239.753 18.1257H237.655V21.223ZM245.159 27V19.3636H246.646V27H245.159ZM245.91 18.1854C245.652 18.1854 245.43 18.0992 245.244 17.9268C245.062 17.7512 244.971 17.5424 244.971 17.3004C244.971 17.0552 245.062 16.8464 245.244 16.674C245.43 16.4983 245.652 16.4105 245.91 16.4105C246.169 16.4105 246.389 16.4983 246.571 16.674C246.757 16.8464 246.85 17.0552 246.85 17.3004C246.85 17.5424 246.757 17.7512 246.571 17.9268C246.389 18.0992 246.169 18.1854 245.91 18.1854ZM250.132 16.8182V27H248.646V16.8182H250.132ZM253.619 16.8182V27H252.132V16.8182H253.619ZM255.618 27V19.3636H257.105V27H255.618ZM256.369 18.1854C256.111 18.1854 255.889 18.0992 255.703 17.9268C255.521 17.7512 255.43 17.5424 255.43 17.3004C255.43 17.0552 255.521 16.8464 255.703 16.674C255.889 16.4983 256.111 16.4105 256.369 16.4105C256.628 16.4105 256.848 16.4983 257.03 16.674C257.216 16.8464 257.309 17.0552 257.309 17.3004C257.309 17.5424 257.216 17.7512 257.03 17.9268C256.848 18.0992 256.628 18.1854 256.369 18.1854ZM260.591 22.4659V27H259.105V19.3636H260.532V20.6065H260.626C260.802 20.2022 261.077 19.8774 261.451 19.6321C261.829 19.3868 262.305 19.2642 262.878 19.2642C263.399 19.2642 263.854 19.3736 264.245 19.5923C264.636 19.8078 264.94 20.1293 265.155 20.5568C265.371 20.9844 265.478 21.513 265.478 22.1428V27H263.992V22.3217C263.992 21.7682 263.848 21.3357 263.559 21.0241C263.271 20.7093 262.875 20.5518 262.371 20.5518C262.026 20.5518 261.72 20.6264 261.451 20.7756C261.186 20.9247 260.976 21.1435 260.82 21.4318C260.667 21.7169 260.591 22.0616 260.591 22.4659ZM270.674 30.0227C270.067 30.0227 269.545 29.9432 269.108 29.7841C268.673 29.625 268.319 29.4145 268.044 29.1527C267.769 28.8909 267.563 28.6042 267.427 28.2926L268.705 27.7656C268.794 27.9115 268.914 28.0656 269.063 28.228C269.215 28.3937 269.421 28.5346 269.679 28.6506C269.941 28.7666 270.278 28.8246 270.689 28.8246C271.252 28.8246 271.718 28.687 272.086 28.4119C272.453 28.1402 272.637 27.706 272.637 27.1094V25.608H272.543C272.453 25.7704 272.324 25.951 272.155 26.1499C271.989 26.3487 271.761 26.5211 271.469 26.6669C271.177 26.8127 270.798 26.8857 270.331 26.8857C269.727 26.8857 269.184 26.7448 268.7 26.4631C268.219 26.178 267.838 25.7588 267.556 25.2053C267.278 24.6484 267.139 23.964 267.139 23.152C267.139 22.34 267.276 21.6439 267.551 21.0639C267.83 20.4839 268.211 20.0398 268.695 19.7315C269.179 19.42 269.727 19.2642 270.341 19.2642C270.815 19.2642 271.197 19.3438 271.489 19.5028C271.781 19.6586 272.008 19.8409 272.17 20.0497C272.336 20.2585 272.463 20.4425 272.553 20.6016H272.662V19.3636H274.119V27.169C274.119 27.8253 273.967 28.3639 273.662 28.7848C273.357 29.2057 272.944 29.5173 272.424 29.7195C271.907 29.9216 271.323 30.0227 270.674 30.0227ZM270.659 25.6527C271.086 25.6527 271.448 25.5533 271.743 25.3544C272.041 25.1522 272.266 24.8639 272.419 24.4893C272.574 24.1115 272.652 23.6591 272.652 23.1321C272.652 22.6184 272.576 22.166 272.424 21.7749C272.271 21.3838 272.047 21.0788 271.752 20.8601C271.458 20.638 271.093 20.527 270.659 20.527C270.211 20.527 269.838 20.643 269.54 20.875C269.242 21.1037 269.016 21.4152 268.864 21.8097C268.715 22.2041 268.64 22.6449 268.64 23.1321C268.64 23.6326 268.717 24.0717 268.869 24.4496C269.021 24.8274 269.247 25.1224 269.545 25.3345C269.847 25.5466 270.218 25.6527 270.659 25.6527Z" fill="#8E8C88"/>
<g clip-path="url(#clip1_640_19985)">
<mask id="path-12-inside-2_640_19985" fill="white">
<path d="M30 58H330V102H30V58Z"/>
</mask>
<path d="M330 102V101H30V102V103H330V102Z" fill="#E9E8E6" mask="url(#path-12-inside-2_640_19985)"/>
<path d="M34.375 85H31.233V74.8182H34.5142C35.5019 74.8182 36.3471 75.022 37.0497 75.4297C37.7524 75.834 38.291 76.4157 38.6655 77.1747C39.04 77.9304 39.2273 78.8352 39.2273 79.8892C39.2273 80.9498 39.0384 81.8629 38.6605 82.6286C38.2827 83.3909 37.7325 83.9775 37.0099 84.3885C36.2874 84.7962 35.4091 85 34.375 85ZM32.4659 83.9062H34.2955C35.1373 83.9062 35.835 83.7438 36.3885 83.419C36.942 83.0942 37.3546 82.6319 37.6264 82.032C37.8982 81.4321 38.0341 80.7178 38.0341 79.8892C38.0341 79.0672 37.8999 78.3596 37.6314 77.7663C37.3629 77.1697 36.9619 76.7124 36.4283 76.3942C35.8946 76.0727 35.2301 75.9119 34.4347 75.9119H32.4659V83.9062ZM45.9489 81.8778V77.3636H47.1222V85H45.9489V83.7074H45.8693C45.6903 84.0952 45.4119 84.425 45.0341 84.6967C44.6563 84.9652 44.179 85.0994 43.6023 85.0994C43.125 85.0994 42.7008 84.995 42.3295 84.7862C41.9583 84.5741 41.6667 84.2559 41.4545 83.8317C41.2424 83.4041 41.1364 82.8655 41.1364 82.2159V77.3636H42.3097V82.1364C42.3097 82.6932 42.4654 83.1373 42.777 83.4688C43.0919 83.8002 43.4929 83.9659 43.9801 83.9659C44.2718 83.9659 44.5684 83.8913 44.87 83.7422C45.175 83.593 45.4302 83.3643 45.6357 83.0561C45.8445 82.7479 45.9489 82.3551 45.9489 81.8778ZM49.2711 85V77.3636H50.4047V78.517H50.4842C50.6234 78.1392 50.8753 77.8326 51.2399 77.5973C51.6045 77.362 52.0154 77.2443 52.4728 77.2443C52.559 77.2443 52.6667 77.246 52.796 77.2493C52.9252 77.2526 53.023 77.2576 53.0893 77.2642V78.4574C53.0495 78.4474 52.9584 78.4325 52.8159 78.4126C52.6767 78.3894 52.5292 78.3778 52.3734 78.3778C52.0022 78.3778 51.6708 78.4557 51.3791 78.6115C51.0907 78.764 50.862 78.9761 50.693 79.2479C50.5273 79.5163 50.4444 79.8229 50.4444 80.1676V85H49.2711ZM56.7273 85.179C56.2434 85.179 55.8042 85.0878 55.4098 84.9055C55.0154 84.7199 54.7022 84.4531 54.4702 84.1051C54.2382 83.7538 54.1222 83.3295 54.1222 82.8324C54.1222 82.3949 54.2083 82.0402 54.3807 81.7685C54.553 81.4934 54.7834 81.2779 55.0717 81.1222C55.3601 80.9664 55.6783 80.8504 56.0263 80.7741C56.3776 80.6946 56.7306 80.6316 57.0852 80.5852C57.5492 80.5256 57.9254 80.4808 58.2138 80.451C58.5054 80.4179 58.7176 80.3632 58.8501 80.2869C58.986 80.2107 59.054 80.0781 59.054 79.8892V79.8494C59.054 79.3589 58.9197 78.9777 58.6513 78.706C58.3861 78.4342 57.9834 78.2983 57.4432 78.2983C56.883 78.2983 56.4439 78.4209 56.1257 78.6662C55.8075 78.9115 55.5838 79.1733 55.4545 79.4517L54.3409 79.054C54.5398 78.59 54.8049 78.2287 55.1364 77.9702C55.4711 77.7083 55.8357 77.526 56.2301 77.4233C56.6278 77.3172 57.0189 77.2642 57.4034 77.2642C57.6487 77.2642 57.9304 77.294 58.2486 77.3537C58.5701 77.41 58.88 77.5277 59.1783 77.7067C59.4799 77.8857 59.7301 78.1558 59.929 78.517C60.1278 78.8783 60.2273 79.3622 60.2273 79.9688V85H59.054V83.9659H58.9943C58.9148 84.1316 58.7822 84.3089 58.5966 84.4979C58.411 84.6868 58.1641 84.8475 57.8558 84.9801C57.5476 85.1127 57.1714 85.179 56.7273 85.179ZM56.9062 84.125C57.3703 84.125 57.7614 84.0339 58.0795 83.8516C58.401 83.6693 58.643 83.4339 58.8054 83.1456C58.9711 82.8572 59.054 82.554 59.054 82.2358V81.1619C59.0043 81.2216 58.8949 81.2763 58.7259 81.326C58.5601 81.3724 58.3679 81.4138 58.1491 81.4503C57.9337 81.4834 57.7232 81.5133 57.5178 81.5398C57.3156 81.563 57.1515 81.5829 57.0256 81.5994C56.7206 81.6392 56.4356 81.7038 56.1705 81.7933C55.9086 81.8795 55.6965 82.0104 55.5341 82.1861C55.375 82.3584 55.2955 82.5937 55.2955 82.892C55.2955 83.2997 55.4463 83.608 55.7479 83.8168C56.0528 84.0223 56.4389 84.125 56.9062 84.125ZM65.6898 77.3636V78.358H61.7324V77.3636H65.6898ZM62.8858 75.5341H64.0591V82.8125C64.0591 83.1439 64.1072 83.3925 64.2033 83.5582C64.3027 83.7206 64.4287 83.83 64.5811 83.8864C64.7369 83.9394 64.901 83.9659 65.0733 83.9659C65.2026 83.9659 65.3087 83.9593 65.3915 83.946C65.4744 83.9295 65.5407 83.9162 65.5904 83.9062L65.829 84.9602C65.7495 84.9901 65.6384 85.0199 65.4959 85.0497C65.3534 85.0829 65.1728 85.0994 64.954 85.0994C64.6226 85.0994 64.2978 85.0282 63.9796 84.8857C63.6647 84.7431 63.4029 84.526 63.1941 84.2344C62.9886 83.9427 62.8858 83.5748 62.8858 83.1307V75.5341ZM67.4547 85V77.3636H68.628V85H67.4547ZM68.0513 76.0909C67.8226 76.0909 67.6254 76.013 67.4597 75.8572C67.2973 75.7015 67.2161 75.5142 67.2161 75.2955C67.2161 75.0767 67.2973 74.8894 67.4597 74.7337C67.6254 74.5779 67.8226 74.5 68.0513 74.5C68.28 74.5 68.4756 74.5779 68.638 74.7337C68.8037 74.8894 68.8865 75.0767 68.8865 75.2955C68.8865 75.5142 68.8037 75.7015 68.638 75.8572C68.4756 76.013 68.28 76.0909 68.0513 76.0909ZM73.8793 85.1591C73.1899 85.1591 72.585 84.995 72.0646 84.6669C71.5476 84.3388 71.1432 83.8797 70.8516 83.2898C70.5632 82.6998 70.419 82.0104 70.419 81.2216C70.419 80.4261 70.5632 79.7318 70.8516 79.1385C71.1432 78.5452 71.5476 78.0845 72.0646 77.7564C72.585 77.4283 73.1899 77.2642 73.8793 77.2642C74.5687 77.2642 75.1719 77.4283 75.6889 77.7564C76.2093 78.0845 76.6136 78.5452 76.902 79.1385C77.1937 79.7318 77.3395 80.4261 77.3395 81.2216C77.3395 82.0104 77.1937 82.6998 76.902 83.2898C76.6136 83.8797 76.2093 84.3388 75.6889 84.6669C75.1719 84.995 74.5687 85.1591 73.8793 85.1591ZM73.8793 84.1051C74.4029 84.1051 74.8338 83.9709 75.1719 83.7024C75.5099 83.4339 75.7602 83.081 75.9226 82.6435C76.085 82.206 76.1662 81.732 76.1662 81.2216C76.1662 80.7112 76.085 80.2356 75.9226 79.7947C75.7602 79.3539 75.5099 78.9976 75.1719 78.7259C74.8338 78.4541 74.4029 78.3182 73.8793 78.3182C73.3556 78.3182 72.9247 78.4541 72.5866 78.7259C72.2486 78.9976 71.9983 79.3539 71.8359 79.7947C71.6735 80.2356 71.5923 80.7112 71.5923 81.2216C71.5923 81.732 71.6735 82.206 71.8359 82.6435C71.9983 83.081 72.2486 83.4339 72.5866 83.7024C72.9247 83.9709 73.3556 84.1051 73.8793 84.1051ZM80.3038 80.4062V85H79.1305V77.3636H80.264V78.5568H80.3635C80.5424 78.169 80.8142 77.8575 81.1788 77.6222C81.5434 77.3835 82.014 77.2642 82.5907 77.2642C83.1078 77.2642 83.5602 77.3703 83.948 77.5824C84.3358 77.7912 84.6374 78.1094 84.8528 78.5369C85.0682 78.9612 85.176 79.4981 85.176 80.1477V85H84.0027V80.2273C84.0027 79.6274 83.8469 79.16 83.5353 78.8253C83.2238 78.4872 82.7962 78.3182 82.2527 78.3182C81.8781 78.3182 81.5434 78.3994 81.2484 78.5618C80.9567 78.7242 80.7264 78.9612 80.5574 79.2727C80.3883 79.5843 80.3038 79.9621 80.3038 80.4062Z" fill="#21201D"/>
<path d="M253.494 85.1392C252.838 85.1392 252.253 85.0265 251.739 84.8011C251.229 84.5758 250.823 84.2625 250.521 83.8615C250.223 83.4571 250.061 82.9882 250.034 82.4545H251.287C251.313 82.7827 251.426 83.0661 251.625 83.3047C251.824 83.54 252.084 83.7223 252.406 83.8516C252.727 83.9808 253.083 84.0455 253.474 84.0455C253.912 84.0455 254.3 83.9692 254.638 83.8168C254.976 83.6643 255.241 83.4522 255.433 83.1804C255.625 82.9086 255.722 82.5938 255.722 82.2358C255.722 81.8613 255.629 81.5315 255.443 81.2464C255.258 80.9581 254.986 80.7327 254.628 80.5703C254.27 80.4079 253.832 80.3267 253.315 80.3267H252.5V79.233H253.315C253.72 79.233 254.074 79.16 254.379 79.0142C254.688 78.8684 254.928 78.6629 255.1 78.3977C255.276 78.1326 255.364 77.821 255.364 77.4631C255.364 77.1184 255.287 76.8184 255.135 76.5632C254.982 76.308 254.767 76.1091 254.489 75.9666C254.214 75.8241 253.889 75.7528 253.514 75.7528C253.163 75.7528 252.831 75.8175 252.52 75.9467C252.212 76.0727 251.96 76.2566 251.764 76.4986C251.569 76.7372 251.463 77.0256 251.446 77.3636H250.253C250.273 76.83 250.433 76.3627 250.735 75.9616C251.037 75.5573 251.431 75.2424 251.918 75.017C252.409 74.7917 252.947 74.679 253.534 74.679C254.164 74.679 254.704 74.8066 255.155 75.0618C255.606 75.3137 255.952 75.6468 256.194 76.0611C256.436 76.4754 256.557 76.9228 256.557 77.4034C256.557 77.9768 256.406 78.4657 256.104 78.87C255.806 79.2744 255.4 79.5545 254.886 79.7102V79.7898C255.529 79.8958 256.031 80.1693 256.393 80.6101C256.754 81.0476 256.935 81.5895 256.935 82.2358C256.935 82.7893 256.784 83.2865 256.482 83.7273C256.184 84.1648 255.776 84.5095 255.259 84.7614C254.742 85.0133 254.154 85.1392 253.494 85.1392ZM262.289 85.1392C261.54 85.1392 260.902 84.9354 260.375 84.5277C259.848 84.1167 259.445 83.5218 259.167 82.7429C258.888 81.9607 258.749 81.0161 258.749 79.9091C258.749 78.8087 258.888 77.8691 259.167 77.0902C259.449 76.308 259.853 75.7114 260.38 75.3004C260.91 74.8861 261.547 74.679 262.289 74.679C263.031 74.679 263.666 74.8861 264.193 75.3004C264.723 75.7114 265.128 76.308 265.406 77.0902C265.688 77.8691 265.829 78.8087 265.829 79.9091C265.829 81.0161 265.69 81.9607 265.411 82.7429C265.133 83.5218 264.73 84.1167 264.203 84.5277C263.676 84.9354 263.038 85.1392 262.289 85.1392ZM262.289 84.0455C263.031 84.0455 263.608 83.6875 264.019 82.9716C264.43 82.2557 264.636 81.2348 264.636 79.9091C264.636 79.0275 264.541 78.2768 264.352 77.657C264.167 77.0372 263.898 76.5649 263.547 76.2401C263.199 75.9152 262.78 75.7528 262.289 75.7528C261.553 75.7528 260.978 76.1158 260.564 76.8416C260.15 77.5642 259.942 78.5866 259.942 79.9091C259.942 80.7907 260.035 81.5398 260.221 82.1562C260.406 82.7727 260.673 83.2417 261.021 83.5632C261.373 83.8847 261.795 84.0455 262.289 84.0455ZM271.675 85V77.3636H272.809V78.5568H272.908C273.067 78.1491 273.324 77.8326 273.679 77.6072C274.034 77.3786 274.46 77.2642 274.957 77.2642C275.46 77.2642 275.88 77.3786 276.214 77.6072C276.553 77.8326 276.816 78.1491 277.005 78.5568H277.085C277.28 78.1624 277.573 77.8492 277.964 77.6172C278.356 77.3819 278.825 77.2642 279.371 77.2642C280.054 77.2642 280.613 77.478 281.047 77.9055C281.481 78.3298 281.698 78.991 281.698 79.8892V85H280.525V79.8892C280.525 79.3258 280.371 78.9231 280.062 78.6811C279.754 78.4392 279.391 78.3182 278.974 78.3182C278.437 78.3182 278.021 78.4806 277.726 78.8054C277.431 79.1269 277.283 79.5346 277.283 80.0284V85H276.09V79.7699C276.09 79.3357 275.949 78.986 275.668 78.7209C275.386 78.4524 275.023 78.3182 274.579 78.3182C274.274 78.3182 273.989 78.3994 273.724 78.5618C273.462 78.7242 273.25 78.9496 273.087 79.2379C272.928 79.523 272.849 79.8527 272.849 80.2273V85H271.675ZM283.843 85V77.3636H285.017V85H283.843ZM284.44 76.0909C284.211 76.0909 284.014 76.013 283.848 75.8572C283.686 75.7015 283.605 75.5142 283.605 75.2955C283.605 75.0767 283.686 74.8894 283.848 74.7337C284.014 74.5779 284.211 74.5 284.44 74.5C284.669 74.5 284.864 74.5779 285.027 74.7337C285.192 74.8894 285.275 75.0767 285.275 75.2955C285.275 75.5142 285.192 75.7015 285.027 75.8572C284.864 76.013 284.669 76.0909 284.44 76.0909ZM288.339 80.4062V85H287.166V77.3636H288.299V78.5568H288.399C288.578 78.169 288.849 77.8575 289.214 77.6222C289.579 77.3835 290.049 77.2642 290.626 77.2642C291.143 77.2642 291.595 77.3703 291.983 77.5824C292.371 77.7912 292.673 78.1094 292.888 78.5369C293.103 78.9612 293.211 79.4981 293.211 80.1477V85H292.038V80.2273C292.038 79.6274 291.882 79.16 291.57 78.8253C291.259 78.4872 290.831 78.3182 290.288 78.3182C289.913 78.3182 289.579 78.3994 289.284 78.5618C288.992 78.7242 288.762 78.9612 288.593 79.2727C288.423 79.5843 288.339 79.9621 288.339 80.4062ZM300.764 79.0739L299.71 79.3722C299.644 79.1965 299.546 79.0258 299.417 78.8601C299.291 78.6911 299.119 78.5518 298.9 78.4425C298.681 78.3331 298.401 78.2784 298.06 78.2784C297.592 78.2784 297.203 78.3861 296.891 78.6016C296.583 78.8137 296.429 79.0838 296.429 79.4119C296.429 79.7036 296.535 79.9339 296.747 80.103C296.959 80.272 297.291 80.4129 297.741 80.5256L298.875 80.804C299.558 80.9697 300.067 81.2232 300.401 81.5646C300.736 81.9027 300.903 82.3385 300.903 82.8722C300.903 83.3097 300.777 83.7008 300.526 84.0455C300.277 84.3902 299.929 84.6619 299.482 84.8608C299.034 85.0597 298.514 85.1591 297.92 85.1591C297.142 85.1591 296.497 84.9901 295.987 84.652C295.476 84.3139 295.153 83.8201 295.017 83.1705L296.131 82.892C296.237 83.303 296.437 83.6113 296.732 83.8168C297.031 84.0223 297.42 84.125 297.901 84.125C298.447 84.125 298.882 84.009 299.203 83.777C299.528 83.5417 299.69 83.2599 299.69 82.9318C299.69 82.6667 299.598 82.4446 299.412 82.2656C299.226 82.0833 298.941 81.9474 298.557 81.858L297.284 81.5597C296.585 81.3939 296.071 81.1371 295.743 80.7891C295.418 80.4377 295.256 79.9986 295.256 79.4716C295.256 79.0407 295.377 78.6596 295.619 78.3281C295.864 77.9967 296.197 77.7365 296.618 77.5476C297.042 77.3587 297.523 77.2642 298.06 77.2642C298.815 77.2642 299.409 77.4299 299.839 77.7614C300.274 78.0928 300.582 78.5303 300.764 79.0739Z" fill="#21201D"/>
<path d="M321.75 78.5L318 82.25L314.25 78.5" stroke="#8E8C88" stroke-width="1.1" stroke-linecap="round" stroke-linejoin="round"/>
<path d="M31.233 129V118.818H34.6733C35.4721 118.818 36.125 118.962 36.6321 119.251C37.1425 119.536 37.5204 119.922 37.7656 120.409C38.0109 120.896 38.1335 121.44 38.1335 122.04C38.1335 122.64 38.0109 123.185 37.7656 123.675C37.5237 124.166 37.1491 124.557 36.642 124.849C36.1349 125.137 35.4853 125.281 34.6932 125.281H32.2273V124.188H34.6534C35.2003 124.188 35.6394 124.093 35.9709 123.904C36.3023 123.715 36.5426 123.46 36.6918 123.138C36.8442 122.814 36.9205 122.447 36.9205 122.04C36.9205 121.632 36.8442 121.268 36.6918 120.946C36.5426 120.625 36.3007 120.373 35.9659 120.19C35.6312 120.005 35.187 119.912 34.6335 119.912H32.4659V129H31.233ZM39.9606 129V121.364H41.0941V122.517H41.1737C41.3129 122.139 41.5647 121.833 41.9293 121.597C42.2939 121.362 42.7049 121.244 43.1623 121.244C43.2485 121.244 43.3562 121.246 43.4854 121.249C43.6147 121.253 43.7125 121.258 43.7788 121.264V122.457C43.739 122.447 43.6478 122.433 43.5053 122.413C43.3661 122.389 43.2186 122.378 43.0629 122.378C42.6916 122.378 42.3602 122.456 42.0685 122.612C41.7802 122.764 41.5515 122.976 41.3825 123.248C41.2167 123.516 41.1339 123.823 41.1339 124.168V129H39.9606ZM48.0394 129.159C47.35 129.159 46.7451 128.995 46.2248 128.667C45.7077 128.339 45.3034 127.88 45.0117 127.29C44.7234 126.7 44.5792 126.01 44.5792 125.222C44.5792 124.426 44.7234 123.732 45.0117 123.138C45.3034 122.545 45.7077 122.085 46.2248 121.756C46.7451 121.428 47.35 121.264 48.0394 121.264C48.7288 121.264 49.332 121.428 49.8491 121.756C50.3694 122.085 50.7738 122.545 51.0621 123.138C51.3538 123.732 51.4996 124.426 51.4996 125.222C51.4996 126.01 51.3538 126.7 51.0621 127.29C50.7738 127.88 50.3694 128.339 49.8491 128.667C49.332 128.995 48.7288 129.159 48.0394 129.159ZM48.0394 128.105C48.5631 128.105 48.994 127.971 49.332 127.702C49.6701 127.434 49.9203 127.081 50.0827 126.643C50.2451 126.206 50.3263 125.732 50.3263 125.222C50.3263 124.711 50.2451 124.236 50.0827 123.795C49.9203 123.354 49.6701 122.998 49.332 122.726C48.994 122.454 48.5631 122.318 48.0394 122.318C47.5157 122.318 47.0849 122.454 46.7468 122.726C46.4087 122.998 46.1585 123.354 45.9961 123.795C45.8337 124.236 45.7525 124.711 45.7525 125.222C45.7525 125.732 45.8337 126.206 45.9961 126.643C46.1585 127.081 46.4087 127.434 46.7468 127.702C47.0849 127.971 47.5157 128.105 48.0394 128.105ZM59.2615 121.364L56.4377 129H55.2445L52.4206 121.364H53.6934L55.8013 127.449H55.8809L57.9888 121.364H59.2615ZM60.8102 129V121.364H61.9835V129H60.8102ZM61.4068 120.091C61.1781 120.091 60.9809 120.013 60.8152 119.857C60.6528 119.701 60.5716 119.514 60.5716 119.295C60.5716 119.077 60.6528 118.889 60.8152 118.734C60.9809 118.578 61.1781 118.5 61.4068 118.5C61.6355 118.5 61.831 118.578 61.9934 118.734C62.1592 118.889 62.242 119.077 62.242 119.295C62.242 119.514 62.1592 119.701 61.9934 119.857C61.831 120.013 61.6355 120.091 61.4068 120.091ZM67.016 129.159C66.3796 129.159 65.8178 128.998 65.3306 128.677C64.8434 128.352 64.4622 127.895 64.1871 127.305C63.9121 126.711 63.7745 126.01 63.7745 125.202C63.7745 124.4 63.9121 123.704 64.1871 123.114C64.4622 122.524 64.8451 122.068 65.3356 121.746C65.8261 121.425 66.3929 121.264 67.0359 121.264C67.533 121.264 67.9258 121.347 68.2141 121.513C68.5058 121.675 68.7279 121.861 68.8803 122.07C69.0361 122.275 69.1571 122.444 69.2433 122.577H69.3427V118.818H70.516V129H69.3825V127.827H69.2433C69.1571 127.966 69.0344 128.142 68.8754 128.354C68.7163 128.562 68.4892 128.75 68.1942 128.915C67.8993 129.078 67.5065 129.159 67.016 129.159ZM67.1751 128.105C67.6457 128.105 68.0434 127.982 68.3683 127.737C68.6931 127.489 68.94 127.146 69.109 126.708C69.2781 126.267 69.3626 125.759 69.3626 125.182C69.3626 124.612 69.2797 124.113 69.114 123.685C68.9483 123.254 68.703 122.92 68.3782 122.681C68.0534 122.439 67.6523 122.318 67.1751 122.318C66.6779 122.318 66.2636 122.446 65.9322 122.701C65.604 122.953 65.3571 123.296 65.1914 123.73C65.029 124.161 64.9478 124.645 64.9478 125.182C64.9478 125.725 65.0307 126.219 65.1964 126.663C65.3654 127.104 65.614 127.455 65.9421 127.717C66.2736 127.976 66.6845 128.105 67.1751 128.105ZM76.0295 129.159C75.2937 129.159 74.659 128.997 74.1254 128.672C73.5951 128.344 73.1857 127.886 72.8974 127.3C72.6123 126.71 72.4698 126.024 72.4698 125.241C72.4698 124.459 72.6123 123.77 72.8974 123.173C73.1857 122.573 73.5868 122.106 74.1005 121.771C74.6175 121.433 75.2208 121.264 75.9102 121.264C76.3079 121.264 76.7006 121.33 77.0884 121.463C77.4762 121.596 77.8292 121.811 78.1474 122.109C78.4656 122.404 78.7191 122.795 78.908 123.283C79.0969 123.77 79.1914 124.37 79.1914 125.082V125.58H73.305V124.565H77.9982C77.9982 124.134 77.9121 123.75 77.7397 123.412C77.5707 123.074 77.3287 122.807 77.0138 122.612C76.7023 122.416 76.3344 122.318 75.9102 122.318C75.4428 122.318 75.0385 122.434 74.6971 122.666C74.359 122.895 74.0988 123.193 73.9165 123.561C73.7343 123.929 73.6431 124.323 73.6431 124.744V125.42C73.6431 125.997 73.7425 126.486 73.9414 126.887C74.1436 127.285 74.4237 127.588 74.7816 127.797C75.1396 128.002 75.5555 128.105 76.0295 128.105C76.3377 128.105 76.6161 128.062 76.8647 127.976C77.1166 127.886 77.3337 127.754 77.516 127.578C77.6983 127.399 77.8391 127.177 77.9386 126.912L79.0721 127.23C78.9528 127.615 78.7522 127.953 78.4705 128.244C78.1888 128.533 77.8408 128.758 77.4265 128.92C77.0122 129.08 76.5465 129.159 76.0295 129.159ZM80.9762 129V121.364H82.1097V122.517H82.1893C82.3285 122.139 82.5804 121.833 82.945 121.597C83.3095 121.362 83.7205 121.244 84.1779 121.244C84.2641 121.244 84.3718 121.246 84.5011 121.249C84.6303 121.253 84.7281 121.258 84.7944 121.264V122.457C84.7546 122.447 84.6635 122.433 84.521 122.413C84.3817 122.389 84.2343 122.378 84.0785 122.378C83.7073 122.378 83.3758 122.456 83.0842 122.612C82.7958 122.764 82.5671 122.976 82.3981 123.248C82.2324 123.516 82.1495 123.823 82.1495 124.168V129H80.9762ZM91.5943 123.074L90.5403 123.372C90.474 123.196 90.3762 123.026 90.247 122.86C90.121 122.691 89.9487 122.552 89.7299 122.442C89.5112 122.333 89.2311 122.278 88.8897 122.278C88.4224 122.278 88.033 122.386 87.7214 122.602C87.4132 122.814 87.2591 123.084 87.2591 123.412C87.2591 123.704 87.3651 123.934 87.5772 124.103C87.7894 124.272 88.1208 124.413 88.5716 124.526L89.7051 124.804C90.3878 124.97 90.8966 125.223 91.2314 125.565C91.5661 125.903 91.7335 126.339 91.7335 126.872C91.7335 127.31 91.6075 127.701 91.3556 128.045C91.1071 128.39 90.7591 128.662 90.3116 128.861C89.8642 129.06 89.3438 129.159 88.7505 129.159C87.9717 129.159 87.327 128.99 86.8166 128.652C86.3062 128.314 85.983 127.82 85.8471 127.17L86.9608 126.892C87.0668 127.303 87.2673 127.611 87.5623 127.817C87.8606 128.022 88.2501 128.125 88.7306 128.125C89.2775 128.125 89.7117 128.009 90.0332 127.777C90.358 127.542 90.5204 127.26 90.5204 126.932C90.5204 126.667 90.4276 126.445 90.242 126.266C90.0564 126.083 89.7714 125.947 89.3869 125.858L88.1142 125.56C87.4148 125.394 86.9011 125.137 86.573 124.789C86.2482 124.438 86.0858 123.999 86.0858 123.472C86.0858 123.041 86.2067 122.66 86.4487 122.328C86.694 121.997 87.027 121.737 87.448 121.548C87.8722 121.359 88.3528 121.264 88.8897 121.264C89.6454 121.264 90.2387 121.43 90.6696 121.761C91.1038 122.093 91.412 122.53 91.5943 123.074Z" fill="#21201D"/>
<path d="M220.651 129H219.358L223.097 118.818H224.369L228.108 129H226.815L223.773 120.429H223.693L220.651 129ZM221.128 125.023H226.338V126.116H221.128V125.023ZM230.708 118.818V129H229.535V118.818H230.708ZM234.03 118.818V129H232.857V118.818H234.03ZM240.117 131.864V121.364H241.25V122.577H241.39C241.476 122.444 241.595 122.275 241.748 122.07C241.903 121.861 242.125 121.675 242.414 121.513C242.705 121.347 243.1 121.264 243.597 121.264C244.24 121.264 244.807 121.425 245.297 121.746C245.788 122.068 246.171 122.524 246.446 123.114C246.721 123.704 246.858 124.4 246.858 125.202C246.858 126.01 246.721 126.711 246.446 127.305C246.171 127.895 245.789 128.352 245.302 128.677C244.815 128.998 244.253 129.159 243.617 129.159C243.126 129.159 242.734 129.078 242.439 128.915C242.144 128.75 241.917 128.562 241.757 128.354C241.598 128.142 241.476 127.966 241.39 127.827H241.29V131.864H240.117ZM241.27 125.182C241.27 125.759 241.355 126.267 241.524 126.708C241.693 127.146 241.94 127.489 242.265 127.737C242.589 127.982 242.987 128.105 243.458 128.105C243.948 128.105 244.358 127.976 244.686 127.717C245.017 127.455 245.266 127.104 245.431 126.663C245.6 126.219 245.685 125.725 245.685 125.182C245.685 124.645 245.602 124.161 245.436 123.73C245.274 123.296 245.027 122.953 244.696 122.701C244.368 122.446 243.955 122.318 243.458 122.318C242.98 122.318 242.579 122.439 242.255 122.681C241.93 122.92 241.685 123.254 241.519 123.685C241.353 124.113 241.27 124.612 241.27 125.182ZM248.648 129V121.364H249.782V122.517H249.861C250 122.139 250.252 121.833 250.617 121.597C250.981 121.362 251.392 121.244 251.85 121.244C251.936 121.244 252.044 121.246 252.173 121.249C252.302 121.253 252.4 121.258 252.466 121.264V122.457C252.426 122.447 252.335 122.433 252.193 122.413C252.054 122.389 251.906 122.378 251.75 122.378C251.379 122.378 251.048 122.456 250.756 122.612C250.468 122.764 250.239 122.976 250.07 123.248C249.904 123.516 249.821 123.823 249.821 124.168V129H248.648ZM256.727 129.159C256.038 129.159 255.433 128.995 254.912 128.667C254.395 128.339 253.991 127.88 253.699 127.29C253.411 126.7 253.267 126.01 253.267 125.222C253.267 124.426 253.411 123.732 253.699 123.138C253.991 122.545 254.395 122.085 254.912 121.756C255.433 121.428 256.038 121.264 256.727 121.264C257.416 121.264 258.02 121.428 258.537 121.756C259.057 122.085 259.461 122.545 259.75 123.138C260.041 123.732 260.187 124.426 260.187 125.222C260.187 126.01 260.041 126.7 259.75 127.29C259.461 127.88 259.057 128.339 258.537 128.667C258.02 128.995 257.416 129.159 256.727 129.159ZM256.727 128.105C257.251 128.105 257.681 127.971 258.02 127.702C258.358 127.434 258.608 127.081 258.77 126.643C258.933 126.206 259.014 125.732 259.014 125.222C259.014 124.711 258.933 124.236 258.77 123.795C258.608 123.354 258.358 122.998 258.02 122.726C257.681 122.454 257.251 122.318 256.727 122.318C256.203 122.318 255.772 122.454 255.434 122.726C255.096 122.998 254.846 123.354 254.684 123.795C254.521 124.236 254.44 124.711 254.44 125.222C254.44 125.732 254.521 126.206 254.684 126.643C254.846 127.081 255.096 127.434 255.434 127.702C255.772 127.971 256.203 128.105 256.727 128.105ZM267.949 121.364L265.125 129H263.932L261.108 121.364H262.381L264.489 127.449H264.568L266.676 121.364H267.949ZM269.498 129V121.364H270.671V129H269.498ZM270.094 120.091C269.866 120.091 269.668 120.013 269.503 119.857C269.34 119.701 269.259 119.514 269.259 119.295C269.259 119.077 269.34 118.889 269.503 118.734C269.668 118.578 269.866 118.5 270.094 118.5C270.323 118.5 270.519 118.578 270.681 118.734C270.847 118.889 270.93 119.077 270.93 119.295C270.93 119.514 270.847 119.701 270.681 119.857C270.519 120.013 270.323 120.091 270.094 120.091ZM275.703 129.159C275.067 129.159 274.505 128.998 274.018 128.677C273.531 128.352 273.15 127.895 272.875 127.305C272.6 126.711 272.462 126.01 272.462 125.202C272.462 124.4 272.6 123.704 272.875 123.114C273.15 122.524 273.533 122.068 274.023 121.746C274.514 121.425 275.08 121.264 275.723 121.264C276.221 121.264 276.613 121.347 276.902 121.513C277.193 121.675 277.415 121.861 277.568 122.07C277.724 122.275 277.845 122.444 277.931 122.577H278.03V118.818H279.203V129H278.07V127.827H277.931C277.845 127.966 277.722 128.142 277.563 128.354C277.404 128.562 277.177 128.75 276.882 128.915C276.587 129.078 276.194 129.159 275.703 129.159ZM275.863 128.105C276.333 128.105 276.731 127.982 277.056 127.737C277.381 127.489 277.627 127.146 277.797 126.708C277.966 126.267 278.05 125.759 278.05 125.182C278.05 124.612 277.967 124.113 277.801 123.685C277.636 123.254 277.391 122.92 277.066 122.681C276.741 122.439 276.34 122.318 275.863 122.318C275.365 122.318 274.951 122.446 274.62 122.701C274.292 122.953 274.045 123.296 273.879 123.73C273.717 124.161 273.635 124.645 273.635 125.182C273.635 125.725 273.718 126.219 273.884 126.663C274.053 127.104 274.301 127.455 274.63 127.717C274.961 127.976 275.372 128.105 275.863 128.105ZM284.717 129.159C283.981 129.159 283.346 128.997 282.813 128.672C282.283 128.344 281.873 127.886 281.585 127.3C281.3 126.71 281.157 126.024 281.157 125.241C281.157 124.459 281.3 123.77 281.585 123.173C281.873 122.573 282.274 122.106 282.788 121.771C283.305 121.433 283.908 121.264 284.598 121.264C284.995 121.264 285.388 121.33 285.776 121.463C286.164 121.596 286.517 121.811 286.835 122.109C287.153 122.404 287.407 122.795 287.596 123.283C287.784 123.77 287.879 124.37 287.879 125.082V125.58H281.993V124.565H286.686C286.686 124.134 286.6 123.75 286.427 123.412C286.258 123.074 286.016 122.807 285.701 122.612C285.39 122.416 285.022 122.318 284.598 122.318C284.13 122.318 283.726 122.434 283.385 122.666C283.047 122.895 282.786 123.193 282.604 123.561C282.422 123.929 282.331 124.323 282.331 124.744V125.42C282.331 125.997 282.43 126.486 282.629 126.887C282.831 127.285 283.111 127.588 283.469 127.797C283.827 128.002 284.243 128.105 284.717 128.105C285.025 128.105 285.304 128.062 285.552 127.976C285.804 127.886 286.021 127.754 286.203 127.578C286.386 127.399 286.527 127.177 286.626 126.912L287.76 127.23C287.64 127.615 287.44 127.953 287.158 128.244C286.876 128.533 286.528 128.758 286.114 128.92C285.7 129.08 285.234 129.159 284.717 129.159ZM289.664 129V121.364H290.797V122.517H290.877C291.016 122.139 291.268 121.833 291.632 121.597C291.997 121.362 292.408 121.244 292.865 121.244C292.952 121.244 293.059 121.246 293.189 121.249C293.318 121.253 293.416 121.258 293.482 121.264V122.457C293.442 122.447 293.351 122.433 293.208 122.413C293.069 122.389 292.922 122.378 292.766 122.378C292.395 122.378 292.063 122.456 291.772 122.612C291.483 122.764 291.255 122.976 291.086 123.248C290.92 123.516 290.837 123.823 290.837 124.168V129H289.664ZM300.282 123.074L299.228 123.372C299.162 123.196 299.064 123.026 298.934 122.86C298.809 122.691 298.636 122.552 298.417 122.442C298.199 122.333 297.919 122.278 297.577 122.278C297.11 122.278 296.72 122.386 296.409 122.602C296.101 122.814 295.947 123.084 295.947 123.412C295.947 123.704 296.053 123.934 296.265 124.103C296.477 124.272 296.808 124.413 297.259 124.526L298.393 124.804C299.075 124.97 299.584 125.223 299.919 125.565C300.254 125.903 300.421 126.339 300.421 126.872C300.421 127.31 300.295 127.701 300.043 128.045C299.795 128.39 299.447 128.662 298.999 128.861C298.552 129.06 298.031 129.159 297.438 129.159C296.659 129.159 296.015 128.99 295.504 128.652C294.994 128.314 294.671 127.82 294.535 127.17L295.648 126.892C295.754 127.303 295.955 127.611 296.25 127.817C296.548 128.022 296.938 128.125 297.418 128.125C297.965 128.125 298.399 128.009 298.721 127.777C299.046 127.542 299.208 127.26 299.208 126.932C299.208 126.667 299.115 126.445 298.93 126.266C298.744 126.083 298.459 125.947 298.074 125.858L296.802 125.56C296.102 125.394 295.589 125.137 295.26 124.789C294.936 124.438 294.773 123.999 294.773 123.472C294.773 123.041 294.894 122.66 295.136 122.328C295.381 121.997 295.715 121.737 296.135 121.548C296.56 121.359 297.04 121.264 297.577 121.264C298.333 121.264 298.926 121.43 299.357 121.761C299.791 122.093 300.099 122.53 300.282 123.074Z" fill="#21201D"/>
<path d="M321.75 122.5L318 126.25L314.25 122.5" stroke="#8E8C88" stroke-width="1.1" stroke-linecap="round" stroke-linejoin="round"/>
</g>
<rect x="16.5" y="58.5" width="327" height="87" rx="5.5" stroke="#E9E8E6"/>
</g>
<defs>
<clipPath id="clip0_640_19985">
<rect y="8" width="360" height="138" rx="12" fill="white"/>
</clipPath>
<clipPath id="clip1_640_19985">
<rect x="16" y="58" width="328" height="88" rx="6" fill="white"/>
</clipPath>
</defs>
</svg>
